<svg width="24" height="24" viewBox="0 0 24 24" fill="none" xmlns="http://www.w3.org/2000/svg">
<g clip-path="url(#clip0)">
<path d="M13.8967 15.778C13.3099 15.3686 12.6827 15.035 12.0268 14.7801C12.8993 13.9871 13.4781 12.8762 13.5788 11.6325C14.902 10.3433 16.6363 9.63648 18.4956 9.63648C19.9471 9.63648 21.3407 10.0736 22.5261 10.9003C22.9509 11.1965 23.535 11.0925 23.8313 10.6677C24.1274 10.2431 24.0234 9.65882 23.5987 9.36273C23.0119 8.95331 22.3846 8.61988 21.7287 8.36481C22.6914 7.48975 23.2968 6.22797 23.2968 4.82758C23.2968 2.19141 21.1523 0.046875 18.5161 0.046875C15.8801 0.046875 13.7356 2.19141 13.7356 4.82758C13.7356 6.22229 14.336 7.47949 15.2922 8.35419C15.1612 8.40454 15.0311 8.45783 14.9021 8.51459C14.3155 8.77277 13.764 9.09027 13.2511 9.46308C12.5437 7.70581 10.8216 6.46216 8.81426 6.46216C6.17828 6.46216 4.03356 8.60669 4.03356 11.2427C4.03356 12.6335 4.63067 13.8873 5.58172 14.7616C3.03893 15.7143 0.977168 17.7605 0.137814 20.3701C-0.140507 21.2355 0.00689327 22.1532 0.542293 22.888C1.07769 23.6226 1.90606 24.044 2.815 24.044H10.9703C11.488 24.044 11.9076 23.6243 11.9076 23.1065C11.9076 22.5888 11.488 22.1691 10.9703 22.1691H2.815C2.51196 22.1691 2.23583 22.0287 2.05731 21.7837C1.87878 21.5387 1.82971 21.2327 1.92236 20.9442C2.84887 18.0635 5.67455 16.0518 8.79375 16.0518C10.245 16.0518 11.6388 16.4888 12.8243 17.3156C13.2489 17.6118 13.8332 17.5076 14.1294 17.083C14.4255 16.6584 14.3215 16.0741 13.8967 15.778ZM18.5161 1.92169C20.1184 1.92169 21.422 3.22522 21.422 4.82758C21.422 6.42975 20.1184 7.73346 18.5161 7.73346C16.9139 7.73346 15.6102 6.42975 15.6102 4.82758C15.6102 3.22522 16.9139 1.92169 18.5161 1.92169ZM8.81426 8.33679C10.4166 8.33679 11.7201 9.64051 11.7201 11.2427C11.7201 12.845 10.4166 14.1486 8.81426 14.1486C7.2119 14.1486 5.90838 12.845 5.90838 11.2427C5.90838 9.64051 7.2119 8.33679 8.81426 8.33679ZM23.9999 19.5914C23.9999 20.109 23.5802 20.5287 23.0624 20.5287H20.4847V23.1065C20.4847 23.6243 20.065 24.044 19.5473 24.044C19.0295 24.044 18.6098 23.6243 18.6098 23.1065V20.5287H16.0321C15.5144 20.5287 15.0948 20.109 15.0948 19.5914C15.0948 19.0736 15.5144 18.6539 16.0321 18.6539H18.6098V16.0761C18.6098 15.5585 19.0295 15.1388 19.5473 15.1388C20.065 15.1388 20.4847 15.5585 20.4847 16.0761V18.6539H23.0624C23.5802 18.6539 23.9999 19.0736 23.9999 19.5914Z" fill="#6EC1B1"/>
</g>
<defs>
<clipPath id="clip0">
<rect width="24" height="24" fill="white"/>
</clipPath>
</defs>
</svg>
