<svg width="24" height="24" viewBox="0 0 24 24" fill="none" xmlns="http://www.w3.org/2000/svg">
<path d="M21.1875 0.46875H2.81249C1.26159 0.46875 0 1.73053 0 3.28124V18.8437C0 20.0033 0.523864 21.0792 1.43701 21.7956C1.60858 21.9303 1.81256 21.9955 2.01489 21.9955C2.29303 21.9955 2.56823 21.8723 2.75317 21.6366C3.07287 21.2292 3.00164 20.64 2.59423 20.3203C2.1372 19.9618 1.875 19.4236 1.875 18.8437V6.14061H22.125V12.5625C22.125 13.0803 22.5446 13.5 23.0625 13.5C23.5803 13.5 24 13.0803 24 12.5625V3.28124C24 1.73053 22.7384 0.46875 21.1875 0.46875ZM17.3906 2.34375C17.9075 2.34375 18.3281 2.76434 18.3281 3.28124C18.3281 3.79815 17.9075 4.21874 17.3906 4.21874C16.8737 4.21874 16.4531 3.79815 16.4531 3.28124C16.4531 2.76434 16.8737 2.34375 17.3906 2.34375ZM22.0781 3.28124C22.0781 3.79815 21.6575 4.21874 21.1406 4.21874C20.6237 4.21874 20.2031 3.79815 20.2031 3.28124C20.2031 2.76434 20.6237 2.34375 21.1406 2.34375C21.6575 2.34375 22.0781 2.76434 22.0781 3.28124ZM1.875 3.28124C1.875 2.76434 2.29559 2.34375 2.81249 2.34375H14.7394C14.6352 2.63726 14.5781 2.95257 14.5781 3.28124C14.5781 3.6275 14.6413 3.9591 14.7563 4.26562H1.875V3.28124ZM14.0156 15H12.6562C12.1384 15 11.7187 15.4196 11.7187 15.9375V22.5937C11.7187 23.1115 12.1384 23.5312 12.6562 23.5312H14.0156C14.9339 23.5312 15.7459 23.1549 16.3022 22.4718C16.7924 21.8693 17.0625 21.047 17.0625 20.1562V18.375C17.0625 17.4842 16.7924 16.6618 16.3022 16.0596C15.7459 15.3763 14.9339 15 14.0156 15ZM15.1875 20.1562C15.1875 20.4067 15.1311 21.6562 14.0156 21.6562H13.5937V16.875H14.0156C15.1311 16.875 15.1875 18.1245 15.1875 18.375V20.1562ZM7.40624 15C5.85534 15 4.59374 16.2617 4.59374 17.8125V22.5937C4.59374 23.1115 5.01342 23.5312 5.53124 23.5312C6.04906 23.5312 6.46874 23.1115 6.46874 22.5937V21.2812H8.34373V22.5937C8.34373 23.1115 8.76341 23.5312 9.28123 23.5312C9.79905 23.5312 10.2187 23.1115 10.2187 22.5937V17.8125C10.2187 16.2617 8.95714 15 7.40624 15ZM6.46874 19.4062V17.8125C6.46874 17.2956 6.88933 16.875 7.40624 16.875C7.92314 16.875 8.34373 17.2956 8.34373 17.8125V19.4062H6.46874ZM23.997 20.8667C23.999 20.8914 24 20.9163 24 20.9414V20.9925C24 21.0175 23.999 21.0423 23.997 21.0668C23.9324 22.4588 22.7964 23.5312 21.3577 23.5312H20.6522C19.3227 23.5312 18.2812 22.543 18.2812 21.2812C18.2812 20.7634 18.7009 20.3437 19.2187 20.3437C19.7365 20.3437 20.1562 20.7634 20.1562 21.2812C20.1562 21.5564 20.4528 21.6562 20.6522 21.6562H21.3577C21.786 21.6562 22.111 21.3616 22.1244 20.9668C22.1109 20.5627 21.7791 20.25 21.3577 20.25H21C19.5727 20.25 18.4065 19.0949 18.3642 17.6587C18.3634 17.6429 18.3631 17.6272 18.3631 17.6112V17.5781C18.3631 17.562 18.3634 17.5459 18.3643 17.5299C18.3847 16.8523 18.6588 16.2231 19.1416 15.7507C19.6362 15.2666 20.2963 15 21 15H21.3111C22.6349 15 23.6718 15.9884 23.6718 17.25C23.6718 17.7678 23.2522 18.1875 22.7343 18.1875C22.2165 18.1875 21.7968 17.7678 21.7968 17.25C21.7968 16.9533 21.4791 16.875 21.3111 16.875H21C20.5713 16.875 20.2467 17.1831 20.2382 17.5946C20.247 18.0194 20.5922 18.375 21 18.375H21.3577C22.0616 18.375 22.7226 18.6428 23.2192 19.1292C23.6927 19.593 23.9663 20.206 23.997 20.8667Z" fill="#6EC1B1"/>
</svg>
