<svg width="24" height="24" viewBox="0 0 24 24" fill="none" xmlns="http://www.w3.org/2000/svg">
<g clip-path="url(#clip0)">
<path d="M24.0001 6.12855V23.0175C24.0001 23.5342 23.5811 23.9532 23.0644 23.9532H0.982423C0.465699 23.9532 0.0467529 23.5342 0.0467529 23.0175V0.935484C0.0467529 0.41876 0.465699 -0.000186272 0.982423 -0.000186272C1.49915 -0.000186272 1.91809 0.41876 1.91809 0.935484V13.5222L3.20972 12.2049C3.57154 11.836 4.16388 11.8301 4.53284 12.1919C4.9018 12.5537 4.90766 13.1463 4.54584 13.5152L1.91809 16.195V22.0818H3.74274V17.4502C3.74274 16.9334 4.16169 16.5145 4.67841 16.5145C5.19514 16.5145 5.61408 16.9334 5.61408 17.4502V22.0818H7.39185V13.5286C7.39185 13.0086 7.81574 12.5883 8.33576 12.5929C8.84919 12.5975 9.26301 13.015 9.26301 13.5286V22.0818H11.0408V13.5203C11.0408 13.0067 11.4548 12.5893 11.9682 12.5847C12.4882 12.5801 12.9121 13.0003 12.9121 13.5203V22.0818H14.7368V13.2863C14.7368 12.7709 15.1535 12.3527 15.669 12.3507C16.1872 12.3488 16.6081 12.7683 16.6081 13.2863V22.0818H18.4328V9.91792C18.4328 9.40248 18.8495 8.98426 19.365 8.98225C19.883 8.98042 20.3041 9.39991 20.3041 9.91792V22.0818H22.1286V6.12855C22.1286 5.6131 22.5455 5.19471 23.0608 5.19288C23.5789 5.19086 24.0001 5.61036 24.0001 6.12855ZM7.56965 10.3616L8.94148 8.98079C8.94404 8.97822 8.9466 8.97566 8.94898 8.97309C9.14289 8.77351 9.3943 8.65486 9.62281 8.65486H9.62812C9.8462 8.6565 10.0905 8.77186 10.2818 8.96339L11.3819 10.0635C11.9083 10.5897 12.5944 10.8869 13.3144 10.9003C13.3307 10.9006 13.3472 10.9008 13.3637 10.9008C14.0957 10.9008 14.8179 10.5972 15.3516 10.0635C15.3535 10.0617 15.3553 10.0598 15.3571 10.058L23.7315 1.54486C24.0938 1.17663 24.0889 0.584104 23.7205 0.221738C23.3521 -0.140628 22.7597 -0.135868 22.3974 0.232541L14.0261 8.74238C13.8421 8.92549 13.6019 9.02949 13.3642 9.02949C13.3593 9.02949 13.3541 9.02949 13.3492 9.02931C13.1194 9.0251 12.8847 8.91963 12.7052 8.74018L11.6051 7.64008C11.0666 7.10157 10.3516 6.78938 9.6435 6.78352C9.63655 6.78352 9.62977 6.78352 9.62281 6.78352C8.88966 6.78352 8.1576 7.10395 7.61067 7.66517L6.24213 9.04268C5.87794 9.40925 5.87977 10.0018 6.24634 10.366C6.61292 10.7302 7.20545 10.7282 7.56965 10.3616Z" fill="#475762"/>
</g>
<defs>
<clipPath id="clip0">
<rect width="24" height="24" fill="white"/>
</clipPath>
</defs>
</svg>
