<svg width="24" height="24" viewBox="0 0 24 24" fill="none" xmlns="http://www.w3.org/2000/svg">
<path d="M20.25 10.1719C20.25 10.6897 19.8303 11.1094 19.3125 11.1094H13.875C13.3572 11.1094 12.9375 10.6897 12.9375 10.1719C12.9375 9.65405 13.3572 9.23438 13.875 9.23438H19.3125C19.8303 9.23438 20.25 9.65405 20.25 10.1719ZM10.125 9.23438H4.6875C4.16968 9.23438 3.75 9.65405 3.75 10.1719C3.75 10.6897 4.16968 11.1094 4.6875 11.1094H10.125C10.6428 11.1094 11.0625 10.6897 11.0625 10.1719C11.0625 9.65405 10.6428 9.23438 10.125 9.23438ZM20.25 13.9219C20.25 13.4041 19.8303 12.9844 19.3125 12.9844H13.875C13.3572 12.9844 12.9375 13.4041 12.9375 13.9219C12.9375 14.4397 13.3572 14.8594 13.875 14.8594H19.3125C19.8303 14.8594 20.25 14.4397 20.25 13.9219ZM10.125 12.9844H4.6875C4.16968 12.9844 3.75 13.4041 3.75 13.9219C3.75 14.4397 4.16968 14.8594 4.6875 14.8594H10.125C10.6428 14.8594 11.0625 14.4397 11.0625 13.9219C11.0625 13.4041 10.6428 12.9844 10.125 12.9844ZM13.875 16.7344C13.3572 16.7344 12.9375 17.1541 12.9375 17.6719C12.9375 18.1897 13.3572 18.6094 13.875 18.6094H17.4375C17.9553 18.6094 18.375 18.1897 18.375 17.6719C18.375 17.1541 17.9553 16.7344 17.4375 16.7344H13.875ZM10.125 16.7344H4.6875C4.16968 16.7344 3.75 17.1541 3.75 17.6719C3.75 18.1897 4.16968 18.6094 4.6875 18.6094H10.125C10.6428 18.6094 11.0625 18.1897 11.0625 17.6719C11.0625 17.1541 10.6428 16.7344 10.125 16.7344ZM24 3.75V14.625C24 15.1428 23.5803 15.5625 23.0625 15.5625C22.5447 15.5625 22.125 15.1428 22.125 14.625V6.60938H1.875V19.3125C1.875 20.3463 2.71619 21.1875 3.75 21.1875H20.25C21.2838 21.1875 22.125 20.3463 22.125 19.3125C22.125 18.7947 22.5447 18.375 23.0625 18.375C23.5803 18.375 24 18.7947 24 19.3125C24 21.3803 22.3178 23.0625 20.25 23.0625H3.75C1.68219 23.0625 0 21.3803 0 19.3125V3.75C0 2.1991 1.2616 0.9375 2.8125 0.9375H21.1875C22.7384 0.9375 24 2.1991 24 3.75ZM16.4531 3.75C16.4531 4.26691 16.8737 4.6875 17.3906 4.6875C17.9075 4.6875 18.3281 4.26691 18.3281 3.75C18.3281 3.23309 17.9075 2.8125 17.3906 2.8125C16.8737 2.8125 16.4531 3.23309 16.4531 3.75ZM21.1406 2.8125C20.6237 2.8125 20.2031 3.23309 20.2031 3.75C20.2031 4.26691 20.6237 4.6875 21.1406 4.6875C21.6575 4.6875 22.0781 4.26691 22.0781 3.75C22.0781 3.23309 21.6575 2.8125 21.1406 2.8125ZM1.875 4.73438H14.7563C14.6413 4.42786 14.5781 4.09625 14.5781 3.75C14.5781 3.42133 14.6353 3.10602 14.7394 2.8125H2.8125C2.29559 2.8125 1.875 3.23309 1.875 3.75V4.73438Z" fill="#475762"/>
</svg>
