<svg width="17" height="12" viewBox="0 0 17 12" fill="none" xmlns="http://www.w3.org/2000/svg">
<g clip-path="url(#clip0)">
<path d="M16.7252 5.33638L16.7243 5.33549L11.8257 0.460497C11.4587 0.0952939 10.8651 0.096653 10.4998 0.463684C10.1346 0.830668 10.136 1.42424 10.503 1.78949L13.7919 5.06249H1.00017C0.482388 5.06249 7.22793e-05 5.48222 7.22793e-05 6C7.22793e-05 6.51778 0.482338 6.93749 1.00012 6.93749H13.7919L10.503 10.2105C10.136 10.5757 10.1346 11.1693 10.4999 11.5363C10.8652 11.9034 11.4588 11.9046 11.8257 11.5395L16.7244 6.66449L16.7252 6.6636C17.0924 6.29713 17.0912 5.70163 16.7252 5.33638Z" fill="#292929"/>
</g>
<defs>
<clipPath id="clip0">
<rect width="17" height="12" fill="white"/>
</clipPath>
</defs>
</svg>
