<svg width="101" height="100" viewBox="0 0 101 100" fill="none" xmlns="http://www.w3.org/2000/svg">
<g filter="url(#filter0_dd)">
<rect x="14.9229" y="16" width="58" height="58" rx="10" fill="#FFE3A7"/>
</g>
<rect x="10.5" y="22.0652" width="57" height="57" rx="9.5" fill="white" stroke="#FFC854"/>
<path d="M52.5 48.875V40.0625H25.5V55.1875C25.5 56.5659 26.6216 57.6875 28 57.6875H50C51.3784 57.6875 52.5 56.5659 52.5 55.1875C52.5 54.4971 53.0596 53.9375 53.75 53.9375C54.4404 53.9375 55 54.4971 55 55.1875C55 57.9446 52.7571 60.1875 50 60.1875H40.25V64.5H43.9375C44.6279 64.5 45.1875 65.0596 45.1875 65.75C45.1875 66.4404 44.6279 67 43.9375 67H34C33.3096 67 32.75 66.4404 32.75 65.75C32.75 65.0596 33.3096 64.5 34 64.5H37.75V60.1875H28C25.2429 60.1875 23 57.9446 23 55.1875V38.8125C23 38.1221 23.5596 37.5625 24.25 37.5625H37.75V36.25C37.75 35.5596 38.3096 35 39 35C39.6904 35 40.25 35.5596 40.25 36.25V37.5625H53.75C54.4404 37.5625 55 38.1221 55 38.8125V48.875C55 49.5654 54.4404 50.125 53.75 50.125C53.0596 50.125 52.5 49.5654 52.5 48.875ZM48.5442 45.1697C49.3147 45.4854 49.8125 46.2273 49.8125 47.0598V51.6606C49.8125 53.2263 48.5388 54.5 46.9731 54.5H30.8394C29.2737 54.5 28 53.2263 28 51.6606C28 50.9106 28.3049 50.177 28.8367 49.6479L34.2141 44.2966C35.0105 43.5042 36.3049 43.5059 37.0991 44.3003L39.1719 46.373L39.9619 45.5828C40.3477 45.197 40.8606 44.9846 41.4062 44.9846C41.9519 44.9846 42.4648 45.197 42.8506 45.5828L44.6179 47.3503L46.3145 45.6272C46.8984 45.0337 47.7737 44.854 48.5442 45.1697ZM47.3125 48.1768L46.0762 49.4326C45.6914 49.8237 45.1772 50.0403 44.6287 50.0422C44.626 50.0422 44.623 50.0422 44.6204 50.0422C44.0747 50.0422 43.5623 49.8301 43.1763 49.4441L41.4062 47.6741L40.6162 48.4641C39.8198 49.2605 38.5242 49.2605 37.7275 48.4641L35.6541 46.3906L30.6001 51.4202C30.5364 51.4834 30.5 51.571 30.5 51.6606C30.5 51.8477 30.6523 52 30.8394 52H46.9731C47.1602 52 47.3125 51.8477 47.3125 51.6606V48.1768Z" fill="#FFC854"/>
<defs>
<filter id="filter0_dd" x="0.922852" y="0" width="100" height="100" filterUnits="userSpaceOnUse" color-interpolation-filters="sRGB">
<feFlood flood-opacity="0" result="BackgroundImageFix"/>
<feColorMatrix in="SourceAlpha" type="matrix" values="0 0 0 0 0 0 0 0 0 0 0 0 0 0 0 0 0 0 127 0"/>
<feOffset dx="7" dy="5"/>
<feGaussianBlur stdDeviation="10.5"/>
<feColorMatrix type="matrix" values="0 0 0 0 0 0 0 0 0 0 0 0 0 0 0 0 0 0 0.05 0"/>
<feBlend mode="normal" in2="BackgroundImageFix" result="effect1_dropShadow"/>
<feColorMatrix in="SourceAlpha" type="matrix" values="0 0 0 0 0 0 0 0 0 0 0 0 0 0 0 0 0 0 127 0"/>
<feOffset dx="3" dy="3"/>
<feGaussianBlur stdDeviation="1.5"/>
<feColorMatrix type="matrix" values="0 0 0 0 0 0 0 0 0 0 0 0 0 0 0 0 0 0 0.03 0"/>
<feBlend mode="normal" in2="effect1_dropShadow" result="effect2_dropShadow"/>
<feBlend mode="normal" in="SourceGraphic" in2="effect2_dropShadow" result="shape"/>
</filter>
</defs>
</svg>
