<svg width="24" height="24" viewBox="0 0 24 24" fill="none" xmlns="http://www.w3.org/2000/svg">
<path d="M17.7603 24H6.23438C4.16656 24 2.48438 22.3178 2.48438 20.25V3.75C2.48438 1.68219 4.16656 0 6.23438 0H17.7605C19.8281 0 21.5105 1.68219 21.5105 3.75V15.5625C21.5105 16.0803 21.0906 16.5 20.573 16.5C20.0552 16.5 19.6355 16.0803 19.6355 15.5625V3.75C19.6355 2.71619 18.7943 1.875 17.7605 1.875H6.23438C5.20056 1.875 4.35938 2.71619 4.35938 3.75V20.25C4.35938 21.2838 5.20056 22.125 6.23438 22.125H17.7605C18.7943 22.125 19.6355 21.2838 19.6355 20.25C19.6355 19.7322 20.0552 19.3125 20.573 19.3125C21.0906 19.3125 21.5105 19.7322 21.5105 20.25C21.5103 22.3178 19.8281 24 17.7603 24ZM11.2473 16.4451C11.9183 16.4004 12.5447 16.0741 12.9661 15.55C12.9769 15.5363 12.9873 15.5226 12.9976 15.5085L17.6373 9.02747C17.9387 8.60651 17.8416 8.02075 17.4207 7.71954C16.9997 7.41815 16.4139 7.51501 16.1127 7.93597L11.4917 14.3908C11.3655 14.5371 11.2073 14.5686 11.1226 14.5743C11.0354 14.5803 10.866 14.569 10.7208 14.4307L7.72925 11.5582C7.35571 11.1995 6.76227 11.2115 6.40375 11.5851C6.04523 11.9584 6.05713 12.5521 6.43066 12.9106L9.42517 15.7859C9.87378 16.2129 10.4724 16.4504 11.0883 16.4504C11.1412 16.4504 11.1942 16.4487 11.2473 16.4451Z" fill="#475762"/>
</svg>
