<svg width="141" height="113" viewBox="0 0 141 113" fill="none" xmlns="http://www.w3.org/2000/svg">
<g clip-path="url(#clip0)">
<path d="M0 45.2019H1.92453V47.0892H0V45.2019Z" fill="#B3B3B3"/>
<path d="M0 -24H1.92453V-22.1127H0V-24Z" fill="#B3B3B3"/>
<path d="M7.0566 45.2019H8.98113V47.0892H7.0566V45.2019Z" fill="#B3B3B3"/>
<path d="M7.0566 -24H8.98113V-22.1127H7.0566V-24Z" fill="#B3B3B3"/>
<path d="M14.1132 45.2019H16.0377V47.0892H14.1132V45.2019Z" fill="#B3B3B3"/>
<path d="M14.1132 -24H16.0377V-22.1127H14.1132V-24Z" fill="#B3B3B3"/>
<path d="M21.1698 45.2019H23.0943V47.0892H21.1698V45.2019Z" fill="#B3B3B3"/>
<path d="M21.1698 -24H23.0943V-22.1127H21.1698V-24Z" fill="#B3B3B3"/>
<path d="M28.2264 45.2019H30.1509V47.0892H28.2264V45.2019Z" fill="#B3B3B3"/>
<path d="M28.2264 -24H30.1509V-22.1127H28.2264V-24Z" fill="#B3B3B3"/>
<path d="M35.283 45.2019H37.2075V47.0892H35.283V45.2019Z" fill="#B3B3B3"/>
<path d="M35.283 -24H37.2075V-22.1127H35.283V-24Z" fill="#B3B3B3"/>
<path d="M42.3396 45.2019H44.2641V47.0892H42.3396V45.2019Z" fill="#B3B3B3"/>
<path d="M42.3396 -24H44.2641V-22.1127H42.3396V-24Z" fill="#B3B3B3"/>
<path d="M49.3962 45.2019H51.3208V47.0892H49.3962V45.2019Z" fill="#B3B3B3"/>
<path d="M49.3962 -24H51.3208V-22.1127H49.3962V-24Z" fill="#B3B3B3"/>
<path d="M56.4528 45.2019H58.3774V47.0892H56.4528V45.2019Z" fill="#B3B3B3"/>
<path d="M56.4528 -24H58.3774V-22.1127H56.4528V-24Z" fill="#B3B3B3"/>
<path d="M63.5094 45.2019H65.434V47.0892H63.5094V45.2019Z" fill="#B3B3B3"/>
<path d="M63.5094 -24H65.434V-22.1127H63.5094V-24Z" fill="#B3B3B3"/>
<path d="M70.566 45.2019H72.4906V47.0892H70.566V45.2019Z" fill="#B3B3B3"/>
<path d="M70.566 -24H72.4906V-22.1127H70.566V-24Z" fill="#B3B3B3"/>
<path d="M77.6226 45.2019H79.5472V47.0892H77.6226V45.2019Z" fill="#B3B3B3"/>
<path d="M77.6226 -24H79.5472V-22.1127H77.6226V-24Z" fill="#B3B3B3"/>
<path d="M84.6792 45.2019H86.6038V47.0892H84.6792V45.2019Z" fill="#B3B3B3"/>
<path d="M84.6792 -24H86.6038V-22.1127H84.6792V-24Z" fill="#B3B3B3"/>
<path d="M91.7358 45.2019H93.6604V47.0892H91.7358V45.2019Z" fill="#B3B3B3"/>
<path d="M91.7358 -24H93.6604V-22.1127H91.7358V-24Z" fill="#B3B3B3"/>
<path d="M98.7924 45.2019H100.717V47.0892H98.7924V45.2019Z" fill="#B3B3B3"/>
<path d="M98.7924 -24H100.717V-22.1127H98.7924V-24Z" fill="#B3B3B3"/>
<path d="M105.849 45.2019H107.774V47.0892H105.849V45.2019Z" fill="#B3B3B3"/>
<path d="M105.849 -24H107.774V-22.1127H105.849V-24Z" fill="#B3B3B3"/>
<path d="M112.906 45.2019H114.83V47.0892H112.906V45.2019Z" fill="#B3B3B3"/>
<path d="M112.906 -24H114.83V-22.1127H112.906V-24Z" fill="#B3B3B3"/>
<path d="M119.962 45.2019H121.887V47.0892H119.962V45.2019Z" fill="#B3B3B3"/>
<path d="M119.962 -24H121.887V-22.1127H119.962V-24Z" fill="#B3B3B3"/>
<path d="M127.019 45.2019H128.943V47.0892H127.019V45.2019Z" fill="#B3B3B3"/>
<path d="M127.019 -24H128.943V-22.1127H127.019V-24Z" fill="#B3B3B3"/>
<path d="M134.075 45.2019H136V47.0892H134.075V45.2019Z" fill="#B3B3B3"/>
<path d="M134.075 -24H136V-22.1127H134.075V-24Z" fill="#B3B3B3"/>
<path d="M0 51.493H1.92453V53.3803H0V51.493Z" fill="#B3B3B3"/>
<path d="M0 -17.7089H1.92453V-15.8216H0V-17.7089Z" fill="#B3B3B3"/>
<path d="M7.0566 51.493H8.98113V53.3803H7.0566V51.493Z" fill="#B3B3B3"/>
<path d="M7.0566 -17.7089H8.98113V-15.8216H7.0566V-17.7089Z" fill="#B3B3B3"/>
<path d="M14.1132 51.493H16.0377V53.3803H14.1132V51.493Z" fill="#B3B3B3"/>
<path d="M14.1132 -17.7089H16.0377V-15.8216H14.1132V-17.7089Z" fill="#B3B3B3"/>
<path d="M21.1698 51.493H23.0943V53.3803H21.1698V51.493Z" fill="#B3B3B3"/>
<path d="M21.1698 -17.7089H23.0943V-15.8216H21.1698V-17.7089Z" fill="#B3B3B3"/>
<path d="M28.2264 51.493H30.1509V53.3803H28.2264V51.493Z" fill="#B3B3B3"/>
<path d="M28.2264 -17.7089H30.1509V-15.8216H28.2264V-17.7089Z" fill="#B3B3B3"/>
<path d="M35.283 51.493H37.2075V53.3803H35.283V51.493Z" fill="#B3B3B3"/>
<path d="M35.283 -17.7089H37.2075V-15.8216H35.283V-17.7089Z" fill="#B3B3B3"/>
<path d="M42.3396 51.493H44.2641V53.3803H42.3396V51.493Z" fill="#B3B3B3"/>
<path d="M42.3396 -17.7089H44.2641V-15.8216H42.3396V-17.7089Z" fill="#B3B3B3"/>
<path d="M49.3962 51.493H51.3208V53.3803H49.3962V51.493Z" fill="#B3B3B3"/>
<path d="M49.3962 -17.7089H51.3208V-15.8216H49.3962V-17.7089Z" fill="#B3B3B3"/>
<path d="M56.4528 51.493H58.3774V53.3803H56.4528V51.493Z" fill="#B3B3B3"/>
<path d="M56.4528 -17.7089H58.3774V-15.8216H56.4528V-17.7089Z" fill="#B3B3B3"/>
<path d="M63.5094 51.493H65.434V53.3803H63.5094V51.493Z" fill="#B3B3B3"/>
<path d="M63.5094 -17.7089H65.434V-15.8216H63.5094V-17.7089Z" fill="#B3B3B3"/>
<path d="M70.566 51.493H72.4906V53.3803H70.566V51.493Z" fill="#B3B3B3"/>
<path d="M70.566 -17.7089H72.4906V-15.8216H70.566V-17.7089Z" fill="#B3B3B3"/>
<path d="M77.6226 51.493H79.5472V53.3803H77.6226V51.493Z" fill="#B3B3B3"/>
<path d="M77.6226 -17.7089H79.5472V-15.8216H77.6226V-17.7089Z" fill="#B3B3B3"/>
<path d="M84.6792 51.493H86.6038V53.3803H84.6792V51.493Z" fill="#B3B3B3"/>
<path d="M84.6792 -17.7089H86.6038V-15.8216H84.6792V-17.7089Z" fill="#B3B3B3"/>
<path d="M91.7358 51.493H93.6604V53.3803H91.7358V51.493Z" fill="#B3B3B3"/>
<path d="M91.7358 -17.7089H93.6604V-15.8216H91.7358V-17.7089Z" fill="#B3B3B3"/>
<path d="M98.7924 51.493H100.717V53.3803H98.7924V51.493Z" fill="#B3B3B3"/>
<path d="M98.7924 -17.7089H100.717V-15.8216H98.7924V-17.7089Z" fill="#B3B3B3"/>
<path d="M105.849 51.493H107.774V53.3803H105.849V51.493Z" fill="#B3B3B3"/>
<path d="M105.849 -17.7089H107.774V-15.8216H105.849V-17.7089Z" fill="#B3B3B3"/>
<path d="M112.906 51.493H114.83V53.3803H112.906V51.493Z" fill="#B3B3B3"/>
<path d="M112.906 -17.7089H114.83V-15.8216H112.906V-17.7089Z" fill="#B3B3B3"/>
<path d="M119.962 51.493H121.887V53.3803H119.962V51.493Z" fill="#B3B3B3"/>
<path d="M119.962 -17.7089H121.887V-15.8216H119.962V-17.7089Z" fill="#B3B3B3"/>
<path d="M127.019 51.493H128.943V53.3803H127.019V51.493Z" fill="#B3B3B3"/>
<path d="M127.019 -17.7089H128.943V-15.8216H127.019V-17.7089Z" fill="#B3B3B3"/>
<path d="M134.075 51.493H136V53.3803H134.075V51.493Z" fill="#B3B3B3"/>
<path d="M134.075 -17.7089H136V-15.8216H134.075V-17.7089Z" fill="#B3B3B3"/>
<path d="M0 57.784H1.92453V59.6714H0V57.784Z" fill="#B3B3B3"/>
<path d="M0 -11.4178H1.92453V-9.53052H0V-11.4178Z" fill="#B3B3B3"/>
<path d="M7.0566 57.784H8.98113V59.6714H7.0566V57.784Z" fill="#B3B3B3"/>
<path d="M7.0566 -11.4178H8.98113V-9.53052H7.0566V-11.4178Z" fill="#B3B3B3"/>
<path d="M14.1132 57.784H16.0377V59.6714H14.1132V57.784Z" fill="#B3B3B3"/>
<path d="M14.1132 -11.4178H16.0377V-9.53052H14.1132V-11.4178Z" fill="#B3B3B3"/>
<path d="M21.1698 57.784H23.0943V59.6714H21.1698V57.784Z" fill="#B3B3B3"/>
<path d="M21.1698 -11.4178H23.0943V-9.53052H21.1698V-11.4178Z" fill="#B3B3B3"/>
<path d="M28.2264 57.784H30.1509V59.6714H28.2264V57.784Z" fill="#B3B3B3"/>
<path d="M28.2264 -11.4178H30.1509V-9.53052H28.2264V-11.4178Z" fill="#B3B3B3"/>
<path d="M35.283 57.784H37.2075V59.6714H35.283V57.784Z" fill="#B3B3B3"/>
<path d="M35.283 -11.4178H37.2075V-9.53052H35.283V-11.4178Z" fill="#B3B3B3"/>
<path d="M42.3396 57.784H44.2641V59.6714H42.3396V57.784Z" fill="#B3B3B3"/>
<path d="M42.3396 -11.4178H44.2641V-9.53052H42.3396V-11.4178Z" fill="#B3B3B3"/>
<path d="M49.3962 57.784H51.3208V59.6714H49.3962V57.784Z" fill="#B3B3B3"/>
<path d="M49.3962 -11.4178H51.3208V-9.53052H49.3962V-11.4178Z" fill="#B3B3B3"/>
<path d="M56.4528 57.784H58.3774V59.6714H56.4528V57.784Z" fill="#B3B3B3"/>
<path d="M56.4528 -11.4178H58.3774V-9.53052H56.4528V-11.4178Z" fill="#B3B3B3"/>
<path d="M63.5094 57.784H65.434V59.6714H63.5094V57.784Z" fill="#B3B3B3"/>
<path d="M63.5094 -11.4178H65.434V-9.53052H63.5094V-11.4178Z" fill="#B3B3B3"/>
<path d="M70.566 57.784H72.4906V59.6714H70.566V57.784Z" fill="#B3B3B3"/>
<path d="M70.566 -11.4178H72.4906V-9.53052H70.566V-11.4178Z" fill="#B3B3B3"/>
<path d="M77.6226 57.784H79.5472V59.6714H77.6226V57.784Z" fill="#B3B3B3"/>
<path d="M77.6226 -11.4178H79.5472V-9.53052H77.6226V-11.4178Z" fill="#B3B3B3"/>
<path d="M84.6792 57.784H86.6038V59.6714H84.6792V57.784Z" fill="#B3B3B3"/>
<path d="M84.6792 -11.4178H86.6038V-9.53052H84.6792V-11.4178Z" fill="#B3B3B3"/>
<path d="M91.7358 57.784H93.6604V59.6714H91.7358V57.784Z" fill="#B3B3B3"/>
<path d="M91.7358 -11.4178H93.6604V-9.53052H91.7358V-11.4178Z" fill="#B3B3B3"/>
<path d="M98.7924 57.784H100.717V59.6714H98.7924V57.784Z" fill="#B3B3B3"/>
<path d="M98.7924 -11.4178H100.717V-9.53052H98.7924V-11.4178Z" fill="#B3B3B3"/>
<path d="M105.849 57.784H107.774V59.6714H105.849V57.784Z" fill="#B3B3B3"/>
<path d="M105.849 -11.4178H107.774V-9.53052H105.849V-11.4178Z" fill="#B3B3B3"/>
<path d="M112.906 57.784H114.83V59.6714H112.906V57.784Z" fill="#B3B3B3"/>
<path d="M112.906 -11.4178H114.83V-9.53052H112.906V-11.4178Z" fill="#B3B3B3"/>
<path d="M119.962 57.784H121.887V59.6714H119.962V57.784Z" fill="#B3B3B3"/>
<path d="M119.962 -11.4178H121.887V-9.53052H119.962V-11.4178Z" fill="#B3B3B3"/>
<path d="M127.019 57.784H128.943V59.6714H127.019V57.784Z" fill="#B3B3B3"/>
<path d="M127.019 -11.4178H128.943V-9.53052H127.019V-11.4178Z" fill="#B3B3B3"/>
<path d="M134.075 57.784H136V59.6714H134.075V57.784Z" fill="#B3B3B3"/>
<path d="M134.075 -11.4178H136V-9.53052H134.075V-11.4178Z" fill="#B3B3B3"/>
<path d="M0 64.0751H1.92453V65.9624H0V64.0751Z" fill="#B3B3B3"/>
<path d="M0 -5.12676H1.92453V-3.23944H0V-5.12676Z" fill="#B3B3B3"/>
<path d="M7.0566 64.0751H8.98113V65.9624H7.0566V64.0751Z" fill="#B3B3B3"/>
<path d="M7.0566 -5.12676H8.98113V-3.23944H7.0566V-5.12676Z" fill="#B3B3B3"/>
<path d="M14.1132 64.0751H16.0377V65.9624H14.1132V64.0751Z" fill="#B3B3B3"/>
<path d="M14.1132 -5.12676H16.0377V-3.23944H14.1132V-5.12676Z" fill="#B3B3B3"/>
<path d="M21.1698 64.0751H23.0943V65.9624H21.1698V64.0751Z" fill="#B3B3B3"/>
<path d="M21.1698 -5.12676H23.0943V-3.23944H21.1698V-5.12676Z" fill="#B3B3B3"/>
<path d="M28.2264 64.0751H30.1509V65.9624H28.2264V64.0751Z" fill="#B3B3B3"/>
<path d="M28.2264 -5.12676H30.1509V-3.23944H28.2264V-5.12676Z" fill="#B3B3B3"/>
<path d="M35.283 64.0751H37.2075V65.9624H35.283V64.0751Z" fill="#B3B3B3"/>
<path d="M35.283 -5.12676H37.2075V-3.23944H35.283V-5.12676Z" fill="#B3B3B3"/>
<path d="M42.3396 64.0751H44.2641V65.9624H42.3396V64.0751Z" fill="#B3B3B3"/>
<path d="M42.3396 -5.12676H44.2641V-3.23944H42.3396V-5.12676Z" fill="#B3B3B3"/>
<path d="M49.3962 64.0751H51.3208V65.9624H49.3962V64.0751Z" fill="#B3B3B3"/>
<path d="M49.3962 -5.12676H51.3208V-3.23944H49.3962V-5.12676Z" fill="#B3B3B3"/>
<path d="M56.4528 64.0751H58.3774V65.9624H56.4528V64.0751Z" fill="#B3B3B3"/>
<path d="M56.4528 -5.12676H58.3774V-3.23944H56.4528V-5.12676Z" fill="#B3B3B3"/>
<path d="M63.5094 64.0751H65.434V65.9624H63.5094V64.0751Z" fill="#B3B3B3"/>
<path d="M63.5094 -5.12676H65.434V-3.23944H63.5094V-5.12676Z" fill="#B3B3B3"/>
<path d="M70.566 64.0751H72.4906V65.9624H70.566V64.0751Z" fill="#B3B3B3"/>
<path d="M70.566 -5.12676H72.4906V-3.23944H70.566V-5.12676Z" fill="#B3B3B3"/>
<path d="M77.6226 64.0751H79.5472V65.9624H77.6226V64.0751Z" fill="#B3B3B3"/>
<path d="M77.6226 -5.12676H79.5472V-3.23944H77.6226V-5.12676Z" fill="#B3B3B3"/>
<path d="M84.6792 64.0751H86.6038V65.9624H84.6792V64.0751Z" fill="#B3B3B3"/>
<path d="M84.6792 -5.12676H86.6038V-3.23944H84.6792V-5.12676Z" fill="#B3B3B3"/>
<path d="M91.7358 64.0751H93.6604V65.9624H91.7358V64.0751Z" fill="#B3B3B3"/>
<path d="M91.7358 -5.12676H93.6604V-3.23944H91.7358V-5.12676Z" fill="#B3B3B3"/>
<path d="M98.7924 64.0751H100.717V65.9624H98.7924V64.0751Z" fill="#B3B3B3"/>
<path d="M98.7924 -5.12676H100.717V-3.23944H98.7924V-5.12676Z" fill="#B3B3B3"/>
<path d="M105.849 64.0751H107.774V65.9624H105.849V64.0751Z" fill="#B3B3B3"/>
<path d="M105.849 -5.12676H107.774V-3.23944H105.849V-5.12676Z" fill="#B3B3B3"/>
<path d="M112.906 64.0751H114.83V65.9624H112.906V64.0751Z" fill="#B3B3B3"/>
<path d="M112.906 -5.12676H114.83V-3.23944H112.906V-5.12676Z" fill="#B3B3B3"/>
<path d="M119.962 64.0751H121.887V65.9624H119.962V64.0751Z" fill="#B3B3B3"/>
<path d="M119.962 -5.12676H121.887V-3.23944H119.962V-5.12676Z" fill="#B3B3B3"/>
<path d="M127.019 64.0751H128.943V65.9624H127.019V64.0751Z" fill="#B3B3B3"/>
<path d="M127.019 -5.12676H128.943V-3.23944H127.019V-5.12676Z" fill="#B3B3B3"/>
<path d="M134.075 64.0751H136V65.9624H134.075V64.0751Z" fill="#B3B3B3"/>
<path d="M134.075 -5.12676H136V-3.23944H134.075V-5.12676Z" fill="#B3B3B3"/>
<path d="M0 70.3662H1.92453V72.2535H0V70.3662Z" fill="#B3B3B3"/>
<path d="M0 1.16432H1.92453V3.05164H0V1.16432Z" fill="#B3B3B3"/>
<path d="M7.0566 70.3662H8.98113V72.2535H7.0566V70.3662Z" fill="#B3B3B3"/>
<path d="M7.0566 1.16432H8.98113V3.05164H7.0566V1.16432Z" fill="#B3B3B3"/>
<path d="M14.1132 70.3662H16.0377V72.2535H14.1132V70.3662Z" fill="#B3B3B3"/>
<path d="M14.1132 1.16432H16.0377V3.05164H14.1132V1.16432Z" fill="#B3B3B3"/>
<path d="M21.1698 70.3662H23.0943V72.2535H21.1698V70.3662Z" fill="#B3B3B3"/>
<path d="M21.1698 1.16432H23.0943V3.05164H21.1698V1.16432Z" fill="#B3B3B3"/>
<path d="M28.2264 70.3662H30.1509V72.2535H28.2264V70.3662Z" fill="#B3B3B3"/>
<path d="M28.2264 1.16432H30.1509V3.05164H28.2264V1.16432Z" fill="#B3B3B3"/>
<path d="M35.283 70.3662H37.2075V72.2535H35.283V70.3662Z" fill="#B3B3B3"/>
<path d="M35.283 1.16432H37.2075V3.05164H35.283V1.16432Z" fill="#B3B3B3"/>
<path d="M42.3396 70.3662H44.2641V72.2535H42.3396V70.3662Z" fill="#B3B3B3"/>
<path d="M42.3396 1.16432H44.2641V3.05164H42.3396V1.16432Z" fill="#B3B3B3"/>
<path d="M49.3962 70.3662H51.3208V72.2535H49.3962V70.3662Z" fill="#B3B3B3"/>
<path d="M49.3962 1.16432H51.3208V3.05164H49.3962V1.16432Z" fill="#B3B3B3"/>
<path d="M56.4528 70.3662H58.3774V72.2535H56.4528V70.3662Z" fill="#B3B3B3"/>
<path d="M56.4528 1.16432H58.3774V3.05164H56.4528V1.16432Z" fill="#B3B3B3"/>
<path d="M63.5094 70.3662H65.434V72.2535H63.5094V70.3662Z" fill="#B3B3B3"/>
<path d="M63.5094 1.16432H65.434V3.05164H63.5094V1.16432Z" fill="#B3B3B3"/>
<path d="M70.566 70.3662H72.4906V72.2535H70.566V70.3662Z" fill="#B3B3B3"/>
<path d="M70.566 1.16432H72.4906V3.05164H70.566V1.16432Z" fill="#B3B3B3"/>
<path d="M77.6226 70.3662H79.5472V72.2535H77.6226V70.3662Z" fill="#B3B3B3"/>
<path d="M77.6226 1.16432H79.5472V3.05164H77.6226V1.16432Z" fill="#B3B3B3"/>
<path d="M84.6792 70.3662H86.6038V72.2535H84.6792V70.3662Z" fill="#B3B3B3"/>
<path d="M84.6792 1.16432H86.6038V3.05164H84.6792V1.16432Z" fill="#B3B3B3"/>
<path d="M91.7358 70.3662H93.6604V72.2535H91.7358V70.3662Z" fill="#B3B3B3"/>
<path d="M91.7358 1.16432H93.6604V3.05164H91.7358V1.16432Z" fill="#B3B3B3"/>
<path d="M98.7924 70.3662H100.717V72.2535H98.7924V70.3662Z" fill="#B3B3B3"/>
<path d="M98.7924 1.16432H100.717V3.05164H98.7924V1.16432Z" fill="#B3B3B3"/>
<path d="M105.849 70.3662H107.774V72.2535H105.849V70.3662Z" fill="#B3B3B3"/>
<path d="M105.849 1.16432H107.774V3.05164H105.849V1.16432Z" fill="#B3B3B3"/>
<path d="M112.906 70.3662H114.83V72.2535H112.906V70.3662Z" fill="#B3B3B3"/>
<path d="M112.906 1.16432H114.83V3.05164H112.906V1.16432Z" fill="#B3B3B3"/>
<path d="M119.962 70.3662H121.887V72.2535H119.962V70.3662Z" fill="#B3B3B3"/>
<path d="M119.962 1.16432H121.887V3.05164H119.962V1.16432Z" fill="#B3B3B3"/>
<path d="M127.019 70.3662H128.943V72.2535H127.019V70.3662Z" fill="#B3B3B3"/>
<path d="M127.019 1.16432H128.943V3.05164H127.019V1.16432Z" fill="#B3B3B3"/>
<path d="M134.075 70.3662H136V72.2535H134.075V70.3662Z" fill="#B3B3B3"/>
<path d="M134.075 1.16432H136V3.05164H134.075V1.16432Z" fill="#B3B3B3"/>
<path d="M0 76.6573H1.92453V78.5446H0V76.6573Z" fill="#B3B3B3"/>
<path d="M0 7.4554H1.92453V9.34272H0V7.4554Z" fill="#B3B3B3"/>
<path d="M7.0566 76.6573H8.98113V78.5446H7.0566V76.6573Z" fill="#B3B3B3"/>
<path d="M7.0566 7.4554H8.98113V9.34272H7.0566V7.4554Z" fill="#B3B3B3"/>
<path d="M14.1132 76.6573H16.0377V78.5446H14.1132V76.6573Z" fill="#B3B3B3"/>
<path d="M14.1132 7.4554H16.0377V9.34272H14.1132V7.4554Z" fill="#B3B3B3"/>
<path d="M21.1698 76.6573H23.0943V78.5446H21.1698V76.6573Z" fill="#B3B3B3"/>
<path d="M21.1698 7.4554H23.0943V9.34272H21.1698V7.4554Z" fill="#B3B3B3"/>
<path d="M28.2264 76.6573H30.1509V78.5446H28.2264V76.6573Z" fill="#B3B3B3"/>
<path d="M28.2264 7.4554H30.1509V9.34272H28.2264V7.4554Z" fill="#B3B3B3"/>
<path d="M35.283 76.6573H37.2075V78.5446H35.283V76.6573Z" fill="#B3B3B3"/>
<path d="M35.283 7.4554H37.2075V9.34272H35.283V7.4554Z" fill="#B3B3B3"/>
<path d="M42.3396 76.6573H44.2641V78.5446H42.3396V76.6573Z" fill="#B3B3B3"/>
<path d="M42.3396 7.4554H44.2641V9.34272H42.3396V7.4554Z" fill="#B3B3B3"/>
<path d="M49.3962 76.6573H51.3208V78.5446H49.3962V76.6573Z" fill="#B3B3B3"/>
<path d="M49.3962 7.4554H51.3208V9.34272H49.3962V7.4554Z" fill="#B3B3B3"/>
<path d="M56.4528 76.6573H58.3774V78.5446H56.4528V76.6573Z" fill="#B3B3B3"/>
<path d="M56.4528 7.4554H58.3774V9.34272H56.4528V7.4554Z" fill="#B3B3B3"/>
<path d="M63.5094 76.6573H65.434V78.5446H63.5094V76.6573Z" fill="#B3B3B3"/>
<path d="M63.5094 7.4554H65.434V9.34272H63.5094V7.4554Z" fill="#B3B3B3"/>
<path d="M70.566 76.6573H72.4906V78.5446H70.566V76.6573Z" fill="#B3B3B3"/>
<path d="M70.566 7.4554H72.4906V9.34272H70.566V7.4554Z" fill="#B3B3B3"/>
<path d="M77.6226 76.6573H79.5472V78.5446H77.6226V76.6573Z" fill="#B3B3B3"/>
<path d="M77.6226 7.4554H79.5472V9.34272H77.6226V7.4554Z" fill="#B3B3B3"/>
<path d="M84.6792 76.6573H86.6038V78.5446H84.6792V76.6573Z" fill="#B3B3B3"/>
<path d="M84.6792 7.4554H86.6038V9.34272H84.6792V7.4554Z" fill="#B3B3B3"/>
<path d="M91.7358 76.6573H93.6604V78.5446H91.7358V76.6573Z" fill="#B3B3B3"/>
<path d="M91.7358 7.4554H93.6604V9.34272H91.7358V7.4554Z" fill="#B3B3B3"/>
<path d="M98.7924 76.6573H100.717V78.5446H98.7924V76.6573Z" fill="#B3B3B3"/>
<path d="M98.7924 7.4554H100.717V9.34272H98.7924V7.4554Z" fill="#B3B3B3"/>
<path d="M105.849 76.6573H107.774V78.5446H105.849V76.6573Z" fill="#B3B3B3"/>
<path d="M105.849 7.4554H107.774V9.34272H105.849V7.4554Z" fill="#B3B3B3"/>
<path d="M112.906 76.6573H114.83V78.5446H112.906V76.6573Z" fill="#B3B3B3"/>
<path d="M112.906 7.4554H114.83V9.34272H112.906V7.4554Z" fill="#B3B3B3"/>
<path d="M119.962 76.6573H121.887V78.5446H119.962V76.6573Z" fill="#B3B3B3"/>
<path d="M119.962 7.4554H121.887V9.34272H119.962V7.4554Z" fill="#B3B3B3"/>
<path d="M127.019 76.6573H128.943V78.5446H127.019V76.6573Z" fill="#B3B3B3"/>
<path d="M127.019 7.4554H128.943V9.34272H127.019V7.4554Z" fill="#B3B3B3"/>
<path d="M134.075 76.6573H136V78.5446H134.075V76.6573Z" fill="#B3B3B3"/>
<path d="M134.075 7.4554H136V9.34272H134.075V7.4554Z" fill="#B3B3B3"/>
<path d="M0 82.9483H1.92453V84.8357H0V82.9483Z" fill="#B3B3B3"/>
<path d="M0 13.7465H1.92453V15.6338H0V13.7465Z" fill="#B3B3B3"/>
<path d="M7.0566 82.9483H8.98113V84.8357H7.0566V82.9483Z" fill="#B3B3B3"/>
<path d="M7.0566 13.7465H8.98113V15.6338H7.0566V13.7465Z" fill="#B3B3B3"/>
<path d="M14.1132 82.9483H16.0377V84.8357H14.1132V82.9483Z" fill="#B3B3B3"/>
<path d="M14.1132 13.7465H16.0377V15.6338H14.1132V13.7465Z" fill="#B3B3B3"/>
<path d="M21.1698 82.9483H23.0943V84.8357H21.1698V82.9483Z" fill="#B3B3B3"/>
<path d="M21.1698 13.7465H23.0943V15.6338H21.1698V13.7465Z" fill="#B3B3B3"/>
<path d="M28.2264 82.9483H30.1509V84.8357H28.2264V82.9483Z" fill="#B3B3B3"/>
<path d="M28.2264 13.7465H30.1509V15.6338H28.2264V13.7465Z" fill="#B3B3B3"/>
<path d="M35.283 82.9483H37.2075V84.8357H35.283V82.9483Z" fill="#B3B3B3"/>
<path d="M35.283 13.7465H37.2075V15.6338H35.283V13.7465Z" fill="#B3B3B3"/>
<path d="M42.3396 82.9483H44.2641V84.8357H42.3396V82.9483Z" fill="#B3B3B3"/>
<path d="M42.3396 13.7465H44.2641V15.6338H42.3396V13.7465Z" fill="#B3B3B3"/>
<path d="M49.3962 82.9483H51.3208V84.8357H49.3962V82.9483Z" fill="#B3B3B3"/>
<path d="M49.3962 13.7465H51.3208V15.6338H49.3962V13.7465Z" fill="#B3B3B3"/>
<path d="M56.4528 82.9483H58.3774V84.8357H56.4528V82.9483Z" fill="#B3B3B3"/>
<path d="M56.4528 13.7465H58.3774V15.6338H56.4528V13.7465Z" fill="#B3B3B3"/>
<path d="M63.5094 82.9483H65.434V84.8357H63.5094V82.9483Z" fill="#B3B3B3"/>
<path d="M63.5094 13.7465H65.434V15.6338H63.5094V13.7465Z" fill="#B3B3B3"/>
<path d="M70.566 82.9483H72.4906V84.8357H70.566V82.9483Z" fill="#B3B3B3"/>
<path d="M70.566 13.7465H72.4906V15.6338H70.566V13.7465Z" fill="#B3B3B3"/>
<path d="M77.6226 82.9483H79.5472V84.8357H77.6226V82.9483Z" fill="#B3B3B3"/>
<path d="M77.6226 13.7465H79.5472V15.6338H77.6226V13.7465Z" fill="#B3B3B3"/>
<path d="M84.6792 82.9483H86.6038V84.8357H84.6792V82.9483Z" fill="#B3B3B3"/>
<path d="M84.6792 13.7465H86.6038V15.6338H84.6792V13.7465Z" fill="#B3B3B3"/>
<path d="M91.7358 82.9483H93.6604V84.8357H91.7358V82.9483Z" fill="#B3B3B3"/>
<path d="M91.7358 13.7465H93.6604V15.6338H91.7358V13.7465Z" fill="#B3B3B3"/>
<path d="M98.7924 82.9483H100.717V84.8357H98.7924V82.9483Z" fill="#B3B3B3"/>
<path d="M98.7924 13.7465H100.717V15.6338H98.7924V13.7465Z" fill="#B3B3B3"/>
<path d="M105.849 82.9483H107.774V84.8357H105.849V82.9483Z" fill="#B3B3B3"/>
<path d="M105.849 13.7465H107.774V15.6338H105.849V13.7465Z" fill="#B3B3B3"/>
<path d="M112.906 82.9483H114.83V84.8357H112.906V82.9483Z" fill="#B3B3B3"/>
<path d="M112.906 13.7465H114.83V15.6338H112.906V13.7465Z" fill="#B3B3B3"/>
<path d="M119.962 82.9483H121.887V84.8357H119.962V82.9483Z" fill="#B3B3B3"/>
<path d="M119.962 13.7465H121.887V15.6338H119.962V13.7465Z" fill="#B3B3B3"/>
<path d="M127.019 82.9483H128.943V84.8357H127.019V82.9483Z" fill="#B3B3B3"/>
<path d="M127.019 13.7465H128.943V15.6338H127.019V13.7465Z" fill="#B3B3B3"/>
<path d="M134.075 82.9483H136V84.8357H134.075V82.9483Z" fill="#B3B3B3"/>
<path d="M134.075 13.7465H136V15.6338H134.075V13.7465Z" fill="#B3B3B3"/>
<path d="M0 89.2394H1.92453V91.1268H0V89.2394Z" fill="#B3B3B3"/>
<path d="M0 20.0376H1.92453V21.9249H0V20.0376Z" fill="#B3B3B3"/>
<path d="M7.0566 89.2394H8.98113V91.1268H7.0566V89.2394Z" fill="#B3B3B3"/>
<path d="M7.0566 20.0376H8.98113V21.9249H7.0566V20.0376Z" fill="#B3B3B3"/>
<path d="M14.1132 89.2394H16.0377V91.1268H14.1132V89.2394Z" fill="#B3B3B3"/>
<path d="M14.1132 20.0376H16.0377V21.9249H14.1132V20.0376Z" fill="#B3B3B3"/>
<path d="M21.1698 89.2394H23.0943V91.1268H21.1698V89.2394Z" fill="#B3B3B3"/>
<path d="M21.1698 20.0376H23.0943V21.9249H21.1698V20.0376Z" fill="#B3B3B3"/>
<path d="M28.2264 89.2394H30.1509V91.1268H28.2264V89.2394Z" fill="#B3B3B3"/>
<path d="M28.2264 20.0376H30.1509V21.9249H28.2264V20.0376Z" fill="#B3B3B3"/>
<path d="M35.283 89.2394H37.2075V91.1268H35.283V89.2394Z" fill="#B3B3B3"/>
<path d="M35.283 20.0376H37.2075V21.9249H35.283V20.0376Z" fill="#B3B3B3"/>
<path d="M42.3396 89.2394H44.2641V91.1268H42.3396V89.2394Z" fill="#B3B3B3"/>
<path d="M42.3396 20.0376H44.2641V21.9249H42.3396V20.0376Z" fill="#B3B3B3"/>
<path d="M49.3962 89.2394H51.3208V91.1268H49.3962V89.2394Z" fill="#B3B3B3"/>
<path d="M49.3962 20.0376H51.3208V21.9249H49.3962V20.0376Z" fill="#B3B3B3"/>
<path d="M56.4528 89.2394H58.3774V91.1268H56.4528V89.2394Z" fill="#B3B3B3"/>
<path d="M56.4528 20.0376H58.3774V21.9249H56.4528V20.0376Z" fill="#B3B3B3"/>
<path d="M63.5094 89.2394H65.434V91.1268H63.5094V89.2394Z" fill="#B3B3B3"/>
<path d="M63.5094 20.0376H65.434V21.9249H63.5094V20.0376Z" fill="#B3B3B3"/>
<path d="M70.566 89.2394H72.4906V91.1268H70.566V89.2394Z" fill="#B3B3B3"/>
<path d="M70.566 20.0376H72.4906V21.9249H70.566V20.0376Z" fill="#B3B3B3"/>
<path d="M77.6226 89.2394H79.5472V91.1268H77.6226V89.2394Z" fill="#B3B3B3"/>
<path d="M77.6226 20.0376H79.5472V21.9249H77.6226V20.0376Z" fill="#B3B3B3"/>
<path d="M84.6792 89.2394H86.6038V91.1268H84.6792V89.2394Z" fill="#B3B3B3"/>
<path d="M84.6792 20.0376H86.6038V21.9249H84.6792V20.0376Z" fill="#B3B3B3"/>
<path d="M91.7358 89.2394H93.6604V91.1268H91.7358V89.2394Z" fill="#B3B3B3"/>
<path d="M91.7358 20.0376H93.6604V21.9249H91.7358V20.0376Z" fill="#B3B3B3"/>
<path d="M98.7924 89.2394H100.717V91.1268H98.7924V89.2394Z" fill="#B3B3B3"/>
<path d="M98.7924 20.0376H100.717V21.9249H98.7924V20.0376Z" fill="#B3B3B3"/>
<path d="M105.849 89.2394H107.774V91.1268H105.849V89.2394Z" fill="#B3B3B3"/>
<path d="M105.849 20.0376H107.774V21.9249H105.849V20.0376Z" fill="#B3B3B3"/>
<path d="M112.906 89.2394H114.83V91.1268H112.906V89.2394Z" fill="#B3B3B3"/>
<path d="M112.906 20.0376H114.83V21.9249H112.906V20.0376Z" fill="#B3B3B3"/>
<path d="M119.962 89.2394H121.887V91.1268H119.962V89.2394Z" fill="#B3B3B3"/>
<path d="M119.962 20.0376H121.887V21.9249H119.962V20.0376Z" fill="#B3B3B3"/>
<path d="M127.019 89.2394H128.943V91.1268H127.019V89.2394Z" fill="#B3B3B3"/>
<path d="M127.019 20.0376H128.943V21.9249H127.019V20.0376Z" fill="#B3B3B3"/>
<path d="M134.075 89.2394H136V91.1268H134.075V89.2394Z" fill="#B3B3B3"/>
<path d="M134.075 20.0376H136V21.9249H134.075V20.0376Z" fill="#B3B3B3"/>
<path d="M0 95.5305H1.92453V97.4178H0V95.5305Z" fill="#B3B3B3"/>
<path d="M0 26.3286H1.92453V28.216H0V26.3286Z" fill="#B3B3B3"/>
<path d="M7.0566 95.5305H8.98113V97.4178H7.0566V95.5305Z" fill="#B3B3B3"/>
<path d="M7.0566 26.3286H8.98113V28.216H7.0566V26.3286Z" fill="#B3B3B3"/>
<path d="M14.1132 95.5305H16.0377V97.4178H14.1132V95.5305Z" fill="#B3B3B3"/>
<path d="M14.1132 26.3286H16.0377V28.216H14.1132V26.3286Z" fill="#B3B3B3"/>
<path d="M21.1698 95.5305H23.0943V97.4178H21.1698V95.5305Z" fill="#B3B3B3"/>
<path d="M21.1698 26.3286H23.0943V28.216H21.1698V26.3286Z" fill="#B3B3B3"/>
<path d="M28.2264 95.5305H30.1509V97.4178H28.2264V95.5305Z" fill="#B3B3B3"/>
<path d="M28.2264 26.3286H30.1509V28.216H28.2264V26.3286Z" fill="#B3B3B3"/>
<path d="M35.283 95.5305H37.2075V97.4178H35.283V95.5305Z" fill="#B3B3B3"/>
<path d="M35.283 26.3286H37.2075V28.216H35.283V26.3286Z" fill="#B3B3B3"/>
<path d="M42.3396 95.5305H44.2641V97.4178H42.3396V95.5305Z" fill="#B3B3B3"/>
<path d="M42.3396 26.3286H44.2641V28.216H42.3396V26.3286Z" fill="#B3B3B3"/>
<path d="M49.3962 95.5305H51.3208V97.4178H49.3962V95.5305Z" fill="#B3B3B3"/>
<path d="M49.3962 26.3286H51.3208V28.216H49.3962V26.3286Z" fill="#B3B3B3"/>
<path d="M56.4528 95.5305H58.3774V97.4178H56.4528V95.5305Z" fill="#B3B3B3"/>
<path d="M56.4528 26.3286H58.3774V28.216H56.4528V26.3286Z" fill="#B3B3B3"/>
<path d="M63.5094 95.5305H65.434V97.4178H63.5094V95.5305Z" fill="#B3B3B3"/>
<path d="M63.5094 26.3286H65.434V28.216H63.5094V26.3286Z" fill="#B3B3B3"/>
<path d="M70.566 95.5305H72.4906V97.4178H70.566V95.5305Z" fill="#B3B3B3"/>
<path d="M70.566 26.3286H72.4906V28.216H70.566V26.3286Z" fill="#B3B3B3"/>
<path d="M77.6226 95.5305H79.5472V97.4178H77.6226V95.5305Z" fill="#B3B3B3"/>
<path d="M77.6226 26.3286H79.5472V28.216H77.6226V26.3286Z" fill="#B3B3B3"/>
<path d="M84.6792 95.5305H86.6038V97.4178H84.6792V95.5305Z" fill="#B3B3B3"/>
<path d="M84.6792 26.3286H86.6038V28.216H84.6792V26.3286Z" fill="#B3B3B3"/>
<path d="M91.7358 95.5305H93.6604V97.4178H91.7358V95.5305Z" fill="#B3B3B3"/>
<path d="M91.7358 26.3286H93.6604V28.216H91.7358V26.3286Z" fill="#B3B3B3"/>
<path d="M98.7924 95.5305H100.717V97.4178H98.7924V95.5305Z" fill="#B3B3B3"/>
<path d="M98.7924 26.3286H100.717V28.216H98.7924V26.3286Z" fill="#B3B3B3"/>
<path d="M105.849 95.5305H107.774V97.4178H105.849V95.5305Z" fill="#B3B3B3"/>
<path d="M105.849 26.3286H107.774V28.216H105.849V26.3286Z" fill="#B3B3B3"/>
<path d="M112.906 95.5305H114.83V97.4178H112.906V95.5305Z" fill="#B3B3B3"/>
<path d="M112.906 26.3286H114.83V28.216H112.906V26.3286Z" fill="#B3B3B3"/>
<path d="M119.962 95.5305H121.887V97.4178H119.962V95.5305Z" fill="#B3B3B3"/>
<path d="M119.962 26.3286H121.887V28.216H119.962V26.3286Z" fill="#B3B3B3"/>
<path d="M127.019 95.5305H128.943V97.4178H127.019V95.5305Z" fill="#B3B3B3"/>
<path d="M127.019 26.3286H128.943V28.216H127.019V26.3286Z" fill="#B3B3B3"/>
<path d="M134.075 95.5305H136V97.4178H134.075V95.5305Z" fill="#B3B3B3"/>
<path d="M134.075 26.3286H136V28.216H134.075V26.3286Z" fill="#B3B3B3"/>
<path d="M0 101.822H1.92453V103.709H0V101.822Z" fill="#B3B3B3"/>
<path d="M0 32.6197H1.92453V34.507H0V32.6197Z" fill="#B3B3B3"/>
<path d="M7.0566 101.822H8.98113V103.709H7.0566V101.822Z" fill="#B3B3B3"/>
<path d="M7.0566 32.6197H8.98113V34.507H7.0566V32.6197Z" fill="#B3B3B3"/>
<path d="M14.1132 101.822H16.0377V103.709H14.1132V101.822Z" fill="#B3B3B3"/>
<path d="M14.1132 32.6197H16.0377V34.507H14.1132V32.6197Z" fill="#B3B3B3"/>
<path d="M21.1698 101.822H23.0943V103.709H21.1698V101.822Z" fill="#B3B3B3"/>
<path d="M21.1698 32.6197H23.0943V34.507H21.1698V32.6197Z" fill="#B3B3B3"/>
<path d="M28.2264 101.822H30.1509V103.709H28.2264V101.822Z" fill="#B3B3B3"/>
<path d="M28.2264 32.6197H30.1509V34.507H28.2264V32.6197Z" fill="#B3B3B3"/>
<path d="M35.283 101.822H37.2075V103.709H35.283V101.822Z" fill="#B3B3B3"/>
<path d="M35.283 32.6197H37.2075V34.507H35.283V32.6197Z" fill="#B3B3B3"/>
<path d="M42.3396 101.822H44.2641V103.709H42.3396V101.822Z" fill="#B3B3B3"/>
<path d="M42.3396 32.6197H44.2641V34.507H42.3396V32.6197Z" fill="#B3B3B3"/>
<path d="M49.3962 101.822H51.3208V103.709H49.3962V101.822Z" fill="#B3B3B3"/>
<path d="M49.3962 32.6197H51.3208V34.507H49.3962V32.6197Z" fill="#B3B3B3"/>
<path d="M56.4528 101.822H58.3774V103.709H56.4528V101.822Z" fill="#B3B3B3"/>
<path d="M56.4528 32.6197H58.3774V34.507H56.4528V32.6197Z" fill="#B3B3B3"/>
<path d="M63.5094 101.822H65.434V103.709H63.5094V101.822Z" fill="#B3B3B3"/>
<path d="M63.5094 32.6197H65.434V34.507H63.5094V32.6197Z" fill="#B3B3B3"/>
<path d="M70.566 101.822H72.4906V103.709H70.566V101.822Z" fill="#B3B3B3"/>
<path d="M70.566 32.6197H72.4906V34.507H70.566V32.6197Z" fill="#B3B3B3"/>
<path d="M77.6226 101.822H79.5472V103.709H77.6226V101.822Z" fill="#B3B3B3"/>
<path d="M77.6226 32.6197H79.5472V34.507H77.6226V32.6197Z" fill="#B3B3B3"/>
<path d="M84.6792 101.822H86.6038V103.709H84.6792V101.822Z" fill="#B3B3B3"/>
<path d="M84.6792 32.6197H86.6038V34.507H84.6792V32.6197Z" fill="#B3B3B3"/>
<path d="M91.7358 101.822H93.6604V103.709H91.7358V101.822Z" fill="#B3B3B3"/>
<path d="M91.7358 32.6197H93.6604V34.507H91.7358V32.6197Z" fill="#B3B3B3"/>
<path d="M98.7924 101.822H100.717V103.709H98.7924V101.822Z" fill="#B3B3B3"/>
<path d="M98.7924 32.6197H100.717V34.507H98.7924V32.6197Z" fill="#B3B3B3"/>
<path d="M105.849 101.822H107.774V103.709H105.849V101.822Z" fill="#B3B3B3"/>
<path d="M105.849 32.6197H107.774V34.507H105.849V32.6197Z" fill="#B3B3B3"/>
<path d="M112.906 101.822H114.83V103.709H112.906V101.822Z" fill="#B3B3B3"/>
<path d="M112.906 32.6197H114.83V34.507H112.906V32.6197Z" fill="#B3B3B3"/>
<path d="M119.962 101.822H121.887V103.709H119.962V101.822Z" fill="#B3B3B3"/>
<path d="M119.962 32.6197H121.887V34.507H119.962V32.6197Z" fill="#B3B3B3"/>
<path d="M127.019 101.822H128.943V103.709H127.019V101.822Z" fill="#B3B3B3"/>
<path d="M127.019 32.6197H128.943V34.507H127.019V32.6197Z" fill="#B3B3B3"/>
<path d="M134.075 101.822H136V103.709H134.075V101.822Z" fill="#B3B3B3"/>
<path d="M134.075 32.6197H136V34.507H134.075V32.6197Z" fill="#B3B3B3"/>
<path d="M0 108.113H1.92453V110H0V108.113Z" fill="#B3B3B3"/>
<path d="M0 38.9108H1.92453V40.7981H0V38.9108Z" fill="#B3B3B3"/>
<path d="M7.0566 108.113H8.98113V110H7.0566V108.113Z" fill="#B3B3B3"/>
<path d="M7.0566 38.9108H8.98113V40.7981H7.0566V38.9108Z" fill="#B3B3B3"/>
<path d="M14.1132 108.113H16.0377V110H14.1132V108.113Z" fill="#B3B3B3"/>
<path d="M14.1132 38.9108H16.0377V40.7981H14.1132V38.9108Z" fill="#B3B3B3"/>
<path d="M21.1698 108.113H23.0943V110H21.1698V108.113Z" fill="#B3B3B3"/>
<path d="M21.1698 38.9108H23.0943V40.7981H21.1698V38.9108Z" fill="#B3B3B3"/>
<path d="M28.2264 108.113H30.1509V110H28.2264V108.113Z" fill="#B3B3B3"/>
<path d="M28.2264 38.9108H30.1509V40.7981H28.2264V38.9108Z" fill="#B3B3B3"/>
<path d="M35.283 108.113H37.2075V110H35.283V108.113Z" fill="#B3B3B3"/>
<path d="M35.283 38.9108H37.2075V40.7981H35.283V38.9108Z" fill="#B3B3B3"/>
<path d="M42.3396 108.113H44.2641V110H42.3396V108.113Z" fill="#B3B3B3"/>
<path d="M42.3396 38.9108H44.2641V40.7981H42.3396V38.9108Z" fill="#B3B3B3"/>
<path d="M49.3962 108.113H51.3208V110H49.3962V108.113Z" fill="#B3B3B3"/>
<path d="M49.3962 38.9108H51.3208V40.7981H49.3962V38.9108Z" fill="#B3B3B3"/>
<path d="M56.4528 108.113H58.3774V110H56.4528V108.113Z" fill="#B3B3B3"/>
<path d="M56.4528 38.9108H58.3774V40.7981H56.4528V38.9108Z" fill="#B3B3B3"/>
<path d="M63.5094 108.113H65.434V110H63.5094V108.113Z" fill="#B3B3B3"/>
<path d="M63.5094 38.9108H65.434V40.7981H63.5094V38.9108Z" fill="#B3B3B3"/>
<path d="M70.566 108.113H72.4906V110H70.566V108.113Z" fill="#B3B3B3"/>
<path d="M70.566 38.9108H72.4906V40.7981H70.566V38.9108Z" fill="#B3B3B3"/>
<path d="M77.6226 108.113H79.5472V110H77.6226V108.113Z" fill="#B3B3B3"/>
<path d="M77.6226 38.9108H79.5472V40.7981H77.6226V38.9108Z" fill="#B3B3B3"/>
<path d="M84.6792 108.113H86.6038V110H84.6792V108.113Z" fill="#B3B3B3"/>
<path d="M84.6792 38.9108H86.6038V40.7981H84.6792V38.9108Z" fill="#B3B3B3"/>
<path d="M91.7358 108.113H93.6604V110H91.7358V108.113Z" fill="#B3B3B3"/>
<path d="M91.7358 38.9108H93.6604V40.7981H91.7358V38.9108Z" fill="#B3B3B3"/>
<path d="M98.7924 108.113H100.717V110H98.7924V108.113Z" fill="#B3B3B3"/>
<path d="M98.7924 38.9108H100.717V40.7981H98.7924V38.9108Z" fill="#B3B3B3"/>
<path d="M105.849 108.113H107.774V110H105.849V108.113Z" fill="#B3B3B3"/>
<path d="M105.849 38.9108H107.774V40.7981H105.849V38.9108Z" fill="#B3B3B3"/>
<path d="M112.906 108.113H114.83V110H112.906V108.113Z" fill="#B3B3B3"/>
<path d="M112.906 38.9108H114.83V40.7981H112.906V38.9108Z" fill="#B3B3B3"/>
<path d="M119.962 108.113H121.887V110H119.962V108.113Z" fill="#B3B3B3"/>
<path d="M119.962 38.9108H121.887V40.7981H119.962V38.9108Z" fill="#B3B3B3"/>
<path d="M127.019 108.113H128.943V110H127.019V108.113Z" fill="#B3B3B3"/>
<path d="M127.019 38.9108H128.943V40.7981H127.019V38.9108Z" fill="#B3B3B3"/>
<path d="M134.075 108.113H136V110H134.075V108.113Z" fill="#B3B3B3"/>
<path d="M134.075 38.9108H136V40.7981H134.075V38.9108Z" fill="#B3B3B3"/>
</g>
<defs>
<clipPath id="clip0">
<rect width="141" height="113" fill="white"/>
</clipPath>
</defs>
</svg>
