<svg width="24" height="24" viewBox="0 0 24 24" fill="none" xmlns="http://www.w3.org/2000/svg">
<g clip-path="url(#clip0)">
<path d="M23.0625 19.7798C23.5803 19.7798 24 19.3601 24 18.8423V11.3423C24 10.0499 22.9486 8.99854 21.6562 8.99854H19.5938C18.3014 8.99854 17.25 10.0499 17.25 11.3423V22.1235H10.5009L10.5079 16.4985H13.5031L13.5 18.841C13.4993 19.3588 13.9186 19.7791 14.4362 19.7798H14.4375C14.9548 19.7798 15.3743 19.3608 15.375 18.8436L15.3906 7.02979H16.7659C17.3595 7.02979 17.8898 6.67548 18.1168 6.12689C18.3441 5.57849 18.2197 4.953 17.7999 4.53314L14.1597 0.893188C12.9688 -0.297729 11.0312 -0.297729 9.84027 0.893188L6.20013 4.53314C5.78046 4.953 5.65594 5.57849 5.88318 6.12708C6.11041 6.67548 6.64069 7.02979 7.23431 7.02979H8.64441L8.62592 22.1235H1.875V16.4985H4.875V18.8423C4.875 19.3601 5.29468 19.7798 5.8125 19.7798C6.33032 19.7798 6.75 19.3601 6.75 18.8423V12.7485C6.75 11.4562 5.69861 10.4048 4.40625 10.4048H2.34375C1.05139 10.4048 0 11.4562 0 12.7485V23.061C0 23.5789 0.419678 23.9985 0.9375 23.9985H23.0625C23.5803 23.9985 24 23.5789 24 23.061C24 22.5432 23.5803 22.1235 23.0625 22.1235H19.125V16.4985H22.125V18.8423C22.125 19.3601 22.5447 19.7798 23.0625 19.7798ZM8.23022 5.15479L11.1661 2.21906C11.3888 1.99622 11.6849 1.87354 12 1.87354C12.3151 1.87354 12.6112 1.99622 12.8339 2.21906L15.7698 5.15479H14.4543C13.9369 5.15479 13.5174 5.57373 13.5168 6.09119L13.5055 14.6235H10.5101L10.5205 6.09338C10.5209 5.84454 10.4222 5.60577 10.2464 5.42981C10.0706 5.25366 9.83185 5.15479 9.58301 5.15479H8.23022ZM2.34375 12.2798H4.40625C4.66479 12.2798 4.875 12.4902 4.875 12.7485V14.6235H1.875V12.7485C1.875 12.4902 2.08521 12.2798 2.34375 12.2798ZM19.125 14.6235V11.3423C19.125 11.0839 19.3352 10.8735 19.5938 10.8735H21.6562C21.9148 10.8735 22.125 11.0839 22.125 11.3423V14.6235H19.125Z" fill="#FD6F55"/>
</g>
<defs>
<clipPath id="clip0">
<rect width="24" height="24" fill="white"/>
</clipPath>
</defs>
</svg>
