<svg width="24" height="24" viewBox="0 0 24 24" fill="none" xmlns="http://www.w3.org/2000/svg">
<path d="M23.4432 10.385L22.368 8.98595C22.3492 8.86281 22.3523 8.61934 22.3542 8.46625C22.355 8.39931 22.3558 8.33392 22.3558 8.2713V6.50143C22.3558 5.34507 21.5697 4.40026 20.3042 4.03585L18.5355 3.52641C18.3635 3.47691 18.2135 3.36924 18.1131 3.22322L17.0763 1.71581C16.3975 0.72914 15.1332 0.320999 14.0017 0.723234L12.2626 1.34156C12.0932 1.4017 11.9069 1.4017 11.7376 1.34156L9.99858 0.723328C8.86706 0.321093 7.6027 0.729187 6.924 1.71591L5.88712 3.22332C5.79191 3.36174 5.65209 3.46571 5.49121 3.51835L3.64874 3.90544C3.62629 3.91018 3.60407 3.91571 3.58204 3.92204C2.40941 4.25977 1.61464 5.32557 1.64436 6.51742V8.33448C1.64436 8.39767 1.64567 8.46386 1.64708 8.53192C1.64989 8.66669 1.65439 8.88686 1.63133 8.97695L0.555873 10.3863C-0.185456 11.3378 -0.185128 12.6636 0.556858 13.6147L1.63405 15.0177C1.65378 15.103 1.65003 15.3185 1.64722 15.4786C1.64577 15.5607 1.64436 15.6446 1.64436 15.7301V17.5503C1.61741 18.6674 2.4021 19.5915 3.69599 19.9641L5.46468 20.4735C5.63671 20.523 5.78671 20.6307 5.88712 20.7767L6.9239 22.284C7.42771 23.0166 8.25412 23.4302 9.10959 23.4301C9.40645 23.4301 9.70697 23.3803 9.99853 23.2766L11.7376 22.6584C11.9069 22.5982 12.0933 22.5982 12.2625 22.6584L14.0016 23.2766C14.2932 23.3803 14.5936 23.4301 14.8905 23.4301C15.7459 23.4301 16.5724 23.0165 17.0762 22.284L18.113 20.7766C18.2134 20.6307 18.3634 20.523 18.5354 20.4735L20.3041 19.9641C21.4541 19.6329 22.3935 18.3174 22.3553 17.0915C22.3392 16.574 21.9049 16.1662 21.3891 16.1837C20.8717 16.1998 20.4652 16.6323 20.4813 17.1499C20.4926 17.5109 20.1087 18.0693 19.7852 18.1625L18.0165 18.6718C17.4284 18.8413 16.9141 19.2114 16.5683 19.7141L15.5314 21.2215C15.3332 21.5097 14.9624 21.6284 14.6296 21.5101L12.8905 20.8918C12.3164 20.6878 11.6839 20.6877 11.1096 20.8918L9.37055 21.5101C9.03769 21.6284 8.66695 21.5098 8.46867 21.2215L7.43189 19.7142C7.08614 19.2114 6.57178 18.8413 5.98363 18.6719L4.21494 18.1625C4.14252 18.1416 3.50774 17.9484 3.5188 17.5924C3.51913 17.5827 3.51927 17.5729 3.51927 17.5632V15.7301C3.51927 15.6558 3.52063 15.5827 3.52185 15.5113C3.53038 15.023 3.54093 14.4156 3.13368 13.8921L2.04172 12.47C2.03989 12.4676 2.03802 12.4653 2.03619 12.4629C1.82267 12.1903 1.82267 11.8096 2.03619 11.5371C2.03858 11.534 2.04102 11.5308 2.04341 11.5277L3.13466 10.0976C3.54383 9.57044 3.53043 8.92248 3.52157 8.4932C3.52044 8.4385 3.51927 8.38525 3.51927 8.33448V6.50439C3.51927 6.49468 3.51913 6.48493 3.5188 6.47518C3.50868 6.1486 3.74075 5.84021 4.07422 5.73188L5.91693 5.34474C5.93938 5.34001 5.9616 5.33448 5.98363 5.32815C6.57173 5.15874 7.08609 4.78862 7.43189 4.28588L8.46872 2.77847C8.66691 2.49024 9.03759 2.37155 9.37055 2.48991L11.1097 3.10814C11.6838 3.31224 12.3162 3.31224 12.8905 3.10814L14.6296 2.48991C14.9625 2.3716 15.3332 2.49028 15.5314 2.77847L16.5683 4.28583C16.914 4.78862 17.4284 5.15879 18.0165 5.32815L19.7852 5.83754C20.045 5.91235 20.4809 6.09812 20.4809 6.50148V8.27134C20.4809 8.32642 20.4802 8.38389 20.4794 8.44272C20.4725 8.98844 20.4641 9.66241 20.8914 10.1416L21.9587 11.5303C21.9604 11.5326 21.9622 11.5349 21.964 11.5371C22.1775 11.8097 22.1775 12.1904 21.964 12.463C21.6446 12.8705 21.7163 13.4598 22.1239 13.779C22.5315 14.0982 23.1207 14.0267 23.44 13.619C24.1857 12.6673 24.1867 11.3381 23.4432 10.385Z" fill="#475762"/>
<path d="M9.10828 17.5184C9.25003 17.5951 9.4027 17.6314 9.55322 17.6314C9.88645 17.6314 10.2091 17.4532 10.3787 17.1395L15.4459 7.76519C15.6921 7.3098 15.5225 6.74097 15.067 6.49478C14.6116 6.2485 14.0427 6.41823 13.7966 6.87367L8.72943 16.248C8.4832 16.7034 8.65284 17.2723 9.10828 17.5184Z" fill="#475762"/>
<path d="M10.4534 8.72556C10.4534 7.43331 9.40211 6.38195 8.10985 6.38195C6.8176 6.38195 5.76624 7.43327 5.76624 8.72556C5.76624 10.0179 6.81755 11.0691 8.10985 11.0691C9.40211 11.0691 10.4534 10.0178 10.4534 8.72556ZM8.10985 9.19427C7.85138 9.19427 7.64115 8.98399 7.64115 8.72556C7.64115 8.46714 7.85143 8.25686 8.10985 8.25686C8.36832 8.25686 8.57856 8.46714 8.57856 8.72556C8.57856 8.98399 8.36828 9.19427 8.10985 9.19427Z" fill="#475762"/>
<path d="M15.8434 17.6312C17.1357 17.6312 18.1871 16.5799 18.1871 15.2876C18.1871 13.9953 17.1357 12.944 15.8434 12.944C14.5512 12.944 13.4999 13.9953 13.4999 15.2876C13.4999 16.5798 14.5512 17.6312 15.8434 17.6312ZM15.8434 14.8189C16.1019 14.8189 16.3121 15.0292 16.3121 15.2876C16.3121 15.546 16.1019 15.7563 15.8434 15.7563C15.585 15.7563 15.3747 15.546 15.3747 15.2876C15.3747 15.0292 15.585 14.8189 15.8434 14.8189Z" fill="#475762"/>
</svg>
