<svg width="24" height="24" viewBox="0 0 24 24" fill="none" xmlns="http://www.w3.org/2000/svg">
<g clip-path="url(#clip0)">
<path d="M10.2542 18.2238C10.6226 18.5876 10.6264 19.181 10.2628 19.5494L8.59469 21.2393C8.59249 21.2417 8.5903 21.2439 8.5881 21.2461C8.03054 21.7996 7.29831 22.0765 6.56588 22.0765C5.83365 22.0765 5.10123 21.7996 4.54367 21.2461L2.84171 19.5562C2.4744 19.1915 2.4722 18.5978 2.83695 18.2305C3.20169 17.863 3.79514 17.8608 4.16263 18.2258L5.62802 19.6805V15.3287C5.62802 14.811 6.0477 14.3912 6.56534 14.3912C7.08316 14.3912 7.50283 14.811 7.50283 15.3287V19.6765L8.92831 18.2324C9.29214 17.864 9.88558 17.8601 10.2542 18.2238ZM14.671 6.00128C14.9179 6.00128 15.1643 5.90424 15.3485 5.71179L16.6867 4.31305V8.67279C16.6867 9.19061 17.1063 9.61029 17.624 9.61029C18.1418 9.61029 18.5615 9.19061 18.5615 8.67279V4.34106L19.9062 5.71857C20.2678 6.08899 20.8613 6.09613 21.2319 5.7345C21.6023 5.37286 21.6094 4.77942 21.2478 4.409L19.598 2.71912C19.0676 2.17566 18.3608 1.87646 17.6075 1.87646C16.8544 1.87646 16.1474 2.17566 15.617 2.71912C15.6148 2.72131 15.6126 2.72351 15.6104 2.72589L13.9937 4.41577C13.6358 4.78986 13.6489 5.3833 14.023 5.74109C14.2047 5.91486 14.4379 6.00128 14.671 6.00128ZM23.6146 23.3026C23.2539 23.7458 22.7218 24 22.1544 24H13C12.4295 24 11.8955 23.746 11.5354 23.3033C11.1728 22.8578 11.032 22.2792 11.149 21.7156C11.4519 20.2568 12.2539 18.9293 13.4074 17.9777C13.8443 17.6173 14.3242 17.3176 14.8333 17.0832C14.2662 16.4388 13.921 15.5947 13.921 14.671C13.921 12.655 15.5613 11.0149 17.5771 11.0149C19.5931 11.0149 21.2332 12.655 21.2332 14.671C21.2332 15.5933 20.8891 16.4363 20.3235 17.0801C20.7778 17.2906 21.2105 17.5551 21.6148 17.8715C22.0223 18.1906 22.0943 18.7798 21.7752 19.1874C21.5902 19.4236 21.3146 19.5472 21.0363 19.5472C20.8342 19.5472 20.6307 19.4822 20.4592 19.348C19.6293 18.6985 18.6327 18.355 17.5771 18.355C15.3661 18.355 13.4347 19.9286 12.9846 22.0966C12.9802 22.1177 12.9947 22.1246 12.9949 22.1246C12.9951 22.1248 12.9969 22.1252 12.9998 22.1252H22.1544C22.1549 22.1246 22.167 22.1153 22.1699 22.0992C22.1567 22.0369 22.15 21.9723 22.15 21.9062V21.8936C22.15 21.4129 22.5134 21.0103 22.9917 20.961C23.4698 20.9121 23.9076 21.2324 24.0052 21.7031C24.1229 22.2698 23.9807 22.8528 23.6146 23.3026ZM15.796 14.671C15.796 15.653 16.5951 16.452 17.5771 16.452C18.5593 16.452 19.3583 15.653 19.3583 14.671C19.3583 13.6888 18.5593 12.8897 17.5771 12.8897C16.5951 12.8897 15.796 13.6888 15.796 14.671ZM11.0926 12.9851H1.93827C1.36771 12.9851 0.833774 12.7311 0.473606 12.2884C0.111058 11.8429 -0.0297499 11.2643 0.0872544 10.7007C0.39011 9.24188 1.19211 7.91437 2.34567 6.96277C2.78256 6.60242 3.26248 6.30267 3.77152 6.0683C3.20444 5.42395 2.85947 4.57983 2.85947 3.65607C2.85947 1.64008 4.49954 0 6.51535 0C8.53134 0 10.1714 1.64008 10.1714 3.65607C10.1714 4.57983 9.82644 5.42395 9.25936 6.0683C9.7684 6.30267 10.2483 6.60242 10.685 6.96277C11.8155 7.89532 12.6084 9.18878 12.9248 10.6132C12.9319 10.6377 12.9383 10.6628 12.9436 10.6882C13.0612 11.2549 12.9187 11.838 12.5529 12.2877C12.1922 12.731 11.6599 12.9851 11.0926 12.9851ZM4.73428 3.65607C4.73428 4.63806 5.53335 5.43713 6.51535 5.43713C7.49752 5.43713 8.2966 4.63806 8.2966 3.65607C8.2966 2.67389 7.49752 1.87482 6.51535 1.87482C5.53335 1.87482 4.73428 2.67389 4.73428 3.65607ZM11.1082 11.0837C11.1082 11.083 11.108 11.0825 11.1078 11.0819C10.6577 8.91376 8.72634 7.34015 6.51535 7.34015C4.30435 7.34015 2.37296 8.91376 1.92288 11.0819C1.91849 11.1028 1.93296 11.1097 1.93314 11.1099C1.93332 11.1099 1.93515 11.1103 1.93808 11.1103H11.0926C11.0932 11.1097 11.1056 11.1002 11.1082 11.0837Z" fill="#475762"/>
</g>
<defs>
<clipPath id="clip0">
<rect width="24" height="24" fill="white"/>
</clipPath>
</defs>
</svg>
