<svg width="24" height="24" viewBox="0 0 24 24" fill="none" xmlns="http://www.w3.org/2000/svg">
<g clip-path="url(#clip0)">
<path d="M13.7913 6.33608L12.6725 10.0192C12.5735 10.3457 12.6599 10.7004 12.8981 10.9447C13.0767 11.1278 13.3193 11.227 13.5679 11.227C13.6512 11.227 13.7353 11.2158 13.8177 11.193L17.5946 10.1469C17.7499 10.1037 17.8916 10.0213 18.0059 9.90737L23.1323 4.79049C24.2267 3.69588 24.2267 1.915 23.1323 0.82058C22.0377 -0.274025 20.2568 -0.274025 19.1631 0.819664L14.0257 5.9457C13.9167 6.05447 13.8362 6.18868 13.7913 6.33608ZM21.809 2.14388C22.1739 2.50863 22.1739 3.10226 21.8095 3.46645L21.6282 3.64736L20.3049 2.32406L20.4857 2.1437C20.8504 1.77895 21.4442 1.77895 21.809 2.14388ZM15.5138 7.10458L18.9802 3.64608L20.3038 4.96957L16.8578 8.40902L14.9579 8.93526L15.5138 7.10458ZM12.3973 4.67715C12.4323 5.19277 12.0428 5.63918 11.5272 5.67434C8.20569 5.90047 5.60394 8.6888 5.60394 12.0224C5.60394 15.5309 8.45837 18.3853 11.9669 18.3853C15.381 18.3853 18.173 15.7158 18.3234 12.3083C18.3461 11.7919 18.7833 11.392 19.2993 11.4147C19.8157 11.4374 20.2158 11.8745 20.1931 12.3908C20.0995 14.5123 19.2023 16.492 17.6666 17.9651C16.1263 19.4428 14.1021 20.2567 11.9669 20.2567C7.42639 20.2567 3.73242 16.5627 3.73242 12.0222C3.73242 9.92184 4.52344 7.92159 5.9599 6.3901C7.3894 4.86593 9.32153 3.94857 11.4001 3.80721C11.9149 3.77187 12.3622 4.16152 12.3973 4.67715ZM9.29993 12.0222C9.29993 13.4928 10.4963 14.6892 11.9669 14.6892C12.9064 14.6892 13.7873 14.1856 14.2657 13.375C14.5283 12.9299 15.1022 12.7821 15.5471 13.0449C15.9922 13.3075 16.14 13.8811 15.8774 14.3263C15.0641 15.7045 13.5656 16.5605 11.9669 16.5605C9.46454 16.5605 7.42859 14.5247 7.42859 12.0222C7.42859 10.3448 8.34796 8.81075 9.82819 8.01882C10.2839 7.77493 10.8508 7.94668 11.0947 8.40243C11.3384 8.85799 11.1667 9.42507 10.7111 9.66879C9.84064 10.1346 9.29993 11.0364 9.29993 12.0222ZM23.9544 12.0222C23.9544 15.2215 22.7086 18.2293 20.4465 20.4916C18.1842 22.7537 15.1765 23.9995 11.9773 23.9995C8.77808 23.9995 5.7702 22.7537 3.50793 20.4916C1.24585 18.2293 0 15.2215 0 12.0222C0 8.82302 1.24585 5.81533 3.50793 3.55306C5.7702 1.29079 8.77808 0.0451279 11.9773 0.0451279C13.0135 0.0451279 14.0294 0.176048 15.0062 0.430016C15.7044 0.61129 15.9501 1.47536 15.4473 1.99245C15.2131 2.23342 14.8674 2.3323 14.5424 2.24697C13.723 2.03146 12.8633 1.91647 11.9773 1.91647C6.39642 1.91647 1.8576 6.46389 1.87152 12.0479C1.88525 17.5886 6.41089 22.1143 11.9517 22.128C17.5356 22.1419 22.0831 17.6031 22.0831 12.0222C22.0831 11.1759 21.9776 10.354 21.7804 9.56789C21.7007 9.25057 21.7881 8.91476 22.0161 8.6802C22.5282 8.15377 23.4207 8.39327 23.5983 9.10574C23.8334 10.0482 23.9544 11.026 23.9544 12.0222Z" fill="#475762"/>
</g>
<defs>
<clipPath id="clip0">
<rect width="24" height="24" fill="white"/>
</clipPath>
</defs>
</svg>
