<svg width="104" height="104" viewBox="0 0 104 104" fill="none" xmlns="http://www.w3.org/2000/svg">
<path d="M102.926 30.9477C102.931 30.941 102.937 30.9349 102.943 30.9282C102.964 30.902 102.984 30.8748 103.003 30.8478C103.013 30.8346 103.023 30.8218 103.032 30.8084C103.046 30.787 103.059 30.7647 103.072 30.7428C103.084 30.7216 103.098 30.7013 103.11 30.6796C103.118 30.6642 103.125 30.6479 103.132 30.6321C103.146 30.6032 103.161 30.5746 103.173 30.5447C103.177 30.5348 103.18 30.5244 103.184 30.5147C103.198 30.4787 103.212 30.4425 103.223 30.4054C103.225 30.4001 103.226 30.3944 103.227 30.3891C103.24 30.3475 103.251 30.3056 103.259 30.2626C103.269 30.2146 103.276 30.1659 103.281 30.1171C103.282 30.1151 103.282 30.1129 103.282 30.111C103.286 30.0619 103.289 30.0125 103.289 29.963V29.9609V1.52344C103.289 0.681891 102.607 0 101.766 0H71.2969C70.4553 0 69.7734 0.681891 69.7734 1.52344C69.7734 1.61017 69.7824 1.69467 69.7962 1.77734C69.7824 1.86002 69.7734 1.94452 69.7734 2.03125V29.9609V29.9628C69.7736 30.0123 69.7763 30.0617 69.781 30.1108C69.7812 30.1129 69.7812 30.1151 69.7814 30.1169C69.7864 30.1657 69.7937 30.2142 69.8035 30.2624C69.812 30.3054 69.8234 30.3473 69.8354 30.3889C69.837 30.3942 69.838 30.3999 69.8397 30.4052C69.8508 30.4421 69.8644 30.4779 69.8782 30.5134C69.8823 30.5238 69.8854 30.5342 69.8896 30.5445C69.902 30.5742 69.9164 30.6028 69.9304 30.6315C69.9384 30.6475 69.9451 30.6637 69.9534 30.6794C69.9652 30.7009 69.9784 30.7214 69.991 30.7426C70.004 30.7645 70.0166 30.787 70.0308 30.8082C70.0399 30.8218 70.0503 30.8346 70.0598 30.8478C70.0793 30.875 70.0986 30.9022 70.12 30.928C70.1257 30.9347 70.1322 30.941 70.138 30.9481C70.164 30.9788 70.1909 31.0091 70.2193 31.0377C70.2209 31.0391 70.2223 31.0403 70.2236 31.0418C70.2668 31.0844 70.3133 31.1242 70.3623 31.1622C70.3895 31.1835 70.4169 31.2051 70.4456 31.2246C70.449 31.2268 70.4529 31.2288 70.4565 31.2311C70.4958 31.2571 70.5364 31.2815 70.578 31.3038C70.5788 31.3042 70.5792 31.3046 70.58 31.305L85.8148 39.4296C86.0389 39.549 86.2853 39.6088 86.5317 39.6088C86.778 39.6088 87.0246 39.549 87.2485 39.4296L102.483 31.305C102.484 31.3046 102.484 31.3042 102.485 31.3038C102.527 31.2815 102.567 31.2571 102.606 31.2311C102.61 31.2286 102.614 31.2268 102.617 31.2246C102.646 31.2051 102.673 31.1835 102.701 31.1622C102.749 31.1244 102.796 31.0844 102.839 31.0418C102.841 31.0403 102.842 31.0391 102.844 31.0377C102.872 31.0091 102.899 30.9786 102.926 30.9477Z" fill="#FFC854"/>
<path d="M101.766 0H95.6718C96.5133 0 97.1952 0.681891 97.1952 1.52344V27.9295V27.9307C97.195 27.9809 97.1924 28.0302 97.1877 28.0794C97.1875 28.0814 97.1875 28.0835 97.1873 28.0855C97.1822 28.1342 97.1747 28.183 97.1652 28.2309C97.1566 28.274 97.1453 28.3158 97.1333 28.3575C97.1316 28.3628 97.1306 28.3684 97.1292 28.3737C97.1178 28.4111 97.1042 28.447 97.0902 28.483C97.0863 28.493 97.0833 28.5033 97.0792 28.5131C97.0666 28.5427 97.0522 28.5716 97.0382 28.6004C97.0305 28.6163 97.0236 28.6325 97.0155 28.6479C97.0037 28.6697 96.9905 28.69 96.9779 28.7111C96.9649 28.733 96.9523 28.7556 96.9381 28.7767C96.9289 28.7901 96.9186 28.8029 96.9092 28.8161C96.8895 28.8433 96.8702 28.8706 96.8489 28.8966C96.8434 28.9033 96.8371 28.9094 96.8316 28.9161C96.8052 28.9467 96.7784 28.9774 96.7496 29.0063C96.7479 29.0077 96.7465 29.0089 96.7451 29.0103C96.7018 29.053 96.6553 29.0928 96.6064 29.1308C96.5791 29.1521 96.5517 29.1736 96.5231 29.1931C96.5196 29.1954 96.5158 29.1972 96.5121 29.1996C96.4729 29.2256 96.4323 29.25 96.3906 29.2723C96.3898 29.2728 96.3894 29.2732 96.3886 29.2736L82.0063 37.3986L85.8147 39.4296C86.0388 39.549 86.2852 39.6088 86.5316 39.6088C86.778 39.6088 87.0246 39.549 87.2484 39.4296L102.483 31.305C102.484 31.3046 102.484 31.3042 102.485 31.3038C102.526 31.2815 102.567 31.2571 102.606 31.2311C102.61 31.2286 102.614 31.2268 102.617 31.2246C102.646 31.2051 102.673 31.1835 102.701 31.1622C102.749 31.1244 102.796 31.0844 102.839 31.0418C102.841 31.0403 102.842 31.0391 102.844 31.0377C102.873 31.0087 102.899 30.9782 102.926 30.9475C102.931 30.9408 102.937 30.9347 102.943 30.928C102.964 30.9018 102.983 30.8746 103.003 30.8476C103.013 30.8344 103.023 30.8216 103.032 30.8082C103.046 30.7868 103.059 30.7645 103.072 30.7426C103.084 30.7214 103.098 30.7011 103.109 30.6794C103.118 30.664 103.124 30.6477 103.132 30.6319C103.146 30.603 103.161 30.5744 103.173 30.5445C103.177 30.5346 103.18 30.5242 103.184 30.5145C103.198 30.4785 103.212 30.4423 103.223 30.4052C103.225 30.3999 103.226 30.3942 103.227 30.3889C103.239 30.3473 103.251 30.3054 103.259 30.2624C103.269 30.2144 103.276 30.1657 103.281 30.1169C103.281 30.1149 103.281 30.1127 103.282 30.1108C103.286 30.0617 103.289 30.0123 103.289 29.9628V29.9609V1.52344C103.29 0.681891 102.608 0 101.766 0Z" fill="#F6BB42"/>
<path d="M53.0136 31.8898H2.23437C1.39303 31.8898 0.710938 32.5717 0.710938 33.4133V102.475C0.710938 103.316 1.39303 103.998 2.23437 103.998H53.0136C53.8551 103.998 54.537 103.316 54.537 102.475V33.4133C54.537 32.5719 53.8551 31.8898 53.0136 31.8898Z" fill="#A1C6F3"/>
<path d="M28.1333 31.8898V26.3039C28.1333 20.9838 32.4617 16.6555 37.7817 16.6555C43.1018 16.6555 47.4302 20.9838 47.4302 26.3039V31.8898H50.4771V26.3039C50.4771 19.3036 44.782 13.6086 37.7817 13.6086C30.7814 13.6086 25.0864 19.3036 25.0864 26.3039V31.8898H28.1333Z" fill="#CCD1D9"/>
<path d="M53.0138 31.8898H46.9194C47.761 31.8898 48.4429 32.5717 48.4429 33.4133V102.475C48.4429 103.316 47.761 103.998 46.9194 103.998H53.0138C53.8553 103.998 54.5372 103.316 54.5372 102.475V33.4133C54.5372 32.5719 53.8553 31.8898 53.0138 31.8898Z" fill="#7DB3F8"/>
<path d="M63.1717 31.8898H53.0137C53.8552 31.8898 54.5371 32.5717 54.5371 33.4133V102.475C54.5371 103.316 53.8552 103.998 53.0137 103.998H63.1717C64.0131 103.998 64.6952 103.316 64.6952 102.475V33.4133C64.6952 32.5719 64.0133 31.8898 63.1717 31.8898Z" fill="#1A78ED"/>
<path d="M93.1329 47.6304C93.1329 46.7888 92.4511 46.1069 91.6095 46.1069H64.6948V102.475C64.6948 103.316 64.0127 103.998 63.1714 103.998L91.6095 104C92.4511 104 93.1329 103.318 93.1329 102.477C93.1329 102.462 93.1311 102.448 93.1307 102.434C93.1311 102.42 93.1329 102.406 93.1329 102.392V47.6304Z" fill="#7ED2C2"/>
<path d="M103.289 47.6304C103.289 46.7888 102.607 46.1069 101.766 46.1069H91.6094C92.4509 46.1069 93.1328 46.7888 93.1328 47.6304V102.392C93.1328 102.406 93.131 102.42 93.1306 102.434C93.131 102.448 93.1328 102.462 93.1328 102.477C93.1328 103.313 92.4584 103.992 91.6234 103.999L101.766 104C102.607 104 103.289 103.318 103.289 102.477C103.289 102.462 103.287 102.448 103.287 102.434C103.287 102.42 103.289 102.406 103.289 102.392V47.6304Z" fill="#65AFA1"/>
<path d="M93.1329 47.6304C93.1329 46.7888 92.4511 46.1069 91.6095 46.1069H85.5151C86.3565 46.1069 87.0386 46.7888 87.0386 47.6304V102.392C87.0386 102.406 87.0367 102.42 87.0363 102.434C87.0367 102.448 87.0386 102.462 87.0386 102.477C87.0386 103.315 86.3612 103.995 85.5237 104L91.6095 104C92.4511 104 93.1329 103.318 93.1329 102.477C93.1329 102.462 93.1311 102.448 93.1307 102.434C93.1311 102.42 93.1329 102.406 93.1329 102.392V47.6304Z" fill="#75C2B3"/>
<path d="M80.439 15.2348C77.919 15.2348 75.8687 13.1844 75.8687 10.6645C75.8687 8.14449 77.919 6.09415 80.439 6.09415C82.9589 6.09415 85.0093 8.14449 85.0093 10.6645C85.0093 13.1844 82.9589 15.2348 80.439 15.2348ZM80.439 9.14102C79.5988 9.14102 78.9155 9.82433 78.9155 10.6645C78.9155 11.5046 79.5988 12.1879 80.439 12.1879C81.2791 12.1879 81.9624 11.5046 81.9624 10.6645C81.9624 9.82433 81.2791 9.14102 80.439 9.14102Z" fill="#FD6F55"/>
<path d="M92.626 27.4223C90.106 27.4223 88.0557 25.3719 88.0557 22.852C88.0557 20.332 90.106 18.2816 92.626 18.2816C95.1459 18.2816 97.1963 20.332 97.1963 22.852C97.1963 25.3719 95.1459 27.4223 92.626 27.4223ZM92.626 21.3285C91.7859 21.3285 91.1025 22.0118 91.1025 22.852C91.1025 23.6921 91.7859 24.3754 92.626 24.3754C93.4661 24.3754 94.1494 23.6921 94.1494 22.852C94.1494 22.0118 93.4661 21.3285 92.626 21.3285Z" fill="#FD6F55"/>
<path d="M77.3918 27.4233C77.002 27.4233 76.612 27.2746 76.3144 26.9772C75.7194 26.3821 75.7194 25.4176 76.3144 24.8227L94.596 6.54103C95.1912 5.94628 96.1556 5.94628 96.7508 6.54103C97.3458 7.13619 97.3458 8.10063 96.7508 8.69558L78.4691 26.9772C78.1716 27.2744 77.7816 27.4233 77.3918 27.4233Z" fill="#FD6F55"/>
<path d="M27.6592 13.6086C20.6589 13.6086 14.9639 19.3036 14.9639 26.3039V45.6004C14.9639 46.4419 15.6458 47.1238 16.4873 47.1238C17.3289 47.1238 18.0107 46.4419 18.0107 45.6004V26.3039C18.0107 20.9838 22.3391 16.6555 27.6592 16.6555C32.9792 16.6555 37.3076 20.9838 37.3076 26.3039V45.6004C37.3076 46.4419 37.9895 47.1238 38.8311 47.1238C39.6726 47.1238 40.3545 46.4419 40.3545 45.6004V26.3039C40.3545 19.3036 34.6595 13.6086 27.6592 13.6086Z" fill="#E6E9ED"/>
<path d="M73.3287 52.2011C72.4871 52.2011 71.8052 52.883 71.8052 53.7245C71.8052 57.9652 68.7309 61.499 64.6948 62.2207V65.3021C70.4179 64.5533 74.8521 59.6487 74.8521 53.7245C74.8521 52.8832 74.1702 52.2011 73.3287 52.2011Z" fill="#E6E9ED"/>
</svg>
