<svg width="24" height="24" viewBox="0 0 24 24" fill="none" xmlns="http://www.w3.org/2000/svg">
<path d="M24 11.5312C24 12.0491 23.5803 12.4688 23.0625 12.4688H14.8594C14.3416 12.4688 13.9219 12.0491 13.9219 11.5312C13.9219 11.0134 14.3416 10.5938 14.8594 10.5938H23.0625C23.5803 10.5938 24 11.0134 24 11.5312ZM14.8594 8.71875H23.0625C23.5803 8.71875 24 8.29907 24 7.78125C24 7.26343 23.5803 6.84375 23.0625 6.84375H14.8594C14.3416 6.84375 13.9219 7.26343 13.9219 7.78125C13.9219 8.29907 14.3416 8.71875 14.8594 8.71875ZM23.0625 14.3438H14.8594C14.3416 14.3438 13.9219 14.7634 13.9219 15.2812C13.9219 15.7991 14.3416 16.2188 14.8594 16.2188H23.0625C23.5803 16.2188 24 15.7991 24 15.2812C24 14.7634 23.5803 14.3438 23.0625 14.3438ZM23.0625 18.0938H14.8594C14.3416 18.0938 13.9219 18.5134 13.9219 19.0312C13.9219 19.5491 14.3416 19.9688 14.8594 19.9688H23.0625C23.5803 19.9688 24 19.5491 24 19.0312C24 18.5134 23.5803 18.0938 23.0625 18.0938ZM23.0625 21.8438H14.8594C14.3416 21.8438 13.9219 22.2634 13.9219 22.7812C13.9219 23.2991 14.3416 23.7188 14.8594 23.7188H23.0625C23.5803 23.7188 24 23.2991 24 22.7812C24 22.2634 23.5803 21.8438 23.0625 21.8438ZM2.8125 15.0938C2.29559 15.0938 1.875 14.6732 1.875 14.1562V9.65625C1.875 9.13934 2.29559 8.71875 2.8125 8.71875H11.1094C11.6272 8.71875 12.0469 8.29907 12.0469 7.78125C12.0469 7.26343 11.6272 6.84375 11.1094 6.84375H2.8125C1.2616 6.84375 0 8.10535 0 9.65625V14.1562C0 15.3785 0.783691 16.4211 1.875 16.8082V22.7812C1.875 23.2991 2.29468 23.7188 2.8125 23.7188C3.33032 23.7188 3.75 23.2991 3.75 22.7812V16.0312C3.75 15.5134 3.33032 15.0938 2.8125 15.0938ZM6.5625 15.0938C6.04468 15.0938 5.625 15.5134 5.625 16.0312V22.7812C5.625 23.2991 6.04468 23.7188 6.5625 23.7188C7.08032 23.7188 7.5 23.2991 7.5 22.7812V16.0312C7.5 15.5134 7.08032 15.0938 6.5625 15.0938ZM1.875 3.14062C1.875 1.58972 3.1366 0.328125 4.6875 0.328125C6.2384 0.328125 7.5 1.58972 7.5 3.14062C7.5 4.69153 6.2384 5.95312 4.6875 5.95312C3.1366 5.95312 1.875 4.69153 1.875 3.14062ZM3.75 3.14062C3.75 3.65753 4.17059 4.07812 4.6875 4.07812C5.20441 4.07812 5.625 3.65753 5.625 3.14062C5.625 2.62372 5.20441 2.20312 4.6875 2.20312C4.17059 2.20312 3.75 2.62372 3.75 3.14062ZM11.1562 10.5938C10.6384 10.5938 10.2188 11.0134 10.2188 11.5312C10.2188 12.0491 10.6384 12.4688 11.1562 12.4688C11.6741 12.4688 12.0938 12.0491 12.0938 11.5312C12.0938 11.0134 11.6741 10.5938 11.1562 10.5938ZM11.1562 14.3438C10.6384 14.3438 10.2188 14.7634 10.2188 15.2812C10.2188 15.7991 10.6384 16.2188 11.1562 16.2188C11.6741 16.2188 12.0938 15.7991 12.0938 15.2812C12.0938 14.7634 11.6741 14.3438 11.1562 14.3438ZM11.1562 18.0938C10.6384 18.0938 10.2188 18.5134 10.2188 19.0312C10.2188 19.5491 10.6384 19.9688 11.1562 19.9688C11.6741 19.9688 12.0938 19.5491 12.0938 19.0312C12.0938 18.5134 11.6741 18.0938 11.1562 18.0938ZM11.1562 21.8438C10.6384 21.8438 10.2188 22.2634 10.2188 22.7812C10.2188 23.2991 10.6384 23.7188 11.1562 23.7188C11.6741 23.7188 12.0938 23.2991 12.0938 22.7812C12.0938 22.2634 11.6741 21.8438 11.1562 21.8438Z" fill="#6EC1B1"/>
</svg>
