<svg width="104" height="104" viewBox="0 0 104 104" fill="none" xmlns="http://www.w3.org/2000/svg">
<g clip-path="url(#clip0)">
<path d="M5.35449 27.6623V97.1755C5.35449 97.6373 5.729 98.0126 6.19159 98.0126H97.8089C98.2715 98.0126 98.646 97.6373 98.646 97.1755V27.6623H5.35449Z" fill="#FFE3A7"/>
<path d="M5.35449 51.5017H98.646V56.2244H5.35449V51.5017Z" fill="#FFC854"/>
<path d="M5.35449 27.6623H98.646V32.3849H5.35449V27.6623Z" fill="#FFC854"/>
<path d="M35.4307 27.6623V32.4183C35.4307 35.769 38.1467 38.485 41.4974 38.485H67.1213C71.4465 38.485 74.9528 34.9788 74.9528 30.6536V27.6623H35.4307Z" fill="#FFC854"/>
<path d="M93.7116 27.6623V97.1755C93.7116 97.6373 93.3371 98.0126 92.8745 98.0126H97.809C98.2716 98.0126 98.6461 97.6373 98.6461 97.1755V27.6623H93.7116Z" fill="#FFC854"/>
<path d="M40.8423 66.7408V98.0126H63.1575V66.7408C63.1575 65.5848 62.2204 64.6477 61.0643 64.6477H42.9346C41.7794 64.6477 40.8423 65.5848 40.8423 66.7408Z" fill="#475762"/>
<path d="M44.0336 69.9345C44.0336 68.7784 44.9706 67.8414 46.1267 67.8414H63.1575V66.7408C63.1575 65.5848 62.2204 64.6477 61.0651 64.6477H42.9354C41.7794 64.6477 40.8423 65.5848 40.8423 66.7408V98.0126H44.0336V69.9345Z" fill="#292929"/>
<path d="M0.129883 42.1223V50.6646C0.129883 51.1272 0.504395 51.5017 0.96698 51.5017H103.033C103.495 51.5017 103.87 51.1272 103.87 50.6646V42.1223C103.87 41.6597 103.495 41.2852 103.033 41.2852H0.96698C0.504395 41.2852 0.129883 41.6597 0.129883 42.1223Z" fill="#A1C6F3"/>
<path d="M103.033 41.2852H98.1172C98.5798 41.2852 98.9543 41.6597 98.9543 42.1223V50.6654C98.9543 51.1272 98.5798 51.5025 98.1172 51.5025H103.033C103.495 51.5025 103.87 51.1272 103.87 50.6654V42.1223C103.87 41.6597 103.495 41.2852 103.033 41.2852Z" fill="#7BB6FF"/>
<path d="M69.9966 69.775V86.901C69.9966 87.8793 70.79 88.6728 71.7684 88.6728H91.1906C92.1697 88.6728 92.9624 87.8793 92.9624 86.901V69.775C92.9624 68.7959 92.1697 68.0032 91.1906 68.0032H71.7684C70.7892 68.0024 69.9966 68.7959 69.9966 69.775Z" fill="#A1C6F3"/>
<path d="M11.0376 69.775V86.901C11.0376 87.8793 11.8303 88.6728 12.8094 88.6728H32.2316C33.2107 88.6728 34.0034 87.8793 34.0034 86.901V69.775C34.0034 68.7959 33.21 68.0032 32.2316 68.0032H12.8094C11.8303 68.0024 11.0376 68.7959 11.0376 69.775Z" fill="#A1C6F3"/>
<path d="M104 23.0515V19.2136H0V23.0515C2.5462 23.0515 4.61078 25.1161 4.61078 27.6623H99.3892C99.3892 25.1161 101.454 23.0515 104 23.0515Z" fill="#A1C6F3"/>
<path d="M35.4302 19.2136H74.9523V27.6623H35.4302V19.2136Z" fill="#7BB6FF"/>
<path d="M99.0847 19.2136V23.0515C96.5377 23.0515 94.4731 25.1161 94.4731 27.6623H99.3894C99.3894 25.1161 101.454 23.0515 104 23.0515V19.2136H99.0847Z" fill="#7BB6FF"/>
<path d="M32.2388 12.1605V29.2849C32.2388 32.6349 34.9548 35.3517 38.3055 35.3517H65.6941C69.0441 35.3517 71.7609 32.6349 71.7609 29.2849V12.1605C71.7609 8.80975 69.0441 6.09375 65.6941 6.09375H38.3055C34.9548 6.09375 32.2388 8.80975 32.2388 12.1605Z" fill="#FFE3A7"/>
<path d="M45.9318 82.8536H44.6758C43.8347 82.8536 43.1523 82.1712 43.1523 81.3301C43.1523 80.4891 43.8347 79.8067 44.6758 79.8067H45.9318C46.7737 79.8067 47.4553 80.4891 47.4553 81.3301C47.4553 82.1712 46.7737 82.8536 45.9318 82.8536Z" fill="#292929"/>
<g clip-path="url(#clip1)">
<path d="M50.7196 9.17716C50.4052 9.19181 50.1633 9.46253 50.1633 9.7772V13.9853C50.1633 14.3408 49.8752 14.6289 49.5197 14.6289H49.5126C49.1571 14.6289 48.869 14.3408 48.869 13.9853V9.76067C48.869 9.43802 48.6074 9.17648 48.2847 9.17648H48.2648C47.9421 9.17648 47.6806 9.43802 47.6806 9.76067V13.9655C47.6806 14.3121 47.4143 14.6103 47.0681 14.6266C46.6985 14.644 46.3933 14.3495 46.3933 13.9837V9.76067C46.3934 9.43802 46.1319 9.17648 45.8092 9.17648H45.8083C45.4857 9.17648 45.2241 9.43802 45.2241 9.76067V16.5421C45.2241 17.3601 45.6643 18.0752 46.3206 18.4637C47.0193 18.8772 47.4437 19.6328 47.4437 20.4447V23.8543C47.4437 24.3779 47.3223 24.899 47.0599 25.3521C46.984 25.4831 46.9285 25.6283 46.898 25.7838L46.0799 29.9655C46.0571 30.082 46.0773 30.203 46.1367 30.3059L47.0407 31.8717C47.1286 32.0239 47.291 32.1176 47.4667 32.1176H49.175C49.3508 32.1176 49.5132 32.0238 49.601 31.8716L50.5019 30.3112C50.5632 30.2051 50.5827 30.0799 50.5565 29.9601L49.6359 25.7533C49.6084 25.6274 49.5644 25.5087 49.5065 25.3991C49.2588 24.9305 49.113 24.4148 49.113 23.8848V20.4403C49.113 19.63 49.5356 18.8755 50.2322 18.4616C50.8868 18.0727 51.3254 17.3587 51.3254 16.5421L51.3317 9.76121C51.3321 9.4291 51.0552 9.16147 50.7196 9.17716Z" fill="#FD6F55"/>
<path d="M50.7193 9.17717C50.5363 9.18568 50.3783 9.28134 50.2778 9.42154C50.3463 9.51734 50.3867 9.63451 50.3867 9.76127L50.3803 16.5422C50.3803 17.3588 49.9417 18.0727 49.2872 18.4616C48.5906 18.8755 48.168 19.63 48.168 20.4403V23.8848C48.168 24.4148 48.3138 24.9305 48.5614 25.3992C48.6193 25.5087 48.6634 25.6274 48.6909 25.7533L49.6114 29.9601C49.6376 30.0799 49.6182 30.2051 49.5569 30.3112L48.656 31.8716C48.5681 32.0238 48.4057 32.1176 48.23 32.1176H49.1748C49.3505 32.1176 49.5129 32.0238 49.6008 31.8716L50.5017 30.3112C50.563 30.2051 50.5824 30.0799 50.5562 29.9601L49.6357 25.7533C49.6081 25.6274 49.5641 25.5087 49.5062 25.3992C49.2585 24.9305 49.1128 24.4148 49.1128 23.8848V20.4403C49.1128 19.63 49.5354 18.8755 50.232 18.4616C50.8865 18.0727 51.3251 17.3588 51.3251 16.5422L51.3314 9.76122C51.3318 9.42912 51.0549 9.16149 50.7193 9.17717Z" fill="#E84C4C"/>
<path d="M58.7643 29.9602L57.8438 25.7533C57.8162 25.6275 57.7722 25.5088 57.7143 25.3992C57.4666 24.9306 57.3208 24.4149 57.3208 23.8849V9.58293C57.3208 9.38318 57.1589 9.22125 56.9592 9.22125H56.4819C54.8264 9.22125 53.4844 10.5633 53.4844 12.2188V19.72C53.4844 20.8471 54.3981 21.7609 55.5252 21.7609C55.5949 21.7609 55.6515 21.8174 55.6515 21.8871V23.8542C55.6515 24.3778 55.5302 24.899 55.2677 25.3521C55.1918 25.4831 55.1363 25.6283 55.1059 25.7837L54.2878 29.9654C54.265 30.082 54.2852 30.2029 54.3446 30.3058L55.2486 31.8716C55.3365 32.0238 55.4989 32.1176 55.6746 32.1176H57.3829C57.5586 32.1176 57.7211 32.0238 57.8089 31.8716L58.7098 30.3112C58.7711 30.2051 58.7905 30.08 58.7643 29.9602Z" fill="#FD6F55"/>
<path d="M58.7643 29.9602L57.8438 25.7533C57.8162 25.6275 57.7722 25.5088 57.7143 25.3992C57.4666 24.9306 57.3208 24.4149 57.3208 23.8849V9.58293C57.3208 9.38318 57.1589 9.22125 56.9591 9.22125H56.4819C56.3684 9.22125 56.2566 9.22815 56.1465 9.24038C56.2896 9.2886 56.3927 9.4236 56.3927 9.58293V23.8849C56.3927 24.4149 56.5385 24.9306 56.7862 25.3992C56.8441 25.5087 56.8882 25.6275 56.9157 25.7533L57.8362 29.9602C57.8624 30.08 57.843 30.2051 57.7817 30.3113L56.8808 31.8717C56.793 32.0239 56.6305 32.1177 56.4548 32.1177H57.3829C57.5587 32.1177 57.7211 32.0239 57.8089 31.8717L58.7098 30.3113C58.7711 30.2051 58.7905 30.08 58.7643 29.9602Z" fill="#E84C4C"/>
</g>
</g>
<defs>
<clipPath id="clip0">
<rect width="104" height="104" fill="white"/>
</clipPath>
<clipPath id="clip1">
<rect width="22.9412" height="22.9412" fill="white" transform="translate(40.5293 9.17648)"/>
</clipPath>
</defs>
</svg>
