<svg width="24" height="24" viewBox="0 0 24 24" fill="none" xmlns="http://www.w3.org/2000/svg">
<path d="M10.3989 19.6994C5.61913 19.4979 1.875 15.5894 1.875 10.8012C1.875 5.89035 5.87033 1.89502 10.7812 1.89502C14.9223 1.89502 18.5787 4.82418 19.4754 8.85983C19.5877 9.36528 20.0883 9.68394 20.5939 9.57167C21.0994 9.45936 21.4181 8.9586 21.3058 8.45314C20.7822 6.09693 19.4563 3.95686 17.5722 2.42723C15.6602 0.874924 13.2484 0.0200195 10.7812 0.0200195C7.90142 0.0200195 5.19407 1.14145 3.15773 3.17775C1.12144 5.21409 0 7.92144 0 10.8012C0 13.6006 1.068 16.2535 3.00717 18.2711C4.94071 20.2829 7.53772 21.4555 10.3199 21.5728C10.3333 21.5733 10.3467 21.5736 10.3601 21.5736C10.8597 21.5736 11.2748 21.1794 11.2961 20.6756C11.3179 20.1583 10.9162 19.7212 10.3989 19.6994Z" fill="#475762"/>
<path d="M10.7811 3.77692C10.2633 3.77692 9.84362 4.19663 9.84362 4.71441V10.4129L6.81489 13.4417C6.44875 13.8078 6.44875 14.4013 6.81489 14.7675C6.99794 14.9505 7.23784 15.0421 7.4778 15.0421C7.71775 15.0421 7.95765 14.9505 8.1407 14.7675L11.444 11.4642C11.6199 11.2884 11.7186 11.0499 11.7186 10.8013V4.71441C11.7186 4.19663 11.2989 3.77692 10.7811 3.77692Z" fill="#475762"/>
<path d="M22.0713 11.6612C21.0938 11.2623 19.8144 11.0425 18.4688 11.0425C17.1231 11.0425 15.8437 11.2623 14.8662 11.6612C13.1881 12.3462 12.9375 13.3298 12.9375 13.855V21.1675C12.9375 21.6928 13.1881 22.6764 14.8662 23.3613C15.8437 23.7603 17.1231 23.98 18.4688 23.98C19.8144 23.98 21.0938 23.7603 22.0713 23.3613C23.7494 22.6764 24 21.6928 24 21.1675V13.855C24 13.3297 23.7494 12.3462 22.0713 11.6612ZM22.125 21.1378C21.9701 21.426 20.7097 22.105 18.4688 22.105C16.2278 22.105 14.9674 21.4261 14.8125 21.1378V19.6354C14.8305 19.643 14.8478 19.6507 14.8662 19.6582C15.8437 20.0571 17.1231 20.2769 18.4688 20.2769C18.7933 20.2769 19.1182 20.2641 19.4344 20.2387C19.9505 20.1973 20.3353 19.7453 20.2939 19.2292C20.2524 18.7131 19.8011 18.3284 19.2844 18.3697C19.0179 18.3911 18.7435 18.4019 18.4688 18.4019C16.2272 18.4019 14.9668 17.7227 14.8125 17.4346V16.0261C14.8305 16.0337 14.8478 16.0414 14.8662 16.0489C15.8437 16.4479 17.1231 16.6676 18.4688 16.6676C18.7933 16.6676 19.1182 16.6548 19.4344 16.6294C19.9505 16.588 20.3353 16.1361 20.2939 15.6199C20.2524 15.1038 19.8011 14.7191 19.2844 14.7604C19.0179 14.7818 18.7435 14.7927 18.4688 14.7927C16.3012 14.7927 15.0512 14.1576 14.8315 13.8551C15.0516 13.5526 16.3015 12.9177 18.4688 12.9177C20.7097 12.9177 21.9701 13.5966 22.125 13.8849V21.1378Z" fill="#475762"/>
</svg>
