<svg width="101" height="100" viewBox="0 0 101 100" fill="none" xmlns="http://www.w3.org/2000/svg">
<g filter="url(#filter0_dd)">
<rect x="14.9229" y="16" width="58" height="58" rx="10" fill="#FFBBAF"/>
</g>
<rect x="10.5" y="22.0652" width="57" height="57" rx="9.5" fill="white" stroke="#FD6F55"/>
<g clip-path="url(#clip0)">
<path d="M39.8118 65.6873C39.8118 66.3777 39.2522 66.9373 38.5618 66.9373H31.1873C28.4302 66.9373 26.1873 64.6944 26.1873 61.9375V49.8328L25.1953 50.8228C24.7068 51.3103 23.9156 51.3096 23.4278 50.8211C22.94 50.3323 22.9409 49.541 23.4295 49.0532L36.5721 35.9365C36.5889 35.9197 36.6062 35.9036 36.6238 35.8877C38.0515 34.6167 40.2005 34.6213 41.6226 35.8982C41.6402 35.9141 41.6575 35.9304 41.6741 35.9473L54.698 49.0569C55.1846 49.5466 55.1819 50.3381 54.6922 50.8247C54.4485 51.0669 54.1299 51.188 53.8113 51.188C53.49 51.188 53.1687 51.065 52.9246 50.8189L39.9302 37.7388C39.4637 37.3391 38.7769 37.3377 38.3086 37.7354L28.6856 47.3396C28.6858 47.3516 28.6873 47.3633 28.6873 47.3755V61.9375C28.6873 63.3159 29.8089 64.4375 31.1873 64.4375H38.5618C39.2522 64.4373 39.8118 64.9971 39.8118 65.6873ZM41.6243 58.1875C39.9012 58.1875 38.4993 56.7857 38.4993 55.0628C38.4993 53.3396 39.9012 51.9378 41.6243 51.9378C43.3474 51.9378 44.7491 53.3396 44.7491 55.0628C44.7491 56.7857 43.3474 58.1875 41.6243 58.1875ZM42.2493 55.0628C42.2493 54.718 41.969 54.4378 41.6243 54.4378C41.2796 54.4378 40.9993 54.718 40.9993 55.0628C40.9993 55.4072 41.2796 55.6878 41.6243 55.6878C41.969 55.6878 42.2493 55.4075 42.2493 55.0628ZM55.0613 63.8123C55.0613 65.5354 53.6595 66.9373 51.9363 66.9373C50.2134 66.9373 48.8116 65.5354 48.8116 63.8123C48.8116 62.0894 50.2134 60.6875 51.9363 60.6875C53.6595 60.6875 55.0613 62.0894 55.0613 63.8123ZM52.5613 63.8123C52.5613 63.4678 52.281 63.1875 51.9363 63.1875C51.5918 63.1875 51.3113 63.4678 51.3113 63.8123C51.3113 64.157 51.5918 64.4373 51.9363 64.4373C52.281 64.4373 52.5613 64.157 52.5613 63.8123ZM50.9043 52.0901C50.2981 51.76 49.5389 51.9837 49.2088 52.5901L42.4014 65.0896C42.0713 65.6958 42.2952 66.4548 42.9014 66.7852C43.0913 66.8884 43.2962 66.9375 43.4981 66.9375C43.9412 66.9375 44.3702 66.7014 44.597 66.2852L51.4041 53.7857C51.7342 53.1795 51.5105 52.4202 50.9043 52.0901Z" fill="#FD6F55"/>
</g>
<defs>
<filter id="filter0_dd" x="0.922852" y="0" width="100" height="100" filterUnits="userSpaceOnUse" color-interpolation-filters="sRGB">
<feFlood flood-opacity="0" result="BackgroundImageFix"/>
<feColorMatrix in="SourceAlpha" type="matrix" values="0 0 0 0 0 0 0 0 0 0 0 0 0 0 0 0 0 0 127 0"/>
<feOffset dx="7" dy="5"/>
<feGaussianBlur stdDeviation="10.5"/>
<feColorMatrix type="matrix" values="0 0 0 0 0 0 0 0 0 0 0 0 0 0 0 0 0 0 0.05 0"/>
<feBlend mode="normal" in2="BackgroundImageFix" result="effect1_dropShadow"/>
<feColorMatrix in="SourceAlpha" type="matrix" values="0 0 0 0 0 0 0 0 0 0 0 0 0 0 0 0 0 0 127 0"/>
<feOffset dx="3" dy="3"/>
<feGaussianBlur stdDeviation="1.5"/>
<feColorMatrix type="matrix" values="0 0 0 0 0 0 0 0 0 0 0 0 0 0 0 0 0 0 0.03 0"/>
<feBlend mode="normal" in2="effect1_dropShadow" result="effect2_dropShadow"/>
<feBlend mode="normal" in="SourceGraphic" in2="effect2_dropShadow" result="shape"/>
</filter>
<clipPath id="clip0">
<rect width="32" height="32" fill="white" transform="translate(23 35)"/>
</clipPath>
</defs>
</svg>
