<svg width="24" height="24" viewBox="0 0 24 24" fill="none" xmlns="http://www.w3.org/2000/svg">
<g clip-path="url(#clip0)">
<path d="M13.6875 17.8125C13.6875 17.0358 14.3171 16.4062 15.0938 16.4062C15.8704 16.4062 16.5 17.0358 16.5 17.8125C16.5 18.5892 15.8704 19.2188 15.0938 19.2188C14.3171 19.2188 13.6875 18.5892 13.6875 17.8125ZM19.1557 7.23539C18.3267 6.06544 17.6719 5.1413 17.6719 4.03125C17.6719 3.51347 17.2053 3.09375 16.6875 3.09375C16.4707 3.09375 16.2138 3.16889 16.0461 3.30638C15.7999 3.50827 14.7324 4.52414 13.6046 6.0345C12.7407 4.82489 12.375 3.25969 12.375 0.9375C12.375 0.419719 11.8615 0 11.3438 0C11.1663 0 10.9026 0.0503438 10.7526 0.145219C9.83255 0.727219 7.78884 2.32083 5.96517 4.60186C4.87266 5.96836 4.00598 7.39533 3.38916 8.84306C2.63325 10.6173 2.25 12.4319 2.25 14.2363C2.25 19.62 6.62386 24 12 24C14.4666 24 16.7096 23.155 18.4864 21.5563C18.8713 21.21 18.9026 20.6173 18.5563 20.2323C18.21 19.8474 17.6172 19.8162 17.2323 20.1624C15.8053 21.4463 13.996 22.125 12 22.125C7.65769 22.125 4.125 18.5861 4.125 14.2363C4.125 11.3631 5.23683 8.5155 7.42969 5.7727C8.50392 4.42903 9.66731 3.34294 10.5648 2.60967C10.7347 4.55859 11.3071 6.58083 13.0423 8.22698C13.2435 8.41795 13.5192 8.50992 13.7948 8.47819C14.0705 8.44645 14.3179 8.2942 14.4705 8.06245C15.0477 7.18594 15.6564 6.43205 16.1574 5.86486C16.5029 6.73448 17.0548 7.51341 17.6258 8.31938C18.6996 9.83475 19.8112 11.5225 19.8745 14.0934C19.8748 14.0973 19.875 14.1022 19.875 14.1093C19.8796 14.8372 19.7415 15.706 19.5357 16.4315C19.3943 16.9296 19.6835 17.448 20.1816 17.5893C20.6797 17.7307 21.1981 17.4415 21.3394 16.9434C21.5682 16.1373 21.75 15.0469 21.75 14.2031C21.75 10.8967 20.3115 8.86659 19.1557 7.23539ZM8.30963 19.0044C8.48438 19.1485 8.69564 19.2188 8.90573 19.2188C9.17592 19.2188 9.44405 19.1025 9.62944 18.8778L15.8169 11.3778C16.1464 10.9785 16.0898 10.3876 15.6904 10.0581C15.291 9.72863 14.7001 9.78525 14.3706 10.1846L8.18311 17.6846C7.85358 18.084 7.91025 18.6749 8.30963 19.0044ZM10.3125 11.25C10.3125 10.4733 9.68292 9.84375 8.90625 9.84375C8.12958 9.84375 7.5 10.4733 7.5 11.25C7.5 12.0267 8.12958 12.6562 8.90625 12.6562C9.68292 12.6562 10.3125 12.0267 10.3125 11.25Z" fill="#6EC1B1"/>
</g>
<defs>
<clipPath id="clip0">
<rect width="24" height="24" fill="white"/>
</clipPath>
</defs>
</svg>
