<svg width="35" height="35" viewBox="0 0 35 35" fill="none" xmlns="http://www.w3.org/2000/svg">
<path d="M15.3337 29.9998C18.5878 29.9991 21.7481 28.9097 24.3115 26.9051L32.3708 34.9644L34.9632 32.3721L26.9038 24.3128C28.9095 21.7492 29.9995 18.5881 30.0003 15.3331C30.0003 7.24628 23.4205 0.666443 15.3337 0.666443C7.24683 0.666443 0.666992 7.24628 0.666992 15.3331C0.666992 23.4199 7.24683 29.9998 15.3337 29.9998ZM15.3337 4.33311C21.4002 4.33311 26.3337 9.26661 26.3337 15.3331C26.3337 21.3996 21.4002 26.3331 15.3337 26.3331C9.26716 26.3331 4.33366 21.3996 4.33366 15.3331C4.33366 9.26661 9.26716 4.33311 15.3337 4.33311Z" fill="white"/>
</svg>
