<svg width="101" height="100" viewBox="0 0 101 100" fill="none" xmlns="http://www.w3.org/2000/svg">
<g filter="url(#filter0_dd)">
<rect x="14.923" y="16" width="58" height="58" rx="10" fill="#B8E7DE"/>
</g>
<rect x="10.5" y="22.0652" width="57" height="57" rx="9.5" fill="white" stroke="#6EC1B1"/>
<g clip-path="url(#clip0)">
<path d="M52.5 59.5V58.1948C52.5 56.6055 51.2068 55.3125 49.6172 55.3125H37.6251C36.9358 55.3125 36.3751 55.8733 36.3751 56.5625C36.3751 56.8586 36.4791 57.1309 36.6522 57.3455L36.9058 57.5771C36.9134 57.5842 36.92 57.592 36.9275 57.5994C37.127 57.7339 37.367 57.8125 37.6251 57.8125H43.875C44.5655 57.8125 45.125 58.3721 45.125 59.0625C45.125 59.7529 44.5655 60.3125 43.875 60.3125H37.6251C36.5384 60.3125 35.5586 59.8474 34.8731 59.1064L27.658 52.5134C27.647 52.5034 27.636 52.4932 27.6255 52.4829C27.3873 52.249 27.0713 52.1223 26.7383 52.125C26.4043 52.1282 26.0916 52.2612 25.858 52.4995C25.6241 52.7378 25.4969 53.053 25.5001 53.3867C25.503 53.7156 25.6321 54.0237 25.8636 54.2563L32.2242 60.1455C32.231 60.1519 32.2378 60.1582 32.2444 60.1648C35.1321 62.9604 38.9358 64.5 42.9549 64.5H53.75C54.4405 64.5 55 65.0596 55 65.75C55 66.4404 54.4405 67 53.75 67H42.9549C40.6424 67 38.3831 66.5601 36.2396 65.6924C34.1006 64.8267 32.1749 63.5745 30.5157 61.9707L24.1497 56.0767C24.1409 56.0684 24.1321 56.0601 24.1233 56.0515C23.4085 55.3499 23.0096 54.4119 23.0003 53.4102C22.9908 52.4087 23.3721 51.4634 24.0735 50.7485C24.7752 50.0334 25.7132 49.6345 26.7149 49.6252C27.7068 49.616 28.6463 49.9907 29.3592 50.6814L34.1788 55.0854C34.7532 53.75 36.0816 52.8125 37.6251 52.8125H49.6172C52.5853 52.8125 55 55.2271 55 58.1948V59.5C55 60.1904 54.4405 60.75 53.75 60.75C53.0596 60.75 52.5 60.1904 52.5 59.5ZM33.3414 39.6504L33.9666 38.5095C34.2493 37.9937 34.8538 37.7446 35.4178 37.9119L37.0303 38.3894C37.3921 38.0964 37.7896 37.8538 38.2144 37.6663L38.4368 36.0769C38.5232 35.4595 39.0513 35 39.6746 35H40.9505C41.5555 35 42.0735 35.4333 42.1807 36.0288L42.4751 37.6658C42.8548 37.8335 43.2137 38.0459 43.5445 38.2983L45.0418 37.7261C45.5999 37.5127 46.231 37.7244 46.5479 38.2307L47.2474 39.3491C47.5872 39.8926 47.461 40.6052 46.9549 40.9988L45.6053 42.0481C45.6084 42.0847 45.6099 42.1213 45.6124 42.158C45.6143 42.1887 45.617 42.2197 45.6185 42.2507C45.6224 42.3337 45.6246 42.417 45.6246 42.5C45.6246 42.5854 45.6226 42.6709 45.6185 42.7563L46.9271 43.7168C47.4092 44.0706 47.573 44.7166 47.3182 45.2573L46.8086 46.3381C46.5457 46.8965 45.9146 47.179 45.323 47.0039L43.7493 46.5376C43.3541 46.8726 42.9141 47.1455 42.44 47.3501L42.1846 48.9475C42.0877 49.554 41.5645 50.0002 40.9502 50.0002H39.7417C39.1368 50.0002 38.6185 49.5669 38.5115 48.9714L38.2171 47.3345C37.824 47.1609 37.4534 46.9397 37.1133 46.6755L35.5909 47.2236C35.0167 47.4304 34.377 47.1921 34.0779 46.6602L33.4822 45.6008C33.1829 45.0688 33.3116 44.3989 33.7864 44.0154L35.0879 42.9648C35.0845 42.9268 35.0828 42.8887 35.0804 42.8503C35.0782 42.8176 35.0752 42.7849 35.0738 42.7517C35.0699 42.668 35.0674 42.584 35.0674 42.5002C35.0674 42.4207 35.0699 42.3411 35.0735 42.2615C35.0743 42.2439 35.0748 42.2263 35.0757 42.2087C35.0762 42.2021 35.0762 42.1958 35.0767 42.1892L33.7391 41.2881C33.2032 40.9268 33.0308 40.217 33.3414 39.6504ZM39.6028 45.1804C39.8396 45.2463 40.0887 45.2822 40.346 45.2822C40.5831 45.2822 40.8128 45.2522 41.0325 45.1963C41.0413 45.1941 41.0499 45.1914 41.0584 45.1892C41.0928 45.1802 41.127 45.1704 41.1609 45.1599C41.168 45.1577 41.1749 45.1555 41.1819 45.1533C41.6531 45.0044 42.0701 44.7327 42.396 44.376C42.4017 44.3696 42.4073 44.3635 42.4129 44.3572C42.7347 43.9983 42.9654 43.5557 43.0667 43.0659C43.0726 43.0374 43.0774 43.0083 43.0826 42.9795C43.0855 42.9626 43.0889 42.9458 43.0916 42.9287C43.0979 42.8875 43.1031 42.8459 43.1077 42.8044C43.1084 42.7991 43.1092 42.7935 43.1097 42.7881C43.1197 42.6924 43.1246 42.5962 43.1246 42.5C43.1246 42.4465 43.1229 42.3933 43.1197 42.3401C43.1189 42.325 43.1172 42.3101 43.1163 42.2949C43.1136 42.2563 43.1099 42.2178 43.1058 42.1794C43.1038 42.1626 43.1014 42.1455 43.0992 42.1287C43.0943 42.092 43.0884 42.0554 43.0823 42.0188C43.0794 42.002 43.0765 41.9851 43.073 41.9683C43.0657 41.9302 43.0574 41.8923 43.0484 41.8547C42.9312 41.363 42.6836 40.9216 42.3438 40.5693C42.3157 40.54 42.2869 40.5117 42.2576 40.4836C42.2447 40.4712 42.2317 40.4585 42.2186 40.4463C42.1802 40.4111 42.1407 40.3774 42.1006 40.3447C42.0828 40.3301 42.0647 40.3162 42.0464 40.302C42.0201 40.2815 41.9935 40.2615 41.9664 40.2419C41.9463 40.2275 41.9266 40.2129 41.9063 40.1992C41.866 40.1716 41.825 40.145 41.7833 40.1196C41.7613 40.1062 41.7386 40.0938 41.7161 40.0811C41.6902 40.0662 41.6639 40.0515 41.6375 40.0376C41.6136 40.0251 41.5899 40.0127 41.5655 40.0007C41.5323 39.9844 41.4983 39.969 41.4642 39.9539C41.4344 39.9407 41.4041 39.928 41.3736 39.9158C41.3401 39.9026 41.3067 39.8894 41.2728 39.8774C41.2505 39.8696 41.2286 39.8623 41.2063 39.855C41.1678 39.8425 41.1287 39.8306 41.0896 39.8198C40.8528 39.7539 40.6036 39.7178 40.346 39.7178C39.0279 39.7178 37.9219 40.6421 37.6385 41.877C37.6275 41.925 37.6177 41.9734 37.6094 42.022C37.6089 42.0247 37.6084 42.0273 37.608 42.03C37.5997 42.0786 37.5928 42.1272 37.587 42.176C37.5865 42.1802 37.586 42.1841 37.5855 42.188C37.5801 42.2341 37.5765 42.2803 37.5735 42.3264C37.573 42.333 37.5723 42.3396 37.5721 42.3459C37.5691 42.3975 37.5674 42.449 37.5674 42.5002C37.5674 42.5535 37.5694 42.6067 37.5723 42.6599C37.5733 42.6746 37.5748 42.689 37.5757 42.7036C37.5787 42.7427 37.5821 42.7817 37.5865 42.8208C37.5884 42.8369 37.5906 42.853 37.5928 42.8691C37.5977 42.907 37.6036 42.9446 37.6102 42.9822C37.6128 42.9978 37.6155 43.0137 37.6187 43.0293C37.6263 43.0688 37.6348 43.1079 37.6441 43.147C37.761 43.6362 38.0071 44.0754 38.3445 44.4268C38.3689 44.4521 38.3936 44.4771 38.4188 44.5015C38.4361 44.5181 38.4532 44.5349 38.4708 44.551C38.5074 44.5845 38.5447 44.6172 38.5828 44.6487C38.6031 44.6653 38.6243 44.6814 38.6451 44.6975C38.668 44.7156 38.6912 44.7332 38.7149 44.7502C38.7378 44.7671 38.7608 44.7837 38.7845 44.7998C38.8128 44.8191 38.8416 44.8376 38.8707 44.856C38.9053 44.8777 38.9405 44.8987 38.9761 44.9189C39.0001 44.9329 39.0242 44.9463 39.0486 44.9592C39.074 44.9727 39.0994 44.9858 39.1253 44.9985C39.1551 45.0134 39.1856 45.0271 39.2161 45.0408C39.2486 45.0554 39.2815 45.0693 39.3147 45.0828C39.3489 45.0964 39.3834 45.1099 39.4183 45.1221C39.4402 45.1299 39.4625 45.1375 39.4847 45.1448C39.5237 45.1575 39.563 45.1694 39.6028 45.1804Z" fill="#6EC1B1"/>
</g>
<defs>
<filter id="filter0_dd" x="0.922974" y="0" width="100" height="100" filterUnits="userSpaceOnUse" color-interpolation-filters="sRGB">
<feFlood flood-opacity="0" result="BackgroundImageFix"/>
<feColorMatrix in="SourceAlpha" type="matrix" values="0 0 0 0 0 0 0 0 0 0 0 0 0 0 0 0 0 0 127 0"/>
<feOffset dx="7" dy="5"/>
<feGaussianBlur stdDeviation="10.5"/>
<feColorMatrix type="matrix" values="0 0 0 0 0 0 0 0 0 0 0 0 0 0 0 0 0 0 0.05 0"/>
<feBlend mode="normal" in2="BackgroundImageFix" result="effect1_dropShadow"/>
<feColorMatrix in="SourceAlpha" type="matrix" values="0 0 0 0 0 0 0 0 0 0 0 0 0 0 0 0 0 0 127 0"/>
<feOffset dx="3" dy="3"/>
<feGaussianBlur stdDeviation="1.5"/>
<feColorMatrix type="matrix" values="0 0 0 0 0 0 0 0 0 0 0 0 0 0 0 0 0 0 0.03 0"/>
<feBlend mode="normal" in2="effect1_dropShadow" result="effect2_dropShadow"/>
<feBlend mode="normal" in="SourceGraphic" in2="effect2_dropShadow" result="shape"/>
</filter>
<clipPath id="clip0">
<rect width="32" height="32" fill="white" transform="translate(23 35)"/>
</clipPath>
</defs>
</svg>
