<svg width="24" height="24" viewBox="0 0 24 24" fill="none" xmlns="http://www.w3.org/2000/svg">
<path d="M21.1875 0.9375H2.8125C1.2616 0.9375 0 2.1991 0 3.75V19.3125C0 21.3803 1.68219 23.0625 3.75 23.0625H20.25C22.3178 23.0625 24 21.3803 24 19.3125C24 18.7947 23.5803 18.375 23.0625 18.375C22.5447 18.375 22.125 18.7947 22.125 19.3125C22.125 20.3463 21.2838 21.1875 20.25 21.1875H3.75C2.71619 21.1875 1.875 20.3463 1.875 19.3125V6.60938H22.125V14.625C22.125 15.1428 22.5447 15.5625 23.0625 15.5625C23.5803 15.5625 24 15.1428 24 14.625V3.75C24 2.1991 22.7384 0.9375 21.1875 0.9375ZM17.3906 2.8125C17.9075 2.8125 18.3281 3.23309 18.3281 3.75C18.3281 4.26691 17.9075 4.6875 17.3906 4.6875C16.8737 4.6875 16.4531 4.26691 16.4531 3.75C16.4531 3.23309 16.8737 2.8125 17.3906 2.8125ZM22.0781 3.75C22.0781 4.26691 21.6575 4.6875 21.1406 4.6875C20.6237 4.6875 20.2031 4.26691 20.2031 3.75C20.2031 3.23309 20.6237 2.8125 21.1406 2.8125C21.6575 2.8125 22.0781 3.23309 22.0781 3.75ZM1.875 3.75C1.875 3.23309 2.29559 2.8125 2.8125 2.8125H14.7394C14.6353 3.10602 14.5781 3.42133 14.5781 3.75C14.5781 4.09625 14.6413 4.42786 14.7563 4.73438H1.875V3.75ZM8.26172 14.2656L7.38629 14.9764C7.03418 15.2624 6.93713 15.7595 7.15631 16.1569L7.56372 16.8957C7.78601 17.2991 8.26849 17.4811 8.7019 17.3253L9.73169 16.9548C9.95636 17.1259 10.1993 17.2707 10.4561 17.3868L10.6555 18.4942C10.7358 18.9408 11.1244 19.2656 11.5781 19.2656H12.4219C12.8824 19.2656 13.2748 18.9311 13.3477 18.4763L13.5201 17.3978C13.8338 17.259 14.1262 17.0775 14.3908 16.8578L15.4565 17.1731C15.8914 17.3018 16.3563 17.1006 16.5601 16.6952L16.9389 15.9413C17.1458 15.5297 17.0231 15.0289 16.6494 14.7596L15.7473 14.1096C15.7491 14.0627 15.75 14.0156 15.75 13.9688C15.75 13.9109 15.7484 13.8532 15.7456 13.7955C15.7447 13.7754 15.7432 13.7554 15.7419 13.7355C15.7407 13.7135 15.7397 13.6915 15.7381 13.6697L16.6108 12.9611C16.9629 12.6751 17.0598 12.178 16.8408 11.7806L16.4108 11.0008C16.1851 10.5914 15.6921 10.4108 15.2552 10.5776L14.2432 10.9642C14.1482 10.8931 14.0495 10.8276 13.9486 10.7661C13.9462 10.7646 13.9438 10.7631 13.9417 10.7617C13.8988 10.7357 13.8554 10.7111 13.8118 10.687C13.7988 10.6798 13.786 10.6725 13.773 10.6653C13.7344 10.6447 13.6954 10.6247 13.656 10.6053C13.6366 10.5958 13.6174 10.5864 13.5978 10.5771C13.5797 10.5687 13.5621 10.5591 13.5439 10.5509L13.3445 9.4433C13.2642 8.9967 12.8756 8.67188 12.4219 8.67188H11.5312C11.0638 8.67188 10.6675 9.0163 10.6027 9.47937L10.4526 10.5518C10.1737 10.6782 9.9115 10.8382 9.67108 11.029L8.57739 10.7054C8.14233 10.5767 7.67761 10.778 7.47382 11.1833L7.07391 11.9791C6.86389 12.397 6.99371 12.9055 7.37842 13.1713L8.25494 13.7772C8.25165 13.8408 8.25 13.9045 8.25 13.9688C8.25 14.0264 8.25165 14.0839 8.25439 14.1416C8.25531 14.1616 8.25677 14.1813 8.25806 14.2015C8.25934 14.2227 8.26007 14.2441 8.26172 14.2656ZM10.1279 13.8649C10.1283 13.8605 10.1287 13.8563 10.129 13.8519C10.131 13.8208 10.1336 13.7897 10.1371 13.7584C10.1375 13.7558 10.1378 13.7532 10.138 13.7505C10.142 13.7175 10.1466 13.6846 10.1523 13.6518C10.1526 13.6501 10.1528 13.6485 10.1532 13.6469C10.1589 13.6139 10.1655 13.5811 10.173 13.5483C10.2513 13.2076 10.4227 12.9022 10.6589 12.6599C10.6659 12.6528 10.6729 12.6456 10.68 12.6385C10.6985 12.6202 10.7173 12.6022 10.7366 12.5847C10.7413 12.5803 10.7463 12.5759 10.7512 12.5717C10.7897 12.537 10.8296 12.5041 10.871 12.4728C10.8746 12.47 10.8783 12.4671 10.8821 12.4644C10.905 12.4471 10.9285 12.4305 10.9523 12.4144C10.9525 12.4142 10.9526 12.4142 10.953 12.414C10.999 12.3829 11.0464 12.3541 11.0951 12.327C11.101 12.3239 11.1068 12.3204 11.1129 12.3173C11.1361 12.3047 11.1597 12.2926 11.1837 12.2809C11.192 12.277 11.2 12.2734 11.2083 12.2695C11.246 12.252 11.2844 12.2357 11.3234 12.2205C11.3395 12.2142 11.3558 12.208 11.3721 12.2021C11.3908 12.1956 11.4095 12.1891 11.4283 12.1831C11.4545 12.1747 11.4809 12.167 11.5074 12.1597C11.6646 12.117 11.8295 12.0936 12 12.0936C12.1741 12.0936 12.3426 12.1181 12.5026 12.1626C12.5288 12.1699 12.5546 12.1776 12.5804 12.186C12.5955 12.191 12.6107 12.1961 12.6255 12.2014C12.6484 12.2095 12.6709 12.2183 12.6932 12.2272C12.7141 12.2355 12.7348 12.2441 12.7551 12.2531C12.778 12.2631 12.8007 12.2736 12.8232 12.2845C12.8394 12.2924 12.8553 12.3008 12.8712 12.3093C12.8895 12.3188 12.9075 12.3289 12.9254 12.3389C12.9401 12.3474 12.9549 12.3556 12.9695 12.3644C12.9979 12.3816 13.0259 12.3997 13.0536 12.4186C13.0666 12.4276 13.0794 12.4369 13.0924 12.4462C13.1115 12.46 13.1303 12.4741 13.149 12.4885C13.1605 12.4975 13.1721 12.5065 13.1834 12.5156C13.2111 12.5381 13.238 12.5614 13.2643 12.5854C13.2726 12.5929 13.2803 12.6008 13.2883 12.6083C13.3092 12.6281 13.3295 12.6482 13.3495 12.6691C13.5784 12.9066 13.745 13.2039 13.8237 13.5352C13.8296 13.5601 13.8353 13.585 13.8402 13.6099C13.8424 13.6216 13.8444 13.6333 13.8464 13.645C13.8506 13.6692 13.8545 13.6937 13.8578 13.7181C13.8593 13.7296 13.8607 13.7413 13.8622 13.7529C13.8651 13.7787 13.8675 13.8045 13.8693 13.8303C13.8701 13.8406 13.871 13.8506 13.8717 13.8609C13.8737 13.8968 13.875 13.9327 13.875 13.9688C13.875 14.0336 13.8715 14.0984 13.8649 14.1628C13.8646 14.1656 13.8642 14.1683 13.8638 14.1711C13.8607 14.2 13.8571 14.2289 13.8527 14.2577C13.851 14.2685 13.8488 14.2791 13.847 14.2897C13.8435 14.3099 13.84 14.3302 13.8358 14.3503C13.769 14.6728 13.6185 14.965 13.4088 15.204C13.3817 15.2349 13.3539 15.2651 13.3251 15.2941C13.3187 15.3003 13.312 15.3063 13.3055 15.3126C13.283 15.3345 13.2599 15.3558 13.2365 15.3765C13.2239 15.3875 13.2114 15.3986 13.1988 15.4092C13.1726 15.431 13.1461 15.4519 13.119 15.4722C13.1023 15.4847 13.0851 15.4968 13.0679 15.5087C13.0529 15.5191 13.0378 15.5292 13.0225 15.5392C12.9946 15.5574 12.9662 15.5748 12.9375 15.5914C12.9201 15.6015 12.9027 15.6118 12.8849 15.6211C12.8663 15.6313 12.847 15.6409 12.828 15.6504C12.8073 15.6605 12.7866 15.6702 12.7656 15.6795C12.7436 15.6894 12.7216 15.6989 12.6991 15.7079C12.6722 15.7187 12.6449 15.7291 12.6172 15.7388C12.6039 15.7434 12.5905 15.748 12.5771 15.7524C12.5387 15.7648 12.5001 15.7764 12.4609 15.7863C12.3133 15.8236 12.1589 15.8436 12 15.8436C11.8259 15.8436 11.6572 15.8192 11.4972 15.7747C11.4708 15.7674 11.4448 15.7595 11.4188 15.7511C11.4034 15.746 11.3882 15.7408 11.373 15.7355C11.3502 15.7275 11.3278 15.7187 11.3053 15.7097C11.2817 15.7002 11.2582 15.6903 11.235 15.6799C11.2154 15.6711 11.1958 15.6621 11.1764 15.6526C11.1586 15.644 11.1412 15.635 11.1238 15.6257C11.1077 15.6171 11.0918 15.6083 11.076 15.5993C11.0511 15.585 11.0266 15.5706 11.0026 15.5552C10.9836 15.5433 10.9645 15.5312 10.946 15.5186C10.9301 15.5076 10.9146 15.4964 10.899 15.485C10.8831 15.4733 10.8673 15.4616 10.8517 15.4493C10.8378 15.4385 10.8237 15.4279 10.81 15.4166C10.7842 15.3953 10.7589 15.3734 10.7342 15.3506C10.7225 15.3398 10.7111 15.3287 10.6998 15.3177C10.6824 15.3008 10.6653 15.2838 10.6487 15.2664C10.4211 15.0297 10.2552 14.7336 10.1766 14.4038C10.1704 14.3778 10.1646 14.3518 10.1594 14.3254C10.1574 14.3148 10.1556 14.304 10.1537 14.2932C10.1494 14.2681 10.1453 14.2429 10.142 14.2176C10.1406 14.2066 10.1391 14.1956 10.1378 14.1846C10.1349 14.1584 10.1325 14.1323 10.1305 14.1059C10.1298 14.096 10.1288 14.0863 10.1283 14.0764C10.1263 14.0405 10.125 14.0046 10.125 13.9688C10.125 13.9341 10.1261 13.8995 10.1279 13.8649Z" fill="#6EC1B1"/>
</svg>
