<svg width="24" height="24" viewBox="0 0 24 24" fill="none" xmlns="http://www.w3.org/2000/svg">
<g clip-path="url(#clip0)">
<path d="M15.6765 15.2529C15.9717 14.8273 15.8658 14.2432 15.4405 13.9482L12.9374 12.2122V9.56232H14.9911C15.4608 9.56232 15.9001 9.35339 16.1965 8.98901C16.4943 8.62317 16.61 8.14783 16.5138 7.68512C16.2478 6.40411 15.4509 5.33643 14.3847 4.69208C14.7416 4.20392 14.9531 3.60278 14.9531 2.95312C14.9531 1.32477 13.6283 0 11.9999 0C10.3716 0 9.04681 1.32477 9.04681 2.95312C9.04681 3.60278 9.25829 4.20392 9.61535 4.69208C8.54912 5.33643 7.75225 6.40411 7.48601 7.6853C7.39007 8.14783 7.50561 8.62317 7.80352 8.98901C8.09997 9.35339 8.53924 9.56232 9.00872 9.56232H11.0624V12.2278L8.63317 14.0094C8.21569 14.3156 8.12542 14.9022 8.43157 15.3199C8.61523 15.5704 8.89977 15.7029 9.18835 15.7029C9.38061 15.7029 9.57488 15.6438 9.74187 15.5213L12.0153 13.8543L14.3721 15.4889C14.535 15.6019 14.7211 15.6561 14.9054 15.6561C15.2023 15.6561 15.4945 15.5153 15.6765 15.2529ZM11.9999 1.875C12.5945 1.875 13.0781 2.35858 13.0781 2.95312C13.0781 3.54749 12.5945 4.03125 11.9999 4.03125C11.4054 4.03125 10.9218 3.54749 10.9218 2.95312C10.9218 2.35858 11.4054 1.875 11.9999 1.875ZM11.9754 5.90607H12.0245C13.1691 5.90607 14.184 6.63538 14.5698 7.68732H9.43005C9.81603 6.63538 10.8308 5.90607 11.9754 5.90607ZM23.967 22.1226C23.8617 21.6158 23.3657 21.29 22.8585 21.3953C22.4805 21.4737 22.2035 21.7694 22.1304 22.1246H16.8832C17.269 21.0729 18.2839 20.3434 19.4285 20.3434H19.4776C19.486 20.3434 19.4941 20.3425 19.5023 20.3423C21.108 20.3157 22.4062 19.0021 22.4062 17.3904C22.4062 15.7621 21.0814 14.4373 19.4531 14.4373C17.8247 14.4373 16.4999 15.7621 16.4999 17.3904C16.4999 18.0401 16.7114 18.6412 17.0683 19.1294C16.0021 19.7736 15.2052 20.8414 14.9391 22.1226C14.843 22.5851 14.9587 23.0605 15.2565 23.4263C15.5529 23.7907 15.9924 23.9996 16.4618 23.9996H22.4443C22.9137 23.9996 23.3532 23.7907 23.6497 23.4263C23.9474 23.0605 24.0629 22.5853 23.967 22.1226ZM19.4531 16.3123C20.0474 16.3123 20.5312 16.7959 20.5312 17.3904C20.5312 17.9848 20.0474 18.4686 19.4531 18.4686C18.8585 18.4686 18.3749 17.9848 18.3749 17.3904C18.3749 16.7959 18.8585 16.3123 19.4531 16.3123ZM6.93157 19.1294C7.28863 18.6412 7.49993 18.0401 7.49993 17.3904C7.49993 15.7621 6.17516 14.4373 4.54699 14.4373C2.91863 14.4373 1.59386 15.7621 1.59386 17.3904C1.59386 18.0401 1.80535 18.6412 2.16222 19.1294C1.096 19.7736 0.299125 20.8414 0.0330723 22.1226C-0.0630581 22.5851 0.0526646 23.0605 0.350394 23.4263C0.646842 23.7907 1.08611 23.9996 1.55578 23.9996H7.5382C8.00768 23.9996 8.44713 23.7907 8.7434 23.4263C9.04131 23.0605 9.15685 22.5851 9.0609 22.1224C8.79467 20.8414 7.99779 19.7736 6.93157 19.1294ZM4.54699 16.3123C5.14135 16.3123 5.62493 16.7959 5.62493 17.3904C5.62493 17.9848 5.14135 18.4686 4.54699 18.4686C3.95245 18.4686 3.46886 17.9848 3.46886 17.3904C3.46886 16.7959 3.95245 16.3123 4.54699 16.3123ZM1.9771 22.1246C2.36291 21.0729 3.37786 20.3434 4.52245 20.3434H4.57153C5.71612 20.3434 6.73089 21.0727 7.11687 22.1246H1.9771Z" fill="#6EC1B1"/>
</g>
<defs>
<clipPath id="clip0">
<rect width="24" height="24" fill="white"/>
</clipPath>
</defs>
</svg>
