<svg width="104" height="104" viewBox="0 0 104 104" fill="none" xmlns="http://www.w3.org/2000/svg">
<path d="M99.4823 88.4589L44.7706 33.7472C46.5701 29.7978 47.1768 25.4089 46.5164 21.1194C45.856 16.83 43.9571 12.8268 41.0529 9.6017C38.1488 6.37656 34.3659 4.06985 30.169 2.96493C25.972 1.86 21.5437 2.00497 17.4279 3.38202L26.4589 12.413L24.127 24.0419L12.1081 26.1666L3.39606 17.3956H3.39403C2.00942 21.5119 1.85812 25.9431 2.95874 30.1442C4.05937 34.3453 6.36391 38.1332 9.58893 41.0418C12.8139 43.9504 16.8188 45.853 21.1108 46.5155C25.4029 47.178 29.795 46.5716 33.747 44.7708L88.4608 99.4825C89.1846 100.206 90.0438 100.78 90.9895 101.172C91.9352 101.563 92.9487 101.765 93.9723 101.765C94.9958 101.765 96.0093 101.563 96.9549 101.171C97.9005 100.779 98.7597 100.205 99.4833 99.4815C100.207 98.7577 100.781 97.8984 101.173 96.9527C101.564 96.0071 101.766 94.9935 101.766 93.97C101.766 92.9464 101.564 91.9329 101.172 90.9874C100.78 90.0418 100.206 89.1826 99.4823 88.4589Z" fill="#B0B5CA"/>
<path d="M100.36 7.45877L93.6426 18.9455L87.7255 21.0458L64.6891 44.0822L64.3276 44.4438L59.5562 39.6724L59.9177 39.3108L82.9541 16.2744L85.0544 10.3574L96.5411 3.64001L100.36 7.45877Z" fill="#E5E5E5"/>
<path d="M51.8193 43.5374L57.6137 37.743L66.2472 46.3765L60.4528 52.1709L51.8193 43.5374Z" fill="#FFC854"/>
<path d="M45.951 47.2002L33.597 53.9602L6.07353 81.4836C5.30222 82.2547 4.69037 83.1702 4.27292 84.1778C3.85548 85.1854 3.64062 86.2653 3.64062 87.356C3.64063 88.4466 3.85548 89.5266 4.27292 90.5342C4.69037 91.5418 5.30222 92.4572 6.07353 93.2283L10.7718 97.9266C11.5429 98.6979 12.4584 99.3098 13.466 99.7272C14.4736 100.145 15.5535 100.36 16.6442 100.36C17.7348 100.36 18.8147 100.145 19.8223 99.7272C20.8299 99.3098 21.7454 98.6979 22.5165 97.9266L50.0399 70.4032L56.7999 58.0491L45.951 47.2002Z" fill="#B8E7DE"/>
<path d="M12.8194 42.8919C10.025 40.099 8.02422 36.6127 7.02263 32.791C6.02103 28.9692 6.0547 24.9498 7.12016 21.1453L3.39648 17.3956H3.39444C1.68656 22.4795 1.86872 28.0086 3.90752 32.969C5.94631 37.9294 9.70507 41.9885 14.4944 44.4019C13.9179 43.9305 13.3573 43.4298 12.8194 42.8919Z" fill="#CCD3DF"/>
<path d="M10.136 95.869C9.36472 95.0979 8.75287 94.1824 8.33542 93.1748C7.91798 92.1672 7.70312 91.0872 7.70312 89.9966C7.70312 88.906 7.91798 87.826 8.33542 86.8184C8.75287 85.8108 9.36472 84.8954 10.136 84.1243L37.6595 56.6008L49.0954 50.3446L45.951 47.2002L33.597 53.9602L6.07353 81.4836C5.30222 82.2547 4.69037 83.1702 4.27292 84.1778C3.85548 85.1854 3.64063 86.2653 3.64062 87.356C3.64063 88.4466 3.85548 89.5266 4.27292 90.5342C4.69037 91.5418 5.30222 92.4572 6.07353 93.2283L10.7718 97.9266C11.7493 98.9075 12.9577 99.6269 14.2859 100.019L10.136 95.869Z" fill="#6EC1B1"/>
<path d="M19.0378 91.429C18.7968 91.429 18.5612 91.3575 18.3609 91.2235C18.1605 91.0896 18.0043 90.8993 17.9121 90.6766C17.8199 90.454 17.7957 90.209 17.8427 89.9726C17.8897 89.7362 18.0058 89.5191 18.1762 89.3486L37.6475 69.8772C37.8761 69.6487 38.1861 69.5203 38.5094 69.5203C38.8326 69.5203 39.1426 69.6488 39.3711 69.8773C39.5997 70.1059 39.7281 70.4159 39.7281 70.7392C39.728 71.0624 39.5996 71.3724 39.371 71.601L19.8997 91.0721C19.7866 91.1855 19.6523 91.2753 19.5044 91.3366C19.3565 91.3978 19.1979 91.4292 19.0378 91.429Z" fill="#6EC1B1"/>
<path d="M13.7893 86.1807C13.5483 86.1806 13.3127 86.1091 13.1123 85.9752C12.912 85.8413 12.7558 85.6509 12.6636 85.4283C12.5713 85.2056 12.5472 84.9606 12.5942 84.7242C12.6412 84.4878 12.7572 84.2707 12.9276 84.1003L32.3982 64.6289C32.6268 64.4003 32.9368 64.272 33.26 64.272C33.5833 64.272 33.8932 64.4004 34.1218 64.629C34.3504 64.8576 34.4787 65.1676 34.4787 65.4908C34.4787 65.8141 34.3503 66.1241 34.1217 66.3526L14.6511 85.8238C14.5381 85.9371 14.4037 86.027 14.2558 86.0882C14.1079 86.1495 13.9494 86.1809 13.7893 86.1807Z" fill="#6EC1B1"/>
<path d="M86.7579 87.9413C86.5978 87.9415 86.4393 87.9101 86.2914 87.8489C86.1434 87.7876 86.0091 87.6978 85.896 87.5844L59.1329 60.8213C58.9043 60.5928 58.7759 60.2828 58.7759 59.9595C58.7759 59.6363 58.9042 59.3263 59.1328 59.0977C59.3614 58.8691 59.6713 58.7407 59.9946 58.7407C60.3178 58.7406 60.6278 58.869 60.8564 59.0976L87.6196 85.8609C87.7899 86.0314 87.906 86.2485 87.953 86.4849C88 86.7213 87.9759 86.9663 87.8836 87.1889C87.7914 87.4116 87.6352 87.6019 87.4349 87.7359C87.2345 87.8698 86.9989 87.9413 86.7579 87.9413Z" fill="#475762"/>
<path d="M44.1249 45.3087C43.9648 45.3089 43.8062 45.2774 43.6583 45.2162C43.5104 45.1549 43.376 45.065 43.263 44.9516L39.9033 41.5919C39.7901 41.4787 39.7004 41.3443 39.6391 41.1965C39.5779 41.0486 39.5464 40.8901 39.5464 40.7301C39.5464 40.57 39.5779 40.4115 39.6392 40.2637C39.7004 40.1158 39.7902 39.9814 39.9034 39.8683C40.0166 39.7551 40.151 39.6653 40.2988 39.6041C40.4467 39.5429 40.6052 39.5113 40.7652 39.5114C40.9253 39.5114 41.0838 39.5429 41.2316 39.6042C41.3795 39.6654 41.5139 39.7552 41.627 39.8684L44.9865 43.2281C45.157 43.3985 45.2731 43.6157 45.3201 43.8521C45.3672 44.0885 45.343 44.3335 45.2508 44.5562C45.1586 44.779 45.0024 44.9693 44.802 45.1032C44.6015 45.2372 44.3659 45.3087 44.1249 45.3087Z" fill="#475762"/>
<path d="M40.0802 28.3721C40.0487 28.3721 40.017 28.3709 39.9849 28.3684C39.6626 28.3435 39.3635 28.1916 39.1532 27.9462C38.9429 27.7007 38.8388 27.3817 38.8636 27.0595C39.0322 24.8879 38.767 22.7046 38.0836 20.6365C38.0334 20.4845 38.0135 20.3242 38.0252 20.1645C38.0369 20.0049 38.08 19.8492 38.1519 19.7062C38.2238 19.5632 38.3231 19.4357 38.4443 19.3312C38.5654 19.2266 38.706 19.1469 38.858 19.0966C39.0099 19.0463 39.1703 19.0265 39.3299 19.0382C39.4895 19.0499 39.6453 19.0929 39.7883 19.1648C39.9313 19.2367 40.0587 19.3361 40.1633 19.4572C40.2679 19.5784 40.3476 19.7189 40.3978 19.8709C41.1828 22.2459 41.4874 24.7533 41.294 27.2472C41.2704 27.553 41.1323 27.8387 40.9073 28.0473C40.6823 28.2558 40.3869 28.3718 40.0802 28.3721Z" fill="#475762"/>
<path d="M37.3125 17.4519C37.109 17.4522 36.9087 17.4014 36.7299 17.3043C36.5511 17.2073 36.3995 17.0669 36.2889 16.8961C35.9785 16.418 35.6433 15.9563 35.2849 15.513C35.1842 15.3886 35.1091 15.2456 35.0637 15.0921C35.0183 14.9386 35.0036 14.7777 35.0204 14.6185C35.0544 14.2971 35.2146 14.0023 35.466 13.799C35.7173 13.5957 36.039 13.5006 36.3605 13.5345C36.6819 13.5685 36.9767 13.7287 37.18 13.9801C37.592 14.4895 37.9771 15.0201 38.3338 15.5697C38.4531 15.7536 38.5206 15.9663 38.5292 16.1853C38.5378 16.4044 38.4872 16.6217 38.3826 16.8144C38.278 17.0071 38.1235 17.168 37.9351 17.2802C37.7468 17.3924 37.5317 17.4517 37.3125 17.4519Z" fill="#475762"/>
<path d="M62.1118 53.818L50.1823 41.8884C49.549 41.2586 48.6917 40.9055 47.7985 40.9067C46.9053 40.908 46.049 41.2633 45.4174 41.8949C44.7858 42.5265 44.4304 43.3828 44.4292 44.276C44.428 45.1693 44.781 46.0265 45.4109 46.6598L57.3404 58.5894C57.9738 59.2193 58.831 59.5723 59.7242 59.5711C60.6174 59.5699 61.4737 59.2145 62.1053 58.5829C62.7369 57.9513 63.0923 57.095 63.0935 56.2018C63.0947 55.3085 62.7417 54.4513 62.1118 53.818Z" fill="#6EC1B1"/>
</svg>
