<svg width="101" height="100" viewBox="0 0 101 100" fill="none" xmlns="http://www.w3.org/2000/svg">
<g filter="url(#filter0_dd)">
<rect x="14.9229" y="16" width="58" height="58" rx="10" fill="#A1C6F3"/>
</g>
<rect x="10.5" y="22.0652" width="57" height="57" rx="9.5" fill="white" stroke="#1A78ED"/>
<path d="M28 47.25C28 48.6284 29.1216 49.75 30.5 49.75H47.5C48.8784 49.75 50 48.6284 50 47.25V42.4375C50 41.0591 48.8784 39.9375 47.5 39.9375H30.5C29.1216 39.9375 28 41.0591 28 42.4375V47.25ZM30.5 42.4375H47.5L47.5015 47.25C47.5015 47.25 47.501 47.25 47.5 47.25H30.5V42.4375ZM37.75 59.5625V54.75C37.75 53.3716 36.6284 52.25 35.25 52.25H30.5C29.1216 52.25 28 53.3716 28 54.75V59.5625C28 60.9409 29.1216 62.0625 30.5 62.0625H35.25C36.6284 62.0625 37.75 60.9409 37.75 59.5625ZM35.25 59.5625H30.5V54.75H35.25L35.2515 59.5625C35.2515 59.5625 35.2512 59.5625 35.25 59.5625ZM50 54.75C50 53.3716 48.8784 52.25 47.5 52.25H42.75C41.3716 52.25 40.25 53.3716 40.25 54.75V59.5625C40.25 60.9409 41.3716 62.0625 42.75 62.0625H47.5C48.8784 62.0625 50 60.9409 50 59.5625V54.75ZM47.5 59.5625H42.75V54.75H47.5L47.5015 59.5625C47.5015 59.5625 47.5012 59.5625 47.5 59.5625ZM35.3125 36.25C35.3125 35.5596 35.8721 35 36.5625 35C37.2529 35 37.8125 35.5596 37.8125 36.25C37.8125 36.9404 37.2529 37.5 36.5625 37.5C35.8721 37.5 35.3125 36.9404 35.3125 36.25ZM40.1875 36.25C40.1875 35.5596 40.7471 35 41.4375 35C42.1279 35 42.6875 35.5596 42.6875 36.25C42.6875 36.9404 42.1279 37.5 41.4375 37.5C40.7471 37.5 40.1875 36.9404 40.1875 36.25ZM45.0625 36.25C45.0625 35.5596 45.6221 35 46.3125 35C47.0029 35 47.5625 35.5596 47.5625 36.25C47.5625 36.9404 47.0029 37.5 46.3125 37.5C45.6221 37.5 45.0625 36.9404 45.0625 36.25ZM30.4375 36.25C30.4375 35.5596 30.9971 35 31.6875 35C32.3779 35 32.9375 35.5596 32.9375 36.25C32.9375 36.9404 32.3779 37.5 31.6875 37.5C30.9971 37.5 30.4375 36.9404 30.4375 36.25ZM50 36.25C50 35.5596 50.5596 35 51.25 35C53.3179 35 55 36.6821 55 38.75C55 39.4404 54.4404 40 53.75 40C53.0596 40 52.5 39.4404 52.5 38.75C52.5 38.0608 51.9392 37.5 51.25 37.5C50.5596 37.5 50 36.9404 50 36.25ZM23 38.7522C23 36.6843 24.6821 35.0022 26.75 35.0022C27.4404 35.0022 28 35.5618 28 36.2522C28 36.9424 27.4404 37.5022 26.75 37.5022C26.0608 37.5022 25.5 38.063 25.5 38.7522C25.5 39.4424 24.9404 40.0022 24.25 40.0022C23.5596 40.0022 23 39.4424 23 38.7522ZM37.8125 65.75C37.8125 66.4404 37.2529 67 36.5625 67C35.8721 67 35.3125 66.4404 35.3125 65.75C35.3125 65.0596 35.8721 64.5 36.5625 64.5C37.2529 64.5 37.8125 65.0596 37.8125 65.75ZM42.6875 65.75C42.6875 66.4404 42.1279 67 41.4375 67C40.7471 67 40.1875 66.4404 40.1875 65.75C40.1875 65.0596 40.7471 64.5 41.4375 64.5C42.1279 64.5 42.6875 65.0596 42.6875 65.75ZM47.5625 65.75C47.5625 66.4404 47.0029 67 46.3125 67C45.6221 67 45.0625 66.4404 45.0625 65.75C45.0625 65.0596 45.6221 64.5 46.3125 64.5C47.0029 64.5 47.5625 65.0596 47.5625 65.75ZM32.9375 65.75C32.9375 66.4404 32.3779 67 31.6875 67C30.9971 67 30.4375 66.4404 30.4375 65.75C30.4375 65.0596 30.9971 64.5 31.6875 64.5C32.3779 64.5 32.9375 65.0596 32.9375 65.75ZM55 48.5625C55 49.2529 54.4404 49.8125 53.75 49.8125C53.0596 49.8125 52.5 49.2529 52.5 48.5625C52.5 47.8721 53.0596 47.3125 53.75 47.3125C54.4404 47.3125 55 47.8721 55 48.5625ZM55 53.4375C55 54.1279 54.4404 54.6875 53.75 54.6875C53.0596 54.6875 52.5 54.1279 52.5 53.4375C52.5 52.7471 53.0596 52.1875 53.75 52.1875C54.4404 52.1875 55 52.7471 55 53.4375ZM55 58.3125C55 59.0029 54.4404 59.5625 53.75 59.5625C53.0596 59.5625 52.5 59.0029 52.5 58.3125C52.5 57.6221 53.0596 57.0625 53.75 57.0625C54.4404 57.0625 55 57.6221 55 58.3125ZM55 43.6875C55 44.3779 54.4404 44.9375 53.75 44.9375C53.0596 44.9375 52.5 44.3779 52.5 43.6875C52.5 42.9971 53.0596 42.4375 53.75 42.4375C54.4404 42.4375 55 42.9971 55 43.6875ZM23 48.5625C23 47.8721 23.5596 47.3125 24.25 47.3125C24.9404 47.3125 25.5 47.8721 25.5 48.5625C25.5 49.2529 24.9404 49.8125 24.25 49.8125C23.5596 49.8125 23 49.2529 23 48.5625ZM23 53.4375C23 52.7471 23.5596 52.1875 24.25 52.1875C24.9404 52.1875 25.5 52.7471 25.5 53.4375C25.5 54.1279 24.9404 54.6875 24.25 54.6875C23.5596 54.6875 23 54.1279 23 53.4375ZM23 58.3125C23 57.6221 23.5596 57.0625 24.25 57.0625C24.9404 57.0625 25.5 57.6221 25.5 58.3125C25.5 59.0029 24.9404 59.5625 24.25 59.5625C23.5596 59.5625 23 59.0029 23 58.3125ZM23 43.6875C23 42.9971 23.5596 42.4375 24.25 42.4375C24.9404 42.4375 25.5 42.9971 25.5 43.6875C25.5 44.3779 24.9404 44.9375 24.25 44.9375C23.5596 44.9375 23 44.3779 23 43.6875ZM55 63.2478C55 65.3157 53.3179 66.9978 51.25 66.9978C50.5596 66.9978 50 66.4382 50 65.7478C50 65.0576 50.5596 64.4978 51.25 64.4978C51.9392 64.4978 52.5 63.937 52.5 63.2478C52.5 62.5576 53.0596 61.9978 53.75 61.9978C54.4404 61.9978 55 62.5576 55 63.2478ZM28 65.7478C28 66.4382 27.4404 66.9978 26.75 66.9978C24.6821 66.9978 23 65.3157 23 63.2478C23 62.5576 23.5596 61.9978 24.25 61.9978C24.9404 61.9978 25.5 62.5576 25.5 63.2478C25.5 63.937 26.0608 64.4978 26.75 64.4978C27.4404 64.4978 28 65.0576 28 65.7478Z" fill="#1A78ED"/>
<defs>
<filter id="filter0_dd" x="0.922852" y="0" width="100" height="100" filterUnits="userSpaceOnUse" color-interpolation-filters="sRGB">
<feFlood flood-opacity="0" result="BackgroundImageFix"/>
<feColorMatrix in="SourceAlpha" type="matrix" values="0 0 0 0 0 0 0 0 0 0 0 0 0 0 0 0 0 0 127 0"/>
<feOffset dx="7" dy="5"/>
<feGaussianBlur stdDeviation="10.5"/>
<feColorMatrix type="matrix" values="0 0 0 0 0 0 0 0 0 0 0 0 0 0 0 0 0 0 0.05 0"/>
<feBlend mode="normal" in2="BackgroundImageFix" result="effect1_dropShadow"/>
<feColorMatrix in="SourceAlpha" type="matrix" values="0 0 0 0 0 0 0 0 0 0 0 0 0 0 0 0 0 0 127 0"/>
<feOffset dx="3" dy="3"/>
<feGaussianBlur stdDeviation="1.5"/>
<feColorMatrix type="matrix" values="0 0 0 0 0 0 0 0 0 0 0 0 0 0 0 0 0 0 0.03 0"/>
<feBlend mode="normal" in2="effect1_dropShadow" result="effect2_dropShadow"/>
<feBlend mode="normal" in="SourceGraphic" in2="effect2_dropShadow" result="shape"/>
</filter>
</defs>
</svg>
