<svg width="27" height="26" viewBox="0 0 27 26" fill="none" xmlns="http://www.w3.org/2000/svg">
<g clip-path="url(#clip0)">
<path d="M26.3713 17.3585L14.6565 5.7778C14.3858 5.51019 14.0248 5.36328 13.6316 5.36328C13.2463 5.36328 12.8851 5.51019 12.6149 5.7778L0.910949 17.3475C0.640247 17.6154 0.491211 17.9724 0.491211 18.3533C0.491211 18.7342 0.640033 19.0914 0.910949 19.3591L1.77288 20.2111C2.04358 20.4787 2.40494 20.6265 2.79026 20.6265C3.17557 20.6265 3.53672 20.4787 3.80763 20.2111L13.6357 10.4954L23.4746 20.2223C23.7453 20.4897 24.1065 20.6373 24.492 20.6373C24.8773 20.6373 25.2382 20.4897 25.5091 20.2223L26.3713 19.3698C26.9319 18.8154 26.9319 17.913 26.3713 17.3585Z" fill="black"/>
</g>
<defs>
<clipPath id="clip0">
<rect width="26.3006" height="26" fill="white" transform="translate(0.491211)"/>
</clipPath>
</defs>
</svg>
