<svg width="24" height="24" viewBox="0 0 24 24" fill="none" xmlns="http://www.w3.org/2000/svg">
<g clip-path="url(#clip0)">
<path d="M23.5866 15.2851C23.1664 14.9842 22.5818 15.081 22.281 15.5013L17.6685 21.9441C17.5426 22.0902 17.3847 22.1217 17.3001 22.1273C17.2131 22.1331 17.0465 22.1221 16.8994 21.9843L13.9184 19.0752C13.5486 18.7143 12.9561 18.7215 12.5951 19.0914C12.2342 19.4613 12.2415 20.0537 12.6113 20.4147L15.5974 23.3287C15.6002 23.3314 15.603 23.3341 15.6058 23.3368C16.0535 23.763 16.6511 24 17.2659 24C17.3187 24 17.3718 23.9983 17.4247 23.9947C18.0945 23.9501 18.7197 23.6244 19.1402 23.1012C19.151 23.0876 19.1615 23.0738 19.1716 23.0597L23.8029 16.5907C24.1037 16.1704 24.0069 15.5859 23.5866 15.2851Z" fill="#FD6F55"/>
<path d="M11.7522 12.7218C11.8344 12.725 11.9169 12.7266 11.9999 12.7266C12.083 12.7266 12.1657 12.725 12.248 12.7218C14.6535 12.7796 16.9633 13.6763 18.7765 15.2614C19.1657 15.6016 19.7568 15.5619 20.097 15.1728C20.4371 14.7837 20.3974 14.1926 20.0083 13.8524C18.773 12.7724 17.3429 11.9629 15.8086 11.4577C17.3584 10.2961 18.3631 8.44475 18.3631 6.36322C18.3631 2.85454 15.5086 0 11.9998 0C8.49106 0 5.63656 2.85454 5.63656 6.36327C5.63656 8.44559 6.64194 10.2975 8.19284 11.4591C6.77192 11.9269 5.43866 12.6548 4.27175 13.6145C2.13201 15.3746 0.644291 17.8295 0.0826828 20.5272C-0.0933325 21.3725 0.117558 22.2407 0.661119 22.9092C1.20206 23.5744 2.00413 23.9558 2.86176 23.9558H11.1109C11.6278 23.9558 12.0467 23.5369 12.0467 23.0201C12.0467 22.5033 11.6277 22.0843 11.1109 22.0843H2.86171C2.46224 22.0843 2.22121 21.8613 2.11312 21.7284C1.92646 21.4989 1.85423 21.2002 1.91493 20.9087C2.88608 16.2441 7.00067 12.8366 11.7522 12.7218ZM7.50818 6.36332C7.50818 3.88654 9.52315 1.87157 11.9999 1.87157C14.4767 1.87157 16.4917 3.88654 16.4917 6.36332C16.4917 8.76402 14.5986 10.7308 12.2268 10.8494C12.1513 10.848 12.0757 10.8473 12 10.8473C11.9246 10.8473 11.8492 10.848 11.7739 10.8494C9.4017 10.7312 7.50818 8.76425 7.50818 6.36332Z" fill="#FD6F55"/>
</g>
<defs>
<clipPath id="clip0">
<rect width="24" height="24" fill="white"/>
</clipPath>
</defs>
</svg>
