<svg width="101" height="100" viewBox="0 0 101 100" fill="none" xmlns="http://www.w3.org/2000/svg">
<g filter="url(#filter0_dd)">
<rect x="14.9229" y="16" width="58" height="58" rx="10" fill="#A1C6F3"/>
</g>
<rect x="10.5" y="22.0652" width="57" height="57" rx="9.5" fill="white" stroke="#1A78ED"/>
<g clip-path="url(#clip0)">
<path d="M37.6293 64.4457H26.7743C26.371 64.4457 26.0035 64.2588 25.7659 63.9328C25.5282 63.6067 25.4627 63.1993 25.5862 62.8151C26.8195 58.981 30.5805 56.3032 34.7322 56.3032C36.664 56.3032 38.5192 56.8849 40.0971 57.9854C40.6623 58.3796 41.4399 58.2411 41.8343 57.6759C42.2284 57.1107 42.0899 56.333 41.5247 55.9387C40.7435 55.3939 39.909 54.9495 39.0361 54.6102C40.1975 53.5542 40.968 52.0755 41.1019 50.4197C42.863 48.7042 45.1714 47.7642 47.6459 47.7642C49.5777 47.7642 51.4329 48.3459 53.0108 49.4464C53.576 49.8406 54.3537 49.7021 54.748 49.1369C55.1421 48.5717 55.0035 47.794 54.4384 47.3997C53.6572 46.8549 52.8227 46.4105 51.9498 46.0712C53.231 44.9063 54.0364 43.2271 54.0364 41.3632C54.0365 37.8546 51.1819 35 47.6732 35C44.1645 35 41.31 37.8546 41.31 41.3633C41.31 43.2196 42.109 44.8929 43.3812 46.0572C43.2071 46.1242 43.0343 46.1954 42.8627 46.2709C42.082 46.6145 41.3477 47.0363 40.6651 47.5324C39.7234 45.1939 37.431 43.5391 34.7595 43.5391C31.2507 43.5391 28.3962 46.3936 28.3962 49.9024C28.3962 51.7533 29.1906 53.4221 30.4562 54.586C27.072 55.8542 24.3279 58.5779 23.2108 62.0513C22.8403 63.2032 23.0365 64.4247 23.7493 65.4027C24.4619 66.3805 25.5644 66.9413 26.7744 66.9413H37.6294C38.3185 66.9413 38.877 66.3827 38.877 65.6936C38.877 65.0046 38.3184 64.4457 37.6293 64.4457ZM47.6733 37.4954C49.806 37.4954 51.5412 39.2305 51.5412 41.3632C51.5412 43.496 49.806 45.2311 47.6733 45.2311C45.5405 45.2311 43.8054 43.496 43.8054 41.3632C43.8054 39.2305 45.5405 37.4954 47.6733 37.4954ZM34.7595 46.0344C36.8923 46.0344 38.6274 47.7695 38.6274 49.9023C38.6274 52.035 36.8923 53.7701 34.7595 53.7701C32.6268 53.7701 30.8917 52.035 30.8917 49.9023C30.8917 47.7695 32.6268 46.0344 34.7595 46.0344Z" fill="#1A78ED"/>
<path d="M54.4509 55.3801C53.8906 54.979 53.1112 55.108 52.7101 55.6684L46.5601 64.2588C46.3922 64.4536 46.1817 64.4956 46.0689 64.5031C45.9529 64.5111 45.7275 64.496 45.5342 64.3121L41.5528 60.4891C41.0557 60.0117 40.2657 60.0279 39.7887 60.5249C39.3114 61.0219 39.3274 61.8118 39.8244 62.289L43.8099 66.1158C44.4067 66.684 45.2035 67.0001 46.0232 67.0001C46.0937 67.0001 46.1643 66.9978 46.2349 66.993C47.1279 66.9335 47.9617 66.4993 48.5224 65.8017C48.5369 65.7836 48.5508 65.7652 48.5644 65.7463L54.7393 57.121C55.1403 56.5606 55.0113 55.7813 54.4509 55.3801Z" fill="#1A78ED"/>
</g>
<defs>
<filter id="filter0_dd" x="0.922852" y="0" width="100" height="100" filterUnits="userSpaceOnUse" color-interpolation-filters="sRGB">
<feFlood flood-opacity="0" result="BackgroundImageFix"/>
<feColorMatrix in="SourceAlpha" type="matrix" values="0 0 0 0 0 0 0 0 0 0 0 0 0 0 0 0 0 0 127 0"/>
<feOffset dx="7" dy="5"/>
<feGaussianBlur stdDeviation="10.5"/>
<feColorMatrix type="matrix" values="0 0 0 0 0 0 0 0 0 0 0 0 0 0 0 0 0 0 0.05 0"/>
<feBlend mode="normal" in2="BackgroundImageFix" result="effect1_dropShadow"/>
<feColorMatrix in="SourceAlpha" type="matrix" values="0 0 0 0 0 0 0 0 0 0 0 0 0 0 0 0 0 0 127 0"/>
<feOffset dx="3" dy="3"/>
<feGaussianBlur stdDeviation="1.5"/>
<feColorMatrix type="matrix" values="0 0 0 0 0 0 0 0 0 0 0 0 0 0 0 0 0 0 0.03 0"/>
<feBlend mode="normal" in2="effect1_dropShadow" result="effect2_dropShadow"/>
<feBlend mode="normal" in="SourceGraphic" in2="effect2_dropShadow" result="shape"/>
</filter>
<clipPath id="clip0">
<rect width="32" height="32" fill="white" transform="translate(23 35)"/>
</clipPath>
</defs>
</svg>
