<svg width="24" height="24" viewBox="0 0 24 24" fill="none" xmlns="http://www.w3.org/2000/svg">
<path d="M5.57812 8.48438C4.54431 8.48438 3.70312 9.32556 3.70312 10.3594V17.4375C3.70312 18.4713 4.54431 19.3125 5.57812 19.3125H9.14062C10.1744 19.3125 11.0156 18.4713 11.0156 17.4375V10.3594C11.0156 9.32556 10.1744 8.48438 9.14062 8.48438H5.57812ZM9.14062 17.4375H5.57812V10.3594H9.14062L9.14172 17.4375C9.14172 17.4375 9.14154 17.4375 9.14062 17.4375ZM20.2031 13.9219C20.2031 14.4397 19.7834 14.8594 19.2656 14.8594H13.8281C13.3103 14.8594 12.8906 14.4397 12.8906 13.9219C12.8906 13.4041 13.3103 12.9844 13.8281 12.9844H19.2656C19.7834 12.9844 20.2031 13.4041 20.2031 13.9219ZM20.2031 17.4844C20.2031 18.0022 19.7834 18.4219 19.2656 18.4219H13.8281C13.3103 18.4219 12.8906 18.0022 12.8906 17.4844C12.8906 16.9666 13.3103 16.5469 13.8281 16.5469H19.2656C19.7834 16.5469 20.2031 16.9666 20.2031 17.4844ZM20.2031 10.3594C20.2031 10.8772 19.7834 11.2969 19.2656 11.2969H13.8281C13.3103 11.2969 12.8906 10.8772 12.8906 10.3594C12.8906 9.84155 13.3103 9.42188 13.8281 9.42188H19.2656C19.7834 9.42188 20.2031 9.84155 20.2031 10.3594ZM21.1875 0.9375H2.8125C1.2616 0.9375 0 2.1991 0 3.75V19.3125C0 21.3803 1.68219 23.0625 3.75 23.0625H20.25C22.3178 23.0625 24 21.3803 24 19.3125C24 18.7947 23.5803 18.375 23.0625 18.375C22.5447 18.375 22.125 18.7947 22.125 19.3125C22.125 20.3463 21.2838 21.1875 20.25 21.1875H3.75C2.71619 21.1875 1.875 20.3463 1.875 19.3125V6.60938H22.125V14.625C22.125 15.1428 22.5447 15.5625 23.0625 15.5625C23.5803 15.5625 24 15.1428 24 14.625V3.75C24 2.1991 22.7384 0.9375 21.1875 0.9375ZM17.3906 2.8125C17.9075 2.8125 18.3281 3.23309 18.3281 3.75C18.3281 4.26691 17.9075 4.6875 17.3906 4.6875C16.8737 4.6875 16.4531 4.26691 16.4531 3.75C16.4531 3.23309 16.8737 2.8125 17.3906 2.8125ZM22.0781 3.75C22.0781 4.26691 21.6575 4.6875 21.1406 4.6875C20.6237 4.6875 20.2031 4.26691 20.2031 3.75C20.2031 3.23309 20.6237 2.8125 21.1406 2.8125C21.6575 2.8125 22.0781 3.23309 22.0781 3.75ZM1.875 3.75C1.875 3.23309 2.29559 2.8125 2.8125 2.8125H14.7394C14.6353 3.10602 14.5781 3.42133 14.5781 3.75C14.5781 4.09625 14.6413 4.42786 14.7563 4.73438H1.875V3.75Z" fill="#FD6F55"/>
</svg>
