<svg width="400" height="300" viewBox="0 0 400 300" fill="none" xmlns="http://www.w3.org/2000/svg">
<path d="M34 124H37V127H34V124Z" fill="#BABABA"/>
<path d="M34 14H37V17H34V14Z" fill="#BABABA"/>
<path d="M45 124H48V127H45V124Z" fill="#BABABA"/>
<path d="M45 14H48V17H45V14Z" fill="#BABABA"/>
<path d="M56 124H59V127H56V124Z" fill="#BABABA"/>
<path d="M56 14H59V17H56V14Z" fill="#BABABA"/>
<path d="M67 124H70V127H67V124Z" fill="#BABABA"/>
<path d="M67 14H70V17H67V14Z" fill="#BABABA"/>
<path d="M78 124H81V127H78V124Z" fill="#BABABA"/>
<path d="M78 14H81V17H78V14Z" fill="#BABABA"/>
<path d="M89 124H92V127H89V124Z" fill="#BABABA"/>
<path d="M89 14H92V17H89V14Z" fill="#BABABA"/>
<path d="M100 124H103V127H100V124Z" fill="#BABABA"/>
<path d="M100 14H103V17H100V14Z" fill="#BABABA"/>
<path d="M111 124H114V127H111V124Z" fill="#BABABA"/>
<path d="M111 14H114V17H111V14Z" fill="#BABABA"/>
<path d="M122 124H125V127H122V124Z" fill="#BABABA"/>
<path d="M122 14H125V17H122V14Z" fill="#BABABA"/>
<path d="M133 124H136V127H133V124Z" fill="#BABABA"/>
<path d="M133 14H136V17H133V14Z" fill="#BABABA"/>
<path d="M144 124H147V127H144V124Z" fill="#BABABA"/>
<path d="M144 14H147V17H144V14Z" fill="#BABABA"/>
<path d="M155 124H158V127H155V124Z" fill="#BABABA"/>
<path d="M155 14H158V17H155V14Z" fill="#BABABA"/>
<path d="M166 124H169V127H166V124Z" fill="#BABABA"/>
<path d="M166 14H169V17H166V14Z" fill="#BABABA"/>
<path d="M177 124H180V127H177V124Z" fill="#BABABA"/>
<path d="M177 14H180V17H177V14Z" fill="#BABABA"/>
<path d="M188 124H191V127H188V124Z" fill="#BABABA"/>
<path d="M188 14H191V17H188V14Z" fill="#BABABA"/>
<path d="M199 124H202V127H199V124Z" fill="#BABABA"/>
<path d="M199 14H202V17H199V14Z" fill="#BABABA"/>
<path d="M210 124H213V127H210V124Z" fill="#BABABA"/>
<path d="M210 14H213V17H210V14Z" fill="#BABABA"/>
<path d="M221 124H224V127H221V124Z" fill="#BABABA"/>
<path d="M221 14H224V17H221V14Z" fill="#BABABA"/>
<path d="M232 124H235V127H232V124Z" fill="#BABABA"/>
<path d="M232 14H235V17H232V14Z" fill="#BABABA"/>
<path d="M243 124H246V127H243V124Z" fill="#BABABA"/>
<path d="M243 14H246V17H243V14Z" fill="#BABABA"/>
<path d="M34 134H37V137H34V134Z" fill="#BABABA"/>
<path d="M34 24H37V27H34V24Z" fill="#BABABA"/>
<path d="M45 134H48V137H45V134Z" fill="#BABABA"/>
<path d="M45 24H48V27H45V24Z" fill="#BABABA"/>
<path d="M56 134H59V137H56V134Z" fill="#BABABA"/>
<path d="M56 24H59V27H56V24Z" fill="#BABABA"/>
<path d="M67 134H70V137H67V134Z" fill="#BABABA"/>
<path d="M67 24H70V27H67V24Z" fill="#BABABA"/>
<path d="M78 134H81V137H78V134Z" fill="#BABABA"/>
<path d="M78 24H81V27H78V24Z" fill="#BABABA"/>
<path d="M89 134H92V137H89V134Z" fill="#BABABA"/>
<path d="M89 24H92V27H89V24Z" fill="#BABABA"/>
<path d="M100 134H103V137H100V134Z" fill="#BABABA"/>
<path d="M100 24H103V27H100V24Z" fill="#BABABA"/>
<path d="M111 134H114V137H111V134Z" fill="#BABABA"/>
<path d="M111 24H114V27H111V24Z" fill="#BABABA"/>
<path d="M122 134H125V137H122V134Z" fill="#BABABA"/>
<path d="M122 24H125V27H122V24Z" fill="#BABABA"/>
<path d="M133 134H136V137H133V134Z" fill="#BABABA"/>
<path d="M133 24H136V27H133V24Z" fill="#BABABA"/>
<path d="M144 134H147V137H144V134Z" fill="#BABABA"/>
<path d="M144 24H147V27H144V24Z" fill="#BABABA"/>
<path d="M155 134H158V137H155V134Z" fill="#BABABA"/>
<path d="M155 24H158V27H155V24Z" fill="#BABABA"/>
<path d="M166 134H169V137H166V134Z" fill="#BABABA"/>
<path d="M166 24H169V27H166V24Z" fill="#BABABA"/>
<path d="M177 134H180V137H177V134Z" fill="#BABABA"/>
<path d="M177 24H180V27H177V24Z" fill="#BABABA"/>
<path d="M188 134H191V137H188V134Z" fill="#BABABA"/>
<path d="M188 24H191V27H188V24Z" fill="#BABABA"/>
<path d="M199 134H202V137H199V134Z" fill="#BABABA"/>
<path d="M199 24H202V27H199V24Z" fill="#BABABA"/>
<path d="M210 134H213V137H210V134Z" fill="#BABABA"/>
<path d="M210 24H213V27H210V24Z" fill="#BABABA"/>
<path d="M221 134H224V137H221V134Z" fill="#BABABA"/>
<path d="M221 24H224V27H221V24Z" fill="#BABABA"/>
<path d="M232 134H235V137H232V134Z" fill="#BABABA"/>
<path d="M232 24H235V27H232V24Z" fill="#BABABA"/>
<path d="M243 134H246V137H243V134Z" fill="#BABABA"/>
<path d="M243 24H246V27H243V24Z" fill="#BABABA"/>
<path d="M34 144H37V147H34V144Z" fill="#BABABA"/>
<path d="M34 34H37V37H34V34Z" fill="#BABABA"/>
<path d="M45 144H48V147H45V144Z" fill="#BABABA"/>
<path d="M45 34H48V37H45V34Z" fill="#BABABA"/>
<path d="M56 144H59V147H56V144Z" fill="#BABABA"/>
<path d="M56 34H59V37H56V34Z" fill="#BABABA"/>
<path d="M67 144H70V147H67V144Z" fill="#BABABA"/>
<path d="M67 34H70V37H67V34Z" fill="#BABABA"/>
<path d="M78 144H81V147H78V144Z" fill="#BABABA"/>
<path d="M78 34H81V37H78V34Z" fill="#BABABA"/>
<path d="M89 144H92V147H89V144Z" fill="#BABABA"/>
<path d="M89 34H92V37H89V34Z" fill="#BABABA"/>
<path d="M100 144H103V147H100V144Z" fill="#BABABA"/>
<path d="M100 34H103V37H100V34Z" fill="#BABABA"/>
<path d="M111 144H114V147H111V144Z" fill="#BABABA"/>
<path d="M111 34H114V37H111V34Z" fill="#BABABA"/>
<path d="M122 144H125V147H122V144Z" fill="#BABABA"/>
<path d="M122 34H125V37H122V34Z" fill="#BABABA"/>
<path d="M133 144H136V147H133V144Z" fill="#BABABA"/>
<path d="M133 34H136V37H133V34Z" fill="#BABABA"/>
<path d="M144 144H147V147H144V144Z" fill="#BABABA"/>
<path d="M144 34H147V37H144V34Z" fill="#BABABA"/>
<path d="M155 144H158V147H155V144Z" fill="#BABABA"/>
<path d="M155 34H158V37H155V34Z" fill="#BABABA"/>
<path d="M166 144H169V147H166V144Z" fill="#BABABA"/>
<path d="M166 34H169V37H166V34Z" fill="#BABABA"/>
<path d="M177 144H180V147H177V144Z" fill="#BABABA"/>
<path d="M177 34H180V37H177V34Z" fill="#BABABA"/>
<path d="M188 144H191V147H188V144Z" fill="#BABABA"/>
<path d="M188 34H191V37H188V34Z" fill="#BABABA"/>
<path d="M199 144H202V147H199V144Z" fill="#BABABA"/>
<path d="M199 34H202V37H199V34Z" fill="#BABABA"/>
<path d="M210 144H213V147H210V144Z" fill="#BABABA"/>
<path d="M210 34H213V37H210V34Z" fill="#BABABA"/>
<path d="M221 144H224V147H221V144Z" fill="#BABABA"/>
<path d="M221 34H224V37H221V34Z" fill="#BABABA"/>
<path d="M232 144H235V147H232V144Z" fill="#BABABA"/>
<path d="M232 34H235V37H232V34Z" fill="#BABABA"/>
<path d="M243 144H246V147H243V144Z" fill="#BABABA"/>
<path d="M243 34H246V37H243V34Z" fill="#BABABA"/>
<path d="M34 154H37V157H34V154Z" fill="#BABABA"/>
<path d="M34 44H37V47H34V44Z" fill="#BABABA"/>
<path d="M45 154H48V157H45V154Z" fill="#BABABA"/>
<path d="M45 44H48V47H45V44Z" fill="#BABABA"/>
<path d="M56 154H59V157H56V154Z" fill="#BABABA"/>
<path d="M56 44H59V47H56V44Z" fill="#BABABA"/>
<path d="M67 154H70V157H67V154Z" fill="#BABABA"/>
<path d="M67 44H70V47H67V44Z" fill="#BABABA"/>
<path d="M78 154H81V157H78V154Z" fill="#BABABA"/>
<path d="M78 44H81V47H78V44Z" fill="#BABABA"/>
<path d="M89 154H92V157H89V154Z" fill="#BABABA"/>
<path d="M89 44H92V47H89V44Z" fill="#BABABA"/>
<path d="M100 154H103V157H100V154Z" fill="#BABABA"/>
<path d="M100 44H103V47H100V44Z" fill="#BABABA"/>
<path d="M111 154H114V157H111V154Z" fill="#BABABA"/>
<path d="M111 44H114V47H111V44Z" fill="#BABABA"/>
<path d="M122 154H125V157H122V154Z" fill="#BABABA"/>
<path d="M122 44H125V47H122V44Z" fill="#BABABA"/>
<path d="M133 154H136V157H133V154Z" fill="#BABABA"/>
<path d="M133 44H136V47H133V44Z" fill="#BABABA"/>
<path d="M144 154H147V157H144V154Z" fill="#BABABA"/>
<path d="M144 44H147V47H144V44Z" fill="#BABABA"/>
<path d="M155 154H158V157H155V154Z" fill="#BABABA"/>
<path d="M155 44H158V47H155V44Z" fill="#BABABA"/>
<path d="M166 154H169V157H166V154Z" fill="#BABABA"/>
<path d="M166 44H169V47H166V44Z" fill="#BABABA"/>
<path d="M177 154H180V157H177V154Z" fill="#BABABA"/>
<path d="M177 44H180V47H177V44Z" fill="#BABABA"/>
<path d="M188 154H191V157H188V154Z" fill="#BABABA"/>
<path d="M188 44H191V47H188V44Z" fill="#BABABA"/>
<path d="M199 154H202V157H199V154Z" fill="#BABABA"/>
<path d="M199 44H202V47H199V44Z" fill="#BABABA"/>
<path d="M210 154H213V157H210V154Z" fill="#BABABA"/>
<path d="M210 44H213V47H210V44Z" fill="#BABABA"/>
<path d="M221 154H224V157H221V154Z" fill="#BABABA"/>
<path d="M221 44H224V47H221V44Z" fill="#BABABA"/>
<path d="M232 154H235V157H232V154Z" fill="#BABABA"/>
<path d="M232 44H235V47H232V44Z" fill="#BABABA"/>
<path d="M243 154H246V157H243V154Z" fill="#BABABA"/>
<path d="M243 44H246V47H243V44Z" fill="#BABABA"/>
<path d="M34 164H37V167H34V164Z" fill="#BABABA"/>
<path d="M34 54H37V57H34V54Z" fill="#BABABA"/>
<path d="M45 164H48V167H45V164Z" fill="#BABABA"/>
<path d="M45 54H48V57H45V54Z" fill="#BABABA"/>
<path d="M56 164H59V167H56V164Z" fill="#BABABA"/>
<path d="M56 54H59V57H56V54Z" fill="#BABABA"/>
<path d="M67 164H70V167H67V164Z" fill="#BABABA"/>
<path d="M67 54H70V57H67V54Z" fill="#BABABA"/>
<path d="M78 164H81V167H78V164Z" fill="#BABABA"/>
<path d="M78 54H81V57H78V54Z" fill="#BABABA"/>
<path d="M89 164H92V167H89V164Z" fill="#BABABA"/>
<path d="M89 54H92V57H89V54Z" fill="#BABABA"/>
<path d="M100 164H103V167H100V164Z" fill="#BABABA"/>
<path d="M100 54H103V57H100V54Z" fill="#BABABA"/>
<path d="M111 164H114V167H111V164Z" fill="#BABABA"/>
<path d="M111 54H114V57H111V54Z" fill="#BABABA"/>
<path d="M122 164H125V167H122V164Z" fill="#BABABA"/>
<path d="M122 54H125V57H122V54Z" fill="#BABABA"/>
<path d="M133 164H136V167H133V164Z" fill="#BABABA"/>
<path d="M133 54H136V57H133V54Z" fill="#BABABA"/>
<path d="M144 164H147V167H144V164Z" fill="#BABABA"/>
<path d="M144 54H147V57H144V54Z" fill="#BABABA"/>
<path d="M155 164H158V167H155V164Z" fill="#BABABA"/>
<path d="M155 54H158V57H155V54Z" fill="#BABABA"/>
<path d="M166 164H169V167H166V164Z" fill="#BABABA"/>
<path d="M166 54H169V57H166V54Z" fill="#BABABA"/>
<path d="M177 164H180V167H177V164Z" fill="#BABABA"/>
<path d="M177 54H180V57H177V54Z" fill="#BABABA"/>
<path d="M188 164H191V167H188V164Z" fill="#BABABA"/>
<path d="M188 54H191V57H188V54Z" fill="#BABABA"/>
<path d="M199 164H202V167H199V164Z" fill="#BABABA"/>
<path d="M199 54H202V57H199V54Z" fill="#BABABA"/>
<path d="M210 164H213V167H210V164Z" fill="#BABABA"/>
<path d="M210 54H213V57H210V54Z" fill="#BABABA"/>
<path d="M221 164H224V167H221V164Z" fill="#BABABA"/>
<path d="M221 54H224V57H221V54Z" fill="#BABABA"/>
<path d="M232 164H235V167H232V164Z" fill="#BABABA"/>
<path d="M232 54H235V57H232V54Z" fill="#BABABA"/>
<path d="M243 164H246V167H243V164Z" fill="#BABABA"/>
<path d="M243 54H246V57H243V54Z" fill="#BABABA"/>
<path d="M34 174H37V177H34V174Z" fill="#BABABA"/>
<path d="M34 64H37V67H34V64Z" fill="#BABABA"/>
<path d="M45 174H48V177H45V174Z" fill="#BABABA"/>
<path d="M45 64H48V67H45V64Z" fill="#BABABA"/>
<path d="M56 174H59V177H56V174Z" fill="#BABABA"/>
<path d="M56 64H59V67H56V64Z" fill="#BABABA"/>
<path d="M67 174H70V177H67V174Z" fill="#BABABA"/>
<path d="M67 64H70V67H67V64Z" fill="#BABABA"/>
<path d="M78 174H81V177H78V174Z" fill="#BABABA"/>
<path d="M78 64H81V67H78V64Z" fill="#BABABA"/>
<path d="M89 174H92V177H89V174Z" fill="#BABABA"/>
<path d="M89 64H92V67H89V64Z" fill="#BABABA"/>
<path d="M100 174H103V177H100V174Z" fill="#BABABA"/>
<path d="M100 64H103V67H100V64Z" fill="#BABABA"/>
<path d="M111 174H114V177H111V174Z" fill="#BABABA"/>
<path d="M111 64H114V67H111V64Z" fill="#BABABA"/>
<path d="M122 174H125V177H122V174Z" fill="#BABABA"/>
<path d="M122 64H125V67H122V64Z" fill="#BABABA"/>
<path d="M133 174H136V177H133V174Z" fill="#BABABA"/>
<path d="M133 64H136V67H133V64Z" fill="#BABABA"/>
<path d="M144 174H147V177H144V174Z" fill="#BABABA"/>
<path d="M144 64H147V67H144V64Z" fill="#BABABA"/>
<path d="M155 174H158V177H155V174Z" fill="#BABABA"/>
<path d="M155 64H158V67H155V64Z" fill="#BABABA"/>
<path d="M166 174H169V177H166V174Z" fill="#BABABA"/>
<path d="M166 64H169V67H166V64Z" fill="#BABABA"/>
<path d="M177 174H180V177H177V174Z" fill="#BABABA"/>
<path d="M177 64H180V67H177V64Z" fill="#BABABA"/>
<path d="M188 174H191V177H188V174Z" fill="#BABABA"/>
<path d="M188 64H191V67H188V64Z" fill="#BABABA"/>
<path d="M199 174H202V177H199V174Z" fill="#BABABA"/>
<path d="M199 64H202V67H199V64Z" fill="#BABABA"/>
<path d="M210 174H213V177H210V174Z" fill="#BABABA"/>
<path d="M210 64H213V67H210V64Z" fill="#BABABA"/>
<path d="M221 174H224V177H221V174Z" fill="#BABABA"/>
<path d="M221 64H224V67H221V64Z" fill="#BABABA"/>
<path d="M232 174H235V177H232V174Z" fill="#BABABA"/>
<path d="M232 64H235V67H232V64Z" fill="#BABABA"/>
<path d="M243 174H246V177H243V174Z" fill="#BABABA"/>
<path d="M243 64H246V67H243V64Z" fill="#BABABA"/>
<path d="M34 184H37V187H34V184Z" fill="#BABABA"/>
<path d="M34 74H37V77H34V74Z" fill="#BABABA"/>
<path d="M45 184H48V187H45V184Z" fill="#BABABA"/>
<path d="M45 74H48V77H45V74Z" fill="#BABABA"/>
<path d="M56 184H59V187H56V184Z" fill="#BABABA"/>
<path d="M56 74H59V77H56V74Z" fill="#BABABA"/>
<path d="M67 184H70V187H67V184Z" fill="#BABABA"/>
<path d="M67 74H70V77H67V74Z" fill="#BABABA"/>
<path d="M78 184H81V187H78V184Z" fill="#BABABA"/>
<path d="M78 74H81V77H78V74Z" fill="#BABABA"/>
<path d="M89 184H92V187H89V184Z" fill="#BABABA"/>
<path d="M89 74H92V77H89V74Z" fill="#BABABA"/>
<path d="M100 184H103V187H100V184Z" fill="#BABABA"/>
<path d="M100 74H103V77H100V74Z" fill="#BABABA"/>
<path d="M111 184H114V187H111V184Z" fill="#BABABA"/>
<path d="M111 74H114V77H111V74Z" fill="#BABABA"/>
<path d="M122 184H125V187H122V184Z" fill="#BABABA"/>
<path d="M122 74H125V77H122V74Z" fill="#BABABA"/>
<path d="M133 184H136V187H133V184Z" fill="#BABABA"/>
<path d="M133 74H136V77H133V74Z" fill="#BABABA"/>
<path d="M144 184H147V187H144V184Z" fill="#BABABA"/>
<path d="M144 74H147V77H144V74Z" fill="#BABABA"/>
<path d="M155 184H158V187H155V184Z" fill="#BABABA"/>
<path d="M155 74H158V77H155V74Z" fill="#BABABA"/>
<path d="M166 184H169V187H166V184Z" fill="#BABABA"/>
<path d="M166 74H169V77H166V74Z" fill="#BABABA"/>
<path d="M177 184H180V187H177V184Z" fill="#BABABA"/>
<path d="M177 74H180V77H177V74Z" fill="#BABABA"/>
<path d="M188 184H191V187H188V184Z" fill="#BABABA"/>
<path d="M188 74H191V77H188V74Z" fill="#BABABA"/>
<path d="M199 184H202V187H199V184Z" fill="#BABABA"/>
<path d="M199 74H202V77H199V74Z" fill="#BABABA"/>
<path d="M210 184H213V187H210V184Z" fill="#BABABA"/>
<path d="M210 74H213V77H210V74Z" fill="#BABABA"/>
<path d="M221 184H224V187H221V184Z" fill="#BABABA"/>
<path d="M221 74H224V77H221V74Z" fill="#BABABA"/>
<path d="M232 184H235V187H232V184Z" fill="#BABABA"/>
<path d="M232 74H235V77H232V74Z" fill="#BABABA"/>
<path d="M243 184H246V187H243V184Z" fill="#BABABA"/>
<path d="M243 74H246V77H243V74Z" fill="#BABABA"/>
<path d="M34 194H37V197H34V194Z" fill="#BABABA"/>
<path d="M34 84H37V87H34V84Z" fill="#BABABA"/>
<path d="M45 194H48V197H45V194Z" fill="#BABABA"/>
<path d="M45 84H48V87H45V84Z" fill="#BABABA"/>
<path d="M56 194H59V197H56V194Z" fill="#BABABA"/>
<path d="M56 84H59V87H56V84Z" fill="#BABABA"/>
<path d="M67 194H70V197H67V194Z" fill="#BABABA"/>
<path d="M67 84H70V87H67V84Z" fill="#BABABA"/>
<path d="M78 194H81V197H78V194Z" fill="#BABABA"/>
<path d="M78 84H81V87H78V84Z" fill="#BABABA"/>
<path d="M89 194H92V197H89V194Z" fill="#BABABA"/>
<path d="M89 84H92V87H89V84Z" fill="#BABABA"/>
<path d="M100 194H103V197H100V194Z" fill="#BABABA"/>
<path d="M100 84H103V87H100V84Z" fill="#BABABA"/>
<path d="M111 194H114V197H111V194Z" fill="#BABABA"/>
<path d="M111 84H114V87H111V84Z" fill="#BABABA"/>
<path d="M122 194H125V197H122V194Z" fill="#BABABA"/>
<path d="M122 84H125V87H122V84Z" fill="#BABABA"/>
<path d="M133 194H136V197H133V194Z" fill="#BABABA"/>
<path d="M133 84H136V87H133V84Z" fill="#BABABA"/>
<path d="M144 194H147V197H144V194Z" fill="#BABABA"/>
<path d="M144 84H147V87H144V84Z" fill="#BABABA"/>
<path d="M155 194H158V197H155V194Z" fill="#BABABA"/>
<path d="M155 84H158V87H155V84Z" fill="#BABABA"/>
<path d="M166 194H169V197H166V194Z" fill="#BABABA"/>
<path d="M166 84H169V87H166V84Z" fill="#BABABA"/>
<path d="M177 194H180V197H177V194Z" fill="#BABABA"/>
<path d="M177 84H180V87H177V84Z" fill="#BABABA"/>
<path d="M188 194H191V197H188V194Z" fill="#BABABA"/>
<path d="M188 84H191V87H188V84Z" fill="#BABABA"/>
<path d="M199 194H202V197H199V194Z" fill="#BABABA"/>
<path d="M199 84H202V87H199V84Z" fill="#BABABA"/>
<path d="M210 194H213V197H210V194Z" fill="#BABABA"/>
<path d="M210 84H213V87H210V84Z" fill="#BABABA"/>
<path d="M221 194H224V197H221V194Z" fill="#BABABA"/>
<path d="M221 84H224V87H221V84Z" fill="#BABABA"/>
<path d="M232 194H235V197H232V194Z" fill="#BABABA"/>
<path d="M232 84H235V87H232V84Z" fill="#BABABA"/>
<path d="M243 194H246V197H243V194Z" fill="#BABABA"/>
<path d="M243 84H246V87H243V84Z" fill="#BABABA"/>
<path d="M34 204H37V207H34V204Z" fill="#BABABA"/>
<path d="M34 94H37V97H34V94Z" fill="#BABABA"/>
<path d="M45 204H48V207H45V204Z" fill="#BABABA"/>
<path d="M45 94H48V97H45V94Z" fill="#BABABA"/>
<path d="M56 204H59V207H56V204Z" fill="#BABABA"/>
<path d="M56 94H59V97H56V94Z" fill="#BABABA"/>
<path d="M67 204H70V207H67V204Z" fill="#BABABA"/>
<path d="M67 94H70V97H67V94Z" fill="#BABABA"/>
<path d="M78 204H81V207H78V204Z" fill="#BABABA"/>
<path d="M78 94H81V97H78V94Z" fill="#BABABA"/>
<path d="M89 204H92V207H89V204Z" fill="#BABABA"/>
<path d="M89 94H92V97H89V94Z" fill="#BABABA"/>
<path d="M100 204H103V207H100V204Z" fill="#BABABA"/>
<path d="M100 94H103V97H100V94Z" fill="#BABABA"/>
<path d="M111 204H114V207H111V204Z" fill="#BABABA"/>
<path d="M111 94H114V97H111V94Z" fill="#BABABA"/>
<path d="M122 204H125V207H122V204Z" fill="#BABABA"/>
<path d="M122 94H125V97H122V94Z" fill="#BABABA"/>
<path d="M133 204H136V207H133V204Z" fill="#BABABA"/>
<path d="M133 94H136V97H133V94Z" fill="#BABABA"/>
<path d="M144 204H147V207H144V204Z" fill="#BABABA"/>
<path d="M144 94H147V97H144V94Z" fill="#BABABA"/>
<path d="M155 204H158V207H155V204Z" fill="#BABABA"/>
<path d="M155 94H158V97H155V94Z" fill="#BABABA"/>
<path d="M166 204H169V207H166V204Z" fill="#BABABA"/>
<path d="M166 94H169V97H166V94Z" fill="#BABABA"/>
<path d="M177 204H180V207H177V204Z" fill="#BABABA"/>
<path d="M177 94H180V97H177V94Z" fill="#BABABA"/>
<path d="M188 204H191V207H188V204Z" fill="#BABABA"/>
<path d="M188 94H191V97H188V94Z" fill="#BABABA"/>
<path d="M199 204H202V207H199V204Z" fill="#BABABA"/>
<path d="M199 94H202V97H199V94Z" fill="#BABABA"/>
<path d="M210 204H213V207H210V204Z" fill="#BABABA"/>
<path d="M210 94H213V97H210V94Z" fill="#BABABA"/>
<path d="M221 204H224V207H221V204Z" fill="#BABABA"/>
<path d="M221 94H224V97H221V94Z" fill="#BABABA"/>
<path d="M232 204H235V207H232V204Z" fill="#BABABA"/>
<path d="M232 94H235V97H232V94Z" fill="#BABABA"/>
<path d="M243 204H246V207H243V204Z" fill="#BABABA"/>
<path d="M243 94H246V97H243V94Z" fill="#BABABA"/>
<path d="M34 214H37V217H34V214Z" fill="#BABABA"/>
<path d="M34 104H37V107H34V104Z" fill="#BABABA"/>
<path d="M45 214H48V217H45V214Z" fill="#BABABA"/>
<path d="M45 104H48V107H45V104Z" fill="#BABABA"/>
<path d="M56 214H59V217H56V214Z" fill="#BABABA"/>
<path d="M56 104H59V107H56V104Z" fill="#BABABA"/>
<path d="M67 214H70V217H67V214Z" fill="#BABABA"/>
<path d="M67 104H70V107H67V104Z" fill="#BABABA"/>
<path d="M78 214H81V217H78V214Z" fill="#BABABA"/>
<path d="M78 104H81V107H78V104Z" fill="#BABABA"/>
<path d="M89 214H92V217H89V214Z" fill="#BABABA"/>
<path d="M89 104H92V107H89V104Z" fill="#BABABA"/>
<path d="M100 214H103V217H100V214Z" fill="#BABABA"/>
<path d="M100 104H103V107H100V104Z" fill="#BABABA"/>
<path d="M111 214H114V217H111V214Z" fill="#BABABA"/>
<path d="M111 104H114V107H111V104Z" fill="#BABABA"/>
<path d="M122 214H125V217H122V214Z" fill="#BABABA"/>
<path d="M122 104H125V107H122V104Z" fill="#BABABA"/>
<path d="M133 214H136V217H133V214Z" fill="#BABABA"/>
<path d="M133 104H136V107H133V104Z" fill="#BABABA"/>
<path d="M144 214H147V217H144V214Z" fill="#BABABA"/>
<path d="M144 104H147V107H144V104Z" fill="#BABABA"/>
<path d="M155 214H158V217H155V214Z" fill="#BABABA"/>
<path d="M155 104H158V107H155V104Z" fill="#BABABA"/>
<path d="M166 214H169V217H166V214Z" fill="#BABABA"/>
<path d="M166 104H169V107H166V104Z" fill="#BABABA"/>
<path d="M177 214H180V217H177V214Z" fill="#BABABA"/>
<path d="M177 104H180V107H177V104Z" fill="#BABABA"/>
<path d="M188 214H191V217H188V214Z" fill="#BABABA"/>
<path d="M188 104H191V107H188V104Z" fill="#BABABA"/>
<path d="M199 214H202V217H199V214Z" fill="#BABABA"/>
<path d="M199 104H202V107H199V104Z" fill="#BABABA"/>
<path d="M210 214H213V217H210V214Z" fill="#BABABA"/>
<path d="M210 104H213V107H210V104Z" fill="#BABABA"/>
<path d="M221 214H224V217H221V214Z" fill="#BABABA"/>
<path d="M221 104H224V107H221V104Z" fill="#BABABA"/>
<path d="M232 214H235V217H232V214Z" fill="#BABABA"/>
<path d="M232 104H235V107H232V104Z" fill="#BABABA"/>
<path d="M243 214H246V217H243V214Z" fill="#BABABA"/>
<path d="M243 104H246V107H243V104Z" fill="#BABABA"/>
<path d="M34 224H37V227H34V224Z" fill="#BABABA"/>
<path d="M34 114H37V117H34V114Z" fill="#BABABA"/>
<path d="M45 224H48V227H45V224Z" fill="#BABABA"/>
<path d="M45 114H48V117H45V114Z" fill="#BABABA"/>
<path d="M56 224H59V227H56V224Z" fill="#BABABA"/>
<path d="M56 114H59V117H56V114Z" fill="#BABABA"/>
<path d="M67 224H70V227H67V224Z" fill="#BABABA"/>
<path d="M67 114H70V117H67V114Z" fill="#BABABA"/>
<path d="M78 224H81V227H78V224Z" fill="#BABABA"/>
<path d="M78 114H81V117H78V114Z" fill="#BABABA"/>
<path d="M89 224H92V227H89V224Z" fill="#BABABA"/>
<path d="M89 114H92V117H89V114Z" fill="#BABABA"/>
<path d="M100 224H103V227H100V224Z" fill="#BABABA"/>
<path d="M100 114H103V117H100V114Z" fill="#BABABA"/>
<path d="M111 224H114V227H111V224Z" fill="#BABABA"/>
<path d="M111 114H114V117H111V114Z" fill="#BABABA"/>
<path d="M122 224H125V227H122V224Z" fill="#BABABA"/>
<path d="M122 114H125V117H122V114Z" fill="#BABABA"/>
<path d="M133 224H136V227H133V224Z" fill="#BABABA"/>
<path d="M133 114H136V117H133V114Z" fill="#BABABA"/>
<path d="M144 224H147V227H144V224Z" fill="#BABABA"/>
<path d="M144 114H147V117H144V114Z" fill="#BABABA"/>
<path d="M155 224H158V227H155V224Z" fill="#BABABA"/>
<path d="M155 114H158V117H155V114Z" fill="#BABABA"/>
<path d="M166 224H169V227H166V224Z" fill="#BABABA"/>
<path d="M166 114H169V117H166V114Z" fill="#BABABA"/>
<path d="M177 224H180V227H177V224Z" fill="#BABABA"/>
<path d="M177 114H180V117H177V114Z" fill="#BABABA"/>
<path d="M188 224H191V227H188V224Z" fill="#BABABA"/>
<path d="M188 114H191V117H188V114Z" fill="#BABABA"/>
<path d="M199 224H202V227H199V224Z" fill="#BABABA"/>
<path d="M199 114H202V117H199V114Z" fill="#BABABA"/>
<path d="M210 224H213V227H210V224Z" fill="#BABABA"/>
<path d="M210 114H213V117H210V114Z" fill="#BABABA"/>
<path d="M221 224H224V227H221V224Z" fill="#BABABA"/>
<path d="M221 114H224V117H221V114Z" fill="#BABABA"/>
<path d="M232 224H235V227H232V224Z" fill="#BABABA"/>
<path d="M232 114H235V117H232V114Z" fill="#BABABA"/>
<path d="M243 224H246V227H243V224Z" fill="#BABABA"/>
<path d="M243 114H246V117H243V114Z" fill="#BABABA"/>
<path d="M93.9901 200.25L325.89 200.25V34.91L93.9901 34.91L93.9901 200.25Z" fill="#E6E6E6"/>
<path d="M247.69 139.8H170.69V158.37H247.69V139.8Z" fill="white"/>
<path d="M184.56 151.57C185.836 151.57 186.87 150.536 186.87 149.26C186.87 147.984 185.836 146.95 184.56 146.95C183.284 146.95 182.25 147.984 182.25 149.26C182.25 150.536 183.284 151.57 184.56 151.57Z" fill="#475762"/>
<path d="M196.67 151.57C197.946 151.57 198.98 150.536 198.98 149.26C198.98 147.984 197.946 146.95 196.67 146.95C195.394 146.95 194.36 147.984 194.36 149.26C194.36 150.536 195.394 151.57 196.67 151.57Z" fill="#475762"/>
<path d="M209.58 151.57C210.856 151.57 211.89 150.536 211.89 149.26C211.89 147.984 210.856 146.95 209.58 146.95C208.304 146.95 207.27 147.984 207.27 149.26C207.27 150.536 208.304 151.57 209.58 151.57Z" fill="#475762"/>
<path d="M221.69 151.57C222.966 151.57 224 150.536 224 149.26C224 147.984 222.966 146.95 221.69 146.95C220.414 146.95 219.38 147.984 219.38 149.26C219.38 150.536 220.414 151.57 221.69 151.57Z" fill="#475762"/>
<path d="M233.81 151.57C235.086 151.57 236.12 150.536 236.12 149.26C236.12 147.984 235.086 146.95 233.81 146.95C232.534 146.95 231.5 147.984 231.5 149.26C231.5 150.536 232.534 151.57 233.81 151.57Z" fill="#475762"/>
<path opacity="0.4" d="M238.21 80.96H179.36V121.85H238.21V80.96Z" fill="#A5A5A5"/>
<path opacity="0.45" d="M208.79 273.45C294.56 273.45 364.09 268.368 364.09 262.1C364.09 255.832 294.56 250.75 208.79 250.75C123.02 250.75 53.49 255.832 53.49 262.1C53.49 268.368 123.02 273.45 208.79 273.45Z" fill="#E6E6E6"/>
<path d="M110.77 52.1898C113.443 52.1898 115.61 50.0228 115.61 47.3498C115.61 44.6767 113.443 42.5098 110.77 42.5098C108.097 42.5098 105.93 44.6767 105.93 47.3498C105.93 50.0228 108.097 52.1898 110.77 52.1898Z" fill="#475762"/>
<path d="M125.17 52.1898C127.843 52.1898 130.01 50.0228 130.01 47.3498C130.01 44.6767 127.843 42.5098 125.17 42.5098C122.497 42.5098 120.33 44.6767 120.33 47.3498C120.33 50.0228 122.497 52.1898 125.17 52.1898Z" fill="#FD6F55"/>
<path d="M138.74 52.1898C141.413 52.1898 143.58 50.0228 143.58 47.3498C143.58 44.6767 141.413 42.5098 138.74 42.5098C136.067 42.5098 133.9 44.6767 133.9 47.3498C133.9 50.0228 136.067 52.1898 138.74 52.1898Z" fill="#FFD200"/>
<path d="M231.05 80.9999H224.17V77.4299C224.17 73.3509 222.55 69.4389 219.665 66.5546C216.781 63.6703 212.869 62.0499 208.79 62.0499C204.711 62.0499 200.799 63.6703 197.915 66.5546C195.03 69.4389 193.41 73.3509 193.41 77.4299V80.9999H186.53V77.4299C186.53 71.5262 188.875 65.8643 193.05 61.6897C197.224 57.5152 202.886 55.1699 208.79 55.1699C214.694 55.1699 220.356 57.5152 224.53 61.6897C228.705 65.8643 231.05 71.5262 231.05 77.4299V80.9999Z" fill="white"/>
<path d="M209.55 100.13C212.731 100.13 215.31 97.551 215.31 94.3699C215.31 91.1887 212.731 88.6099 209.55 88.6099C206.369 88.6099 203.79 91.1887 203.79 94.3699C203.79 97.551 206.369 100.13 209.55 100.13Z" fill="#A5A5A5"/>
<path d="M213.02 97.3301H206.71V112.68H213.02V97.3301Z" fill="#A5A5A5"/>
<path d="M224.57 168.46H193.01V184.15H224.57V168.46Z" fill="#475762"/>
<path opacity="0.13" d="M221.18 171.1H210.15V176.3H221.18V171.1Z" fill="white"/>
<path opacity="0.58" d="M319.18 244.75C319.18 244.75 307.6 241.64 305 230.88C305 230.88 322.91 227.18 323.5 245.68L319.18 244.75Z" fill="#6EC1B1"/>
<path opacity="0.73" d="M320.6 243.59C320.6 243.59 312.46 230.85 319.53 218.86C319.53 218.86 333.2 227.47 327.21 243.59H320.6Z" fill="#6EC1B1"/>
<path d="M322.68 243.59C322.68 243.59 326.9 230.08 339.8 227.47C339.8 227.47 342.26 236.22 331.51 243.59H322.68Z" fill="#6EC1B1"/>
<path d="M314.29 243.33L316.7 259.37H331.48L333.59 243.33H314.29Z" fill="#475762"/>
<path opacity="0.08" d="M314.55 56.9102H269V96.8801H314.55V56.9102Z" fill="black"/>
<path d="M364.53 51H269V90.97H364.53V51Z" fill="#1A78ED"/>
<path d="M311.54 59.6699H279.84V79.9799H311.54V59.6699Z" fill="white"/>
<path d="M279.84 59.6699L295.68 74.4999L311.53 59.6699H279.84Z" fill="#475762"/>
<path d="M352.37 61.8301H323.2V67.8301H352.37V61.8301Z" fill="white"/>
<path opacity="0.46" d="M352.37 71.5H323.2V77.5H352.37V71.5Z" fill="white"/>
<path opacity="0.08" d="M108.55 115.5H56V155.47H108.55V115.5Z" fill="black"/>
<path d="M151.53 110H56V149.97H151.53V110Z" fill="#6EC1B1"/>
<path d="M137.73 120.99H106.12V126.99H137.73V120.99Z" fill="white"/>
<path opacity="0.46" d="M137.73 130.66H106.12V136.66H137.73V130.66Z" fill="white"/>
<path d="M82.4199 144.46C90.5882 144.46 97.2099 137.838 97.2099 129.67C97.2099 121.502 90.5882 114.88 82.4199 114.88C74.2516 114.88 67.6299 121.502 67.6299 129.67C67.6299 137.838 74.2516 144.46 82.4199 144.46Z" fill="#475762"/>
<path d="M82.7801 131.63C85.9171 131.63 88.4601 129.087 88.4601 125.95C88.4601 122.813 85.9171 120.27 82.7801 120.27C79.6431 120.27 77.1001 122.813 77.1001 125.95C77.1001 129.087 79.6431 131.63 82.7801 131.63Z" fill="white"/>
<path opacity="0.24" d="M72.49 140.65C72.49 140.65 73.72 131.97 82.4 131.52C91.6 131.05 92.31 140.65 92.31 140.65C89.5922 143.103 86.0612 144.461 82.4 144.461C78.7388 144.461 75.2078 143.103 72.49 140.65Z" fill="white"/>
</svg>
