<svg width="122" height="91" viewBox="0 0 122 91" fill="none" xmlns="http://www.w3.org/2000/svg">
<path d="M14.1534 72.1618C15.1456 71.4267 16.561 71.7592 17.124 72.8597L21.7128 81.8287C22.489 83.346 21.136 85.0759 19.4777 84.6863L6.8023 81.7085C5.14399 81.3189 4.69869 79.1664 6.06671 78.1529L14.1534 72.1618Z" fill="#6EC1B1"/>
<path d="M98.3187 20.8103L98.3176 20.8098L105.03 24.6133L101.243 31.327C100.931 31.8796 101.117 32.5946 101.668 32.907L102.527 33.3937C103.079 33.706 103.788 33.4981 104.099 32.9456L107.887 26.2318L114.599 30.0353C115.151 30.3475 115.851 30.155 116.163 29.6023L116.651 28.7367C116.963 28.1844 116.765 27.4854 116.214 27.1731L109.501 23.3695L113.303 16.6315C113.614 16.0792 113.413 15.3874 112.861 15.0749L112.002 14.5883C111.451 14.2758 110.757 14.4609 110.446 15.0129L106.645 21.751L99.9333 17.9481C99.3819 17.6357 98.6814 17.826 98.3699 18.3781L97.8816 19.2437C97.5698 19.7964 97.7672 20.4979 98.3187 20.8103Z" fill="#FD6F55"/>
<path d="M57.0665 11.158L57.0654 11.1574L63.7781 14.9609L59.9907 21.6747C59.679 22.2272 59.8649 22.9422 60.4163 23.2547L61.2752 23.7413C61.8265 24.0537 62.5355 23.8458 62.8472 23.2932L66.6347 16.5795L73.3472 20.3829C73.8984 20.6952 74.5991 20.5026 74.9109 19.9499L75.3992 19.0843C75.7108 18.5321 75.5132 17.8331 74.9619 17.5207L68.2492 13.7172L72.0503 6.97915C72.3619 6.4269 72.1606 5.73504 71.6092 5.4226L70.7503 4.93592C70.1988 4.62348 69.5053 4.80851 69.1938 5.3606L65.3927 12.0986L58.6811 8.2958C58.1297 7.98336 57.4292 8.17371 57.1177 8.7258L56.6294 9.5914C56.3176 10.1441 56.515 10.8456 57.0665 11.158Z" fill="#FFC854"/>
</svg>
