<svg width="80" height="72" viewBox="0 0 80 72" fill="none" xmlns="http://www.w3.org/2000/svg">
<path d="M70.6675 60.3089C70.7669 61.5403 69.7407 62.5671 68.512 62.4656L58.4905 61.6381C56.7938 61.4979 56.0382 59.4314 57.243 58.2259L66.4539 49.0095C67.6587 47.804 69.7197 48.5643 69.8569 50.2649L70.6675 60.3089Z" fill="#FFD67E"/>
<path d="M14.5 50.772C21.4036 50.772 27 45.1637 27 38.2455C27 31.3273 21.4036 25.719 14.5 25.719C7.59644 25.719 2 31.3273 2 38.2455C2 45.1637 7.59644 50.772 14.5 50.772Z" stroke="#FD6F55" stroke-width="3"/>
<ellipse rx="6.5" ry="6.51379" transform="matrix(1 0 0 -1 47.5 7.17982)" fill="#6EC1B1"/>
</svg>
