<svg width="338" height="265" viewBox="0 0 338 265" fill="none" xmlns="http://www.w3.org/2000/svg">
<path d="M6 117H9V120H6V117Z" fill="#BABABA"/>
<path d="M6 7H9V10H6V7Z" fill="#BABABA"/>
<path d="M17 117H20V120H17V117Z" fill="#BABABA"/>
<path d="M17 7H20V10H17V7Z" fill="#BABABA"/>
<path d="M28 117H31V120H28V117Z" fill="#BABABA"/>
<path d="M28 7H31V10H28V7Z" fill="#BABABA"/>
<path d="M39 117H42V120H39V117Z" fill="#BABABA"/>
<path d="M39 7H42V10H39V7Z" fill="#BABABA"/>
<path d="M50 117H53V120H50V117Z" fill="#BABABA"/>
<path d="M50 7H53V10H50V7Z" fill="#BABABA"/>
<path d="M61 117H64V120H61V117Z" fill="#BABABA"/>
<path d="M61 7H64V10H61V7Z" fill="#BABABA"/>
<path d="M72 117H75V120H72V117Z" fill="#BABABA"/>
<path d="M72 7H75V10H72V7Z" fill="#BABABA"/>
<path d="M83 117H86V120H83V117Z" fill="#BABABA"/>
<path d="M83 7H86V10H83V7Z" fill="#BABABA"/>
<path d="M94 117H97V120H94V117Z" fill="#BABABA"/>
<path d="M94 7H97V10H94V7Z" fill="#BABABA"/>
<path d="M105 117H108V120H105V117Z" fill="#BABABA"/>
<path d="M105 7H108V10H105V7Z" fill="#BABABA"/>
<path d="M116 117H119V120H116V117Z" fill="#BABABA"/>
<path d="M116 7H119V10H116V7Z" fill="#BABABA"/>
<path d="M127 117H130V120H127V117Z" fill="#BABABA"/>
<path d="M127 7H130V10H127V7Z" fill="#BABABA"/>
<path d="M138 117H141V120H138V117Z" fill="#BABABA"/>
<path d="M138 7H141V10H138V7Z" fill="#BABABA"/>
<path d="M149 117H152V120H149V117Z" fill="#BABABA"/>
<path d="M149 7H152V10H149V7Z" fill="#BABABA"/>
<path d="M160 117H163V120H160V117Z" fill="#BABABA"/>
<path d="M160 7H163V10H160V7Z" fill="#BABABA"/>
<path d="M171 117H174V120H171V117Z" fill="#BABABA"/>
<path d="M171 7H174V10H171V7Z" fill="#BABABA"/>
<path d="M182 117H185V120H182V117Z" fill="#BABABA"/>
<path d="M182 7H185V10H182V7Z" fill="#BABABA"/>
<path d="M193 117H196V120H193V117Z" fill="#BABABA"/>
<path d="M193 7H196V10H193V7Z" fill="#BABABA"/>
<path d="M204 117H207V120H204V117Z" fill="#BABABA"/>
<path d="M204 7H207V10H204V7Z" fill="#BABABA"/>
<path d="M215 117H218V120H215V117Z" fill="#BABABA"/>
<path d="M215 7H218V10H215V7Z" fill="#BABABA"/>
<path d="M6 127H9V130H6V127Z" fill="#BABABA"/>
<path d="M6 17H9V20H6V17Z" fill="#BABABA"/>
<path d="M17 127H20V130H17V127Z" fill="#BABABA"/>
<path d="M17 17H20V20H17V17Z" fill="#BABABA"/>
<path d="M28 127H31V130H28V127Z" fill="#BABABA"/>
<path d="M28 17H31V20H28V17Z" fill="#BABABA"/>
<path d="M39 127H42V130H39V127Z" fill="#BABABA"/>
<path d="M39 17H42V20H39V17Z" fill="#BABABA"/>
<path d="M50 127H53V130H50V127Z" fill="#BABABA"/>
<path d="M50 17H53V20H50V17Z" fill="#BABABA"/>
<path d="M61 127H64V130H61V127Z" fill="#BABABA"/>
<path d="M61 17H64V20H61V17Z" fill="#BABABA"/>
<path d="M72 127H75V130H72V127Z" fill="#BABABA"/>
<path d="M72 17H75V20H72V17Z" fill="#BABABA"/>
<path d="M83 127H86V130H83V127Z" fill="#BABABA"/>
<path d="M83 17H86V20H83V17Z" fill="#BABABA"/>
<path d="M94 127H97V130H94V127Z" fill="#BABABA"/>
<path d="M94 17H97V20H94V17Z" fill="#BABABA"/>
<path d="M105 127H108V130H105V127Z" fill="#BABABA"/>
<path d="M105 17H108V20H105V17Z" fill="#BABABA"/>
<path d="M116 127H119V130H116V127Z" fill="#BABABA"/>
<path d="M116 17H119V20H116V17Z" fill="#BABABA"/>
<path d="M127 127H130V130H127V127Z" fill="#BABABA"/>
<path d="M127 17H130V20H127V17Z" fill="#BABABA"/>
<path d="M138 127H141V130H138V127Z" fill="#BABABA"/>
<path d="M138 17H141V20H138V17Z" fill="#BABABA"/>
<path d="M149 127H152V130H149V127Z" fill="#BABABA"/>
<path d="M149 17H152V20H149V17Z" fill="#BABABA"/>
<path d="M160 127H163V130H160V127Z" fill="#BABABA"/>
<path d="M160 17H163V20H160V17Z" fill="#BABABA"/>
<path d="M171 127H174V130H171V127Z" fill="#BABABA"/>
<path d="M171 17H174V20H171V17Z" fill="#BABABA"/>
<path d="M182 127H185V130H182V127Z" fill="#BABABA"/>
<path d="M182 17H185V20H182V17Z" fill="#BABABA"/>
<path d="M193 127H196V130H193V127Z" fill="#BABABA"/>
<path d="M193 17H196V20H193V17Z" fill="#BABABA"/>
<path d="M204 127H207V130H204V127Z" fill="#BABABA"/>
<path d="M204 17H207V20H204V17Z" fill="#BABABA"/>
<path d="M215 127H218V130H215V127Z" fill="#BABABA"/>
<path d="M215 17H218V20H215V17Z" fill="#BABABA"/>
<path d="M6 137H9V140H6V137Z" fill="#BABABA"/>
<path d="M6 27H9V30H6V27Z" fill="#BABABA"/>
<path d="M17 137H20V140H17V137Z" fill="#BABABA"/>
<path d="M17 27H20V30H17V27Z" fill="#BABABA"/>
<path d="M28 137H31V140H28V137Z" fill="#BABABA"/>
<path d="M28 27H31V30H28V27Z" fill="#BABABA"/>
<path d="M39 137H42V140H39V137Z" fill="#BABABA"/>
<path d="M39 27H42V30H39V27Z" fill="#BABABA"/>
<path d="M50 137H53V140H50V137Z" fill="#BABABA"/>
<path d="M50 27H53V30H50V27Z" fill="#BABABA"/>
<path d="M61 137H64V140H61V137Z" fill="#BABABA"/>
<path d="M61 27H64V30H61V27Z" fill="#BABABA"/>
<path d="M72 137H75V140H72V137Z" fill="#BABABA"/>
<path d="M72 27H75V30H72V27Z" fill="#BABABA"/>
<path d="M83 137H86V140H83V137Z" fill="#BABABA"/>
<path d="M83 27H86V30H83V27Z" fill="#BABABA"/>
<path d="M94 137H97V140H94V137Z" fill="#BABABA"/>
<path d="M94 27H97V30H94V27Z" fill="#BABABA"/>
<path d="M105 137H108V140H105V137Z" fill="#BABABA"/>
<path d="M105 27H108V30H105V27Z" fill="#BABABA"/>
<path d="M116 137H119V140H116V137Z" fill="#BABABA"/>
<path d="M116 27H119V30H116V27Z" fill="#BABABA"/>
<path d="M127 137H130V140H127V137Z" fill="#BABABA"/>
<path d="M127 27H130V30H127V27Z" fill="#BABABA"/>
<path d="M138 137H141V140H138V137Z" fill="#BABABA"/>
<path d="M138 27H141V30H138V27Z" fill="#BABABA"/>
<path d="M149 137H152V140H149V137Z" fill="#BABABA"/>
<path d="M149 27H152V30H149V27Z" fill="#BABABA"/>
<path d="M160 137H163V140H160V137Z" fill="#BABABA"/>
<path d="M160 27H163V30H160V27Z" fill="#BABABA"/>
<path d="M171 137H174V140H171V137Z" fill="#BABABA"/>
<path d="M171 27H174V30H171V27Z" fill="#BABABA"/>
<path d="M182 137H185V140H182V137Z" fill="#BABABA"/>
<path d="M182 27H185V30H182V27Z" fill="#BABABA"/>
<path d="M193 137H196V140H193V137Z" fill="#BABABA"/>
<path d="M193 27H196V30H193V27Z" fill="#BABABA"/>
<path d="M204 137H207V140H204V137Z" fill="#BABABA"/>
<path d="M204 27H207V30H204V27Z" fill="#BABABA"/>
<path d="M215 137H218V140H215V137Z" fill="#BABABA"/>
<path d="M215 27H218V30H215V27Z" fill="#BABABA"/>
<path d="M6 147H9V150H6V147Z" fill="#BABABA"/>
<path d="M6 37H9V40H6V37Z" fill="#BABABA"/>
<path d="M17 147H20V150H17V147Z" fill="#BABABA"/>
<path d="M17 37H20V40H17V37Z" fill="#BABABA"/>
<path d="M28 147H31V150H28V147Z" fill="#BABABA"/>
<path d="M28 37H31V40H28V37Z" fill="#BABABA"/>
<path d="M39 147H42V150H39V147Z" fill="#BABABA"/>
<path d="M39 37H42V40H39V37Z" fill="#BABABA"/>
<path d="M50 147H53V150H50V147Z" fill="#BABABA"/>
<path d="M50 37H53V40H50V37Z" fill="#BABABA"/>
<path d="M61 147H64V150H61V147Z" fill="#BABABA"/>
<path d="M61 37H64V40H61V37Z" fill="#BABABA"/>
<path d="M72 147H75V150H72V147Z" fill="#BABABA"/>
<path d="M72 37H75V40H72V37Z" fill="#BABABA"/>
<path d="M83 147H86V150H83V147Z" fill="#BABABA"/>
<path d="M83 37H86V40H83V37Z" fill="#BABABA"/>
<path d="M94 147H97V150H94V147Z" fill="#BABABA"/>
<path d="M94 37H97V40H94V37Z" fill="#BABABA"/>
<path d="M105 147H108V150H105V147Z" fill="#BABABA"/>
<path d="M105 37H108V40H105V37Z" fill="#BABABA"/>
<path d="M116 147H119V150H116V147Z" fill="#BABABA"/>
<path d="M116 37H119V40H116V37Z" fill="#BABABA"/>
<path d="M127 147H130V150H127V147Z" fill="#BABABA"/>
<path d="M127 37H130V40H127V37Z" fill="#BABABA"/>
<path d="M138 147H141V150H138V147Z" fill="#BABABA"/>
<path d="M138 37H141V40H138V37Z" fill="#BABABA"/>
<path d="M149 147H152V150H149V147Z" fill="#BABABA"/>
<path d="M149 37H152V40H149V37Z" fill="#BABABA"/>
<path d="M160 147H163V150H160V147Z" fill="#BABABA"/>
<path d="M160 37H163V40H160V37Z" fill="#BABABA"/>
<path d="M171 147H174V150H171V147Z" fill="#BABABA"/>
<path d="M171 37H174V40H171V37Z" fill="#BABABA"/>
<path d="M182 147H185V150H182V147Z" fill="#BABABA"/>
<path d="M182 37H185V40H182V37Z" fill="#BABABA"/>
<path d="M193 147H196V150H193V147Z" fill="#BABABA"/>
<path d="M193 37H196V40H193V37Z" fill="#BABABA"/>
<path d="M204 147H207V150H204V147Z" fill="#BABABA"/>
<path d="M204 37H207V40H204V37Z" fill="#BABABA"/>
<path d="M215 147H218V150H215V147Z" fill="#BABABA"/>
<path d="M215 37H218V40H215V37Z" fill="#BABABA"/>
<path d="M6 157H9V160H6V157Z" fill="#BABABA"/>
<path d="M6 47H9V50H6V47Z" fill="#BABABA"/>
<path d="M17 157H20V160H17V157Z" fill="#BABABA"/>
<path d="M17 47H20V50H17V47Z" fill="#BABABA"/>
<path d="M28 157H31V160H28V157Z" fill="#BABABA"/>
<path d="M28 47H31V50H28V47Z" fill="#BABABA"/>
<path d="M39 157H42V160H39V157Z" fill="#BABABA"/>
<path d="M39 47H42V50H39V47Z" fill="#BABABA"/>
<path d="M50 157H53V160H50V157Z" fill="#BABABA"/>
<path d="M50 47H53V50H50V47Z" fill="#BABABA"/>
<path d="M61 157H64V160H61V157Z" fill="#BABABA"/>
<path d="M61 47H64V50H61V47Z" fill="#BABABA"/>
<path d="M72 157H75V160H72V157Z" fill="#BABABA"/>
<path d="M72 47H75V50H72V47Z" fill="#BABABA"/>
<path d="M83 157H86V160H83V157Z" fill="#BABABA"/>
<path d="M83 47H86V50H83V47Z" fill="#BABABA"/>
<path d="M94 157H97V160H94V157Z" fill="#BABABA"/>
<path d="M94 47H97V50H94V47Z" fill="#BABABA"/>
<path d="M105 157H108V160H105V157Z" fill="#BABABA"/>
<path d="M105 47H108V50H105V47Z" fill="#BABABA"/>
<path d="M116 157H119V160H116V157Z" fill="#BABABA"/>
<path d="M116 47H119V50H116V47Z" fill="#BABABA"/>
<path d="M127 157H130V160H127V157Z" fill="#BABABA"/>
<path d="M127 47H130V50H127V47Z" fill="#BABABA"/>
<path d="M138 157H141V160H138V157Z" fill="#BABABA"/>
<path d="M138 47H141V50H138V47Z" fill="#BABABA"/>
<path d="M149 157H152V160H149V157Z" fill="#BABABA"/>
<path d="M149 47H152V50H149V47Z" fill="#BABABA"/>
<path d="M160 157H163V160H160V157Z" fill="#BABABA"/>
<path d="M160 47H163V50H160V47Z" fill="#BABABA"/>
<path d="M171 157H174V160H171V157Z" fill="#BABABA"/>
<path d="M171 47H174V50H171V47Z" fill="#BABABA"/>
<path d="M182 157H185V160H182V157Z" fill="#BABABA"/>
<path d="M182 47H185V50H182V47Z" fill="#BABABA"/>
<path d="M193 157H196V160H193V157Z" fill="#BABABA"/>
<path d="M193 47H196V50H193V47Z" fill="#BABABA"/>
<path d="M204 157H207V160H204V157Z" fill="#BABABA"/>
<path d="M204 47H207V50H204V47Z" fill="#BABABA"/>
<path d="M215 157H218V160H215V157Z" fill="#BABABA"/>
<path d="M215 47H218V50H215V47Z" fill="#BABABA"/>
<path d="M6 167H9V170H6V167Z" fill="#BABABA"/>
<path d="M6 57H9V60H6V57Z" fill="#BABABA"/>
<path d="M17 167H20V170H17V167Z" fill="#BABABA"/>
<path d="M17 57H20V60H17V57Z" fill="#BABABA"/>
<path d="M28 167H31V170H28V167Z" fill="#BABABA"/>
<path d="M28 57H31V60H28V57Z" fill="#BABABA"/>
<path d="M39 167H42V170H39V167Z" fill="#BABABA"/>
<path d="M39 57H42V60H39V57Z" fill="#BABABA"/>
<path d="M50 167H53V170H50V167Z" fill="#BABABA"/>
<path d="M50 57H53V60H50V57Z" fill="#BABABA"/>
<path d="M61 167H64V170H61V167Z" fill="#BABABA"/>
<path d="M61 57H64V60H61V57Z" fill="#BABABA"/>
<path d="M72 167H75V170H72V167Z" fill="#BABABA"/>
<path d="M72 57H75V60H72V57Z" fill="#BABABA"/>
<path d="M83 167H86V170H83V167Z" fill="#BABABA"/>
<path d="M83 57H86V60H83V57Z" fill="#BABABA"/>
<path d="M94 167H97V170H94V167Z" fill="#BABABA"/>
<path d="M94 57H97V60H94V57Z" fill="#BABABA"/>
<path d="M105 167H108V170H105V167Z" fill="#BABABA"/>
<path d="M105 57H108V60H105V57Z" fill="#BABABA"/>
<path d="M116 167H119V170H116V167Z" fill="#BABABA"/>
<path d="M116 57H119V60H116V57Z" fill="#BABABA"/>
<path d="M127 167H130V170H127V167Z" fill="#BABABA"/>
<path d="M127 57H130V60H127V57Z" fill="#BABABA"/>
<path d="M138 167H141V170H138V167Z" fill="#BABABA"/>
<path d="M138 57H141V60H138V57Z" fill="#BABABA"/>
<path d="M149 167H152V170H149V167Z" fill="#BABABA"/>
<path d="M149 57H152V60H149V57Z" fill="#BABABA"/>
<path d="M160 167H163V170H160V167Z" fill="#BABABA"/>
<path d="M160 57H163V60H160V57Z" fill="#BABABA"/>
<path d="M171 167H174V170H171V167Z" fill="#BABABA"/>
<path d="M171 57H174V60H171V57Z" fill="#BABABA"/>
<path d="M182 167H185V170H182V167Z" fill="#BABABA"/>
<path d="M182 57H185V60H182V57Z" fill="#BABABA"/>
<path d="M193 167H196V170H193V167Z" fill="#BABABA"/>
<path d="M193 57H196V60H193V57Z" fill="#BABABA"/>
<path d="M204 167H207V170H204V167Z" fill="#BABABA"/>
<path d="M204 57H207V60H204V57Z" fill="#BABABA"/>
<path d="M215 167H218V170H215V167Z" fill="#BABABA"/>
<path d="M215 57H218V60H215V57Z" fill="#BABABA"/>
<path d="M6 177H9V180H6V177Z" fill="#BABABA"/>
<path d="M6 67H9V70H6V67Z" fill="#BABABA"/>
<path d="M17 177H20V180H17V177Z" fill="#BABABA"/>
<path d="M17 67H20V70H17V67Z" fill="#BABABA"/>
<path d="M28 177H31V180H28V177Z" fill="#BABABA"/>
<path d="M28 67H31V70H28V67Z" fill="#BABABA"/>
<path d="M39 177H42V180H39V177Z" fill="#BABABA"/>
<path d="M39 67H42V70H39V67Z" fill="#BABABA"/>
<path d="M50 177H53V180H50V177Z" fill="#BABABA"/>
<path d="M50 67H53V70H50V67Z" fill="#BABABA"/>
<path d="M61 177H64V180H61V177Z" fill="#BABABA"/>
<path d="M61 67H64V70H61V67Z" fill="#BABABA"/>
<path d="M72 177H75V180H72V177Z" fill="#BABABA"/>
<path d="M72 67H75V70H72V67Z" fill="#BABABA"/>
<path d="M83 177H86V180H83V177Z" fill="#BABABA"/>
<path d="M83 67H86V70H83V67Z" fill="#BABABA"/>
<path d="M94 177H97V180H94V177Z" fill="#BABABA"/>
<path d="M94 67H97V70H94V67Z" fill="#BABABA"/>
<path d="M105 177H108V180H105V177Z" fill="#BABABA"/>
<path d="M105 67H108V70H105V67Z" fill="#BABABA"/>
<path d="M116 177H119V180H116V177Z" fill="#BABABA"/>
<path d="M116 67H119V70H116V67Z" fill="#BABABA"/>
<path d="M127 177H130V180H127V177Z" fill="#BABABA"/>
<path d="M127 67H130V70H127V67Z" fill="#BABABA"/>
<path d="M138 177H141V180H138V177Z" fill="#BABABA"/>
<path d="M138 67H141V70H138V67Z" fill="#BABABA"/>
<path d="M149 177H152V180H149V177Z" fill="#BABABA"/>
<path d="M149 67H152V70H149V67Z" fill="#BABABA"/>
<path d="M160 177H163V180H160V177Z" fill="#BABABA"/>
<path d="M160 67H163V70H160V67Z" fill="#BABABA"/>
<path d="M171 177H174V180H171V177Z" fill="#BABABA"/>
<path d="M171 67H174V70H171V67Z" fill="#BABABA"/>
<path d="M182 177H185V180H182V177Z" fill="#BABABA"/>
<path d="M182 67H185V70H182V67Z" fill="#BABABA"/>
<path d="M193 177H196V180H193V177Z" fill="#BABABA"/>
<path d="M193 67H196V70H193V67Z" fill="#BABABA"/>
<path d="M204 177H207V180H204V177Z" fill="#BABABA"/>
<path d="M204 67H207V70H204V67Z" fill="#BABABA"/>
<path d="M215 177H218V180H215V177Z" fill="#BABABA"/>
<path d="M215 67H218V70H215V67Z" fill="#BABABA"/>
<path d="M6 187H9V190H6V187Z" fill="#BABABA"/>
<path d="M6 77H9V80H6V77Z" fill="#BABABA"/>
<path d="M17 187H20V190H17V187Z" fill="#BABABA"/>
<path d="M17 77H20V80H17V77Z" fill="#BABABA"/>
<path d="M28 187H31V190H28V187Z" fill="#BABABA"/>
<path d="M28 77H31V80H28V77Z" fill="#BABABA"/>
<path d="M39 187H42V190H39V187Z" fill="#BABABA"/>
<path d="M39 77H42V80H39V77Z" fill="#BABABA"/>
<path d="M50 187H53V190H50V187Z" fill="#BABABA"/>
<path d="M50 77H53V80H50V77Z" fill="#BABABA"/>
<path d="M61 187H64V190H61V187Z" fill="#BABABA"/>
<path d="M61 77H64V80H61V77Z" fill="#BABABA"/>
<path d="M72 187H75V190H72V187Z" fill="#BABABA"/>
<path d="M72 77H75V80H72V77Z" fill="#BABABA"/>
<path d="M83 187H86V190H83V187Z" fill="#BABABA"/>
<path d="M83 77H86V80H83V77Z" fill="#BABABA"/>
<path d="M94 187H97V190H94V187Z" fill="#BABABA"/>
<path d="M94 77H97V80H94V77Z" fill="#BABABA"/>
<path d="M105 187H108V190H105V187Z" fill="#BABABA"/>
<path d="M105 77H108V80H105V77Z" fill="#BABABA"/>
<path d="M116 187H119V190H116V187Z" fill="#BABABA"/>
<path d="M116 77H119V80H116V77Z" fill="#BABABA"/>
<path d="M127 187H130V190H127V187Z" fill="#BABABA"/>
<path d="M127 77H130V80H127V77Z" fill="#BABABA"/>
<path d="M138 187H141V190H138V187Z" fill="#BABABA"/>
<path d="M138 77H141V80H138V77Z" fill="#BABABA"/>
<path d="M149 187H152V190H149V187Z" fill="#BABABA"/>
<path d="M149 77H152V80H149V77Z" fill="#BABABA"/>
<path d="M160 187H163V190H160V187Z" fill="#BABABA"/>
<path d="M160 77H163V80H160V77Z" fill="#BABABA"/>
<path d="M171 187H174V190H171V187Z" fill="#BABABA"/>
<path d="M171 77H174V80H171V77Z" fill="#BABABA"/>
<path d="M182 187H185V190H182V187Z" fill="#BABABA"/>
<path d="M182 77H185V80H182V77Z" fill="#BABABA"/>
<path d="M193 187H196V190H193V187Z" fill="#BABABA"/>
<path d="M193 77H196V80H193V77Z" fill="#BABABA"/>
<path d="M204 187H207V190H204V187Z" fill="#BABABA"/>
<path d="M204 77H207V80H204V77Z" fill="#BABABA"/>
<path d="M215 187H218V190H215V187Z" fill="#BABABA"/>
<path d="M215 77H218V80H215V77Z" fill="#BABABA"/>
<path d="M6 197H9V200H6V197Z" fill="#BABABA"/>
<path d="M6 87H9V90H6V87Z" fill="#BABABA"/>
<path d="M17 197H20V200H17V197Z" fill="#BABABA"/>
<path d="M17 87H20V90H17V87Z" fill="#BABABA"/>
<path d="M28 197H31V200H28V197Z" fill="#BABABA"/>
<path d="M28 87H31V90H28V87Z" fill="#BABABA"/>
<path d="M39 197H42V200H39V197Z" fill="#BABABA"/>
<path d="M39 87H42V90H39V87Z" fill="#BABABA"/>
<path d="M50 197H53V200H50V197Z" fill="#BABABA"/>
<path d="M50 87H53V90H50V87Z" fill="#BABABA"/>
<path d="M61 197H64V200H61V197Z" fill="#BABABA"/>
<path d="M61 87H64V90H61V87Z" fill="#BABABA"/>
<path d="M72 197H75V200H72V197Z" fill="#BABABA"/>
<path d="M72 87H75V90H72V87Z" fill="#BABABA"/>
<path d="M83 197H86V200H83V197Z" fill="#BABABA"/>
<path d="M83 87H86V90H83V87Z" fill="#BABABA"/>
<path d="M94 197H97V200H94V197Z" fill="#BABABA"/>
<path d="M94 87H97V90H94V87Z" fill="#BABABA"/>
<path d="M105 197H108V200H105V197Z" fill="#BABABA"/>
<path d="M105 87H108V90H105V87Z" fill="#BABABA"/>
<path d="M116 197H119V200H116V197Z" fill="#BABABA"/>
<path d="M116 87H119V90H116V87Z" fill="#BABABA"/>
<path d="M127 197H130V200H127V197Z" fill="#BABABA"/>
<path d="M127 87H130V90H127V87Z" fill="#BABABA"/>
<path d="M138 197H141V200H138V197Z" fill="#BABABA"/>
<path d="M138 87H141V90H138V87Z" fill="#BABABA"/>
<path d="M149 197H152V200H149V197Z" fill="#BABABA"/>
<path d="M149 87H152V90H149V87Z" fill="#BABABA"/>
<path d="M160 197H163V200H160V197Z" fill="#BABABA"/>
<path d="M160 87H163V90H160V87Z" fill="#BABABA"/>
<path d="M171 197H174V200H171V197Z" fill="#BABABA"/>
<path d="M171 87H174V90H171V87Z" fill="#BABABA"/>
<path d="M182 197H185V200H182V197Z" fill="#BABABA"/>
<path d="M182 87H185V90H182V87Z" fill="#BABABA"/>
<path d="M193 197H196V200H193V197Z" fill="#BABABA"/>
<path d="M193 87H196V90H193V87Z" fill="#BABABA"/>
<path d="M204 197H207V200H204V197Z" fill="#BABABA"/>
<path d="M204 87H207V90H204V87Z" fill="#BABABA"/>
<path d="M215 197H218V200H215V197Z" fill="#BABABA"/>
<path d="M215 87H218V90H215V87Z" fill="#BABABA"/>
<path d="M6 207H9V210H6V207Z" fill="#BABABA"/>
<path d="M6 97H9V100H6V97Z" fill="#BABABA"/>
<path d="M17 207H20V210H17V207Z" fill="#BABABA"/>
<path d="M17 97H20V100H17V97Z" fill="#BABABA"/>
<path d="M28 207H31V210H28V207Z" fill="#BABABA"/>
<path d="M28 97H31V100H28V97Z" fill="#BABABA"/>
<path d="M39 207H42V210H39V207Z" fill="#BABABA"/>
<path d="M39 97H42V100H39V97Z" fill="#BABABA"/>
<path d="M50 207H53V210H50V207Z" fill="#BABABA"/>
<path d="M50 97H53V100H50V97Z" fill="#BABABA"/>
<path d="M61 207H64V210H61V207Z" fill="#BABABA"/>
<path d="M61 97H64V100H61V97Z" fill="#BABABA"/>
<path d="M72 207H75V210H72V207Z" fill="#BABABA"/>
<path d="M72 97H75V100H72V97Z" fill="#BABABA"/>
<path d="M83 207H86V210H83V207Z" fill="#BABABA"/>
<path d="M83 97H86V100H83V97Z" fill="#BABABA"/>
<path d="M94 207H97V210H94V207Z" fill="#BABABA"/>
<path d="M94 97H97V100H94V97Z" fill="#BABABA"/>
<path d="M105 207H108V210H105V207Z" fill="#BABABA"/>
<path d="M105 97H108V100H105V97Z" fill="#BABABA"/>
<path d="M116 207H119V210H116V207Z" fill="#BABABA"/>
<path d="M116 97H119V100H116V97Z" fill="#BABABA"/>
<path d="M127 207H130V210H127V207Z" fill="#BABABA"/>
<path d="M127 97H130V100H127V97Z" fill="#BABABA"/>
<path d="M138 207H141V210H138V207Z" fill="#BABABA"/>
<path d="M138 97H141V100H138V97Z" fill="#BABABA"/>
<path d="M149 207H152V210H149V207Z" fill="#BABABA"/>
<path d="M149 97H152V100H149V97Z" fill="#BABABA"/>
<path d="M160 207H163V210H160V207Z" fill="#BABABA"/>
<path d="M160 97H163V100H160V97Z" fill="#BABABA"/>
<path d="M171 207H174V210H171V207Z" fill="#BABABA"/>
<path d="M171 97H174V100H171V97Z" fill="#BABABA"/>
<path d="M182 207H185V210H182V207Z" fill="#BABABA"/>
<path d="M182 97H185V100H182V97Z" fill="#BABABA"/>
<path d="M193 207H196V210H193V207Z" fill="#BABABA"/>
<path d="M193 97H196V100H193V97Z" fill="#BABABA"/>
<path d="M204 207H207V210H204V207Z" fill="#BABABA"/>
<path d="M204 97H207V100H204V97Z" fill="#BABABA"/>
<path d="M215 207H218V210H215V207Z" fill="#BABABA"/>
<path d="M215 97H218V100H215V97Z" fill="#BABABA"/>
<path d="M6 217H9V220H6V217Z" fill="#BABABA"/>
<path d="M6 107H9V110H6V107Z" fill="#BABABA"/>
<path d="M17 217H20V220H17V217Z" fill="#BABABA"/>
<path d="M17 107H20V110H17V107Z" fill="#BABABA"/>
<path d="M28 217H31V220H28V217Z" fill="#BABABA"/>
<path d="M28 107H31V110H28V107Z" fill="#BABABA"/>
<path d="M39 217H42V220H39V217Z" fill="#BABABA"/>
<path d="M39 107H42V110H39V107Z" fill="#BABABA"/>
<path d="M50 217H53V220H50V217Z" fill="#BABABA"/>
<path d="M50 107H53V110H50V107Z" fill="#BABABA"/>
<path d="M61 217H64V220H61V217Z" fill="#BABABA"/>
<path d="M61 107H64V110H61V107Z" fill="#BABABA"/>
<path d="M72 217H75V220H72V217Z" fill="#BABABA"/>
<path d="M72 107H75V110H72V107Z" fill="#BABABA"/>
<path d="M83 217H86V220H83V217Z" fill="#BABABA"/>
<path d="M83 107H86V110H83V107Z" fill="#BABABA"/>
<path d="M94 217H97V220H94V217Z" fill="#BABABA"/>
<path d="M94 107H97V110H94V107Z" fill="#BABABA"/>
<path d="M105 217H108V220H105V217Z" fill="#BABABA"/>
<path d="M105 107H108V110H105V107Z" fill="#BABABA"/>
<path d="M116 217H119V220H116V217Z" fill="#BABABA"/>
<path d="M116 107H119V110H116V107Z" fill="#BABABA"/>
<path d="M127 217H130V220H127V217Z" fill="#BABABA"/>
<path d="M127 107H130V110H127V107Z" fill="#BABABA"/>
<path d="M138 217H141V220H138V217Z" fill="#BABABA"/>
<path d="M138 107H141V110H138V107Z" fill="#BABABA"/>
<path d="M149 217H152V220H149V217Z" fill="#BABABA"/>
<path d="M149 107H152V110H149V107Z" fill="#BABABA"/>
<path d="M160 217H163V220H160V217Z" fill="#BABABA"/>
<path d="M160 107H163V110H160V107Z" fill="#BABABA"/>
<path d="M171 217H174V220H171V217Z" fill="#BABABA"/>
<path d="M171 107H174V110H171V107Z" fill="#BABABA"/>
<path d="M182 217H185V220H182V217Z" fill="#BABABA"/>
<path d="M182 107H185V110H182V107Z" fill="#BABABA"/>
<path d="M193 217H196V220H193V217Z" fill="#BABABA"/>
<path d="M193 107H196V110H193V107Z" fill="#BABABA"/>
<path d="M204 217H207V220H204V217Z" fill="#BABABA"/>
<path d="M204 107H207V110H204V107Z" fill="#BABABA"/>
<path d="M215 217H218V220H215V217Z" fill="#BABABA"/>
<path d="M215 107H218V110H215V107Z" fill="#BABABA"/>
<path d="M282.65 28.3901H63.49V201.13H282.65V28.3901Z" fill="#E6E6E6"/>
<path d="M136.06 139.01H94.1799V179.07H136.06V139.01Z" fill="#C9C9C9"/>
<path opacity="0.08" d="M282.65 65.1802H221.7V191.93H282.65V65.1802Z" fill="black"/>
<path d="M80.5899 43.9699C82.4787 43.9699 84.0099 42.4387 84.0099 40.5499C84.0099 38.6611 82.4787 37.1299 80.5899 37.1299C78.7011 37.1299 77.1699 38.6611 77.1699 40.5499C77.1699 42.4387 78.7011 43.9699 80.5899 43.9699Z" fill="#475762"/>
<path d="M90.7601 43.9699C92.6489 43.9699 94.1801 42.4387 94.1801 40.5499C94.1801 38.6611 92.6489 37.1299 90.7601 37.1299C88.8713 37.1299 87.3401 38.6611 87.3401 40.5499C87.3401 42.4387 88.8713 43.9699 90.7601 43.9699Z" fill="#FD6F55"/>
<path d="M100.34 43.9699C102.229 43.9699 103.76 42.4387 103.76 40.5499C103.76 38.6611 102.229 37.1299 100.34 37.1299C98.4511 37.1299 96.9199 38.6611 96.9199 40.5499C96.9199 42.4387 98.4511 43.9699 100.34 43.9699Z" fill="#FFD200"/>
<path d="M189 57H94V87H189V57Z" fill="#C9C9C9"/>
<path d="M114.19 82.2399C119.796 82.2399 124.34 77.6956 124.34 72.0899C124.34 66.4842 119.796 61.9399 114.19 61.9399C108.584 61.9399 104.04 66.4842 104.04 72.0899C104.04 77.6956 108.584 82.2399 114.19 82.2399Z" fill="white"/>
<path d="M167.21 65.3398H133.3V70.3898H167.21V65.3398Z" fill="white"/>
<path opacity="0.45" d="M167.21 73.7798H133.3V78.8298H167.21V73.7798Z" fill="white"/>
<path d="M182.17 98H153V122.33H182.17V98Z" fill="#1A78ED"/>
<path opacity="0.62" d="M156.04 118.56L162.99 106.16L167.85 115.34L173.76 107.55L179.67 118.56H156.04Z" fill="white"/>
<path d="M168.94 107.08C170.216 107.08 171.25 106.046 171.25 104.77C171.25 103.494 170.216 102.46 168.94 102.46C167.664 102.46 166.63 103.494 166.63 104.77C166.63 106.046 167.664 107.08 168.94 107.08Z" fill="white"/>
<path d="M302.95 52.3198H207.45V179.07H302.95V52.3198Z" fill="#6EC1B1"/>
<path d="M252.53 61.9399H216.53V90.0699H252.53V61.9399Z" fill="#ECECEC"/>
<path opacity="0.74" d="M293.86 61.9399H257.86V90.0699H293.86V61.9399Z" fill="#B8E7DE"/>
<path opacity="0.47" d="M252.53 95.9199H216.53V124.05H252.53V95.9199Z" fill="#DEDEDE"/>
<path opacity="0.21" d="M293.86 95.9199H257.86V124.05H293.86V95.9199Z" fill="#C9C9C9"/>
<path d="M272.2 136.6H238.2V151.56H272.2V136.6Z" fill="#FFD200"/>
<path opacity="0.46" d="M267.84 138.69H253.09V142.54H267.84V138.69Z" fill="white"/>
<path d="M267.45 158.24H245.2V162.7H267.45V158.24Z" fill="white"/>
<path d="M188.61 139.01H146.73V179.07H188.61V139.01Z" fill="white"/>
<path opacity="0.45" d="M182.3 264.59C268.07 264.59 337.6 259.509 337.6 253.24C337.6 246.972 268.07 241.89 182.3 241.89C96.5302 241.89 27 246.972 27 253.24C27 259.509 96.5302 264.59 182.3 264.59Z" fill="#E6E6E6"/>
<path opacity="0.58" d="M292.69 235.89C292.69 235.89 281.11 232.78 278.51 222.02C278.51 222.02 296.42 218.32 297.01 236.82L292.69 235.89Z" fill="#6EC1B1"/>
<path opacity="0.73" d="M294.11 234.73C294.11 234.73 285.97 221.99 293.04 210C293.04 210 306.71 218.61 300.72 234.73H294.11Z" fill="#6EC1B1"/>
<path d="M296.19 234.73C296.19 234.73 300.41 221.22 313.31 218.61C313.31 218.61 315.77 227.36 305.02 234.73H296.19Z" fill="#6EC1B1"/>
<path d="M287.8 234.47L290.21 250.51H304.99L307.1 234.47H287.8Z" fill="#475762"/>
<path d="M161.206 158.937C159.505 158.937 158.161 158.425 157.175 157.4C156.363 156.53 155.957 155.486 155.957 154.268C155.957 152.934 156.353 151.842 157.146 150.991C158.055 149.966 159.408 149.454 161.206 149.454C162.965 149.454 164.338 149.966 165.324 150.991C166.136 151.842 166.542 152.905 166.542 154.181C166.542 155.457 166.126 156.53 165.295 157.4C164.309 158.425 162.946 158.937 161.206 158.937ZM161.119 169L172.313 149.657H174.836L163.613 169H161.119ZM161.264 152.006C160.607 152.006 160.075 152.228 159.669 152.673C159.282 153.098 159.089 153.601 159.089 154.181C159.089 154.838 159.34 155.389 159.843 155.834C160.23 156.182 160.703 156.356 161.264 156.356C161.844 156.356 162.356 156.153 162.801 155.747C163.226 155.322 163.439 154.8 163.439 154.181C163.439 153.543 163.207 153.002 162.743 152.557C162.356 152.19 161.863 152.006 161.264 152.006ZM174.72 162.301C174.063 162.301 173.531 162.523 173.125 162.968C172.738 163.393 172.545 163.896 172.545 164.476C172.545 165.133 172.796 165.684 173.299 166.129C173.686 166.477 174.159 166.651 174.72 166.651C175.3 166.651 175.812 166.448 176.257 166.042C176.682 165.617 176.895 165.095 176.895 164.476C176.895 163.819 176.663 163.277 176.199 162.852C175.812 162.485 175.319 162.301 174.72 162.301ZM174.662 169.232C172.961 169.232 171.617 168.72 170.631 167.695C169.819 166.825 169.413 165.781 169.413 164.563C169.413 163.229 169.809 162.137 170.602 161.286C171.511 160.261 172.864 159.749 174.662 159.749C176.421 159.749 177.794 160.261 178.78 161.286C179.592 162.137 179.998 163.2 179.998 164.476C179.998 165.752 179.582 166.825 178.751 167.695C177.765 168.72 176.402 169.232 174.662 169.232Z" fill="#FD6F55"/>
</svg>
