<svg width="841" height="715" viewBox="0 0 841 715" fill="none" xmlns="http://www.w3.org/2000/svg">
<rect x="113" y="128.543" width="571" height="550.164" rx="20" fill="#FFF3F1"/>
<g filter="url(#filter0_dd)">
<path d="M97 314.937C97 279.517 125.654 250.802 161 250.802H225V379.073H161C125.654 379.073 97 350.358 97 314.937Z" fill="#1A78ED"/>
</g>
<g filter="url(#filter1_dd)">
<rect x="195" y="201.698" width="423" height="387.821" rx="5" fill="#FFC854"/>
</g>
<path d="M504 604.551H507V607.557H504V604.551Z" fill="#CCE2DE"/>
<path d="M504 494.317H507V497.324H504V494.317Z" fill="#CCE2DE"/>
<path d="M515 604.551H518V607.557H515V604.551Z" fill="#CCE2DE"/>
<path d="M515 494.317H518V497.324H515V494.317Z" fill="#CCE2DE"/>
<path d="M526 604.551H529V607.557H526V604.551Z" fill="#CCE2DE"/>
<path d="M526 494.317H529V497.324H526V494.317Z" fill="#CCE2DE"/>
<path d="M537 604.551H540V607.557H537V604.551Z" fill="#CCE2DE"/>
<path d="M537 494.317H540V497.324H537V494.317Z" fill="#CCE2DE"/>
<path d="M548 604.551H551V607.557H548V604.551Z" fill="#CCE2DE"/>
<path d="M548 494.317H551V497.324H548V494.317Z" fill="#CCE2DE"/>
<path d="M559 604.551H562V607.557H559V604.551Z" fill="#CCE2DE"/>
<path d="M559 494.317H562V497.324H559V494.317Z" fill="#CCE2DE"/>
<path d="M570 604.551H573V607.557H570V604.551Z" fill="#CCE2DE"/>
<path d="M570 494.317H573V497.324H570V494.317Z" fill="#CCE2DE"/>
<path d="M581 604.551H584V607.557H581V604.551Z" fill="#CCE2DE"/>
<path d="M581 494.317H584V497.324H581V494.317Z" fill="#CCE2DE"/>
<path d="M592 604.551H595V607.557H592V604.551Z" fill="#CCE2DE"/>
<path d="M592 494.317H595V497.324H592V494.317Z" fill="#CCE2DE"/>
<path d="M603 604.551H606V607.557H603V604.551Z" fill="#CCE2DE"/>
<path d="M603 494.317H606V497.324H603V494.317Z" fill="#CCE2DE"/>
<path d="M614 604.551H617V607.557H614V604.551Z" fill="#CCE2DE"/>
<path d="M614 494.317H617V497.324H614V494.317Z" fill="#CCE2DE"/>
<path d="M625 604.551H628V607.557H625V604.551Z" fill="#CCE2DE"/>
<path d="M625 494.317H628V497.324H625V494.317Z" fill="#CCE2DE"/>
<path d="M636 604.551H639V607.557H636V604.551Z" fill="#CCE2DE"/>
<path d="M636 494.317H639V497.324H636V494.317Z" fill="#CCE2DE"/>
<path d="M647 604.551H650V607.557H647V604.551Z" fill="#CCE2DE"/>
<path d="M647 494.317H650V497.324H647V494.317Z" fill="#CCE2DE"/>
<path d="M658 604.551H661V607.557H658V604.551Z" fill="#CCE2DE"/>
<path d="M658 494.317H661V497.324H658V494.317Z" fill="#CCE2DE"/>
<path d="M669 604.551H672V607.557H669V604.551Z" fill="#CCE2DE"/>
<path d="M669 494.317H672V497.324H669V494.317Z" fill="#CCE2DE"/>
<path d="M680 604.551H683V607.557H680V604.551Z" fill="#CCE2DE"/>
<path d="M680 494.317H683V497.324H680V494.317Z" fill="#CCE2DE"/>
<path d="M691 604.551H694V607.557H691V604.551Z" fill="#CCE2DE"/>
<path d="M691 494.317H694V497.324H691V494.317Z" fill="#CCE2DE"/>
<path d="M702 604.551H705V607.557H702V604.551Z" fill="#CCE2DE"/>
<path d="M702 494.317H705V497.324H702V494.317Z" fill="#CCE2DE"/>
<path d="M713 604.551H716V607.557H713V604.551Z" fill="#CCE2DE"/>
<path d="M713 494.317H716V497.324H713V494.317Z" fill="#CCE2DE"/>
<path d="M504 614.572H507V617.578H504V614.572Z" fill="#CCE2DE"/>
<path d="M504 504.339H507V507.345H504V504.339Z" fill="#CCE2DE"/>
<path d="M515 614.572H518V617.578H515V614.572Z" fill="#CCE2DE"/>
<path d="M515 504.339H518V507.345H515V504.339Z" fill="#CCE2DE"/>
<path d="M526 614.572H529V617.578H526V614.572Z" fill="#CCE2DE"/>
<path d="M526 504.339H529V507.345H526V504.339Z" fill="#CCE2DE"/>
<path d="M537 614.572H540V617.578H537V614.572Z" fill="#CCE2DE"/>
<path d="M537 504.339H540V507.345H537V504.339Z" fill="#CCE2DE"/>
<path d="M548 614.572H551V617.578H548V614.572Z" fill="#CCE2DE"/>
<path d="M548 504.339H551V507.345H548V504.339Z" fill="#CCE2DE"/>
<path d="M559 614.572H562V617.578H559V614.572Z" fill="#CCE2DE"/>
<path d="M559 504.339H562V507.345H559V504.339Z" fill="#CCE2DE"/>
<path d="M570 614.572H573V617.578H570V614.572Z" fill="#CCE2DE"/>
<path d="M570 504.339H573V507.345H570V504.339Z" fill="#CCE2DE"/>
<path d="M581 614.572H584V617.578H581V614.572Z" fill="#CCE2DE"/>
<path d="M581 504.339H584V507.345H581V504.339Z" fill="#CCE2DE"/>
<path d="M592 614.572H595V617.578H592V614.572Z" fill="#CCE2DE"/>
<path d="M592 504.339H595V507.345H592V504.339Z" fill="#CCE2DE"/>
<path d="M603 614.572H606V617.578H603V614.572Z" fill="#CCE2DE"/>
<path d="M603 504.339H606V507.345H603V504.339Z" fill="#CCE2DE"/>
<path d="M614 614.572H617V617.578H614V614.572Z" fill="#CCE2DE"/>
<path d="M614 504.339H617V507.345H614V504.339Z" fill="#CCE2DE"/>
<path d="M625 614.572H628V617.578H625V614.572Z" fill="#CCE2DE"/>
<path d="M625 504.339H628V507.345H625V504.339Z" fill="#CCE2DE"/>
<path d="M636 614.572H639V617.578H636V614.572Z" fill="#CCE2DE"/>
<path d="M636 504.339H639V507.345H636V504.339Z" fill="#CCE2DE"/>
<path d="M647 614.572H650V617.578H647V614.572Z" fill="#CCE2DE"/>
<path d="M647 504.339H650V507.345H647V504.339Z" fill="#CCE2DE"/>
<path d="M658 614.572H661V617.578H658V614.572Z" fill="#CCE2DE"/>
<path d="M658 504.339H661V507.345H658V504.339Z" fill="#CCE2DE"/>
<path d="M669 614.572H672V617.578H669V614.572Z" fill="#CCE2DE"/>
<path d="M669 504.339H672V507.345H669V504.339Z" fill="#CCE2DE"/>
<path d="M680 614.572H683V617.578H680V614.572Z" fill="#CCE2DE"/>
<path d="M680 504.339H683V507.345H680V504.339Z" fill="#CCE2DE"/>
<path d="M691 614.572H694V617.578H691V614.572Z" fill="#CCE2DE"/>
<path d="M691 504.339H694V507.345H691V504.339Z" fill="#CCE2DE"/>
<path d="M702 614.572H705V617.578H702V614.572Z" fill="#CCE2DE"/>
<path d="M702 504.339H705V507.345H702V504.339Z" fill="#CCE2DE"/>
<path d="M713 614.572H716V617.578H713V614.572Z" fill="#CCE2DE"/>
<path d="M713 504.339H716V507.345H713V504.339Z" fill="#CCE2DE"/>
<path d="M504 624.593H507V627.599H504V624.593Z" fill="#CCE2DE"/>
<path d="M504 514.36H507V517.366H504V514.36Z" fill="#CCE2DE"/>
<path d="M515 624.593H518V627.599H515V624.593Z" fill="#CCE2DE"/>
<path d="M515 514.36H518V517.366H515V514.36Z" fill="#CCE2DE"/>
<path d="M526 624.593H529V627.599H526V624.593Z" fill="#CCE2DE"/>
<path d="M526 514.36H529V517.366H526V514.36Z" fill="#CCE2DE"/>
<path d="M537 624.593H540V627.599H537V624.593Z" fill="#CCE2DE"/>
<path d="M537 514.36H540V517.366H537V514.36Z" fill="#CCE2DE"/>
<path d="M548 624.593H551V627.599H548V624.593Z" fill="#CCE2DE"/>
<path d="M548 514.36H551V517.366H548V514.36Z" fill="#CCE2DE"/>
<path d="M559 624.593H562V627.599H559V624.593Z" fill="#CCE2DE"/>
<path d="M559 514.36H562V517.366H559V514.36Z" fill="#CCE2DE"/>
<path d="M570 624.593H573V627.599H570V624.593Z" fill="#CCE2DE"/>
<path d="M570 514.36H573V517.366H570V514.36Z" fill="#CCE2DE"/>
<path d="M581 624.593H584V627.599H581V624.593Z" fill="#CCE2DE"/>
<path d="M581 514.36H584V517.366H581V514.36Z" fill="#CCE2DE"/>
<path d="M592 624.593H595V627.599H592V624.593Z" fill="#CCE2DE"/>
<path d="M592 514.36H595V517.366H592V514.36Z" fill="#CCE2DE"/>
<path d="M603 624.593H606V627.599H603V624.593Z" fill="#CCE2DE"/>
<path d="M603 514.36H606V517.366H603V514.36Z" fill="#CCE2DE"/>
<path d="M614 624.593H617V627.599H614V624.593Z" fill="#CCE2DE"/>
<path d="M614 514.36H617V517.366H614V514.36Z" fill="#CCE2DE"/>
<path d="M625 624.593H628V627.599H625V624.593Z" fill="#CCE2DE"/>
<path d="M625 514.36H628V517.366H625V514.36Z" fill="#CCE2DE"/>
<path d="M636 624.593H639V627.599H636V624.593Z" fill="#CCE2DE"/>
<path d="M636 514.36H639V517.366H636V514.36Z" fill="#CCE2DE"/>
<path d="M647 624.593H650V627.599H647V624.593Z" fill="#CCE2DE"/>
<path d="M647 514.36H650V517.366H647V514.36Z" fill="#CCE2DE"/>
<path d="M658 624.593H661V627.599H658V624.593Z" fill="#CCE2DE"/>
<path d="M658 514.36H661V517.366H658V514.36Z" fill="#CCE2DE"/>
<path d="M669 624.593H672V627.599H669V624.593Z" fill="#CCE2DE"/>
<path d="M669 514.36H672V517.366H669V514.36Z" fill="#CCE2DE"/>
<path d="M680 624.593H683V627.599H680V624.593Z" fill="#CCE2DE"/>
<path d="M680 514.36H683V517.366H680V514.36Z" fill="#CCE2DE"/>
<path d="M691 624.593H694V627.599H691V624.593Z" fill="#CCE2DE"/>
<path d="M691 514.36H694V517.366H691V514.36Z" fill="#CCE2DE"/>
<path d="M702 624.593H705V627.599H702V624.593Z" fill="#CCE2DE"/>
<path d="M702 514.36H705V517.366H702V514.36Z" fill="#CCE2DE"/>
<path d="M713 624.593H716V627.599H713V624.593Z" fill="#CCE2DE"/>
<path d="M713 514.36H716V517.366H713V514.36Z" fill="#CCE2DE"/>
<path d="M504 634.614H507V637.621H504V634.614Z" fill="#CCE2DE"/>
<path d="M504 524.381H507V527.387H504V524.381Z" fill="#CCE2DE"/>
<path d="M515 634.614H518V637.621H515V634.614Z" fill="#CCE2DE"/>
<path d="M515 524.381H518V527.387H515V524.381Z" fill="#CCE2DE"/>
<path d="M526 634.614H529V637.621H526V634.614Z" fill="#CCE2DE"/>
<path d="M526 524.381H529V527.387H526V524.381Z" fill="#CCE2DE"/>
<path d="M537 634.614H540V637.621H537V634.614Z" fill="#CCE2DE"/>
<path d="M537 524.381H540V527.387H537V524.381Z" fill="#CCE2DE"/>
<path d="M548 634.614H551V637.621H548V634.614Z" fill="#CCE2DE"/>
<path d="M548 524.381H551V527.387H548V524.381Z" fill="#CCE2DE"/>
<path d="M559 634.614H562V637.621H559V634.614Z" fill="#CCE2DE"/>
<path d="M559 524.381H562V527.387H559V524.381Z" fill="#CCE2DE"/>
<path d="M570 634.614H573V637.621H570V634.614Z" fill="#CCE2DE"/>
<path d="M570 524.381H573V527.387H570V524.381Z" fill="#CCE2DE"/>
<path d="M581 634.614H584V637.621H581V634.614Z" fill="#CCE2DE"/>
<path d="M581 524.381H584V527.387H581V524.381Z" fill="#CCE2DE"/>
<path d="M592 634.614H595V637.621H592V634.614Z" fill="#CCE2DE"/>
<path d="M592 524.381H595V527.387H592V524.381Z" fill="#CCE2DE"/>
<path d="M603 634.614H606V637.621H603V634.614Z" fill="#CCE2DE"/>
<path d="M603 524.381H606V527.387H603V524.381Z" fill="#CCE2DE"/>
<path d="M614 634.614H617V637.621H614V634.614Z" fill="#CCE2DE"/>
<path d="M614 524.381H617V527.387H614V524.381Z" fill="#CCE2DE"/>
<path d="M625 634.614H628V637.621H625V634.614Z" fill="#CCE2DE"/>
<path d="M625 524.381H628V527.387H625V524.381Z" fill="#CCE2DE"/>
<path d="M636 634.614H639V637.621H636V634.614Z" fill="#CCE2DE"/>
<path d="M636 524.381H639V527.387H636V524.381Z" fill="#CCE2DE"/>
<path d="M647 634.614H650V637.621H647V634.614Z" fill="#CCE2DE"/>
<path d="M647 524.381H650V527.387H647V524.381Z" fill="#CCE2DE"/>
<path d="M658 634.614H661V637.621H658V634.614Z" fill="#CCE2DE"/>
<path d="M658 524.381H661V527.387H658V524.381Z" fill="#CCE2DE"/>
<path d="M669 634.614H672V637.621H669V634.614Z" fill="#CCE2DE"/>
<path d="M669 524.381H672V527.387H669V524.381Z" fill="#CCE2DE"/>
<path d="M680 634.614H683V637.621H680V634.614Z" fill="#CCE2DE"/>
<path d="M680 524.381H683V527.387H680V524.381Z" fill="#CCE2DE"/>
<path d="M691 634.614H694V637.621H691V634.614Z" fill="#CCE2DE"/>
<path d="M691 524.381H694V527.387H691V524.381Z" fill="#CCE2DE"/>
<path d="M702 634.614H705V637.621H702V634.614Z" fill="#CCE2DE"/>
<path d="M702 524.381H705V527.387H702V524.381Z" fill="#CCE2DE"/>
<path d="M713 634.614H716V637.621H713V634.614Z" fill="#CCE2DE"/>
<path d="M713 524.381H716V527.387H713V524.381Z" fill="#CCE2DE"/>
<path d="M504 644.636H507V647.642H504V644.636Z" fill="#CCE2DE"/>
<path d="M504 534.402H507V537.409H504V534.402Z" fill="#CCE2DE"/>
<path d="M515 644.636H518V647.642H515V644.636Z" fill="#CCE2DE"/>
<path d="M515 534.402H518V537.409H515V534.402Z" fill="#CCE2DE"/>
<path d="M526 644.636H529V647.642H526V644.636Z" fill="#CCE2DE"/>
<path d="M526 534.402H529V537.409H526V534.402Z" fill="#CCE2DE"/>
<path d="M537 644.636H540V647.642H537V644.636Z" fill="#CCE2DE"/>
<path d="M537 534.402H540V537.409H537V534.402Z" fill="#CCE2DE"/>
<path d="M548 644.636H551V647.642H548V644.636Z" fill="#CCE2DE"/>
<path d="M548 534.402H551V537.409H548V534.402Z" fill="#CCE2DE"/>
<path d="M559 644.636H562V647.642H559V644.636Z" fill="#CCE2DE"/>
<path d="M559 534.402H562V537.409H559V534.402Z" fill="#CCE2DE"/>
<path d="M570 644.636H573V647.642H570V644.636Z" fill="#CCE2DE"/>
<path d="M570 534.402H573V537.409H570V534.402Z" fill="#CCE2DE"/>
<path d="M581 644.636H584V647.642H581V644.636Z" fill="#CCE2DE"/>
<path d="M581 534.402H584V537.409H581V534.402Z" fill="#CCE2DE"/>
<path d="M592 644.636H595V647.642H592V644.636Z" fill="#CCE2DE"/>
<path d="M592 534.402H595V537.409H592V534.402Z" fill="#CCE2DE"/>
<path d="M603 644.636H606V647.642H603V644.636Z" fill="#CCE2DE"/>
<path d="M603 534.402H606V537.409H603V534.402Z" fill="#CCE2DE"/>
<path d="M614 644.636H617V647.642H614V644.636Z" fill="#CCE2DE"/>
<path d="M614 534.402H617V537.409H614V534.402Z" fill="#CCE2DE"/>
<path d="M625 644.636H628V647.642H625V644.636Z" fill="#CCE2DE"/>
<path d="M625 534.402H628V537.409H625V534.402Z" fill="#CCE2DE"/>
<path d="M636 644.636H639V647.642H636V644.636Z" fill="#CCE2DE"/>
<path d="M636 534.402H639V537.409H636V534.402Z" fill="#CCE2DE"/>
<path d="M647 644.636H650V647.642H647V644.636Z" fill="#CCE2DE"/>
<path d="M647 534.402H650V537.409H647V534.402Z" fill="#CCE2DE"/>
<path d="M658 644.636H661V647.642H658V644.636Z" fill="#CCE2DE"/>
<path d="M658 534.402H661V537.409H658V534.402Z" fill="#CCE2DE"/>
<path d="M669 644.636H672V647.642H669V644.636Z" fill="#CCE2DE"/>
<path d="M669 534.402H672V537.409H669V534.402Z" fill="#CCE2DE"/>
<path d="M680 644.636H683V647.642H680V644.636Z" fill="#CCE2DE"/>
<path d="M680 534.402H683V537.409H680V534.402Z" fill="#CCE2DE"/>
<path d="M691 644.636H694V647.642H691V644.636Z" fill="#CCE2DE"/>
<path d="M691 534.402H694V537.409H691V534.402Z" fill="#CCE2DE"/>
<path d="M702 644.636H705V647.642H702V644.636Z" fill="#CCE2DE"/>
<path d="M702 534.402H705V537.409H702V534.402Z" fill="#CCE2DE"/>
<path d="M713 644.636H716V647.642H713V644.636Z" fill="#CCE2DE"/>
<path d="M713 534.402H716V537.409H713V534.402Z" fill="#CCE2DE"/>
<path d="M504 654.657H507V657.663H504V654.657Z" fill="#CCE2DE"/>
<path d="M504 544.423H507V547.43H504V544.423Z" fill="#CCE2DE"/>
<path d="M515 654.657H518V657.663H515V654.657Z" fill="#CCE2DE"/>
<path d="M515 544.423H518V547.43H515V544.423Z" fill="#CCE2DE"/>
<path d="M526 654.657H529V657.663H526V654.657Z" fill="#CCE2DE"/>
<path d="M526 544.423H529V547.43H526V544.423Z" fill="#CCE2DE"/>
<path d="M537 654.657H540V657.663H537V654.657Z" fill="#CCE2DE"/>
<path d="M537 544.423H540V547.43H537V544.423Z" fill="#CCE2DE"/>
<path d="M548 654.657H551V657.663H548V654.657Z" fill="#CCE2DE"/>
<path d="M548 544.423H551V547.43H548V544.423Z" fill="#CCE2DE"/>
<path d="M559 654.657H562V657.663H559V654.657Z" fill="#CCE2DE"/>
<path d="M559 544.423H562V547.43H559V544.423Z" fill="#CCE2DE"/>
<path d="M570 654.657H573V657.663H570V654.657Z" fill="#CCE2DE"/>
<path d="M570 544.423H573V547.43H570V544.423Z" fill="#CCE2DE"/>
<path d="M581 654.657H584V657.663H581V654.657Z" fill="#CCE2DE"/>
<path d="M581 544.423H584V547.43H581V544.423Z" fill="#CCE2DE"/>
<path d="M592 654.657H595V657.663H592V654.657Z" fill="#CCE2DE"/>
<path d="M592 544.423H595V547.43H592V544.423Z" fill="#CCE2DE"/>
<path d="M603 654.657H606V657.663H603V654.657Z" fill="#CCE2DE"/>
<path d="M603 544.423H606V547.43H603V544.423Z" fill="#CCE2DE"/>
<path d="M614 654.657H617V657.663H614V654.657Z" fill="#CCE2DE"/>
<path d="M614 544.423H617V547.43H614V544.423Z" fill="#CCE2DE"/>
<path d="M625 654.657H628V657.663H625V654.657Z" fill="#CCE2DE"/>
<path d="M625 544.423H628V547.43H625V544.423Z" fill="#CCE2DE"/>
<path d="M636 654.657H639V657.663H636V654.657Z" fill="#CCE2DE"/>
<path d="M636 544.423H639V547.43H636V544.423Z" fill="#CCE2DE"/>
<path d="M647 654.657H650V657.663H647V654.657Z" fill="#CCE2DE"/>
<path d="M647 544.423H650V547.43H647V544.423Z" fill="#CCE2DE"/>
<path d="M658 654.657H661V657.663H658V654.657Z" fill="#CCE2DE"/>
<path d="M658 544.423H661V547.43H658V544.423Z" fill="#CCE2DE"/>
<path d="M669 654.657H672V657.663H669V654.657Z" fill="#CCE2DE"/>
<path d="M669 544.423H672V547.43H669V544.423Z" fill="#CCE2DE"/>
<path d="M680 654.657H683V657.663H680V654.657Z" fill="#CCE2DE"/>
<path d="M680 544.423H683V547.43H680V544.423Z" fill="#CCE2DE"/>
<path d="M691 654.657H694V657.663H691V654.657Z" fill="#CCE2DE"/>
<path d="M691 544.423H694V547.43H691V544.423Z" fill="#CCE2DE"/>
<path d="M702 654.657H705V657.663H702V654.657Z" fill="#CCE2DE"/>
<path d="M702 544.423H705V547.43H702V544.423Z" fill="#CCE2DE"/>
<path d="M713 654.657H716V657.663H713V654.657Z" fill="#CCE2DE"/>
<path d="M713 544.423H716V547.43H713V544.423Z" fill="#CCE2DE"/>
<path d="M504 664.678H507V667.684H504V664.678Z" fill="#CCE2DE"/>
<path d="M504 554.445H507V557.451H504V554.445Z" fill="#CCE2DE"/>
<path d="M515 664.678H518V667.684H515V664.678Z" fill="#CCE2DE"/>
<path d="M515 554.445H518V557.451H515V554.445Z" fill="#CCE2DE"/>
<path d="M526 664.678H529V667.684H526V664.678Z" fill="#CCE2DE"/>
<path d="M526 554.445H529V557.451H526V554.445Z" fill="#CCE2DE"/>
<path d="M537 664.678H540V667.684H537V664.678Z" fill="#CCE2DE"/>
<path d="M537 554.445H540V557.451H537V554.445Z" fill="#CCE2DE"/>
<path d="M548 664.678H551V667.684H548V664.678Z" fill="#CCE2DE"/>
<path d="M548 554.445H551V557.451H548V554.445Z" fill="#CCE2DE"/>
<path d="M559 664.678H562V667.684H559V664.678Z" fill="#CCE2DE"/>
<path d="M559 554.445H562V557.451H559V554.445Z" fill="#CCE2DE"/>
<path d="M570 664.678H573V667.684H570V664.678Z" fill="#CCE2DE"/>
<path d="M570 554.445H573V557.451H570V554.445Z" fill="#CCE2DE"/>
<path d="M581 664.678H584V667.684H581V664.678Z" fill="#CCE2DE"/>
<path d="M581 554.445H584V557.451H581V554.445Z" fill="#CCE2DE"/>
<path d="M592 664.678H595V667.684H592V664.678Z" fill="#CCE2DE"/>
<path d="M592 554.445H595V557.451H592V554.445Z" fill="#CCE2DE"/>
<path d="M603 664.678H606V667.684H603V664.678Z" fill="#CCE2DE"/>
<path d="M603 554.445H606V557.451H603V554.445Z" fill="#CCE2DE"/>
<path d="M614 664.678H617V667.684H614V664.678Z" fill="#CCE2DE"/>
<path d="M614 554.445H617V557.451H614V554.445Z" fill="#CCE2DE"/>
<path d="M625 664.678H628V667.684H625V664.678Z" fill="#CCE2DE"/>
<path d="M625 554.445H628V557.451H625V554.445Z" fill="#CCE2DE"/>
<path d="M636 664.678H639V667.684H636V664.678Z" fill="#CCE2DE"/>
<path d="M636 554.445H639V557.451H636V554.445Z" fill="#CCE2DE"/>
<path d="M647 664.678H650V667.684H647V664.678Z" fill="#CCE2DE"/>
<path d="M647 554.445H650V557.451H647V554.445Z" fill="#CCE2DE"/>
<path d="M658 664.678H661V667.684H658V664.678Z" fill="#CCE2DE"/>
<path d="M658 554.445H661V557.451H658V554.445Z" fill="#CCE2DE"/>
<path d="M669 664.678H672V667.684H669V664.678Z" fill="#CCE2DE"/>
<path d="M669 554.445H672V557.451H669V554.445Z" fill="#CCE2DE"/>
<path d="M680 664.678H683V667.684H680V664.678Z" fill="#CCE2DE"/>
<path d="M680 554.445H683V557.451H680V554.445Z" fill="#CCE2DE"/>
<path d="M691 664.678H694V667.684H691V664.678Z" fill="#CCE2DE"/>
<path d="M691 554.445H694V557.451H691V554.445Z" fill="#CCE2DE"/>
<path d="M702 664.678H705V667.684H702V664.678Z" fill="#CCE2DE"/>
<path d="M702 554.445H705V557.451H702V554.445Z" fill="#CCE2DE"/>
<path d="M713 664.678H716V667.684H713V664.678Z" fill="#CCE2DE"/>
<path d="M713 554.445H716V557.451H713V554.445Z" fill="#CCE2DE"/>
<path d="M504 674.699H507V677.706H504V674.699Z" fill="#CCE2DE"/>
<path d="M504 564.466H507V567.472H504V564.466Z" fill="#CCE2DE"/>
<path d="M515 674.699H518V677.706H515V674.699Z" fill="#CCE2DE"/>
<path d="M515 564.466H518V567.472H515V564.466Z" fill="#CCE2DE"/>
<path d="M526 674.699H529V677.706H526V674.699Z" fill="#CCE2DE"/>
<path d="M526 564.466H529V567.472H526V564.466Z" fill="#CCE2DE"/>
<path d="M537 674.699H540V677.706H537V674.699Z" fill="#CCE2DE"/>
<path d="M537 564.466H540V567.472H537V564.466Z" fill="#CCE2DE"/>
<path d="M548 674.699H551V677.706H548V674.699Z" fill="#CCE2DE"/>
<path d="M548 564.466H551V567.472H548V564.466Z" fill="#CCE2DE"/>
<path d="M559 674.699H562V677.706H559V674.699Z" fill="#CCE2DE"/>
<path d="M559 564.466H562V567.472H559V564.466Z" fill="#CCE2DE"/>
<path d="M570 674.699H573V677.706H570V674.699Z" fill="#CCE2DE"/>
<path d="M570 564.466H573V567.472H570V564.466Z" fill="#CCE2DE"/>
<path d="M581 674.699H584V677.706H581V674.699Z" fill="#CCE2DE"/>
<path d="M581 564.466H584V567.472H581V564.466Z" fill="#CCE2DE"/>
<path d="M592 674.699H595V677.706H592V674.699Z" fill="#CCE2DE"/>
<path d="M592 564.466H595V567.472H592V564.466Z" fill="#CCE2DE"/>
<path d="M603 674.699H606V677.706H603V674.699Z" fill="#CCE2DE"/>
<path d="M603 564.466H606V567.472H603V564.466Z" fill="#CCE2DE"/>
<path d="M614 674.699H617V677.706H614V674.699Z" fill="#CCE2DE"/>
<path d="M614 564.466H617V567.472H614V564.466Z" fill="#CCE2DE"/>
<path d="M625 674.699H628V677.706H625V674.699Z" fill="#CCE2DE"/>
<path d="M625 564.466H628V567.472H625V564.466Z" fill="#CCE2DE"/>
<path d="M636 674.699H639V677.706H636V674.699Z" fill="#CCE2DE"/>
<path d="M636 564.466H639V567.472H636V564.466Z" fill="#CCE2DE"/>
<path d="M647 674.699H650V677.706H647V674.699Z" fill="#CCE2DE"/>
<path d="M647 564.466H650V567.472H647V564.466Z" fill="#CCE2DE"/>
<path d="M658 674.699H661V677.706H658V674.699Z" fill="#CCE2DE"/>
<path d="M658 564.466H661V567.472H658V564.466Z" fill="#CCE2DE"/>
<path d="M669 674.699H672V677.706H669V674.699Z" fill="#CCE2DE"/>
<path d="M669 564.466H672V567.472H669V564.466Z" fill="#CCE2DE"/>
<path d="M680 674.699H683V677.706H680V674.699Z" fill="#CCE2DE"/>
<path d="M680 564.466H683V567.472H680V564.466Z" fill="#CCE2DE"/>
<path d="M691 674.699H694V677.706H691V674.699Z" fill="#CCE2DE"/>
<path d="M691 564.466H694V567.472H691V564.466Z" fill="#CCE2DE"/>
<path d="M702 674.699H705V677.706H702V674.699Z" fill="#CCE2DE"/>
<path d="M702 564.466H705V567.472H702V564.466Z" fill="#CCE2DE"/>
<path d="M713 674.699H716V677.706H713V674.699Z" fill="#CCE2DE"/>
<path d="M713 564.466H716V567.472H713V564.466Z" fill="#CCE2DE"/>
<path d="M504 684.72H507V687.727H504V684.72Z" fill="#CCE2DE"/>
<path d="M504 574.487H507V577.493H504V574.487Z" fill="#CCE2DE"/>
<path d="M515 684.72H518V687.727H515V684.72Z" fill="#CCE2DE"/>
<path d="M515 574.487H518V577.493H515V574.487Z" fill="#CCE2DE"/>
<path d="M526 684.72H529V687.727H526V684.72Z" fill="#CCE2DE"/>
<path d="M526 574.487H529V577.493H526V574.487Z" fill="#CCE2DE"/>
<path d="M537 684.72H540V687.727H537V684.72Z" fill="#CCE2DE"/>
<path d="M537 574.487H540V577.493H537V574.487Z" fill="#CCE2DE"/>
<path d="M548 684.72H551V687.727H548V684.72Z" fill="#CCE2DE"/>
<path d="M548 574.487H551V577.493H548V574.487Z" fill="#CCE2DE"/>
<path d="M559 684.72H562V687.727H559V684.72Z" fill="#CCE2DE"/>
<path d="M559 574.487H562V577.493H559V574.487Z" fill="#CCE2DE"/>
<path d="M570 684.72H573V687.727H570V684.72Z" fill="#CCE2DE"/>
<path d="M570 574.487H573V577.493H570V574.487Z" fill="#CCE2DE"/>
<path d="M581 684.72H584V687.727H581V684.72Z" fill="#CCE2DE"/>
<path d="M581 574.487H584V577.493H581V574.487Z" fill="#CCE2DE"/>
<path d="M592 684.72H595V687.727H592V684.72Z" fill="#CCE2DE"/>
<path d="M592 574.487H595V577.493H592V574.487Z" fill="#CCE2DE"/>
<path d="M603 684.72H606V687.727H603V684.72Z" fill="#CCE2DE"/>
<path d="M603 574.487H606V577.493H603V574.487Z" fill="#CCE2DE"/>
<path d="M614 684.72H617V687.727H614V684.72Z" fill="#CCE2DE"/>
<path d="M614 574.487H617V577.493H614V574.487Z" fill="#CCE2DE"/>
<path d="M625 684.72H628V687.727H625V684.72Z" fill="#CCE2DE"/>
<path d="M625 574.487H628V577.493H625V574.487Z" fill="#CCE2DE"/>
<path d="M636 684.72H639V687.727H636V684.72Z" fill="#CCE2DE"/>
<path d="M636 574.487H639V577.493H636V574.487Z" fill="#CCE2DE"/>
<path d="M647 684.72H650V687.727H647V684.72Z" fill="#CCE2DE"/>
<path d="M647 574.487H650V577.493H647V574.487Z" fill="#CCE2DE"/>
<path d="M658 684.72H661V687.727H658V684.72Z" fill="#CCE2DE"/>
<path d="M658 574.487H661V577.493H658V574.487Z" fill="#CCE2DE"/>
<path d="M669 684.72H672V687.727H669V684.72Z" fill="#CCE2DE"/>
<path d="M669 574.487H672V577.493H669V574.487Z" fill="#CCE2DE"/>
<path d="M680 684.72H683V687.727H680V684.72Z" fill="#CCE2DE"/>
<path d="M680 574.487H683V577.493H680V574.487Z" fill="#CCE2DE"/>
<path d="M691 684.72H694V687.727H691V684.72Z" fill="#CCE2DE"/>
<path d="M691 574.487H694V577.493H691V574.487Z" fill="#CCE2DE"/>
<path d="M702 684.72H705V687.727H702V684.72Z" fill="#CCE2DE"/>
<path d="M702 574.487H705V577.493H702V574.487Z" fill="#CCE2DE"/>
<path d="M713 684.72H716V687.727H713V684.72Z" fill="#CCE2DE"/>
<path d="M713 574.487H716V577.493H713V574.487Z" fill="#CCE2DE"/>
<path d="M504 694.742H507V697.748H504V694.742Z" fill="#CCE2DE"/>
<path d="M504 584.508H507V587.515H504V584.508Z" fill="#CCE2DE"/>
<path d="M515 694.742H518V697.748H515V694.742Z" fill="#CCE2DE"/>
<path d="M515 584.508H518V587.515H515V584.508Z" fill="#CCE2DE"/>
<path d="M526 694.742H529V697.748H526V694.742Z" fill="#CCE2DE"/>
<path d="M526 584.508H529V587.515H526V584.508Z" fill="#CCE2DE"/>
<path d="M537 694.742H540V697.748H537V694.742Z" fill="#CCE2DE"/>
<path d="M537 584.508H540V587.515H537V584.508Z" fill="#CCE2DE"/>
<path d="M548 694.742H551V697.748H548V694.742Z" fill="#CCE2DE"/>
<path d="M548 584.508H551V587.515H548V584.508Z" fill="#CCE2DE"/>
<path d="M559 694.742H562V697.748H559V694.742Z" fill="#CCE2DE"/>
<path d="M559 584.508H562V587.515H559V584.508Z" fill="#CCE2DE"/>
<path d="M570 694.742H573V697.748H570V694.742Z" fill="#CCE2DE"/>
<path d="M570 584.508H573V587.515H570V584.508Z" fill="#CCE2DE"/>
<path d="M581 694.742H584V697.748H581V694.742Z" fill="#CCE2DE"/>
<path d="M581 584.508H584V587.515H581V584.508Z" fill="#CCE2DE"/>
<path d="M592 694.742H595V697.748H592V694.742Z" fill="#CCE2DE"/>
<path d="M592 584.508H595V587.515H592V584.508Z" fill="#CCE2DE"/>
<path d="M603 694.742H606V697.748H603V694.742Z" fill="#CCE2DE"/>
<path d="M603 584.508H606V587.515H603V584.508Z" fill="#CCE2DE"/>
<path d="M614 694.742H617V697.748H614V694.742Z" fill="#CCE2DE"/>
<path d="M614 584.508H617V587.515H614V584.508Z" fill="#CCE2DE"/>
<path d="M625 694.742H628V697.748H625V694.742Z" fill="#CCE2DE"/>
<path d="M625 584.508H628V587.515H625V584.508Z" fill="#CCE2DE"/>
<path d="M636 694.742H639V697.748H636V694.742Z" fill="#CCE2DE"/>
<path d="M636 584.508H639V587.515H636V584.508Z" fill="#CCE2DE"/>
<path d="M647 694.742H650V697.748H647V694.742Z" fill="#CCE2DE"/>
<path d="M647 584.508H650V587.515H647V584.508Z" fill="#CCE2DE"/>
<path d="M658 694.742H661V697.748H658V694.742Z" fill="#CCE2DE"/>
<path d="M658 584.508H661V587.515H658V584.508Z" fill="#CCE2DE"/>
<path d="M669 694.742H672V697.748H669V694.742Z" fill="#CCE2DE"/>
<path d="M669 584.508H672V587.515H669V584.508Z" fill="#CCE2DE"/>
<path d="M680 694.742H683V697.748H680V694.742Z" fill="#CCE2DE"/>
<path d="M680 584.508H683V587.515H680V584.508Z" fill="#CCE2DE"/>
<path d="M691 694.742H694V697.748H691V694.742Z" fill="#CCE2DE"/>
<path d="M691 584.508H694V587.515H691V584.508Z" fill="#CCE2DE"/>
<path d="M702 694.742H705V697.748H702V694.742Z" fill="#CCE2DE"/>
<path d="M702 584.508H705V587.515H702V584.508Z" fill="#CCE2DE"/>
<path d="M713 694.742H716V697.748H713V694.742Z" fill="#CCE2DE"/>
<path d="M713 584.508H716V587.515H713V584.508Z" fill="#CCE2DE"/>
<path d="M504 704.763H507V707.769H504V704.763Z" fill="#CCE2DE"/>
<path d="M504 594.529H507V597.536H504V594.529Z" fill="#CCE2DE"/>
<path d="M515 704.763H518V707.769H515V704.763Z" fill="#CCE2DE"/>
<path d="M515 594.529H518V597.536H515V594.529Z" fill="#CCE2DE"/>
<path d="M526 704.763H529V707.769H526V704.763Z" fill="#CCE2DE"/>
<path d="M526 594.529H529V597.536H526V594.529Z" fill="#CCE2DE"/>
<path d="M537 704.763H540V707.769H537V704.763Z" fill="#CCE2DE"/>
<path d="M537 594.529H540V597.536H537V594.529Z" fill="#CCE2DE"/>
<path d="M548 704.763H551V707.769H548V704.763Z" fill="#CCE2DE"/>
<path d="M548 594.529H551V597.536H548V594.529Z" fill="#CCE2DE"/>
<path d="M559 704.763H562V707.769H559V704.763Z" fill="#CCE2DE"/>
<path d="M559 594.529H562V597.536H559V594.529Z" fill="#CCE2DE"/>
<path d="M570 704.763H573V707.769H570V704.763Z" fill="#CCE2DE"/>
<path d="M570 594.529H573V597.536H570V594.529Z" fill="#CCE2DE"/>
<path d="M581 704.763H584V707.769H581V704.763Z" fill="#CCE2DE"/>
<path d="M581 594.529H584V597.536H581V594.529Z" fill="#CCE2DE"/>
<path d="M592 704.763H595V707.769H592V704.763Z" fill="#CCE2DE"/>
<path d="M592 594.529H595V597.536H592V594.529Z" fill="#CCE2DE"/>
<path d="M603 704.763H606V707.769H603V704.763Z" fill="#CCE2DE"/>
<path d="M603 594.529H606V597.536H603V594.529Z" fill="#CCE2DE"/>
<path d="M614 704.763H617V707.769H614V704.763Z" fill="#CCE2DE"/>
<path d="M614 594.529H617V597.536H614V594.529Z" fill="#CCE2DE"/>
<path d="M625 704.763H628V707.769H625V704.763Z" fill="#CCE2DE"/>
<path d="M625 594.529H628V597.536H625V594.529Z" fill="#CCE2DE"/>
<path d="M636 704.763H639V707.769H636V704.763Z" fill="#CCE2DE"/>
<path d="M636 594.529H639V597.536H636V594.529Z" fill="#CCE2DE"/>
<path d="M647 704.763H650V707.769H647V704.763Z" fill="#CCE2DE"/>
<path d="M647 594.529H650V597.536H647V594.529Z" fill="#CCE2DE"/>
<path d="M658 704.763H661V707.769H658V704.763Z" fill="#CCE2DE"/>
<path d="M658 594.529H661V597.536H658V594.529Z" fill="#CCE2DE"/>
<path d="M669 704.763H672V707.769H669V704.763Z" fill="#CCE2DE"/>
<path d="M669 594.529H672V597.536H669V594.529Z" fill="#CCE2DE"/>
<path d="M680 704.763H683V707.769H680V704.763Z" fill="#CCE2DE"/>
<path d="M680 594.529H683V597.536H680V594.529Z" fill="#CCE2DE"/>
<path d="M691 704.763H694V707.769H691V704.763Z" fill="#CCE2DE"/>
<path d="M691 594.529H694V597.536H691V594.529Z" fill="#CCE2DE"/>
<path d="M702 704.763H705V707.769H702V704.763Z" fill="#CCE2DE"/>
<path d="M702 594.529H705V597.536H702V594.529Z" fill="#CCE2DE"/>
<path d="M713 704.763H716V707.769H713V704.763Z" fill="#CCE2DE"/>
<path d="M713 594.529H716V597.536H713V594.529Z" fill="#CCE2DE"/>
<rect x="180.5" y="217.23" width="422" height="386.821" rx="4.5" fill="white" stroke="#E49B00"/>
<path d="M292.5 108V281.868H443M443 281.868V226.751M443 281.868H602.5M602.5 281.868V108M602.5 281.868H751.5V226.751" stroke="#475762" stroke-dasharray="2 3"/>
<path d="M526.044 263.58L265.651 264.265L266.094 434.098L526.487 433.414L526.044 263.58Z" fill="#475762"/>
<path d="M376.543 414.431L366.821 477.524L432.777 477.361L417.455 414.328L376.543 414.431Z" fill="#C9C9C9"/>
<path opacity="0.24" d="M400.048 566.027C513.88 565.728 606.106 545.146 606.041 520.057C605.975 494.968 513.643 474.871 399.812 475.17C285.98 475.469 193.754 496.051 193.819 521.14C193.885 546.23 286.217 566.326 400.048 566.027Z" fill="#E6E6E6"/>
<path opacity="0.06" d="M525.508 263.829L483 263.941L483.036 277.927L525.544 277.815L525.508 263.829Z" fill="black"/>
<path d="M444.527 466.243L351.755 466.487L351.808 486.761L444.58 486.517L444.527 466.243Z" fill="#E6E6E6"/>
<path d="M286.859 285.725C289.372 285.725 291.409 283.68 291.409 281.157C291.409 278.634 289.372 276.589 286.859 276.589C284.345 276.589 282.308 278.634 282.308 281.157C282.308 283.68 284.345 285.725 286.859 285.725Z" fill="white"/>
<path d="M300.422 285.695C302.935 285.695 304.973 283.65 304.973 281.127C304.973 278.604 302.935 276.559 300.422 276.559C297.909 276.559 295.872 278.604 295.872 281.127C295.872 283.65 297.909 285.695 300.422 285.695Z" fill="#1A78ED"/>
<path d="M313.188 285.665C315.701 285.665 317.738 283.62 317.738 281.097C317.738 278.574 315.701 276.529 313.188 276.529C310.675 276.529 308.637 278.574 308.637 281.097C308.637 283.62 310.675 285.665 313.188 285.665Z" fill="#FFD200"/>
<path d="M526.402 400.636L266.008 401.321L266.094 434.098L526.487 433.414L526.402 400.636Z" fill="#E6E6E6"/>
<path d="M399.045 426.312C403.958 426.312 407.94 422.314 407.94 417.383C407.94 412.452 403.958 408.455 399.045 408.455C394.133 408.455 390.151 412.452 390.151 417.383C390.151 422.314 394.133 426.312 399.045 426.312Z" fill="#A5A5A5"/>
<path d="M573.401 274.083L491.326 274.298L491.504 342.582L573.579 342.366L573.401 274.083Z" fill="#FD6F55"/>
<path d="M519.611 316.093L505.147 316.131L505.177 327.596L519.641 327.558L519.611 316.093Z" fill="white"/>
<path d="M540.396 309.231L525.932 309.269L525.979 327.556L540.444 327.518L540.396 309.231Z" fill="white"/>
<path d="M560.491 298.292L546.027 298.33L546.103 327.503L560.567 327.465L560.491 298.292Z" fill="white"/>
<path d="M511.343 311.037L520.474 298.415L534.273 301.782L548.96 286.995" stroke="#24285B" stroke-width="2" stroke-linecap="round" stroke-linejoin="round"/>
<path d="M545.621 287.01L549.684 286.09L549.285 290.258" stroke="#24285B" stroke-width="2" stroke-linecap="round" stroke-linejoin="round"/>
<path d="M449.69 276.151L333.027 276.458L333.051 285.608L449.714 285.302L449.69 276.151Z" fill="white"/>
<path d="M449.675 276.136L432.27 276.182L432.294 285.333L449.699 285.287L449.675 276.136Z" fill="#FEBF39"/>
<path d="M351.35 310.818L286.946 310.987L287.088 365.463L351.492 365.294L351.35 310.818Z" fill="#6EC1B1"/>
<path opacity="0.52" d="M287.08 365.473L304.796 331.064L319.718 356.901L333.178 340.393L351.485 365.31L287.08 365.473Z" fill="white"/>
<path d="M321.196 335.454C324.762 335.454 327.653 332.553 327.653 328.973C327.653 325.393 324.762 322.492 321.196 322.492C317.63 322.492 314.739 325.393 314.739 328.973C314.739 332.553 317.63 335.454 321.196 335.454Z" fill="white"/>
<path opacity="0.23" d="M333.277 372.149L305.22 372.223L305.236 378.571L333.294 378.497L333.277 372.149Z" fill="white"/>
<path opacity="0.06" d="M507.934 310.421L364.307 310.799L364.505 386.943L508.132 386.565L507.934 310.421Z" fill="white"/>
<path d="M441.096 317.79L372.304 317.971L372.321 324.616L441.114 324.435L441.096 317.79Z" fill="#FEBF39"/>
<path d="M441.225 372.725L372.433 372.906L372.45 379.551L441.242 379.37L441.225 372.725Z" fill="#FEBF39"/>
<path d="M496.629 332.431L372.328 332.758L372.345 339.402L496.647 339.076L496.629 332.431Z" fill="white"/>
<path opacity="0.65" d="M496.662 344.8L372.36 345.127L372.377 351.771L496.679 351.445L496.662 344.8Z" fill="white"/>
<path opacity="0.23" d="M496.694 357.081L372.392 357.407L372.409 364.052L496.711 363.725L496.694 357.081Z" fill="white"/>
<path d="M311.662 372.25L219.658 372.492L219.876 455.873L311.88 455.632L311.662 372.25Z" fill="#E6E6E6"/>
<path d="M311.699 391.99L219.695 392.232L219.861 455.858L311.865 455.617L311.699 391.99Z" fill="#F2F2F2"/>
<path d="M230.049 386.059C232.048 386.059 233.669 384.433 233.669 382.426C233.669 380.419 232.048 378.792 230.049 378.792C228.05 378.792 226.429 380.419 226.429 382.426C226.429 384.433 228.05 386.059 230.049 386.059Z" fill="#24285B"/>
<path d="M240.835 386.03C242.834 386.03 244.454 384.403 244.454 382.396C244.454 380.389 242.834 378.762 240.835 378.762C238.835 378.762 237.215 380.389 237.215 382.396C237.215 384.403 238.835 386.03 240.835 386.03Z" fill="#1A78ED"/>
<path d="M251 386C252.999 386 254.62 384.373 254.62 382.366C254.62 380.359 252.999 378.732 251 378.732C249.001 378.732 247.38 380.359 247.38 382.366C247.38 384.373 249.001 386 251 386Z" fill="#FFD200"/>
<path d="M268.39 403.976C267.435 403.424 266.381 403.067 265.288 402.925C264.195 402.783 263.085 402.858 262.021 403.148C260.957 403.437 259.961 403.934 259.089 404.611C258.217 405.287 257.486 406.13 256.939 407.09L242.622 432.14C242.037 433.101 241.649 434.17 241.482 435.284C241.314 436.398 241.372 437.534 241.65 438.626C241.928 439.717 242.421 440.741 243.1 441.638C243.78 442.534 244.631 443.285 245.605 443.846C246.578 444.406 247.654 444.765 248.768 444.901C249.882 445.037 251.011 444.947 252.09 444.637C253.169 444.327 254.175 443.803 255.049 443.096C255.922 442.389 256.645 441.513 257.176 440.52L271.493 415.47C272.599 413.532 272.893 411.233 272.312 409.078C271.73 406.923 270.319 405.087 268.39 403.976Z" fill="#FEBF39"/>
<path opacity="0.46" d="M268.39 403.976C267.435 403.424 266.381 403.067 265.288 402.925C264.195 402.783 263.085 402.858 262.021 403.148C260.957 403.437 259.961 403.934 259.089 404.611C258.217 405.287 257.486 406.13 256.939 407.09L242.622 432.14C242.037 433.101 241.649 434.17 241.482 435.284C241.314 436.398 241.372 437.534 241.65 438.626C241.928 439.717 242.421 440.741 243.1 441.638C243.78 442.534 244.631 443.285 245.605 443.846C246.578 444.406 247.654 444.765 248.768 444.901C249.882 445.037 251.011 444.947 252.09 444.637C253.169 444.327 254.175 443.803 255.049 443.096C255.922 442.389 256.645 441.513 257.176 440.52L271.493 415.47C272.599 413.532 272.893 411.233 272.312 409.078C271.73 406.923 270.319 405.087 268.39 403.976Z" fill="white"/>
<path d="M258.047 434.128C257.684 432.796 256.999 431.574 256.054 430.57C255.108 429.567 253.931 428.813 252.626 428.374C251.321 427.936 249.929 427.827 248.572 428.057C247.215 428.287 245.936 428.849 244.847 429.693C243.758 430.537 242.893 431.638 242.328 432.898C241.763 434.157 241.516 435.537 241.609 436.915C241.702 438.293 242.131 439.627 242.859 440.799C243.588 441.971 244.592 442.945 245.784 443.635C247.223 444.467 248.875 444.851 250.532 444.739C252.188 444.627 253.774 444.023 255.088 443.004C256.402 441.986 257.385 440.598 257.912 439.018C258.439 437.437 258.486 435.735 258.047 434.128Z" fill="#A0ED83"/>
<path d="M286.12 432.022L271.67 407.046C271.136 406.052 270.41 405.177 269.532 404.471C268.655 403.765 267.646 403.243 266.564 402.937C265.482 402.63 264.349 402.545 263.234 402.686C262.118 402.827 261.043 403.192 260.07 403.758C259.098 404.325 258.249 405.081 257.574 405.984C256.898 406.886 256.411 407.915 256.139 409.01C255.868 410.106 255.818 411.244 255.994 412.359C256.17 413.474 256.566 414.542 257.161 415.5L271.611 440.49C272.159 441.459 272.892 442.308 273.769 442.99C274.646 443.672 275.649 444.172 276.72 444.462C277.791 444.753 278.908 444.827 280.008 444.681C281.108 444.535 282.168 444.172 283.126 443.612C284.085 443.052 284.924 442.307 285.595 441.42C286.265 440.533 286.753 439.521 287.032 438.444C287.31 437.366 287.373 436.243 287.216 435.141C287.06 434.039 286.687 432.979 286.12 432.022Z" fill="#FEBF39"/>
<path d="M258.047 434.128C257.684 432.796 256.999 431.574 256.054 430.57C255.108 429.567 253.931 428.813 252.626 428.374C251.321 427.936 249.929 427.827 248.572 428.057C247.215 428.287 245.936 428.849 244.847 429.693C243.758 430.537 242.893 431.638 242.328 432.898C241.763 434.157 241.516 435.537 241.609 436.915C241.702 438.293 242.131 439.627 242.859 440.799C243.588 441.971 244.592 442.945 245.784 443.635C247.223 444.467 248.875 444.851 250.532 444.739C252.188 444.627 253.774 444.023 255.088 443.004C256.402 441.986 257.385 440.598 257.912 439.018C258.439 437.437 258.486 435.735 258.047 434.128Z" fill="#FEBF39"/>
<path opacity="0.06" d="M258.047 434.128C257.684 432.796 256.999 431.574 256.054 430.57C255.108 429.567 253.931 428.813 252.626 428.374C251.321 427.936 249.929 427.827 248.572 428.057C247.215 428.287 245.936 428.849 244.847 429.693C243.758 430.537 242.893 431.638 242.328 432.898C241.763 434.157 241.516 435.537 241.609 436.915C241.702 438.293 242.131 439.627 242.859 440.799C243.588 441.971 244.592 442.945 245.784 443.635C247.223 444.467 248.875 444.851 250.532 444.739C252.188 444.627 253.774 444.023 255.088 443.004C256.402 441.986 257.385 440.598 257.912 439.018C258.439 437.437 258.486 435.735 258.047 434.128Z" fill="black"/>
<path opacity="0.06" d="M325.476 372.214L311.662 372.25L311.823 433.978L325.637 433.942L325.476 372.214Z" fill="black"/>
<path d="M513.064 477.672V486.334C513.064 490.264 524.012 493.409 537.458 493.349C550.903 493.29 561.807 490.057 561.792 486.126V477.465L513.064 477.672Z" fill="#FFD200"/>
<path d="M513.108 488.114V496.79C513.108 500.721 524.056 503.85 537.502 503.791C550.947 503.731 561.851 500.513 561.836 496.583V487.906L513.108 488.114Z" fill="#FFD200"/>
<path opacity="0.08" d="M513.108 488.114V496.79C513.108 500.721 524.056 503.85 537.502 503.791C550.947 503.731 561.851 500.513 561.836 496.583V487.906L513.108 488.114Z" fill="black"/>
<path d="M537.72 494.786C551.053 494.73 561.849 491.53 561.833 487.64C561.816 483.749 550.994 480.64 537.661 480.696C524.328 480.752 513.532 483.952 513.548 487.843C513.565 491.733 524.387 494.842 537.72 494.786Z" fill="#FFD200"/>
<path opacity="0.08" d="M513.064 477.672V486.334C513.064 490.264 524.012 493.409 537.458 493.349C550.903 493.29 561.807 490.057 561.792 486.126V477.465L513.064 477.672Z" fill="black"/>
<path d="M514.793 467.306V475.967C514.793 479.898 525.741 483.042 539.186 482.983C552.631 482.923 563.535 479.69 563.521 475.76V467.098L514.793 467.306Z" fill="#FFD200"/>
<path d="M512.975 456.864V465.526C512.975 469.456 523.924 472.6 537.369 472.541C550.814 472.482 561.718 469.249 561.703 465.318V456.657L512.975 456.864Z" fill="#FFD200"/>
<path d="M537.677 484.434C551.01 484.378 561.806 481.179 561.789 477.288C561.773 473.397 550.951 470.289 537.618 470.345C524.284 470.401 513.489 473.6 513.505 477.491C513.521 481.382 524.343 484.491 537.677 484.434Z" fill="#FFD200"/>
<path opacity="0.08" d="M514.793 467.306V475.967C514.793 479.898 525.741 483.042 539.186 482.983C552.631 482.923 563.535 479.69 563.521 475.76V467.098L514.793 467.306Z" fill="black"/>
<path d="M539.392 474.164C552.725 474.108 563.521 470.908 563.505 467.018C563.488 463.127 552.667 460.018 539.333 460.074C526 460.13 515.204 463.33 515.22 467.221C515.237 471.111 526.059 474.22 539.392 474.164Z" fill="#FFD200"/>
<path opacity="0.08" d="M512.975 456.864V465.526C512.975 469.456 523.924 472.6 537.369 472.541C550.814 472.482 561.718 469.249 561.703 465.318V456.657L512.975 456.864Z" fill="black"/>
<path opacity="0.08" d="M514.01 505.482C523.997 505.482 532.094 497.354 532.094 487.328C532.094 477.302 523.997 469.174 514.01 469.174C504.022 469.174 495.925 477.302 495.925 487.328C495.925 497.354 504.022 505.482 514.01 505.482Z" fill="black"/>
<path opacity="0.08" d="M526.007 469.115C526.007 469.115 544.949 474.87 541.979 503.658C541.979 503.658 529.642 504.102 523.776 502.619C518.531 501.27 526.007 469.115 526.007 469.115Z" fill="black"/>
<path d="M537.354 463.82C550.81 463.764 561.705 460.564 561.689 456.673C561.672 452.782 550.751 449.674 537.295 449.731C523.84 449.787 512.945 452.987 512.961 456.878C512.977 460.769 523.899 463.877 537.354 463.82Z" fill="#FFD200"/>
<path d="M514.01 505.482C523.997 505.482 532.094 497.354 532.094 487.328C532.094 477.302 523.997 469.174 514.01 469.174C504.022 469.174 495.925 477.302 495.925 487.328C495.925 497.354 504.022 505.482 514.01 505.482Z" fill="#FFD200"/>
<path opacity="0.08" d="M514.01 505.482C523.997 505.482 532.094 497.354 532.094 487.328C532.094 477.302 523.997 469.174 514.01 469.174C504.022 469.174 495.925 477.302 495.925 487.328C495.925 497.354 504.022 505.482 514.01 505.482Z" fill="black"/>
<g opacity="0.08">
<path opacity="0.08" d="M513.123 500.009C523.111 500.009 531.208 491.881 531.208 481.855C531.208 471.829 523.111 463.702 513.123 463.702C503.135 463.702 495.038 471.829 495.038 481.855C495.038 491.881 503.135 500.009 513.123 500.009Z" fill="black"/>
</g>
<path d="M513.123 500.009C523.111 500.009 531.208 491.881 531.208 481.855C531.208 471.829 523.111 463.702 513.123 463.702C503.135 463.702 495.038 471.829 495.038 481.855C495.038 491.881 503.135 500.009 513.123 500.009Z" fill="#FFD200"/>
<path d="M513.847 472.319C514.349 472.319 514.512 472.497 514.512 473.016V474.098C515.412 474.194 516.269 474.533 516.992 475.079C517.715 475.625 518.277 476.357 518.619 477.198C518.885 477.732 518.767 478.029 518.176 478.296L517.083 478.785C516.58 479.037 516.329 478.919 516.034 478.385C515.803 477.831 515.401 477.367 514.888 477.06C514.375 476.753 513.777 476.62 513.182 476.679C511.291 476.679 510.434 477.243 510.434 478.518C510.475 478.897 510.644 479.251 510.913 479.52C511.182 479.79 511.534 479.96 511.912 480.001C512.485 480.147 513.068 480.256 513.655 480.327C514.662 480.372 515.657 480.562 516.61 480.891C517.085 481.052 517.53 481.293 517.925 481.603C518.32 482.019 518.629 482.51 518.832 483.048C519.035 483.585 519.128 484.158 519.107 484.732C519.107 487.165 517.496 488.811 514.674 489.182V490.353C514.674 490.858 514.527 491.036 514.01 491.051H512.783C512.281 491.051 512.104 490.873 512.089 490.353V489.226C511.095 489.159 510.144 488.797 509.355 488.188C508.566 487.578 507.975 486.747 507.656 485.8C507.464 485.311 507.656 484.985 508.159 484.777L509.252 484.376C509.799 484.169 510.05 484.302 510.301 484.866C510.532 485.452 510.943 485.949 511.474 486.285C512.005 486.621 512.63 486.779 513.256 486.735C515.31 486.735 516.329 486.067 516.314 484.762C516.334 484.457 516.249 484.154 516.075 483.904C515.9 483.653 515.646 483.469 515.354 483.383C514.647 483.125 513.904 482.98 513.153 482.953C512.14 482.897 511.143 482.682 510.198 482.315C509.411 482.073 508.732 481.566 508.274 480.88C507.817 480.193 507.609 479.37 507.686 478.548C507.686 476.145 509.163 474.528 512.045 474.098V473.001C512.045 472.497 512.222 472.319 512.739 472.304L513.847 472.319Z" fill="white"/>
<path d="M607.5 281.366C607.5 284.138 605.258 286.38 602.5 286.38C599.742 286.38 597.5 284.138 597.5 281.366C597.5 278.594 599.742 276.353 602.5 276.353C605.258 276.353 607.5 278.594 607.5 281.366Z" fill="white" stroke="#1A78ED" stroke-width="3"/>
<path d="M826.013 377.385C824.998 378.088 823.594 377.711 823.066 376.594L818.763 367.484C818.035 365.943 819.442 364.257 821.087 364.699L833.662 368.075C835.307 368.517 835.684 370.682 834.285 371.652L826.013 377.385Z" fill="#6EC1B1"/>
<path d="M740.268 426.054L740.269 426.054L733.68 422.041L737.678 415.45C738.007 414.908 737.844 414.187 737.302 413.857L736.459 413.344C735.918 413.014 735.203 413.2 734.874 413.742L730.876 420.333L724.287 416.319C723.746 415.99 723.04 416.16 722.71 416.703L722.195 417.552C721.866 418.095 722.042 418.8 722.583 419.129L729.172 423.143L725.16 429.757C724.831 430.3 725.011 430.997 725.552 431.327L726.395 431.841C726.936 432.17 727.635 432.007 727.964 431.465L731.976 424.851L738.564 428.864C739.105 429.193 739.812 429.025 740.14 428.483L740.656 427.633C740.985 427.091 740.81 426.383 740.268 426.054Z" fill="#FD6F55"/>
<path d="M781.195 437.003L781.196 437.004L774.607 432.99L778.604 426.4C778.933 425.857 778.77 425.137 778.229 424.807L777.386 424.293C776.845 423.964 776.129 424.149 775.8 424.692L771.803 431.283L765.214 427.269C764.673 426.94 763.966 427.11 763.637 427.652L763.122 428.502C762.793 429.044 762.968 429.749 763.51 430.079L770.099 434.092L766.087 440.707C765.758 441.249 765.937 441.947 766.479 442.277L767.322 442.79C767.863 443.12 768.562 442.957 768.891 442.415L772.903 435.8L779.491 439.813C780.032 440.143 780.738 439.975 781.067 439.433L781.583 438.583C781.912 438.04 781.736 437.333 781.195 437.003Z" fill="#FFC854"/>
<g filter="url(#filter2_dd)">
<path d="M671 524.381C671 541.621 667.612 558.691 661.028 574.619C654.444 590.546 644.795 605.018 632.63 617.208C620.466 629.399 606.024 639.068 590.131 645.666C574.238 652.263 557.203 655.659 540 655.659V524.381H671Z" fill="#6EC1B1"/>
</g>
<path d="M140.5 41.3584C147.404 41.3584 153 46.9667 153 53.8849C153 60.8031 147.404 66.4114 140.5 66.4114C133.596 66.4114 128 60.8031 128 53.8849C128 46.9667 133.596 41.3584 140.5 41.3584Z" stroke="#6EC1B1" stroke-width="3"/>
<ellipse cx="173.5" cy="84.9513" rx="6.5" ry="6.51379" fill="#FD6F55"/>
<ellipse cx="505.5" cy="30.8361" rx="6.5" ry="6.51379" fill="#1A78ED"/>
<g filter="url(#filter3_dd)">
<rect x="717" y="134.556" width="84" height="84.1782" rx="10" fill="#A1C6F3"/>
</g>
<rect x="710.5" y="143.073" width="82" height="83.1782" rx="9.5" fill="white" stroke="#1A78ED"/>
<g clip-path="url(#clip0)">
<path d="M736.446 189.624C736.753 189.83 737.1 189.929 737.444 189.929C738.023 189.929 738.592 189.648 738.939 189.129C741.842 184.781 746.696 182.186 751.922 182.186C757.133 182.186 761.978 184.769 764.884 189.097C765.438 189.923 766.555 190.142 767.378 189.586C768.201 189.031 768.42 187.912 767.866 187.087C765.544 183.629 762.216 181.078 758.413 179.713C760.693 177.846 762.152 175.006 762.152 171.832C762.152 166.222 757.598 161.658 752 161.658C746.402 161.658 741.848 166.222 741.848 171.832C741.848 174.984 743.285 177.805 745.538 179.673C741.675 181.033 738.297 183.615 735.952 187.126C735.4 187.953 735.621 189.071 736.446 189.624ZM752 165.259C755.616 165.259 758.559 168.208 758.559 171.832C758.559 175.456 755.616 178.404 752 178.404C748.384 178.404 745.441 175.456 745.441 171.832C745.441 168.208 748.384 165.259 752 165.259ZM759.166 193.542L756.487 195.478C756.088 195.766 755.922 196.277 756.074 196.743L757.153 199.877C757.198 200.016 757.216 200.152 757.21 200.282C757.172 201.124 756.119 201.7 755.347 201.142L752.669 199.205C752.469 199.06 752.235 198.988 752 198.988C751.766 198.988 751.531 199.06 751.332 199.205L748.653 201.142C747.881 201.7 746.823 201.124 746.79 200.282C746.785 200.152 746.803 200.016 746.848 199.877L747.926 196.743C748.079 196.277 747.912 195.766 747.513 195.478L744.834 193.542C743.943 192.897 744.401 191.369 745.503 191.369H748.814C749.307 191.369 749.743 191.179 749.895 190.713L750.919 187.559C751.089 187.038 751.544 186.777 752 186.777C752.456 186.777 752.911 187.038 753.082 187.559L754.105 190.713C754.257 191.179 754.694 191.369 755.186 191.369H758.497C759.599 191.369 760.057 192.897 759.166 193.542ZM774.529 199.844L771.85 201.781C771.452 202.069 771.285 202.579 771.437 203.046L772.516 206.179C772.561 206.319 772.579 206.455 772.573 206.585C772.535 207.426 771.482 208.002 770.711 207.444L768.032 205.507C767.833 205.363 767.598 205.291 767.363 205.291C767.129 205.291 766.894 205.363 766.695 205.507L764.016 207.444C763.244 208.002 762.187 207.426 762.153 206.585C762.148 206.455 762.166 206.318 762.212 206.179L763.289 203.046C763.442 202.579 763.275 202.069 762.876 201.781L760.198 199.844C759.306 199.2 759.764 197.671 760.866 197.671H764.177C764.67 197.671 765.106 197.481 765.259 197.015L766.282 193.862C766.452 193.34 766.908 193.08 767.363 193.08C767.819 193.08 768.275 193.34 768.445 193.862L769.468 197.015C769.62 197.481 770.057 197.671 770.55 197.671H773.861C774.962 197.671 775.42 199.2 774.529 199.844ZM743.802 199.844L741.124 201.781C740.725 202.069 740.558 202.579 740.711 203.046L741.789 206.179C741.835 206.319 741.852 206.455 741.847 206.585C741.808 207.426 740.756 208.002 739.984 207.444L737.305 205.507C737.106 205.363 736.871 205.291 736.637 205.291C736.402 205.291 736.168 205.363 735.968 205.507L733.29 207.444C732.518 208.002 731.46 207.426 731.427 206.585C731.422 206.455 731.44 206.318 731.485 206.179L732.563 203.046C732.715 202.579 732.548 202.069 732.15 201.781L729.471 199.844C728.58 199.2 729.038 197.671 730.139 197.671H733.451C733.943 197.671 734.38 197.481 734.532 197.015L735.555 193.862C735.725 193.34 736.181 193.08 736.637 193.08C737.092 193.08 737.548 193.34 737.718 193.862L738.741 197.015C738.894 197.481 739.33 197.671 739.823 197.671H743.134C744.236 197.671 744.694 199.2 743.802 199.844Z" fill="#1A78ED"/>
</g>
<g filter="url(#filter4_dd)">
<rect x="566" y="16.3057" width="84" height="84.1782" rx="10" fill="#FFE3A7"/>
</g>
<rect x="559.5" y="24.8228" width="82" height="83.1782" rx="9.5" fill="white" stroke="#FFC854"/>
<g clip-path="url(#clip1)">
<path d="M622.203 68.7508C623.196 68.7508 624 67.9446 624 66.9501V48.7662C624 47.0112 623.145 45.3601 621.713 44.3495C620.281 43.3389 618.442 43.0887 616.793 43.6798C616.743 43.698 616.693 43.7185 616.644 43.7412L602.248 50.4209C599.079 51.8913 595.701 52.6473 592.209 52.6677L585.182 52.7087C581.221 52.712 578 55.9419 578 59.9116V64.5933C578 67.7875 580.106 70.5372 583.031 71.4625V83.9856C583.031 85.4509 583.632 86.8825 584.681 87.913C585.697 88.9122 587.022 89.4587 588.423 89.4587C588.457 89.4587 588.492 89.4584 588.526 89.4577C589.944 89.4306 591.273 88.8567 592.268 87.8418C593.264 86.8255 593.812 85.4813 593.812 84.0566V71.7899C596.845 72.0189 599.843 72.8233 602.577 74.1502L616.599 80.9558C616.654 80.9826 616.71 81.0065 616.768 81.0276C618.419 81.629 620.264 81.3848 621.702 80.3748C623.141 79.3647 624 77.7108 624 75.9504C624 74.9558 623.196 74.1497 622.203 74.1497C621.211 74.1497 620.406 74.9558 620.406 75.9504C620.406 76.5459 620.127 77.0834 619.64 77.4252C619.175 77.7521 618.606 77.8388 618.068 77.6676L604.144 70.909C600.925 69.3465 597.386 68.4149 593.812 68.1799V56.2156C597.261 56.0019 600.6 55.1545 603.758 53.6891L618.068 47.0492C618.607 46.8776 619.178 46.9652 619.644 47.2941C620.128 47.636 620.406 48.1726 620.406 48.7664V66.9503C620.406 67.9446 621.211 68.7508 622.203 68.7508ZM590.219 84.0566C590.219 85.0307 589.429 85.8383 588.458 85.8569C587.993 85.8657 587.544 85.6831 587.197 85.3422C586.834 84.9845 586.625 84.49 586.625 83.9855V69.9819C586.625 69.0339 585.892 68.2483 584.948 68.1852C583.067 68.0595 581.594 66.4817 581.594 64.5933V59.9116C581.594 57.9258 583.206 56.3102 585.188 56.3102H585.198L590.219 56.2808V84.0566Z" fill="#FFC854"/>
</g>
<g filter="url(#filter5_dd)">
<rect x="15" y="503.336" width="429" height="140.297" rx="5" fill="#FD6F55"/>
</g>
<rect x="6.5" y="513.857" width="428" height="139.297" rx="4.5" fill="white" stroke="#D72100"/>
<path d="M53.7509 555.012H49.4669V571H46.6109V555.012H42.3269V552.324H53.7509V555.012ZM55.8143 560.668C57.0277 559.492 58.5303 558.904 60.3223 558.904C62.1143 558.904 63.6077 559.492 64.8023 560.668C66.0157 561.825 66.6223 563.309 66.6223 565.12C66.6223 566.912 66.0157 568.405 64.8023 569.6C63.6077 570.776 62.1143 571.364 60.3223 571.364C58.5303 571.364 57.0277 570.776 55.8143 569.6C54.6197 568.405 54.0223 566.912 54.0223 565.12C54.0223 563.309 54.6197 561.825 55.8143 560.668ZM57.7743 567.892C58.409 568.564 59.2583 568.9 60.3223 568.9C61.3863 568.9 62.2357 568.564 62.8703 567.892C63.505 567.201 63.8223 566.287 63.8223 565.148C63.8223 563.897 63.477 562.955 62.7863 562.32C62.1143 561.685 61.293 561.368 60.3223 561.368C59.3517 561.368 58.521 561.685 57.8303 562.32C57.1583 562.955 56.8223 563.897 56.8223 565.148C56.8223 566.287 57.1397 567.201 57.7743 567.892ZM68.142 571L70.998 558.148L75.87 567.136L80.742 558.148L83.598 571H80.798L79.622 565.092L75.87 571.896L72.118 565.092L70.942 571H68.142ZM84.8602 577.412L89.2002 569.152L84.1602 559.212H87.4642L90.8242 566.1L94.2402 559.212H97.3202L87.9402 577.412H84.8602ZM96.905 574.612L99.761 567.5L102.225 568.452L98.753 575.368L96.905 574.612ZM113.865 559.212H116.609V563.412L120.529 559.212H124.169L119.017 564.364L124.449 571H120.977L117.057 566.156L116.609 566.604V571H113.865V559.212ZM134.645 561.732H131.201V571H128.457V561.732H125.013V559.212H134.645V561.732ZM137.49 560.668C138.703 559.492 140.206 558.904 141.998 558.904C143.79 558.904 145.283 559.492 146.478 560.668C147.691 561.825 148.298 563.309 148.298 565.12C148.298 566.912 147.691 568.405 146.478 569.6C145.283 570.776 143.79 571.364 141.998 571.364C140.206 571.364 138.703 570.776 137.49 569.6C136.295 568.405 135.698 566.912 135.698 565.12C135.698 563.309 136.295 561.825 137.49 560.668ZM139.45 567.892C140.085 568.564 140.934 568.9 141.998 568.9C143.062 568.9 143.911 568.564 144.546 567.892C145.181 567.201 145.498 566.287 145.498 565.148C145.498 563.897 145.153 562.955 144.462 562.32C143.79 561.685 142.969 561.368 141.998 561.368C141.027 561.368 140.197 561.685 139.506 562.32C138.834 562.955 138.498 563.897 138.498 565.148C138.498 566.287 138.815 567.201 139.45 567.892ZM158.705 559.212H167.553V568.48H169.345V574.36H166.825V571H158.593V574.36H156.073V568.48C157.025 568.424 157.744 567.911 158.229 566.94C158.546 566.249 158.705 565.213 158.705 563.832V559.212ZM164.809 568.48V561.732H161.337V564.868C161.337 566.567 160.88 567.771 159.965 568.48H164.809ZM179.574 567.024L181.87 568.312C181.347 569.245 180.685 569.964 179.882 570.468C178.967 571.065 177.81 571.364 176.41 571.364C174.767 571.364 173.442 570.86 172.434 569.852C171.277 568.695 170.698 567.192 170.698 565.344C170.698 563.403 171.323 561.788 172.574 560.5C173.638 559.436 174.954 558.904 176.522 558.904C178.053 558.904 179.313 559.417 180.302 560.444C181.403 561.583 181.954 563.244 181.954 565.428V565.764H173.498C173.573 566.753 173.909 567.547 174.506 568.144C175.01 568.648 175.71 568.9 176.606 568.9C177.334 568.9 177.959 568.704 178.482 568.312C178.911 567.976 179.275 567.547 179.574 567.024ZM173.694 563.524H179.154C179.042 562.871 178.762 562.339 178.314 561.928C177.829 561.48 177.213 561.256 176.466 561.256C175.682 561.256 175.038 561.508 174.534 562.012C174.123 562.385 173.843 562.889 173.694 563.524ZM194.51 559.212V571H191.766V561.732H188.294V566.408C188.294 567.864 187.921 568.993 187.174 569.796C186.222 570.86 184.934 571.261 183.31 571V568.48C184.113 568.667 184.757 568.489 185.242 567.948C185.522 567.612 185.662 567.099 185.662 566.408V559.212H194.51ZM206.598 560.584V559.212H209.342V571H206.598V569.768C205.684 570.832 204.508 571.364 203.07 571.364C201.334 571.364 199.944 570.748 198.898 569.516C197.872 568.284 197.358 566.809 197.358 565.092C197.358 563.225 197.909 561.732 199.01 560.612C200.13 559.473 201.493 558.904 203.098 558.904C204.573 558.904 205.74 559.464 206.598 560.584ZM203.434 561.368C202.464 561.368 201.67 561.732 201.054 562.46C200.457 563.188 200.158 564.084 200.158 565.148C200.158 566.193 200.457 567.08 201.054 567.808C201.67 568.536 202.464 568.9 203.434 568.9C204.368 568.9 205.152 568.573 205.786 567.92C206.44 567.267 206.766 566.352 206.766 565.176C206.766 563.963 206.44 563.029 205.786 562.376C205.152 561.704 204.368 561.368 203.434 561.368ZM221.082 567.024L223.378 568.312C222.855 569.245 222.193 569.964 221.39 570.468C220.475 571.065 219.318 571.364 217.918 571.364C216.275 571.364 214.95 570.86 213.942 569.852C212.785 568.695 212.206 567.192 212.206 565.344C212.206 563.403 212.831 561.788 214.082 560.5C215.146 559.436 216.462 558.904 218.03 558.904C219.561 558.904 220.821 559.417 221.81 560.444C222.911 561.583 223.462 563.244 223.462 565.428V565.764H215.006C215.081 566.753 215.417 567.547 216.014 568.144C216.518 568.648 217.218 568.9 218.114 568.9C218.842 568.9 219.467 568.704 219.99 568.312C220.419 567.976 220.783 567.547 221.082 567.024ZM215.202 563.524H220.662C220.55 562.871 220.27 562.339 219.822 561.928C219.337 561.48 218.721 561.256 217.974 561.256C217.19 561.256 216.546 561.508 216.042 562.012C215.631 562.385 215.351 562.889 215.202 563.524ZM234.45 561.732H231.006V571H228.262V561.732H224.818V559.212H234.45V561.732ZM252.083 559.744V562.824C251.093 561.853 249.983 561.368 248.751 561.368C247.705 561.368 246.837 561.713 246.147 562.404C245.475 563.076 245.139 563.981 245.139 565.12C245.139 566.296 245.493 567.239 246.203 567.948C246.875 568.583 247.705 568.9 248.695 568.9C250.057 568.9 251.187 568.396 252.083 567.388V570.44C251.093 571.056 249.899 571.364 248.499 571.364C246.613 571.364 245.12 570.785 244.019 569.628C242.899 568.471 242.339 566.996 242.339 565.204C242.339 563.356 242.936 561.835 244.131 560.64C245.288 559.483 246.865 558.904 248.863 558.904C250.001 558.904 251.075 559.184 252.083 559.744ZM254.713 559.212H257.457V563.412L261.377 559.212H265.017L259.865 564.364L265.297 571H261.825L257.905 566.156L257.457 566.604V571H254.713V559.212ZM267.099 559.212H269.843V565.904L277.907 558.148V571H275.163V564.14L267.099 571.896V559.212ZM282.381 559.212H291.229V568.48H293.021V574.36H290.501V571H282.269V574.36H279.749V568.48C280.701 568.424 281.419 567.911 281.905 566.94C282.222 566.249 282.381 565.213 282.381 563.832V559.212ZM288.485 568.48V561.732H285.013V564.868C285.013 566.567 284.555 567.771 283.641 568.48H288.485ZM294.99 559.212H297.734V563.412L301.654 559.212H305.294L300.142 564.364L305.574 571H302.102L298.182 566.156L297.734 566.604V571H294.99V559.212ZM307.377 559.212H310.121V565.904L318.185 558.148V571H315.441V564.14L307.377 571.896V559.212ZM320.194 574.612L323.05 567.5L325.514 568.452L322.042 575.368L320.194 574.612ZM337.378 566.296V563.776H356.978V566.296H337.378ZM365.861 571L368.717 558.148L373.589 567.136L378.461 558.148L381.317 571H378.517L377.341 565.092L373.589 571.896L369.837 565.092L368.661 571H365.861ZM383.447 571V559.212H386.191V563.384H387.759C388.263 563.384 388.674 563.403 388.991 563.44C389.308 563.459 389.691 563.561 390.139 563.748C390.587 563.935 390.979 564.215 391.315 564.588C391.931 565.279 392.239 566.137 392.239 567.164C392.239 568.34 391.884 569.283 391.175 569.992C390.858 570.309 390.475 570.552 390.027 570.72C389.598 570.869 389.234 570.953 388.935 570.972C388.655 570.991 388.254 571 387.731 571H383.447ZM386.191 568.648H387.451C388.123 568.648 388.599 568.564 388.879 568.396C389.29 568.097 389.495 567.696 389.495 567.192C389.495 566.669 389.299 566.277 388.907 566.016C388.608 565.829 388.132 565.736 387.479 565.736H386.191V568.648ZM393.471 571V559.212H396.215V571H393.471ZM110.187 594.212H120.435V606H117.691V596.732H112.931V606H110.187V594.212ZM126.658 604.628V612.412H123.914V594.212H126.658V595.5C127.554 594.436 128.72 593.904 130.158 593.904C131.763 593.904 133.116 594.473 134.218 595.612C135.338 596.732 135.898 598.207 135.898 600.036C135.898 601.921 135.319 603.452 134.162 604.628C133.004 605.785 131.679 606.364 130.186 606.364C128.786 606.364 127.61 605.785 126.658 604.628ZM129.822 596.368C128.888 596.368 128.095 596.704 127.442 597.376C126.807 598.029 126.49 598.963 126.49 600.176C126.49 601.352 126.807 602.267 127.442 602.92C128.095 603.573 128.888 603.9 129.822 603.9C130.792 603.9 131.576 603.536 132.174 602.808C132.79 602.08 133.098 601.193 133.098 600.148C133.098 599.084 132.79 598.188 132.174 597.46C131.576 596.732 130.792 596.368 129.822 596.368ZM138.761 594.212H141.505V600.904L149.569 593.148V606H146.825V599.14L138.761 606.896V594.212ZM153.035 594.212H157.655C158.831 594.212 159.727 594.445 160.343 594.912C161.071 595.491 161.435 596.247 161.435 597.18C161.435 598.244 160.968 599.009 160.035 599.476C160.632 599.588 161.164 599.849 161.631 600.26C162.247 600.82 162.555 601.576 162.555 602.528C162.555 603.667 162.125 604.563 161.267 605.216C160.557 605.739 159.652 606 158.551 606H153.035V594.212ZM155.779 598.804H157.179C157.664 598.804 158.028 598.72 158.271 598.552C158.625 598.328 158.803 598.011 158.803 597.6C158.803 597.208 158.644 596.9 158.327 596.676C158.103 596.527 157.701 596.452 157.123 596.452H155.779V598.804ZM155.779 603.76H157.823C158.439 603.76 158.915 603.648 159.251 603.424C159.624 603.181 159.811 602.836 159.811 602.388C159.811 601.903 159.633 601.557 159.279 601.352C158.961 601.147 158.504 601.044 157.907 601.044H155.779V603.76ZM173.682 602.024L175.978 603.312C175.455 604.245 174.792 604.964 173.99 605.468C173.075 606.065 171.918 606.364 170.518 606.364C168.875 606.364 167.55 605.86 166.542 604.852C165.384 603.695 164.806 602.192 164.806 600.344C164.806 598.403 165.431 596.788 166.682 595.5C167.746 594.436 169.062 593.904 170.63 593.904C172.16 593.904 173.42 594.417 174.41 595.444C175.511 596.583 176.062 598.244 176.062 600.428V600.764H167.606C167.68 601.753 168.016 602.547 168.614 603.144C169.118 603.648 169.818 603.9 170.714 603.9C171.442 603.9 172.067 603.704 172.59 603.312C173.019 602.976 173.383 602.547 173.682 602.024ZM167.802 598.524H173.262C173.15 597.871 172.87 597.339 172.422 596.928C171.936 596.48 171.32 596.256 170.574 596.256C169.79 596.256 169.146 596.508 168.642 597.012C168.231 597.385 167.951 597.889 167.802 598.524ZM179.937 594.212H188.785V603.48H190.577V609.36H188.057V606H179.825V609.36H177.305V603.48C178.257 603.424 178.976 602.911 179.461 601.94C179.779 601.249 179.937 600.213 179.937 598.832V594.212ZM186.041 603.48V596.732H182.569V599.868C182.569 601.567 182.112 602.771 181.197 603.48H186.041ZM200.807 602.024L203.103 603.312C202.58 604.245 201.917 604.964 201.115 605.468C200.2 606.065 199.043 606.364 197.643 606.364C196 606.364 194.675 605.86 193.667 604.852C192.509 603.695 191.931 602.192 191.931 600.344C191.931 598.403 192.556 596.788 193.807 595.5C194.871 594.436 196.187 593.904 197.755 593.904C199.285 593.904 200.545 594.417 201.535 595.444C202.636 596.583 203.187 598.244 203.187 600.428V600.764H194.731C194.805 601.753 195.141 602.547 195.739 603.144C196.243 603.648 196.943 603.9 197.839 603.9C198.567 603.9 199.192 603.704 199.715 603.312C200.144 602.976 200.508 602.547 200.807 602.024ZM194.927 598.524H200.387C200.275 597.871 199.995 597.339 199.547 596.928C199.061 596.48 198.445 596.256 197.699 596.256C196.915 596.256 196.271 596.508 195.767 597.012C195.356 597.385 195.076 597.889 194.927 598.524ZM204.71 606L207.566 593.148L212.438 602.136L217.31 593.148L220.166 606H217.366L216.19 600.092L212.438 606.896L208.686 600.092L207.51 606H204.71ZM228.832 594.212H231.576V598.412L235.496 594.212H239.136L233.984 599.364L239.416 606H235.944L232.024 601.156L231.576 601.604V606H228.832V594.212ZM251.18 594.212V606H248.436V596.732H244.964V601.408C244.964 602.864 244.591 603.993 243.844 604.796C242.892 605.86 241.604 606.261 239.98 606V603.48C240.783 603.667 241.427 603.489 241.912 602.948C242.192 602.612 242.332 602.099 242.332 601.408V594.212H251.18ZM254.644 594.212H257.388V600.904L265.452 593.148V606H262.708V599.14L254.644 606.896V594.212ZM277.178 602.024L279.474 603.312C278.951 604.245 278.288 604.964 277.486 605.468C276.571 606.065 275.414 606.364 274.014 606.364C272.371 606.364 271.046 605.86 270.038 604.852C268.88 603.695 268.302 602.192 268.302 600.344C268.302 598.403 268.927 596.788 270.178 595.5C271.242 594.436 272.558 593.904 274.126 593.904C275.656 593.904 276.916 594.417 277.906 595.444C279.007 596.583 279.558 598.244 279.558 600.428V600.764H271.102C271.176 601.753 271.512 602.547 272.11 603.144C272.614 603.648 273.314 603.9 274.21 603.9C274.938 603.9 275.563 603.704 276.086 603.312C276.515 602.976 276.879 602.547 277.178 602.024ZM271.298 598.524H276.758C276.646 597.871 276.366 597.339 275.918 596.928C275.432 596.48 274.816 596.256 274.07 596.256C273.286 596.256 272.642 596.508 272.138 597.012C271.727 597.385 271.447 597.889 271.298 598.524ZM282.425 606V594.212H285.169V598.58H290.041V594.212H292.785V606H290.041V601.1H285.169V606H282.425ZM304.381 596.732H300.937V606H298.193V596.732H294.749V594.212H304.381V596.732ZM307.226 595.668C308.44 594.492 309.942 593.904 311.734 593.904C313.526 593.904 315.02 594.492 316.214 595.668C317.428 596.825 318.034 598.309 318.034 600.12C318.034 601.912 317.428 603.405 316.214 604.6C315.02 605.776 313.526 606.364 311.734 606.364C309.942 606.364 308.44 605.776 307.226 604.6C306.032 603.405 305.434 601.912 305.434 600.12C305.434 598.309 306.032 596.825 307.226 595.668ZM309.186 602.892C309.821 603.564 310.67 603.9 311.734 603.9C312.798 603.9 313.648 603.564 314.282 602.892C314.917 602.201 315.234 601.287 315.234 600.148C315.234 598.897 314.889 597.955 314.198 597.32C313.526 596.685 312.705 596.368 311.734 596.368C310.764 596.368 309.933 596.685 309.242 597.32C308.57 597.955 308.234 598.897 308.234 600.148C308.234 601.287 308.552 602.201 309.186 602.892ZM320.898 594.212H325.518C326.694 594.212 327.59 594.445 328.206 594.912C328.934 595.491 329.298 596.247 329.298 597.18C329.298 598.244 328.831 599.009 327.898 599.476C328.495 599.588 329.027 599.849 329.494 600.26C330.11 600.82 330.418 601.576 330.418 602.528C330.418 603.667 329.989 604.563 329.13 605.216C328.421 605.739 327.515 606 326.414 606H320.898V594.212ZM323.642 598.804H325.042C325.527 598.804 325.891 598.72 326.134 598.552C326.489 598.328 326.666 598.011 326.666 597.6C326.666 597.208 326.507 596.9 326.19 596.676C325.966 596.527 325.565 596.452 324.986 596.452H323.642V598.804ZM323.642 603.76H325.686C326.302 603.76 326.778 603.648 327.114 603.424C327.487 603.181 327.674 602.836 327.674 602.388C327.674 601.903 327.497 601.557 327.142 601.352C326.825 601.147 326.367 601.044 325.77 601.044H323.642V603.76Z" fill="#475762"/>
<g filter="url(#filter6_dd)">
<rect x="409" y="134.556" width="84" height="84.1782" rx="10" fill="#FFBBAF"/>
</g>
<rect x="402.5" y="143.073" width="82" height="83.1782" rx="9.5" fill="white" stroke="#FD6F55"/>
<path d="M465.933 181.559L463.872 178.872C463.836 178.636 463.842 178.168 463.845 177.874C463.847 177.746 463.849 177.62 463.849 177.5V174.1C463.849 171.879 462.342 170.064 459.916 169.364L456.526 168.386C456.197 168.291 455.909 168.084 455.717 167.804L453.729 164.908C452.429 163.013 450.005 162.229 447.836 163.002L444.503 164.189C444.179 164.305 443.821 164.305 443.497 164.189L440.164 163.002C437.995 162.229 435.572 163.013 434.271 164.908L432.284 167.804C432.101 168.07 431.833 168.269 431.525 168.371L427.993 169.114C427.95 169.123 427.908 169.134 427.865 169.146C425.618 169.795 424.095 171.842 424.152 174.131V177.621C424.152 177.742 424.154 177.869 424.157 178C424.162 178.259 424.171 178.682 424.127 178.855L422.065 181.562C420.644 183.39 420.645 185.936 422.067 187.763L424.132 190.458C424.17 190.621 424.162 191.036 424.157 191.343C424.154 191.501 424.152 191.662 424.152 191.826V195.322C424.1 197.468 425.604 199.243 428.084 199.958L431.474 200.937C431.804 201.032 432.091 201.239 432.284 201.519L434.271 204.414C435.236 205.821 436.82 206.616 438.46 206.616C439.029 206.616 439.605 206.52 440.164 206.321L443.497 205.133C443.821 205.018 444.179 205.018 444.503 205.133L447.836 206.321C448.395 206.52 448.971 206.616 449.54 206.616C451.179 206.616 452.764 205.821 453.729 204.414L455.717 201.519C455.909 201.239 456.196 201.032 456.526 200.937L459.916 199.958C462.12 199.322 463.921 196.795 463.848 194.441C463.817 193.447 462.984 192.664 461.996 192.697C461.004 192.728 460.225 193.559 460.256 194.553C460.277 195.247 459.542 196.319 458.922 196.498L455.532 197.476C454.404 197.802 453.419 198.513 452.756 199.478L450.768 202.374C450.389 202.927 449.678 203.155 449.04 202.928L445.707 201.74C444.606 201.348 443.394 201.348 442.293 201.74L438.96 202.928C438.322 203.155 437.612 202.927 437.232 202.374L435.244 199.478C434.582 198.513 433.596 197.802 432.469 197.476L429.079 196.498C428.94 196.458 427.723 196.087 427.744 195.403C427.745 195.384 427.745 195.366 427.745 195.347V191.826C427.745 191.683 427.748 191.543 427.75 191.406C427.766 190.468 427.787 189.301 427.006 188.296L424.913 185.564C424.91 185.56 424.906 185.555 424.903 185.551C424.493 185.027 424.493 184.296 424.903 183.772C424.907 183.766 424.912 183.76 424.916 183.754L427.008 181.007C427.792 179.995 427.767 178.75 427.75 177.926C427.747 177.821 427.745 177.719 427.745 177.621V174.106C427.745 174.087 427.745 174.069 427.744 174.05C427.725 173.423 428.17 172.83 428.809 172.622L432.341 171.879C432.384 171.869 432.426 171.859 432.469 171.847C433.596 171.521 434.582 170.81 435.244 169.845L437.232 166.949C437.611 166.396 438.322 166.168 438.96 166.395L442.293 167.583C443.394 167.975 444.606 167.975 445.707 167.583L449.04 166.395C449.678 166.168 450.389 166.396 450.768 166.949L452.756 169.845C453.418 170.81 454.404 171.521 455.532 171.847L458.922 172.825C459.42 172.969 460.255 173.326 460.255 174.1V177.5C460.255 177.606 460.254 177.716 460.252 177.829C460.239 178.877 460.223 180.172 461.042 181.092L463.087 183.759C463.091 183.764 463.094 183.768 463.097 183.772C463.507 184.296 463.507 185.027 463.097 185.551C462.485 186.334 462.623 187.465 463.404 188.079C464.185 188.692 465.314 188.554 465.926 187.771C467.356 185.943 467.358 183.39 465.933 181.559Z" fill="#FD6F55"/>
<path d="M438.457 195.261C438.729 195.408 439.021 195.478 439.31 195.478C439.948 195.478 440.567 195.136 440.892 194.533L450.604 176.528C451.076 175.653 450.751 174.56 449.878 174.088C449.005 173.615 447.915 173.941 447.443 174.815L437.731 192.821C437.259 193.696 437.584 194.788 438.457 195.261Z" fill="#FD6F55"/>
<path d="M441.035 178.372C441.035 175.89 439.02 173.871 436.543 173.871C434.067 173.871 432.051 175.89 432.051 178.372C432.051 180.854 434.067 182.873 436.543 182.873C439.02 182.873 441.035 180.854 441.035 178.372ZM436.543 179.272C436.048 179.272 435.645 178.868 435.645 178.372C435.645 177.876 436.048 177.472 436.543 177.472C437.039 177.472 437.442 177.876 437.442 178.372C437.442 178.868 437.039 179.272 436.543 179.272Z" fill="#FD6F55"/>
<path d="M451.367 195.477C453.843 195.477 455.859 193.458 455.859 190.976C455.859 188.494 453.843 186.475 451.367 186.475C448.89 186.475 446.875 188.494 446.875 190.976C446.875 193.458 448.89 195.477 451.367 195.477ZM451.367 190.076C451.862 190.076 452.265 190.48 452.265 190.976C452.265 191.472 451.862 191.876 451.367 191.876C450.871 191.876 450.468 191.472 450.468 190.976C450.468 190.48 450.871 190.076 451.367 190.076Z" fill="#FD6F55"/>
<g filter="url(#filter7_dd)">
<rect x="260" y="16.3057" width="84" height="84.1782" rx="10" fill="#B8E7DE"/>
</g>
<rect x="253.5" y="24.8228" width="82" height="83.1782" rx="9.5" fill="white" stroke="#6EC1B1"/>
<path d="M316.203 73.2558C317.196 73.2558 318 72.4497 318 71.4552V59.5706C318 55.599 314.776 52.368 310.812 52.368H303.079V50.0203C303.079 47.2917 300.864 45.0718 298.141 45.0718H291.859C289.136 45.0718 286.921 47.2917 286.921 50.0203V52.3679H279.188C275.224 52.3679 272 55.599 272 59.5706V80.5486C272 84.5202 275.224 87.7514 279.188 87.7514H310.812C314.776 87.7514 318 84.5202 318 80.5486C318 79.5541 317.196 78.7479 316.203 78.7479C315.211 78.7479 314.406 79.5541 314.406 80.5486C314.406 82.5344 312.794 84.15 310.812 84.15H279.188C277.206 84.15 275.594 82.5344 275.594 80.5486V67.7604H293.293V70.4648C293.293 71.4593 294.097 72.2655 295.09 72.2655C296.082 72.2655 296.887 71.4593 296.887 70.4648V67.7604H314.406V71.4552C314.406 72.4497 315.211 73.2558 316.203 73.2558ZM290.514 50.0203C290.514 49.2775 291.117 48.6731 291.859 48.6731H298.141C298.883 48.6731 299.486 49.2775 299.486 50.0203V52.3679H290.514V50.0203ZM275.594 64.1591V59.5707C275.594 57.5849 277.206 55.9693 279.188 55.9693H310.812C312.794 55.9693 314.406 57.5849 314.406 59.5707V64.1591H275.594Z" fill="#6EC1B1"/>
<defs>
<filter id="filter0_dd" x="82" y="238.802" width="176" height="176.271" filterUnits="userSpaceOnUse" color-interpolation-filters="sRGB">
<feFlood flood-opacity="0" result="BackgroundImageFix"/>
<feColorMatrix in="SourceAlpha" type="matrix" values="0 0 0 0 0 0 0 0 0 0 0 0 0 0 0 0 0 0 127 0"/>
<feOffset dx="9" dy="12"/>
<feGaussianBlur stdDeviation="12"/>
<feColorMatrix type="matrix" values="0 0 0 0 0 0 0 0 0 0 0 0 0 0 0 0 0 0 0.07 0"/>
<feBlend mode="normal" in2="BackgroundImageFix" result="effect1_dropShadow"/>
<feColorMatrix in="SourceAlpha" type="matrix" values="0 0 0 0 0 0 0 0 0 0 0 0 0 0 0 0 0 0 127 0"/>
<feOffset dy="3"/>
<feGaussianBlur stdDeviation="1.5"/>
<feColorMatrix type="matrix" values="0 0 0 0 0 0 0 0 0 0 0 0 0 0 0 0 0 0 0.03 0"/>
<feBlend mode="normal" in2="effect1_dropShadow" result="effect2_dropShadow"/>
<feBlend mode="normal" in="SourceGraphic" in2="effect2_dropShadow" result="shape"/>
</filter>
<filter id="filter1_dd" x="180" y="189.698" width="471" height="435.821" filterUnits="userSpaceOnUse" color-interpolation-filters="sRGB">
<feFlood flood-opacity="0" result="BackgroundImageFix"/>
<feColorMatrix in="SourceAlpha" type="matrix" values="0 0 0 0 0 0 0 0 0 0 0 0 0 0 0 0 0 0 127 0"/>
<feOffset dx="9" dy="12"/>
<feGaussianBlur stdDeviation="12"/>
<feColorMatrix type="matrix" values="0 0 0 0 0 0 0 0 0 0 0 0 0 0 0 0 0 0 0.07 0"/>
<feBlend mode="normal" in2="BackgroundImageFix" result="effect1_dropShadow"/>
<feColorMatrix in="SourceAlpha" type="matrix" values="0 0 0 0 0 0 0 0 0 0 0 0 0 0 0 0 0 0 127 0"/>
<feOffset dy="3"/>
<feGaussianBlur stdDeviation="1.5"/>
<feColorMatrix type="matrix" values="0 0 0 0 0 0 0 0 0 0 0 0 0 0 0 0 0 0 0.03 0"/>
<feBlend mode="normal" in2="effect1_dropShadow" result="effect2_dropShadow"/>
<feBlend mode="normal" in="SourceGraphic" in2="effect2_dropShadow" result="shape"/>
</filter>
<filter id="filter2_dd" x="525" y="512.381" width="179" height="179.278" filterUnits="userSpaceOnUse" color-interpolation-filters="sRGB">
<feFlood flood-opacity="0" result="BackgroundImageFix"/>
<feColorMatrix in="SourceAlpha" type="matrix" values="0 0 0 0 0 0 0 0 0 0 0 0 0 0 0 0 0 0 127 0"/>
<feOffset dx="9" dy="12"/>
<feGaussianBlur stdDeviation="12"/>
<feColorMatrix type="matrix" values="0 0 0 0 0 0 0 0 0 0 0 0 0 0 0 0 0 0 0.07 0"/>
<feBlend mode="normal" in2="BackgroundImageFix" result="effect1_dropShadow"/>
<feColorMatrix in="SourceAlpha" type="matrix" values="0 0 0 0 0 0 0 0 0 0 0 0 0 0 0 0 0 0 127 0"/>
<feOffset dy="3"/>
<feGaussianBlur stdDeviation="1.5"/>
<feColorMatrix type="matrix" values="0 0 0 0 0 0 0 0 0 0 0 0 0 0 0 0 0 0 0.03 0"/>
<feBlend mode="normal" in2="effect1_dropShadow" result="effect2_dropShadow"/>
<feBlend mode="normal" in="SourceGraphic" in2="effect2_dropShadow" result="shape"/>
</filter>
<filter id="filter3_dd" x="703" y="118.556" width="126" height="126.178" filterUnits="userSpaceOnUse" color-interpolation-filters="sRGB">
<feFlood flood-opacity="0" result="BackgroundImageFix"/>
<feColorMatrix in="SourceAlpha" type="matrix" values="0 0 0 0 0 0 0 0 0 0 0 0 0 0 0 0 0 0 127 0"/>
<feOffset dx="7" dy="5"/>
<feGaussianBlur stdDeviation="10.5"/>
<feColorMatrix type="matrix" values="0 0 0 0 0 0 0 0 0 0 0 0 0 0 0 0 0 0 0.05 0"/>
<feBlend mode="normal" in2="BackgroundImageFix" result="effect1_dropShadow"/>
<feColorMatrix in="SourceAlpha" type="matrix" values="0 0 0 0 0 0 0 0 0 0 0 0 0 0 0 0 0 0 127 0"/>
<feOffset dx="3" dy="3"/>
<feGaussianBlur stdDeviation="1.5"/>
<feColorMatrix type="matrix" values="0 0 0 0 0 0 0 0 0 0 0 0 0 0 0 0 0 0 0.03 0"/>
<feBlend mode="normal" in2="effect1_dropShadow" result="effect2_dropShadow"/>
<feBlend mode="normal" in="SourceGraphic" in2="effect2_dropShadow" result="shape"/>
</filter>
<filter id="filter4_dd" x="552" y="0.305664" width="126" height="126.178" filterUnits="userSpaceOnUse" color-interpolation-filters="sRGB">
<feFlood flood-opacity="0" result="BackgroundImageFix"/>
<feColorMatrix in="SourceAlpha" type="matrix" values="0 0 0 0 0 0 0 0 0 0 0 0 0 0 0 0 0 0 127 0"/>
<feOffset dx="7" dy="5"/>
<feGaussianBlur stdDeviation="10.5"/>
<feColorMatrix type="matrix" values="0 0 0 0 0 0 0 0 0 0 0 0 0 0 0 0 0 0 0.05 0"/>
<feBlend mode="normal" in2="BackgroundImageFix" result="effect1_dropShadow"/>
<feColorMatrix in="SourceAlpha" type="matrix" values="0 0 0 0 0 0 0 0 0 0 0 0 0 0 0 0 0 0 127 0"/>
<feOffset dx="3" dy="3"/>
<feGaussianBlur stdDeviation="1.5"/>
<feColorMatrix type="matrix" values="0 0 0 0 0 0 0 0 0 0 0 0 0 0 0 0 0 0 0.03 0"/>
<feBlend mode="normal" in2="effect1_dropShadow" result="effect2_dropShadow"/>
<feBlend mode="normal" in="SourceGraphic" in2="effect2_dropShadow" result="shape"/>
</filter>
<filter id="filter5_dd" x="0" y="491.336" width="477" height="188.297" filterUnits="userSpaceOnUse" color-interpolation-filters="sRGB">
<feFlood flood-opacity="0" result="BackgroundImageFix"/>
<feColorMatrix in="SourceAlpha" type="matrix" values="0 0 0 0 0 0 0 0 0 0 0 0 0 0 0 0 0 0 127 0"/>
<feOffset dx="9" dy="12"/>
<feGaussianBlur stdDeviation="12"/>
<feColorMatrix type="matrix" values="0 0 0 0 0 0 0 0 0 0 0 0 0 0 0 0 0 0 0.07 0"/>
<feBlend mode="normal" in2="BackgroundImageFix" result="effect1_dropShadow"/>
<feColorMatrix in="SourceAlpha" type="matrix" values="0 0 0 0 0 0 0 0 0 0 0 0 0 0 0 0 0 0 127 0"/>
<feOffset dy="3"/>
<feGaussianBlur stdDeviation="1.5"/>
<feColorMatrix type="matrix" values="0 0 0 0 0 0 0 0 0 0 0 0 0 0 0 0 0 0 0.03 0"/>
<feBlend mode="normal" in2="effect1_dropShadow" result="effect2_dropShadow"/>
<feBlend mode="normal" in="SourceGraphic" in2="effect2_dropShadow" result="shape"/>
</filter>
<filter id="filter6_dd" x="395" y="118.556" width="126" height="126.178" filterUnits="userSpaceOnUse" color-interpolation-filters="sRGB">
<feFlood flood-opacity="0" result="BackgroundImageFix"/>
<feColorMatrix in="SourceAlpha" type="matrix" values="0 0 0 0 0 0 0 0 0 0 0 0 0 0 0 0 0 0 127 0"/>
<feOffset dx="7" dy="5"/>
<feGaussianBlur stdDeviation="10.5"/>
<feColorMatrix type="matrix" values="0 0 0 0 0 0 0 0 0 0 0 0 0 0 0 0 0 0 0.05 0"/>
<feBlend mode="normal" in2="BackgroundImageFix" result="effect1_dropShadow"/>
<feColorMatrix in="SourceAlpha" type="matrix" values="0 0 0 0 0 0 0 0 0 0 0 0 0 0 0 0 0 0 127 0"/>
<feOffset dx="3" dy="3"/>
<feGaussianBlur stdDeviation="1.5"/>
<feColorMatrix type="matrix" values="0 0 0 0 0 0 0 0 0 0 0 0 0 0 0 0 0 0 0.03 0"/>
<feBlend mode="normal" in2="effect1_dropShadow" result="effect2_dropShadow"/>
<feBlend mode="normal" in="SourceGraphic" in2="effect2_dropShadow" result="shape"/>
</filter>
<filter id="filter7_dd" x="246" y="0.305664" width="126" height="126.178" filterUnits="userSpaceOnUse" color-interpolation-filters="sRGB">
<feFlood flood-opacity="0" result="BackgroundImageFix"/>
<feColorMatrix in="SourceAlpha" type="matrix" values="0 0 0 0 0 0 0 0 0 0 0 0 0 0 0 0 0 0 127 0"/>
<feOffset dx="7" dy="5"/>
<feGaussianBlur stdDeviation="10.5"/>
<feColorMatrix type="matrix" values="0 0 0 0 0 0 0 0 0 0 0 0 0 0 0 0 0 0 0.05 0"/>
<feBlend mode="normal" in2="BackgroundImageFix" result="effect1_dropShadow"/>
<feColorMatrix in="SourceAlpha" type="matrix" values="0 0 0 0 0 0 0 0 0 0 0 0 0 0 0 0 0 0 127 0"/>
<feOffset dx="3" dy="3"/>
<feGaussianBlur stdDeviation="1.5"/>
<feColorMatrix type="matrix" values="0 0 0 0 0 0 0 0 0 0 0 0 0 0 0 0 0 0 0.03 0"/>
<feBlend mode="normal" in2="effect1_dropShadow" result="effect2_dropShadow"/>
<feBlend mode="normal" in="SourceGraphic" in2="effect2_dropShadow" result="shape"/>
</filter>
<clipPath id="clip0">
<rect width="46" height="46.0976" fill="white" transform="translate(729 161.613)"/>
</clipPath>
<clipPath id="clip1">
<rect width="46" height="46.0976" fill="white" transform="translate(578 43.3628)"/>
</clipPath>
</defs>
</svg>
