<svg width="841" height="715" viewBox="0 0 841 715" fill="none" xmlns="http://www.w3.org/2000/svg">
<rect x="113" y="128.543" width="571" height="550.164" rx="20" fill="#FFF3F1"/>
<g filter="url(#filter0_dd)">
<path d="M97 314.937C97 279.517 125.654 250.802 161 250.802H225V379.073H161C125.654 379.073 97 350.358 97 314.937Z" fill="#1A78ED"/>
</g>
<g filter="url(#filter1_dd)">
<rect x="195" y="201.698" width="423" height="387.821" rx="5" fill="#FFC854"/>
</g>
<path d="M504 604.55H507V607.557H504V604.55Z" fill="#CCE2DE"/>
<path d="M504 494.317H507V497.324H504V494.317Z" fill="#CCE2DE"/>
<path d="M515 604.55H518V607.557H515V604.55Z" fill="#CCE2DE"/>
<path d="M515 494.317H518V497.324H515V494.317Z" fill="#CCE2DE"/>
<path d="M526 604.55H529V607.557H526V604.55Z" fill="#CCE2DE"/>
<path d="M526 494.317H529V497.324H526V494.317Z" fill="#CCE2DE"/>
<path d="M537 604.55H540V607.557H537V604.55Z" fill="#CCE2DE"/>
<path d="M537 494.317H540V497.324H537V494.317Z" fill="#CCE2DE"/>
<path d="M548 604.55H551V607.557H548V604.55Z" fill="#CCE2DE"/>
<path d="M548 494.317H551V497.324H548V494.317Z" fill="#CCE2DE"/>
<path d="M559 604.55H562V607.557H559V604.55Z" fill="#CCE2DE"/>
<path d="M559 494.317H562V497.324H559V494.317Z" fill="#CCE2DE"/>
<path d="M570 604.55H573V607.557H570V604.55Z" fill="#CCE2DE"/>
<path d="M570 494.317H573V497.324H570V494.317Z" fill="#CCE2DE"/>
<path d="M581 604.55H584V607.557H581V604.55Z" fill="#CCE2DE"/>
<path d="M581 494.317H584V497.324H581V494.317Z" fill="#CCE2DE"/>
<path d="M592 604.55H595V607.557H592V604.55Z" fill="#CCE2DE"/>
<path d="M592 494.317H595V497.324H592V494.317Z" fill="#CCE2DE"/>
<path d="M603 604.55H606V607.557H603V604.55Z" fill="#CCE2DE"/>
<path d="M603 494.317H606V497.324H603V494.317Z" fill="#CCE2DE"/>
<path d="M614 604.55H617V607.557H614V604.55Z" fill="#CCE2DE"/>
<path d="M614 494.317H617V497.324H614V494.317Z" fill="#CCE2DE"/>
<path d="M625 604.55H628V607.557H625V604.55Z" fill="#CCE2DE"/>
<path d="M625 494.317H628V497.324H625V494.317Z" fill="#CCE2DE"/>
<path d="M636 604.55H639V607.557H636V604.55Z" fill="#CCE2DE"/>
<path d="M636 494.317H639V497.324H636V494.317Z" fill="#CCE2DE"/>
<path d="M647 604.55H650V607.557H647V604.55Z" fill="#CCE2DE"/>
<path d="M647 494.317H650V497.324H647V494.317Z" fill="#CCE2DE"/>
<path d="M658 604.55H661V607.557H658V604.55Z" fill="#CCE2DE"/>
<path d="M658 494.317H661V497.324H658V494.317Z" fill="#CCE2DE"/>
<path d="M669 604.55H672V607.557H669V604.55Z" fill="#CCE2DE"/>
<path d="M669 494.317H672V497.324H669V494.317Z" fill="#CCE2DE"/>
<path d="M680 604.55H683V607.557H680V604.55Z" fill="#CCE2DE"/>
<path d="M680 494.317H683V497.324H680V494.317Z" fill="#CCE2DE"/>
<path d="M691 604.55H694V607.557H691V604.55Z" fill="#CCE2DE"/>
<path d="M691 494.317H694V497.324H691V494.317Z" fill="#CCE2DE"/>
<path d="M702 604.55H705V607.557H702V604.55Z" fill="#CCE2DE"/>
<path d="M702 494.317H705V497.324H702V494.317Z" fill="#CCE2DE"/>
<path d="M713 604.55H716V607.557H713V604.55Z" fill="#CCE2DE"/>
<path d="M713 494.317H716V497.324H713V494.317Z" fill="#CCE2DE"/>
<path d="M504 614.572H507V617.578H504V614.572Z" fill="#CCE2DE"/>
<path d="M504 504.338H507V507.345H504V504.338Z" fill="#CCE2DE"/>
<path d="M515 614.572H518V617.578H515V614.572Z" fill="#CCE2DE"/>
<path d="M515 504.338H518V507.345H515V504.338Z" fill="#CCE2DE"/>
<path d="M526 614.572H529V617.578H526V614.572Z" fill="#CCE2DE"/>
<path d="M526 504.338H529V507.345H526V504.338Z" fill="#CCE2DE"/>
<path d="M537 614.572H540V617.578H537V614.572Z" fill="#CCE2DE"/>
<path d="M537 504.338H540V507.345H537V504.338Z" fill="#CCE2DE"/>
<path d="M548 614.572H551V617.578H548V614.572Z" fill="#CCE2DE"/>
<path d="M548 504.338H551V507.345H548V504.338Z" fill="#CCE2DE"/>
<path d="M559 614.572H562V617.578H559V614.572Z" fill="#CCE2DE"/>
<path d="M559 504.338H562V507.345H559V504.338Z" fill="#CCE2DE"/>
<path d="M570 614.572H573V617.578H570V614.572Z" fill="#CCE2DE"/>
<path d="M570 504.338H573V507.345H570V504.338Z" fill="#CCE2DE"/>
<path d="M581 614.572H584V617.578H581V614.572Z" fill="#CCE2DE"/>
<path d="M581 504.338H584V507.345H581V504.338Z" fill="#CCE2DE"/>
<path d="M592 614.572H595V617.578H592V614.572Z" fill="#CCE2DE"/>
<path d="M592 504.338H595V507.345H592V504.338Z" fill="#CCE2DE"/>
<path d="M603 614.572H606V617.578H603V614.572Z" fill="#CCE2DE"/>
<path d="M603 504.338H606V507.345H603V504.338Z" fill="#CCE2DE"/>
<path d="M614 614.572H617V617.578H614V614.572Z" fill="#CCE2DE"/>
<path d="M614 504.338H617V507.345H614V504.338Z" fill="#CCE2DE"/>
<path d="M625 614.572H628V617.578H625V614.572Z" fill="#CCE2DE"/>
<path d="M625 504.338H628V507.345H625V504.338Z" fill="#CCE2DE"/>
<path d="M636 614.572H639V617.578H636V614.572Z" fill="#CCE2DE"/>
<path d="M636 504.338H639V507.345H636V504.338Z" fill="#CCE2DE"/>
<path d="M647 614.572H650V617.578H647V614.572Z" fill="#CCE2DE"/>
<path d="M647 504.338H650V507.345H647V504.338Z" fill="#CCE2DE"/>
<path d="M658 614.572H661V617.578H658V614.572Z" fill="#CCE2DE"/>
<path d="M658 504.338H661V507.345H658V504.338Z" fill="#CCE2DE"/>
<path d="M669 614.572H672V617.578H669V614.572Z" fill="#CCE2DE"/>
<path d="M669 504.338H672V507.345H669V504.338Z" fill="#CCE2DE"/>
<path d="M680 614.572H683V617.578H680V614.572Z" fill="#CCE2DE"/>
<path d="M680 504.338H683V507.345H680V504.338Z" fill="#CCE2DE"/>
<path d="M691 614.572H694V617.578H691V614.572Z" fill="#CCE2DE"/>
<path d="M691 504.338H694V507.345H691V504.338Z" fill="#CCE2DE"/>
<path d="M702 614.572H705V617.578H702V614.572Z" fill="#CCE2DE"/>
<path d="M702 504.338H705V507.345H702V504.338Z" fill="#CCE2DE"/>
<path d="M713 614.572H716V617.578H713V614.572Z" fill="#CCE2DE"/>
<path d="M713 504.338H716V507.345H713V504.338Z" fill="#CCE2DE"/>
<path d="M504 624.593H507V627.599H504V624.593Z" fill="#CCE2DE"/>
<path d="M504 514.36H507V517.366H504V514.36Z" fill="#CCE2DE"/>
<path d="M515 624.593H518V627.599H515V624.593Z" fill="#CCE2DE"/>
<path d="M515 514.36H518V517.366H515V514.36Z" fill="#CCE2DE"/>
<path d="M526 624.593H529V627.599H526V624.593Z" fill="#CCE2DE"/>
<path d="M526 514.36H529V517.366H526V514.36Z" fill="#CCE2DE"/>
<path d="M537 624.593H540V627.599H537V624.593Z" fill="#CCE2DE"/>
<path d="M537 514.36H540V517.366H537V514.36Z" fill="#CCE2DE"/>
<path d="M548 624.593H551V627.599H548V624.593Z" fill="#CCE2DE"/>
<path d="M548 514.36H551V517.366H548V514.36Z" fill="#CCE2DE"/>
<path d="M559 624.593H562V627.599H559V624.593Z" fill="#CCE2DE"/>
<path d="M559 514.36H562V517.366H559V514.36Z" fill="#CCE2DE"/>
<path d="M570 624.593H573V627.599H570V624.593Z" fill="#CCE2DE"/>
<path d="M570 514.36H573V517.366H570V514.36Z" fill="#CCE2DE"/>
<path d="M581 624.593H584V627.599H581V624.593Z" fill="#CCE2DE"/>
<path d="M581 514.36H584V517.366H581V514.36Z" fill="#CCE2DE"/>
<path d="M592 624.593H595V627.599H592V624.593Z" fill="#CCE2DE"/>
<path d="M592 514.36H595V517.366H592V514.36Z" fill="#CCE2DE"/>
<path d="M603 624.593H606V627.599H603V624.593Z" fill="#CCE2DE"/>
<path d="M603 514.36H606V517.366H603V514.36Z" fill="#CCE2DE"/>
<path d="M614 624.593H617V627.599H614V624.593Z" fill="#CCE2DE"/>
<path d="M614 514.36H617V517.366H614V514.36Z" fill="#CCE2DE"/>
<path d="M625 624.593H628V627.599H625V624.593Z" fill="#CCE2DE"/>
<path d="M625 514.36H628V517.366H625V514.36Z" fill="#CCE2DE"/>
<path d="M636 624.593H639V627.599H636V624.593Z" fill="#CCE2DE"/>
<path d="M636 514.36H639V517.366H636V514.36Z" fill="#CCE2DE"/>
<path d="M647 624.593H650V627.599H647V624.593Z" fill="#CCE2DE"/>
<path d="M647 514.36H650V517.366H647V514.36Z" fill="#CCE2DE"/>
<path d="M658 624.593H661V627.599H658V624.593Z" fill="#CCE2DE"/>
<path d="M658 514.36H661V517.366H658V514.36Z" fill="#CCE2DE"/>
<path d="M669 624.593H672V627.599H669V624.593Z" fill="#CCE2DE"/>
<path d="M669 514.36H672V517.366H669V514.36Z" fill="#CCE2DE"/>
<path d="M680 624.593H683V627.599H680V624.593Z" fill="#CCE2DE"/>
<path d="M680 514.36H683V517.366H680V514.36Z" fill="#CCE2DE"/>
<path d="M691 624.593H694V627.599H691V624.593Z" fill="#CCE2DE"/>
<path d="M691 514.36H694V517.366H691V514.36Z" fill="#CCE2DE"/>
<path d="M702 624.593H705V627.599H702V624.593Z" fill="#CCE2DE"/>
<path d="M702 514.36H705V517.366H702V514.36Z" fill="#CCE2DE"/>
<path d="M713 624.593H716V627.599H713V624.593Z" fill="#CCE2DE"/>
<path d="M713 514.36H716V517.366H713V514.36Z" fill="#CCE2DE"/>
<path d="M504 634.614H507V637.62H504V634.614Z" fill="#CCE2DE"/>
<path d="M504 524.381H507V527.387H504V524.381Z" fill="#CCE2DE"/>
<path d="M515 634.614H518V637.62H515V634.614Z" fill="#CCE2DE"/>
<path d="M515 524.381H518V527.387H515V524.381Z" fill="#CCE2DE"/>
<path d="M526 634.614H529V637.62H526V634.614Z" fill="#CCE2DE"/>
<path d="M526 524.381H529V527.387H526V524.381Z" fill="#CCE2DE"/>
<path d="M537 634.614H540V637.62H537V634.614Z" fill="#CCE2DE"/>
<path d="M537 524.381H540V527.387H537V524.381Z" fill="#CCE2DE"/>
<path d="M548 634.614H551V637.62H548V634.614Z" fill="#CCE2DE"/>
<path d="M548 524.381H551V527.387H548V524.381Z" fill="#CCE2DE"/>
<path d="M559 634.614H562V637.62H559V634.614Z" fill="#CCE2DE"/>
<path d="M559 524.381H562V527.387H559V524.381Z" fill="#CCE2DE"/>
<path d="M570 634.614H573V637.62H570V634.614Z" fill="#CCE2DE"/>
<path d="M570 524.381H573V527.387H570V524.381Z" fill="#CCE2DE"/>
<path d="M581 634.614H584V637.62H581V634.614Z" fill="#CCE2DE"/>
<path d="M581 524.381H584V527.387H581V524.381Z" fill="#CCE2DE"/>
<path d="M592 634.614H595V637.62H592V634.614Z" fill="#CCE2DE"/>
<path d="M592 524.381H595V527.387H592V524.381Z" fill="#CCE2DE"/>
<path d="M603 634.614H606V637.62H603V634.614Z" fill="#CCE2DE"/>
<path d="M603 524.381H606V527.387H603V524.381Z" fill="#CCE2DE"/>
<path d="M614 634.614H617V637.62H614V634.614Z" fill="#CCE2DE"/>
<path d="M614 524.381H617V527.387H614V524.381Z" fill="#CCE2DE"/>
<path d="M625 634.614H628V637.62H625V634.614Z" fill="#CCE2DE"/>
<path d="M625 524.381H628V527.387H625V524.381Z" fill="#CCE2DE"/>
<path d="M636 634.614H639V637.62H636V634.614Z" fill="#CCE2DE"/>
<path d="M636 524.381H639V527.387H636V524.381Z" fill="#CCE2DE"/>
<path d="M647 634.614H650V637.62H647V634.614Z" fill="#CCE2DE"/>
<path d="M647 524.381H650V527.387H647V524.381Z" fill="#CCE2DE"/>
<path d="M658 634.614H661V637.62H658V634.614Z" fill="#CCE2DE"/>
<path d="M658 524.381H661V527.387H658V524.381Z" fill="#CCE2DE"/>
<path d="M669 634.614H672V637.62H669V634.614Z" fill="#CCE2DE"/>
<path d="M669 524.381H672V527.387H669V524.381Z" fill="#CCE2DE"/>
<path d="M680 634.614H683V637.62H680V634.614Z" fill="#CCE2DE"/>
<path d="M680 524.381H683V527.387H680V524.381Z" fill="#CCE2DE"/>
<path d="M691 634.614H694V637.62H691V634.614Z" fill="#CCE2DE"/>
<path d="M691 524.381H694V527.387H691V524.381Z" fill="#CCE2DE"/>
<path d="M702 634.614H705V637.62H702V634.614Z" fill="#CCE2DE"/>
<path d="M702 524.381H705V527.387H702V524.381Z" fill="#CCE2DE"/>
<path d="M713 634.614H716V637.62H713V634.614Z" fill="#CCE2DE"/>
<path d="M713 524.381H716V527.387H713V524.381Z" fill="#CCE2DE"/>
<path d="M504 644.635H507V647.642H504V644.635Z" fill="#CCE2DE"/>
<path d="M504 534.402H507V537.408H504V534.402Z" fill="#CCE2DE"/>
<path d="M515 644.635H518V647.642H515V644.635Z" fill="#CCE2DE"/>
<path d="M515 534.402H518V537.408H515V534.402Z" fill="#CCE2DE"/>
<path d="M526 644.635H529V647.642H526V644.635Z" fill="#CCE2DE"/>
<path d="M526 534.402H529V537.408H526V534.402Z" fill="#CCE2DE"/>
<path d="M537 644.635H540V647.642H537V644.635Z" fill="#CCE2DE"/>
<path d="M537 534.402H540V537.408H537V534.402Z" fill="#CCE2DE"/>
<path d="M548 644.635H551V647.642H548V644.635Z" fill="#CCE2DE"/>
<path d="M548 534.402H551V537.408H548V534.402Z" fill="#CCE2DE"/>
<path d="M559 644.635H562V647.642H559V644.635Z" fill="#CCE2DE"/>
<path d="M559 534.402H562V537.408H559V534.402Z" fill="#CCE2DE"/>
<path d="M570 644.635H573V647.642H570V644.635Z" fill="#CCE2DE"/>
<path d="M570 534.402H573V537.408H570V534.402Z" fill="#CCE2DE"/>
<path d="M581 644.635H584V647.642H581V644.635Z" fill="#CCE2DE"/>
<path d="M581 534.402H584V537.408H581V534.402Z" fill="#CCE2DE"/>
<path d="M592 644.635H595V647.642H592V644.635Z" fill="#CCE2DE"/>
<path d="M592 534.402H595V537.408H592V534.402Z" fill="#CCE2DE"/>
<path d="M603 644.635H606V647.642H603V644.635Z" fill="#CCE2DE"/>
<path d="M603 534.402H606V537.408H603V534.402Z" fill="#CCE2DE"/>
<path d="M614 644.635H617V647.642H614V644.635Z" fill="#CCE2DE"/>
<path d="M614 534.402H617V537.408H614V534.402Z" fill="#CCE2DE"/>
<path d="M625 644.635H628V647.642H625V644.635Z" fill="#CCE2DE"/>
<path d="M625 534.402H628V537.408H625V534.402Z" fill="#CCE2DE"/>
<path d="M636 644.635H639V647.642H636V644.635Z" fill="#CCE2DE"/>
<path d="M636 534.402H639V537.408H636V534.402Z" fill="#CCE2DE"/>
<path d="M647 644.635H650V647.642H647V644.635Z" fill="#CCE2DE"/>
<path d="M647 534.402H650V537.408H647V534.402Z" fill="#CCE2DE"/>
<path d="M658 644.635H661V647.642H658V644.635Z" fill="#CCE2DE"/>
<path d="M658 534.402H661V537.408H658V534.402Z" fill="#CCE2DE"/>
<path d="M669 644.635H672V647.642H669V644.635Z" fill="#CCE2DE"/>
<path d="M669 534.402H672V537.408H669V534.402Z" fill="#CCE2DE"/>
<path d="M680 644.635H683V647.642H680V644.635Z" fill="#CCE2DE"/>
<path d="M680 534.402H683V537.408H680V534.402Z" fill="#CCE2DE"/>
<path d="M691 644.635H694V647.642H691V644.635Z" fill="#CCE2DE"/>
<path d="M691 534.402H694V537.408H691V534.402Z" fill="#CCE2DE"/>
<path d="M702 644.635H705V647.642H702V644.635Z" fill="#CCE2DE"/>
<path d="M702 534.402H705V537.408H702V534.402Z" fill="#CCE2DE"/>
<path d="M713 644.635H716V647.642H713V644.635Z" fill="#CCE2DE"/>
<path d="M713 534.402H716V537.408H713V534.402Z" fill="#CCE2DE"/>
<path d="M504 654.656H507V657.663H504V654.656Z" fill="#CCE2DE"/>
<path d="M504 544.423H507V547.43H504V544.423Z" fill="#CCE2DE"/>
<path d="M515 654.656H518V657.663H515V654.656Z" fill="#CCE2DE"/>
<path d="M515 544.423H518V547.43H515V544.423Z" fill="#CCE2DE"/>
<path d="M526 654.656H529V657.663H526V654.656Z" fill="#CCE2DE"/>
<path d="M526 544.423H529V547.43H526V544.423Z" fill="#CCE2DE"/>
<path d="M537 654.656H540V657.663H537V654.656Z" fill="#CCE2DE"/>
<path d="M537 544.423H540V547.43H537V544.423Z" fill="#CCE2DE"/>
<path d="M548 654.656H551V657.663H548V654.656Z" fill="#CCE2DE"/>
<path d="M548 544.423H551V547.43H548V544.423Z" fill="#CCE2DE"/>
<path d="M559 654.656H562V657.663H559V654.656Z" fill="#CCE2DE"/>
<path d="M559 544.423H562V547.43H559V544.423Z" fill="#CCE2DE"/>
<path d="M570 654.656H573V657.663H570V654.656Z" fill="#CCE2DE"/>
<path d="M570 544.423H573V547.43H570V544.423Z" fill="#CCE2DE"/>
<path d="M581 654.656H584V657.663H581V654.656Z" fill="#CCE2DE"/>
<path d="M581 544.423H584V547.43H581V544.423Z" fill="#CCE2DE"/>
<path d="M592 654.656H595V657.663H592V654.656Z" fill="#CCE2DE"/>
<path d="M592 544.423H595V547.43H592V544.423Z" fill="#CCE2DE"/>
<path d="M603 654.656H606V657.663H603V654.656Z" fill="#CCE2DE"/>
<path d="M603 544.423H606V547.43H603V544.423Z" fill="#CCE2DE"/>
<path d="M614 654.656H617V657.663H614V654.656Z" fill="#CCE2DE"/>
<path d="M614 544.423H617V547.43H614V544.423Z" fill="#CCE2DE"/>
<path d="M625 654.656H628V657.663H625V654.656Z" fill="#CCE2DE"/>
<path d="M625 544.423H628V547.43H625V544.423Z" fill="#CCE2DE"/>
<path d="M636 654.656H639V657.663H636V654.656Z" fill="#CCE2DE"/>
<path d="M636 544.423H639V547.43H636V544.423Z" fill="#CCE2DE"/>
<path d="M647 654.656H650V657.663H647V654.656Z" fill="#CCE2DE"/>
<path d="M647 544.423H650V547.43H647V544.423Z" fill="#CCE2DE"/>
<path d="M658 654.656H661V657.663H658V654.656Z" fill="#CCE2DE"/>
<path d="M658 544.423H661V547.43H658V544.423Z" fill="#CCE2DE"/>
<path d="M669 654.656H672V657.663H669V654.656Z" fill="#CCE2DE"/>
<path d="M669 544.423H672V547.43H669V544.423Z" fill="#CCE2DE"/>
<path d="M680 654.656H683V657.663H680V654.656Z" fill="#CCE2DE"/>
<path d="M680 544.423H683V547.43H680V544.423Z" fill="#CCE2DE"/>
<path d="M691 654.656H694V657.663H691V654.656Z" fill="#CCE2DE"/>
<path d="M691 544.423H694V547.43H691V544.423Z" fill="#CCE2DE"/>
<path d="M702 654.656H705V657.663H702V654.656Z" fill="#CCE2DE"/>
<path d="M702 544.423H705V547.43H702V544.423Z" fill="#CCE2DE"/>
<path d="M713 654.656H716V657.663H713V654.656Z" fill="#CCE2DE"/>
<path d="M713 544.423H716V547.43H713V544.423Z" fill="#CCE2DE"/>
<path d="M504 664.678H507V667.684H504V664.678Z" fill="#CCE2DE"/>
<path d="M504 554.444H507V557.451H504V554.444Z" fill="#CCE2DE"/>
<path d="M515 664.678H518V667.684H515V664.678Z" fill="#CCE2DE"/>
<path d="M515 554.444H518V557.451H515V554.444Z" fill="#CCE2DE"/>
<path d="M526 664.678H529V667.684H526V664.678Z" fill="#CCE2DE"/>
<path d="M526 554.444H529V557.451H526V554.444Z" fill="#CCE2DE"/>
<path d="M537 664.678H540V667.684H537V664.678Z" fill="#CCE2DE"/>
<path d="M537 554.444H540V557.451H537V554.444Z" fill="#CCE2DE"/>
<path d="M548 664.678H551V667.684H548V664.678Z" fill="#CCE2DE"/>
<path d="M548 554.444H551V557.451H548V554.444Z" fill="#CCE2DE"/>
<path d="M559 664.678H562V667.684H559V664.678Z" fill="#CCE2DE"/>
<path d="M559 554.444H562V557.451H559V554.444Z" fill="#CCE2DE"/>
<path d="M570 664.678H573V667.684H570V664.678Z" fill="#CCE2DE"/>
<path d="M570 554.444H573V557.451H570V554.444Z" fill="#CCE2DE"/>
<path d="M581 664.678H584V667.684H581V664.678Z" fill="#CCE2DE"/>
<path d="M581 554.444H584V557.451H581V554.444Z" fill="#CCE2DE"/>
<path d="M592 664.678H595V667.684H592V664.678Z" fill="#CCE2DE"/>
<path d="M592 554.444H595V557.451H592V554.444Z" fill="#CCE2DE"/>
<path d="M603 664.678H606V667.684H603V664.678Z" fill="#CCE2DE"/>
<path d="M603 554.444H606V557.451H603V554.444Z" fill="#CCE2DE"/>
<path d="M614 664.678H617V667.684H614V664.678Z" fill="#CCE2DE"/>
<path d="M614 554.444H617V557.451H614V554.444Z" fill="#CCE2DE"/>
<path d="M625 664.678H628V667.684H625V664.678Z" fill="#CCE2DE"/>
<path d="M625 554.444H628V557.451H625V554.444Z" fill="#CCE2DE"/>
<path d="M636 664.678H639V667.684H636V664.678Z" fill="#CCE2DE"/>
<path d="M636 554.444H639V557.451H636V554.444Z" fill="#CCE2DE"/>
<path d="M647 664.678H650V667.684H647V664.678Z" fill="#CCE2DE"/>
<path d="M647 554.444H650V557.451H647V554.444Z" fill="#CCE2DE"/>
<path d="M658 664.678H661V667.684H658V664.678Z" fill="#CCE2DE"/>
<path d="M658 554.444H661V557.451H658V554.444Z" fill="#CCE2DE"/>
<path d="M669 664.678H672V667.684H669V664.678Z" fill="#CCE2DE"/>
<path d="M669 554.444H672V557.451H669V554.444Z" fill="#CCE2DE"/>
<path d="M680 664.678H683V667.684H680V664.678Z" fill="#CCE2DE"/>
<path d="M680 554.444H683V557.451H680V554.444Z" fill="#CCE2DE"/>
<path d="M691 664.678H694V667.684H691V664.678Z" fill="#CCE2DE"/>
<path d="M691 554.444H694V557.451H691V554.444Z" fill="#CCE2DE"/>
<path d="M702 664.678H705V667.684H702V664.678Z" fill="#CCE2DE"/>
<path d="M702 554.444H705V557.451H702V554.444Z" fill="#CCE2DE"/>
<path d="M713 664.678H716V667.684H713V664.678Z" fill="#CCE2DE"/>
<path d="M713 554.444H716V557.451H713V554.444Z" fill="#CCE2DE"/>
<path d="M504 674.699H507V677.705H504V674.699Z" fill="#CCE2DE"/>
<path d="M504 564.466H507V567.472H504V564.466Z" fill="#CCE2DE"/>
<path d="M515 674.699H518V677.705H515V674.699Z" fill="#CCE2DE"/>
<path d="M515 564.466H518V567.472H515V564.466Z" fill="#CCE2DE"/>
<path d="M526 674.699H529V677.705H526V674.699Z" fill="#CCE2DE"/>
<path d="M526 564.466H529V567.472H526V564.466Z" fill="#CCE2DE"/>
<path d="M537 674.699H540V677.705H537V674.699Z" fill="#CCE2DE"/>
<path d="M537 564.466H540V567.472H537V564.466Z" fill="#CCE2DE"/>
<path d="M548 674.699H551V677.705H548V674.699Z" fill="#CCE2DE"/>
<path d="M548 564.466H551V567.472H548V564.466Z" fill="#CCE2DE"/>
<path d="M559 674.699H562V677.705H559V674.699Z" fill="#CCE2DE"/>
<path d="M559 564.466H562V567.472H559V564.466Z" fill="#CCE2DE"/>
<path d="M570 674.699H573V677.705H570V674.699Z" fill="#CCE2DE"/>
<path d="M570 564.466H573V567.472H570V564.466Z" fill="#CCE2DE"/>
<path d="M581 674.699H584V677.705H581V674.699Z" fill="#CCE2DE"/>
<path d="M581 564.466H584V567.472H581V564.466Z" fill="#CCE2DE"/>
<path d="M592 674.699H595V677.705H592V674.699Z" fill="#CCE2DE"/>
<path d="M592 564.466H595V567.472H592V564.466Z" fill="#CCE2DE"/>
<path d="M603 674.699H606V677.705H603V674.699Z" fill="#CCE2DE"/>
<path d="M603 564.466H606V567.472H603V564.466Z" fill="#CCE2DE"/>
<path d="M614 674.699H617V677.705H614V674.699Z" fill="#CCE2DE"/>
<path d="M614 564.466H617V567.472H614V564.466Z" fill="#CCE2DE"/>
<path d="M625 674.699H628V677.705H625V674.699Z" fill="#CCE2DE"/>
<path d="M625 564.466H628V567.472H625V564.466Z" fill="#CCE2DE"/>
<path d="M636 674.699H639V677.705H636V674.699Z" fill="#CCE2DE"/>
<path d="M636 564.466H639V567.472H636V564.466Z" fill="#CCE2DE"/>
<path d="M647 674.699H650V677.705H647V674.699Z" fill="#CCE2DE"/>
<path d="M647 564.466H650V567.472H647V564.466Z" fill="#CCE2DE"/>
<path d="M658 674.699H661V677.705H658V674.699Z" fill="#CCE2DE"/>
<path d="M658 564.466H661V567.472H658V564.466Z" fill="#CCE2DE"/>
<path d="M669 674.699H672V677.705H669V674.699Z" fill="#CCE2DE"/>
<path d="M669 564.466H672V567.472H669V564.466Z" fill="#CCE2DE"/>
<path d="M680 674.699H683V677.705H680V674.699Z" fill="#CCE2DE"/>
<path d="M680 564.466H683V567.472H680V564.466Z" fill="#CCE2DE"/>
<path d="M691 674.699H694V677.705H691V674.699Z" fill="#CCE2DE"/>
<path d="M691 564.466H694V567.472H691V564.466Z" fill="#CCE2DE"/>
<path d="M702 674.699H705V677.705H702V674.699Z" fill="#CCE2DE"/>
<path d="M702 564.466H705V567.472H702V564.466Z" fill="#CCE2DE"/>
<path d="M713 674.699H716V677.705H713V674.699Z" fill="#CCE2DE"/>
<path d="M713 564.466H716V567.472H713V564.466Z" fill="#CCE2DE"/>
<path d="M504 684.72H507V687.726H504V684.72Z" fill="#CCE2DE"/>
<path d="M504 574.487H507V577.493H504V574.487Z" fill="#CCE2DE"/>
<path d="M515 684.72H518V687.726H515V684.72Z" fill="#CCE2DE"/>
<path d="M515 574.487H518V577.493H515V574.487Z" fill="#CCE2DE"/>
<path d="M526 684.72H529V687.726H526V684.72Z" fill="#CCE2DE"/>
<path d="M526 574.487H529V577.493H526V574.487Z" fill="#CCE2DE"/>
<path d="M537 684.72H540V687.726H537V684.72Z" fill="#CCE2DE"/>
<path d="M537 574.487H540V577.493H537V574.487Z" fill="#CCE2DE"/>
<path d="M548 684.72H551V687.726H548V684.72Z" fill="#CCE2DE"/>
<path d="M548 574.487H551V577.493H548V574.487Z" fill="#CCE2DE"/>
<path d="M559 684.72H562V687.726H559V684.72Z" fill="#CCE2DE"/>
<path d="M559 574.487H562V577.493H559V574.487Z" fill="#CCE2DE"/>
<path d="M570 684.72H573V687.726H570V684.72Z" fill="#CCE2DE"/>
<path d="M570 574.487H573V577.493H570V574.487Z" fill="#CCE2DE"/>
<path d="M581 684.72H584V687.726H581V684.72Z" fill="#CCE2DE"/>
<path d="M581 574.487H584V577.493H581V574.487Z" fill="#CCE2DE"/>
<path d="M592 684.72H595V687.726H592V684.72Z" fill="#CCE2DE"/>
<path d="M592 574.487H595V577.493H592V574.487Z" fill="#CCE2DE"/>
<path d="M603 684.72H606V687.726H603V684.72Z" fill="#CCE2DE"/>
<path d="M603 574.487H606V577.493H603V574.487Z" fill="#CCE2DE"/>
<path d="M614 684.72H617V687.726H614V684.72Z" fill="#CCE2DE"/>
<path d="M614 574.487H617V577.493H614V574.487Z" fill="#CCE2DE"/>
<path d="M625 684.72H628V687.726H625V684.72Z" fill="#CCE2DE"/>
<path d="M625 574.487H628V577.493H625V574.487Z" fill="#CCE2DE"/>
<path d="M636 684.72H639V687.726H636V684.72Z" fill="#CCE2DE"/>
<path d="M636 574.487H639V577.493H636V574.487Z" fill="#CCE2DE"/>
<path d="M647 684.72H650V687.726H647V684.72Z" fill="#CCE2DE"/>
<path d="M647 574.487H650V577.493H647V574.487Z" fill="#CCE2DE"/>
<path d="M658 684.72H661V687.726H658V684.72Z" fill="#CCE2DE"/>
<path d="M658 574.487H661V577.493H658V574.487Z" fill="#CCE2DE"/>
<path d="M669 684.72H672V687.726H669V684.72Z" fill="#CCE2DE"/>
<path d="M669 574.487H672V577.493H669V574.487Z" fill="#CCE2DE"/>
<path d="M680 684.72H683V687.726H680V684.72Z" fill="#CCE2DE"/>
<path d="M680 574.487H683V577.493H680V574.487Z" fill="#CCE2DE"/>
<path d="M691 684.72H694V687.726H691V684.72Z" fill="#CCE2DE"/>
<path d="M691 574.487H694V577.493H691V574.487Z" fill="#CCE2DE"/>
<path d="M702 684.72H705V687.726H702V684.72Z" fill="#CCE2DE"/>
<path d="M702 574.487H705V577.493H702V574.487Z" fill="#CCE2DE"/>
<path d="M713 684.72H716V687.726H713V684.72Z" fill="#CCE2DE"/>
<path d="M713 574.487H716V577.493H713V574.487Z" fill="#CCE2DE"/>
<path d="M504 694.741H507V697.748H504V694.741Z" fill="#CCE2DE"/>
<path d="M504 584.508H507V587.514H504V584.508Z" fill="#CCE2DE"/>
<path d="M515 694.741H518V697.748H515V694.741Z" fill="#CCE2DE"/>
<path d="M515 584.508H518V587.514H515V584.508Z" fill="#CCE2DE"/>
<path d="M526 694.741H529V697.748H526V694.741Z" fill="#CCE2DE"/>
<path d="M526 584.508H529V587.514H526V584.508Z" fill="#CCE2DE"/>
<path d="M537 694.741H540V697.748H537V694.741Z" fill="#CCE2DE"/>
<path d="M537 584.508H540V587.514H537V584.508Z" fill="#CCE2DE"/>
<path d="M548 694.741H551V697.748H548V694.741Z" fill="#CCE2DE"/>
<path d="M548 584.508H551V587.514H548V584.508Z" fill="#CCE2DE"/>
<path d="M559 694.741H562V697.748H559V694.741Z" fill="#CCE2DE"/>
<path d="M559 584.508H562V587.514H559V584.508Z" fill="#CCE2DE"/>
<path d="M570 694.741H573V697.748H570V694.741Z" fill="#CCE2DE"/>
<path d="M570 584.508H573V587.514H570V584.508Z" fill="#CCE2DE"/>
<path d="M581 694.741H584V697.748H581V694.741Z" fill="#CCE2DE"/>
<path d="M581 584.508H584V587.514H581V584.508Z" fill="#CCE2DE"/>
<path d="M592 694.741H595V697.748H592V694.741Z" fill="#CCE2DE"/>
<path d="M592 584.508H595V587.514H592V584.508Z" fill="#CCE2DE"/>
<path d="M603 694.741H606V697.748H603V694.741Z" fill="#CCE2DE"/>
<path d="M603 584.508H606V587.514H603V584.508Z" fill="#CCE2DE"/>
<path d="M614 694.741H617V697.748H614V694.741Z" fill="#CCE2DE"/>
<path d="M614 584.508H617V587.514H614V584.508Z" fill="#CCE2DE"/>
<path d="M625 694.741H628V697.748H625V694.741Z" fill="#CCE2DE"/>
<path d="M625 584.508H628V587.514H625V584.508Z" fill="#CCE2DE"/>
<path d="M636 694.741H639V697.748H636V694.741Z" fill="#CCE2DE"/>
<path d="M636 584.508H639V587.514H636V584.508Z" fill="#CCE2DE"/>
<path d="M647 694.741H650V697.748H647V694.741Z" fill="#CCE2DE"/>
<path d="M647 584.508H650V587.514H647V584.508Z" fill="#CCE2DE"/>
<path d="M658 694.741H661V697.748H658V694.741Z" fill="#CCE2DE"/>
<path d="M658 584.508H661V587.514H658V584.508Z" fill="#CCE2DE"/>
<path d="M669 694.741H672V697.748H669V694.741Z" fill="#CCE2DE"/>
<path d="M669 584.508H672V587.514H669V584.508Z" fill="#CCE2DE"/>
<path d="M680 694.741H683V697.748H680V694.741Z" fill="#CCE2DE"/>
<path d="M680 584.508H683V587.514H680V584.508Z" fill="#CCE2DE"/>
<path d="M691 694.741H694V697.748H691V694.741Z" fill="#CCE2DE"/>
<path d="M691 584.508H694V587.514H691V584.508Z" fill="#CCE2DE"/>
<path d="M702 694.741H705V697.748H702V694.741Z" fill="#CCE2DE"/>
<path d="M702 584.508H705V587.514H702V584.508Z" fill="#CCE2DE"/>
<path d="M713 694.741H716V697.748H713V694.741Z" fill="#CCE2DE"/>
<path d="M713 584.508H716V587.514H713V584.508Z" fill="#CCE2DE"/>
<path d="M504 704.763H507V707.769H504V704.763Z" fill="#CCE2DE"/>
<path d="M504 594.529H507V597.536H504V594.529Z" fill="#CCE2DE"/>
<path d="M515 704.763H518V707.769H515V704.763Z" fill="#CCE2DE"/>
<path d="M515 594.529H518V597.536H515V594.529Z" fill="#CCE2DE"/>
<path d="M526 704.763H529V707.769H526V704.763Z" fill="#CCE2DE"/>
<path d="M526 594.529H529V597.536H526V594.529Z" fill="#CCE2DE"/>
<path d="M537 704.763H540V707.769H537V704.763Z" fill="#CCE2DE"/>
<path d="M537 594.529H540V597.536H537V594.529Z" fill="#CCE2DE"/>
<path d="M548 704.763H551V707.769H548V704.763Z" fill="#CCE2DE"/>
<path d="M548 594.529H551V597.536H548V594.529Z" fill="#CCE2DE"/>
<path d="M559 704.763H562V707.769H559V704.763Z" fill="#CCE2DE"/>
<path d="M559 594.529H562V597.536H559V594.529Z" fill="#CCE2DE"/>
<path d="M570 704.763H573V707.769H570V704.763Z" fill="#CCE2DE"/>
<path d="M570 594.529H573V597.536H570V594.529Z" fill="#CCE2DE"/>
<path d="M581 704.763H584V707.769H581V704.763Z" fill="#CCE2DE"/>
<path d="M581 594.529H584V597.536H581V594.529Z" fill="#CCE2DE"/>
<path d="M592 704.763H595V707.769H592V704.763Z" fill="#CCE2DE"/>
<path d="M592 594.529H595V597.536H592V594.529Z" fill="#CCE2DE"/>
<path d="M603 704.763H606V707.769H603V704.763Z" fill="#CCE2DE"/>
<path d="M603 594.529H606V597.536H603V594.529Z" fill="#CCE2DE"/>
<path d="M614 704.763H617V707.769H614V704.763Z" fill="#CCE2DE"/>
<path d="M614 594.529H617V597.536H614V594.529Z" fill="#CCE2DE"/>
<path d="M625 704.763H628V707.769H625V704.763Z" fill="#CCE2DE"/>
<path d="M625 594.529H628V597.536H625V594.529Z" fill="#CCE2DE"/>
<path d="M636 704.763H639V707.769H636V704.763Z" fill="#CCE2DE"/>
<path d="M636 594.529H639V597.536H636V594.529Z" fill="#CCE2DE"/>
<path d="M647 704.763H650V707.769H647V704.763Z" fill="#CCE2DE"/>
<path d="M647 594.529H650V597.536H647V594.529Z" fill="#CCE2DE"/>
<path d="M658 704.763H661V707.769H658V704.763Z" fill="#CCE2DE"/>
<path d="M658 594.529H661V597.536H658V594.529Z" fill="#CCE2DE"/>
<path d="M669 704.763H672V707.769H669V704.763Z" fill="#CCE2DE"/>
<path d="M669 594.529H672V597.536H669V594.529Z" fill="#CCE2DE"/>
<path d="M680 704.763H683V707.769H680V704.763Z" fill="#CCE2DE"/>
<path d="M680 594.529H683V597.536H680V594.529Z" fill="#CCE2DE"/>
<path d="M691 704.763H694V707.769H691V704.763Z" fill="#CCE2DE"/>
<path d="M691 594.529H694V597.536H691V594.529Z" fill="#CCE2DE"/>
<path d="M702 704.763H705V707.769H702V704.763Z" fill="#CCE2DE"/>
<path d="M702 594.529H705V597.536H702V594.529Z" fill="#CCE2DE"/>
<path d="M713 704.763H716V707.769H713V704.763Z" fill="#CCE2DE"/>
<path d="M713 594.529H716V597.536H713V594.529Z" fill="#CCE2DE"/>
<rect x="180.5" y="217.23" width="422" height="386.821" rx="4.5" fill="white" stroke="#E49B00"/>
<path d="M292.5 108V281.868H443M443 281.868V226.751M443 281.868H602.5M602.5 281.868V108M602.5 281.868H751.5V226.751" stroke="#475762" stroke-dasharray="2 3"/>
<path d="M526.044 263.58L265.651 264.265L266.094 434.098L526.487 433.414L526.044 263.58Z" fill="#475762"/>
<path d="M376.543 414.432L366.821 477.524L432.777 477.361L417.455 414.328L376.543 414.432Z" fill="#C9C9C9"/>
<path opacity="0.24" d="M400.048 566.027C513.88 565.728 606.106 545.146 606.041 520.057C605.975 494.967 513.643 474.871 399.811 475.17C285.98 475.469 193.754 496.051 193.819 521.14C193.885 546.229 286.217 566.326 400.048 566.027Z" fill="#E6E6E6"/>
<path opacity="0.06" d="M525.508 263.829L483 263.941L483.036 277.927L525.544 277.815L525.508 263.829Z" fill="black"/>
<path d="M444.527 466.243L351.755 466.487L351.808 486.761L444.58 486.517L444.527 466.243Z" fill="#E6E6E6"/>
<path d="M286.859 285.725C289.372 285.725 291.41 283.68 291.41 281.157C291.41 278.634 289.372 276.589 286.859 276.589C284.346 276.589 282.308 278.634 282.308 281.157C282.308 283.68 284.346 285.725 286.859 285.725Z" fill="white"/>
<path d="M300.422 285.695C302.936 285.695 304.973 283.65 304.973 281.127C304.973 278.604 302.936 276.559 300.422 276.559C297.909 276.559 295.872 278.604 295.872 281.127C295.872 283.65 297.909 285.695 300.422 285.695Z" fill="#1A78ED"/>
<path d="M313.188 285.666C315.701 285.666 317.739 283.62 317.739 281.097C317.739 278.575 315.701 276.529 313.188 276.529C310.675 276.529 308.637 278.575 308.637 281.097C308.637 283.62 310.675 285.666 313.188 285.666Z" fill="#FFD200"/>
<path d="M526.402 400.636L266.008 401.321L266.094 434.098L526.487 433.414L526.402 400.636Z" fill="#E6E6E6"/>
<path d="M399.045 426.312C403.957 426.312 407.94 422.314 407.94 417.383C407.94 412.452 403.957 408.455 399.045 408.455C394.133 408.455 390.151 412.452 390.151 417.383C390.151 422.314 394.133 426.312 399.045 426.312Z" fill="#A5A5A5"/>
<path d="M573.401 274.083L491.326 274.298L491.504 342.582L573.579 342.366L573.401 274.083Z" fill="#FD6F55"/>
<path d="M519.611 316.093L505.147 316.131L505.177 327.596L519.641 327.558L519.611 316.093Z" fill="white"/>
<path d="M540.396 309.231L525.932 309.269L525.979 327.556L540.444 327.518L540.396 309.231Z" fill="white"/>
<path d="M560.492 298.292L546.027 298.33L546.103 327.503L560.568 327.465L560.492 298.292Z" fill="white"/>
<path d="M511.343 311.037L520.474 298.415L534.274 301.782L548.96 286.995" stroke="#24285B" stroke-width="2" stroke-linecap="round" stroke-linejoin="round"/>
<path d="M545.621 287.01L549.684 286.091L549.285 290.258" stroke="#24285B" stroke-width="2" stroke-linecap="round" stroke-linejoin="round"/>
<path d="M449.69 276.151L333.027 276.458L333.051 285.609L449.714 285.302L449.69 276.151Z" fill="white"/>
<path d="M449.675 276.136L432.27 276.182L432.294 285.333L449.699 285.287L449.675 276.136Z" fill="#FEBF39"/>
<path d="M351.35 310.818L286.946 310.987L287.088 365.463L351.492 365.293L351.35 310.818Z" fill="#6EC1B1"/>
<path opacity="0.52" d="M287.08 365.473L304.796 331.064L319.718 356.901L333.178 340.393L351.485 365.31L287.08 365.473Z" fill="white"/>
<path d="M321.196 335.454C324.762 335.454 327.653 332.553 327.653 328.973C327.653 325.394 324.762 322.492 321.196 322.492C317.63 322.492 314.739 325.394 314.739 328.973C314.739 332.553 317.63 335.454 321.196 335.454Z" fill="white"/>
<path opacity="0.23" d="M333.277 372.149L305.22 372.222L305.236 378.57L333.294 378.497L333.277 372.149Z" fill="white"/>
<path opacity="0.06" d="M507.934 310.421L364.307 310.799L364.505 386.943L508.132 386.565L507.934 310.421Z" fill="white"/>
<path d="M441.096 317.79L372.304 317.971L372.322 324.616L441.114 324.435L441.096 317.79Z" fill="#FEBF39"/>
<path d="M441.225 372.725L372.433 372.906L372.45 379.55L441.242 379.37L441.225 372.725Z" fill="#FEBF39"/>
<path d="M496.629 332.431L372.328 332.758L372.345 339.402L496.647 339.076L496.629 332.431Z" fill="white"/>
<path opacity="0.65" d="M496.662 344.8L372.36 345.127L372.377 351.771L496.679 351.445L496.662 344.8Z" fill="white"/>
<path opacity="0.23" d="M496.694 357.081L372.392 357.407L372.409 364.052L496.711 363.725L496.694 357.081Z" fill="white"/>
<path d="M311.662 372.25L219.658 372.492L219.876 455.873L311.88 455.632L311.662 372.25Z" fill="#E6E6E6"/>
<path d="M311.699 391.99L219.695 392.232L219.861 455.859L311.865 455.617L311.699 391.99Z" fill="#F2F2F2"/>
<path d="M230.049 386.059C232.048 386.059 233.669 384.432 233.669 382.426C233.669 380.419 232.048 378.792 230.049 378.792C228.05 378.792 226.429 380.419 226.429 382.426C226.429 384.432 228.05 386.059 230.049 386.059Z" fill="#24285B"/>
<path d="M240.834 386.03C242.834 386.03 244.454 384.403 244.454 382.396C244.454 380.389 242.834 378.762 240.834 378.762C238.835 378.762 237.215 380.389 237.215 382.396C237.215 384.403 238.835 386.03 240.834 386.03Z" fill="#1A78ED"/>
<path d="M251 386C252.999 386 254.62 384.373 254.62 382.366C254.62 380.359 252.999 378.733 251 378.733C249.001 378.733 247.38 380.359 247.38 382.366C247.38 384.373 249.001 386 251 386Z" fill="#FFD200"/>
<path d="M268.39 403.976C267.435 403.424 266.38 403.067 265.288 402.925C264.195 402.783 263.085 402.858 262.021 403.148C260.957 403.437 259.961 403.934 259.089 404.611C258.217 405.287 257.486 406.13 256.939 407.09L242.622 432.14C242.036 433.101 241.649 434.17 241.481 435.284C241.314 436.398 241.372 437.534 241.65 438.626C241.928 439.717 242.421 440.741 243.1 441.638C243.78 442.534 244.631 443.285 245.605 443.846C246.578 444.406 247.653 444.765 248.767 444.901C249.881 445.037 251.011 444.947 252.09 444.637C253.169 444.327 254.175 443.803 255.048 443.096C255.922 442.389 256.645 441.513 257.176 440.52L271.493 415.47C272.599 413.532 272.893 411.233 272.311 409.078C271.73 406.923 270.319 405.087 268.39 403.976Z" fill="#FEBF39"/>
<path opacity="0.46" d="M268.39 403.976C267.435 403.424 266.38 403.067 265.288 402.925C264.195 402.783 263.085 402.858 262.021 403.148C260.957 403.437 259.961 403.934 259.089 404.611C258.217 405.287 257.486 406.13 256.939 407.09L242.622 432.14C242.036 433.101 241.649 434.17 241.481 435.284C241.314 436.398 241.372 437.534 241.65 438.626C241.928 439.717 242.421 440.741 243.1 441.638C243.78 442.534 244.631 443.285 245.605 443.846C246.578 444.406 247.653 444.765 248.767 444.901C249.881 445.037 251.011 444.947 252.09 444.637C253.169 444.327 254.175 443.803 255.048 443.096C255.922 442.389 256.645 441.513 257.176 440.52L271.493 415.47C272.599 413.532 272.893 411.233 272.311 409.078C271.73 406.923 270.319 405.087 268.39 403.976Z" fill="white"/>
<path d="M258.047 434.128C257.684 432.796 256.999 431.574 256.054 430.57C255.108 429.567 253.931 428.813 252.626 428.374C251.321 427.936 249.929 427.827 248.572 428.057C247.215 428.287 245.936 428.849 244.847 429.693C243.758 430.537 242.893 431.638 242.328 432.898C241.763 434.157 241.516 435.537 241.609 436.915C241.702 438.293 242.131 439.627 242.859 440.799C243.587 441.971 244.592 442.945 245.784 443.635C247.223 444.467 248.875 444.851 250.532 444.739C252.188 444.627 253.774 444.023 255.088 443.004C256.402 441.986 257.385 440.598 257.912 439.018C258.439 437.437 258.486 435.735 258.047 434.128Z" fill="#A0ED83"/>
<path d="M286.12 432.022L271.67 407.046C271.137 406.052 270.41 405.177 269.532 404.471C268.655 403.765 267.646 403.243 266.564 402.937C265.482 402.63 264.349 402.545 263.234 402.686C262.119 402.827 261.043 403.192 260.07 403.758C259.098 404.325 258.249 405.081 257.574 405.984C256.898 406.886 256.411 407.915 256.139 409.01C255.868 410.106 255.819 411.244 255.994 412.359C256.17 413.474 256.566 414.542 257.161 415.5L271.611 440.49C272.159 441.459 272.892 442.308 273.769 442.99C274.646 443.672 275.649 444.172 276.72 444.462C277.791 444.753 278.909 444.827 280.008 444.681C281.108 444.535 282.168 444.172 283.127 443.612C284.085 443.052 284.924 442.307 285.595 441.42C286.265 440.533 286.753 439.521 287.032 438.444C287.31 437.366 287.373 436.243 287.216 435.141C287.06 434.039 286.687 432.979 286.12 432.022Z" fill="#FEBF39"/>
<path d="M258.047 434.128C257.684 432.796 256.999 431.574 256.054 430.57C255.108 429.567 253.931 428.813 252.626 428.374C251.321 427.936 249.929 427.827 248.572 428.057C247.215 428.287 245.936 428.849 244.847 429.693C243.758 430.537 242.893 431.638 242.328 432.898C241.763 434.157 241.516 435.537 241.609 436.915C241.702 438.293 242.131 439.627 242.859 440.799C243.587 441.971 244.592 442.945 245.784 443.635C247.223 444.467 248.875 444.851 250.532 444.739C252.188 444.627 253.774 444.023 255.088 443.004C256.402 441.986 257.385 440.598 257.912 439.018C258.439 437.437 258.486 435.735 258.047 434.128Z" fill="#FEBF39"/>
<path opacity="0.06" d="M258.047 434.128C257.684 432.796 256.999 431.574 256.054 430.57C255.108 429.567 253.931 428.813 252.626 428.374C251.321 427.936 249.929 427.827 248.572 428.057C247.215 428.287 245.936 428.849 244.847 429.693C243.758 430.537 242.893 431.638 242.328 432.898C241.763 434.157 241.516 435.537 241.609 436.915C241.702 438.293 242.131 439.627 242.859 440.799C243.587 441.971 244.592 442.945 245.784 443.635C247.223 444.467 248.875 444.851 250.532 444.739C252.188 444.627 253.774 444.023 255.088 443.004C256.402 441.986 257.385 440.598 257.912 439.018C258.439 437.437 258.486 435.735 258.047 434.128Z" fill="black"/>
<path opacity="0.06" d="M325.476 372.214L311.662 372.25L311.823 433.978L325.637 433.942L325.476 372.214Z" fill="black"/>
<path d="M513.064 477.673V486.334C513.064 490.265 524.012 493.409 537.457 493.35C550.903 493.29 561.807 490.057 561.792 486.127V477.465L513.064 477.673Z" fill="#FFD200"/>
<path d="M513.108 488.114V496.79C513.108 500.721 524.056 503.85 537.502 503.791C550.947 503.731 561.851 500.513 561.836 496.583V487.906L513.108 488.114Z" fill="#FFD200"/>
<path opacity="0.08" d="M513.108 488.114V496.79C513.108 500.721 524.056 503.85 537.502 503.791C550.947 503.731 561.851 500.513 561.836 496.583V487.906L513.108 488.114Z" fill="black"/>
<path d="M537.72 494.786C551.053 494.73 561.849 491.531 561.833 487.64C561.817 483.749 550.995 480.641 537.661 480.697C524.328 480.753 513.532 483.952 513.548 487.843C513.565 491.734 524.387 494.842 537.72 494.786Z" fill="#FFD200"/>
<path opacity="0.08" d="M513.064 477.673V486.334C513.064 490.265 524.012 493.409 537.457 493.35C550.903 493.29 561.807 490.057 561.792 486.127V477.465L513.064 477.673Z" fill="black"/>
<path d="M514.793 467.306V475.967C514.793 479.897 525.741 483.042 539.186 482.982C552.631 482.923 563.535 479.69 563.521 475.759V467.098L514.793 467.306Z" fill="#FFD200"/>
<path d="M512.975 456.864V465.526C512.975 469.456 523.924 472.6 537.369 472.541C550.814 472.482 561.718 469.248 561.703 465.318V456.657L512.975 456.864Z" fill="#FFD200"/>
<path d="M537.677 484.434C551.01 484.378 561.806 481.179 561.789 477.288C561.773 473.397 550.951 470.288 537.618 470.345C524.284 470.401 513.489 473.6 513.505 477.491C513.521 481.382 524.343 484.49 537.677 484.434Z" fill="#FFD200"/>
<path opacity="0.08" d="M514.793 467.306V475.967C514.793 479.897 525.741 483.042 539.186 482.982C552.631 482.923 563.535 479.69 563.521 475.759V467.098L514.793 467.306Z" fill="black"/>
<path d="M539.392 474.164C552.725 474.108 563.521 470.908 563.505 467.017C563.488 463.127 552.666 460.018 539.333 460.074C526 460.13 515.204 463.33 515.22 467.221C515.237 471.111 526.059 474.22 539.392 474.164Z" fill="#FFD200"/>
<path opacity="0.08" d="M512.975 456.864V465.526C512.975 469.456 523.924 472.6 537.369 472.541C550.814 472.482 561.718 469.248 561.703 465.318V456.657L512.975 456.864Z" fill="black"/>
<path opacity="0.08" d="M514.01 505.482C523.997 505.482 532.094 497.354 532.094 487.328C532.094 477.302 523.997 469.174 514.01 469.174C504.022 469.174 495.925 477.302 495.925 487.328C495.925 497.354 504.022 505.482 514.01 505.482Z" fill="black"/>
<path opacity="0.08" d="M526.007 469.115C526.007 469.115 544.949 474.87 541.979 503.657C541.979 503.657 529.642 504.102 523.776 502.619C518.531 501.269 526.007 469.115 526.007 469.115Z" fill="black"/>
<path d="M537.354 463.82C550.81 463.764 561.705 460.564 561.688 456.673C561.672 452.782 550.751 449.674 537.295 449.731C523.84 449.787 512.945 452.987 512.961 456.878C512.977 460.769 523.898 463.877 537.354 463.82Z" fill="#FFD200"/>
<path d="M514.01 505.482C523.997 505.482 532.094 497.354 532.094 487.328C532.094 477.302 523.997 469.174 514.01 469.174C504.022 469.174 495.925 477.302 495.925 487.328C495.925 497.354 504.022 505.482 514.01 505.482Z" fill="#FFD200"/>
<path opacity="0.08" d="M514.01 505.482C523.997 505.482 532.094 497.354 532.094 487.328C532.094 477.302 523.997 469.174 514.01 469.174C504.022 469.174 495.925 477.302 495.925 487.328C495.925 497.354 504.022 505.482 514.01 505.482Z" fill="black"/>
<g opacity="0.08">
<path opacity="0.08" d="M513.123 500.009C523.111 500.009 531.208 491.881 531.208 481.855C531.208 471.829 523.111 463.702 513.123 463.702C503.135 463.702 495.039 471.829 495.039 481.855C495.039 491.881 503.135 500.009 513.123 500.009Z" fill="black"/>
</g>
<path d="M513.123 500.009C523.111 500.009 531.208 491.881 531.208 481.855C531.208 471.829 523.111 463.702 513.123 463.702C503.135 463.702 495.039 471.829 495.039 481.855C495.039 491.881 503.135 500.009 513.123 500.009Z" fill="#FFD200"/>
<path d="M513.847 472.319C514.349 472.319 514.512 472.497 514.512 473.016V474.098C515.412 474.194 516.269 474.533 516.992 475.079C517.715 475.625 518.277 476.357 518.619 477.198C518.885 477.732 518.767 478.029 518.176 478.296L517.083 478.785C516.58 479.037 516.329 478.919 516.034 478.385C515.803 477.831 515.401 477.367 514.888 477.06C514.374 476.753 513.777 476.62 513.182 476.679C511.291 476.679 510.434 477.243 510.434 478.518C510.475 478.897 510.644 479.251 510.913 479.52C511.182 479.79 511.534 479.96 511.911 480.001C512.485 480.147 513.067 480.256 513.655 480.327C514.662 480.372 515.657 480.562 516.61 480.891C517.085 481.052 517.53 481.293 517.925 481.603C518.32 482.019 518.628 482.51 518.832 483.048C519.035 483.585 519.128 484.158 519.107 484.732C519.107 487.165 517.496 488.811 514.674 489.182V490.353C514.674 490.858 514.527 491.036 514.009 491.051H512.783C512.281 491.051 512.104 490.873 512.089 490.353V489.226C511.095 489.159 510.144 488.797 509.355 488.188C508.566 487.578 507.975 486.747 507.656 485.8C507.464 485.311 507.656 484.985 508.159 484.777L509.252 484.376C509.799 484.169 510.05 484.302 510.301 484.866C510.532 485.452 510.943 485.949 511.474 486.285C512.005 486.621 512.63 486.779 513.256 486.735C515.31 486.735 516.329 486.067 516.314 484.762C516.334 484.457 516.249 484.154 516.075 483.904C515.9 483.653 515.646 483.469 515.354 483.383C514.647 483.125 513.904 482.98 513.153 482.953C512.14 482.897 511.143 482.682 510.198 482.315C509.411 482.073 508.732 481.566 508.274 480.88C507.817 480.193 507.609 479.37 507.686 478.548C507.686 476.145 509.163 474.528 512.044 474.098V473.001C512.044 472.497 512.222 472.319 512.739 472.304L513.847 472.319Z" fill="white"/>
<path d="M607.5 281.366C607.5 284.138 605.258 286.38 602.5 286.38C599.742 286.38 597.5 284.138 597.5 281.366C597.5 278.594 599.742 276.353 602.5 276.353C605.258 276.353 607.5 278.594 607.5 281.366Z" fill="white" stroke="#1A78ED" stroke-width="3"/>
<path d="M826.013 377.385C824.998 378.088 823.594 377.711 823.066 376.594L818.763 367.484C818.035 365.943 819.442 364.257 821.087 364.698L833.662 368.075C835.307 368.517 835.684 370.682 834.285 371.652L826.013 377.385Z" fill="#6EC1B1"/>
<path d="M740.268 426.054L740.269 426.054L733.68 422.041L737.678 415.45C738.007 414.908 737.844 414.187 737.302 413.857L736.459 413.344C735.918 413.014 735.203 413.2 734.874 413.742L730.876 420.333L724.287 416.319C723.746 415.99 723.04 416.16 722.71 416.703L722.195 417.552C721.866 418.095 722.042 418.8 722.583 419.129L729.172 423.143L725.16 429.757C724.831 430.3 725.011 430.997 725.552 431.327L726.395 431.841C726.936 432.17 727.635 432.007 727.964 431.465L731.976 424.851L738.564 428.864C739.105 429.193 739.812 429.025 740.14 428.483L740.656 427.633C740.985 427.091 740.81 426.383 740.268 426.054Z" fill="#FD6F55"/>
<path d="M781.195 437.003L781.196 437.004L774.607 432.99L778.604 426.399C778.933 425.857 778.77 425.136 778.229 424.807L777.386 424.293C776.845 423.964 776.129 424.149 775.8 424.691L771.803 431.282L765.214 427.269C764.673 426.939 763.966 427.11 763.637 427.652L763.122 428.502C762.793 429.044 762.968 429.749 763.51 430.078L770.099 434.092L766.087 440.707C765.758 441.249 765.937 441.947 766.479 442.276L767.322 442.79C767.863 443.12 768.562 442.957 768.891 442.415L772.903 435.8L779.491 439.813C780.032 440.143 780.738 439.974 781.067 439.432L781.583 438.583C781.912 438.04 781.736 437.333 781.195 437.003Z" fill="#FFC854"/>
<g filter="url(#filter2_dd)">
<path d="M671 524.381C671 541.62 667.612 558.691 661.028 574.619C654.444 590.546 644.795 605.018 632.63 617.208C620.465 629.398 606.024 639.068 590.131 645.666C574.238 652.263 557.203 655.658 540 655.658V524.381H671Z" fill="#6EC1B1"/>
</g>
<path d="M140.5 41.3584C147.404 41.3584 153 46.9667 153 53.8849C153 60.8031 147.404 66.4114 140.5 66.4114C133.596 66.4114 128 60.8031 128 53.8849C128 46.9667 133.596 41.3584 140.5 41.3584Z" stroke="#6EC1B1" stroke-width="3"/>
<ellipse cx="173.5" cy="84.9508" rx="6.5" ry="6.51379" fill="#FD6F55"/>
<ellipse cx="505.5" cy="30.8361" rx="6.5" ry="6.51379" fill="#1A78ED"/>
<g filter="url(#filter3_dd)">
<rect x="717" y="134.556" width="84" height="84.1782" rx="10" fill="#A1C6F3"/>
</g>
<rect x="710.5" y="143.073" width="82" height="83.1782" rx="9.5" fill="white" stroke="#1A78ED"/>
<g clip-path="url(#clip0)">
<path d="M736.446 189.625C736.753 189.831 737.1 189.929 737.444 189.929C738.023 189.929 738.592 189.648 738.939 189.129C741.842 184.782 746.696 182.186 751.922 182.186C757.133 182.186 761.978 184.77 764.884 189.098C765.438 189.923 766.555 190.142 767.378 189.587C768.201 189.031 768.42 187.912 767.866 187.087C765.544 183.63 762.216 181.078 758.413 179.713C760.693 177.846 762.152 175.007 762.152 171.832C762.152 166.222 757.598 161.658 752 161.658C746.402 161.658 741.848 166.222 741.848 171.832C741.848 174.984 743.285 177.805 745.538 179.673C741.675 181.033 738.297 183.615 735.952 187.127C735.4 187.953 735.621 189.072 736.446 189.625ZM752 165.259C755.616 165.259 758.559 168.208 758.559 171.832C758.559 175.456 755.616 178.404 752 178.404C748.384 178.404 745.441 175.456 745.441 171.832C745.441 168.208 748.384 165.259 752 165.259ZM759.166 193.542L756.487 195.478C756.088 195.766 755.922 196.277 756.074 196.743L757.153 199.877C757.198 200.016 757.216 200.153 757.21 200.283C757.172 201.124 756.119 201.7 755.347 201.142L752.669 199.205C752.469 199.061 752.235 198.989 752 198.989C751.766 198.989 751.531 199.061 751.332 199.205L748.653 201.142C747.881 201.7 746.823 201.124 746.79 200.283C746.785 200.153 746.803 200.016 746.848 199.877L747.926 196.743C748.079 196.277 747.912 195.766 747.513 195.478L744.834 193.542C743.943 192.898 744.401 191.369 745.503 191.369H748.814C749.307 191.369 749.743 191.179 749.895 190.713L750.919 187.559C751.089 187.038 751.544 186.778 752 186.778C752.456 186.778 752.911 187.038 753.082 187.559L754.105 190.713C754.257 191.179 754.694 191.369 755.186 191.369H758.497C759.599 191.369 760.057 192.898 759.166 193.542ZM774.529 199.844L771.85 201.781C771.452 202.069 771.285 202.58 771.437 203.046L772.516 206.179C772.561 206.319 772.579 206.455 772.573 206.585C772.535 207.427 771.482 208.002 770.711 207.444L768.032 205.507C767.833 205.363 767.598 205.291 767.363 205.291C767.129 205.291 766.894 205.363 766.695 205.507L764.016 207.444C763.244 208.002 762.187 207.427 762.153 206.585C762.148 206.455 762.166 206.319 762.212 206.179L763.289 203.046C763.442 202.58 763.275 202.069 762.876 201.781L760.198 199.844C759.306 199.2 759.764 197.672 760.866 197.672H764.177C764.67 197.672 765.106 197.482 765.259 197.015L766.282 193.862C766.452 193.341 766.908 193.08 767.363 193.08C767.819 193.08 768.275 193.341 768.445 193.862L769.468 197.015C769.62 197.482 770.057 197.672 770.55 197.672H773.861C774.962 197.672 775.42 199.2 774.529 199.844ZM743.802 199.844L741.124 201.781C740.725 202.069 740.558 202.58 740.711 203.046L741.789 206.179C741.835 206.319 741.852 206.455 741.847 206.585C741.808 207.427 740.756 208.002 739.984 207.444L737.305 205.507C737.106 205.363 736.871 205.291 736.637 205.291C736.402 205.291 736.168 205.363 735.968 205.507L733.29 207.444C732.518 208.002 731.46 207.427 731.427 206.585C731.422 206.455 731.44 206.319 731.485 206.179L732.563 203.046C732.715 202.58 732.548 202.069 732.15 201.781L729.471 199.844C728.58 199.2 729.038 197.672 730.139 197.672H733.451C733.943 197.672 734.38 197.482 734.532 197.015L735.555 193.862C735.725 193.341 736.181 193.08 736.637 193.08C737.092 193.08 737.548 193.341 737.718 193.862L738.741 197.015C738.894 197.482 739.33 197.672 739.823 197.672H743.134C744.236 197.672 744.694 199.2 743.802 199.844Z" fill="#1A78ED"/>
</g>
<g filter="url(#filter4_dd)">
<rect x="566" y="16.3054" width="84" height="84.1782" rx="10" fill="#FFE3A7"/>
</g>
<rect x="559.5" y="24.8223" width="82" height="83.1782" rx="9.5" fill="white" stroke="#FFC854"/>
<g clip-path="url(#clip1)">
<path d="M622.203 68.7508C623.196 68.7508 624 67.9446 624 66.9501V48.7662C624 47.0112 623.145 45.3601 621.713 44.3495C620.281 43.3389 618.442 43.0887 616.793 43.6798C616.743 43.698 616.693 43.7185 616.644 43.7412L602.248 50.4209C599.079 51.8913 595.701 52.6473 592.209 52.6677L585.182 52.7087C581.221 52.712 578 55.9419 578 59.9116V64.5933C578 67.7875 580.106 70.5372 583.031 71.4625V83.9856C583.031 85.4509 583.632 86.8825 584.681 87.913C585.697 88.9122 587.022 89.4587 588.423 89.4587C588.457 89.4587 588.492 89.4584 588.526 89.4577C589.944 89.4306 591.273 88.8567 592.268 87.8418C593.264 86.8255 593.812 85.4813 593.812 84.0566V71.7899C596.845 72.0189 599.843 72.8233 602.577 74.1502L616.599 80.9558C616.654 80.9826 616.71 81.0065 616.768 81.0276C618.419 81.629 620.264 81.3848 621.702 80.3748C623.141 79.3647 624 77.7108 624 75.9504C624 74.9558 623.196 74.1497 622.203 74.1497C621.211 74.1497 620.406 74.9558 620.406 75.9504C620.406 76.5459 620.127 77.0834 619.64 77.4252C619.175 77.7521 618.606 77.8388 618.068 77.6676L604.144 70.909C600.925 69.3465 597.386 68.4149 593.812 68.1799V56.2156C597.261 56.0019 600.6 55.1545 603.758 53.6891L618.068 47.0492C618.607 46.8776 619.178 46.9652 619.644 47.2941C620.128 47.636 620.406 48.1726 620.406 48.7664V66.9503C620.406 67.9446 621.211 68.7508 622.203 68.7508ZM590.219 84.0566C590.219 85.0307 589.429 85.8383 588.458 85.8569C587.993 85.8657 587.544 85.6831 587.197 85.3422C586.834 84.9845 586.625 84.49 586.625 83.9855V69.9819C586.625 69.0339 585.892 68.2483 584.948 68.1852C583.067 68.0595 581.594 66.4817 581.594 64.5933V59.9116C581.594 57.9258 583.206 56.3102 585.188 56.3102H585.198L590.219 56.2808V84.0566Z" fill="#FFC854"/>
</g>
<g filter="url(#filter5_dd)">
<rect x="15" y="503.336" width="429" height="140.297" rx="5" fill="#FD6F55"/>
</g>
<rect x="6.5" y="513.857" width="428" height="139.297" rx="4.5" fill="white" stroke="#D72100"/>
<path d="M99.8767 538.717H102.705C103.974 538.717 105.001 538.82 105.785 539.025C106.569 539.231 107.259 539.613 107.857 540.173C108.846 541.107 109.341 542.339 109.341 543.869C109.341 544.747 109.154 545.484 108.781 546.081C108.445 546.66 107.978 547.089 107.381 547.369C108.351 547.612 109.154 548.06 109.789 548.713C110.61 549.572 111.021 550.739 111.021 552.213C111.021 553.576 110.61 554.696 109.789 555.573C108.631 556.787 106.886 557.393 104.553 557.393H99.8767V538.717ZM102.733 541.405V546.753H103.601C104.646 546.753 105.421 546.511 105.925 546.025C106.41 545.559 106.653 544.849 106.653 543.897C106.653 543.132 106.429 542.535 105.981 542.105C105.495 541.639 104.739 541.405 103.713 541.405H102.733ZM102.733 549.105V554.705H104.469C105.757 554.705 106.699 554.463 107.297 553.977C107.913 553.492 108.221 552.801 108.221 551.905C108.221 551.103 107.969 550.449 107.465 549.945C106.886 549.385 105.906 549.105 104.525 549.105H102.733ZM114.111 557.393V545.605H116.855V549.777H118.423C118.927 549.777 119.338 549.796 119.655 549.833C119.972 549.852 120.355 549.955 120.803 550.141C121.251 550.328 121.643 550.608 121.979 550.981C122.595 551.672 122.903 552.531 122.903 553.557C122.903 554.733 122.548 555.676 121.839 556.385C121.522 556.703 121.139 556.945 120.691 557.113C120.262 557.263 119.898 557.347 119.599 557.365C119.319 557.384 118.918 557.393 118.395 557.393H114.111ZM116.855 555.041H118.115C118.787 555.041 119.263 554.957 119.543 554.789C119.954 554.491 120.159 554.089 120.159 553.585C120.159 553.063 119.963 552.671 119.571 552.409C119.272 552.223 118.796 552.129 118.143 552.129H116.855V555.041ZM124.135 557.393V545.605H126.879V557.393H124.135ZM137.896 545.605H146.744V554.873H148.536V560.753H146.016V557.393H137.784V560.753H135.264V554.873C136.216 554.817 136.935 554.304 137.42 553.333C137.738 552.643 137.896 551.607 137.896 550.225V545.605ZM144 554.873V548.125H140.528V551.261C140.528 552.96 140.071 554.164 139.156 554.873H144ZM158.766 553.417L161.062 554.705C160.539 555.639 159.876 556.357 159.074 556.861C158.159 557.459 157.002 557.757 155.602 557.757C153.959 557.757 152.634 557.253 151.626 556.245C150.468 555.088 149.89 553.585 149.89 551.737C149.89 549.796 150.515 548.181 151.766 546.893C152.83 545.829 154.146 545.297 155.714 545.297C157.244 545.297 158.504 545.811 159.494 546.837C160.595 547.976 161.146 549.637 161.146 551.821V552.157H152.69C152.764 553.147 153.1 553.94 153.698 554.537C154.202 555.041 154.902 555.293 155.798 555.293C156.526 555.293 157.151 555.097 157.674 554.705C158.103 554.369 158.467 553.94 158.766 553.417ZM152.886 549.917H158.346C158.234 549.264 157.954 548.732 157.506 548.321C157.02 547.873 156.404 547.649 155.658 547.649C154.874 547.649 154.23 547.901 153.726 548.405C153.315 548.779 153.035 549.283 152.886 549.917ZM173.701 545.605V557.393H170.957V548.125H167.485V552.801C167.485 554.257 167.112 555.387 166.365 556.189C165.413 557.253 164.125 557.655 162.501 557.393V554.873C163.304 555.06 163.948 554.883 164.433 554.341C164.713 554.005 164.853 553.492 164.853 552.801V545.605H173.701ZM185.79 546.977V545.605H188.534V557.393H185.79V556.161C184.875 557.225 183.699 557.757 182.262 557.757C180.526 557.757 179.135 557.141 178.09 555.909C177.063 554.677 176.55 553.203 176.55 551.485C176.55 549.619 177.1 548.125 178.202 547.005C179.322 545.867 180.684 545.297 182.29 545.297C183.764 545.297 184.931 545.857 185.79 546.977ZM182.626 547.761C181.655 547.761 180.862 548.125 180.246 548.853C179.648 549.581 179.35 550.477 179.35 551.541C179.35 552.587 179.648 553.473 180.246 554.201C180.862 554.929 181.655 555.293 182.626 555.293C183.559 555.293 184.343 554.967 184.978 554.313C185.631 553.66 185.958 552.745 185.958 551.569C185.958 550.356 185.631 549.423 184.978 548.769C184.343 548.097 183.559 547.761 182.626 547.761ZM200.273 553.417L202.569 554.705C202.047 555.639 201.384 556.357 200.581 556.861C199.667 557.459 198.509 557.757 197.109 557.757C195.467 557.757 194.141 557.253 193.133 556.245C191.976 555.088 191.397 553.585 191.397 551.737C191.397 549.796 192.023 548.181 193.273 546.893C194.337 545.829 195.653 545.297 197.221 545.297C198.752 545.297 200.012 545.811 201.001 546.837C202.103 547.976 202.653 549.637 202.653 551.821V552.157H194.197C194.272 553.147 194.608 553.94 195.205 554.537C195.709 555.041 196.409 555.293 197.305 555.293C198.033 555.293 198.659 555.097 199.181 554.705C199.611 554.369 199.975 553.94 200.273 553.417ZM194.393 549.917H199.853C199.741 549.264 199.461 548.732 199.013 548.321C198.528 547.873 197.912 547.649 197.165 547.649C196.381 547.649 195.737 547.901 195.233 548.405C194.823 548.779 194.543 549.283 194.393 549.917ZM213.641 548.125H210.197V557.393H207.453V548.125H204.009V545.605H213.641V548.125ZM223.57 553.417L225.866 554.705C225.344 555.639 224.681 556.357 223.878 556.861C222.964 557.459 221.806 557.757 220.406 557.757C218.764 557.757 217.438 557.253 216.43 556.245C215.273 555.088 214.694 553.585 214.694 551.737C214.694 549.796 215.32 548.181 216.57 546.893C217.634 545.829 218.95 545.297 220.518 545.297C222.049 545.297 223.309 545.811 224.298 546.837C225.4 547.976 225.95 549.637 225.95 551.821V552.157H217.494C217.569 553.147 217.905 553.94 218.502 554.537C219.006 555.041 219.706 555.293 220.602 555.293C221.33 555.293 221.956 555.097 222.478 554.705C222.908 554.369 223.272 553.94 223.57 553.417ZM217.69 549.917H223.15C223.038 549.264 222.758 548.732 222.31 548.321C221.825 547.873 221.209 547.649 220.462 547.649C219.678 547.649 219.034 547.901 218.53 548.405C218.12 548.779 217.84 549.283 217.69 549.917ZM244.481 546.137V549.217C243.492 548.247 242.381 547.761 241.149 547.761C240.104 547.761 239.236 548.107 238.545 548.797C237.873 549.469 237.537 550.375 237.537 551.513C237.537 552.689 237.892 553.632 238.601 554.341C239.273 554.976 240.104 555.293 241.093 555.293C242.456 555.293 243.585 554.789 244.481 553.781V556.833C243.492 557.449 242.297 557.757 240.897 557.757C239.012 557.757 237.519 557.179 236.417 556.021C235.297 554.864 234.737 553.389 234.737 551.597C234.737 549.749 235.335 548.228 236.529 547.033C237.687 545.876 239.264 545.297 241.261 545.297C242.4 545.297 243.473 545.577 244.481 546.137ZM247.111 545.605H249.855V549.805L253.775 545.605H257.415L252.263 550.757L257.695 557.393H254.223L250.303 552.549L249.855 552.997V557.393H247.111V545.605ZM259.498 545.605H262.242V552.297L270.306 544.541V557.393H267.562V550.533L259.498 558.289V545.605ZM274.779 545.605H283.627V554.873H285.419V560.753H282.899V557.393H274.667V560.753H272.147V554.873C273.099 554.817 273.818 554.304 274.303 553.333C274.62 552.643 274.779 551.607 274.779 550.225V545.605ZM280.883 554.873V548.125H277.411V551.261C277.411 552.96 276.954 554.164 276.039 554.873H280.883ZM287.388 545.605H290.132V549.805L294.052 545.605H297.692L292.54 550.757L297.972 557.393H294.5L290.58 552.549L290.132 552.997V557.393H287.388V545.605ZM299.775 545.605H302.519V552.297L310.583 544.541V557.393H307.839V550.533L299.775 558.289V545.605ZM320.808 552.689V550.169H340.408V552.689H320.808ZM28.8217 592.393L31.6777 579.541L36.5497 588.529L41.4217 579.541L44.2777 592.393H41.4777L40.3017 586.485L36.5497 593.289L32.7977 586.485L31.6217 592.393H28.8217ZM46.4079 592.393V580.605H49.1519V584.777H50.7199C51.2239 584.777 51.6345 584.796 51.9519 584.833C52.2692 584.852 52.6519 584.955 53.0999 585.141C53.5479 585.328 53.9399 585.608 54.2759 585.981C54.8919 586.672 55.1999 587.531 55.1999 588.557C55.1999 589.733 54.8452 590.676 54.1359 591.385C53.8185 591.703 53.4359 591.945 52.9879 592.113C52.5585 592.263 52.1945 592.347 51.8959 592.365C51.6159 592.384 51.2145 592.393 50.6919 592.393H46.4079ZM49.1519 590.041H50.4119C51.0839 590.041 51.5599 589.957 51.8399 589.789C52.2505 589.491 52.4559 589.089 52.4559 588.585C52.4559 588.063 52.2599 587.671 51.8679 587.409C51.5692 587.223 51.0932 587.129 50.4399 587.129H49.1519V590.041ZM56.4319 592.393V580.605H59.1759V592.393H56.4319ZM77.8092 581.977V580.605H80.5532V592.393H77.8092V591.161C76.8946 592.225 75.7186 592.757 74.2812 592.757C72.5452 592.757 71.1546 592.141 70.1092 590.909C69.0826 589.677 68.5692 588.203 68.5692 586.485C68.5692 584.619 69.1199 583.125 70.2212 582.005C71.3412 580.867 72.7039 580.297 74.3092 580.297C75.7839 580.297 76.9506 580.857 77.8092 581.977ZM74.6452 582.761C73.6746 582.761 72.8812 583.125 72.2652 583.853C71.6679 584.581 71.3692 585.477 71.3692 586.541C71.3692 587.587 71.6679 588.473 72.2652 589.201C72.8812 589.929 73.6746 590.293 74.6452 590.293C75.5786 590.293 76.3626 589.967 76.9972 589.313C77.6506 588.66 77.9772 587.745 77.9772 586.569C77.9772 585.356 77.6506 584.423 76.9972 583.769C76.3626 583.097 75.5786 582.761 74.6452 582.761ZM84.0329 580.605H88.6529C89.8289 580.605 90.7249 580.839 91.3409 581.305C92.0689 581.884 92.4329 582.64 92.4329 583.573C92.4329 584.637 91.9662 585.403 91.0329 585.869C91.6302 585.981 92.1622 586.243 92.6289 586.653C93.2449 587.213 93.5529 587.969 93.5529 588.921C93.5529 590.06 93.1235 590.956 92.2649 591.609C91.5555 592.132 90.6502 592.393 89.5489 592.393H84.0329V580.605ZM86.7769 585.197H88.1769C88.6622 585.197 89.0262 585.113 89.2689 584.945C89.6235 584.721 89.8009 584.404 89.8009 583.993C89.8009 583.601 89.6422 583.293 89.3249 583.069C89.1009 582.92 88.6995 582.845 88.1209 582.845H86.7769V585.197ZM86.7769 590.153H88.8209C89.4369 590.153 89.9129 590.041 90.2489 589.817C90.6222 589.575 90.8089 589.229 90.8089 588.781C90.8089 588.296 90.6315 587.951 90.2769 587.745C89.9595 587.54 89.5022 587.437 88.9049 587.437H86.7769V590.153ZM104.54 583.125H101.096V592.393H98.3516V583.125H94.9076V580.605H104.54V583.125ZM107.385 582.061C108.598 580.885 110.101 580.297 111.893 580.297C113.685 580.297 115.178 580.885 116.373 582.061C117.586 583.219 118.193 584.703 118.193 586.513C118.193 588.305 117.586 589.799 116.373 590.993C115.178 592.169 113.685 592.757 111.893 592.757C110.101 592.757 108.598 592.169 107.385 590.993C106.19 589.799 105.593 588.305 105.593 586.513C105.593 584.703 106.19 583.219 107.385 582.061ZM109.345 589.285C109.979 589.957 110.829 590.293 111.893 590.293C112.957 590.293 113.806 589.957 114.441 589.285C115.075 588.595 115.393 587.68 115.393 586.541C115.393 585.291 115.047 584.348 114.357 583.713C113.685 583.079 112.863 582.761 111.893 582.761C110.922 582.761 110.091 583.079 109.401 583.713C108.729 584.348 108.393 585.291 108.393 586.541C108.393 587.68 108.71 588.595 109.345 589.285ZM119.712 592.393L122.568 579.541L127.44 588.529L132.312 579.541L135.168 592.393H132.368L131.192 586.485L127.44 593.289L123.688 586.485L122.512 592.393H119.712ZM145.923 581.977V580.605H148.667V592.393H145.923V591.161C145.008 592.225 143.832 592.757 142.395 592.757C140.659 592.757 139.268 592.141 138.223 590.909C137.196 589.677 136.683 588.203 136.683 586.485C136.683 584.619 137.233 583.125 138.335 582.005C139.455 580.867 140.817 580.297 142.423 580.297C143.897 580.297 145.064 580.857 145.923 581.977ZM142.758 582.761C141.788 582.761 140.995 583.125 140.379 583.853C139.781 584.581 139.483 585.477 139.483 586.541C139.483 587.587 139.781 588.473 140.379 589.201C140.995 589.929 141.788 590.293 142.758 590.293C143.692 590.293 144.476 589.967 145.111 589.313C145.764 588.66 146.091 587.745 146.091 586.569C146.091 585.356 145.764 584.423 145.111 583.769C144.476 583.097 143.692 582.761 142.758 582.761ZM160.266 583.125H156.822V592.393H154.078V583.125H150.634V580.605H160.266V583.125ZM162.236 580.605H164.98V587.297L173.044 579.541V592.393H170.3V585.533L162.236 593.289V580.605ZM182.893 592.393V587.829C182.053 587.997 181.251 588.081 180.485 588.081C179.141 588.081 178.105 587.792 177.377 587.213C176.612 586.597 176.229 585.655 176.229 584.385V580.605H178.973V583.825C178.973 584.628 179.207 585.169 179.673 585.449C179.991 585.636 180.448 585.729 181.045 585.729C181.717 585.729 182.333 585.627 182.893 585.421V580.605H185.637V592.393H182.893ZM197.375 588.417L199.671 589.705C199.148 590.639 198.486 591.357 197.683 591.861C196.768 592.459 195.611 592.757 194.211 592.757C192.568 592.757 191.243 592.253 190.235 591.245C189.078 590.088 188.499 588.585 188.499 586.737C188.499 584.796 189.124 583.181 190.375 581.893C191.439 580.829 192.755 580.297 194.323 580.297C195.854 580.297 197.114 580.811 198.103 581.837C199.204 582.976 199.755 584.637 199.755 586.821V587.157H191.299C191.374 588.147 191.71 588.94 192.307 589.537C192.811 590.041 193.511 590.293 194.407 590.293C195.135 590.293 195.76 590.097 196.283 589.705C196.712 589.369 197.076 588.94 197.375 588.417ZM191.495 584.917H196.955C196.843 584.264 196.563 583.732 196.115 583.321C195.63 582.873 195.014 582.649 194.267 582.649C193.483 582.649 192.839 582.901 192.335 583.405C191.924 583.779 191.644 584.283 191.495 584.917ZM211.751 581.137V584.217C210.761 583.247 209.651 582.761 208.419 582.761C207.373 582.761 206.505 583.107 205.815 583.797C205.143 584.469 204.807 585.375 204.807 586.513C204.807 587.689 205.161 588.632 205.871 589.341C206.543 589.976 207.373 590.293 208.363 590.293C209.725 590.293 210.855 589.789 211.751 588.781V591.833C210.761 592.449 209.567 592.757 208.167 592.757C206.281 592.757 204.788 592.179 203.687 591.021C202.567 589.864 202.007 588.389 202.007 586.597C202.007 584.749 202.604 583.228 203.799 582.033C204.956 580.876 206.533 580.297 208.531 580.297C209.669 580.297 210.743 580.577 211.751 581.137ZM214.381 580.605H217.125V584.805L221.045 580.605H224.685L219.533 585.757L224.965 592.393H221.493L217.573 587.549L217.125 587.997V592.393H214.381V580.605ZM226.767 580.605H229.511V587.297L237.575 579.541V592.393H234.831V585.533L226.767 593.289V580.605ZM256.704 581.137V584.217C255.715 583.247 254.604 582.761 253.372 582.761C252.327 582.761 251.459 583.107 250.768 583.797C250.096 584.469 249.76 585.375 249.76 586.513C249.76 587.689 250.115 588.632 250.824 589.341C251.496 589.976 252.327 590.293 253.316 590.293C254.679 590.293 255.808 589.789 256.704 588.781V591.833C255.715 592.449 254.52 592.757 253.12 592.757C251.235 592.757 249.741 592.179 248.64 591.021C247.52 589.864 246.96 588.389 246.96 586.597C246.96 584.749 247.557 583.228 248.752 582.033C249.909 580.876 251.487 580.297 253.484 580.297C254.623 580.297 255.696 580.577 256.704 581.137ZM260.51 582.061C261.723 580.885 263.226 580.297 265.018 580.297C266.81 580.297 268.303 580.885 269.498 582.061C270.711 583.219 271.318 584.703 271.318 586.513C271.318 588.305 270.711 589.799 269.498 590.993C268.303 592.169 266.81 592.757 265.018 592.757C263.226 592.757 261.723 592.169 260.51 590.993C259.315 589.799 258.718 588.305 258.718 586.513C258.718 584.703 259.315 583.219 260.51 582.061ZM262.47 589.285C263.104 589.957 263.954 590.293 265.018 590.293C266.082 590.293 266.931 589.957 267.566 589.285C268.2 588.595 268.518 587.68 268.518 586.541C268.518 585.291 268.172 584.348 267.482 583.713C266.81 583.079 265.988 582.761 265.018 582.761C264.047 582.761 263.216 583.079 262.526 583.713C261.854 584.348 261.518 585.291 261.518 586.541C261.518 587.68 261.835 588.595 262.47 589.285ZM275.176 583.657L273.412 582.117C273.86 581.576 274.457 581.137 275.204 580.801C275.988 580.465 276.912 580.297 277.976 580.297C279.208 580.297 280.206 580.568 280.972 581.109C281.793 581.707 282.204 582.509 282.204 583.517C282.204 584.171 282.036 584.712 281.7 585.141C281.42 585.515 281.046 585.795 280.58 585.981C281.289 586.131 281.858 586.42 282.288 586.849C282.792 587.353 283.044 588.007 283.044 588.809C283.044 589.873 282.708 590.741 282.036 591.413C281.14 592.309 279.758 592.757 277.892 592.757C276.641 592.757 275.614 592.524 274.812 592.057C273.972 591.572 273.356 590.872 272.964 589.957L275.148 588.837C275.409 589.397 275.754 589.808 276.184 590.069C276.65 590.368 277.238 590.517 277.948 590.517C278.806 590.517 279.432 590.321 279.824 589.929C280.104 589.612 280.244 589.267 280.244 588.893C280.244 588.501 280.122 588.184 279.88 587.941C279.562 587.605 278.909 587.437 277.92 587.437H276.688V585.197H277.724C278.321 585.197 278.769 585.095 279.068 584.889C279.404 584.628 279.572 584.283 279.572 583.853C279.572 583.405 279.404 583.069 279.068 582.845C278.788 582.64 278.349 582.537 277.752 582.537C277.192 582.537 276.678 582.649 276.212 582.873C275.82 583.06 275.474 583.321 275.176 583.657ZM286.92 580.605H295.768V589.873H297.56V595.753H295.04V592.393H286.808V595.753H284.288V589.873C285.24 589.817 285.958 589.304 286.444 588.333C286.761 587.643 286.92 586.607 286.92 585.225V580.605ZM293.024 589.873V583.125H289.552V586.261C289.552 587.96 289.094 589.164 288.18 589.873H293.024ZM308.153 581.977V580.605H310.897V592.393H308.153V591.161C307.238 592.225 306.062 592.757 304.625 592.757C302.889 592.757 301.498 592.141 300.453 590.909C299.426 589.677 298.913 588.203 298.913 586.485C298.913 584.619 299.464 583.125 300.565 582.005C301.685 580.867 303.048 580.297 304.653 580.297C306.128 580.297 307.294 580.857 308.153 581.977ZM304.989 582.761C304.018 582.761 303.225 583.125 302.609 583.853C302.012 584.581 301.713 585.477 301.713 586.541C301.713 587.587 302.012 588.473 302.609 589.201C303.225 589.929 304.018 590.293 304.989 590.293C305.922 590.293 306.706 589.967 307.341 589.313C307.994 588.66 308.321 587.745 308.321 586.569C308.321 585.356 307.994 584.423 307.341 583.769C306.706 583.097 305.922 582.761 304.989 582.761ZM322.637 588.417L324.933 589.705C324.41 590.639 323.747 591.357 322.945 591.861C322.03 592.459 320.873 592.757 319.473 592.757C317.83 592.757 316.505 592.253 315.497 591.245C314.339 590.088 313.761 588.585 313.761 586.737C313.761 584.796 314.386 583.181 315.637 581.893C316.701 580.829 318.017 580.297 319.585 580.297C321.115 580.297 322.375 580.811 323.365 581.837C324.466 582.976 325.017 584.637 325.017 586.821V587.157H316.561C316.635 588.147 316.971 588.94 317.569 589.537C318.073 590.041 318.773 590.293 319.669 590.293C320.397 590.293 321.022 590.097 321.545 589.705C321.974 589.369 322.338 588.94 322.637 588.417ZM316.757 584.917H322.217C322.105 584.264 321.825 583.732 321.377 583.321C320.891 582.873 320.275 582.649 319.529 582.649C318.745 582.649 318.101 582.901 317.597 583.405C317.186 583.779 316.906 584.283 316.757 584.917ZM326.54 592.393L329.396 579.541L334.268 588.529L339.14 579.541L341.996 592.393H339.196L338.02 586.485L334.268 593.289L330.516 586.485L329.34 592.393H326.54ZM351.166 573.717H353.994C355.263 573.717 356.29 573.82 357.074 574.025C357.858 574.231 358.548 574.613 359.146 575.173C360.135 576.107 360.63 577.339 360.63 578.869C360.63 579.747 360.443 580.484 360.07 581.081C359.734 581.66 359.267 582.089 358.67 582.369C359.64 582.612 360.443 583.06 361.078 583.713C361.899 584.572 362.31 585.739 362.31 587.213C362.31 588.576 361.899 589.696 361.078 590.573C359.92 591.787 358.175 592.393 355.842 592.393H351.166V573.717ZM354.022 576.405V581.753H354.89C355.935 581.753 356.71 581.511 357.214 581.025C357.699 580.559 357.942 579.849 357.942 578.897C357.942 578.132 357.718 577.535 357.27 577.105C356.784 576.639 356.028 576.405 355.002 576.405H354.022ZM354.022 584.105V589.705H355.758C357.046 589.705 357.988 589.463 358.586 588.977C359.202 588.492 359.51 587.801 359.51 586.905C359.51 586.103 359.258 585.449 358.754 584.945C358.175 584.385 357.195 584.105 355.814 584.105H354.022ZM374.024 581.977V580.605H376.768V592.393H374.024V591.161C373.109 592.225 371.933 592.757 370.496 592.757C368.76 592.757 367.369 592.141 366.324 590.909C365.297 589.677 364.784 588.203 364.784 586.485C364.784 584.619 365.335 583.125 366.436 582.005C367.556 580.867 368.919 580.297 370.524 580.297C371.999 580.297 373.165 580.857 374.024 581.977ZM370.86 582.761C369.889 582.761 369.096 583.125 368.48 583.853C367.883 584.581 367.584 585.477 367.584 586.541C367.584 587.587 367.883 588.473 368.48 589.201C369.096 589.929 369.889 590.293 370.86 590.293C371.793 590.293 372.577 589.967 373.212 589.313C373.865 588.66 374.192 587.745 374.192 586.569C374.192 585.356 373.865 584.423 373.212 583.769C372.577 583.097 371.793 582.761 370.86 582.761ZM380.248 592.393V580.605H382.992V589.873H386.912V580.605H389.656V589.873H393.576V580.605H396.32V592.393H380.248ZM398.931 598.805L403.271 590.545L398.231 580.605H401.535L404.895 587.493L408.311 580.605H411.391L402.011 598.805H398.931ZM126.822 621.261L130.378 625.881L128.558 627.197L124.022 621.261L128.558 615.325L130.378 616.641L126.822 621.261ZM132.03 621.261L135.586 625.881L133.766 627.197L129.23 621.261L133.766 615.325L135.586 616.641L132.03 621.261ZM139.334 627.393V608.717H148.686V611.405H142.19V616.249H144.038C146.035 616.249 147.594 616.744 148.714 617.733C149.89 618.76 150.478 620.132 150.478 621.849C150.478 622.745 150.272 623.604 149.862 624.425C149.47 625.228 148.9 625.881 148.154 626.385C147.146 627.057 145.783 627.393 144.066 627.393H139.334ZM142.19 618.937V624.705H143.926C146.427 624.705 147.678 623.763 147.678 621.877C147.678 621.056 147.398 620.365 146.838 619.805C146.296 619.227 145.344 618.937 143.982 618.937H142.19ZM162.192 616.977V615.605H164.936V627.393H162.192V626.161C161.277 627.225 160.101 627.757 158.664 627.757C156.928 627.757 155.537 627.141 154.492 625.909C153.465 624.677 152.952 623.203 152.952 621.485C152.952 619.619 153.503 618.125 154.604 617.005C155.724 615.867 157.087 615.297 158.692 615.297C160.167 615.297 161.333 615.857 162.192 616.977ZM159.028 617.761C158.057 617.761 157.264 618.125 156.648 618.853C156.051 619.581 155.752 620.477 155.752 621.541C155.752 622.587 156.051 623.473 156.648 624.201C157.264 624.929 158.057 625.293 159.028 625.293C159.961 625.293 160.745 624.967 161.38 624.313C162.033 623.66 162.36 622.745 162.36 621.569C162.36 620.356 162.033 619.423 161.38 618.769C160.745 618.097 159.961 617.761 159.028 617.761ZM170.012 618.657L168.248 617.117C168.696 616.576 169.293 616.137 170.04 615.801C170.824 615.465 171.748 615.297 172.812 615.297C174.044 615.297 175.042 615.568 175.808 616.109C176.629 616.707 177.04 617.509 177.04 618.517C177.04 619.171 176.872 619.712 176.536 620.141C176.256 620.515 175.882 620.795 175.416 620.981C176.125 621.131 176.694 621.42 177.124 621.849C177.628 622.353 177.88 623.007 177.88 623.809C177.88 624.873 177.544 625.741 176.872 626.413C175.976 627.309 174.594 627.757 172.728 627.757C171.477 627.757 170.45 627.524 169.648 627.057C168.808 626.572 168.192 625.872 167.8 624.957L169.984 623.837C170.245 624.397 170.59 624.808 171.02 625.069C171.486 625.368 172.074 625.517 172.784 625.517C173.642 625.517 174.268 625.321 174.66 624.929C174.94 624.612 175.08 624.267 175.08 623.893C175.08 623.501 174.958 623.184 174.716 622.941C174.398 622.605 173.745 622.437 172.756 622.437H171.524V620.197H172.56C173.157 620.197 173.605 620.095 173.904 619.889C174.24 619.628 174.408 619.283 174.408 618.853C174.408 618.405 174.24 618.069 173.904 617.845C173.624 617.64 173.185 617.537 172.588 617.537C172.028 617.537 171.514 617.649 171.048 617.873C170.656 618.06 170.31 618.321 170.012 618.657ZM179.278 633.805L183.618 625.545L178.578 615.605H181.882L185.242 622.493L188.658 615.605H191.738L182.358 633.805H179.278ZM200.189 615.605H202.933V619.805L206.853 615.605H210.493L205.341 620.757L210.773 627.393H207.301L203.381 622.549L202.933 622.997V627.393H200.189V615.605ZM222.537 615.605V627.393H219.793V618.125H216.321V622.801C216.321 624.257 215.948 625.387 215.201 626.189C214.249 627.253 212.961 627.655 211.337 627.393V624.873C212.14 625.06 212.784 624.883 213.269 624.341C213.549 624.005 213.689 623.492 213.689 622.801V615.605H222.537ZM226.002 615.605H228.746V622.297L236.81 614.541V627.393H234.066V620.533L226.002 628.289V615.605ZM248.535 623.417L250.831 624.705C250.308 625.639 249.646 626.357 248.843 626.861C247.928 627.459 246.771 627.757 245.371 627.757C243.728 627.757 242.403 627.253 241.395 626.245C240.238 625.088 239.659 623.585 239.659 621.737C239.659 619.796 240.284 618.181 241.535 616.893C242.599 615.829 243.915 615.297 245.483 615.297C247.014 615.297 248.274 615.811 249.263 616.837C250.364 617.976 250.915 619.637 250.915 621.821V622.157H242.459C242.534 623.147 242.87 623.94 243.467 624.537C243.971 625.041 244.671 625.293 245.567 625.293C246.295 625.293 246.92 625.097 247.443 624.705C247.872 624.369 248.236 623.94 248.535 623.417ZM242.655 619.917H248.115C248.003 619.264 247.723 618.732 247.275 618.321C246.79 617.873 246.174 617.649 245.427 617.649C244.643 617.649 243.999 617.901 243.495 618.405C243.084 618.779 242.804 619.283 242.655 619.917ZM253.783 627.393V615.605H256.527V619.973H261.399V615.605H264.143V627.393H261.399V622.493H256.527V627.393H253.783ZM275.739 618.125H272.295V627.393H269.551V618.125H266.107V615.605H275.739V618.125ZM278.584 617.061C279.797 615.885 281.3 615.297 283.092 615.297C284.884 615.297 286.377 615.885 287.572 617.061C288.785 618.219 289.392 619.703 289.392 621.513C289.392 623.305 288.785 624.799 287.572 625.993C286.377 627.169 284.884 627.757 283.092 627.757C281.3 627.757 279.797 627.169 278.584 625.993C277.389 624.799 276.792 623.305 276.792 621.513C276.792 619.703 277.389 618.219 278.584 617.061ZM280.544 624.285C281.179 624.957 282.028 625.293 283.092 625.293C284.156 625.293 285.005 624.957 285.64 624.285C286.275 623.595 286.592 622.68 286.592 621.541C286.592 620.291 286.247 619.348 285.556 618.713C284.884 618.079 284.063 617.761 283.092 617.761C282.121 617.761 281.291 618.079 280.6 618.713C279.928 619.348 279.592 620.291 279.592 621.541C279.592 622.68 279.909 623.595 280.544 624.285ZM292.256 615.605H296.876C298.052 615.605 298.948 615.839 299.564 616.305C300.292 616.884 300.656 617.64 300.656 618.573C300.656 619.637 300.189 620.403 299.256 620.869C299.853 620.981 300.385 621.243 300.852 621.653C301.468 622.213 301.776 622.969 301.776 623.921C301.776 625.06 301.346 625.956 300.488 626.609C299.778 627.132 298.873 627.393 297.772 627.393H292.256V615.605ZM295 620.197H296.4C296.885 620.197 297.249 620.113 297.492 619.945C297.846 619.721 298.024 619.404 298.024 618.993C298.024 618.601 297.865 618.293 297.548 618.069C297.324 617.92 296.922 617.845 296.344 617.845H295V620.197ZM295 625.153H297.044C297.66 625.153 298.136 625.041 298.472 624.817C298.845 624.575 299.032 624.229 299.032 623.781C299.032 623.296 298.854 622.951 298.5 622.745C298.182 622.54 297.725 622.437 297.128 622.437H295V625.153ZM313.182 621.261L309.626 616.641L311.446 615.325L315.982 621.261L311.446 627.197L309.626 625.881L313.182 621.261ZM307.974 621.261L304.418 616.641L306.238 615.325L310.774 621.261L306.238 627.197L304.418 625.881L307.974 621.261Z" fill="#475762"/>
<g filter="url(#filter6_dd)">
<rect x="409" y="134.556" width="84" height="84.1782" rx="10" fill="#FFBBAF"/>
</g>
<rect x="402.5" y="143.073" width="82" height="83.1782" rx="9.5" fill="white" stroke="#FD6F55"/>
<path d="M465.933 181.56L463.872 178.873C463.836 178.636 463.842 178.169 463.845 177.875C463.847 177.746 463.848 177.62 463.848 177.5V174.101C463.848 171.88 462.342 170.065 459.916 169.365L456.526 168.386C456.196 168.291 455.909 168.085 455.717 167.804L453.729 164.909C452.428 163.014 450.005 162.23 447.836 163.002L444.503 164.19C444.178 164.305 443.821 164.305 443.497 164.19L440.164 163.003C437.995 162.23 435.572 163.014 434.271 164.909L432.283 167.804C432.101 168.07 431.833 168.27 431.525 168.371L427.993 169.114C427.95 169.124 427.908 169.134 427.865 169.146C425.618 169.795 424.094 171.842 424.151 174.131V177.621C424.151 177.743 424.154 177.87 424.157 178.001C424.162 178.26 424.171 178.682 424.126 178.856L422.065 181.563C420.644 183.39 420.645 185.937 422.067 187.763L424.132 190.458C424.17 190.622 424.162 191.036 424.157 191.343C424.154 191.501 424.151 191.662 424.151 191.826V195.323C424.1 197.468 425.604 199.243 428.084 199.959L431.474 200.937C431.803 201.032 432.091 201.239 432.283 201.52L434.271 204.415C435.236 205.822 436.82 206.616 438.46 206.616C439.029 206.616 439.605 206.52 440.164 206.321L443.497 205.134C443.821 205.018 444.179 205.018 444.503 205.134L447.836 206.321C448.395 206.52 448.971 206.616 449.54 206.616C451.179 206.616 452.764 205.822 453.729 204.415L455.716 201.52C455.909 201.239 456.196 201.032 456.526 200.937L459.916 199.959C462.12 199.323 463.921 196.796 463.847 194.441C463.817 193.447 462.984 192.664 461.996 192.698C461.004 192.729 460.225 193.559 460.256 194.553C460.277 195.247 459.542 196.319 458.921 196.498L455.531 197.477C454.404 197.802 453.418 198.513 452.756 199.479L450.768 202.374C450.388 202.928 449.678 203.155 449.04 202.928L445.707 201.741C444.606 201.349 443.394 201.349 442.293 201.741L438.96 202.928C438.322 203.156 437.611 202.928 437.231 202.374L435.244 199.479C434.582 198.513 433.596 197.802 432.468 197.477L429.078 196.498C428.94 196.458 427.723 196.087 427.744 195.403C427.745 195.385 427.745 195.366 427.745 195.347V191.826C427.745 191.684 427.748 191.543 427.75 191.406C427.766 190.468 427.787 189.302 427.006 188.296L424.913 185.565C424.91 185.56 424.906 185.556 424.902 185.551C424.493 185.028 424.493 184.296 424.902 183.773C424.907 183.767 424.912 183.761 424.916 183.755L427.008 181.008C427.792 179.995 427.766 178.751 427.749 177.926C427.747 177.821 427.745 177.719 427.745 177.621V174.106C427.745 174.088 427.745 174.069 427.744 174.05C427.725 173.423 428.17 172.831 428.809 172.623L432.341 171.879C432.384 171.87 432.426 171.859 432.468 171.847C433.596 171.522 434.581 170.811 435.244 169.845L437.231 166.95C437.611 166.396 438.322 166.168 438.96 166.396L442.293 167.583C443.394 167.975 444.606 167.975 445.707 167.583L449.04 166.396C449.678 166.168 450.388 166.396 450.768 166.95L452.756 169.845C453.418 170.811 454.404 171.522 455.531 171.847L458.921 172.826C459.419 172.969 460.255 173.326 460.255 174.101V177.5C460.255 177.606 460.253 177.716 460.252 177.829C460.239 178.878 460.223 180.172 461.042 181.093L463.087 183.76C463.091 183.764 463.094 183.769 463.097 183.773C463.507 184.296 463.507 185.028 463.097 185.551C462.485 186.334 462.623 187.466 463.404 188.079C464.185 188.692 465.314 188.555 465.926 187.772C467.356 185.944 467.358 183.391 465.933 181.56Z" fill="#FD6F55"/>
<path d="M438.457 195.261C438.729 195.409 439.021 195.478 439.31 195.478C439.948 195.478 440.567 195.136 440.892 194.534L450.604 176.528C451.076 175.653 450.751 174.561 449.878 174.088C449.005 173.615 447.915 173.941 447.443 174.816L437.731 192.821C437.259 193.696 437.584 194.789 438.457 195.261Z" fill="#FD6F55"/>
<path d="M441.035 178.373C441.035 175.89 439.02 173.871 436.543 173.871C434.066 173.871 432.051 175.89 432.051 178.373C432.051 180.855 434.066 182.874 436.543 182.874C439.02 182.874 441.035 180.855 441.035 178.373ZM436.543 179.273C436.048 179.273 435.645 178.869 435.645 178.373C435.645 177.876 436.048 177.472 436.543 177.472C437.039 177.472 437.442 177.876 437.442 178.373C437.442 178.869 437.039 179.273 436.543 179.273Z" fill="#FD6F55"/>
<path d="M451.367 195.478C453.843 195.478 455.859 193.459 455.859 190.976C455.859 188.494 453.843 186.475 451.367 186.475C448.89 186.475 446.875 188.494 446.875 190.976C446.875 193.459 448.89 195.478 451.367 195.478ZM451.367 190.076C451.862 190.076 452.265 190.48 452.265 190.977C452.265 191.473 451.862 191.877 451.367 191.877C450.871 191.877 450.468 191.473 450.468 190.977C450.468 190.48 450.871 190.076 451.367 190.076Z" fill="#FD6F55"/>
<g filter="url(#filter7_dd)">
<rect x="260" y="16.3054" width="84" height="84.1782" rx="10" fill="#B8E7DE"/>
</g>
<rect x="253.5" y="24.8223" width="82" height="83.1782" rx="9.5" fill="white" stroke="#6EC1B1"/>
<path d="M316.203 73.2558C317.196 73.2558 318 72.4497 318 71.4552V59.5706C318 55.599 314.776 52.368 310.812 52.368H303.079V50.0203C303.079 47.2917 300.864 45.0718 298.141 45.0718H291.859C289.136 45.0718 286.921 47.2917 286.921 50.0203V52.3679H279.188C275.224 52.3679 272 55.599 272 59.5706V80.5486C272 84.5202 275.224 87.7514 279.188 87.7514H310.812C314.776 87.7514 318 84.5202 318 80.5486C318 79.5541 317.196 78.7479 316.203 78.7479C315.211 78.7479 314.406 79.5541 314.406 80.5486C314.406 82.5344 312.794 84.15 310.812 84.15H279.188C277.206 84.15 275.594 82.5344 275.594 80.5486V67.7604H293.293V70.4648C293.293 71.4593 294.097 72.2655 295.09 72.2655C296.082 72.2655 296.887 71.4593 296.887 70.4648V67.7604H314.406V71.4552C314.406 72.4497 315.211 73.2558 316.203 73.2558ZM290.514 50.0203C290.514 49.2775 291.117 48.6731 291.859 48.6731H298.141C298.883 48.6731 299.486 49.2775 299.486 50.0203V52.3679H290.514V50.0203ZM275.594 64.1591V59.5707C275.594 57.5849 277.206 55.9693 279.188 55.9693H310.812C312.794 55.9693 314.406 57.5849 314.406 59.5707V64.1591H275.594Z" fill="#6EC1B1"/>
<defs>
<filter id="filter0_dd" x="82" y="238.802" width="176" height="176.271" filterUnits="userSpaceOnUse" color-interpolation-filters="sRGB">
<feFlood flood-opacity="0" result="BackgroundImageFix"/>
<feColorMatrix in="SourceAlpha" type="matrix" values="0 0 0 0 0 0 0 0 0 0 0 0 0 0 0 0 0 0 127 0"/>
<feOffset dx="9" dy="12"/>
<feGaussianBlur stdDeviation="12"/>
<feColorMatrix type="matrix" values="0 0 0 0 0 0 0 0 0 0 0 0 0 0 0 0 0 0 0.07 0"/>
<feBlend mode="normal" in2="BackgroundImageFix" result="effect1_dropShadow"/>
<feColorMatrix in="SourceAlpha" type="matrix" values="0 0 0 0 0 0 0 0 0 0 0 0 0 0 0 0 0 0 127 0"/>
<feOffset dy="3"/>
<feGaussianBlur stdDeviation="1.5"/>
<feColorMatrix type="matrix" values="0 0 0 0 0 0 0 0 0 0 0 0 0 0 0 0 0 0 0.03 0"/>
<feBlend mode="normal" in2="effect1_dropShadow" result="effect2_dropShadow"/>
<feBlend mode="normal" in="SourceGraphic" in2="effect2_dropShadow" result="shape"/>
</filter>
<filter id="filter1_dd" x="180" y="189.698" width="471" height="435.821" filterUnits="userSpaceOnUse" color-interpolation-filters="sRGB">
<feFlood flood-opacity="0" result="BackgroundImageFix"/>
<feColorMatrix in="SourceAlpha" type="matrix" values="0 0 0 0 0 0 0 0 0 0 0 0 0 0 0 0 0 0 127 0"/>
<feOffset dx="9" dy="12"/>
<feGaussianBlur stdDeviation="12"/>
<feColorMatrix type="matrix" values="0 0 0 0 0 0 0 0 0 0 0 0 0 0 0 0 0 0 0.07 0"/>
<feBlend mode="normal" in2="BackgroundImageFix" result="effect1_dropShadow"/>
<feColorMatrix in="SourceAlpha" type="matrix" values="0 0 0 0 0 0 0 0 0 0 0 0 0 0 0 0 0 0 127 0"/>
<feOffset dy="3"/>
<feGaussianBlur stdDeviation="1.5"/>
<feColorMatrix type="matrix" values="0 0 0 0 0 0 0 0 0 0 0 0 0 0 0 0 0 0 0.03 0"/>
<feBlend mode="normal" in2="effect1_dropShadow" result="effect2_dropShadow"/>
<feBlend mode="normal" in="SourceGraphic" in2="effect2_dropShadow" result="shape"/>
</filter>
<filter id="filter2_dd" x="525" y="512.381" width="179" height="179.278" filterUnits="userSpaceOnUse" color-interpolation-filters="sRGB">
<feFlood flood-opacity="0" result="BackgroundImageFix"/>
<feColorMatrix in="SourceAlpha" type="matrix" values="0 0 0 0 0 0 0 0 0 0 0 0 0 0 0 0 0 0 127 0"/>
<feOffset dx="9" dy="12"/>
<feGaussianBlur stdDeviation="12"/>
<feColorMatrix type="matrix" values="0 0 0 0 0 0 0 0 0 0 0 0 0 0 0 0 0 0 0.07 0"/>
<feBlend mode="normal" in2="BackgroundImageFix" result="effect1_dropShadow"/>
<feColorMatrix in="SourceAlpha" type="matrix" values="0 0 0 0 0 0 0 0 0 0 0 0 0 0 0 0 0 0 127 0"/>
<feOffset dy="3"/>
<feGaussianBlur stdDeviation="1.5"/>
<feColorMatrix type="matrix" values="0 0 0 0 0 0 0 0 0 0 0 0 0 0 0 0 0 0 0.03 0"/>
<feBlend mode="normal" in2="effect1_dropShadow" result="effect2_dropShadow"/>
<feBlend mode="normal" in="SourceGraphic" in2="effect2_dropShadow" result="shape"/>
</filter>
<filter id="filter3_dd" x="703" y="118.556" width="126" height="126.178" filterUnits="userSpaceOnUse" color-interpolation-filters="sRGB">
<feFlood flood-opacity="0" result="BackgroundImageFix"/>
<feColorMatrix in="SourceAlpha" type="matrix" values="0 0 0 0 0 0 0 0 0 0 0 0 0 0 0 0 0 0 127 0"/>
<feOffset dx="7" dy="5"/>
<feGaussianBlur stdDeviation="10.5"/>
<feColorMatrix type="matrix" values="0 0 0 0 0 0 0 0 0 0 0 0 0 0 0 0 0 0 0.05 0"/>
<feBlend mode="normal" in2="BackgroundImageFix" result="effect1_dropShadow"/>
<feColorMatrix in="SourceAlpha" type="matrix" values="0 0 0 0 0 0 0 0 0 0 0 0 0 0 0 0 0 0 127 0"/>
<feOffset dx="3" dy="3"/>
<feGaussianBlur stdDeviation="1.5"/>
<feColorMatrix type="matrix" values="0 0 0 0 0 0 0 0 0 0 0 0 0 0 0 0 0 0 0.03 0"/>
<feBlend mode="normal" in2="effect1_dropShadow" result="effect2_dropShadow"/>
<feBlend mode="normal" in="SourceGraphic" in2="effect2_dropShadow" result="shape"/>
</filter>
<filter id="filter4_dd" x="552" y="0.30542" width="126" height="126.178" filterUnits="userSpaceOnUse" color-interpolation-filters="sRGB">
<feFlood flood-opacity="0" result="BackgroundImageFix"/>
<feColorMatrix in="SourceAlpha" type="matrix" values="0 0 0 0 0 0 0 0 0 0 0 0 0 0 0 0 0 0 127 0"/>
<feOffset dx="7" dy="5"/>
<feGaussianBlur stdDeviation="10.5"/>
<feColorMatrix type="matrix" values="0 0 0 0 0 0 0 0 0 0 0 0 0 0 0 0 0 0 0.05 0"/>
<feBlend mode="normal" in2="BackgroundImageFix" result="effect1_dropShadow"/>
<feColorMatrix in="SourceAlpha" type="matrix" values="0 0 0 0 0 0 0 0 0 0 0 0 0 0 0 0 0 0 127 0"/>
<feOffset dx="3" dy="3"/>
<feGaussianBlur stdDeviation="1.5"/>
<feColorMatrix type="matrix" values="0 0 0 0 0 0 0 0 0 0 0 0 0 0 0 0 0 0 0.03 0"/>
<feBlend mode="normal" in2="effect1_dropShadow" result="effect2_dropShadow"/>
<feBlend mode="normal" in="SourceGraphic" in2="effect2_dropShadow" result="shape"/>
</filter>
<filter id="filter5_dd" x="0" y="491.336" width="477" height="188.297" filterUnits="userSpaceOnUse" color-interpolation-filters="sRGB">
<feFlood flood-opacity="0" result="BackgroundImageFix"/>
<feColorMatrix in="SourceAlpha" type="matrix" values="0 0 0 0 0 0 0 0 0 0 0 0 0 0 0 0 0 0 127 0"/>
<feOffset dx="9" dy="12"/>
<feGaussianBlur stdDeviation="12"/>
<feColorMatrix type="matrix" values="0 0 0 0 0 0 0 0 0 0 0 0 0 0 0 0 0 0 0.07 0"/>
<feBlend mode="normal" in2="BackgroundImageFix" result="effect1_dropShadow"/>
<feColorMatrix in="SourceAlpha" type="matrix" values="0 0 0 0 0 0 0 0 0 0 0 0 0 0 0 0 0 0 127 0"/>
<feOffset dy="3"/>
<feGaussianBlur stdDeviation="1.5"/>
<feColorMatrix type="matrix" values="0 0 0 0 0 0 0 0 0 0 0 0 0 0 0 0 0 0 0.03 0"/>
<feBlend mode="normal" in2="effect1_dropShadow" result="effect2_dropShadow"/>
<feBlend mode="normal" in="SourceGraphic" in2="effect2_dropShadow" result="shape"/>
</filter>
<filter id="filter6_dd" x="395" y="118.556" width="126" height="126.178" filterUnits="userSpaceOnUse" color-interpolation-filters="sRGB">
<feFlood flood-opacity="0" result="BackgroundImageFix"/>
<feColorMatrix in="SourceAlpha" type="matrix" values="0 0 0 0 0 0 0 0 0 0 0 0 0 0 0 0 0 0 127 0"/>
<feOffset dx="7" dy="5"/>
<feGaussianBlur stdDeviation="10.5"/>
<feColorMatrix type="matrix" values="0 0 0 0 0 0 0 0 0 0 0 0 0 0 0 0 0 0 0.05 0"/>
<feBlend mode="normal" in2="BackgroundImageFix" result="effect1_dropShadow"/>
<feColorMatrix in="SourceAlpha" type="matrix" values="0 0 0 0 0 0 0 0 0 0 0 0 0 0 0 0 0 0 127 0"/>
<feOffset dx="3" dy="3"/>
<feGaussianBlur stdDeviation="1.5"/>
<feColorMatrix type="matrix" values="0 0 0 0 0 0 0 0 0 0 0 0 0 0 0 0 0 0 0.03 0"/>
<feBlend mode="normal" in2="effect1_dropShadow" result="effect2_dropShadow"/>
<feBlend mode="normal" in="SourceGraphic" in2="effect2_dropShadow" result="shape"/>
</filter>
<filter id="filter7_dd" x="246" y="0.30542" width="126" height="126.178" filterUnits="userSpaceOnUse" color-interpolation-filters="sRGB">
<feFlood flood-opacity="0" result="BackgroundImageFix"/>
<feColorMatrix in="SourceAlpha" type="matrix" values="0 0 0 0 0 0 0 0 0 0 0 0 0 0 0 0 0 0 127 0"/>
<feOffset dx="7" dy="5"/>
<feGaussianBlur stdDeviation="10.5"/>
<feColorMatrix type="matrix" values="0 0 0 0 0 0 0 0 0 0 0 0 0 0 0 0 0 0 0.05 0"/>
<feBlend mode="normal" in2="BackgroundImageFix" result="effect1_dropShadow"/>
<feColorMatrix in="SourceAlpha" type="matrix" values="0 0 0 0 0 0 0 0 0 0 0 0 0 0 0 0 0 0 127 0"/>
<feOffset dx="3" dy="3"/>
<feGaussianBlur stdDeviation="1.5"/>
<feColorMatrix type="matrix" values="0 0 0 0 0 0 0 0 0 0 0 0 0 0 0 0 0 0 0.03 0"/>
<feBlend mode="normal" in2="effect1_dropShadow" result="effect2_dropShadow"/>
<feBlend mode="normal" in="SourceGraphic" in2="effect2_dropShadow" result="shape"/>
</filter>
<clipPath id="clip0">
<rect width="46" height="46.0976" fill="white" transform="translate(729 161.613)"/>
</clipPath>
<clipPath id="clip1">
<rect width="46" height="46.0976" fill="white" transform="translate(578 43.3628)"/>
</clipPath>
</defs>
</svg>
