<svg width="554" height="592" viewBox="0 0 554 592" fill="none" xmlns="http://www.w3.org/2000/svg">
<g filter="url(#filter0_dd)">
<rect x="70" y="172" width="351" height="261" rx="5" fill="#B8E7DE"/>
</g>
<path d="M290 433H293V436H290V433Z" fill="#BABABA"/>
<path d="M290 323H293V326H290V323Z" fill="#BABABA"/>
<path d="M301 433H304V436H301V433Z" fill="#BABABA"/>
<path d="M301 323H304V326H301V323Z" fill="#BABABA"/>
<path d="M312 433H315V436H312V433Z" fill="#BABABA"/>
<path d="M312 323H315V326H312V323Z" fill="#BABABA"/>
<path d="M323 433H326V436H323V433Z" fill="#BABABA"/>
<path d="M323 323H326V326H323V323Z" fill="#BABABA"/>
<path d="M334 433H337V436H334V433Z" fill="#BABABA"/>
<path d="M334 323H337V326H334V323Z" fill="#BABABA"/>
<path d="M345 433H348V436H345V433Z" fill="#BABABA"/>
<path d="M345 323H348V326H345V323Z" fill="#BABABA"/>
<path d="M356 433H359V436H356V433Z" fill="#BABABA"/>
<path d="M356 323H359V326H356V323Z" fill="#BABABA"/>
<path d="M367 433H370V436H367V433Z" fill="#BABABA"/>
<path d="M367 323H370V326H367V323Z" fill="#BABABA"/>
<path d="M378 433H381V436H378V433Z" fill="#BABABA"/>
<path d="M378 323H381V326H378V323Z" fill="#BABABA"/>
<path d="M389 433H392V436H389V433Z" fill="#BABABA"/>
<path d="M389 323H392V326H389V323Z" fill="#BABABA"/>
<path d="M400 433H403V436H400V433Z" fill="#BABABA"/>
<path d="M400 323H403V326H400V323Z" fill="#BABABA"/>
<path d="M411 433H414V436H411V433Z" fill="#BABABA"/>
<path d="M411 323H414V326H411V323Z" fill="#BABABA"/>
<path d="M422 433H425V436H422V433Z" fill="#BABABA"/>
<path d="M422 323H425V326H422V323Z" fill="#BABABA"/>
<path d="M433 433H436V436H433V433Z" fill="#BABABA"/>
<path d="M433 323H436V326H433V323Z" fill="#BABABA"/>
<path d="M444 433H447V436H444V433Z" fill="#BABABA"/>
<path d="M444 323H447V326H444V323Z" fill="#BABABA"/>
<path d="M455 433H458V436H455V433Z" fill="#BABABA"/>
<path d="M455 323H458V326H455V323Z" fill="#BABABA"/>
<path d="M466 433H469V436H466V433Z" fill="#BABABA"/>
<path d="M466 323H469V326H466V323Z" fill="#BABABA"/>
<path d="M477 433H480V436H477V433Z" fill="#BABABA"/>
<path d="M477 323H480V326H477V323Z" fill="#BABABA"/>
<path d="M488 433H491V436H488V433Z" fill="#BABABA"/>
<path d="M488 323H491V326H488V323Z" fill="#BABABA"/>
<path d="M499 433H502V436H499V433Z" fill="#BABABA"/>
<path d="M499 323H502V326H499V323Z" fill="#BABABA"/>
<path d="M290 443H293V446H290V443Z" fill="#BABABA"/>
<path d="M290 333H293V336H290V333Z" fill="#BABABA"/>
<path d="M301 443H304V446H301V443Z" fill="#BABABA"/>
<path d="M301 333H304V336H301V333Z" fill="#BABABA"/>
<path d="M312 443H315V446H312V443Z" fill="#BABABA"/>
<path d="M312 333H315V336H312V333Z" fill="#BABABA"/>
<path d="M323 443H326V446H323V443Z" fill="#BABABA"/>
<path d="M323 333H326V336H323V333Z" fill="#BABABA"/>
<path d="M334 443H337V446H334V443Z" fill="#BABABA"/>
<path d="M334 333H337V336H334V333Z" fill="#BABABA"/>
<path d="M345 443H348V446H345V443Z" fill="#BABABA"/>
<path d="M345 333H348V336H345V333Z" fill="#BABABA"/>
<path d="M356 443H359V446H356V443Z" fill="#BABABA"/>
<path d="M356 333H359V336H356V333Z" fill="#BABABA"/>
<path d="M367 443H370V446H367V443Z" fill="#BABABA"/>
<path d="M367 333H370V336H367V333Z" fill="#BABABA"/>
<path d="M378 443H381V446H378V443Z" fill="#BABABA"/>
<path d="M378 333H381V336H378V333Z" fill="#BABABA"/>
<path d="M389 443H392V446H389V443Z" fill="#BABABA"/>
<path d="M389 333H392V336H389V333Z" fill="#BABABA"/>
<path d="M400 443H403V446H400V443Z" fill="#BABABA"/>
<path d="M400 333H403V336H400V333Z" fill="#BABABA"/>
<path d="M411 443H414V446H411V443Z" fill="#BABABA"/>
<path d="M411 333H414V336H411V333Z" fill="#BABABA"/>
<path d="M422 443H425V446H422V443Z" fill="#BABABA"/>
<path d="M422 333H425V336H422V333Z" fill="#BABABA"/>
<path d="M433 443H436V446H433V443Z" fill="#BABABA"/>
<path d="M433 333H436V336H433V333Z" fill="#BABABA"/>
<path d="M444 443H447V446H444V443Z" fill="#BABABA"/>
<path d="M444 333H447V336H444V333Z" fill="#BABABA"/>
<path d="M455 443H458V446H455V443Z" fill="#BABABA"/>
<path d="M455 333H458V336H455V333Z" fill="#BABABA"/>
<path d="M466 443H469V446H466V443Z" fill="#BABABA"/>
<path d="M466 333H469V336H466V333Z" fill="#BABABA"/>
<path d="M477 443H480V446H477V443Z" fill="#BABABA"/>
<path d="M477 333H480V336H477V333Z" fill="#BABABA"/>
<path d="M488 443H491V446H488V443Z" fill="#BABABA"/>
<path d="M488 333H491V336H488V333Z" fill="#BABABA"/>
<path d="M499 443H502V446H499V443Z" fill="#BABABA"/>
<path d="M499 333H502V336H499V333Z" fill="#BABABA"/>
<path d="M290 453H293V456H290V453Z" fill="#BABABA"/>
<path d="M290 343H293V346H290V343Z" fill="#BABABA"/>
<path d="M301 453H304V456H301V453Z" fill="#BABABA"/>
<path d="M301 343H304V346H301V343Z" fill="#BABABA"/>
<path d="M312 453H315V456H312V453Z" fill="#BABABA"/>
<path d="M312 343H315V346H312V343Z" fill="#BABABA"/>
<path d="M323 453H326V456H323V453Z" fill="#BABABA"/>
<path d="M323 343H326V346H323V343Z" fill="#BABABA"/>
<path d="M334 453H337V456H334V453Z" fill="#BABABA"/>
<path d="M334 343H337V346H334V343Z" fill="#BABABA"/>
<path d="M345 453H348V456H345V453Z" fill="#BABABA"/>
<path d="M345 343H348V346H345V343Z" fill="#BABABA"/>
<path d="M356 453H359V456H356V453Z" fill="#BABABA"/>
<path d="M356 343H359V346H356V343Z" fill="#BABABA"/>
<path d="M367 453H370V456H367V453Z" fill="#BABABA"/>
<path d="M367 343H370V346H367V343Z" fill="#BABABA"/>
<path d="M378 453H381V456H378V453Z" fill="#BABABA"/>
<path d="M378 343H381V346H378V343Z" fill="#BABABA"/>
<path d="M389 453H392V456H389V453Z" fill="#BABABA"/>
<path d="M389 343H392V346H389V343Z" fill="#BABABA"/>
<path d="M400 453H403V456H400V453Z" fill="#BABABA"/>
<path d="M400 343H403V346H400V343Z" fill="#BABABA"/>
<path d="M411 453H414V456H411V453Z" fill="#BABABA"/>
<path d="M411 343H414V346H411V343Z" fill="#BABABA"/>
<path d="M422 453H425V456H422V453Z" fill="#BABABA"/>
<path d="M422 343H425V346H422V343Z" fill="#BABABA"/>
<path d="M433 453H436V456H433V453Z" fill="#BABABA"/>
<path d="M433 343H436V346H433V343Z" fill="#BABABA"/>
<path d="M444 453H447V456H444V453Z" fill="#BABABA"/>
<path d="M444 343H447V346H444V343Z" fill="#BABABA"/>
<path d="M455 453H458V456H455V453Z" fill="#BABABA"/>
<path d="M455 343H458V346H455V343Z" fill="#BABABA"/>
<path d="M466 453H469V456H466V453Z" fill="#BABABA"/>
<path d="M466 343H469V346H466V343Z" fill="#BABABA"/>
<path d="M477 453H480V456H477V453Z" fill="#BABABA"/>
<path d="M477 343H480V346H477V343Z" fill="#BABABA"/>
<path d="M488 453H491V456H488V453Z" fill="#BABABA"/>
<path d="M488 343H491V346H488V343Z" fill="#BABABA"/>
<path d="M499 453H502V456H499V453Z" fill="#BABABA"/>
<path d="M499 343H502V346H499V343Z" fill="#BABABA"/>
<path d="M290 463H293V466H290V463Z" fill="#BABABA"/>
<path d="M290 353H293V356H290V353Z" fill="#BABABA"/>
<path d="M301 463H304V466H301V463Z" fill="#BABABA"/>
<path d="M301 353H304V356H301V353Z" fill="#BABABA"/>
<path d="M312 463H315V466H312V463Z" fill="#BABABA"/>
<path d="M312 353H315V356H312V353Z" fill="#BABABA"/>
<path d="M323 463H326V466H323V463Z" fill="#BABABA"/>
<path d="M323 353H326V356H323V353Z" fill="#BABABA"/>
<path d="M334 463H337V466H334V463Z" fill="#BABABA"/>
<path d="M334 353H337V356H334V353Z" fill="#BABABA"/>
<path d="M345 463H348V466H345V463Z" fill="#BABABA"/>
<path d="M345 353H348V356H345V353Z" fill="#BABABA"/>
<path d="M356 463H359V466H356V463Z" fill="#BABABA"/>
<path d="M356 353H359V356H356V353Z" fill="#BABABA"/>
<path d="M367 463H370V466H367V463Z" fill="#BABABA"/>
<path d="M367 353H370V356H367V353Z" fill="#BABABA"/>
<path d="M378 463H381V466H378V463Z" fill="#BABABA"/>
<path d="M378 353H381V356H378V353Z" fill="#BABABA"/>
<path d="M389 463H392V466H389V463Z" fill="#BABABA"/>
<path d="M389 353H392V356H389V353Z" fill="#BABABA"/>
<path d="M400 463H403V466H400V463Z" fill="#BABABA"/>
<path d="M400 353H403V356H400V353Z" fill="#BABABA"/>
<path d="M411 463H414V466H411V463Z" fill="#BABABA"/>
<path d="M411 353H414V356H411V353Z" fill="#BABABA"/>
<path d="M422 463H425V466H422V463Z" fill="#BABABA"/>
<path d="M422 353H425V356H422V353Z" fill="#BABABA"/>
<path d="M433 463H436V466H433V463Z" fill="#BABABA"/>
<path d="M433 353H436V356H433V353Z" fill="#BABABA"/>
<path d="M444 463H447V466H444V463Z" fill="#BABABA"/>
<path d="M444 353H447V356H444V353Z" fill="#BABABA"/>
<path d="M455 463H458V466H455V463Z" fill="#BABABA"/>
<path d="M455 353H458V356H455V353Z" fill="#BABABA"/>
<path d="M466 463H469V466H466V463Z" fill="#BABABA"/>
<path d="M466 353H469V356H466V353Z" fill="#BABABA"/>
<path d="M477 463H480V466H477V463Z" fill="#BABABA"/>
<path d="M477 353H480V356H477V353Z" fill="#BABABA"/>
<path d="M488 463H491V466H488V463Z" fill="#BABABA"/>
<path d="M488 353H491V356H488V353Z" fill="#BABABA"/>
<path d="M499 463H502V466H499V463Z" fill="#BABABA"/>
<path d="M499 353H502V356H499V353Z" fill="#BABABA"/>
<path d="M290 473H293V476H290V473Z" fill="#BABABA"/>
<path d="M290 363H293V366H290V363Z" fill="#BABABA"/>
<path d="M301 473H304V476H301V473Z" fill="#BABABA"/>
<path d="M301 363H304V366H301V363Z" fill="#BABABA"/>
<path d="M312 473H315V476H312V473Z" fill="#BABABA"/>
<path d="M312 363H315V366H312V363Z" fill="#BABABA"/>
<path d="M323 473H326V476H323V473Z" fill="#BABABA"/>
<path d="M323 363H326V366H323V363Z" fill="#BABABA"/>
<path d="M334 473H337V476H334V473Z" fill="#BABABA"/>
<path d="M334 363H337V366H334V363Z" fill="#BABABA"/>
<path d="M345 473H348V476H345V473Z" fill="#BABABA"/>
<path d="M345 363H348V366H345V363Z" fill="#BABABA"/>
<path d="M356 473H359V476H356V473Z" fill="#BABABA"/>
<path d="M356 363H359V366H356V363Z" fill="#BABABA"/>
<path d="M367 473H370V476H367V473Z" fill="#BABABA"/>
<path d="M367 363H370V366H367V363Z" fill="#BABABA"/>
<path d="M378 473H381V476H378V473Z" fill="#BABABA"/>
<path d="M378 363H381V366H378V363Z" fill="#BABABA"/>
<path d="M389 473H392V476H389V473Z" fill="#BABABA"/>
<path d="M389 363H392V366H389V363Z" fill="#BABABA"/>
<path d="M400 473H403V476H400V473Z" fill="#BABABA"/>
<path d="M400 363H403V366H400V363Z" fill="#BABABA"/>
<path d="M411 473H414V476H411V473Z" fill="#BABABA"/>
<path d="M411 363H414V366H411V363Z" fill="#BABABA"/>
<path d="M422 473H425V476H422V473Z" fill="#BABABA"/>
<path d="M422 363H425V366H422V363Z" fill="#BABABA"/>
<path d="M433 473H436V476H433V473Z" fill="#BABABA"/>
<path d="M433 363H436V366H433V363Z" fill="#BABABA"/>
<path d="M444 473H447V476H444V473Z" fill="#BABABA"/>
<path d="M444 363H447V366H444V363Z" fill="#BABABA"/>
<path d="M455 473H458V476H455V473Z" fill="#BABABA"/>
<path d="M455 363H458V366H455V363Z" fill="#BABABA"/>
<path d="M466 473H469V476H466V473Z" fill="#BABABA"/>
<path d="M466 363H469V366H466V363Z" fill="#BABABA"/>
<path d="M477 473H480V476H477V473Z" fill="#BABABA"/>
<path d="M477 363H480V366H477V363Z" fill="#BABABA"/>
<path d="M488 473H491V476H488V473Z" fill="#BABABA"/>
<path d="M488 363H491V366H488V363Z" fill="#BABABA"/>
<path d="M499 473H502V476H499V473Z" fill="#BABABA"/>
<path d="M499 363H502V366H499V363Z" fill="#BABABA"/>
<path d="M290 483H293V486H290V483Z" fill="#BABABA"/>
<path d="M290 373H293V376H290V373Z" fill="#BABABA"/>
<path d="M301 483H304V486H301V483Z" fill="#BABABA"/>
<path d="M301 373H304V376H301V373Z" fill="#BABABA"/>
<path d="M312 483H315V486H312V483Z" fill="#BABABA"/>
<path d="M312 373H315V376H312V373Z" fill="#BABABA"/>
<path d="M323 483H326V486H323V483Z" fill="#BABABA"/>
<path d="M323 373H326V376H323V373Z" fill="#BABABA"/>
<path d="M334 483H337V486H334V483Z" fill="#BABABA"/>
<path d="M334 373H337V376H334V373Z" fill="#BABABA"/>
<path d="M345 483H348V486H345V483Z" fill="#BABABA"/>
<path d="M345 373H348V376H345V373Z" fill="#BABABA"/>
<path d="M356 483H359V486H356V483Z" fill="#BABABA"/>
<path d="M356 373H359V376H356V373Z" fill="#BABABA"/>
<path d="M367 483H370V486H367V483Z" fill="#BABABA"/>
<path d="M367 373H370V376H367V373Z" fill="#BABABA"/>
<path d="M378 483H381V486H378V483Z" fill="#BABABA"/>
<path d="M378 373H381V376H378V373Z" fill="#BABABA"/>
<path d="M389 483H392V486H389V483Z" fill="#BABABA"/>
<path d="M389 373H392V376H389V373Z" fill="#BABABA"/>
<path d="M400 483H403V486H400V483Z" fill="#BABABA"/>
<path d="M400 373H403V376H400V373Z" fill="#BABABA"/>
<path d="M411 483H414V486H411V483Z" fill="#BABABA"/>
<path d="M411 373H414V376H411V373Z" fill="#BABABA"/>
<path d="M422 483H425V486H422V483Z" fill="#BABABA"/>
<path d="M422 373H425V376H422V373Z" fill="#BABABA"/>
<path d="M433 483H436V486H433V483Z" fill="#BABABA"/>
<path d="M433 373H436V376H433V373Z" fill="#BABABA"/>
<path d="M444 483H447V486H444V483Z" fill="#BABABA"/>
<path d="M444 373H447V376H444V373Z" fill="#BABABA"/>
<path d="M455 483H458V486H455V483Z" fill="#BABABA"/>
<path d="M455 373H458V376H455V373Z" fill="#BABABA"/>
<path d="M466 483H469V486H466V483Z" fill="#BABABA"/>
<path d="M466 373H469V376H466V373Z" fill="#BABABA"/>
<path d="M477 483H480V486H477V483Z" fill="#BABABA"/>
<path d="M477 373H480V376H477V373Z" fill="#BABABA"/>
<path d="M488 483H491V486H488V483Z" fill="#BABABA"/>
<path d="M488 373H491V376H488V373Z" fill="#BABABA"/>
<path d="M499 483H502V486H499V483Z" fill="#BABABA"/>
<path d="M499 373H502V376H499V373Z" fill="#BABABA"/>
<path d="M290 493H293V496H290V493Z" fill="#BABABA"/>
<path d="M290 383H293V386H290V383Z" fill="#BABABA"/>
<path d="M301 493H304V496H301V493Z" fill="#BABABA"/>
<path d="M301 383H304V386H301V383Z" fill="#BABABA"/>
<path d="M312 493H315V496H312V493Z" fill="#BABABA"/>
<path d="M312 383H315V386H312V383Z" fill="#BABABA"/>
<path d="M323 493H326V496H323V493Z" fill="#BABABA"/>
<path d="M323 383H326V386H323V383Z" fill="#BABABA"/>
<path d="M334 493H337V496H334V493Z" fill="#BABABA"/>
<path d="M334 383H337V386H334V383Z" fill="#BABABA"/>
<path d="M345 493H348V496H345V493Z" fill="#BABABA"/>
<path d="M345 383H348V386H345V383Z" fill="#BABABA"/>
<path d="M356 493H359V496H356V493Z" fill="#BABABA"/>
<path d="M356 383H359V386H356V383Z" fill="#BABABA"/>
<path d="M367 493H370V496H367V493Z" fill="#BABABA"/>
<path d="M367 383H370V386H367V383Z" fill="#BABABA"/>
<path d="M378 493H381V496H378V493Z" fill="#BABABA"/>
<path d="M378 383H381V386H378V383Z" fill="#BABABA"/>
<path d="M389 493H392V496H389V493Z" fill="#BABABA"/>
<path d="M389 383H392V386H389V383Z" fill="#BABABA"/>
<path d="M400 493H403V496H400V493Z" fill="#BABABA"/>
<path d="M400 383H403V386H400V383Z" fill="#BABABA"/>
<path d="M411 493H414V496H411V493Z" fill="#BABABA"/>
<path d="M411 383H414V386H411V383Z" fill="#BABABA"/>
<path d="M422 493H425V496H422V493Z" fill="#BABABA"/>
<path d="M422 383H425V386H422V383Z" fill="#BABABA"/>
<path d="M433 493H436V496H433V493Z" fill="#BABABA"/>
<path d="M433 383H436V386H433V383Z" fill="#BABABA"/>
<path d="M444 493H447V496H444V493Z" fill="#BABABA"/>
<path d="M444 383H447V386H444V383Z" fill="#BABABA"/>
<path d="M455 493H458V496H455V493Z" fill="#BABABA"/>
<path d="M455 383H458V386H455V383Z" fill="#BABABA"/>
<path d="M466 493H469V496H466V493Z" fill="#BABABA"/>
<path d="M466 383H469V386H466V383Z" fill="#BABABA"/>
<path d="M477 493H480V496H477V493Z" fill="#BABABA"/>
<path d="M477 383H480V386H477V383Z" fill="#BABABA"/>
<path d="M488 493H491V496H488V493Z" fill="#BABABA"/>
<path d="M488 383H491V386H488V383Z" fill="#BABABA"/>
<path d="M499 493H502V496H499V493Z" fill="#BABABA"/>
<path d="M499 383H502V386H499V383Z" fill="#BABABA"/>
<path d="M290 503H293V506H290V503Z" fill="#BABABA"/>
<path d="M290 393H293V396H290V393Z" fill="#BABABA"/>
<path d="M301 503H304V506H301V503Z" fill="#BABABA"/>
<path d="M301 393H304V396H301V393Z" fill="#BABABA"/>
<path d="M312 503H315V506H312V503Z" fill="#BABABA"/>
<path d="M312 393H315V396H312V393Z" fill="#BABABA"/>
<path d="M323 503H326V506H323V503Z" fill="#BABABA"/>
<path d="M323 393H326V396H323V393Z" fill="#BABABA"/>
<path d="M334 503H337V506H334V503Z" fill="#BABABA"/>
<path d="M334 393H337V396H334V393Z" fill="#BABABA"/>
<path d="M345 503H348V506H345V503Z" fill="#BABABA"/>
<path d="M345 393H348V396H345V393Z" fill="#BABABA"/>
<path d="M356 503H359V506H356V503Z" fill="#BABABA"/>
<path d="M356 393H359V396H356V393Z" fill="#BABABA"/>
<path d="M367 503H370V506H367V503Z" fill="#BABABA"/>
<path d="M367 393H370V396H367V393Z" fill="#BABABA"/>
<path d="M378 503H381V506H378V503Z" fill="#BABABA"/>
<path d="M378 393H381V396H378V393Z" fill="#BABABA"/>
<path d="M389 503H392V506H389V503Z" fill="#BABABA"/>
<path d="M389 393H392V396H389V393Z" fill="#BABABA"/>
<path d="M400 503H403V506H400V503Z" fill="#BABABA"/>
<path d="M400 393H403V396H400V393Z" fill="#BABABA"/>
<path d="M411 503H414V506H411V503Z" fill="#BABABA"/>
<path d="M411 393H414V396H411V393Z" fill="#BABABA"/>
<path d="M422 503H425V506H422V503Z" fill="#BABABA"/>
<path d="M422 393H425V396H422V393Z" fill="#BABABA"/>
<path d="M433 503H436V506H433V503Z" fill="#BABABA"/>
<path d="M433 393H436V396H433V393Z" fill="#BABABA"/>
<path d="M444 503H447V506H444V503Z" fill="#BABABA"/>
<path d="M444 393H447V396H444V393Z" fill="#BABABA"/>
<path d="M455 503H458V506H455V503Z" fill="#BABABA"/>
<path d="M455 393H458V396H455V393Z" fill="#BABABA"/>
<path d="M466 503H469V506H466V503Z" fill="#BABABA"/>
<path d="M466 393H469V396H466V393Z" fill="#BABABA"/>
<path d="M477 503H480V506H477V503Z" fill="#BABABA"/>
<path d="M477 393H480V396H477V393Z" fill="#BABABA"/>
<path d="M488 503H491V506H488V503Z" fill="#BABABA"/>
<path d="M488 393H491V396H488V393Z" fill="#BABABA"/>
<path d="M499 503H502V506H499V503Z" fill="#BABABA"/>
<path d="M499 393H502V396H499V393Z" fill="#BABABA"/>
<path d="M290 513H293V516H290V513Z" fill="#BABABA"/>
<path d="M290 403H293V406H290V403Z" fill="#BABABA"/>
<path d="M301 513H304V516H301V513Z" fill="#BABABA"/>
<path d="M301 403H304V406H301V403Z" fill="#BABABA"/>
<path d="M312 513H315V516H312V513Z" fill="#BABABA"/>
<path d="M312 403H315V406H312V403Z" fill="#BABABA"/>
<path d="M323 513H326V516H323V513Z" fill="#BABABA"/>
<path d="M323 403H326V406H323V403Z" fill="#BABABA"/>
<path d="M334 513H337V516H334V513Z" fill="#BABABA"/>
<path d="M334 403H337V406H334V403Z" fill="#BABABA"/>
<path d="M345 513H348V516H345V513Z" fill="#BABABA"/>
<path d="M345 403H348V406H345V403Z" fill="#BABABA"/>
<path d="M356 513H359V516H356V513Z" fill="#BABABA"/>
<path d="M356 403H359V406H356V403Z" fill="#BABABA"/>
<path d="M367 513H370V516H367V513Z" fill="#BABABA"/>
<path d="M367 403H370V406H367V403Z" fill="#BABABA"/>
<path d="M378 513H381V516H378V513Z" fill="#BABABA"/>
<path d="M378 403H381V406H378V403Z" fill="#BABABA"/>
<path d="M389 513H392V516H389V513Z" fill="#BABABA"/>
<path d="M389 403H392V406H389V403Z" fill="#BABABA"/>
<path d="M400 513H403V516H400V513Z" fill="#BABABA"/>
<path d="M400 403H403V406H400V403Z" fill="#BABABA"/>
<path d="M411 513H414V516H411V513Z" fill="#BABABA"/>
<path d="M411 403H414V406H411V403Z" fill="#BABABA"/>
<path d="M422 513H425V516H422V513Z" fill="#BABABA"/>
<path d="M422 403H425V406H422V403Z" fill="#BABABA"/>
<path d="M433 513H436V516H433V513Z" fill="#BABABA"/>
<path d="M433 403H436V406H433V403Z" fill="#BABABA"/>
<path d="M444 513H447V516H444V513Z" fill="#BABABA"/>
<path d="M444 403H447V406H444V403Z" fill="#BABABA"/>
<path d="M455 513H458V516H455V513Z" fill="#BABABA"/>
<path d="M455 403H458V406H455V403Z" fill="#BABABA"/>
<path d="M466 513H469V516H466V513Z" fill="#BABABA"/>
<path d="M466 403H469V406H466V403Z" fill="#BABABA"/>
<path d="M477 513H480V516H477V513Z" fill="#BABABA"/>
<path d="M477 403H480V406H477V403Z" fill="#BABABA"/>
<path d="M488 513H491V516H488V513Z" fill="#BABABA"/>
<path d="M488 403H491V406H488V403Z" fill="#BABABA"/>
<path d="M499 513H502V516H499V513Z" fill="#BABABA"/>
<path d="M499 403H502V406H499V403Z" fill="#BABABA"/>
<path d="M290 523H293V526H290V523Z" fill="#BABABA"/>
<path d="M290 413H293V416H290V413Z" fill="#BABABA"/>
<path d="M301 523H304V526H301V523Z" fill="#BABABA"/>
<path d="M301 413H304V416H301V413Z" fill="#BABABA"/>
<path d="M312 523H315V526H312V523Z" fill="#BABABA"/>
<path d="M312 413H315V416H312V413Z" fill="#BABABA"/>
<path d="M323 523H326V526H323V523Z" fill="#BABABA"/>
<path d="M323 413H326V416H323V413Z" fill="#BABABA"/>
<path d="M334 523H337V526H334V523Z" fill="#BABABA"/>
<path d="M334 413H337V416H334V413Z" fill="#BABABA"/>
<path d="M345 523H348V526H345V523Z" fill="#BABABA"/>
<path d="M345 413H348V416H345V413Z" fill="#BABABA"/>
<path d="M356 523H359V526H356V523Z" fill="#BABABA"/>
<path d="M356 413H359V416H356V413Z" fill="#BABABA"/>
<path d="M367 523H370V526H367V523Z" fill="#BABABA"/>
<path d="M367 413H370V416H367V413Z" fill="#BABABA"/>
<path d="M378 523H381V526H378V523Z" fill="#BABABA"/>
<path d="M378 413H381V416H378V413Z" fill="#BABABA"/>
<path d="M389 523H392V526H389V523Z" fill="#BABABA"/>
<path d="M389 413H392V416H389V413Z" fill="#BABABA"/>
<path d="M400 523H403V526H400V523Z" fill="#BABABA"/>
<path d="M400 413H403V416H400V413Z" fill="#BABABA"/>
<path d="M411 523H414V526H411V523Z" fill="#BABABA"/>
<path d="M411 413H414V416H411V413Z" fill="#BABABA"/>
<path d="M422 523H425V526H422V523Z" fill="#BABABA"/>
<path d="M422 413H425V416H422V413Z" fill="#BABABA"/>
<path d="M433 523H436V526H433V523Z" fill="#BABABA"/>
<path d="M433 413H436V416H433V413Z" fill="#BABABA"/>
<path d="M444 523H447V526H444V523Z" fill="#BABABA"/>
<path d="M444 413H447V416H444V413Z" fill="#BABABA"/>
<path d="M455 523H458V526H455V523Z" fill="#BABABA"/>
<path d="M455 413H458V416H455V413Z" fill="#BABABA"/>
<path d="M466 523H469V526H466V523Z" fill="#BABABA"/>
<path d="M466 413H469V416H466V413Z" fill="#BABABA"/>
<path d="M477 523H480V526H477V523Z" fill="#BABABA"/>
<path d="M477 413H480V416H477V413Z" fill="#BABABA"/>
<path d="M488 523H491V526H488V523Z" fill="#BABABA"/>
<path d="M488 413H491V416H488V413Z" fill="#BABABA"/>
<path d="M499 523H502V526H499V523Z" fill="#BABABA"/>
<path d="M499 413H502V416H499V413Z" fill="#BABABA"/>
<path d="M290 533H293V536H290V533Z" fill="#BABABA"/>
<path d="M290 423H293V426H290V423Z" fill="#BABABA"/>
<path d="M301 533H304V536H301V533Z" fill="#BABABA"/>
<path d="M301 423H304V426H301V423Z" fill="#BABABA"/>
<path d="M312 533H315V536H312V533Z" fill="#BABABA"/>
<path d="M312 423H315V426H312V423Z" fill="#BABABA"/>
<path d="M323 533H326V536H323V533Z" fill="#BABABA"/>
<path d="M323 423H326V426H323V423Z" fill="#BABABA"/>
<path d="M334 533H337V536H334V533Z" fill="#BABABA"/>
<path d="M334 423H337V426H334V423Z" fill="#BABABA"/>
<path d="M345 533H348V536H345V533Z" fill="#BABABA"/>
<path d="M345 423H348V426H345V423Z" fill="#BABABA"/>
<path d="M356 533H359V536H356V533Z" fill="#BABABA"/>
<path d="M356 423H359V426H356V423Z" fill="#BABABA"/>
<path d="M367 533H370V536H367V533Z" fill="#BABABA"/>
<path d="M367 423H370V426H367V423Z" fill="#BABABA"/>
<path d="M378 533H381V536H378V533Z" fill="#BABABA"/>
<path d="M378 423H381V426H378V423Z" fill="#BABABA"/>
<path d="M389 533H392V536H389V533Z" fill="#BABABA"/>
<path d="M389 423H392V426H389V423Z" fill="#BABABA"/>
<path d="M400 533H403V536H400V533Z" fill="#BABABA"/>
<path d="M400 423H403V426H400V423Z" fill="#BABABA"/>
<path d="M411 533H414V536H411V533Z" fill="#BABABA"/>
<path d="M411 423H414V426H411V423Z" fill="#BABABA"/>
<path d="M422 533H425V536H422V533Z" fill="#BABABA"/>
<path d="M422 423H425V426H422V423Z" fill="#BABABA"/>
<path d="M433 533H436V536H433V533Z" fill="#BABABA"/>
<path d="M433 423H436V426H433V423Z" fill="#BABABA"/>
<path d="M444 533H447V536H444V533Z" fill="#BABABA"/>
<path d="M444 423H447V426H444V423Z" fill="#BABABA"/>
<path d="M455 533H458V536H455V533Z" fill="#BABABA"/>
<path d="M455 423H458V426H455V423Z" fill="#BABABA"/>
<path d="M466 533H469V536H466V533Z" fill="#BABABA"/>
<path d="M466 423H469V426H466V423Z" fill="#BABABA"/>
<path d="M477 533H480V536H477V533Z" fill="#BABABA"/>
<path d="M477 423H480V426H477V423Z" fill="#BABABA"/>
<path d="M488 533H491V536H488V533Z" fill="#BABABA"/>
<path d="M488 423H491V426H488V423Z" fill="#BABABA"/>
<path d="M499 533H502V536H499V533Z" fill="#BABABA"/>
<path d="M499 423H502V426H499V423Z" fill="#BABABA"/>
<path d="M368.37 209.11H118.47V386.74H368.37V209.11Z" fill="#E6E6E6"/>
<path d="M321.6 232.2C324.102 232.2 326.13 230.172 326.13 227.67C326.13 225.168 324.102 223.14 321.6 223.14C319.098 223.14 317.07 225.168 317.07 227.67C317.07 230.172 319.098 232.2 321.6 232.2Z" fill="#24285B"/>
<path d="M335.07 232.17C337.572 232.17 339.6 230.142 339.6 227.64C339.6 225.138 337.572 223.11 335.07 223.11C332.568 223.11 330.54 225.138 330.54 227.64C330.54 230.142 332.568 232.17 335.07 232.17Z" fill="#FD6F55"/>
<path d="M347.76 232.14C350.262 232.14 352.29 230.112 352.29 227.61C352.29 225.108 350.262 223.08 347.76 223.08C345.258 223.08 343.23 225.108 343.23 227.61C343.23 230.112 345.258 232.14 347.76 232.14Z" fill="#FFD200"/>
<path d="M368 243.14H118.29V387.02H368V243.14Z" fill="#F2F2F2"/>
<path d="M305.87 222.82H159.83V231.87H305.87V222.82Z" fill="white"/>
<path d="M305.87 222.82H290.38V231.87H305.87V222.82Z" fill="#C9C9C9"/>
<path d="M183.83 263.06H135.84V308.1H183.83V263.06Z" fill="#6EC1B1"/>
<path d="M140.27 325.06C142.716 325.06 144.7 323.077 144.7 320.63C144.7 318.183 142.716 316.2 140.27 316.2C137.823 316.2 135.84 318.183 135.84 320.63C135.84 323.077 137.823 325.06 140.27 325.06Z" fill="#FD6F55"/>
<path d="M178.48 318.31H153C151.603 318.31 150.47 319.443 150.47 320.84V320.85C150.47 322.247 151.603 323.38 153 323.38H178.48C179.877 323.38 181.01 322.247 181.01 320.85V320.84C181.01 319.443 179.877 318.31 178.48 318.31Z" fill="#C9C9C9"/>
<path d="M140.27 339.21C142.716 339.21 144.7 337.227 144.7 334.78C144.7 332.333 142.716 330.35 140.27 330.35C137.823 330.35 135.84 332.333 135.84 334.78C135.84 337.227 137.823 339.21 140.27 339.21Z" fill="#FD6F55"/>
<path d="M178.48 332.46H153C151.603 332.46 150.47 333.593 150.47 334.99V335C150.47 336.397 151.603 337.53 153 337.53H178.48C179.877 337.53 181.01 336.397 181.01 335V334.99C181.01 333.593 179.877 332.46 178.48 332.46Z" fill="#C9C9C9"/>
<path d="M140.27 353.35C142.716 353.35 144.7 351.367 144.7 348.92C144.7 346.473 142.716 344.49 140.27 344.49C137.823 344.49 135.84 346.473 135.84 348.92C135.84 351.367 137.823 353.35 140.27 353.35Z" fill="#FD6F55"/>
<path d="M178.48 346.6H153C151.603 346.6 150.47 347.733 150.47 349.13V349.14C150.47 350.537 151.603 351.67 153 351.67H178.48C179.877 351.67 181.01 350.537 181.01 349.14V349.13C181.01 347.733 179.877 346.6 178.48 346.6Z" fill="#C9C9C9"/>
<path d="M299.49 263.06H194.04V293.47H299.49V263.06Z" fill="white"/>
<path d="M299.49 301.62H194.04V332.03H299.49V301.62Z" fill="white"/>
<path d="M299.49 340.17H194.04V370.58H299.49V340.17Z" fill="white"/>
<path d="M293.11 282.3H275.49V290.04H293.11V282.3Z" fill="#FEBF39"/>
<path d="M293.11 320.12H275.49V327.86H293.11V320.12Z" fill="#FEBF39"/>
<path d="M293.11 358.93H275.49V366.67H293.11V358.93Z" fill="#FEBF39"/>
<path opacity="0.28" d="M293.11 268.6H200.68V271.81H293.11V268.6Z" fill="#C9C9C9"/>
<path opacity="0.28" d="M293.11 275.06H200.68V278.27H293.11V275.06Z" fill="#C9C9C9"/>
<path opacity="0.28" d="M293.11 306.83H200.68V310.04H293.11V306.83Z" fill="#C9C9C9"/>
<path opacity="0.28" d="M293.11 313.29H200.68V316.5H293.11V313.29Z" fill="#C9C9C9"/>
<path opacity="0.28" d="M293.11 345.7H200.68V348.91H293.11V345.7Z" fill="#C9C9C9"/>
<path opacity="0.28" d="M293.11 352.16H200.68V355.37H293.11V352.16Z" fill="#C9C9C9"/>
<path d="M357.45 263.06H308.94V306.83H357.45V263.06Z" fill="#FEBF39"/>
<path d="M357.45 316.82H308.94V360.59H357.45V316.82Z" fill="#1A78ED"/>
<path d="M109.04 269.08C123.422 269.08 135.08 257.421 135.08 243.04C135.08 228.659 123.422 217 109.04 217C94.6585 217 83 228.659 83 243.04C83 257.421 94.6585 269.08 109.04 269.08Z" fill="#475762"/>
<path d="M118.81 245.19C120.704 245.19 122.24 243.654 122.24 241.76C122.24 239.866 120.704 238.33 118.81 238.33C116.916 238.33 115.38 239.866 115.38 241.76C115.38 243.654 116.916 245.19 118.81 245.19Z" fill="#6EC1B1"/>
<path d="M106.45 237.73H96.26V246.7H106.45V237.73Z" fill="#6EC1B1"/>
<path d="M106.41 237.73C109.123 237.496 111.719 236.516 113.911 234.9C116.102 233.284 117.805 231.093 118.83 228.57V254.04C118.83 254.04 114.69 246.7 106.41 246.7V237.73Z" fill="white"/>
<path d="M101.35 246.7L104.22 255.37H108.94L106.44 246.7H101.35Z" fill="#6EC1B1"/>
<path d="M373.83 409.66C388.096 409.66 399.66 398.096 399.66 383.83C399.66 369.564 388.096 358 373.83 358C359.565 358 348 369.564 348 383.83C348 398.096 359.565 409.66 373.83 409.66Z" fill="#475762"/>
<path d="M387.51 373.26H359.94V393.71H387.51V373.26Z" fill="white"/>
<path d="M359.94 373.25L373.73 388.12L387.52 373.25H359.94Z" fill="#6EC1B1"/>
<g filter="url(#filter1_dd)">
<rect x="143" y="417" width="378" height="139" rx="5" fill="#FEBF39"/>
</g>
<rect x="135.5" y="427.5" width="377" height="138" rx="4.5" fill="white" stroke="#E49B00"/>
<path d="M181.805 450.324H193.733V469H190.877V453.012H184.661V462.308C184.661 463.204 184.633 463.932 184.577 464.492C184.521 465.033 184.344 465.649 184.045 466.34C183.765 467.031 183.355 467.6 182.813 468.048C181.899 468.795 180.769 469.168 179.425 469.168C179.033 469.168 178.613 469.112 178.165 469V466.368C178.539 466.48 178.884 466.536 179.201 466.536C179.892 466.536 180.452 466.321 180.881 465.892C181.18 465.612 181.395 465.192 181.525 464.632C181.675 464.053 181.759 463.577 181.777 463.204C181.796 462.831 181.805 462.252 181.805 461.468V450.324ZM200.464 461.58H202.34C202.527 460.479 203.04 459.499 203.88 458.64C205.038 457.483 206.503 456.904 208.276 456.904C210.031 456.904 211.496 457.492 212.672 458.668C213.867 459.825 214.464 461.309 214.464 463.12C214.464 464.912 213.867 466.405 212.672 467.6C211.496 468.776 210.031 469.364 208.276 469.364C206.41 469.364 204.898 468.739 203.74 467.488C202.882 466.555 202.396 465.425 202.284 464.1H200.464V469H197.72V457.212H200.464V461.58ZM210.684 460.32C210.031 459.685 209.228 459.368 208.276 459.368C207.324 459.368 206.522 459.685 205.868 460.32C205.215 460.955 204.888 461.897 204.888 463.148C204.888 464.399 205.215 465.341 205.868 465.976C206.522 466.592 207.324 466.9 208.276 466.9C209.228 466.9 210.031 466.592 210.684 465.976C211.338 465.341 211.664 464.399 211.664 463.148C211.664 461.897 211.338 460.955 210.684 460.32ZM226.23 449.12H229.03C228.825 450.091 228.395 450.931 227.742 451.64C227.089 452.349 226.286 452.835 225.334 453.096L223.486 453.6C223.001 453.731 222.627 453.843 222.366 453.936C222.105 454.029 221.778 454.207 221.386 454.468C221.013 454.711 220.695 455.009 220.434 455.364C219.818 456.185 219.491 457.249 219.454 458.556H219.482C220.303 457.455 221.638 456.904 223.486 456.904C225.147 456.904 226.519 457.464 227.602 458.584C228.741 459.76 229.31 461.253 229.31 463.064C229.31 464.893 228.703 466.405 227.49 467.6C226.295 468.776 224.802 469.364 223.01 469.364C221.218 469.364 219.781 468.841 218.698 467.796C218.101 467.236 217.643 466.545 217.326 465.724C217.009 464.903 216.822 464.231 216.766 463.708C216.729 463.167 216.71 462.513 216.71 461.748C216.71 458.089 217.307 455.392 218.502 453.656C219.398 452.331 220.574 451.491 222.03 451.136L223.99 450.66C225.278 450.343 226.025 449.829 226.23 449.12ZM220.462 465.892C221.097 466.564 221.946 466.9 223.01 466.9C224.074 466.9 224.923 466.564 225.558 465.892C226.193 465.201 226.51 464.287 226.51 463.148C226.51 461.897 226.165 460.955 225.474 460.32C224.802 459.685 223.981 459.368 223.01 459.368C222.039 459.368 221.209 459.685 220.518 460.32C219.846 460.955 219.51 461.897 219.51 463.148C219.51 464.287 219.827 465.201 220.462 465.892ZM240.798 458.584V457.212H243.542V469H240.798V467.768C239.883 468.832 238.707 469.364 237.27 469.364C235.534 469.364 234.143 468.748 233.098 467.516C232.071 466.284 231.558 464.809 231.558 463.092C231.558 461.225 232.108 459.732 233.21 458.612C234.33 457.473 235.692 456.904 237.298 456.904C238.772 456.904 239.939 457.464 240.798 458.584ZM237.633 459.368C236.663 459.368 235.87 459.732 235.254 460.46C234.656 461.188 234.358 462.084 234.358 463.148C234.358 464.193 234.656 465.08 235.254 465.808C235.87 466.536 236.663 466.9 237.633 466.9C238.567 466.9 239.351 466.573 239.986 465.92C240.639 465.267 240.966 464.352 240.966 463.176C240.966 461.963 240.639 461.029 239.986 460.376C239.351 459.704 238.567 459.368 237.633 459.368ZM245.509 469L249.205 464.324C248.477 464.212 247.852 463.913 247.329 463.428C246.676 462.793 246.349 461.981 246.349 460.992C246.349 459.872 246.713 458.967 247.441 458.276C248.188 457.567 249.326 457.212 250.857 457.212H255.253V469H252.509V464.66H251.949L248.729 469H245.509ZM252.509 462.42V459.564H250.913C250.26 459.564 249.784 459.648 249.485 459.816C249.037 460.096 248.813 460.488 248.813 460.992C248.813 461.496 249 461.879 249.373 462.14C249.653 462.327 250.157 462.42 250.885 462.42H252.509ZM268.003 467.628V475.412H265.259V457.212H268.003V458.5C268.899 457.436 270.066 456.904 271.503 456.904C273.109 456.904 274.462 457.473 275.563 458.612C276.683 459.732 277.243 461.207 277.243 463.036C277.243 464.921 276.665 466.452 275.507 467.628C274.35 468.785 273.025 469.364 271.531 469.364C270.131 469.364 268.955 468.785 268.003 467.628ZM271.167 459.368C270.234 459.368 269.441 459.704 268.787 460.376C268.153 461.029 267.835 461.963 267.835 463.176C267.835 464.352 268.153 465.267 268.787 465.92C269.441 466.573 270.234 466.9 271.167 466.9C272.138 466.9 272.922 466.536 273.519 465.808C274.135 465.08 274.443 464.193 274.443 463.148C274.443 462.084 274.135 461.188 273.519 460.46C272.922 459.732 272.138 459.368 271.167 459.368ZM288.367 465.024L290.663 466.312C290.14 467.245 289.478 467.964 288.675 468.468C287.76 469.065 286.603 469.364 285.203 469.364C283.56 469.364 282.235 468.86 281.227 467.852C280.07 466.695 279.491 465.192 279.491 463.344C279.491 461.403 280.116 459.788 281.367 458.5C282.431 457.436 283.747 456.904 285.315 456.904C286.846 456.904 288.106 457.417 289.095 458.444C290.196 459.583 290.747 461.244 290.747 463.428V463.764H282.291C282.366 464.753 282.702 465.547 283.299 466.144C283.803 466.648 284.503 466.9 285.399 466.9C286.127 466.9 286.752 466.704 287.275 466.312C287.704 465.976 288.068 465.547 288.367 465.024ZM282.487 461.524H287.947C287.835 460.871 287.555 460.339 287.107 459.928C286.622 459.48 286.006 459.256 285.259 459.256C284.475 459.256 283.831 459.508 283.327 460.012C282.916 460.385 282.636 460.889 282.487 461.524ZM293.615 457.212H296.359V461.412L300.279 457.212H303.919L298.767 462.364L304.199 469H300.727L296.807 464.156L296.359 464.604V469H293.615V457.212ZM315.963 457.212V469H313.219V459.732H309.747V464.408C309.747 465.864 309.374 466.993 308.627 467.796C307.675 468.86 306.387 469.261 304.763 469V466.48C305.566 466.667 306.21 466.489 306.695 465.948C306.975 465.612 307.115 465.099 307.115 464.408V457.212H315.963ZM328.051 458.584V457.212H330.795V469H328.051V467.768C327.137 468.832 325.961 469.364 324.523 469.364C322.787 469.364 321.397 468.748 320.351 467.516C319.325 466.284 318.811 464.809 318.811 463.092C318.811 461.225 319.362 459.732 320.463 458.612C321.583 457.473 322.946 456.904 324.551 456.904C326.026 456.904 327.193 457.464 328.051 458.584ZM324.887 459.368C323.917 459.368 323.123 459.732 322.507 460.46C321.91 461.188 321.611 462.084 321.611 463.148C321.611 464.193 321.91 465.08 322.507 465.808C323.123 466.536 323.917 466.9 324.887 466.9C325.821 466.9 326.605 466.573 327.239 465.92C327.893 465.267 328.219 464.352 328.219 463.176C328.219 461.963 327.893 461.029 327.239 460.376C326.605 459.704 325.821 459.368 324.887 459.368ZM332.931 469L335.787 456.148L340.659 465.136L345.531 456.148L348.387 469H345.587L344.411 463.092L340.659 469.896L336.907 463.092L335.731 469H332.931ZM359.141 458.584V457.212H361.885V469H359.141V467.768C358.227 468.832 357.051 469.364 355.613 469.364C353.877 469.364 352.487 468.748 351.441 467.516C350.415 466.284 349.901 464.809 349.901 463.092C349.901 461.225 350.452 459.732 351.553 458.612C352.673 457.473 354.036 456.904 355.641 456.904C357.116 456.904 358.283 457.464 359.141 458.584ZM355.977 459.368C355.007 459.368 354.213 459.732 353.597 460.46C353 461.188 352.701 462.084 352.701 463.148C352.701 464.193 353 465.08 353.597 465.808C354.213 466.536 355.007 466.9 355.977 466.9C356.911 466.9 357.695 466.573 358.329 465.92C358.983 465.267 359.309 464.352 359.309 463.176C359.309 461.963 358.983 461.029 358.329 460.376C357.695 459.704 356.911 459.368 355.977 459.368ZM371.9 457.212H382.148V469H379.404V459.732H374.644V469H371.9V457.212ZM388.371 467.628V475.412H385.627V457.212H388.371V458.5C389.267 457.436 390.433 456.904 391.871 456.904C393.476 456.904 394.829 457.473 395.931 458.612C397.051 459.732 397.611 461.207 397.611 463.036C397.611 464.921 397.032 466.452 395.875 467.628C394.717 468.785 393.392 469.364 391.899 469.364C390.499 469.364 389.323 468.785 388.371 467.628ZM391.535 459.368C390.601 459.368 389.808 459.704 389.155 460.376C388.52 461.029 388.203 461.963 388.203 463.176C388.203 464.352 388.52 465.267 389.155 465.92C389.808 466.573 390.601 466.9 391.535 466.9C392.505 466.9 393.289 466.536 393.887 465.808C394.503 465.08 394.811 464.193 394.811 463.148C394.811 462.084 394.503 461.188 393.887 460.46C393.289 459.732 392.505 459.368 391.535 459.368ZM400.474 457.212H403.218V463.904L411.282 456.148V469H408.538V462.14L400.474 469.896V457.212ZM414.748 457.212H419.368C420.544 457.212 421.44 457.445 422.056 457.912C422.784 458.491 423.148 459.247 423.148 460.18C423.148 461.244 422.681 462.009 421.748 462.476C422.345 462.588 422.877 462.849 423.344 463.26C423.96 463.82 424.268 464.576 424.268 465.528C424.268 466.667 423.838 467.563 422.98 468.216C422.27 468.739 421.365 469 420.264 469H414.748V457.212ZM417.492 461.804H418.892C419.377 461.804 419.741 461.72 419.984 461.552C420.338 461.328 420.516 461.011 420.516 460.6C420.516 460.208 420.357 459.9 420.04 459.676C419.816 459.527 419.414 459.452 418.836 459.452H417.492V461.804ZM417.492 466.76H419.536C420.152 466.76 420.628 466.648 420.964 466.424C421.337 466.181 421.524 465.836 421.524 465.388C421.524 464.903 421.346 464.557 420.992 464.352C420.674 464.147 420.217 464.044 419.62 464.044H417.492V466.76ZM428.31 458.668C429.524 457.492 431.026 456.904 432.818 456.904C434.61 456.904 436.104 457.492 437.298 458.668C438.512 459.825 439.118 461.309 439.118 463.12C439.118 464.912 438.512 466.405 437.298 467.6C436.104 468.776 434.61 469.364 432.818 469.364C431.026 469.364 429.524 468.776 428.31 467.6C427.116 466.405 426.518 464.912 426.518 463.12C426.518 461.309 427.116 459.825 428.31 458.668ZM430.27 465.892C430.905 466.564 431.754 466.9 432.818 466.9C433.882 466.9 434.732 466.564 435.366 465.892C436.001 465.201 436.318 464.287 436.318 463.148C436.318 461.897 435.973 460.955 435.282 460.32C434.61 459.685 433.789 459.368 432.818 459.368C431.848 459.368 431.017 459.685 430.326 460.32C429.654 460.955 429.318 461.897 429.318 463.148C429.318 464.287 429.636 465.201 430.27 465.892ZM442.99 457.212H451.838V466.48H453.63V472.36H451.11V469H442.878V472.36H440.358V466.48C441.31 466.424 442.029 465.911 442.514 464.94C442.831 464.249 442.99 463.213 442.99 461.832V457.212ZM449.094 466.48V459.732H445.622V462.868C445.622 464.567 445.165 465.771 444.25 466.48H449.094ZM455.599 457.212H458.343V463.904L466.407 456.148V469H463.663V462.14L455.599 469.896V457.212ZM477.993 459.732H474.549V469H471.805V459.732H468.361V457.212H477.993V459.732ZM194.904 492.212H197.648V496.412L201.568 492.212H205.208L200.056 497.364L205.488 504H202.016L198.096 499.156L197.648 499.604V504H194.904V492.212ZM217.252 492.212V504H214.508V494.732H211.036V499.408C211.036 500.864 210.663 501.993 209.916 502.796C208.964 503.86 207.676 504.261 206.052 504V501.48C206.855 501.667 207.499 501.489 207.984 500.948C208.264 500.612 208.404 500.099 208.404 499.408V492.212H217.252ZM220.716 492.212H223.46V498.904L231.524 491.148V504H228.78V497.14L220.716 504.896V492.212ZM243.25 500.024L245.546 501.312C245.023 502.245 244.361 502.964 243.558 503.468C242.643 504.065 241.486 504.364 240.086 504.364C238.443 504.364 237.118 503.86 236.11 502.852C234.953 501.695 234.374 500.192 234.374 498.344C234.374 496.403 234.999 494.788 236.25 493.5C237.314 492.436 238.63 491.904 240.198 491.904C241.729 491.904 242.989 492.417 243.978 493.444C245.079 494.583 245.63 496.244 245.63 498.428V498.764H237.174C237.249 499.753 237.585 500.547 238.182 501.144C238.686 501.648 239.386 501.9 240.282 501.9C241.01 501.9 241.635 501.704 242.158 501.312C242.587 500.976 242.951 500.547 243.25 500.024ZM237.37 496.524H242.83C242.718 495.871 242.438 495.339 241.99 494.928C241.505 494.48 240.889 494.256 240.142 494.256C239.358 494.256 238.714 494.508 238.21 495.012C237.799 495.385 237.519 495.889 237.37 496.524ZM248.498 504V492.212H251.242V496.58H256.114V492.212H258.858V504H256.114V499.1H251.242V504H248.498ZM270.454 494.732H267.01V504H264.266V494.732H260.822V492.212H270.454V494.732ZM273.299 493.668C274.512 492.492 276.015 491.904 277.807 491.904C279.599 491.904 281.092 492.492 282.287 493.668C283.5 494.825 284.107 496.309 284.107 498.12C284.107 499.912 283.5 501.405 282.287 502.6C281.092 503.776 279.599 504.364 277.807 504.364C276.015 504.364 274.512 503.776 273.299 502.6C272.104 501.405 271.507 499.912 271.507 498.12C271.507 496.309 272.104 494.825 273.299 493.668ZM275.259 500.892C275.893 501.564 276.743 501.9 277.807 501.9C278.871 501.9 279.72 501.564 280.355 500.892C280.989 500.201 281.307 499.287 281.307 498.148C281.307 496.897 280.961 495.955 280.271 495.32C279.599 494.685 278.777 494.368 277.807 494.368C276.836 494.368 276.005 494.685 275.315 495.32C274.643 495.955 274.307 496.897 274.307 498.148C274.307 499.287 274.624 500.201 275.259 500.892ZM286.97 492.212H291.59C292.766 492.212 293.662 492.445 294.278 492.912C295.006 493.491 295.37 494.247 295.37 495.18C295.37 496.244 294.904 497.009 293.97 497.476C294.568 497.588 295.1 497.849 295.566 498.26C296.182 498.82 296.49 499.576 296.49 500.528C296.49 501.667 296.061 502.563 295.202 503.216C294.493 503.739 293.588 504 292.486 504H286.97V492.212ZM289.714 496.804H291.114C291.6 496.804 291.964 496.72 292.206 496.552C292.561 496.328 292.738 496.011 292.738 495.6C292.738 495.208 292.58 494.9 292.262 494.676C292.038 494.527 291.637 494.452 291.058 494.452H289.714V496.804ZM289.714 501.76H291.758C292.374 501.76 292.85 501.648 293.186 501.424C293.56 501.181 293.746 500.836 293.746 500.388C293.746 499.903 293.569 499.557 293.214 499.352C292.897 499.147 292.44 499.044 291.842 499.044H289.714V501.76ZM297.901 507.612L300.757 500.5L303.221 501.452L299.749 508.368L297.901 507.612ZM314.861 492.212H325.109V504H322.365V494.732H317.605V504H314.861V492.212ZM331.332 502.628V510.412H328.588V492.212H331.332V493.5C332.228 492.436 333.394 491.904 334.832 491.904C336.437 491.904 337.79 492.473 338.892 493.612C340.012 494.732 340.572 496.207 340.572 498.036C340.572 499.921 339.993 501.452 338.836 502.628C337.678 503.785 336.353 504.364 334.86 504.364C333.46 504.364 332.284 503.785 331.332 502.628ZM334.496 494.368C333.562 494.368 332.769 494.704 332.116 495.376C331.481 496.029 331.164 496.963 331.164 498.176C331.164 499.352 331.481 500.267 332.116 500.92C332.769 501.573 333.562 501.9 334.496 501.9C335.466 501.9 336.25 501.536 336.848 500.808C337.464 500.08 337.772 499.193 337.772 498.148C337.772 497.084 337.464 496.188 336.848 495.46C336.25 494.732 335.466 494.368 334.496 494.368ZM344.611 493.668C345.825 492.492 347.327 491.904 349.119 491.904C350.911 491.904 352.405 492.492 353.599 493.668C354.813 494.825 355.419 496.309 355.419 498.12C355.419 499.912 354.813 501.405 353.599 502.6C352.405 503.776 350.911 504.364 349.119 504.364C347.327 504.364 345.825 503.776 344.611 502.6C343.417 501.405 342.819 499.912 342.819 498.12C342.819 496.309 343.417 494.825 344.611 493.668ZM346.571 500.892C347.206 501.564 348.055 501.9 349.119 501.9C350.183 501.9 351.033 501.564 351.667 500.892C352.302 500.201 352.619 499.287 352.619 498.148C352.619 496.897 352.274 495.955 351.583 495.32C350.911 494.685 350.09 494.368 349.119 494.368C348.149 494.368 347.318 494.685 346.627 495.32C345.955 495.955 345.619 496.897 345.619 498.148C345.619 499.287 345.937 500.201 346.571 500.892ZM367.411 492.744V495.824C366.422 494.853 365.311 494.368 364.079 494.368C363.034 494.368 362.166 494.713 361.475 495.404C360.803 496.076 360.467 496.981 360.467 498.12C360.467 499.296 360.822 500.239 361.531 500.948C362.203 501.583 363.034 501.9 364.023 501.9C365.386 501.9 366.515 501.396 367.411 500.388V503.44C366.422 504.056 365.227 504.364 363.827 504.364C361.942 504.364 360.448 503.785 359.347 502.628C358.227 501.471 357.667 499.996 357.667 498.204C357.667 496.356 358.264 494.835 359.459 493.64C360.616 492.483 362.194 491.904 364.191 491.904C365.33 491.904 366.403 492.184 367.411 492.744ZM378.434 494.732H374.99V504H372.246V494.732H368.802V492.212H378.434V494.732ZM381.279 493.668C382.493 492.492 383.995 491.904 385.787 491.904C387.579 491.904 389.073 492.492 390.267 493.668C391.481 494.825 392.087 496.309 392.087 498.12C392.087 499.912 391.481 501.405 390.267 502.6C389.073 503.776 387.579 504.364 385.787 504.364C383.995 504.364 382.493 503.776 381.279 502.6C380.085 501.405 379.487 499.912 379.487 498.12C379.487 496.309 380.085 494.825 381.279 493.668ZM383.239 500.892C383.874 501.564 384.723 501.9 385.787 501.9C386.851 501.9 387.701 501.564 388.335 500.892C388.97 500.201 389.287 499.287 389.287 498.148C389.287 496.897 388.942 495.955 388.251 495.32C387.579 494.685 386.758 494.368 385.787 494.368C384.817 494.368 383.986 494.685 383.295 495.32C382.623 495.955 382.287 496.897 382.287 498.148C382.287 499.287 382.605 500.201 383.239 500.892ZM401.486 504V492.212H404.23V496.58H409.102V492.212H411.846V504H409.102V499.1H404.23V504H401.486ZM423.946 493.584V492.212H426.69V504H423.946V502.768C423.031 503.832 421.855 504.364 420.418 504.364C418.682 504.364 417.291 503.748 416.246 502.516C415.219 501.284 414.706 499.809 414.706 498.092C414.706 496.225 415.257 494.732 416.358 493.612C417.478 492.473 418.841 491.904 420.446 491.904C421.921 491.904 423.087 492.464 423.946 493.584ZM420.782 494.368C419.811 494.368 419.018 494.732 418.402 495.46C417.805 496.188 417.506 497.084 417.506 498.148C417.506 499.193 417.805 500.08 418.402 500.808C419.018 501.536 419.811 501.9 420.782 501.9C421.715 501.9 422.499 501.573 423.134 500.92C423.787 500.267 424.114 499.352 424.114 498.176C424.114 496.963 423.787 496.029 423.134 495.376C422.499 494.704 421.715 494.368 420.782 494.368ZM430.17 504V492.212H432.914V501.48H436.834V492.212H439.578V501.48H443.498V492.212H446.242V504H430.17ZM458.344 493.584V492.212H461.088V504H458.344V502.768C457.43 503.832 456.254 504.364 454.816 504.364C453.08 504.364 451.69 503.748 450.644 502.516C449.618 501.284 449.104 499.809 449.104 498.092C449.104 496.225 449.655 494.732 450.756 493.612C451.876 492.473 453.239 491.904 454.844 491.904C456.319 491.904 457.486 492.464 458.344 493.584ZM455.18 494.368C454.21 494.368 453.416 494.732 452.8 495.46C452.203 496.188 451.904 497.084 451.904 498.148C451.904 499.193 452.203 500.08 452.8 500.808C453.416 501.536 454.21 501.9 455.18 501.9C456.114 501.9 456.898 501.573 457.532 500.92C458.186 500.267 458.512 499.352 458.512 498.176C458.512 496.963 458.186 496.029 457.532 495.376C456.898 494.704 456.114 494.368 455.18 494.368ZM227.111 527.212H235.959V536.48H237.751V542.36H235.231V539H226.999V542.36H224.479V536.48C225.431 536.424 226.15 535.911 226.635 534.94C226.953 534.249 227.111 533.213 227.111 531.832V527.212ZM233.215 536.48V529.732H229.743V532.868C229.743 534.567 229.286 535.771 228.371 536.48H233.215ZM247.98 535.024L250.276 536.312C249.754 537.245 249.091 537.964 248.288 538.468C247.374 539.065 246.216 539.364 244.816 539.364C243.174 539.364 241.848 538.86 240.84 537.852C239.683 536.695 239.104 535.192 239.104 533.344C239.104 531.403 239.73 529.788 240.98 528.5C242.044 527.436 243.36 526.904 244.928 526.904C246.459 526.904 247.719 527.417 248.708 528.444C249.81 529.583 250.36 531.244 250.36 533.428V533.764H241.904C241.979 534.753 242.315 535.547 242.912 536.144C243.416 536.648 244.116 536.9 245.012 536.9C245.74 536.9 246.366 536.704 246.888 536.312C247.318 535.976 247.682 535.547 247.98 535.024ZM242.1 531.524H247.56C247.448 530.871 247.168 530.339 246.72 529.928C246.235 529.48 245.619 529.256 244.872 529.256C244.088 529.256 243.444 529.508 242.94 530.012C242.53 530.385 242.25 530.889 242.1 531.524ZM262.916 527.212V539H260.172V529.732H256.7V534.408C256.7 535.864 256.327 536.993 255.58 537.796C254.628 538.86 253.34 539.261 251.716 539V536.48C252.519 536.667 253.163 536.489 253.648 535.948C253.928 535.612 254.068 535.099 254.068 534.408V527.212H262.916ZM275.005 528.584V527.212H277.749V539H275.005V537.768C274.09 538.832 272.914 539.364 271.477 539.364C269.741 539.364 268.35 538.748 267.305 537.516C266.278 536.284 265.765 534.809 265.765 533.092C265.765 531.225 266.315 529.732 267.417 528.612C268.537 527.473 269.899 526.904 271.505 526.904C272.979 526.904 274.146 527.464 275.005 528.584ZM271.841 529.368C270.87 529.368 270.077 529.732 269.461 530.46C268.863 531.188 268.565 532.084 268.565 533.148C268.565 534.193 268.863 535.08 269.461 535.808C270.077 536.536 270.87 536.9 271.841 536.9C272.774 536.9 273.558 536.573 274.193 535.92C274.846 535.267 275.173 534.352 275.173 533.176C275.173 531.963 274.846 531.029 274.193 530.376C273.558 529.704 272.774 529.368 271.841 529.368ZM289.488 535.024L291.784 536.312C291.262 537.245 290.599 537.964 289.796 538.468C288.882 539.065 287.724 539.364 286.324 539.364C284.682 539.364 283.356 538.86 282.348 537.852C281.191 536.695 280.612 535.192 280.612 533.344C280.612 531.403 281.238 529.788 282.488 528.5C283.552 527.436 284.868 526.904 286.436 526.904C287.967 526.904 289.227 527.417 290.216 528.444C291.318 529.583 291.868 531.244 291.868 533.428V533.764H283.412C283.487 534.753 283.823 535.547 284.42 536.144C284.924 536.648 285.624 536.9 286.52 536.9C287.248 536.9 287.874 536.704 288.396 536.312C288.826 535.976 289.19 535.547 289.488 535.024ZM283.608 531.524H289.068C288.956 530.871 288.676 530.339 288.228 529.928C287.743 529.48 287.127 529.256 286.38 529.256C285.596 529.256 284.952 529.508 284.448 530.012C284.038 530.385 283.758 530.889 283.608 531.524ZM302.856 529.732H299.412V539H296.668V529.732H293.224V527.212H302.856V529.732ZM310.745 530.124V527.52C311.79 527.109 312.901 526.904 314.077 526.904C316.056 526.904 317.624 527.483 318.781 528.64C319.92 529.779 320.489 531.263 320.489 533.092C320.489 534.921 319.91 536.424 318.753 537.6C317.633 538.776 316.168 539.364 314.357 539.364C313.088 539.364 311.884 539.14 310.745 538.692V536.088C311.697 536.629 312.77 536.9 313.965 536.9C315.104 536.9 315.99 536.583 316.625 535.948C317.092 535.481 317.381 534.875 317.493 534.128H312.033V531.832H317.409C317.26 530.992 316.868 530.367 316.233 529.956C315.673 529.564 314.917 529.368 313.965 529.368C312.845 529.368 311.772 529.62 310.745 530.124ZM331.458 529.732H328.014V539H325.27V529.732H321.826V527.212H331.458V529.732ZM334.303 528.668C335.516 527.492 337.019 526.904 338.811 526.904C340.603 526.904 342.096 527.492 343.291 528.668C344.504 529.825 345.111 531.309 345.111 533.12C345.111 534.912 344.504 536.405 343.291 537.6C342.096 538.776 340.603 539.364 338.811 539.364C337.019 539.364 335.516 538.776 334.303 537.6C333.108 536.405 332.511 534.912 332.511 533.12C332.511 531.309 333.108 529.825 334.303 528.668ZM336.263 535.892C336.897 536.564 337.747 536.9 338.811 536.9C339.875 536.9 340.724 536.564 341.359 535.892C341.993 535.201 342.311 534.287 342.311 533.148C342.311 531.897 341.965 530.955 341.275 530.32C340.603 529.685 339.781 529.368 338.811 529.368C337.84 529.368 337.009 529.685 336.319 530.32C335.647 530.955 335.311 531.897 335.311 533.148C335.311 534.287 335.628 535.201 336.263 535.892ZM364.197 527.212V539H361.453V529.732H357.981V534.408C357.981 535.864 357.608 536.993 356.861 537.796C355.909 538.86 354.621 539.261 352.997 539V536.48C353.8 536.667 354.444 536.489 354.929 535.948C355.209 535.612 355.349 535.099 355.349 534.408V527.212H364.197ZM366.794 545.412L371.134 537.152L366.094 527.212H369.398L372.758 534.1L376.174 527.212H379.254L369.874 545.412H366.794ZM387.554 539V534.436C386.714 534.604 385.911 534.688 385.146 534.688C383.802 534.688 382.766 534.399 382.038 533.82C381.272 533.204 380.89 532.261 380.89 530.992V527.212H383.634V530.432C383.634 531.235 383.867 531.776 384.334 532.056C384.651 532.243 385.108 532.336 385.706 532.336C386.378 532.336 386.994 532.233 387.554 532.028V527.212H390.298V539H387.554ZM393.775 539V527.212H396.519V536.48H400.439V527.212H403.183V536.48H407.103V527.212H409.847V539H393.775ZM421.586 535.024L423.882 536.312C423.359 537.245 422.697 537.964 421.894 538.468C420.979 539.065 419.822 539.364 418.422 539.364C416.779 539.364 415.454 538.86 414.446 537.852C413.289 536.695 412.71 535.192 412.71 533.344C412.71 531.403 413.335 529.788 414.586 528.5C415.65 527.436 416.966 526.904 418.534 526.904C420.065 526.904 421.325 527.417 422.314 528.444C423.415 529.583 423.966 531.244 423.966 533.428V533.764H415.51C415.585 534.753 415.921 535.547 416.518 536.144C417.022 536.648 417.722 536.9 418.618 536.9C419.346 536.9 419.971 536.704 420.494 536.312C420.923 535.976 421.287 535.547 421.586 535.024ZM415.706 531.524H421.166C421.054 530.871 420.774 530.339 420.326 529.928C419.841 529.48 419.225 529.256 418.478 529.256C417.694 529.256 417.05 529.508 416.546 530.012C416.135 530.385 415.855 530.889 415.706 531.524Z" fill="#475762"/>
<path d="M69 1H1V308H69" stroke="#475762" stroke-dasharray="2 3"/>
<defs>
<filter id="filter0_dd" x="29" y="137" width="431" height="341" filterUnits="userSpaceOnUse" color-interpolation-filters="sRGB">
<feFlood flood-opacity="0" result="BackgroundImageFix"/>
<feColorMatrix in="SourceAlpha" type="matrix" values="0 0 0 0 0 0 0 0 0 0 0 0 0 0 0 0 0 0 127 0"/>
<feMorphology radius="6" operator="dilate" in="SourceAlpha" result="effect1_dropShadow"/>
<feOffset dx="-1" dy="5"/>
<feGaussianBlur stdDeviation="17"/>
<feColorMatrix type="matrix" values="0 0 0 0 0 0 0 0 0 0 0 0 0 0 0 0 0 0 0.06 0"/>
<feBlend mode="normal" in2="BackgroundImageFix" result="effect1_dropShadow"/>
<feColorMatrix in="SourceAlpha" type="matrix" values="0 0 0 0 0 0 0 0 0 0 0 0 0 0 0 0 0 0 127 0"/>
<feOffset dy="4"/>
<feGaussianBlur stdDeviation="2"/>
<feColorMatrix type="matrix" values="0 0 0 0 0 0 0 0 0 0 0 0 0 0 0 0 0 0 0.04 0"/>
<feBlend mode="normal" in2="effect1_dropShadow" result="effect2_dropShadow"/>
<feBlend mode="normal" in="SourceGraphic" in2="effect2_dropShadow" result="shape"/>
</filter>
<filter id="filter1_dd" x="128" y="405" width="426" height="187" filterUnits="userSpaceOnUse" color-interpolation-filters="sRGB">
<feFlood flood-opacity="0" result="BackgroundImageFix"/>
<feColorMatrix in="SourceAlpha" type="matrix" values="0 0 0 0 0 0 0 0 0 0 0 0 0 0 0 0 0 0 127 0"/>
<feOffset dx="9" dy="12"/>
<feGaussianBlur stdDeviation="12"/>
<feColorMatrix type="matrix" values="0 0 0 0 0 0 0 0 0 0 0 0 0 0 0 0 0 0 0.07 0"/>
<feBlend mode="normal" in2="BackgroundImageFix" result="effect1_dropShadow"/>
<feColorMatrix in="SourceAlpha" type="matrix" values="0 0 0 0 0 0 0 0 0 0 0 0 0 0 0 0 0 0 127 0"/>
<feOffset dy="3"/>
<feGaussianBlur stdDeviation="1.5"/>
<feColorMatrix type="matrix" values="0 0 0 0 0 0 0 0 0 0 0 0 0 0 0 0 0 0 0.03 0"/>
<feBlend mode="normal" in2="effect1_dropShadow" result="effect2_dropShadow"/>
<feBlend mode="normal" in="SourceGraphic" in2="effect2_dropShadow" result="shape"/>
</filter>
</defs>
</svg>
