<svg width="554" height="565" viewBox="0 0 554 565" fill="none" xmlns="http://www.w3.org/2000/svg">
<g filter="url(#filter0_dd)">
<rect x="70" y="172" width="351" height="261" rx="5" fill="#B8E7DE"/>
</g>
<path d="M290 433H293V436H290V433Z" fill="#BABABA"/>
<path d="M290 323H293V326H290V323Z" fill="#BABABA"/>
<path d="M301 433H304V436H301V433Z" fill="#BABABA"/>
<path d="M301 323H304V326H301V323Z" fill="#BABABA"/>
<path d="M312 433H315V436H312V433Z" fill="#BABABA"/>
<path d="M312 323H315V326H312V323Z" fill="#BABABA"/>
<path d="M323 433H326V436H323V433Z" fill="#BABABA"/>
<path d="M323 323H326V326H323V323Z" fill="#BABABA"/>
<path d="M334 433H337V436H334V433Z" fill="#BABABA"/>
<path d="M334 323H337V326H334V323Z" fill="#BABABA"/>
<path d="M345 433H348V436H345V433Z" fill="#BABABA"/>
<path d="M345 323H348V326H345V323Z" fill="#BABABA"/>
<path d="M356 433H359V436H356V433Z" fill="#BABABA"/>
<path d="M356 323H359V326H356V323Z" fill="#BABABA"/>
<path d="M367 433H370V436H367V433Z" fill="#BABABA"/>
<path d="M367 323H370V326H367V323Z" fill="#BABABA"/>
<path d="M378 433H381V436H378V433Z" fill="#BABABA"/>
<path d="M378 323H381V326H378V323Z" fill="#BABABA"/>
<path d="M389 433H392V436H389V433Z" fill="#BABABA"/>
<path d="M389 323H392V326H389V323Z" fill="#BABABA"/>
<path d="M400 433H403V436H400V433Z" fill="#BABABA"/>
<path d="M400 323H403V326H400V323Z" fill="#BABABA"/>
<path d="M411 433H414V436H411V433Z" fill="#BABABA"/>
<path d="M411 323H414V326H411V323Z" fill="#BABABA"/>
<path d="M422 433H425V436H422V433Z" fill="#BABABA"/>
<path d="M422 323H425V326H422V323Z" fill="#BABABA"/>
<path d="M433 433H436V436H433V433Z" fill="#BABABA"/>
<path d="M433 323H436V326H433V323Z" fill="#BABABA"/>
<path d="M444 433H447V436H444V433Z" fill="#BABABA"/>
<path d="M444 323H447V326H444V323Z" fill="#BABABA"/>
<path d="M455 433H458V436H455V433Z" fill="#BABABA"/>
<path d="M455 323H458V326H455V323Z" fill="#BABABA"/>
<path d="M466 433H469V436H466V433Z" fill="#BABABA"/>
<path d="M466 323H469V326H466V323Z" fill="#BABABA"/>
<path d="M477 433H480V436H477V433Z" fill="#BABABA"/>
<path d="M477 323H480V326H477V323Z" fill="#BABABA"/>
<path d="M488 433H491V436H488V433Z" fill="#BABABA"/>
<path d="M488 323H491V326H488V323Z" fill="#BABABA"/>
<path d="M499 433H502V436H499V433Z" fill="#BABABA"/>
<path d="M499 323H502V326H499V323Z" fill="#BABABA"/>
<path d="M290 443H293V446H290V443Z" fill="#BABABA"/>
<path d="M290 333H293V336H290V333Z" fill="#BABABA"/>
<path d="M301 443H304V446H301V443Z" fill="#BABABA"/>
<path d="M301 333H304V336H301V333Z" fill="#BABABA"/>
<path d="M312 443H315V446H312V443Z" fill="#BABABA"/>
<path d="M312 333H315V336H312V333Z" fill="#BABABA"/>
<path d="M323 443H326V446H323V443Z" fill="#BABABA"/>
<path d="M323 333H326V336H323V333Z" fill="#BABABA"/>
<path d="M334 443H337V446H334V443Z" fill="#BABABA"/>
<path d="M334 333H337V336H334V333Z" fill="#BABABA"/>
<path d="M345 443H348V446H345V443Z" fill="#BABABA"/>
<path d="M345 333H348V336H345V333Z" fill="#BABABA"/>
<path d="M356 443H359V446H356V443Z" fill="#BABABA"/>
<path d="M356 333H359V336H356V333Z" fill="#BABABA"/>
<path d="M367 443H370V446H367V443Z" fill="#BABABA"/>
<path d="M367 333H370V336H367V333Z" fill="#BABABA"/>
<path d="M378 443H381V446H378V443Z" fill="#BABABA"/>
<path d="M378 333H381V336H378V333Z" fill="#BABABA"/>
<path d="M389 443H392V446H389V443Z" fill="#BABABA"/>
<path d="M389 333H392V336H389V333Z" fill="#BABABA"/>
<path d="M400 443H403V446H400V443Z" fill="#BABABA"/>
<path d="M400 333H403V336H400V333Z" fill="#BABABA"/>
<path d="M411 443H414V446H411V443Z" fill="#BABABA"/>
<path d="M411 333H414V336H411V333Z" fill="#BABABA"/>
<path d="M422 443H425V446H422V443Z" fill="#BABABA"/>
<path d="M422 333H425V336H422V333Z" fill="#BABABA"/>
<path d="M433 443H436V446H433V443Z" fill="#BABABA"/>
<path d="M433 333H436V336H433V333Z" fill="#BABABA"/>
<path d="M444 443H447V446H444V443Z" fill="#BABABA"/>
<path d="M444 333H447V336H444V333Z" fill="#BABABA"/>
<path d="M455 443H458V446H455V443Z" fill="#BABABA"/>
<path d="M455 333H458V336H455V333Z" fill="#BABABA"/>
<path d="M466 443H469V446H466V443Z" fill="#BABABA"/>
<path d="M466 333H469V336H466V333Z" fill="#BABABA"/>
<path d="M477 443H480V446H477V443Z" fill="#BABABA"/>
<path d="M477 333H480V336H477V333Z" fill="#BABABA"/>
<path d="M488 443H491V446H488V443Z" fill="#BABABA"/>
<path d="M488 333H491V336H488V333Z" fill="#BABABA"/>
<path d="M499 443H502V446H499V443Z" fill="#BABABA"/>
<path d="M499 333H502V336H499V333Z" fill="#BABABA"/>
<path d="M290 453H293V456H290V453Z" fill="#BABABA"/>
<path d="M290 343H293V346H290V343Z" fill="#BABABA"/>
<path d="M301 453H304V456H301V453Z" fill="#BABABA"/>
<path d="M301 343H304V346H301V343Z" fill="#BABABA"/>
<path d="M312 453H315V456H312V453Z" fill="#BABABA"/>
<path d="M312 343H315V346H312V343Z" fill="#BABABA"/>
<path d="M323 453H326V456H323V453Z" fill="#BABABA"/>
<path d="M323 343H326V346H323V343Z" fill="#BABABA"/>
<path d="M334 453H337V456H334V453Z" fill="#BABABA"/>
<path d="M334 343H337V346H334V343Z" fill="#BABABA"/>
<path d="M345 453H348V456H345V453Z" fill="#BABABA"/>
<path d="M345 343H348V346H345V343Z" fill="#BABABA"/>
<path d="M356 453H359V456H356V453Z" fill="#BABABA"/>
<path d="M356 343H359V346H356V343Z" fill="#BABABA"/>
<path d="M367 453H370V456H367V453Z" fill="#BABABA"/>
<path d="M367 343H370V346H367V343Z" fill="#BABABA"/>
<path d="M378 453H381V456H378V453Z" fill="#BABABA"/>
<path d="M378 343H381V346H378V343Z" fill="#BABABA"/>
<path d="M389 453H392V456H389V453Z" fill="#BABABA"/>
<path d="M389 343H392V346H389V343Z" fill="#BABABA"/>
<path d="M400 453H403V456H400V453Z" fill="#BABABA"/>
<path d="M400 343H403V346H400V343Z" fill="#BABABA"/>
<path d="M411 453H414V456H411V453Z" fill="#BABABA"/>
<path d="M411 343H414V346H411V343Z" fill="#BABABA"/>
<path d="M422 453H425V456H422V453Z" fill="#BABABA"/>
<path d="M422 343H425V346H422V343Z" fill="#BABABA"/>
<path d="M433 453H436V456H433V453Z" fill="#BABABA"/>
<path d="M433 343H436V346H433V343Z" fill="#BABABA"/>
<path d="M444 453H447V456H444V453Z" fill="#BABABA"/>
<path d="M444 343H447V346H444V343Z" fill="#BABABA"/>
<path d="M455 453H458V456H455V453Z" fill="#BABABA"/>
<path d="M455 343H458V346H455V343Z" fill="#BABABA"/>
<path d="M466 453H469V456H466V453Z" fill="#BABABA"/>
<path d="M466 343H469V346H466V343Z" fill="#BABABA"/>
<path d="M477 453H480V456H477V453Z" fill="#BABABA"/>
<path d="M477 343H480V346H477V343Z" fill="#BABABA"/>
<path d="M488 453H491V456H488V453Z" fill="#BABABA"/>
<path d="M488 343H491V346H488V343Z" fill="#BABABA"/>
<path d="M499 453H502V456H499V453Z" fill="#BABABA"/>
<path d="M499 343H502V346H499V343Z" fill="#BABABA"/>
<path d="M290 463H293V466H290V463Z" fill="#BABABA"/>
<path d="M290 353H293V356H290V353Z" fill="#BABABA"/>
<path d="M301 463H304V466H301V463Z" fill="#BABABA"/>
<path d="M301 353H304V356H301V353Z" fill="#BABABA"/>
<path d="M312 463H315V466H312V463Z" fill="#BABABA"/>
<path d="M312 353H315V356H312V353Z" fill="#BABABA"/>
<path d="M323 463H326V466H323V463Z" fill="#BABABA"/>
<path d="M323 353H326V356H323V353Z" fill="#BABABA"/>
<path d="M334 463H337V466H334V463Z" fill="#BABABA"/>
<path d="M334 353H337V356H334V353Z" fill="#BABABA"/>
<path d="M345 463H348V466H345V463Z" fill="#BABABA"/>
<path d="M345 353H348V356H345V353Z" fill="#BABABA"/>
<path d="M356 463H359V466H356V463Z" fill="#BABABA"/>
<path d="M356 353H359V356H356V353Z" fill="#BABABA"/>
<path d="M367 463H370V466H367V463Z" fill="#BABABA"/>
<path d="M367 353H370V356H367V353Z" fill="#BABABA"/>
<path d="M378 463H381V466H378V463Z" fill="#BABABA"/>
<path d="M378 353H381V356H378V353Z" fill="#BABABA"/>
<path d="M389 463H392V466H389V463Z" fill="#BABABA"/>
<path d="M389 353H392V356H389V353Z" fill="#BABABA"/>
<path d="M400 463H403V466H400V463Z" fill="#BABABA"/>
<path d="M400 353H403V356H400V353Z" fill="#BABABA"/>
<path d="M411 463H414V466H411V463Z" fill="#BABABA"/>
<path d="M411 353H414V356H411V353Z" fill="#BABABA"/>
<path d="M422 463H425V466H422V463Z" fill="#BABABA"/>
<path d="M422 353H425V356H422V353Z" fill="#BABABA"/>
<path d="M433 463H436V466H433V463Z" fill="#BABABA"/>
<path d="M433 353H436V356H433V353Z" fill="#BABABA"/>
<path d="M444 463H447V466H444V463Z" fill="#BABABA"/>
<path d="M444 353H447V356H444V353Z" fill="#BABABA"/>
<path d="M455 463H458V466H455V463Z" fill="#BABABA"/>
<path d="M455 353H458V356H455V353Z" fill="#BABABA"/>
<path d="M466 463H469V466H466V463Z" fill="#BABABA"/>
<path d="M466 353H469V356H466V353Z" fill="#BABABA"/>
<path d="M477 463H480V466H477V463Z" fill="#BABABA"/>
<path d="M477 353H480V356H477V353Z" fill="#BABABA"/>
<path d="M488 463H491V466H488V463Z" fill="#BABABA"/>
<path d="M488 353H491V356H488V353Z" fill="#BABABA"/>
<path d="M499 463H502V466H499V463Z" fill="#BABABA"/>
<path d="M499 353H502V356H499V353Z" fill="#BABABA"/>
<path d="M290 473H293V476H290V473Z" fill="#BABABA"/>
<path d="M290 363H293V366H290V363Z" fill="#BABABA"/>
<path d="M301 473H304V476H301V473Z" fill="#BABABA"/>
<path d="M301 363H304V366H301V363Z" fill="#BABABA"/>
<path d="M312 473H315V476H312V473Z" fill="#BABABA"/>
<path d="M312 363H315V366H312V363Z" fill="#BABABA"/>
<path d="M323 473H326V476H323V473Z" fill="#BABABA"/>
<path d="M323 363H326V366H323V363Z" fill="#BABABA"/>
<path d="M334 473H337V476H334V473Z" fill="#BABABA"/>
<path d="M334 363H337V366H334V363Z" fill="#BABABA"/>
<path d="M345 473H348V476H345V473Z" fill="#BABABA"/>
<path d="M345 363H348V366H345V363Z" fill="#BABABA"/>
<path d="M356 473H359V476H356V473Z" fill="#BABABA"/>
<path d="M356 363H359V366H356V363Z" fill="#BABABA"/>
<path d="M367 473H370V476H367V473Z" fill="#BABABA"/>
<path d="M367 363H370V366H367V363Z" fill="#BABABA"/>
<path d="M378 473H381V476H378V473Z" fill="#BABABA"/>
<path d="M378 363H381V366H378V363Z" fill="#BABABA"/>
<path d="M389 473H392V476H389V473Z" fill="#BABABA"/>
<path d="M389 363H392V366H389V363Z" fill="#BABABA"/>
<path d="M400 473H403V476H400V473Z" fill="#BABABA"/>
<path d="M400 363H403V366H400V363Z" fill="#BABABA"/>
<path d="M411 473H414V476H411V473Z" fill="#BABABA"/>
<path d="M411 363H414V366H411V363Z" fill="#BABABA"/>
<path d="M422 473H425V476H422V473Z" fill="#BABABA"/>
<path d="M422 363H425V366H422V363Z" fill="#BABABA"/>
<path d="M433 473H436V476H433V473Z" fill="#BABABA"/>
<path d="M433 363H436V366H433V363Z" fill="#BABABA"/>
<path d="M444 473H447V476H444V473Z" fill="#BABABA"/>
<path d="M444 363H447V366H444V363Z" fill="#BABABA"/>
<path d="M455 473H458V476H455V473Z" fill="#BABABA"/>
<path d="M455 363H458V366H455V363Z" fill="#BABABA"/>
<path d="M466 473H469V476H466V473Z" fill="#BABABA"/>
<path d="M466 363H469V366H466V363Z" fill="#BABABA"/>
<path d="M477 473H480V476H477V473Z" fill="#BABABA"/>
<path d="M477 363H480V366H477V363Z" fill="#BABABA"/>
<path d="M488 473H491V476H488V473Z" fill="#BABABA"/>
<path d="M488 363H491V366H488V363Z" fill="#BABABA"/>
<path d="M499 473H502V476H499V473Z" fill="#BABABA"/>
<path d="M499 363H502V366H499V363Z" fill="#BABABA"/>
<path d="M290 483H293V486H290V483Z" fill="#BABABA"/>
<path d="M290 373H293V376H290V373Z" fill="#BABABA"/>
<path d="M301 483H304V486H301V483Z" fill="#BABABA"/>
<path d="M301 373H304V376H301V373Z" fill="#BABABA"/>
<path d="M312 483H315V486H312V483Z" fill="#BABABA"/>
<path d="M312 373H315V376H312V373Z" fill="#BABABA"/>
<path d="M323 483H326V486H323V483Z" fill="#BABABA"/>
<path d="M323 373H326V376H323V373Z" fill="#BABABA"/>
<path d="M334 483H337V486H334V483Z" fill="#BABABA"/>
<path d="M334 373H337V376H334V373Z" fill="#BABABA"/>
<path d="M345 483H348V486H345V483Z" fill="#BABABA"/>
<path d="M345 373H348V376H345V373Z" fill="#BABABA"/>
<path d="M356 483H359V486H356V483Z" fill="#BABABA"/>
<path d="M356 373H359V376H356V373Z" fill="#BABABA"/>
<path d="M367 483H370V486H367V483Z" fill="#BABABA"/>
<path d="M367 373H370V376H367V373Z" fill="#BABABA"/>
<path d="M378 483H381V486H378V483Z" fill="#BABABA"/>
<path d="M378 373H381V376H378V373Z" fill="#BABABA"/>
<path d="M389 483H392V486H389V483Z" fill="#BABABA"/>
<path d="M389 373H392V376H389V373Z" fill="#BABABA"/>
<path d="M400 483H403V486H400V483Z" fill="#BABABA"/>
<path d="M400 373H403V376H400V373Z" fill="#BABABA"/>
<path d="M411 483H414V486H411V483Z" fill="#BABABA"/>
<path d="M411 373H414V376H411V373Z" fill="#BABABA"/>
<path d="M422 483H425V486H422V483Z" fill="#BABABA"/>
<path d="M422 373H425V376H422V373Z" fill="#BABABA"/>
<path d="M433 483H436V486H433V483Z" fill="#BABABA"/>
<path d="M433 373H436V376H433V373Z" fill="#BABABA"/>
<path d="M444 483H447V486H444V483Z" fill="#BABABA"/>
<path d="M444 373H447V376H444V373Z" fill="#BABABA"/>
<path d="M455 483H458V486H455V483Z" fill="#BABABA"/>
<path d="M455 373H458V376H455V373Z" fill="#BABABA"/>
<path d="M466 483H469V486H466V483Z" fill="#BABABA"/>
<path d="M466 373H469V376H466V373Z" fill="#BABABA"/>
<path d="M477 483H480V486H477V483Z" fill="#BABABA"/>
<path d="M477 373H480V376H477V373Z" fill="#BABABA"/>
<path d="M488 483H491V486H488V483Z" fill="#BABABA"/>
<path d="M488 373H491V376H488V373Z" fill="#BABABA"/>
<path d="M499 483H502V486H499V483Z" fill="#BABABA"/>
<path d="M499 373H502V376H499V373Z" fill="#BABABA"/>
<path d="M290 493H293V496H290V493Z" fill="#BABABA"/>
<path d="M290 383H293V386H290V383Z" fill="#BABABA"/>
<path d="M301 493H304V496H301V493Z" fill="#BABABA"/>
<path d="M301 383H304V386H301V383Z" fill="#BABABA"/>
<path d="M312 493H315V496H312V493Z" fill="#BABABA"/>
<path d="M312 383H315V386H312V383Z" fill="#BABABA"/>
<path d="M323 493H326V496H323V493Z" fill="#BABABA"/>
<path d="M323 383H326V386H323V383Z" fill="#BABABA"/>
<path d="M334 493H337V496H334V493Z" fill="#BABABA"/>
<path d="M334 383H337V386H334V383Z" fill="#BABABA"/>
<path d="M345 493H348V496H345V493Z" fill="#BABABA"/>
<path d="M345 383H348V386H345V383Z" fill="#BABABA"/>
<path d="M356 493H359V496H356V493Z" fill="#BABABA"/>
<path d="M356 383H359V386H356V383Z" fill="#BABABA"/>
<path d="M367 493H370V496H367V493Z" fill="#BABABA"/>
<path d="M367 383H370V386H367V383Z" fill="#BABABA"/>
<path d="M378 493H381V496H378V493Z" fill="#BABABA"/>
<path d="M378 383H381V386H378V383Z" fill="#BABABA"/>
<path d="M389 493H392V496H389V493Z" fill="#BABABA"/>
<path d="M389 383H392V386H389V383Z" fill="#BABABA"/>
<path d="M400 493H403V496H400V493Z" fill="#BABABA"/>
<path d="M400 383H403V386H400V383Z" fill="#BABABA"/>
<path d="M411 493H414V496H411V493Z" fill="#BABABA"/>
<path d="M411 383H414V386H411V383Z" fill="#BABABA"/>
<path d="M422 493H425V496H422V493Z" fill="#BABABA"/>
<path d="M422 383H425V386H422V383Z" fill="#BABABA"/>
<path d="M433 493H436V496H433V493Z" fill="#BABABA"/>
<path d="M433 383H436V386H433V383Z" fill="#BABABA"/>
<path d="M444 493H447V496H444V493Z" fill="#BABABA"/>
<path d="M444 383H447V386H444V383Z" fill="#BABABA"/>
<path d="M455 493H458V496H455V493Z" fill="#BABABA"/>
<path d="M455 383H458V386H455V383Z" fill="#BABABA"/>
<path d="M466 493H469V496H466V493Z" fill="#BABABA"/>
<path d="M466 383H469V386H466V383Z" fill="#BABABA"/>
<path d="M477 493H480V496H477V493Z" fill="#BABABA"/>
<path d="M477 383H480V386H477V383Z" fill="#BABABA"/>
<path d="M488 493H491V496H488V493Z" fill="#BABABA"/>
<path d="M488 383H491V386H488V383Z" fill="#BABABA"/>
<path d="M499 493H502V496H499V493Z" fill="#BABABA"/>
<path d="M499 383H502V386H499V383Z" fill="#BABABA"/>
<path d="M290 503H293V506H290V503Z" fill="#BABABA"/>
<path d="M290 393H293V396H290V393Z" fill="#BABABA"/>
<path d="M301 503H304V506H301V503Z" fill="#BABABA"/>
<path d="M301 393H304V396H301V393Z" fill="#BABABA"/>
<path d="M312 503H315V506H312V503Z" fill="#BABABA"/>
<path d="M312 393H315V396H312V393Z" fill="#BABABA"/>
<path d="M323 503H326V506H323V503Z" fill="#BABABA"/>
<path d="M323 393H326V396H323V393Z" fill="#BABABA"/>
<path d="M334 503H337V506H334V503Z" fill="#BABABA"/>
<path d="M334 393H337V396H334V393Z" fill="#BABABA"/>
<path d="M345 503H348V506H345V503Z" fill="#BABABA"/>
<path d="M345 393H348V396H345V393Z" fill="#BABABA"/>
<path d="M356 503H359V506H356V503Z" fill="#BABABA"/>
<path d="M356 393H359V396H356V393Z" fill="#BABABA"/>
<path d="M367 503H370V506H367V503Z" fill="#BABABA"/>
<path d="M367 393H370V396H367V393Z" fill="#BABABA"/>
<path d="M378 503H381V506H378V503Z" fill="#BABABA"/>
<path d="M378 393H381V396H378V393Z" fill="#BABABA"/>
<path d="M389 503H392V506H389V503Z" fill="#BABABA"/>
<path d="M389 393H392V396H389V393Z" fill="#BABABA"/>
<path d="M400 503H403V506H400V503Z" fill="#BABABA"/>
<path d="M400 393H403V396H400V393Z" fill="#BABABA"/>
<path d="M411 503H414V506H411V503Z" fill="#BABABA"/>
<path d="M411 393H414V396H411V393Z" fill="#BABABA"/>
<path d="M422 503H425V506H422V503Z" fill="#BABABA"/>
<path d="M422 393H425V396H422V393Z" fill="#BABABA"/>
<path d="M433 503H436V506H433V503Z" fill="#BABABA"/>
<path d="M433 393H436V396H433V393Z" fill="#BABABA"/>
<path d="M444 503H447V506H444V503Z" fill="#BABABA"/>
<path d="M444 393H447V396H444V393Z" fill="#BABABA"/>
<path d="M455 503H458V506H455V503Z" fill="#BABABA"/>
<path d="M455 393H458V396H455V393Z" fill="#BABABA"/>
<path d="M466 503H469V506H466V503Z" fill="#BABABA"/>
<path d="M466 393H469V396H466V393Z" fill="#BABABA"/>
<path d="M477 503H480V506H477V503Z" fill="#BABABA"/>
<path d="M477 393H480V396H477V393Z" fill="#BABABA"/>
<path d="M488 503H491V506H488V503Z" fill="#BABABA"/>
<path d="M488 393H491V396H488V393Z" fill="#BABABA"/>
<path d="M499 503H502V506H499V503Z" fill="#BABABA"/>
<path d="M499 393H502V396H499V393Z" fill="#BABABA"/>
<path d="M290 513H293V516H290V513Z" fill="#BABABA"/>
<path d="M290 403H293V406H290V403Z" fill="#BABABA"/>
<path d="M301 513H304V516H301V513Z" fill="#BABABA"/>
<path d="M301 403H304V406H301V403Z" fill="#BABABA"/>
<path d="M312 513H315V516H312V513Z" fill="#BABABA"/>
<path d="M312 403H315V406H312V403Z" fill="#BABABA"/>
<path d="M323 513H326V516H323V513Z" fill="#BABABA"/>
<path d="M323 403H326V406H323V403Z" fill="#BABABA"/>
<path d="M334 513H337V516H334V513Z" fill="#BABABA"/>
<path d="M334 403H337V406H334V403Z" fill="#BABABA"/>
<path d="M345 513H348V516H345V513Z" fill="#BABABA"/>
<path d="M345 403H348V406H345V403Z" fill="#BABABA"/>
<path d="M356 513H359V516H356V513Z" fill="#BABABA"/>
<path d="M356 403H359V406H356V403Z" fill="#BABABA"/>
<path d="M367 513H370V516H367V513Z" fill="#BABABA"/>
<path d="M367 403H370V406H367V403Z" fill="#BABABA"/>
<path d="M378 513H381V516H378V513Z" fill="#BABABA"/>
<path d="M378 403H381V406H378V403Z" fill="#BABABA"/>
<path d="M389 513H392V516H389V513Z" fill="#BABABA"/>
<path d="M389 403H392V406H389V403Z" fill="#BABABA"/>
<path d="M400 513H403V516H400V513Z" fill="#BABABA"/>
<path d="M400 403H403V406H400V403Z" fill="#BABABA"/>
<path d="M411 513H414V516H411V513Z" fill="#BABABA"/>
<path d="M411 403H414V406H411V403Z" fill="#BABABA"/>
<path d="M422 513H425V516H422V513Z" fill="#BABABA"/>
<path d="M422 403H425V406H422V403Z" fill="#BABABA"/>
<path d="M433 513H436V516H433V513Z" fill="#BABABA"/>
<path d="M433 403H436V406H433V403Z" fill="#BABABA"/>
<path d="M444 513H447V516H444V513Z" fill="#BABABA"/>
<path d="M444 403H447V406H444V403Z" fill="#BABABA"/>
<path d="M455 513H458V516H455V513Z" fill="#BABABA"/>
<path d="M455 403H458V406H455V403Z" fill="#BABABA"/>
<path d="M466 513H469V516H466V513Z" fill="#BABABA"/>
<path d="M466 403H469V406H466V403Z" fill="#BABABA"/>
<path d="M477 513H480V516H477V513Z" fill="#BABABA"/>
<path d="M477 403H480V406H477V403Z" fill="#BABABA"/>
<path d="M488 513H491V516H488V513Z" fill="#BABABA"/>
<path d="M488 403H491V406H488V403Z" fill="#BABABA"/>
<path d="M499 513H502V516H499V513Z" fill="#BABABA"/>
<path d="M499 403H502V406H499V403Z" fill="#BABABA"/>
<path d="M290 523H293V526H290V523Z" fill="#BABABA"/>
<path d="M290 413H293V416H290V413Z" fill="#BABABA"/>
<path d="M301 523H304V526H301V523Z" fill="#BABABA"/>
<path d="M301 413H304V416H301V413Z" fill="#BABABA"/>
<path d="M312 523H315V526H312V523Z" fill="#BABABA"/>
<path d="M312 413H315V416H312V413Z" fill="#BABABA"/>
<path d="M323 523H326V526H323V523Z" fill="#BABABA"/>
<path d="M323 413H326V416H323V413Z" fill="#BABABA"/>
<path d="M334 523H337V526H334V523Z" fill="#BABABA"/>
<path d="M334 413H337V416H334V413Z" fill="#BABABA"/>
<path d="M345 523H348V526H345V523Z" fill="#BABABA"/>
<path d="M345 413H348V416H345V413Z" fill="#BABABA"/>
<path d="M356 523H359V526H356V523Z" fill="#BABABA"/>
<path d="M356 413H359V416H356V413Z" fill="#BABABA"/>
<path d="M367 523H370V526H367V523Z" fill="#BABABA"/>
<path d="M367 413H370V416H367V413Z" fill="#BABABA"/>
<path d="M378 523H381V526H378V523Z" fill="#BABABA"/>
<path d="M378 413H381V416H378V413Z" fill="#BABABA"/>
<path d="M389 523H392V526H389V523Z" fill="#BABABA"/>
<path d="M389 413H392V416H389V413Z" fill="#BABABA"/>
<path d="M400 523H403V526H400V523Z" fill="#BABABA"/>
<path d="M400 413H403V416H400V413Z" fill="#BABABA"/>
<path d="M411 523H414V526H411V523Z" fill="#BABABA"/>
<path d="M411 413H414V416H411V413Z" fill="#BABABA"/>
<path d="M422 523H425V526H422V523Z" fill="#BABABA"/>
<path d="M422 413H425V416H422V413Z" fill="#BABABA"/>
<path d="M433 523H436V526H433V523Z" fill="#BABABA"/>
<path d="M433 413H436V416H433V413Z" fill="#BABABA"/>
<path d="M444 523H447V526H444V523Z" fill="#BABABA"/>
<path d="M444 413H447V416H444V413Z" fill="#BABABA"/>
<path d="M455 523H458V526H455V523Z" fill="#BABABA"/>
<path d="M455 413H458V416H455V413Z" fill="#BABABA"/>
<path d="M466 523H469V526H466V523Z" fill="#BABABA"/>
<path d="M466 413H469V416H466V413Z" fill="#BABABA"/>
<path d="M477 523H480V526H477V523Z" fill="#BABABA"/>
<path d="M477 413H480V416H477V413Z" fill="#BABABA"/>
<path d="M488 523H491V526H488V523Z" fill="#BABABA"/>
<path d="M488 413H491V416H488V413Z" fill="#BABABA"/>
<path d="M499 523H502V526H499V523Z" fill="#BABABA"/>
<path d="M499 413H502V416H499V413Z" fill="#BABABA"/>
<path d="M290 533H293V536H290V533Z" fill="#BABABA"/>
<path d="M290 423H293V426H290V423Z" fill="#BABABA"/>
<path d="M301 533H304V536H301V533Z" fill="#BABABA"/>
<path d="M301 423H304V426H301V423Z" fill="#BABABA"/>
<path d="M312 533H315V536H312V533Z" fill="#BABABA"/>
<path d="M312 423H315V426H312V423Z" fill="#BABABA"/>
<path d="M323 533H326V536H323V533Z" fill="#BABABA"/>
<path d="M323 423H326V426H323V423Z" fill="#BABABA"/>
<path d="M334 533H337V536H334V533Z" fill="#BABABA"/>
<path d="M334 423H337V426H334V423Z" fill="#BABABA"/>
<path d="M345 533H348V536H345V533Z" fill="#BABABA"/>
<path d="M345 423H348V426H345V423Z" fill="#BABABA"/>
<path d="M356 533H359V536H356V533Z" fill="#BABABA"/>
<path d="M356 423H359V426H356V423Z" fill="#BABABA"/>
<path d="M367 533H370V536H367V533Z" fill="#BABABA"/>
<path d="M367 423H370V426H367V423Z" fill="#BABABA"/>
<path d="M378 533H381V536H378V533Z" fill="#BABABA"/>
<path d="M378 423H381V426H378V423Z" fill="#BABABA"/>
<path d="M389 533H392V536H389V533Z" fill="#BABABA"/>
<path d="M389 423H392V426H389V423Z" fill="#BABABA"/>
<path d="M400 533H403V536H400V533Z" fill="#BABABA"/>
<path d="M400 423H403V426H400V423Z" fill="#BABABA"/>
<path d="M411 533H414V536H411V533Z" fill="#BABABA"/>
<path d="M411 423H414V426H411V423Z" fill="#BABABA"/>
<path d="M422 533H425V536H422V533Z" fill="#BABABA"/>
<path d="M422 423H425V426H422V423Z" fill="#BABABA"/>
<path d="M433 533H436V536H433V533Z" fill="#BABABA"/>
<path d="M433 423H436V426H433V423Z" fill="#BABABA"/>
<path d="M444 533H447V536H444V533Z" fill="#BABABA"/>
<path d="M444 423H447V426H444V423Z" fill="#BABABA"/>
<path d="M455 533H458V536H455V533Z" fill="#BABABA"/>
<path d="M455 423H458V426H455V423Z" fill="#BABABA"/>
<path d="M466 533H469V536H466V533Z" fill="#BABABA"/>
<path d="M466 423H469V426H466V423Z" fill="#BABABA"/>
<path d="M477 533H480V536H477V533Z" fill="#BABABA"/>
<path d="M477 423H480V426H477V423Z" fill="#BABABA"/>
<path d="M488 533H491V536H488V533Z" fill="#BABABA"/>
<path d="M488 423H491V426H488V423Z" fill="#BABABA"/>
<path d="M499 533H502V536H499V533Z" fill="#BABABA"/>
<path d="M499 423H502V426H499V423Z" fill="#BABABA"/>
<path d="M368.37 209.11H118.47V386.74H368.37V209.11Z" fill="#E6E6E6"/>
<path d="M321.6 232.2C324.102 232.2 326.13 230.172 326.13 227.67C326.13 225.168 324.102 223.14 321.6 223.14C319.098 223.14 317.07 225.168 317.07 227.67C317.07 230.172 319.098 232.2 321.6 232.2Z" fill="#24285B"/>
<path d="M335.07 232.17C337.572 232.17 339.6 230.142 339.6 227.64C339.6 225.138 337.572 223.11 335.07 223.11C332.568 223.11 330.54 225.138 330.54 227.64C330.54 230.142 332.568 232.17 335.07 232.17Z" fill="#FD6F55"/>
<path d="M347.76 232.14C350.262 232.14 352.29 230.112 352.29 227.61C352.29 225.108 350.262 223.08 347.76 223.08C345.258 223.08 343.23 225.108 343.23 227.61C343.23 230.112 345.258 232.14 347.76 232.14Z" fill="#FFD200"/>
<path d="M368 243.14H118.29V387.02H368V243.14Z" fill="#F2F2F2"/>
<path d="M305.87 222.82H159.83V231.87H305.87V222.82Z" fill="white"/>
<path d="M305.87 222.82H290.38V231.87H305.87V222.82Z" fill="#C9C9C9"/>
<path d="M183.83 263.06H135.84V308.1H183.83V263.06Z" fill="#6EC1B1"/>
<path d="M140.27 325.06C142.716 325.06 144.7 323.077 144.7 320.63C144.7 318.183 142.716 316.2 140.27 316.2C137.823 316.2 135.84 318.183 135.84 320.63C135.84 323.077 137.823 325.06 140.27 325.06Z" fill="#FD6F55"/>
<path d="M178.48 318.31H153C151.603 318.31 150.47 319.443 150.47 320.84V320.85C150.47 322.247 151.603 323.38 153 323.38H178.48C179.877 323.38 181.01 322.247 181.01 320.85V320.84C181.01 319.443 179.877 318.31 178.48 318.31Z" fill="#C9C9C9"/>
<path d="M140.27 339.21C142.716 339.21 144.7 337.227 144.7 334.78C144.7 332.333 142.716 330.35 140.27 330.35C137.823 330.35 135.84 332.333 135.84 334.78C135.84 337.227 137.823 339.21 140.27 339.21Z" fill="#FD6F55"/>
<path d="M178.48 332.46H153C151.603 332.46 150.47 333.593 150.47 334.99V335C150.47 336.397 151.603 337.53 153 337.53H178.48C179.877 337.53 181.01 336.397 181.01 335V334.99C181.01 333.593 179.877 332.46 178.48 332.46Z" fill="#C9C9C9"/>
<path d="M140.27 353.35C142.716 353.35 144.7 351.367 144.7 348.92C144.7 346.473 142.716 344.49 140.27 344.49C137.823 344.49 135.84 346.473 135.84 348.92C135.84 351.367 137.823 353.35 140.27 353.35Z" fill="#FD6F55"/>
<path d="M178.48 346.6H153C151.603 346.6 150.47 347.733 150.47 349.13V349.14C150.47 350.537 151.603 351.67 153 351.67H178.48C179.877 351.67 181.01 350.537 181.01 349.14V349.13C181.01 347.733 179.877 346.6 178.48 346.6Z" fill="#C9C9C9"/>
<path d="M299.49 263.06H194.04V293.47H299.49V263.06Z" fill="white"/>
<path d="M299.49 301.62H194.04V332.03H299.49V301.62Z" fill="white"/>
<path d="M299.49 340.17H194.04V370.58H299.49V340.17Z" fill="white"/>
<path d="M293.11 282.3H275.49V290.04H293.11V282.3Z" fill="#FEBF39"/>
<path d="M293.11 320.12H275.49V327.86H293.11V320.12Z" fill="#FEBF39"/>
<path d="M293.11 358.93H275.49V366.67H293.11V358.93Z" fill="#FEBF39"/>
<path opacity="0.28" d="M293.11 268.6H200.68V271.81H293.11V268.6Z" fill="#C9C9C9"/>
<path opacity="0.28" d="M293.11 275.06H200.68V278.27H293.11V275.06Z" fill="#C9C9C9"/>
<path opacity="0.28" d="M293.11 306.83H200.68V310.04H293.11V306.83Z" fill="#C9C9C9"/>
<path opacity="0.28" d="M293.11 313.29H200.68V316.5H293.11V313.29Z" fill="#C9C9C9"/>
<path opacity="0.28" d="M293.11 345.7H200.68V348.91H293.11V345.7Z" fill="#C9C9C9"/>
<path opacity="0.28" d="M293.11 352.16H200.68V355.37H293.11V352.16Z" fill="#C9C9C9"/>
<path d="M357.45 263.06H308.94V306.83H357.45V263.06Z" fill="#FEBF39"/>
<path d="M357.45 316.82H308.94V360.59H357.45V316.82Z" fill="#1A78ED"/>
<path d="M109.04 269.08C123.422 269.08 135.08 257.421 135.08 243.04C135.08 228.659 123.422 217 109.04 217C94.6585 217 83 228.659 83 243.04C83 257.421 94.6585 269.08 109.04 269.08Z" fill="#475762"/>
<path d="M118.81 245.19C120.704 245.19 122.24 243.654 122.24 241.76C122.24 239.866 120.704 238.33 118.81 238.33C116.916 238.33 115.38 239.866 115.38 241.76C115.38 243.654 116.916 245.19 118.81 245.19Z" fill="#6EC1B1"/>
<path d="M106.45 237.73H96.26V246.7H106.45V237.73Z" fill="#6EC1B1"/>
<path d="M106.41 237.73C109.123 237.496 111.719 236.516 113.911 234.9C116.102 233.283 117.805 231.093 118.83 228.57V254.04C118.83 254.04 114.69 246.7 106.41 246.7V237.73Z" fill="white"/>
<path d="M101.35 246.7L104.22 255.37H108.94L106.44 246.7H101.35Z" fill="#6EC1B1"/>
<path d="M373.83 409.66C388.096 409.66 399.66 398.096 399.66 383.83C399.66 369.564 388.096 358 373.83 358C359.565 358 348 369.564 348 383.83C348 398.096 359.565 409.66 373.83 409.66Z" fill="#475762"/>
<path d="M387.51 373.26H359.94V393.71H387.51V373.26Z" fill="white"/>
<path d="M359.94 373.25L373.73 388.12L387.52 373.25H359.94Z" fill="#6EC1B1"/>
<g filter="url(#filter1_dd)">
<rect x="143" y="417" width="378" height="112" rx="5" fill="#FEBF39"/>
</g>
<rect x="135.5" y="425.5" width="377" height="111" rx="4.5" fill="white" stroke="#E49B00"/>
<path d="M179.74 469V450.324H189.092V453.012H182.596V457.856H184.444C186.441 457.856 188 458.351 189.12 459.34C190.296 460.367 190.884 461.739 190.884 463.456C190.884 464.352 190.679 465.211 190.268 466.032C189.876 466.835 189.307 467.488 188.56 467.992C187.552 468.664 186.189 469 184.472 469H179.74ZM182.596 460.544V466.312H184.332C186.833 466.312 188.084 465.369 188.084 463.484C188.084 462.663 187.804 461.972 187.244 461.412C186.703 460.833 185.751 460.544 184.388 460.544H182.596ZM202.234 465.024L204.53 466.312C204.008 467.245 203.345 467.964 202.542 468.468C201.628 469.065 200.47 469.364 199.07 469.364C197.428 469.364 196.102 468.86 195.094 467.852C193.937 466.695 193.358 465.192 193.358 463.344C193.358 461.403 193.984 459.788 195.234 458.5C196.298 457.436 197.614 456.904 199.182 456.904C200.713 456.904 201.973 457.417 202.962 458.444C204.064 459.583 204.614 461.244 204.614 463.428V463.764H196.158C196.233 464.753 196.569 465.547 197.166 466.144C197.67 466.648 198.37 466.9 199.266 466.9C199.994 466.9 200.62 466.704 201.142 466.312C201.572 465.976 201.936 465.547 202.234 465.024ZM196.354 461.524H201.814C201.702 460.871 201.422 460.339 200.974 459.928C200.489 459.48 199.873 459.256 199.126 459.256C198.342 459.256 197.698 459.508 197.194 460.012C196.784 460.385 196.504 460.889 196.354 461.524ZM216.61 457.744V460.824C215.621 459.853 214.51 459.368 213.278 459.368C212.233 459.368 211.365 459.713 210.674 460.404C210.002 461.076 209.666 461.981 209.666 463.12C209.666 464.296 210.021 465.239 210.73 465.948C211.402 466.583 212.233 466.9 213.222 466.9C214.585 466.9 215.714 466.396 216.61 465.388V468.44C215.621 469.056 214.426 469.364 213.026 469.364C211.141 469.364 209.647 468.785 208.546 467.628C207.426 466.471 206.866 464.996 206.866 463.204C206.866 461.356 207.463 459.835 208.658 458.64C209.815 457.483 211.393 456.904 213.39 456.904C214.529 456.904 215.602 457.184 216.61 457.744ZM219.24 457.212H229.488V469H226.744V459.732H221.984V469H219.24V457.212ZM242.654 457.212V469H239.91V459.732H236.438V464.408C236.438 465.864 236.065 466.993 235.318 467.796C234.366 468.86 233.078 469.261 231.454 469V466.48C232.257 466.667 232.901 466.489 233.386 465.948C233.666 465.612 233.806 465.099 233.806 464.408V457.212H242.654ZM254.743 458.584V457.212H257.487V469H254.743V467.768C253.828 468.832 252.652 469.364 251.215 469.364C249.479 469.364 248.088 468.748 247.043 467.516C246.016 466.284 245.503 464.809 245.503 463.092C245.503 461.225 246.053 459.732 247.155 458.612C248.275 457.473 249.637 456.904 251.243 456.904C252.717 456.904 253.884 457.464 254.743 458.584ZM251.579 459.368C250.608 459.368 249.815 459.732 249.199 460.46C248.601 461.188 248.303 462.084 248.303 463.148C248.303 464.193 248.601 465.08 249.199 465.808C249.815 466.536 250.608 466.9 251.579 466.9C252.512 466.9 253.296 466.573 253.931 465.92C254.584 465.267 254.911 464.352 254.911 463.176C254.911 461.963 254.584 461.029 253.931 460.376C253.296 459.704 252.512 459.368 251.579 459.368ZM269.086 459.732H265.642V469H262.898V459.732H259.454V457.212H269.086V459.732ZM271.056 469V457.212H273.8V461.58H278.672V457.212H281.416V469H278.672V464.1H273.8V469H271.056ZM293.516 458.584V457.212H296.26V469H293.516V467.768C292.602 468.832 291.426 469.364 289.988 469.364C288.252 469.364 286.862 468.748 285.816 467.516C284.79 466.284 284.276 464.809 284.276 463.092C284.276 461.225 284.827 459.732 285.928 458.612C287.048 457.473 288.411 456.904 290.016 456.904C291.491 456.904 292.658 457.464 293.516 458.584ZM290.352 459.368C289.382 459.368 288.588 459.732 287.972 460.46C287.375 461.188 287.076 462.084 287.076 463.148C287.076 464.193 287.375 465.08 287.972 465.808C288.588 466.536 289.382 466.9 290.352 466.9C291.286 466.9 292.07 466.573 292.704 465.92C293.358 465.267 293.684 464.352 293.684 463.176C293.684 461.963 293.358 461.029 292.704 460.376C292.07 459.704 291.286 459.368 290.352 459.368ZM298.228 469L301.924 464.324C301.196 464.212 300.571 463.913 300.048 463.428C299.395 462.793 299.068 461.981 299.068 460.992C299.068 459.872 299.432 458.967 300.16 458.276C300.907 457.567 302.045 457.212 303.576 457.212H307.972V469H305.228V464.66H304.668L301.448 469H298.228ZM305.228 462.42V459.564H303.632C302.979 459.564 302.503 459.648 302.204 459.816C301.756 460.096 301.532 460.488 301.532 460.992C301.532 461.496 301.719 461.879 302.092 462.14C302.372 462.327 302.876 462.42 303.604 462.42H305.228ZM320.722 467.628V475.412H317.978V457.212H320.722V458.5C321.618 457.436 322.785 456.904 324.222 456.904C325.828 456.904 327.181 457.473 328.282 458.612C329.402 459.732 329.962 461.207 329.962 463.036C329.962 464.921 329.384 466.452 328.226 467.628C327.069 468.785 325.744 469.364 324.25 469.364C322.85 469.364 321.674 468.785 320.722 467.628ZM323.886 459.368C322.953 459.368 322.16 459.704 321.506 460.376C320.872 461.029 320.554 461.963 320.554 463.176C320.554 464.352 320.872 465.267 321.506 465.92C322.16 466.573 322.953 466.9 323.886 466.9C324.857 466.9 325.641 466.536 326.238 465.808C326.854 465.08 327.162 464.193 327.162 463.148C327.162 462.084 326.854 461.188 326.238 460.46C325.641 459.732 324.857 459.368 323.886 459.368ZM341.086 465.024L343.382 466.312C342.859 467.245 342.197 467.964 341.394 468.468C340.479 469.065 339.322 469.364 337.922 469.364C336.279 469.364 334.954 468.86 333.946 467.852C332.789 466.695 332.21 465.192 332.21 463.344C332.21 461.403 332.835 459.788 334.086 458.5C335.15 457.436 336.466 456.904 338.034 456.904C339.565 456.904 340.825 457.417 341.814 458.444C342.915 459.583 343.466 461.244 343.466 463.428V463.764H335.01C335.085 464.753 335.421 465.547 336.018 466.144C336.522 466.648 337.222 466.9 338.118 466.9C338.846 466.9 339.471 466.704 339.994 466.312C340.423 465.976 340.787 465.547 341.086 465.024ZM335.206 461.524H340.666C340.554 460.871 340.274 460.339 339.826 459.928C339.341 459.48 338.725 459.256 337.978 459.256C337.194 459.256 336.55 459.508 336.046 460.012C335.635 460.385 335.355 460.889 335.206 461.524ZM346.334 457.212H349.078V461.412L352.998 457.212H356.638L351.486 462.364L356.918 469H353.446L349.526 464.156L349.078 464.604V469H346.334V457.212ZM368.682 457.212V469H365.938V459.732H362.466V464.408C362.466 465.864 362.092 466.993 361.346 467.796C360.394 468.86 359.106 469.261 357.482 469V466.48C358.284 466.667 358.928 466.489 359.414 465.948C359.694 465.612 359.834 465.099 359.834 464.408V457.212H368.682ZM380.77 458.584V457.212H383.514V469H380.77V467.768C379.855 468.832 378.679 469.364 377.242 469.364C375.506 469.364 374.115 468.748 373.07 467.516C372.043 466.284 371.53 464.809 371.53 463.092C371.53 461.225 372.081 459.732 373.182 458.612C374.302 457.473 375.665 456.904 377.27 456.904C378.745 456.904 379.911 457.464 380.77 458.584ZM377.606 459.368C376.635 459.368 375.842 459.732 375.226 460.46C374.629 461.188 374.33 462.084 374.33 463.148C374.33 464.193 374.629 465.08 375.226 465.808C375.842 466.536 376.635 466.9 377.606 466.9C378.539 466.9 379.323 466.573 379.958 465.92C380.611 465.267 380.938 464.352 380.938 463.176C380.938 461.963 380.611 461.029 379.958 460.376C379.323 459.704 378.539 459.368 377.606 459.368ZM385.65 469L388.506 456.148L393.378 465.136L398.25 456.148L401.106 469H398.306L397.13 463.092L393.378 469.896L389.626 463.092L388.45 469H385.65ZM411.86 458.584V457.212H414.604V469H411.86V467.768C410.945 468.832 409.769 469.364 408.332 469.364C406.596 469.364 405.205 468.748 404.16 467.516C403.133 466.284 402.62 464.809 402.62 463.092C402.62 461.225 403.171 459.732 404.272 458.612C405.392 457.473 406.755 456.904 408.36 456.904C409.835 456.904 411.001 457.464 411.86 458.584ZM408.696 459.368C407.725 459.368 406.932 459.732 406.316 460.46C405.719 461.188 405.42 462.084 405.42 463.148C405.42 464.193 405.719 465.08 406.316 465.808C406.932 466.536 407.725 466.9 408.696 466.9C409.629 466.9 410.413 466.573 411.048 465.92C411.701 465.267 412.028 464.352 412.028 463.176C412.028 461.963 411.701 461.029 411.048 460.376C410.413 459.704 409.629 459.368 408.696 459.368ZM432.739 459.732H429.295V469H426.551V459.732H423.107V457.212H432.739V459.732ZM435.584 458.668C436.797 457.492 438.3 456.904 440.092 456.904C441.884 456.904 443.377 457.492 444.572 458.668C445.785 459.825 446.392 461.309 446.392 463.12C446.392 464.912 445.785 466.405 444.572 467.6C443.377 468.776 441.884 469.364 440.092 469.364C438.3 469.364 436.797 468.776 435.584 467.6C434.389 466.405 433.792 464.912 433.792 463.12C433.792 461.309 434.389 459.825 435.584 458.668ZM437.544 465.892C438.179 466.564 439.028 466.9 440.092 466.9C441.156 466.9 442.005 466.564 442.64 465.892C443.275 465.201 443.592 464.287 443.592 463.148C443.592 461.897 443.247 460.955 442.556 460.32C441.884 459.685 441.063 459.368 440.092 459.368C439.121 459.368 438.291 459.685 437.6 460.32C436.928 460.955 436.592 461.897 436.592 463.148C436.592 464.287 436.909 465.201 437.544 465.892ZM454.884 457.212H457.628V461.58L461.184 457.212H464.488L459.924 462.588L464.936 469H461.52L457.964 464.268L457.628 464.66V469H454.884V464.66L454.548 464.268L450.992 469H447.576L452.588 462.588L448.024 457.212H451.328L454.884 461.58V457.212ZM474.988 465.024L477.284 466.312C476.762 467.245 476.099 467.964 475.296 468.468C474.382 469.065 473.224 469.364 471.824 469.364C470.182 469.364 468.856 468.86 467.848 467.852C466.691 466.695 466.112 465.192 466.112 463.344C466.112 461.403 466.738 459.788 467.988 458.5C469.052 457.436 470.368 456.904 471.936 456.904C473.467 456.904 474.727 457.417 475.716 458.444C476.818 459.583 477.368 461.244 477.368 463.428V463.764H468.912C468.987 464.753 469.323 465.547 469.92 466.144C470.424 466.648 471.124 466.9 472.02 466.9C472.748 466.9 473.374 466.704 473.896 466.312C474.326 465.976 474.69 465.547 474.988 465.024ZM469.108 461.524H474.568C474.456 460.871 474.176 460.339 473.728 459.928C473.243 459.48 472.627 459.256 471.88 459.256C471.096 459.256 470.452 459.508 469.948 460.012C469.538 460.385 469.258 460.889 469.108 461.524ZM216.683 492.212H226.931V504H224.187V494.732H219.427V504H216.683V492.212ZM233.154 502.628V510.412H230.41V492.212H233.154V493.5C234.05 492.436 235.216 491.904 236.654 491.904C238.259 491.904 239.612 492.473 240.714 493.612C241.834 494.732 242.394 496.207 242.394 498.036C242.394 499.921 241.815 501.452 240.658 502.628C239.5 503.785 238.175 504.364 236.682 504.364C235.282 504.364 234.106 503.785 233.154 502.628ZM236.318 494.368C235.384 494.368 234.591 494.704 233.938 495.376C233.303 496.029 232.986 496.963 232.986 498.176C232.986 499.352 233.303 500.267 233.938 500.92C234.591 501.573 235.384 501.9 236.318 501.9C237.288 501.9 238.072 501.536 238.67 500.808C239.286 500.08 239.594 499.193 239.594 498.148C239.594 497.084 239.286 496.188 238.67 495.46C238.072 494.732 237.288 494.368 236.318 494.368ZM245.257 492.212H248.001V498.904L256.065 491.148V504H253.321V497.14L245.257 504.896V492.212ZM259.531 492.212H264.151C265.327 492.212 266.223 492.445 266.839 492.912C267.567 493.491 267.931 494.247 267.931 495.18C267.931 496.244 267.464 497.009 266.531 497.476C267.128 497.588 267.66 497.849 268.127 498.26C268.743 498.82 269.051 499.576 269.051 500.528C269.051 501.667 268.622 502.563 267.763 503.216C267.054 503.739 266.148 504 265.047 504H259.531V492.212ZM262.275 496.804H263.675C264.16 496.804 264.524 496.72 264.767 496.552C265.122 496.328 265.299 496.011 265.299 495.6C265.299 495.208 265.14 494.9 264.823 494.676C264.599 494.527 264.198 494.452 263.619 494.452H262.275V496.804ZM262.275 501.76H264.319C264.935 501.76 265.411 501.648 265.747 501.424C266.12 501.181 266.307 500.836 266.307 500.388C266.307 499.903 266.13 499.557 265.775 499.352C265.458 499.147 265 499.044 264.403 499.044H262.275V501.76ZM273.094 493.668C274.307 492.492 275.81 491.904 277.602 491.904C279.394 491.904 280.887 492.492 282.082 493.668C283.295 494.825 283.902 496.309 283.902 498.12C283.902 499.912 283.295 501.405 282.082 502.6C280.887 503.776 279.394 504.364 277.602 504.364C275.81 504.364 274.307 503.776 273.094 502.6C271.899 501.405 271.302 499.912 271.302 498.12C271.302 496.309 271.899 494.825 273.094 493.668ZM275.054 500.892C275.688 501.564 276.538 501.9 277.602 501.9C278.666 501.9 279.515 501.564 280.15 500.892C280.784 500.201 281.102 499.287 281.102 498.148C281.102 496.897 280.756 495.955 280.066 495.32C279.394 494.685 278.572 494.368 277.602 494.368C276.631 494.368 275.8 494.685 275.11 495.32C274.438 495.955 274.102 496.897 274.102 498.148C274.102 499.287 274.419 500.201 275.054 500.892ZM287.773 492.212H296.621V501.48H298.413V507.36H295.893V504H287.661V507.36H285.141V501.48C286.093 501.424 286.812 500.911 287.297 499.94C287.615 499.249 287.773 498.213 287.773 496.832V492.212ZM293.877 501.48V494.732H290.405V497.868C290.405 499.567 289.948 500.771 289.033 501.48H293.877ZM300.382 492.212H303.126V498.904L311.19 491.148V504H308.446V497.14L300.382 504.896V492.212ZM322.776 494.732H319.332V504H316.588V494.732H313.144V492.212H322.776V494.732ZM331.281 492.212H334.025V496.412L337.945 492.212H341.585L336.433 497.364L341.865 504H338.393L334.473 499.156L334.025 499.604V504H331.281V492.212ZM353.629 492.212V504H350.885V494.732H347.413V499.408C347.413 500.864 347.04 501.993 346.293 502.796C345.341 503.86 344.053 504.261 342.429 504V501.48C343.232 501.667 343.876 501.489 344.361 500.948C344.641 500.612 344.781 500.099 344.781 499.408V492.212H353.629ZM357.093 492.212H359.837V498.904L367.901 491.148V504H365.157V497.14L357.093 504.896V492.212ZM379.627 500.024L381.923 501.312C381.4 502.245 380.738 502.964 379.935 503.468C379.02 504.065 377.863 504.364 376.463 504.364C374.82 504.364 373.495 503.86 372.487 502.852C371.33 501.695 370.751 500.192 370.751 498.344C370.751 496.403 371.376 494.788 372.627 493.5C373.691 492.436 375.007 491.904 376.575 491.904C378.106 491.904 379.366 492.417 380.355 493.444C381.456 494.583 382.007 496.244 382.007 498.428V498.764H373.551C373.626 499.753 373.962 500.547 374.559 501.144C375.063 501.648 375.763 501.9 376.659 501.9C377.387 501.9 378.012 501.704 378.535 501.312C378.964 500.976 379.328 500.547 379.627 500.024ZM373.747 496.524H379.207C379.095 495.871 378.815 495.339 378.367 494.928C377.882 494.48 377.266 494.256 376.519 494.256C375.735 494.256 375.091 494.508 374.587 495.012C374.176 495.385 373.896 495.889 373.747 496.524ZM384.875 504V492.212H387.619V496.58H392.491V492.212H395.235V504H392.491V499.1H387.619V504H384.875ZM406.831 494.732H403.387V504H400.643V494.732H397.199V492.212H406.831V494.732ZM409.676 493.668C410.889 492.492 412.392 491.904 414.184 491.904C415.976 491.904 417.469 492.492 418.664 493.668C419.877 494.825 420.484 496.309 420.484 498.12C420.484 499.912 419.877 501.405 418.664 502.6C417.469 503.776 415.976 504.364 414.184 504.364C412.392 504.364 410.889 503.776 409.676 502.6C408.481 501.405 407.884 499.912 407.884 498.12C407.884 496.309 408.481 494.825 409.676 493.668ZM411.636 500.892C412.27 501.564 413.12 501.9 414.184 501.9C415.248 501.9 416.097 501.564 416.732 500.892C417.366 500.201 417.684 499.287 417.684 498.148C417.684 496.897 417.338 495.955 416.648 495.32C415.976 494.685 415.154 494.368 414.184 494.368C413.213 494.368 412.382 494.685 411.692 495.32C411.02 495.955 410.684 496.897 410.684 498.148C410.684 499.287 411.001 500.201 411.636 500.892ZM423.347 492.212H427.967C429.143 492.212 430.039 492.445 430.655 492.912C431.383 493.491 431.747 494.247 431.747 495.18C431.747 496.244 431.281 497.009 430.347 497.476C430.945 497.588 431.477 497.849 431.943 498.26C432.559 498.82 432.867 499.576 432.867 500.528C432.867 501.667 432.438 502.563 431.579 503.216C430.87 503.739 429.965 504 428.863 504H423.347V492.212ZM426.091 496.804H427.491C427.977 496.804 428.341 496.72 428.583 496.552C428.938 496.328 429.115 496.011 429.115 495.6C429.115 495.208 428.957 494.9 428.639 494.676C428.415 494.527 428.014 494.452 427.435 494.452H426.091V496.804ZM426.091 501.76H428.135C428.751 501.76 429.227 501.648 429.563 501.424C429.937 501.181 430.123 500.836 430.123 500.388C430.123 499.903 429.946 499.557 429.591 499.352C429.274 499.147 428.817 499.044 428.219 499.044H426.091V501.76ZM438.898 499.38H436.154V485.324H438.898V499.38ZM436.322 503.86C436.005 503.524 435.846 503.123 435.846 502.656C435.846 502.189 436.005 501.797 436.322 501.48C436.658 501.144 437.059 500.976 437.526 500.976C437.993 500.976 438.385 501.144 438.702 501.48C439.038 501.797 439.206 502.189 439.206 502.656C439.206 503.123 439.038 503.524 438.702 503.86C438.385 504.177 437.993 504.336 437.526 504.336C437.059 504.336 436.658 504.177 436.322 503.86Z" fill="#475762"/>
<path d="M69 1H1V308H69" stroke="#475762" stroke-dasharray="2 3"/>
<defs>
<filter id="filter0_dd" x="29" y="137" width="431" height="341" filterUnits="userSpaceOnUse" color-interpolation-filters="sRGB">
<feFlood flood-opacity="0" result="BackgroundImageFix"/>
<feColorMatrix in="SourceAlpha" type="matrix" values="0 0 0 0 0 0 0 0 0 0 0 0 0 0 0 0 0 0 127 0"/>
<feMorphology radius="6" operator="dilate" in="SourceAlpha" result="effect1_dropShadow"/>
<feOffset dx="-1" dy="5"/>
<feGaussianBlur stdDeviation="17"/>
<feColorMatrix type="matrix" values="0 0 0 0 0 0 0 0 0 0 0 0 0 0 0 0 0 0 0.06 0"/>
<feBlend mode="normal" in2="BackgroundImageFix" result="effect1_dropShadow"/>
<feColorMatrix in="SourceAlpha" type="matrix" values="0 0 0 0 0 0 0 0 0 0 0 0 0 0 0 0 0 0 127 0"/>
<feOffset dy="4"/>
<feGaussianBlur stdDeviation="2"/>
<feColorMatrix type="matrix" values="0 0 0 0 0 0 0 0 0 0 0 0 0 0 0 0 0 0 0.04 0"/>
<feBlend mode="normal" in2="effect1_dropShadow" result="effect2_dropShadow"/>
<feBlend mode="normal" in="SourceGraphic" in2="effect2_dropShadow" result="shape"/>
</filter>
<filter id="filter1_dd" x="128" y="405" width="426" height="160" filterUnits="userSpaceOnUse" color-interpolation-filters="sRGB">
<feFlood flood-opacity="0" result="BackgroundImageFix"/>
<feColorMatrix in="SourceAlpha" type="matrix" values="0 0 0 0 0 0 0 0 0 0 0 0 0 0 0 0 0 0 127 0"/>
<feOffset dx="9" dy="12"/>
<feGaussianBlur stdDeviation="12"/>
<feColorMatrix type="matrix" values="0 0 0 0 0 0 0 0 0 0 0 0 0 0 0 0 0 0 0.07 0"/>
<feBlend mode="normal" in2="BackgroundImageFix" result="effect1_dropShadow"/>
<feColorMatrix in="SourceAlpha" type="matrix" values="0 0 0 0 0 0 0 0 0 0 0 0 0 0 0 0 0 0 127 0"/>
<feOffset dy="3"/>
<feGaussianBlur stdDeviation="1.5"/>
<feColorMatrix type="matrix" values="0 0 0 0 0 0 0 0 0 0 0 0 0 0 0 0 0 0 0.03 0"/>
<feBlend mode="normal" in2="effect1_dropShadow" result="effect2_dropShadow"/>
<feBlend mode="normal" in="SourceGraphic" in2="effect2_dropShadow" result="shape"/>
</filter>
</defs>
</svg>
