<svg width="515" height="557" viewBox="0 0 515 557" fill="none" xmlns="http://www.w3.org/2000/svg">
<g filter="url(#filter0_dd)">
<rect x="41" y="175" width="337" height="271" rx="5" fill="#FFBBAF"/>
</g>
<path d="M244.67 233.229H247.005V235.568H244.67V233.229Z" fill="#B0B0B0"/>
<path d="M244.67 147.458H247.005V149.797H244.67V147.458Z" fill="#B0B0B0"/>
<path d="M253.231 233.229H255.566V235.568H253.231V233.229Z" fill="#B0B0B0"/>
<path d="M253.231 147.458H255.566V149.797H253.231V147.458Z" fill="#B0B0B0"/>
<path d="M261.792 233.229H264.127V235.568H261.792V233.229Z" fill="#B0B0B0"/>
<path d="M261.792 147.458H264.127V149.797H261.792V147.458Z" fill="#B0B0B0"/>
<path d="M270.353 233.229H272.688V235.568H270.353V233.229Z" fill="#B0B0B0"/>
<path d="M270.353 147.458H272.688V149.797H270.353V147.458Z" fill="#B0B0B0"/>
<path d="M278.914 233.229H281.249V235.568H278.914V233.229Z" fill="#B0B0B0"/>
<path d="M278.914 147.458H281.249V149.797H278.914V147.458Z" fill="#B0B0B0"/>
<path d="M287.475 233.229H289.81V235.568H287.475V233.229Z" fill="#B0B0B0"/>
<path d="M287.475 147.458H289.81V149.797H287.475V147.458Z" fill="#B0B0B0"/>
<path d="M296.036 233.229H298.371V235.568H296.036V233.229Z" fill="#B0B0B0"/>
<path d="M296.036 147.458H298.371V149.797H296.036V147.458Z" fill="#B0B0B0"/>
<path d="M304.597 233.229H306.932V235.568H304.597V233.229Z" fill="#B0B0B0"/>
<path d="M304.597 147.458H306.932V149.797H304.597V147.458Z" fill="#B0B0B0"/>
<path d="M313.158 233.229H315.493V235.568H313.158V233.229Z" fill="#B0B0B0"/>
<path d="M313.158 147.458H315.493V149.797H313.158V147.458Z" fill="#B0B0B0"/>
<path d="M321.719 233.229H324.054V235.568H321.719V233.229Z" fill="#B0B0B0"/>
<path d="M321.719 147.458H324.054V149.797H321.719V147.458Z" fill="#B0B0B0"/>
<path d="M330.281 233.229H332.615V235.568H330.281V233.229Z" fill="#B0B0B0"/>
<path d="M330.281 147.458H332.615V149.797H330.281V147.458Z" fill="#B0B0B0"/>
<path d="M338.842 233.229H341.176V235.568H338.842V233.229Z" fill="#B0B0B0"/>
<path d="M338.842 147.458H341.176V149.797H338.842V147.458Z" fill="#B0B0B0"/>
<path d="M347.403 233.229H349.738V235.568H347.403V233.229Z" fill="#B0B0B0"/>
<path d="M347.403 147.458H349.738V149.797H347.403V147.458Z" fill="#B0B0B0"/>
<path d="M355.964 233.229H358.299V235.568H355.964V233.229Z" fill="#B0B0B0"/>
<path d="M355.964 147.458H358.299V149.797H355.964V147.458Z" fill="#B0B0B0"/>
<path d="M364.525 233.229H366.86V235.568H364.525V233.229Z" fill="#B0B0B0"/>
<path d="M364.525 147.458H366.86V149.797H364.525V147.458Z" fill="#B0B0B0"/>
<path d="M373.086 233.229H375.421V235.568H373.086V233.229Z" fill="#B0B0B0"/>
<path d="M373.086 147.458H375.421V149.797H373.086V147.458Z" fill="#B0B0B0"/>
<path d="M381.647 233.229H383.982V235.568H381.647V233.229Z" fill="#B0B0B0"/>
<path d="M381.647 147.458H383.982V149.797H381.647V147.458Z" fill="#B0B0B0"/>
<path d="M390.208 233.229H392.543V235.568H390.208V233.229Z" fill="#B0B0B0"/>
<path d="M390.208 147.458H392.543V149.797H390.208V147.458Z" fill="#B0B0B0"/>
<path d="M398.769 233.229H401.104V235.568H398.769V233.229Z" fill="#B0B0B0"/>
<path d="M398.769 147.458H401.104V149.797H398.769V147.458Z" fill="#B0B0B0"/>
<path d="M407.33 233.229H409.665V235.568H407.33V233.229Z" fill="#B0B0B0"/>
<path d="M407.33 147.458H409.665V149.797H407.33V147.458Z" fill="#B0B0B0"/>
<path d="M244.67 241.026H247.005V243.366H244.67V241.026Z" fill="#B0B0B0"/>
<path d="M244.67 155.255H247.005V157.595H244.67V155.255Z" fill="#B0B0B0"/>
<path d="M253.231 241.026H255.566V243.366H253.231V241.026Z" fill="#B0B0B0"/>
<path d="M253.231 155.255H255.566V157.595H253.231V155.255Z" fill="#B0B0B0"/>
<path d="M261.792 241.026H264.127V243.366H261.792V241.026Z" fill="#B0B0B0"/>
<path d="M261.792 155.255H264.127V157.595H261.792V155.255Z" fill="#B0B0B0"/>
<path d="M270.353 241.026H272.688V243.366H270.353V241.026Z" fill="#B0B0B0"/>
<path d="M270.353 155.255H272.688V157.595H270.353V155.255Z" fill="#B0B0B0"/>
<path d="M278.914 241.026H281.249V243.366H278.914V241.026Z" fill="#B0B0B0"/>
<path d="M278.914 155.255H281.249V157.595H278.914V155.255Z" fill="#B0B0B0"/>
<path d="M287.475 241.026H289.81V243.366H287.475V241.026Z" fill="#B0B0B0"/>
<path d="M287.475 155.255H289.81V157.595H287.475V155.255Z" fill="#B0B0B0"/>
<path d="M296.036 241.026H298.371V243.366H296.036V241.026Z" fill="#B0B0B0"/>
<path d="M296.036 155.255H298.371V157.595H296.036V155.255Z" fill="#B0B0B0"/>
<path d="M304.597 241.026H306.932V243.366H304.597V241.026Z" fill="#B0B0B0"/>
<path d="M304.597 155.255H306.932V157.595H304.597V155.255Z" fill="#B0B0B0"/>
<path d="M313.158 241.026H315.493V243.366H313.158V241.026Z" fill="#B0B0B0"/>
<path d="M313.158 155.255H315.493V157.595H313.158V155.255Z" fill="#B0B0B0"/>
<path d="M321.719 241.026H324.054V243.366H321.719V241.026Z" fill="#B0B0B0"/>
<path d="M321.719 155.255H324.054V157.595H321.719V155.255Z" fill="#B0B0B0"/>
<path d="M330.281 241.026H332.615V243.366H330.281V241.026Z" fill="#B0B0B0"/>
<path d="M330.281 155.255H332.615V157.595H330.281V155.255Z" fill="#B0B0B0"/>
<path d="M338.842 241.026H341.176V243.366H338.842V241.026Z" fill="#B0B0B0"/>
<path d="M338.842 155.255H341.176V157.595H338.842V155.255Z" fill="#B0B0B0"/>
<path d="M347.403 241.026H349.738V243.366H347.403V241.026Z" fill="#B0B0B0"/>
<path d="M347.403 155.255H349.738V157.595H347.403V155.255Z" fill="#B0B0B0"/>
<path d="M355.964 241.026H358.299V243.366H355.964V241.026Z" fill="#B0B0B0"/>
<path d="M355.964 155.255H358.299V157.595H355.964V155.255Z" fill="#B0B0B0"/>
<path d="M364.525 241.026H366.86V243.366H364.525V241.026Z" fill="#B0B0B0"/>
<path d="M364.525 155.255H366.86V157.595H364.525V155.255Z" fill="#B0B0B0"/>
<path d="M373.086 241.026H375.421V243.366H373.086V241.026Z" fill="#B0B0B0"/>
<path d="M373.086 155.255H375.421V157.595H373.086V155.255Z" fill="#B0B0B0"/>
<path d="M381.647 241.026H383.982V243.366H381.647V241.026Z" fill="#B0B0B0"/>
<path d="M381.647 155.255H383.982V157.595H381.647V155.255Z" fill="#B0B0B0"/>
<path d="M390.208 241.026H392.543V243.366H390.208V241.026Z" fill="#B0B0B0"/>
<path d="M390.208 155.255H392.543V157.595H390.208V155.255Z" fill="#B0B0B0"/>
<path d="M398.769 241.026H401.104V243.366H398.769V241.026Z" fill="#B0B0B0"/>
<path d="M398.769 155.255H401.104V157.595H398.769V155.255Z" fill="#B0B0B0"/>
<path d="M407.33 241.026H409.665V243.366H407.33V241.026Z" fill="#B0B0B0"/>
<path d="M407.33 155.255H409.665V157.595H407.33V155.255Z" fill="#B0B0B0"/>
<path d="M244.67 248.824H247.005V251.163H244.67V248.824Z" fill="#B0B0B0"/>
<path d="M244.67 163.053H247.005V165.392H244.67V163.053Z" fill="#B0B0B0"/>
<path d="M253.231 248.824H255.566V251.163H253.231V248.824Z" fill="#B0B0B0"/>
<path d="M253.231 163.053H255.566V165.392H253.231V163.053Z" fill="#B0B0B0"/>
<path d="M261.792 248.824H264.127V251.163H261.792V248.824Z" fill="#B0B0B0"/>
<path d="M261.792 163.053H264.127V165.392H261.792V163.053Z" fill="#B0B0B0"/>
<path d="M270.353 248.824H272.688V251.163H270.353V248.824Z" fill="#B0B0B0"/>
<path d="M270.353 163.053H272.688V165.392H270.353V163.053Z" fill="#B0B0B0"/>
<path d="M278.914 248.824H281.249V251.163H278.914V248.824Z" fill="#B0B0B0"/>
<path d="M278.914 163.053H281.249V165.392H278.914V163.053Z" fill="#B0B0B0"/>
<path d="M287.475 248.824H289.81V251.163H287.475V248.824Z" fill="#B0B0B0"/>
<path d="M287.475 163.053H289.81V165.392H287.475V163.053Z" fill="#B0B0B0"/>
<path d="M296.036 248.824H298.371V251.163H296.036V248.824Z" fill="#B0B0B0"/>
<path d="M296.036 163.053H298.371V165.392H296.036V163.053Z" fill="#B0B0B0"/>
<path d="M304.597 248.824H306.932V251.163H304.597V248.824Z" fill="#B0B0B0"/>
<path d="M304.597 163.053H306.932V165.392H304.597V163.053Z" fill="#B0B0B0"/>
<path d="M313.158 248.824H315.493V251.163H313.158V248.824Z" fill="#B0B0B0"/>
<path d="M313.158 163.053H315.493V165.392H313.158V163.053Z" fill="#B0B0B0"/>
<path d="M321.719 248.824H324.054V251.163H321.719V248.824Z" fill="#B0B0B0"/>
<path d="M321.719 163.053H324.054V165.392H321.719V163.053Z" fill="#B0B0B0"/>
<path d="M330.281 248.824H332.615V251.163H330.281V248.824Z" fill="#B0B0B0"/>
<path d="M330.281 163.053H332.615V165.392H330.281V163.053Z" fill="#B0B0B0"/>
<path d="M338.842 248.824H341.176V251.163H338.842V248.824Z" fill="#B0B0B0"/>
<path d="M338.842 163.053H341.176V165.392H338.842V163.053Z" fill="#B0B0B0"/>
<path d="M347.403 248.824H349.738V251.163H347.403V248.824Z" fill="#B0B0B0"/>
<path d="M347.403 163.053H349.738V165.392H347.403V163.053Z" fill="#B0B0B0"/>
<path d="M355.964 248.824H358.299V251.163H355.964V248.824Z" fill="#B0B0B0"/>
<path d="M355.964 163.053H358.299V165.392H355.964V163.053Z" fill="#B0B0B0"/>
<path d="M364.525 248.824H366.86V251.163H364.525V248.824Z" fill="#B0B0B0"/>
<path d="M364.525 163.053H366.86V165.392H364.525V163.053Z" fill="#B0B0B0"/>
<path d="M373.086 248.824H375.421V251.163H373.086V248.824Z" fill="#B0B0B0"/>
<path d="M373.086 163.053H375.421V165.392H373.086V163.053Z" fill="#B0B0B0"/>
<path d="M381.647 248.824H383.982V251.163H381.647V248.824Z" fill="#B0B0B0"/>
<path d="M381.647 163.053H383.982V165.392H381.647V163.053Z" fill="#B0B0B0"/>
<path d="M390.208 248.824H392.543V251.163H390.208V248.824Z" fill="#B0B0B0"/>
<path d="M390.208 163.053H392.543V165.392H390.208V163.053Z" fill="#B0B0B0"/>
<path d="M398.769 248.824H401.104V251.163H398.769V248.824Z" fill="#B0B0B0"/>
<path d="M398.769 163.053H401.104V165.392H398.769V163.053Z" fill="#B0B0B0"/>
<path d="M407.33 248.824H409.665V251.163H407.33V248.824Z" fill="#B0B0B0"/>
<path d="M407.33 163.053H409.665V165.392H407.33V163.053Z" fill="#B0B0B0"/>
<path d="M244.67 256.621H247.005V258.96H244.67V256.621Z" fill="#B0B0B0"/>
<path d="M244.67 170.85H247.005V173.189H244.67V170.85Z" fill="#B0B0B0"/>
<path d="M253.231 256.621H255.566V258.96H253.231V256.621Z" fill="#B0B0B0"/>
<path d="M253.231 170.85H255.566V173.189H253.231V170.85Z" fill="#B0B0B0"/>
<path d="M261.792 256.621H264.127V258.96H261.792V256.621Z" fill="#B0B0B0"/>
<path d="M261.792 170.85H264.127V173.189H261.792V170.85Z" fill="#B0B0B0"/>
<path d="M270.353 256.621H272.688V258.96H270.353V256.621Z" fill="#B0B0B0"/>
<path d="M270.353 170.85H272.688V173.189H270.353V170.85Z" fill="#B0B0B0"/>
<path d="M278.914 256.621H281.249V258.96H278.914V256.621Z" fill="#B0B0B0"/>
<path d="M278.914 170.85H281.249V173.189H278.914V170.85Z" fill="#B0B0B0"/>
<path d="M287.475 256.621H289.81V258.96H287.475V256.621Z" fill="#B0B0B0"/>
<path d="M287.475 170.85H289.81V173.189H287.475V170.85Z" fill="#B0B0B0"/>
<path d="M296.036 256.621H298.371V258.96H296.036V256.621Z" fill="#B0B0B0"/>
<path d="M296.036 170.85H298.371V173.189H296.036V170.85Z" fill="#B0B0B0"/>
<path d="M304.597 256.621H306.932V258.96H304.597V256.621Z" fill="#B0B0B0"/>
<path d="M304.597 170.85H306.932V173.189H304.597V170.85Z" fill="#B0B0B0"/>
<path d="M313.158 256.621H315.493V258.96H313.158V256.621Z" fill="#B0B0B0"/>
<path d="M313.158 170.85H315.493V173.189H313.158V170.85Z" fill="#B0B0B0"/>
<path d="M321.719 256.621H324.054V258.96H321.719V256.621Z" fill="#B0B0B0"/>
<path d="M321.719 170.85H324.054V173.189H321.719V170.85Z" fill="#B0B0B0"/>
<path d="M330.281 256.621H332.615V258.96H330.281V256.621Z" fill="#B0B0B0"/>
<path d="M330.281 170.85H332.615V173.189H330.281V170.85Z" fill="#B0B0B0"/>
<path d="M338.842 256.621H341.176V258.96H338.842V256.621Z" fill="#B0B0B0"/>
<path d="M338.842 170.85H341.176V173.189H338.842V170.85Z" fill="#B0B0B0"/>
<path d="M347.403 256.621H349.738V258.96H347.403V256.621Z" fill="#B0B0B0"/>
<path d="M347.403 170.85H349.738V173.189H347.403V170.85Z" fill="#B0B0B0"/>
<path d="M355.964 256.621H358.299V258.96H355.964V256.621Z" fill="#B0B0B0"/>
<path d="M355.964 170.85H358.299V173.189H355.964V170.85Z" fill="#B0B0B0"/>
<path d="M364.525 256.621H366.86V258.96H364.525V256.621Z" fill="#B0B0B0"/>
<path d="M364.525 170.85H366.86V173.189H364.525V170.85Z" fill="#B0B0B0"/>
<path d="M373.086 256.621H375.421V258.96H373.086V256.621Z" fill="#B0B0B0"/>
<path d="M373.086 170.85H375.421V173.189H373.086V170.85Z" fill="#B0B0B0"/>
<path d="M381.647 256.621H383.982V258.96H381.647V256.621Z" fill="#B0B0B0"/>
<path d="M381.647 170.85H383.982V173.189H381.647V170.85Z" fill="#B0B0B0"/>
<path d="M390.208 256.621H392.543V258.96H390.208V256.621Z" fill="#B0B0B0"/>
<path d="M390.208 170.85H392.543V173.189H390.208V170.85Z" fill="#B0B0B0"/>
<path d="M398.769 256.621H401.104V258.96H398.769V256.621Z" fill="#B0B0B0"/>
<path d="M398.769 170.85H401.104V173.189H398.769V170.85Z" fill="#B0B0B0"/>
<path d="M407.33 256.621H409.665V258.96H407.33V256.621Z" fill="#B0B0B0"/>
<path d="M407.33 170.85H409.665V173.189H407.33V170.85Z" fill="#B0B0B0"/>
<path d="M244.67 264.418H247.005V266.758H244.67V264.418Z" fill="#B0B0B0"/>
<path d="M244.67 178.648H247.005V180.987H244.67V178.648Z" fill="#B0B0B0"/>
<path d="M253.231 264.418H255.566V266.758H253.231V264.418Z" fill="#B0B0B0"/>
<path d="M253.231 178.648H255.566V180.987H253.231V178.648Z" fill="#B0B0B0"/>
<path d="M261.792 264.418H264.127V266.758H261.792V264.418Z" fill="#B0B0B0"/>
<path d="M261.792 178.648H264.127V180.987H261.792V178.648Z" fill="#B0B0B0"/>
<path d="M270.353 264.418H272.688V266.758H270.353V264.418Z" fill="#B0B0B0"/>
<path d="M270.353 178.648H272.688V180.987H270.353V178.648Z" fill="#B0B0B0"/>
<path d="M278.914 264.418H281.249V266.758H278.914V264.418Z" fill="#B0B0B0"/>
<path d="M278.914 178.648H281.249V180.987H278.914V178.648Z" fill="#B0B0B0"/>
<path d="M287.475 264.418H289.81V266.758H287.475V264.418Z" fill="#B0B0B0"/>
<path d="M287.475 178.648H289.81V180.987H287.475V178.648Z" fill="#B0B0B0"/>
<path d="M296.036 264.418H298.371V266.758H296.036V264.418Z" fill="#B0B0B0"/>
<path d="M296.036 178.648H298.371V180.987H296.036V178.648Z" fill="#B0B0B0"/>
<path d="M304.597 264.418H306.932V266.758H304.597V264.418Z" fill="#B0B0B0"/>
<path d="M304.597 178.648H306.932V180.987H304.597V178.648Z" fill="#B0B0B0"/>
<path d="M313.158 264.418H315.493V266.758H313.158V264.418Z" fill="#B0B0B0"/>
<path d="M313.158 178.648H315.493V180.987H313.158V178.648Z" fill="#B0B0B0"/>
<path d="M321.719 264.418H324.054V266.758H321.719V264.418Z" fill="#B0B0B0"/>
<path d="M321.719 178.648H324.054V180.987H321.719V178.648Z" fill="#B0B0B0"/>
<path d="M330.281 264.418H332.615V266.758H330.281V264.418Z" fill="#B0B0B0"/>
<path d="M330.281 178.648H332.615V180.987H330.281V178.648Z" fill="#B0B0B0"/>
<path d="M338.842 264.418H341.176V266.758H338.842V264.418Z" fill="#B0B0B0"/>
<path d="M338.842 178.648H341.176V180.987H338.842V178.648Z" fill="#B0B0B0"/>
<path d="M347.403 264.418H349.738V266.758H347.403V264.418Z" fill="#B0B0B0"/>
<path d="M347.403 178.648H349.738V180.987H347.403V178.648Z" fill="#B0B0B0"/>
<path d="M355.964 264.418H358.299V266.758H355.964V264.418Z" fill="#B0B0B0"/>
<path d="M355.964 178.648H358.299V180.987H355.964V178.648Z" fill="#B0B0B0"/>
<path d="M364.525 264.418H366.86V266.758H364.525V264.418Z" fill="#B0B0B0"/>
<path d="M364.525 178.648H366.86V180.987H364.525V178.648Z" fill="#B0B0B0"/>
<path d="M373.086 264.418H375.421V266.758H373.086V264.418Z" fill="#B0B0B0"/>
<path d="M373.086 178.648H375.421V180.987H373.086V178.648Z" fill="#B0B0B0"/>
<path d="M381.647 264.418H383.982V266.758H381.647V264.418Z" fill="#B0B0B0"/>
<path d="M381.647 178.648H383.982V180.987H381.647V178.648Z" fill="#B0B0B0"/>
<path d="M390.208 264.418H392.543V266.758H390.208V264.418Z" fill="#B0B0B0"/>
<path d="M390.208 178.648H392.543V180.987H390.208V178.648Z" fill="#B0B0B0"/>
<path d="M398.769 264.418H401.104V266.758H398.769V264.418Z" fill="#B0B0B0"/>
<path d="M398.769 178.648H401.104V180.987H398.769V178.648Z" fill="#B0B0B0"/>
<path d="M407.33 264.418H409.665V266.758H407.33V264.418Z" fill="#B0B0B0"/>
<path d="M407.33 178.648H409.665V180.987H407.33V178.648Z" fill="#B0B0B0"/>
<path d="M244.67 272.216H247.005V274.555H244.67V272.216Z" fill="#B0B0B0"/>
<path d="M244.67 186.445H247.005V188.784H244.67V186.445Z" fill="#B0B0B0"/>
<path d="M253.231 272.216H255.566V274.555H253.231V272.216Z" fill="#B0B0B0"/>
<path d="M253.231 186.445H255.566V188.784H253.231V186.445Z" fill="#B0B0B0"/>
<path d="M261.792 272.216H264.127V274.555H261.792V272.216Z" fill="#B0B0B0"/>
<path d="M261.792 186.445H264.127V188.784H261.792V186.445Z" fill="#B0B0B0"/>
<path d="M270.353 272.216H272.688V274.555H270.353V272.216Z" fill="#B0B0B0"/>
<path d="M270.353 186.445H272.688V188.784H270.353V186.445Z" fill="#B0B0B0"/>
<path d="M278.914 272.216H281.249V274.555H278.914V272.216Z" fill="#B0B0B0"/>
<path d="M278.914 186.445H281.249V188.784H278.914V186.445Z" fill="#B0B0B0"/>
<path d="M287.475 272.216H289.81V274.555H287.475V272.216Z" fill="#B0B0B0"/>
<path d="M287.475 186.445H289.81V188.784H287.475V186.445Z" fill="#B0B0B0"/>
<path d="M296.036 272.216H298.371V274.555H296.036V272.216Z" fill="#B0B0B0"/>
<path d="M296.036 186.445H298.371V188.784H296.036V186.445Z" fill="#B0B0B0"/>
<path d="M304.597 272.216H306.932V274.555H304.597V272.216Z" fill="#B0B0B0"/>
<path d="M304.597 186.445H306.932V188.784H304.597V186.445Z" fill="#B0B0B0"/>
<path d="M313.158 272.216H315.493V274.555H313.158V272.216Z" fill="#B0B0B0"/>
<path d="M313.158 186.445H315.493V188.784H313.158V186.445Z" fill="#B0B0B0"/>
<path d="M321.719 272.216H324.054V274.555H321.719V272.216Z" fill="#B0B0B0"/>
<path d="M321.719 186.445H324.054V188.784H321.719V186.445Z" fill="#B0B0B0"/>
<path d="M330.281 272.216H332.615V274.555H330.281V272.216Z" fill="#B0B0B0"/>
<path d="M330.281 186.445H332.615V188.784H330.281V186.445Z" fill="#B0B0B0"/>
<path d="M338.842 272.216H341.176V274.555H338.842V272.216Z" fill="#B0B0B0"/>
<path d="M338.842 186.445H341.176V188.784H338.842V186.445Z" fill="#B0B0B0"/>
<path d="M347.403 272.216H349.738V274.555H347.403V272.216Z" fill="#B0B0B0"/>
<path d="M347.403 186.445H349.738V188.784H347.403V186.445Z" fill="#B0B0B0"/>
<path d="M355.964 272.216H358.299V274.555H355.964V272.216Z" fill="#B0B0B0"/>
<path d="M355.964 186.445H358.299V188.784H355.964V186.445Z" fill="#B0B0B0"/>
<path d="M364.525 272.216H366.86V274.555H364.525V272.216Z" fill="#B0B0B0"/>
<path d="M364.525 186.445H366.86V188.784H364.525V186.445Z" fill="#B0B0B0"/>
<path d="M373.086 272.216H375.421V274.555H373.086V272.216Z" fill="#B0B0B0"/>
<path d="M373.086 186.445H375.421V188.784H373.086V186.445Z" fill="#B0B0B0"/>
<path d="M381.647 272.216H383.982V274.555H381.647V272.216Z" fill="#B0B0B0"/>
<path d="M381.647 186.445H383.982V188.784H381.647V186.445Z" fill="#B0B0B0"/>
<path d="M390.208 272.216H392.543V274.555H390.208V272.216Z" fill="#B0B0B0"/>
<path d="M390.208 186.445H392.543V188.784H390.208V186.445Z" fill="#B0B0B0"/>
<path d="M398.769 272.216H401.104V274.555H398.769V272.216Z" fill="#B0B0B0"/>
<path d="M398.769 186.445H401.104V188.784H398.769V186.445Z" fill="#B0B0B0"/>
<path d="M407.33 272.216H409.665V274.555H407.33V272.216Z" fill="#B0B0B0"/>
<path d="M407.33 186.445H409.665V188.784H407.33V186.445Z" fill="#B0B0B0"/>
<path d="M244.67 280.013H247.005V282.352H244.67V280.013Z" fill="#B0B0B0"/>
<path d="M244.67 194.242H247.005V196.581H244.67V194.242Z" fill="#B0B0B0"/>
<path d="M253.231 280.013H255.566V282.352H253.231V280.013Z" fill="#B0B0B0"/>
<path d="M253.231 194.242H255.566V196.581H253.231V194.242Z" fill="#B0B0B0"/>
<path d="M261.792 280.013H264.127V282.352H261.792V280.013Z" fill="#B0B0B0"/>
<path d="M261.792 194.242H264.127V196.581H261.792V194.242Z" fill="#B0B0B0"/>
<path d="M270.353 280.013H272.688V282.352H270.353V280.013Z" fill="#B0B0B0"/>
<path d="M270.353 194.242H272.688V196.581H270.353V194.242Z" fill="#B0B0B0"/>
<path d="M278.914 280.013H281.249V282.352H278.914V280.013Z" fill="#B0B0B0"/>
<path d="M278.914 194.242H281.249V196.581H278.914V194.242Z" fill="#B0B0B0"/>
<path d="M287.475 280.013H289.81V282.352H287.475V280.013Z" fill="#B0B0B0"/>
<path d="M287.475 194.242H289.81V196.581H287.475V194.242Z" fill="#B0B0B0"/>
<path d="M296.036 280.013H298.371V282.352H296.036V280.013Z" fill="#B0B0B0"/>
<path d="M296.036 194.242H298.371V196.581H296.036V194.242Z" fill="#B0B0B0"/>
<path d="M304.597 280.013H306.932V282.352H304.597V280.013Z" fill="#B0B0B0"/>
<path d="M304.597 194.242H306.932V196.581H304.597V194.242Z" fill="#B0B0B0"/>
<path d="M313.158 280.013H315.493V282.352H313.158V280.013Z" fill="#B0B0B0"/>
<path d="M313.158 194.242H315.493V196.581H313.158V194.242Z" fill="#B0B0B0"/>
<path d="M321.719 280.013H324.054V282.352H321.719V280.013Z" fill="#B0B0B0"/>
<path d="M321.719 194.242H324.054V196.581H321.719V194.242Z" fill="#B0B0B0"/>
<path d="M330.281 280.013H332.615V282.352H330.281V280.013Z" fill="#B0B0B0"/>
<path d="M330.281 194.242H332.615V196.581H330.281V194.242Z" fill="#B0B0B0"/>
<path d="M338.842 280.013H341.176V282.352H338.842V280.013Z" fill="#B0B0B0"/>
<path d="M338.842 194.242H341.176V196.581H338.842V194.242Z" fill="#B0B0B0"/>
<path d="M347.403 280.013H349.738V282.352H347.403V280.013Z" fill="#B0B0B0"/>
<path d="M347.403 194.242H349.738V196.581H347.403V194.242Z" fill="#B0B0B0"/>
<path d="M355.964 280.013H358.299V282.352H355.964V280.013Z" fill="#B0B0B0"/>
<path d="M355.964 194.242H358.299V196.581H355.964V194.242Z" fill="#B0B0B0"/>
<path d="M364.525 280.013H366.86V282.352H364.525V280.013Z" fill="#B0B0B0"/>
<path d="M364.525 194.242H366.86V196.581H364.525V194.242Z" fill="#B0B0B0"/>
<path d="M373.086 280.013H375.421V282.352H373.086V280.013Z" fill="#B0B0B0"/>
<path d="M373.086 194.242H375.421V196.581H373.086V194.242Z" fill="#B0B0B0"/>
<path d="M381.647 280.013H383.982V282.352H381.647V280.013Z" fill="#B0B0B0"/>
<path d="M381.647 194.242H383.982V196.581H381.647V194.242Z" fill="#B0B0B0"/>
<path d="M390.208 280.013H392.543V282.352H390.208V280.013Z" fill="#B0B0B0"/>
<path d="M390.208 194.242H392.543V196.581H390.208V194.242Z" fill="#B0B0B0"/>
<path d="M398.769 280.013H401.104V282.352H398.769V280.013Z" fill="#B0B0B0"/>
<path d="M398.769 194.242H401.104V196.581H398.769V194.242Z" fill="#B0B0B0"/>
<path d="M407.33 280.013H409.665V282.352H407.33V280.013Z" fill="#B0B0B0"/>
<path d="M407.33 194.242H409.665V196.581H407.33V194.242Z" fill="#B0B0B0"/>
<path d="M244.67 287.811H247.005V290.15H244.67V287.811Z" fill="#B0B0B0"/>
<path d="M244.67 202.04H247.005V204.379H244.67V202.04Z" fill="#B0B0B0"/>
<path d="M253.231 287.811H255.566V290.15H253.231V287.811Z" fill="#B0B0B0"/>
<path d="M253.231 202.04H255.566V204.379H253.231V202.04Z" fill="#B0B0B0"/>
<path d="M261.792 287.811H264.127V290.15H261.792V287.811Z" fill="#B0B0B0"/>
<path d="M261.792 202.04H264.127V204.379H261.792V202.04Z" fill="#B0B0B0"/>
<path d="M270.353 287.811H272.688V290.15H270.353V287.811Z" fill="#B0B0B0"/>
<path d="M270.353 202.04H272.688V204.379H270.353V202.04Z" fill="#B0B0B0"/>
<path d="M278.914 287.811H281.249V290.15H278.914V287.811Z" fill="#B0B0B0"/>
<path d="M278.914 202.04H281.249V204.379H278.914V202.04Z" fill="#B0B0B0"/>
<path d="M287.475 287.811H289.81V290.15H287.475V287.811Z" fill="#B0B0B0"/>
<path d="M287.475 202.04H289.81V204.379H287.475V202.04Z" fill="#B0B0B0"/>
<path d="M296.036 287.811H298.371V290.15H296.036V287.811Z" fill="#B0B0B0"/>
<path d="M296.036 202.04H298.371V204.379H296.036V202.04Z" fill="#B0B0B0"/>
<path d="M304.597 287.811H306.932V290.15H304.597V287.811Z" fill="#B0B0B0"/>
<path d="M304.597 202.04H306.932V204.379H304.597V202.04Z" fill="#B0B0B0"/>
<path d="M313.158 287.811H315.493V290.15H313.158V287.811Z" fill="#B0B0B0"/>
<path d="M313.158 202.04H315.493V204.379H313.158V202.04Z" fill="#B0B0B0"/>
<path d="M321.719 287.811H324.054V290.15H321.719V287.811Z" fill="#B0B0B0"/>
<path d="M321.719 202.04H324.054V204.379H321.719V202.04Z" fill="#B0B0B0"/>
<path d="M330.281 287.811H332.615V290.15H330.281V287.811Z" fill="#B0B0B0"/>
<path d="M330.281 202.04H332.615V204.379H330.281V202.04Z" fill="#B0B0B0"/>
<path d="M338.842 287.811H341.176V290.15H338.842V287.811Z" fill="#B0B0B0"/>
<path d="M338.842 202.04H341.176V204.379H338.842V202.04Z" fill="#B0B0B0"/>
<path d="M347.403 287.811H349.738V290.15H347.403V287.811Z" fill="#B0B0B0"/>
<path d="M347.403 202.04H349.738V204.379H347.403V202.04Z" fill="#B0B0B0"/>
<path d="M355.964 287.811H358.299V290.15H355.964V287.811Z" fill="#B0B0B0"/>
<path d="M355.964 202.04H358.299V204.379H355.964V202.04Z" fill="#B0B0B0"/>
<path d="M364.525 287.811H366.86V290.15H364.525V287.811Z" fill="#B0B0B0"/>
<path d="M364.525 202.04H366.86V204.379H364.525V202.04Z" fill="#B0B0B0"/>
<path d="M373.086 287.811H375.421V290.15H373.086V287.811Z" fill="#B0B0B0"/>
<path d="M373.086 202.04H375.421V204.379H373.086V202.04Z" fill="#B0B0B0"/>
<path d="M381.647 287.811H383.982V290.15H381.647V287.811Z" fill="#B0B0B0"/>
<path d="M381.647 202.04H383.982V204.379H381.647V202.04Z" fill="#B0B0B0"/>
<path d="M390.208 287.811H392.543V290.15H390.208V287.811Z" fill="#B0B0B0"/>
<path d="M390.208 202.04H392.543V204.379H390.208V202.04Z" fill="#B0B0B0"/>
<path d="M398.769 287.811H401.104V290.15H398.769V287.811Z" fill="#B0B0B0"/>
<path d="M398.769 202.04H401.104V204.379H398.769V202.04Z" fill="#B0B0B0"/>
<path d="M407.33 287.811H409.665V290.15H407.33V287.811Z" fill="#B0B0B0"/>
<path d="M407.33 202.04H409.665V204.379H407.33V202.04Z" fill="#B0B0B0"/>
<path d="M244.67 295.608H247.005V297.947H244.67V295.608Z" fill="#B0B0B0"/>
<path d="M244.67 209.837H247.005V212.176H244.67V209.837Z" fill="#B0B0B0"/>
<path d="M253.231 295.608H255.566V297.947H253.231V295.608Z" fill="#B0B0B0"/>
<path d="M253.231 209.837H255.566V212.176H253.231V209.837Z" fill="#B0B0B0"/>
<path d="M261.792 295.608H264.127V297.947H261.792V295.608Z" fill="#B0B0B0"/>
<path d="M261.792 209.837H264.127V212.176H261.792V209.837Z" fill="#B0B0B0"/>
<path d="M270.353 295.608H272.688V297.947H270.353V295.608Z" fill="#B0B0B0"/>
<path d="M270.353 209.837H272.688V212.176H270.353V209.837Z" fill="#B0B0B0"/>
<path d="M278.914 295.608H281.249V297.947H278.914V295.608Z" fill="#B0B0B0"/>
<path d="M278.914 209.837H281.249V212.176H278.914V209.837Z" fill="#B0B0B0"/>
<path d="M287.475 295.608H289.81V297.947H287.475V295.608Z" fill="#B0B0B0"/>
<path d="M287.475 209.837H289.81V212.176H287.475V209.837Z" fill="#B0B0B0"/>
<path d="M296.036 295.608H298.371V297.947H296.036V295.608Z" fill="#B0B0B0"/>
<path d="M296.036 209.837H298.371V212.176H296.036V209.837Z" fill="#B0B0B0"/>
<path d="M304.597 295.608H306.932V297.947H304.597V295.608Z" fill="#B0B0B0"/>
<path d="M304.597 209.837H306.932V212.176H304.597V209.837Z" fill="#B0B0B0"/>
<path d="M313.158 295.608H315.493V297.947H313.158V295.608Z" fill="#B0B0B0"/>
<path d="M313.158 209.837H315.493V212.176H313.158V209.837Z" fill="#B0B0B0"/>
<path d="M321.719 295.608H324.054V297.947H321.719V295.608Z" fill="#B0B0B0"/>
<path d="M321.719 209.837H324.054V212.176H321.719V209.837Z" fill="#B0B0B0"/>
<path d="M330.281 295.608H332.615V297.947H330.281V295.608Z" fill="#B0B0B0"/>
<path d="M330.281 209.837H332.615V212.176H330.281V209.837Z" fill="#B0B0B0"/>
<path d="M338.842 295.608H341.176V297.947H338.842V295.608Z" fill="#B0B0B0"/>
<path d="M338.842 209.837H341.176V212.176H338.842V209.837Z" fill="#B0B0B0"/>
<path d="M347.403 295.608H349.738V297.947H347.403V295.608Z" fill="#B0B0B0"/>
<path d="M347.403 209.837H349.738V212.176H347.403V209.837Z" fill="#B0B0B0"/>
<path d="M355.964 295.608H358.299V297.947H355.964V295.608Z" fill="#B0B0B0"/>
<path d="M355.964 209.837H358.299V212.176H355.964V209.837Z" fill="#B0B0B0"/>
<path d="M364.525 295.608H366.86V297.947H364.525V295.608Z" fill="#B0B0B0"/>
<path d="M364.525 209.837H366.86V212.176H364.525V209.837Z" fill="#B0B0B0"/>
<path d="M373.086 295.608H375.421V297.947H373.086V295.608Z" fill="#B0B0B0"/>
<path d="M373.086 209.837H375.421V212.176H373.086V209.837Z" fill="#B0B0B0"/>
<path d="M381.647 295.608H383.982V297.947H381.647V295.608Z" fill="#B0B0B0"/>
<path d="M381.647 209.837H383.982V212.176H381.647V209.837Z" fill="#B0B0B0"/>
<path d="M390.208 295.608H392.543V297.947H390.208V295.608Z" fill="#B0B0B0"/>
<path d="M390.208 209.837H392.543V212.176H390.208V209.837Z" fill="#B0B0B0"/>
<path d="M398.769 295.608H401.104V297.947H398.769V295.608Z" fill="#B0B0B0"/>
<path d="M398.769 209.837H401.104V212.176H398.769V209.837Z" fill="#B0B0B0"/>
<path d="M407.33 295.608H409.665V297.947H407.33V295.608Z" fill="#B0B0B0"/>
<path d="M407.33 209.837H409.665V212.176H407.33V209.837Z" fill="#B0B0B0"/>
<path d="M244.67 303.405H247.005V305.744H244.67V303.405Z" fill="#B0B0B0"/>
<path d="M244.67 217.634H247.005V219.974H244.67V217.634Z" fill="#B0B0B0"/>
<path d="M253.231 303.405H255.566V305.744H253.231V303.405Z" fill="#B0B0B0"/>
<path d="M253.231 217.634H255.566V219.974H253.231V217.634Z" fill="#B0B0B0"/>
<path d="M261.792 303.405H264.127V305.744H261.792V303.405Z" fill="#B0B0B0"/>
<path d="M261.792 217.634H264.127V219.974H261.792V217.634Z" fill="#B0B0B0"/>
<path d="M270.353 303.405H272.688V305.744H270.353V303.405Z" fill="#B0B0B0"/>
<path d="M270.353 217.634H272.688V219.974H270.353V217.634Z" fill="#B0B0B0"/>
<path d="M278.914 303.405H281.249V305.744H278.914V303.405Z" fill="#B0B0B0"/>
<path d="M278.914 217.634H281.249V219.974H278.914V217.634Z" fill="#B0B0B0"/>
<path d="M287.475 303.405H289.81V305.744H287.475V303.405Z" fill="#B0B0B0"/>
<path d="M287.475 217.634H289.81V219.974H287.475V217.634Z" fill="#B0B0B0"/>
<path d="M296.036 303.405H298.371V305.744H296.036V303.405Z" fill="#B0B0B0"/>
<path d="M296.036 217.634H298.371V219.974H296.036V217.634Z" fill="#B0B0B0"/>
<path d="M304.597 303.405H306.932V305.744H304.597V303.405Z" fill="#B0B0B0"/>
<path d="M304.597 217.634H306.932V219.974H304.597V217.634Z" fill="#B0B0B0"/>
<path d="M313.158 303.405H315.493V305.744H313.158V303.405Z" fill="#B0B0B0"/>
<path d="M313.158 217.634H315.493V219.974H313.158V217.634Z" fill="#B0B0B0"/>
<path d="M321.719 303.405H324.054V305.744H321.719V303.405Z" fill="#B0B0B0"/>
<path d="M321.719 217.634H324.054V219.974H321.719V217.634Z" fill="#B0B0B0"/>
<path d="M330.281 303.405H332.615V305.744H330.281V303.405Z" fill="#B0B0B0"/>
<path d="M330.281 217.634H332.615V219.974H330.281V217.634Z" fill="#B0B0B0"/>
<path d="M338.842 303.405H341.176V305.744H338.842V303.405Z" fill="#B0B0B0"/>
<path d="M338.842 217.634H341.176V219.974H338.842V217.634Z" fill="#B0B0B0"/>
<path d="M347.403 303.405H349.738V305.744H347.403V303.405Z" fill="#B0B0B0"/>
<path d="M347.403 217.634H349.738V219.974H347.403V217.634Z" fill="#B0B0B0"/>
<path d="M355.964 303.405H358.299V305.744H355.964V303.405Z" fill="#B0B0B0"/>
<path d="M355.964 217.634H358.299V219.974H355.964V217.634Z" fill="#B0B0B0"/>
<path d="M364.525 303.405H366.86V305.744H364.525V303.405Z" fill="#B0B0B0"/>
<path d="M364.525 217.634H366.86V219.974H364.525V217.634Z" fill="#B0B0B0"/>
<path d="M373.086 303.405H375.421V305.744H373.086V303.405Z" fill="#B0B0B0"/>
<path d="M373.086 217.634H375.421V219.974H373.086V217.634Z" fill="#B0B0B0"/>
<path d="M381.647 303.405H383.982V305.744H381.647V303.405Z" fill="#B0B0B0"/>
<path d="M381.647 217.634H383.982V219.974H381.647V217.634Z" fill="#B0B0B0"/>
<path d="M390.208 303.405H392.543V305.744H390.208V303.405Z" fill="#B0B0B0"/>
<path d="M390.208 217.634H392.543V219.974H390.208V217.634Z" fill="#B0B0B0"/>
<path d="M398.769 303.405H401.104V305.744H398.769V303.405Z" fill="#B0B0B0"/>
<path d="M398.769 217.634H401.104V219.974H398.769V217.634Z" fill="#B0B0B0"/>
<path d="M407.33 303.405H409.665V305.744H407.33V303.405Z" fill="#B0B0B0"/>
<path d="M407.33 217.634H409.665V219.974H407.33V217.634Z" fill="#B0B0B0"/>
<path d="M244.67 311.203H247.005V313.542H244.67V311.203Z" fill="#B0B0B0"/>
<path d="M244.67 225.432H247.005V227.771H244.67V225.432Z" fill="#B0B0B0"/>
<path d="M253.231 311.203H255.566V313.542H253.231V311.203Z" fill="#B0B0B0"/>
<path d="M253.231 225.432H255.566V227.771H253.231V225.432Z" fill="#B0B0B0"/>
<path d="M261.792 311.203H264.127V313.542H261.792V311.203Z" fill="#B0B0B0"/>
<path d="M261.792 225.432H264.127V227.771H261.792V225.432Z" fill="#B0B0B0"/>
<path d="M270.353 311.203H272.688V313.542H270.353V311.203Z" fill="#B0B0B0"/>
<path d="M270.353 225.432H272.688V227.771H270.353V225.432Z" fill="#B0B0B0"/>
<path d="M278.914 311.203H281.249V313.542H278.914V311.203Z" fill="#B0B0B0"/>
<path d="M278.914 225.432H281.249V227.771H278.914V225.432Z" fill="#B0B0B0"/>
<path d="M287.475 311.203H289.81V313.542H287.475V311.203Z" fill="#B0B0B0"/>
<path d="M287.475 225.432H289.81V227.771H287.475V225.432Z" fill="#B0B0B0"/>
<path d="M296.036 311.203H298.371V313.542H296.036V311.203Z" fill="#B0B0B0"/>
<path d="M296.036 225.432H298.371V227.771H296.036V225.432Z" fill="#B0B0B0"/>
<path d="M304.597 311.203H306.932V313.542H304.597V311.203Z" fill="#B0B0B0"/>
<path d="M304.597 225.432H306.932V227.771H304.597V225.432Z" fill="#B0B0B0"/>
<path d="M313.158 311.203H315.493V313.542H313.158V311.203Z" fill="#B0B0B0"/>
<path d="M313.158 225.432H315.493V227.771H313.158V225.432Z" fill="#B0B0B0"/>
<path d="M321.719 311.203H324.054V313.542H321.719V311.203Z" fill="#B0B0B0"/>
<path d="M321.719 225.432H324.054V227.771H321.719V225.432Z" fill="#B0B0B0"/>
<path d="M330.281 311.203H332.615V313.542H330.281V311.203Z" fill="#B0B0B0"/>
<path d="M330.281 225.432H332.615V227.771H330.281V225.432Z" fill="#B0B0B0"/>
<path d="M338.842 311.203H341.176V313.542H338.842V311.203Z" fill="#B0B0B0"/>
<path d="M338.842 225.432H341.176V227.771H338.842V225.432Z" fill="#B0B0B0"/>
<path d="M347.403 311.203H349.738V313.542H347.403V311.203Z" fill="#B0B0B0"/>
<path d="M347.403 225.432H349.738V227.771H347.403V225.432Z" fill="#B0B0B0"/>
<path d="M355.964 311.203H358.299V313.542H355.964V311.203Z" fill="#B0B0B0"/>
<path d="M355.964 225.432H358.299V227.771H355.964V225.432Z" fill="#B0B0B0"/>
<path d="M364.525 311.203H366.86V313.542H364.525V311.203Z" fill="#B0B0B0"/>
<path d="M364.525 225.432H366.86V227.771H364.525V225.432Z" fill="#B0B0B0"/>
<path d="M373.086 311.203H375.421V313.542H373.086V311.203Z" fill="#B0B0B0"/>
<path d="M373.086 225.432H375.421V227.771H373.086V225.432Z" fill="#B0B0B0"/>
<path d="M381.647 311.203H383.982V313.542H381.647V311.203Z" fill="#B0B0B0"/>
<path d="M381.647 225.432H383.982V227.771H381.647V225.432Z" fill="#B0B0B0"/>
<path d="M390.208 311.203H392.543V313.542H390.208V311.203Z" fill="#B0B0B0"/>
<path d="M390.208 225.432H392.543V227.771H390.208V225.432Z" fill="#B0B0B0"/>
<path d="M398.769 311.203H401.104V313.542H398.769V311.203Z" fill="#B0B0B0"/>
<path d="M398.769 225.432H401.104V227.771H398.769V225.432Z" fill="#B0B0B0"/>
<path d="M407.33 311.203H409.665V313.542H407.33V311.203Z" fill="#B0B0B0"/>
<path d="M407.33 225.432H409.665V227.771H407.33V225.432Z" fill="#B0B0B0"/>
<path d="M325.26 218.94H93.5901V382.19H325.26V218.94Z" fill="#6EC1B1"/>
<path opacity="0.2" d="M286.54 296.5C292.229 296.5 296.84 291.889 296.84 286.2C296.84 280.511 292.229 275.9 286.54 275.9C280.851 275.9 276.24 280.511 276.24 286.2C276.24 291.889 280.851 296.5 286.54 296.5Z" fill="#FFD200"/>
<path d="M121.46 311L147.75 267L178.76 308.25L202.39 284.66L207 303L237.5 270.55L260.75 311L286.54 286.2" stroke="white" stroke-width="2" stroke-linecap="round" stroke-linejoin="round"/>
<path d="M111.26 240.42C114.11 240.42 116.42 238.11 116.42 235.26C116.42 232.41 114.11 230.1 111.26 230.1C108.41 230.1 106.1 232.41 106.1 235.26C106.1 238.11 108.41 240.42 111.26 240.42Z" fill="#475762"/>
<path d="M286.54 291.36C289.39 291.36 291.7 289.05 291.7 286.2C291.7 283.35 289.39 281.04 286.54 281.04C283.69 281.04 281.38 283.35 281.38 286.2C281.38 289.05 283.69 291.36 286.54 291.36Z" fill="#FFC854"/>
<path d="M237.57 275.71C240.42 275.71 242.73 273.4 242.73 270.55C242.73 267.7 240.42 265.39 237.57 265.39C234.72 265.39 232.41 267.7 232.41 270.55C232.41 273.4 234.72 275.71 237.57 275.71Z" fill="#FFC854"/>
<path d="M260.57 314.91C263.42 314.91 265.73 312.6 265.73 309.75C265.73 306.9 263.42 304.59 260.57 304.59C257.72 304.59 255.41 306.9 255.41 309.75C255.41 312.6 257.72 314.91 260.57 314.91Z" fill="#FFC854"/>
<path d="M147.82 272.16C150.67 272.16 152.98 269.85 152.98 267C152.98 264.15 150.67 261.84 147.82 261.84C144.97 261.84 142.66 264.15 142.66 267C142.66 269.85 144.97 272.16 147.82 272.16Z" fill="#FFC854"/>
<path d="M121.53 316.16C124.38 316.16 126.69 313.85 126.69 311C126.69 308.15 124.38 305.84 121.53 305.84C118.68 305.84 116.37 308.15 116.37 311C116.37 313.85 118.68 316.16 121.53 316.16Z" fill="#FFC854"/>
<path d="M126.62 240.42C129.47 240.42 131.78 238.11 131.78 235.26C131.78 232.41 129.47 230.1 126.62 230.1C123.77 230.1 121.46 232.41 121.46 235.26C121.46 238.11 123.77 240.42 126.62 240.42Z" fill="#FFC854"/>
<path d="M141.09 240.42C143.94 240.42 146.25 238.11 146.25 235.26C146.25 232.41 143.94 230.1 141.09 230.1C138.24 230.1 135.93 232.41 135.93 235.26C135.93 238.11 138.24 240.42 141.09 240.42Z" fill="#FD6F55"/>
<path opacity="0.45" d="M213.94 413.43C288.012 413.43 348.06 407.74 348.06 400.72C348.06 393.7 288.012 388.01 213.94 388.01C139.868 388.01 79.8201 393.7 79.8201 400.72C79.8201 407.74 139.868 413.43 213.94 413.43Z" fill="#E6E6E6"/>
<path d="M118.44 331.35H68.73V393.61H118.44V331.35Z" fill="#EFEFEF"/>
<path opacity="0.08" d="M108.24 370.06H88.72V375.49H108.24V370.06Z" fill="black"/>
<path opacity="0.08" d="M108.24 379.72H88.72V385.15H108.24V379.72Z" fill="black"/>
<path d="M86.44 370.06H80.76V375.74H86.44V370.06Z" fill="#FD6F55"/>
<path d="M86.44 379.47H80.76V385.15H86.44V379.47Z" fill="#FFD200"/>
<path d="M94.7901 362.75C101.539 362.75 107.01 357.279 107.01 350.53C107.01 343.781 101.539 338.31 94.7901 338.31C88.0412 338.31 82.5701 343.781 82.5701 350.53C82.5701 357.279 88.0412 362.75 94.7901 362.75Z" fill="white"/>
<path d="M94.79 338.31V350.53L106.79 348.04C106.79 348.04 105.09 338.23 94.79 338.31Z" fill="#FFD200"/>
<path d="M94.79 350.53L88 360.69C88 360.69 94.85 365.9 102.78 359.78C104.461 358.379 105.723 356.543 106.429 354.472C107.134 352.401 107.256 350.175 106.78 348.04L94.79 350.53Z" fill="#475762"/>
<path d="M343.38 205.98H289.34V240.42H343.38V205.98Z" fill="#475762"/>
<path d="M352.27 348.04H298.23V392.35H352.27V348.04Z" fill="#EFEFEF"/>
<path d="M307.33 226.12H300V233.45H307.33V226.12Z" fill="white"/>
<path d="M319.68 218.25H312.35V233.46H319.68V218.25Z" fill="white"/>
<path d="M332.72 212.95H325.39V233.45H332.72V212.95Z" fill="white"/>
<path d="M315.704 369.508C313.592 369.508 311.924 368.872 310.7 367.6C309.692 366.52 309.188 365.224 309.188 363.712C309.188 362.056 309.68 360.7 310.664 359.644C311.792 358.372 313.472 357.736 315.704 357.736C317.888 357.736 319.592 358.372 320.816 359.644C321.824 360.7 322.328 362.02 322.328 363.604C322.328 365.188 321.812 366.52 320.78 367.6C319.556 368.872 317.864 369.508 315.704 369.508ZM315.596 382L329.492 357.988H332.624L318.692 382H315.596ZM315.776 360.904C314.96 360.904 314.3 361.18 313.796 361.732C313.316 362.26 313.076 362.884 313.076 363.604C313.076 364.42 313.388 365.104 314.012 365.656C314.492 366.088 315.08 366.304 315.776 366.304C316.496 366.304 317.132 366.052 317.684 365.548C318.212 365.02 318.476 364.372 318.476 363.604C318.476 362.812 318.188 362.14 317.612 361.588C317.132 361.132 316.52 360.904 315.776 360.904ZM332.48 373.684C331.664 373.684 331.004 373.96 330.5 374.512C330.02 375.04 329.78 375.664 329.78 376.384C329.78 377.2 330.092 377.884 330.716 378.436C331.196 378.868 331.784 379.084 332.48 379.084C333.2 379.084 333.836 378.832 334.388 378.328C334.916 377.8 335.18 377.152 335.18 376.384C335.18 375.568 334.892 374.896 334.316 374.368C333.836 373.912 333.224 373.684 332.48 373.684ZM332.408 382.288C330.296 382.288 328.628 381.652 327.404 380.38C326.396 379.3 325.892 378.004 325.892 376.492C325.892 374.836 326.384 373.48 327.368 372.424C328.496 371.152 330.176 370.516 332.408 370.516C334.592 370.516 336.296 371.152 337.52 372.424C338.528 373.48 339.032 374.8 339.032 376.384C339.032 377.968 338.516 379.3 337.484 380.38C336.26 381.652 334.568 382.288 332.408 382.288Z" fill="#FD6F55"/>
<path d="M126 219V152.5H8.5V1H41" stroke="#475762" stroke-dasharray="2 3"/>
<g filter="url(#filter1_dd)">
<rect x="104" y="409" width="378" height="112" rx="5" fill="#FEBF39"/>
</g>
<rect x="96.5" y="417.5" width="377" height="111" rx="4.5" fill="white" stroke="#E49B00"/>
<path d="M144.69 442.324V449.716H152.698V442.324H155.554V461H152.698V452.404H144.69V461H141.834V442.324H144.69ZM168.165 450.584V449.212H170.909V461H168.165V459.768C167.25 460.832 166.074 461.364 164.637 461.364C162.901 461.364 161.51 460.748 160.465 459.516C159.438 458.284 158.925 456.809 158.925 455.092C158.925 453.225 159.475 451.732 160.577 450.612C161.697 449.473 163.059 448.904 164.665 448.904C166.139 448.904 167.306 449.464 168.165 450.584ZM165.001 451.368C164.03 451.368 163.237 451.732 162.621 452.46C162.023 453.188 161.725 454.084 161.725 455.148C161.725 456.193 162.023 457.08 162.621 457.808C163.237 458.536 164.03 458.9 165.001 458.9C165.934 458.9 166.718 458.573 167.353 457.92C168.006 457.267 168.333 456.352 168.333 455.176C168.333 453.963 168.006 453.029 167.353 452.376C166.718 451.704 165.934 451.368 165.001 451.368ZM174.388 461V449.212H177.132V458.48H181.052V449.212H183.796V458.48H187.716V449.212H190.46V461H174.388ZM202.563 450.584V449.212H205.307V461H202.563V459.768C201.648 460.832 200.472 461.364 199.035 461.364C197.299 461.364 195.908 460.748 194.863 459.516C193.836 458.284 193.323 456.809 193.323 455.092C193.323 453.225 193.874 451.732 194.975 450.612C196.095 449.473 197.458 448.904 199.063 448.904C200.538 448.904 201.704 449.464 202.563 450.584ZM199.399 451.368C198.428 451.368 197.635 451.732 197.019 452.46C196.422 453.188 196.123 454.084 196.123 455.148C196.123 456.193 196.422 457.08 197.019 457.808C197.635 458.536 198.428 458.9 199.399 458.9C200.332 458.9 201.116 458.573 201.751 457.92C202.404 457.267 202.731 456.352 202.731 455.176C202.731 453.963 202.404 453.029 201.751 452.376C201.116 451.704 200.332 451.368 199.399 451.368ZM216.918 452.264L215.154 450.724C215.602 450.183 216.199 449.744 216.946 449.408C217.73 449.072 218.654 448.904 219.718 448.904C220.95 448.904 221.949 449.175 222.714 449.716C223.535 450.313 223.946 451.116 223.946 452.124C223.946 452.777 223.778 453.319 223.442 453.748C223.162 454.121 222.789 454.401 222.322 454.588C223.031 454.737 223.601 455.027 224.03 455.456C224.534 455.96 224.786 456.613 224.786 457.416C224.786 458.48 224.45 459.348 223.778 460.02C222.882 460.916 221.501 461.364 219.634 461.364C218.383 461.364 217.357 461.131 216.554 460.664C215.714 460.179 215.098 459.479 214.706 458.564L216.89 457.444C217.151 458.004 217.497 458.415 217.926 458.676C218.393 458.975 218.981 459.124 219.69 459.124C220.549 459.124 221.174 458.928 221.566 458.536C221.846 458.219 221.986 457.873 221.986 457.5C221.986 457.108 221.865 456.791 221.622 456.548C221.305 456.212 220.651 456.044 219.662 456.044H218.43V453.804H219.466C220.063 453.804 220.511 453.701 220.81 453.496C221.146 453.235 221.314 452.889 221.314 452.46C221.314 452.012 221.146 451.676 220.81 451.452C220.53 451.247 220.091 451.144 219.494 451.144C218.934 451.144 218.421 451.256 217.954 451.48C217.562 451.667 217.217 451.928 216.918 452.264ZM236.278 450.584V449.212H239.022V461H236.278V459.768C235.363 460.832 234.187 461.364 232.75 461.364C231.014 461.364 229.623 460.748 228.578 459.516C227.551 458.284 227.038 456.809 227.038 455.092C227.038 453.225 227.589 451.732 228.69 450.612C229.81 449.473 231.173 448.904 232.778 448.904C234.253 448.904 235.419 449.464 236.278 450.584ZM233.114 451.368C232.143 451.368 231.35 451.732 230.734 452.46C230.137 453.188 229.838 454.084 229.838 455.148C229.838 456.193 230.137 457.08 230.734 457.808C231.35 458.536 232.143 458.9 233.114 458.9C234.047 458.9 234.831 458.573 235.466 457.92C236.119 457.267 236.446 456.352 236.446 455.176C236.446 453.963 236.119 453.029 235.466 452.376C234.831 451.704 234.047 451.368 233.114 451.368ZM243.51 449.212H252.358V458.48H254.15V464.36H251.63V461H243.398V464.36H240.878V458.48C241.83 458.424 242.548 457.911 243.034 456.94C243.351 456.249 243.51 455.213 243.51 453.832V449.212ZM249.614 458.48V451.732H246.142V454.868C246.142 456.567 245.684 457.771 244.77 458.48H249.614ZM264.743 450.584V449.212H267.487V461H264.743V459.768C263.828 460.832 262.652 461.364 261.215 461.364C259.479 461.364 258.088 460.748 257.043 459.516C256.016 458.284 255.503 456.809 255.503 455.092C255.503 453.225 256.053 451.732 257.155 450.612C258.275 449.473 259.637 448.904 261.243 448.904C262.717 448.904 263.884 449.464 264.743 450.584ZM261.579 451.368C260.608 451.368 259.815 451.732 259.199 452.46C258.601 453.188 258.303 454.084 258.303 455.148C258.303 456.193 258.601 457.08 259.199 457.808C259.815 458.536 260.608 458.9 261.579 458.9C262.512 458.9 263.296 458.573 263.931 457.92C264.584 457.267 264.911 456.352 264.911 455.176C264.911 453.963 264.584 453.029 263.931 452.376C263.296 451.704 262.512 451.368 261.579 451.368ZM277.35 461V456.436C276.51 456.604 275.708 456.688 274.942 456.688C273.598 456.688 272.562 456.399 271.834 455.82C271.069 455.204 270.686 454.261 270.686 452.992V449.212H273.43V452.432C273.43 453.235 273.664 453.776 274.13 454.056C274.448 454.243 274.905 454.336 275.502 454.336C276.174 454.336 276.79 454.233 277.35 454.028V449.212H280.094V461H277.35ZM292.196 450.584V449.212H294.94V461H292.196V459.768C291.281 460.832 290.105 461.364 288.668 461.364C286.932 461.364 285.541 460.748 284.496 459.516C283.469 458.284 282.956 456.809 282.956 455.092C282.956 453.225 283.507 451.732 284.608 450.612C285.728 449.473 287.091 448.904 288.696 448.904C290.171 448.904 291.337 449.464 292.196 450.584ZM289.032 451.368C288.061 451.368 287.268 451.732 286.652 452.46C286.055 453.188 285.756 454.084 285.756 455.148C285.756 456.193 286.055 457.08 286.652 457.808C287.268 458.536 288.061 458.9 289.032 458.9C289.965 458.9 290.749 458.573 291.384 457.92C292.037 457.267 292.364 456.352 292.364 455.176C292.364 453.963 292.037 453.029 291.384 452.376C290.749 451.704 289.965 451.368 289.032 451.368ZM305.179 456.296V453.776H324.779V456.296H305.179ZM335.006 449.212H345.254V461H342.51V451.732H337.75V461H335.006V449.212ZM351.476 459.628V467.412H348.732V449.212H351.476V450.5C352.372 449.436 353.539 448.904 354.976 448.904C356.581 448.904 357.935 449.473 359.036 450.612C360.156 451.732 360.716 453.207 360.716 455.036C360.716 456.921 360.137 458.452 358.98 459.628C357.823 460.785 356.497 461.364 355.004 461.364C353.604 461.364 352.428 460.785 351.476 459.628ZM354.64 451.368C353.707 451.368 352.913 451.704 352.26 452.376C351.625 453.029 351.308 453.963 351.308 455.176C351.308 456.352 351.625 457.267 352.26 457.92C352.913 458.573 353.707 458.9 354.64 458.9C355.611 458.9 356.395 458.536 356.992 457.808C357.608 457.08 357.916 456.193 357.916 455.148C357.916 454.084 357.608 453.188 356.992 452.46C356.395 451.732 355.611 451.368 354.64 451.368ZM363.58 449.212H366.324V455.904L374.388 448.148V461H371.644V454.14L363.58 461.896V449.212ZM377.853 449.212H382.473C383.649 449.212 384.545 449.445 385.161 449.912C385.889 450.491 386.253 451.247 386.253 452.18C386.253 453.244 385.787 454.009 384.853 454.476C385.451 454.588 385.983 454.849 386.449 455.26C387.065 455.82 387.373 456.576 387.373 457.528C387.373 458.667 386.944 459.563 386.085 460.216C385.376 460.739 384.471 461 383.369 461H377.853V449.212ZM380.597 453.804H381.997C382.483 453.804 382.847 453.72 383.089 453.552C383.444 453.328 383.621 453.011 383.621 452.6C383.621 452.208 383.463 451.9 383.145 451.676C382.921 451.527 382.52 451.452 381.941 451.452H380.597V453.804ZM380.597 458.76H382.641C383.257 458.76 383.733 458.648 384.069 458.424C384.443 458.181 384.629 457.836 384.629 457.388C384.629 456.903 384.452 456.557 384.097 456.352C383.78 456.147 383.323 456.044 382.725 456.044H380.597V458.76ZM398.5 457.024L400.796 458.312C400.273 459.245 399.611 459.964 398.808 460.468C397.893 461.065 396.736 461.364 395.336 461.364C393.693 461.364 392.368 460.86 391.36 459.852C390.203 458.695 389.624 457.192 389.624 455.344C389.624 453.403 390.249 451.788 391.5 450.5C392.564 449.436 393.88 448.904 395.448 448.904C396.979 448.904 398.239 449.417 399.228 450.444C400.329 451.583 400.88 453.244 400.88 455.428V455.764H392.424C392.499 456.753 392.835 457.547 393.432 458.144C393.936 458.648 394.636 458.9 395.532 458.9C396.26 458.9 396.885 458.704 397.408 458.312C397.837 457.976 398.201 457.547 398.5 457.024ZM392.62 453.524H398.08C397.968 452.871 397.688 452.339 397.24 451.928C396.755 451.48 396.139 451.256 395.392 451.256C394.608 451.256 393.964 451.508 393.46 452.012C393.049 452.385 392.769 452.889 392.62 453.524ZM412.876 449.744V452.824C411.886 451.853 410.776 451.368 409.544 451.368C408.498 451.368 407.63 451.713 406.94 452.404C406.268 453.076 405.932 453.981 405.932 455.12C405.932 456.296 406.286 457.239 406.996 457.948C407.668 458.583 408.498 458.9 409.488 458.9C410.85 458.9 411.98 458.396 412.876 457.388V460.44C411.886 461.056 410.692 461.364 409.292 461.364C407.406 461.364 405.913 460.785 404.812 459.628C403.692 458.471 403.132 456.996 403.132 455.204C403.132 453.356 403.729 451.835 404.924 450.64C406.081 449.483 407.658 448.904 409.656 448.904C410.794 448.904 411.868 449.184 412.876 449.744ZM423.899 451.732H420.455V461H417.711V451.732H414.267V449.212H423.899V451.732ZM425.869 449.212H428.613V455.904L436.677 448.148V461H433.933V454.14L425.869 461.896V449.212ZM212.832 477.324H215.66C216.929 477.324 217.956 477.427 218.74 477.632C219.524 477.837 220.214 478.22 220.812 478.78C221.801 479.713 222.296 480.945 222.296 482.476C222.296 483.353 222.109 484.091 221.736 484.688C221.4 485.267 220.933 485.696 220.336 485.976C221.306 486.219 222.109 486.667 222.744 487.32C223.565 488.179 223.976 489.345 223.976 490.82C223.976 492.183 223.565 493.303 222.744 494.18C221.586 495.393 219.841 496 217.508 496H212.832V477.324ZM215.688 480.012V485.36H216.556C217.601 485.36 218.376 485.117 218.88 484.632C219.365 484.165 219.608 483.456 219.608 482.504C219.608 481.739 219.384 481.141 218.936 480.712C218.45 480.245 217.694 480.012 216.668 480.012H215.688ZM215.688 487.712V493.312H217.424C218.712 493.312 219.654 493.069 220.252 492.584C220.868 492.099 221.176 491.408 221.176 490.512C221.176 489.709 220.924 489.056 220.42 488.552C219.841 487.992 218.861 487.712 217.48 487.712H215.688ZM235.69 485.584V484.212H238.434V496H235.69V494.768C234.775 495.832 233.599 496.364 232.162 496.364C230.426 496.364 229.035 495.748 227.99 494.516C226.963 493.284 226.45 491.809 226.45 490.092C226.45 488.225 227.001 486.732 228.102 485.612C229.222 484.473 230.585 483.904 232.19 483.904C233.665 483.904 234.831 484.464 235.69 485.584ZM232.526 486.368C231.555 486.368 230.762 486.732 230.146 487.46C229.549 488.188 229.25 489.084 229.25 490.148C229.25 491.193 229.549 492.08 230.146 492.808C230.762 493.536 231.555 493.9 232.526 493.9C233.459 493.9 234.243 493.573 234.878 492.92C235.531 492.267 235.858 491.352 235.858 490.176C235.858 488.963 235.531 488.029 234.878 487.376C234.243 486.704 233.459 486.368 232.526 486.368ZM240.57 496L243.426 483.148L248.298 492.136L253.17 483.148L256.026 496H253.226L252.05 490.092L248.298 496.896L244.546 490.092L243.37 496H240.57ZM264.691 484.212H267.435V488.412L271.355 484.212H274.995L269.843 489.364L275.275 496H271.803L267.883 491.156L267.435 491.604V496H264.691V484.212ZM287.039 484.212V496H284.295V486.732H280.823V491.408C280.823 492.864 280.45 493.993 279.703 494.796C278.751 495.86 277.463 496.261 275.839 496V493.48C276.642 493.667 277.286 493.489 277.771 492.948C278.051 492.612 278.191 492.099 278.191 491.408V484.212H287.039ZM290.504 484.212H293.248V490.904L301.312 483.148V496H298.568V489.14L290.504 496.896V484.212ZM313.037 492.024L315.333 493.312C314.81 494.245 314.148 494.964 313.345 495.468C312.43 496.065 311.273 496.364 309.873 496.364C308.23 496.364 306.905 495.86 305.897 494.852C304.74 493.695 304.161 492.192 304.161 490.344C304.161 488.403 304.786 486.788 306.037 485.5C307.101 484.436 308.417 483.904 309.985 483.904C311.516 483.904 312.776 484.417 313.765 485.444C314.866 486.583 315.417 488.244 315.417 490.428V490.764H306.961C307.036 491.753 307.372 492.547 307.969 493.144C308.473 493.648 309.173 493.9 310.069 493.9C310.797 493.9 311.422 493.704 311.945 493.312C312.374 492.976 312.738 492.547 313.037 492.024ZM307.157 488.524H312.617C312.505 487.871 312.225 487.339 311.777 486.928C311.292 486.48 310.676 486.256 309.929 486.256C309.145 486.256 308.501 486.508 307.997 487.012C307.586 487.385 307.306 487.889 307.157 488.524ZM318.285 496V484.212H321.029V488.58H325.901V484.212H328.645V496H325.901V491.1H321.029V496H318.285ZM340.241 486.732H336.797V496H334.053V486.732H330.609V484.212H340.241V486.732ZM343.086 485.668C344.299 484.492 345.802 483.904 347.594 483.904C349.386 483.904 350.879 484.492 352.074 485.668C353.287 486.825 353.894 488.309 353.894 490.12C353.894 491.912 353.287 493.405 352.074 494.6C350.879 495.776 349.386 496.364 347.594 496.364C345.802 496.364 344.299 495.776 343.086 494.6C341.891 493.405 341.294 491.912 341.294 490.12C341.294 488.309 341.891 486.825 343.086 485.668ZM345.046 492.892C345.68 493.564 346.53 493.9 347.594 493.9C348.658 493.9 349.507 493.564 350.142 492.892C350.776 492.201 351.094 491.287 351.094 490.148C351.094 488.897 350.748 487.955 350.058 487.32C349.386 486.685 348.564 486.368 347.594 486.368C346.623 486.368 345.792 486.685 345.102 487.32C344.43 487.955 344.094 488.897 344.094 490.148C344.094 491.287 344.411 492.201 345.046 492.892ZM356.757 484.212H361.377C362.553 484.212 363.449 484.445 364.065 484.912C364.793 485.491 365.157 486.247 365.157 487.18C365.157 488.244 364.691 489.009 363.757 489.476C364.355 489.588 364.887 489.849 365.353 490.26C365.969 490.82 366.277 491.576 366.277 492.528C366.277 493.667 365.848 494.563 364.989 495.216C364.28 495.739 363.375 496 362.273 496H356.757V484.212ZM359.501 488.804H360.901C361.387 488.804 361.751 488.72 361.993 488.552C362.348 488.328 362.525 488.011 362.525 487.6C362.525 487.208 362.367 486.9 362.049 486.676C361.825 486.527 361.424 486.452 360.845 486.452H359.501V488.804ZM359.501 493.76H361.545C362.161 493.76 362.637 493.648 362.973 493.424C363.347 493.181 363.533 492.836 363.533 492.388C363.533 491.903 363.356 491.557 363.001 491.352C362.684 491.147 362.227 491.044 361.629 491.044H359.501V493.76Z" fill="#475762"/>
<defs>
<filter id="filter0_dd" x="0" y="140" width="417" height="351" filterUnits="userSpaceOnUse" color-interpolation-filters="sRGB">
<feFlood flood-opacity="0" result="BackgroundImageFix"/>
<feColorMatrix in="SourceAlpha" type="matrix" values="0 0 0 0 0 0 0 0 0 0 0 0 0 0 0 0 0 0 127 0"/>
<feMorphology radius="6" operator="dilate" in="SourceAlpha" result="effect1_dropShadow"/>
<feOffset dx="-1" dy="5"/>
<feGaussianBlur stdDeviation="17"/>
<feColorMatrix type="matrix" values="0 0 0 0 0 0 0 0 0 0 0 0 0 0 0 0 0 0 0.06 0"/>
<feBlend mode="normal" in2="BackgroundImageFix" result="effect1_dropShadow"/>
<feColorMatrix in="SourceAlpha" type="matrix" values="0 0 0 0 0 0 0 0 0 0 0 0 0 0 0 0 0 0 127 0"/>
<feOffset dy="4"/>
<feGaussianBlur stdDeviation="2"/>
<feColorMatrix type="matrix" values="0 0 0 0 0 0 0 0 0 0 0 0 0 0 0 0 0 0 0.04 0"/>
<feBlend mode="normal" in2="effect1_dropShadow" result="effect2_dropShadow"/>
<feBlend mode="normal" in="SourceGraphic" in2="effect2_dropShadow" result="shape"/>
</filter>
<filter id="filter1_dd" x="89" y="397" width="426" height="160" filterUnits="userSpaceOnUse" color-interpolation-filters="sRGB">
<feFlood flood-opacity="0" result="BackgroundImageFix"/>
<feColorMatrix in="SourceAlpha" type="matrix" values="0 0 0 0 0 0 0 0 0 0 0 0 0 0 0 0 0 0 127 0"/>
<feOffset dx="9" dy="12"/>
<feGaussianBlur stdDeviation="12"/>
<feColorMatrix type="matrix" values="0 0 0 0 0 0 0 0 0 0 0 0 0 0 0 0 0 0 0.07 0"/>
<feBlend mode="normal" in2="BackgroundImageFix" result="effect1_dropShadow"/>
<feColorMatrix in="SourceAlpha" type="matrix" values="0 0 0 0 0 0 0 0 0 0 0 0 0 0 0 0 0 0 127 0"/>
<feOffset dy="3"/>
<feGaussianBlur stdDeviation="1.5"/>
<feColorMatrix type="matrix" values="0 0 0 0 0 0 0 0 0 0 0 0 0 0 0 0 0 0 0.03 0"/>
<feBlend mode="normal" in2="effect1_dropShadow" result="effect2_dropShadow"/>
<feBlend mode="normal" in="SourceGraphic" in2="effect2_dropShadow" result="shape"/>
</filter>
</defs>
</svg>
