<svg width="588" height="574" viewBox="0 0 588 574" fill="none" xmlns="http://www.w3.org/2000/svg">
<g filter="url(#filter0_dd)">
<rect x="66" y="202" width="357" height="271" rx="5" fill="#A1C6F3"/>
</g>
<path d="M341.07 222.72H336.47V297.52H341.07V222.72Z" fill="#FEBF39"/>
<path opacity="0.45" d="M244.16 447.83C339.705 447.83 417.16 442.874 417.16 436.76C417.16 430.646 339.705 425.69 244.16 425.69C148.615 425.69 71.1602 430.646 71.1602 436.76C71.1602 442.874 148.615 447.83 244.16 447.83Z" fill="#E6E6E6"/>
<path d="M184.37 395.81H122.58V434.59H184.37V395.81Z" fill="#E6E6E6"/>
<path d="M246.16 372.8H184.37V434.59H246.16V372.8Z" fill="#E6E6E6"/>
<path d="M307.95 337.57H246.16V434.59H307.95V337.57Z" fill="#E6E6E6"/>
<path d="M369.22 300.34H307.43V434.59H369.22V300.34Z" fill="#E6E6E6"/>
<path d="M351.02 289.54H327.02V300.34H351.02V289.54Z" fill="#475762"/>
<path d="M336.46 222.72H289.57V257.27H336.46V222.72Z" fill="#FFD200"/>
<path d="M313.02 249.45C318.239 249.45 322.47 245.219 322.47 240C322.47 234.781 318.239 230.55 313.02 230.55C307.801 230.55 303.57 234.781 303.57 240C303.57 245.219 307.801 249.45 313.02 249.45Z" fill="#475762"/>
<path d="M313.42 234.12C313.73 234.12 313.82 234.23 313.82 234.54V235.2C314.362 235.257 314.878 235.46 315.313 235.787C315.748 236.115 316.086 236.555 316.29 237.06C316.45 237.38 316.38 237.56 316.02 237.72L315.36 238.01C315.06 238.16 314.91 238.09 314.73 237.77C314.589 237.443 314.347 237.169 314.039 236.989C313.732 236.809 313.375 236.732 313.02 236.77C311.88 236.77 311.35 237.1 311.35 237.87C311.35 238.37 311.81 238.67 312.28 238.77C312.61 238.84 312.944 238.891 313.28 238.92C313.89 238.946 314.493 239.061 315.07 239.26C315.355 239.359 315.622 239.505 315.86 239.69C316.098 239.94 316.284 240.235 316.406 240.558C316.528 240.881 316.584 241.225 316.57 241.57C316.57 243.04 315.57 244.03 313.86 244.28V245C313.86 245.31 313.77 245.42 313.46 245.42H312.72C312.41 245.42 312.3 245.31 312.3 245V244.32C311.699 244.278 311.124 244.06 310.647 243.691C310.17 243.323 309.812 242.821 309.62 242.25C309.592 242.19 309.577 242.124 309.578 242.057C309.578 241.99 309.594 241.924 309.624 241.864C309.654 241.805 309.697 241.753 309.75 241.712C309.803 241.671 309.865 241.643 309.93 241.63L310.59 241.39C310.92 241.27 311.07 241.39 311.22 241.69C311.362 242.036 311.612 242.327 311.933 242.52C312.254 242.712 312.628 242.797 313 242.76C314.23 242.76 314.85 242.37 314.85 241.58C314.859 241.397 314.806 241.216 314.701 241.066C314.597 240.916 314.445 240.805 314.27 240.75C313.846 240.599 313.4 240.515 312.95 240.5C312.334 240.462 311.727 240.331 311.15 240.11C310.863 240.012 310.598 239.86 310.37 239.66C310.129 239.424 309.94 239.14 309.814 238.827C309.689 238.513 309.629 238.177 309.64 237.84C309.64 236.39 310.56 235.42 312.27 235.2V234.54C312.27 234.23 312.38 234.12 312.69 234.12H313.42Z" fill="white"/>
<path opacity="0.19" d="M327.7 312.77H320.89V392.09H327.7V312.77Z" fill="#A5A5A5"/>
<path opacity="0.19" d="M343.19 312.77H336.38V392.09H343.19V312.77Z" fill="#A5A5A5"/>
<path opacity="0.19" d="M358.68 312.77H351.87V392.09H358.68V312.77Z" fill="#A5A5A5"/>
<path opacity="0.19" d="M307.43 337.57H294.68V434.59H307.43V337.57Z" fill="#A5A5A5"/>
<path opacity="0.19" d="M245.9 372.97H233.15V434.59H245.9V372.97Z" fill="#A5A5A5"/>
<path opacity="0.19" d="M183.87 396.6H171.12V434.6H183.87V396.6Z" fill="#A5A5A5"/>
<path opacity="0.46" d="M344.18 423.99C345.29 423.99 346.19 423.09 346.19 421.98C346.19 420.87 345.29 419.97 344.18 419.97C343.07 419.97 342.17 420.87 342.17 421.98C342.17 423.09 343.07 423.99 344.18 423.99Z" fill="white"/>
<path opacity="0.08" d="M336.38 234.12C336.38 234.12 335.53 257.36 299.28 257.28H336.47L336.38 234.12Z" fill="black"/>
<path d="M46.4028 248.176H49.1042V250.899H46.4028V248.176Z" fill="#F4F4F4"/>
<path d="M46.4028 148.352H49.1042V151.075H46.4028V148.352Z" fill="#F4F4F4"/>
<path d="M56.3078 248.176H59.0092V250.899H56.3078V248.176Z" fill="#F4F4F4"/>
<path d="M56.3078 148.352H59.0092V151.075H56.3078V148.352Z" fill="#F4F4F4"/>
<path d="M66.2128 248.176H68.9141V250.899H66.2128V248.176Z" fill="#F4F4F4"/>
<path d="M66.2128 148.352H68.9141V151.075H66.2128V148.352Z" fill="#F4F4F4"/>
<path d="M76.1178 248.176H78.8191V250.899H76.1178V248.176Z" fill="#F4F4F4"/>
<path d="M76.1178 148.352H78.8191V151.075H76.1178V148.352Z" fill="#F4F4F4"/>
<path d="M86.0227 248.176H88.7241V250.899H86.0227V248.176Z" fill="#F4F4F4"/>
<path d="M86.0227 148.352H88.7241V151.075H86.0227V148.352Z" fill="#F4F4F4"/>
<path d="M95.9277 248.176H98.6291V250.899H95.9277V248.176Z" fill="#F4F4F4"/>
<path d="M95.9277 148.352H98.6291V151.075H95.9277V148.352Z" fill="#F4F4F4"/>
<path d="M105.833 248.176H108.534V250.899H105.833V248.176Z" fill="#F4F4F4"/>
<path d="M105.833 148.352H108.534V151.075H105.833V148.352Z" fill="#F4F4F4"/>
<path d="M115.738 248.176H118.439V250.899H115.738V248.176Z" fill="#F4F4F4"/>
<path d="M115.738 148.352H118.439V151.075H115.738V148.352Z" fill="#F4F4F4"/>
<path d="M125.643 248.176H128.344V250.899H125.643V248.176Z" fill="#F4F4F4"/>
<path d="M125.643 148.352H128.344V151.075H125.643V148.352Z" fill="#F4F4F4"/>
<path d="M135.548 248.176H138.249V250.899H135.548V248.176Z" fill="#F4F4F4"/>
<path d="M135.548 148.352H138.249V151.075H135.548V148.352Z" fill="#F4F4F4"/>
<path d="M145.453 248.176H148.154V250.899H145.453V248.176Z" fill="#F4F4F4"/>
<path d="M145.453 148.352H148.154V151.075H145.453V148.352Z" fill="#F4F4F4"/>
<path d="M155.358 248.176H158.059V250.899H155.358V248.176Z" fill="#F4F4F4"/>
<path d="M155.358 148.352H158.059V151.075H155.358V148.352Z" fill="#F4F4F4"/>
<path d="M165.263 248.176H167.964V250.899H165.263V248.176Z" fill="#F4F4F4"/>
<path d="M165.263 148.352H167.964V151.075H165.263V148.352Z" fill="#F4F4F4"/>
<path d="M175.168 248.176H177.869V250.899H175.168V248.176Z" fill="#F4F4F4"/>
<path d="M175.168 148.352H177.869V151.075H175.168V148.352Z" fill="#F4F4F4"/>
<path d="M185.073 248.176H187.774V250.899H185.073V248.176Z" fill="#F4F4F4"/>
<path d="M185.073 148.352H187.774V151.075H185.073V148.352Z" fill="#F4F4F4"/>
<path d="M194.977 248.176H197.679V250.899H194.977V248.176Z" fill="#F4F4F4"/>
<path d="M194.977 148.352H197.679V151.075H194.977V148.352Z" fill="#F4F4F4"/>
<path d="M204.882 248.176H207.584V250.899H204.882V248.176Z" fill="#F4F4F4"/>
<path d="M204.882 148.352H207.584V151.075H204.882V148.352Z" fill="#F4F4F4"/>
<path d="M214.787 248.176H217.489V250.899H214.787V248.176Z" fill="#F4F4F4"/>
<path d="M214.787 148.352H217.489V151.075H214.787V148.352Z" fill="#F4F4F4"/>
<path d="M224.692 248.176H227.394V250.899H224.692V248.176Z" fill="#F4F4F4"/>
<path d="M224.692 148.352H227.394V151.075H224.692V148.352Z" fill="#F4F4F4"/>
<path d="M234.597 248.176H237.299V250.899H234.597V248.176Z" fill="#F4F4F4"/>
<path d="M234.597 148.352H237.299V151.075H234.597V148.352Z" fill="#F4F4F4"/>
<path d="M46.4028 257.251H49.1042V259.974H46.4028V257.251Z" fill="#F4F4F4"/>
<path d="M46.4028 157.427H49.1042V160.15H46.4028V157.427Z" fill="#F4F4F4"/>
<path d="M56.3078 257.251H59.0092V259.974H56.3078V257.251Z" fill="#F4F4F4"/>
<path d="M56.3078 157.427H59.0092V160.15H56.3078V157.427Z" fill="#F4F4F4"/>
<path d="M66.2128 257.251H68.9141V259.974H66.2128V257.251Z" fill="#F4F4F4"/>
<path d="M66.2128 157.427H68.9141V160.15H66.2128V157.427Z" fill="#F4F4F4"/>
<path d="M76.1178 257.251H78.8191V259.974H76.1178V257.251Z" fill="#F4F4F4"/>
<path d="M76.1178 157.427H78.8191V160.15H76.1178V157.427Z" fill="#F4F4F4"/>
<path d="M86.0227 257.251H88.7241V259.974H86.0227V257.251Z" fill="#F4F4F4"/>
<path d="M86.0227 157.427H88.7241V160.15H86.0227V157.427Z" fill="#F4F4F4"/>
<path d="M95.9277 257.251H98.6291V259.974H95.9277V257.251Z" fill="#F4F4F4"/>
<path d="M95.9277 157.427H98.6291V160.15H95.9277V157.427Z" fill="#F4F4F4"/>
<path d="M105.833 257.251H108.534V259.974H105.833V257.251Z" fill="#F4F4F4"/>
<path d="M105.833 157.427H108.534V160.15H105.833V157.427Z" fill="#F4F4F4"/>
<path d="M115.738 257.251H118.439V259.974H115.738V257.251Z" fill="#F4F4F4"/>
<path d="M115.738 157.427H118.439V160.15H115.738V157.427Z" fill="#F4F4F4"/>
<path d="M125.643 257.251H128.344V259.974H125.643V257.251Z" fill="#F4F4F4"/>
<path d="M125.643 157.427H128.344V160.15H125.643V157.427Z" fill="#F4F4F4"/>
<path d="M135.548 257.251H138.249V259.974H135.548V257.251Z" fill="#F4F4F4"/>
<path d="M135.548 157.427H138.249V160.15H135.548V157.427Z" fill="#F4F4F4"/>
<path d="M145.453 257.251H148.154V259.974H145.453V257.251Z" fill="#F4F4F4"/>
<path d="M145.453 157.427H148.154V160.15H145.453V157.427Z" fill="#F4F4F4"/>
<path d="M155.358 257.251H158.059V259.974H155.358V257.251Z" fill="#F4F4F4"/>
<path d="M155.358 157.427H158.059V160.15H155.358V157.427Z" fill="#F4F4F4"/>
<path d="M165.263 257.251H167.964V259.974H165.263V257.251Z" fill="#F4F4F4"/>
<path d="M165.263 157.427H167.964V160.15H165.263V157.427Z" fill="#F4F4F4"/>
<path d="M175.168 257.251H177.869V259.974H175.168V257.251Z" fill="#F4F4F4"/>
<path d="M175.168 157.427H177.869V160.15H175.168V157.427Z" fill="#F4F4F4"/>
<path d="M185.073 257.251H187.774V259.974H185.073V257.251Z" fill="#F4F4F4"/>
<path d="M185.073 157.427H187.774V160.15H185.073V157.427Z" fill="#F4F4F4"/>
<path d="M194.977 257.251H197.679V259.974H194.977V257.251Z" fill="#F4F4F4"/>
<path d="M194.977 157.427H197.679V160.15H194.977V157.427Z" fill="#F4F4F4"/>
<path d="M204.882 257.251H207.584V259.974H204.882V257.251Z" fill="#F4F4F4"/>
<path d="M204.882 157.427H207.584V160.15H204.882V157.427Z" fill="#F4F4F4"/>
<path d="M214.787 257.251H217.489V259.974H214.787V257.251Z" fill="#F4F4F4"/>
<path d="M214.787 157.427H217.489V160.15H214.787V157.427Z" fill="#F4F4F4"/>
<path d="M224.692 257.251H227.394V259.974H224.692V257.251Z" fill="#F4F4F4"/>
<path d="M224.692 157.427H227.394V160.15H224.692V157.427Z" fill="#F4F4F4"/>
<path d="M234.597 257.251H237.299V259.974H234.597V257.251Z" fill="#F4F4F4"/>
<path d="M234.597 157.427H237.299V160.15H234.597V157.427Z" fill="#F4F4F4"/>
<path d="M46.4028 266.326H49.1042V269.048H46.4028V266.326Z" fill="#F4F4F4"/>
<path d="M46.4028 166.502H49.1042V169.225H46.4028V166.502Z" fill="#F4F4F4"/>
<path d="M56.3078 266.326H59.0092V269.048H56.3078V266.326Z" fill="#F4F4F4"/>
<path d="M56.3078 166.502H59.0092V169.225H56.3078V166.502Z" fill="#F4F4F4"/>
<path d="M66.2128 266.326H68.9141V269.048H66.2128V266.326Z" fill="#F4F4F4"/>
<path d="M66.2128 166.502H68.9141V169.225H66.2128V166.502Z" fill="#F4F4F4"/>
<path d="M76.1178 266.326H78.8191V269.048H76.1178V266.326Z" fill="#F4F4F4"/>
<path d="M76.1178 166.502H78.8191V169.225H76.1178V166.502Z" fill="#F4F4F4"/>
<path d="M86.0227 266.326H88.7241V269.048H86.0227V266.326Z" fill="#F4F4F4"/>
<path d="M86.0227 166.502H88.7241V169.225H86.0227V166.502Z" fill="#F4F4F4"/>
<path d="M95.9277 266.326H98.6291V269.048H95.9277V266.326Z" fill="#F4F4F4"/>
<path d="M95.9277 166.502H98.6291V169.225H95.9277V166.502Z" fill="#F4F4F4"/>
<path d="M105.833 266.326H108.534V269.048H105.833V266.326Z" fill="#F4F4F4"/>
<path d="M105.833 166.502H108.534V169.225H105.833V166.502Z" fill="#F4F4F4"/>
<path d="M115.738 266.326H118.439V269.048H115.738V266.326Z" fill="#F4F4F4"/>
<path d="M115.738 166.502H118.439V169.225H115.738V166.502Z" fill="#F4F4F4"/>
<path d="M125.643 266.326H128.344V269.048H125.643V266.326Z" fill="#F4F4F4"/>
<path d="M125.643 166.502H128.344V169.225H125.643V166.502Z" fill="#F4F4F4"/>
<path d="M135.548 266.326H138.249V269.048H135.548V266.326Z" fill="#F4F4F4"/>
<path d="M135.548 166.502H138.249V169.225H135.548V166.502Z" fill="#F4F4F4"/>
<path d="M145.453 266.326H148.154V269.048H145.453V266.326Z" fill="#F4F4F4"/>
<path d="M145.453 166.502H148.154V169.225H145.453V166.502Z" fill="#F4F4F4"/>
<path d="M155.358 266.326H158.059V269.048H155.358V266.326Z" fill="#F4F4F4"/>
<path d="M155.358 166.502H158.059V169.225H155.358V166.502Z" fill="#F4F4F4"/>
<path d="M165.263 266.326H167.964V269.048H165.263V266.326Z" fill="#F4F4F4"/>
<path d="M165.263 166.502H167.964V169.225H165.263V166.502Z" fill="#F4F4F4"/>
<path d="M175.168 266.326H177.869V269.048H175.168V266.326Z" fill="#F4F4F4"/>
<path d="M175.168 166.502H177.869V169.225H175.168V166.502Z" fill="#F4F4F4"/>
<path d="M185.073 266.326H187.774V269.048H185.073V266.326Z" fill="#F4F4F4"/>
<path d="M185.073 166.502H187.774V169.225H185.073V166.502Z" fill="#F4F4F4"/>
<path d="M194.977 266.326H197.679V269.048H194.977V266.326Z" fill="#F4F4F4"/>
<path d="M194.977 166.502H197.679V169.225H194.977V166.502Z" fill="#F4F4F4"/>
<path d="M204.882 266.326H207.584V269.048H204.882V266.326Z" fill="#F4F4F4"/>
<path d="M204.882 166.502H207.584V169.225H204.882V166.502Z" fill="#F4F4F4"/>
<path d="M214.787 266.326H217.489V269.048H214.787V266.326Z" fill="#F4F4F4"/>
<path d="M214.787 166.502H217.489V169.225H214.787V166.502Z" fill="#F4F4F4"/>
<path d="M224.692 266.326H227.394V269.048H224.692V266.326Z" fill="#F4F4F4"/>
<path d="M224.692 166.502H227.394V169.225H224.692V166.502Z" fill="#F4F4F4"/>
<path d="M234.597 266.326H237.299V269.048H234.597V266.326Z" fill="#F4F4F4"/>
<path d="M234.597 166.502H237.299V169.225H234.597V166.502Z" fill="#F4F4F4"/>
<path d="M46.4028 275.401H49.1042V278.123H46.4028V275.401Z" fill="#F4F4F4"/>
<path d="M46.4028 175.577H49.1042V178.3H46.4028V175.577Z" fill="#F4F4F4"/>
<path d="M56.3078 275.401H59.0092V278.123H56.3078V275.401Z" fill="#F4F4F4"/>
<path d="M56.3078 175.577H59.0092V178.3H56.3078V175.577Z" fill="#F4F4F4"/>
<path d="M66.2128 275.401H68.9141V278.123H66.2128V275.401Z" fill="#F4F4F4"/>
<path d="M66.2128 175.577H68.9141V178.3H66.2128V175.577Z" fill="#F4F4F4"/>
<path d="M76.1178 275.401H78.8191V278.123H76.1178V275.401Z" fill="#F4F4F4"/>
<path d="M76.1178 175.577H78.8191V178.3H76.1178V175.577Z" fill="#F4F4F4"/>
<path d="M86.0227 275.401H88.7241V278.123H86.0227V275.401Z" fill="#F4F4F4"/>
<path d="M86.0227 175.577H88.7241V178.3H86.0227V175.577Z" fill="#F4F4F4"/>
<path d="M95.9277 275.401H98.6291V278.123H95.9277V275.401Z" fill="#F4F4F4"/>
<path d="M95.9277 175.577H98.6291V178.3H95.9277V175.577Z" fill="#F4F4F4"/>
<path d="M105.833 275.401H108.534V278.123H105.833V275.401Z" fill="#F4F4F4"/>
<path d="M105.833 175.577H108.534V178.3H105.833V175.577Z" fill="#F4F4F4"/>
<path d="M115.738 275.401H118.439V278.123H115.738V275.401Z" fill="#F4F4F4"/>
<path d="M115.738 175.577H118.439V178.3H115.738V175.577Z" fill="#F4F4F4"/>
<path d="M125.643 275.401H128.344V278.123H125.643V275.401Z" fill="#F4F4F4"/>
<path d="M125.643 175.577H128.344V178.3H125.643V175.577Z" fill="#F4F4F4"/>
<path d="M135.548 275.401H138.249V278.123H135.548V275.401Z" fill="#F4F4F4"/>
<path d="M135.548 175.577H138.249V178.3H135.548V175.577Z" fill="#F4F4F4"/>
<path d="M145.453 275.401H148.154V278.123H145.453V275.401Z" fill="#F4F4F4"/>
<path d="M145.453 175.577H148.154V178.3H145.453V175.577Z" fill="#F4F4F4"/>
<path d="M155.358 275.401H158.059V278.123H155.358V275.401Z" fill="#F4F4F4"/>
<path d="M155.358 175.577H158.059V178.3H155.358V175.577Z" fill="#F4F4F4"/>
<path d="M165.263 275.401H167.964V278.123H165.263V275.401Z" fill="#F4F4F4"/>
<path d="M165.263 175.577H167.964V178.3H165.263V175.577Z" fill="#F4F4F4"/>
<path d="M175.168 275.401H177.869V278.123H175.168V275.401Z" fill="#F4F4F4"/>
<path d="M175.168 175.577H177.869V178.3H175.168V175.577Z" fill="#F4F4F4"/>
<path d="M185.073 275.401H187.774V278.123H185.073V275.401Z" fill="#F4F4F4"/>
<path d="M185.073 175.577H187.774V178.3H185.073V175.577Z" fill="#F4F4F4"/>
<path d="M194.977 275.401H197.679V278.123H194.977V275.401Z" fill="#F4F4F4"/>
<path d="M194.977 175.577H197.679V178.3H194.977V175.577Z" fill="#F4F4F4"/>
<path d="M204.882 275.401H207.584V278.123H204.882V275.401Z" fill="#F4F4F4"/>
<path d="M204.882 175.577H207.584V178.3H204.882V175.577Z" fill="#F4F4F4"/>
<path d="M214.787 275.401H217.489V278.123H214.787V275.401Z" fill="#F4F4F4"/>
<path d="M214.787 175.577H217.489V178.3H214.787V175.577Z" fill="#F4F4F4"/>
<path d="M224.692 275.401H227.394V278.123H224.692V275.401Z" fill="#F4F4F4"/>
<path d="M224.692 175.577H227.394V178.3H224.692V175.577Z" fill="#F4F4F4"/>
<path d="M234.597 275.401H237.299V278.123H234.597V275.401Z" fill="#F4F4F4"/>
<path d="M234.597 175.577H237.299V178.3H234.597V175.577Z" fill="#F4F4F4"/>
<path d="M46.4028 284.476H49.1042V287.198H46.4028V284.476Z" fill="#F4F4F4"/>
<path d="M46.4028 184.652H49.1042V187.374H46.4028V184.652Z" fill="#F4F4F4"/>
<path d="M56.3078 284.476H59.0092V287.198H56.3078V284.476Z" fill="#F4F4F4"/>
<path d="M56.3078 184.652H59.0092V187.374H56.3078V184.652Z" fill="#F4F4F4"/>
<path d="M66.2128 284.476H68.9141V287.198H66.2128V284.476Z" fill="#F4F4F4"/>
<path d="M66.2128 184.652H68.9141V187.374H66.2128V184.652Z" fill="#F4F4F4"/>
<path d="M76.1178 284.476H78.8191V287.198H76.1178V284.476Z" fill="#F4F4F4"/>
<path d="M76.1178 184.652H78.8191V187.374H76.1178V184.652Z" fill="#F4F4F4"/>
<path d="M86.0227 284.476H88.7241V287.198H86.0227V284.476Z" fill="#F4F4F4"/>
<path d="M86.0227 184.652H88.7241V187.374H86.0227V184.652Z" fill="#F4F4F4"/>
<path d="M95.9277 284.476H98.6291V287.198H95.9277V284.476Z" fill="#F4F4F4"/>
<path d="M95.9277 184.652H98.6291V187.374H95.9277V184.652Z" fill="#F4F4F4"/>
<path d="M105.833 284.476H108.534V287.198H105.833V284.476Z" fill="#F4F4F4"/>
<path d="M105.833 184.652H108.534V187.374H105.833V184.652Z" fill="#F4F4F4"/>
<path d="M115.738 284.476H118.439V287.198H115.738V284.476Z" fill="#F4F4F4"/>
<path d="M115.738 184.652H118.439V187.374H115.738V184.652Z" fill="#F4F4F4"/>
<path d="M125.643 284.476H128.344V287.198H125.643V284.476Z" fill="#F4F4F4"/>
<path d="M125.643 184.652H128.344V187.374H125.643V184.652Z" fill="#F4F4F4"/>
<path d="M135.548 284.476H138.249V287.198H135.548V284.476Z" fill="#F4F4F4"/>
<path d="M135.548 184.652H138.249V187.374H135.548V184.652Z" fill="#F4F4F4"/>
<path d="M145.453 284.476H148.154V287.198H145.453V284.476Z" fill="#F4F4F4"/>
<path d="M145.453 184.652H148.154V187.374H145.453V184.652Z" fill="#F4F4F4"/>
<path d="M155.358 284.476H158.059V287.198H155.358V284.476Z" fill="#F4F4F4"/>
<path d="M155.358 184.652H158.059V187.374H155.358V184.652Z" fill="#F4F4F4"/>
<path d="M165.263 284.476H167.964V287.198H165.263V284.476Z" fill="#F4F4F4"/>
<path d="M165.263 184.652H167.964V187.374H165.263V184.652Z" fill="#F4F4F4"/>
<path d="M175.168 284.476H177.869V287.198H175.168V284.476Z" fill="#F4F4F4"/>
<path d="M175.168 184.652H177.869V187.374H175.168V184.652Z" fill="#F4F4F4"/>
<path d="M185.073 284.476H187.774V287.198H185.073V284.476Z" fill="#F4F4F4"/>
<path d="M185.073 184.652H187.774V187.374H185.073V184.652Z" fill="#F4F4F4"/>
<path d="M194.977 284.476H197.679V287.198H194.977V284.476Z" fill="#F4F4F4"/>
<path d="M194.977 184.652H197.679V187.374H194.977V184.652Z" fill="#F4F4F4"/>
<path d="M204.882 284.476H207.584V287.198H204.882V284.476Z" fill="#F4F4F4"/>
<path d="M204.882 184.652H207.584V187.374H204.882V184.652Z" fill="#F4F4F4"/>
<path d="M214.787 284.476H217.489V287.198H214.787V284.476Z" fill="#F4F4F4"/>
<path d="M214.787 184.652H217.489V187.374H214.787V184.652Z" fill="#F4F4F4"/>
<path d="M224.692 284.476H227.394V287.198H224.692V284.476Z" fill="#F4F4F4"/>
<path d="M224.692 184.652H227.394V187.374H224.692V184.652Z" fill="#F4F4F4"/>
<path d="M234.597 284.476H237.299V287.198H234.597V284.476Z" fill="#F4F4F4"/>
<path d="M234.597 184.652H237.299V187.374H234.597V184.652Z" fill="#F4F4F4"/>
<path d="M46.4028 293.551H49.1042V296.273H46.4028V293.551Z" fill="#F4F4F4"/>
<path d="M46.4028 193.727H49.1042V196.449H46.4028V193.727Z" fill="#F4F4F4"/>
<path d="M56.3078 293.551H59.0092V296.273H56.3078V293.551Z" fill="#F4F4F4"/>
<path d="M56.3078 193.727H59.0092V196.449H56.3078V193.727Z" fill="#F4F4F4"/>
<path d="M66.2128 293.551H68.9141V296.273H66.2128V293.551Z" fill="#F4F4F4"/>
<path d="M66.2128 193.727H68.9141V196.449H66.2128V193.727Z" fill="#F4F4F4"/>
<path d="M76.1178 293.551H78.8191V296.273H76.1178V293.551Z" fill="#F4F4F4"/>
<path d="M76.1178 193.727H78.8191V196.449H76.1178V193.727Z" fill="#F4F4F4"/>
<path d="M86.0227 293.551H88.7241V296.273H86.0227V293.551Z" fill="#F4F4F4"/>
<path d="M86.0227 193.727H88.7241V196.449H86.0227V193.727Z" fill="#F4F4F4"/>
<path d="M95.9277 293.551H98.6291V296.273H95.9277V293.551Z" fill="#F4F4F4"/>
<path d="M95.9277 193.727H98.6291V196.449H95.9277V193.727Z" fill="#F4F4F4"/>
<path d="M105.833 293.551H108.534V296.273H105.833V293.551Z" fill="#F4F4F4"/>
<path d="M105.833 193.727H108.534V196.449H105.833V193.727Z" fill="#F4F4F4"/>
<path d="M115.738 293.551H118.439V296.273H115.738V293.551Z" fill="#F4F4F4"/>
<path d="M115.738 193.727H118.439V196.449H115.738V193.727Z" fill="#F4F4F4"/>
<path d="M125.643 293.551H128.344V296.273H125.643V293.551Z" fill="#F4F4F4"/>
<path d="M125.643 193.727H128.344V196.449H125.643V193.727Z" fill="#F4F4F4"/>
<path d="M135.548 293.551H138.249V296.273H135.548V293.551Z" fill="#F4F4F4"/>
<path d="M135.548 193.727H138.249V196.449H135.548V193.727Z" fill="#F4F4F4"/>
<path d="M145.453 293.551H148.154V296.273H145.453V293.551Z" fill="#F4F4F4"/>
<path d="M145.453 193.727H148.154V196.449H145.453V193.727Z" fill="#F4F4F4"/>
<path d="M155.358 293.551H158.059V296.273H155.358V293.551Z" fill="#F4F4F4"/>
<path d="M155.358 193.727H158.059V196.449H155.358V193.727Z" fill="#F4F4F4"/>
<path d="M165.263 293.551H167.964V296.273H165.263V293.551Z" fill="#F4F4F4"/>
<path d="M165.263 193.727H167.964V196.449H165.263V193.727Z" fill="#F4F4F4"/>
<path d="M175.168 293.551H177.869V296.273H175.168V293.551Z" fill="#F4F4F4"/>
<path d="M175.168 193.727H177.869V196.449H175.168V193.727Z" fill="#F4F4F4"/>
<path d="M185.073 293.551H187.774V296.273H185.073V293.551Z" fill="#F4F4F4"/>
<path d="M185.073 193.727H187.774V196.449H185.073V193.727Z" fill="#F4F4F4"/>
<path d="M194.977 293.551H197.679V296.273H194.977V293.551Z" fill="#F4F4F4"/>
<path d="M194.977 193.727H197.679V196.449H194.977V193.727Z" fill="#F4F4F4"/>
<path d="M204.882 293.551H207.584V296.273H204.882V293.551Z" fill="#F4F4F4"/>
<path d="M204.882 193.727H207.584V196.449H204.882V193.727Z" fill="#F4F4F4"/>
<path d="M214.787 293.551H217.489V296.273H214.787V293.551Z" fill="#F4F4F4"/>
<path d="M214.787 193.727H217.489V196.449H214.787V193.727Z" fill="#F4F4F4"/>
<path d="M224.692 293.551H227.394V296.273H224.692V293.551Z" fill="#F4F4F4"/>
<path d="M224.692 193.727H227.394V196.449H224.692V193.727Z" fill="#F4F4F4"/>
<path d="M234.597 293.551H237.299V296.273H234.597V293.551Z" fill="#F4F4F4"/>
<path d="M234.597 193.727H237.299V196.449H234.597V193.727Z" fill="#F4F4F4"/>
<path d="M46.4028 302.626H49.1042V305.348H46.4028V302.626Z" fill="#F4F4F4"/>
<path d="M46.4028 202.802H49.1042V205.524H46.4028V202.802Z" fill="#F4F4F4"/>
<path d="M56.3078 302.626H59.0092V305.348H56.3078V302.626Z" fill="#F4F4F4"/>
<path d="M56.3078 202.802H59.0092V205.524H56.3078V202.802Z" fill="#F4F4F4"/>
<path d="M66.2128 302.626H68.9141V305.348H66.2128V302.626Z" fill="#F4F4F4"/>
<path d="M66.2128 202.802H68.9141V205.524H66.2128V202.802Z" fill="#F4F4F4"/>
<path d="M76.1178 302.626H78.8191V305.348H76.1178V302.626Z" fill="#F4F4F4"/>
<path d="M76.1178 202.802H78.8191V205.524H76.1178V202.802Z" fill="#F4F4F4"/>
<path d="M86.0227 302.626H88.7241V305.348H86.0227V302.626Z" fill="#F4F4F4"/>
<path d="M86.0227 202.802H88.7241V205.524H86.0227V202.802Z" fill="#F4F4F4"/>
<path d="M95.9277 302.626H98.6291V305.348H95.9277V302.626Z" fill="#F4F4F4"/>
<path d="M95.9277 202.802H98.6291V205.524H95.9277V202.802Z" fill="#F4F4F4"/>
<path d="M105.833 302.626H108.534V305.348H105.833V302.626Z" fill="#F4F4F4"/>
<path d="M105.833 202.802H108.534V205.524H105.833V202.802Z" fill="#F4F4F4"/>
<path d="M115.738 302.626H118.439V305.348H115.738V302.626Z" fill="#F4F4F4"/>
<path d="M115.738 202.802H118.439V205.524H115.738V202.802Z" fill="#F4F4F4"/>
<path d="M125.643 302.626H128.344V305.348H125.643V302.626Z" fill="#F4F4F4"/>
<path d="M125.643 202.802H128.344V205.524H125.643V202.802Z" fill="#F4F4F4"/>
<path d="M135.548 302.626H138.249V305.348H135.548V302.626Z" fill="#F4F4F4"/>
<path d="M135.548 202.802H138.249V205.524H135.548V202.802Z" fill="#F4F4F4"/>
<path d="M145.453 302.626H148.154V305.348H145.453V302.626Z" fill="#F4F4F4"/>
<path d="M145.453 202.802H148.154V205.524H145.453V202.802Z" fill="#F4F4F4"/>
<path d="M155.358 302.626H158.059V305.348H155.358V302.626Z" fill="#F4F4F4"/>
<path d="M155.358 202.802H158.059V205.524H155.358V202.802Z" fill="#F4F4F4"/>
<path d="M165.263 302.626H167.964V305.348H165.263V302.626Z" fill="#F4F4F4"/>
<path d="M165.263 202.802H167.964V205.524H165.263V202.802Z" fill="#F4F4F4"/>
<path d="M175.168 302.626H177.869V305.348H175.168V302.626Z" fill="#F4F4F4"/>
<path d="M175.168 202.802H177.869V205.524H175.168V202.802Z" fill="#F4F4F4"/>
<path d="M185.073 302.626H187.774V305.348H185.073V302.626Z" fill="#F4F4F4"/>
<path d="M185.073 202.802H187.774V205.524H185.073V202.802Z" fill="#F4F4F4"/>
<path d="M194.977 302.626H197.679V305.348H194.977V302.626Z" fill="#F4F4F4"/>
<path d="M194.977 202.802H197.679V205.524H194.977V202.802Z" fill="#F4F4F4"/>
<path d="M204.882 302.626H207.584V305.348H204.882V302.626Z" fill="#F4F4F4"/>
<path d="M204.882 202.802H207.584V205.524H204.882V202.802Z" fill="#F4F4F4"/>
<path d="M214.787 302.626H217.489V305.348H214.787V302.626Z" fill="#F4F4F4"/>
<path d="M214.787 202.802H217.489V205.524H214.787V202.802Z" fill="#F4F4F4"/>
<path d="M224.692 302.626H227.394V305.348H224.692V302.626Z" fill="#F4F4F4"/>
<path d="M224.692 202.802H227.394V205.524H224.692V202.802Z" fill="#F4F4F4"/>
<path d="M234.597 302.626H237.299V305.348H234.597V302.626Z" fill="#F4F4F4"/>
<path d="M234.597 202.802H237.299V205.524H234.597V202.802Z" fill="#F4F4F4"/>
<path d="M46.4028 311.7H49.1042V314.423H46.4028V311.7Z" fill="#F4F4F4"/>
<path d="M46.4028 211.877H49.1042V214.599H46.4028V211.877Z" fill="#F4F4F4"/>
<path d="M56.3078 311.7H59.0092V314.423H56.3078V311.7Z" fill="#F4F4F4"/>
<path d="M56.3078 211.877H59.0092V214.599H56.3078V211.877Z" fill="#F4F4F4"/>
<path d="M66.2128 311.7H68.9141V314.423H66.2128V311.7Z" fill="#F4F4F4"/>
<path d="M66.2128 211.877H68.9141V214.599H66.2128V211.877Z" fill="#F4F4F4"/>
<path d="M76.1178 311.7H78.8191V314.423H76.1178V311.7Z" fill="#F4F4F4"/>
<path d="M76.1178 211.877H78.8191V214.599H76.1178V211.877Z" fill="#F4F4F4"/>
<path d="M86.0227 311.7H88.7241V314.423H86.0227V311.7Z" fill="#F4F4F4"/>
<path d="M86.0227 211.877H88.7241V214.599H86.0227V211.877Z" fill="#F4F4F4"/>
<path d="M95.9277 311.7H98.6291V314.423H95.9277V311.7Z" fill="#F4F4F4"/>
<path d="M95.9277 211.877H98.6291V214.599H95.9277V211.877Z" fill="#F4F4F4"/>
<path d="M105.833 311.7H108.534V314.423H105.833V311.7Z" fill="#F4F4F4"/>
<path d="M105.833 211.877H108.534V214.599H105.833V211.877Z" fill="#F4F4F4"/>
<path d="M115.738 311.7H118.439V314.423H115.738V311.7Z" fill="#F4F4F4"/>
<path d="M115.738 211.877H118.439V214.599H115.738V211.877Z" fill="#F4F4F4"/>
<path d="M125.643 311.7H128.344V314.423H125.643V311.7Z" fill="#F4F4F4"/>
<path d="M125.643 211.877H128.344V214.599H125.643V211.877Z" fill="#F4F4F4"/>
<path d="M135.548 311.7H138.249V314.423H135.548V311.7Z" fill="#F4F4F4"/>
<path d="M135.548 211.877H138.249V214.599H135.548V211.877Z" fill="#F4F4F4"/>
<path d="M145.453 311.7H148.154V314.423H145.453V311.7Z" fill="#F4F4F4"/>
<path d="M145.453 211.877H148.154V214.599H145.453V211.877Z" fill="#F4F4F4"/>
<path d="M155.358 311.7H158.059V314.423H155.358V311.7Z" fill="#F4F4F4"/>
<path d="M155.358 211.877H158.059V214.599H155.358V211.877Z" fill="#F4F4F4"/>
<path d="M165.263 311.7H167.964V314.423H165.263V311.7Z" fill="#F4F4F4"/>
<path d="M165.263 211.877H167.964V214.599H165.263V211.877Z" fill="#F4F4F4"/>
<path d="M175.168 311.7H177.869V314.423H175.168V311.7Z" fill="#F4F4F4"/>
<path d="M175.168 211.877H177.869V214.599H175.168V211.877Z" fill="#F4F4F4"/>
<path d="M185.073 311.7H187.774V314.423H185.073V311.7Z" fill="#F4F4F4"/>
<path d="M185.073 211.877H187.774V214.599H185.073V211.877Z" fill="#F4F4F4"/>
<path d="M194.977 311.7H197.679V314.423H194.977V311.7Z" fill="#F4F4F4"/>
<path d="M194.977 211.877H197.679V214.599H194.977V211.877Z" fill="#F4F4F4"/>
<path d="M204.882 311.7H207.584V314.423H204.882V311.7Z" fill="#F4F4F4"/>
<path d="M204.882 211.877H207.584V214.599H204.882V211.877Z" fill="#F4F4F4"/>
<path d="M214.787 311.7H217.489V314.423H214.787V311.7Z" fill="#F4F4F4"/>
<path d="M214.787 211.877H217.489V214.599H214.787V211.877Z" fill="#F4F4F4"/>
<path d="M224.692 311.7H227.394V314.423H224.692V311.7Z" fill="#F4F4F4"/>
<path d="M224.692 211.877H227.394V214.599H224.692V211.877Z" fill="#F4F4F4"/>
<path d="M234.597 311.7H237.299V314.423H234.597V311.7Z" fill="#F4F4F4"/>
<path d="M234.597 211.877H237.299V214.599H234.597V211.877Z" fill="#F4F4F4"/>
<path d="M46.4028 320.775H49.1042V323.498H46.4028V320.775Z" fill="#F4F4F4"/>
<path d="M46.4028 220.952H49.1042V223.674H46.4028V220.952Z" fill="#F4F4F4"/>
<path d="M56.3078 320.775H59.0092V323.498H56.3078V320.775Z" fill="#F4F4F4"/>
<path d="M56.3078 220.952H59.0092V223.674H56.3078V220.952Z" fill="#F4F4F4"/>
<path d="M66.2128 320.775H68.9141V323.498H66.2128V320.775Z" fill="#F4F4F4"/>
<path d="M66.2128 220.952H68.9141V223.674H66.2128V220.952Z" fill="#F4F4F4"/>
<path d="M76.1178 320.775H78.8191V323.498H76.1178V320.775Z" fill="#F4F4F4"/>
<path d="M76.1178 220.952H78.8191V223.674H76.1178V220.952Z" fill="#F4F4F4"/>
<path d="M86.0227 320.775H88.7241V323.498H86.0227V320.775Z" fill="#F4F4F4"/>
<path d="M86.0227 220.952H88.7241V223.674H86.0227V220.952Z" fill="#F4F4F4"/>
<path d="M95.9277 320.775H98.6291V323.498H95.9277V320.775Z" fill="#F4F4F4"/>
<path d="M95.9277 220.952H98.6291V223.674H95.9277V220.952Z" fill="#F4F4F4"/>
<path d="M105.833 320.775H108.534V323.498H105.833V320.775Z" fill="#F4F4F4"/>
<path d="M105.833 220.952H108.534V223.674H105.833V220.952Z" fill="#F4F4F4"/>
<path d="M115.738 320.775H118.439V323.498H115.738V320.775Z" fill="#F4F4F4"/>
<path d="M115.738 220.952H118.439V223.674H115.738V220.952Z" fill="#F4F4F4"/>
<path d="M125.643 320.775H128.344V323.498H125.643V320.775Z" fill="#F4F4F4"/>
<path d="M125.643 220.952H128.344V223.674H125.643V220.952Z" fill="#F4F4F4"/>
<path d="M135.548 320.775H138.249V323.498H135.548V320.775Z" fill="#F4F4F4"/>
<path d="M135.548 220.952H138.249V223.674H135.548V220.952Z" fill="#F4F4F4"/>
<path d="M145.453 320.775H148.154V323.498H145.453V320.775Z" fill="#F4F4F4"/>
<path d="M145.453 220.952H148.154V223.674H145.453V220.952Z" fill="#F4F4F4"/>
<path d="M155.358 320.775H158.059V323.498H155.358V320.775Z" fill="#F4F4F4"/>
<path d="M155.358 220.952H158.059V223.674H155.358V220.952Z" fill="#F4F4F4"/>
<path d="M165.263 320.775H167.964V323.498H165.263V320.775Z" fill="#F4F4F4"/>
<path d="M165.263 220.952H167.964V223.674H165.263V220.952Z" fill="#F4F4F4"/>
<path d="M175.168 320.775H177.869V323.498H175.168V320.775Z" fill="#F4F4F4"/>
<path d="M175.168 220.952H177.869V223.674H175.168V220.952Z" fill="#F4F4F4"/>
<path d="M185.073 320.775H187.774V323.498H185.073V320.775Z" fill="#F4F4F4"/>
<path d="M185.073 220.952H187.774V223.674H185.073V220.952Z" fill="#F4F4F4"/>
<path d="M194.977 320.775H197.679V323.498H194.977V320.775Z" fill="#F4F4F4"/>
<path d="M194.977 220.952H197.679V223.674H194.977V220.952Z" fill="#F4F4F4"/>
<path d="M204.882 320.775H207.584V323.498H204.882V320.775Z" fill="#F4F4F4"/>
<path d="M204.882 220.952H207.584V223.674H204.882V220.952Z" fill="#F4F4F4"/>
<path d="M214.787 320.775H217.489V323.498H214.787V320.775Z" fill="#F4F4F4"/>
<path d="M214.787 220.952H217.489V223.674H214.787V220.952Z" fill="#F4F4F4"/>
<path d="M224.692 320.775H227.394V323.498H224.692V320.775Z" fill="#F4F4F4"/>
<path d="M224.692 220.952H227.394V223.674H224.692V220.952Z" fill="#F4F4F4"/>
<path d="M234.597 320.775H237.299V323.498H234.597V320.775Z" fill="#F4F4F4"/>
<path d="M234.597 220.952H237.299V223.674H234.597V220.952Z" fill="#F4F4F4"/>
<path d="M46.4028 329.85H49.1042V332.573H46.4028V329.85Z" fill="#F4F4F4"/>
<path d="M46.4028 230.026H49.1042V232.749H46.4028V230.026Z" fill="#F4F4F4"/>
<path d="M56.3078 329.85H59.0092V332.573H56.3078V329.85Z" fill="#F4F4F4"/>
<path d="M56.3078 230.026H59.0092V232.749H56.3078V230.026Z" fill="#F4F4F4"/>
<path d="M66.2128 329.85H68.9141V332.573H66.2128V329.85Z" fill="#F4F4F4"/>
<path d="M66.2128 230.026H68.9141V232.749H66.2128V230.026Z" fill="#F4F4F4"/>
<path d="M76.1178 329.85H78.8191V332.573H76.1178V329.85Z" fill="#F4F4F4"/>
<path d="M76.1178 230.026H78.8191V232.749H76.1178V230.026Z" fill="#F4F4F4"/>
<path d="M86.0227 329.85H88.7241V332.573H86.0227V329.85Z" fill="#F4F4F4"/>
<path d="M86.0227 230.026H88.7241V232.749H86.0227V230.026Z" fill="#F4F4F4"/>
<path d="M95.9277 329.85H98.6291V332.573H95.9277V329.85Z" fill="#F4F4F4"/>
<path d="M95.9277 230.026H98.6291V232.749H95.9277V230.026Z" fill="#F4F4F4"/>
<path d="M105.833 329.85H108.534V332.573H105.833V329.85Z" fill="#F4F4F4"/>
<path d="M105.833 230.026H108.534V232.749H105.833V230.026Z" fill="#F4F4F4"/>
<path d="M115.738 329.85H118.439V332.573H115.738V329.85Z" fill="#F4F4F4"/>
<path d="M115.738 230.026H118.439V232.749H115.738V230.026Z" fill="#F4F4F4"/>
<path d="M125.643 329.85H128.344V332.573H125.643V329.85Z" fill="#F4F4F4"/>
<path d="M125.643 230.026H128.344V232.749H125.643V230.026Z" fill="#F4F4F4"/>
<path d="M135.548 329.85H138.249V332.573H135.548V329.85Z" fill="#F4F4F4"/>
<path d="M135.548 230.026H138.249V232.749H135.548V230.026Z" fill="#F4F4F4"/>
<path d="M145.453 329.85H148.154V332.573H145.453V329.85Z" fill="#F4F4F4"/>
<path d="M145.453 230.026H148.154V232.749H145.453V230.026Z" fill="#F4F4F4"/>
<path d="M155.358 329.85H158.059V332.573H155.358V329.85Z" fill="#F4F4F4"/>
<path d="M155.358 230.026H158.059V232.749H155.358V230.026Z" fill="#F4F4F4"/>
<path d="M165.263 329.85H167.964V332.573H165.263V329.85Z" fill="#F4F4F4"/>
<path d="M165.263 230.026H167.964V232.749H165.263V230.026Z" fill="#F4F4F4"/>
<path d="M175.168 329.85H177.869V332.573H175.168V329.85Z" fill="#F4F4F4"/>
<path d="M175.168 230.026H177.869V232.749H175.168V230.026Z" fill="#F4F4F4"/>
<path d="M185.073 329.85H187.774V332.573H185.073V329.85Z" fill="#F4F4F4"/>
<path d="M185.073 230.026H187.774V232.749H185.073V230.026Z" fill="#F4F4F4"/>
<path d="M194.977 329.85H197.679V332.573H194.977V329.85Z" fill="#F4F4F4"/>
<path d="M194.977 230.026H197.679V232.749H194.977V230.026Z" fill="#F4F4F4"/>
<path d="M204.882 329.85H207.584V332.573H204.882V329.85Z" fill="#F4F4F4"/>
<path d="M204.882 230.026H207.584V232.749H204.882V230.026Z" fill="#F4F4F4"/>
<path d="M214.787 329.85H217.489V332.573H214.787V329.85Z" fill="#F4F4F4"/>
<path d="M214.787 230.026H217.489V232.749H214.787V230.026Z" fill="#F4F4F4"/>
<path d="M224.692 329.85H227.394V332.573H224.692V329.85Z" fill="#F4F4F4"/>
<path d="M224.692 230.026H227.394V232.749H224.692V230.026Z" fill="#F4F4F4"/>
<path d="M234.597 329.85H237.299V332.573H234.597V329.85Z" fill="#F4F4F4"/>
<path d="M234.597 230.026H237.299V232.749H234.597V230.026Z" fill="#F4F4F4"/>
<path d="M46.4028 338.925H49.1042V341.648H46.4028V338.925Z" fill="#F4F4F4"/>
<path d="M46.4028 239.101H49.1042V241.824H46.4028V239.101Z" fill="#F4F4F4"/>
<path d="M56.3078 338.925H59.0092V341.648H56.3078V338.925Z" fill="#F4F4F4"/>
<path d="M56.3078 239.101H59.0092V241.824H56.3078V239.101Z" fill="#F4F4F4"/>
<path d="M66.2128 338.925H68.9141V341.648H66.2128V338.925Z" fill="#F4F4F4"/>
<path d="M66.2128 239.101H68.9141V241.824H66.2128V239.101Z" fill="#F4F4F4"/>
<path d="M76.1178 338.925H78.8191V341.648H76.1178V338.925Z" fill="#F4F4F4"/>
<path d="M76.1178 239.101H78.8191V241.824H76.1178V239.101Z" fill="#F4F4F4"/>
<path d="M86.0227 338.925H88.7241V341.648H86.0227V338.925Z" fill="#F4F4F4"/>
<path d="M86.0227 239.101H88.7241V241.824H86.0227V239.101Z" fill="#F4F4F4"/>
<path d="M95.9277 338.925H98.6291V341.648H95.9277V338.925Z" fill="#F4F4F4"/>
<path d="M95.9277 239.101H98.6291V241.824H95.9277V239.101Z" fill="#F4F4F4"/>
<path d="M105.833 338.925H108.534V341.648H105.833V338.925Z" fill="#F4F4F4"/>
<path d="M105.833 239.101H108.534V241.824H105.833V239.101Z" fill="#F4F4F4"/>
<path d="M115.738 338.925H118.439V341.648H115.738V338.925Z" fill="#F4F4F4"/>
<path d="M115.738 239.101H118.439V241.824H115.738V239.101Z" fill="#F4F4F4"/>
<path d="M125.643 338.925H128.344V341.648H125.643V338.925Z" fill="#F4F4F4"/>
<path d="M125.643 239.101H128.344V241.824H125.643V239.101Z" fill="#F4F4F4"/>
<path d="M135.548 338.925H138.249V341.648H135.548V338.925Z" fill="#F4F4F4"/>
<path d="M135.548 239.101H138.249V241.824H135.548V239.101Z" fill="#F4F4F4"/>
<path d="M145.453 338.925H148.154V341.648H145.453V338.925Z" fill="#F4F4F4"/>
<path d="M145.453 239.101H148.154V241.824H145.453V239.101Z" fill="#F4F4F4"/>
<path d="M155.358 338.925H158.059V341.648H155.358V338.925Z" fill="#F4F4F4"/>
<path d="M155.358 239.101H158.059V241.824H155.358V239.101Z" fill="#F4F4F4"/>
<path d="M165.263 338.925H167.964V341.648H165.263V338.925Z" fill="#F4F4F4"/>
<path d="M165.263 239.101H167.964V241.824H165.263V239.101Z" fill="#F4F4F4"/>
<path d="M175.168 338.925H177.869V341.648H175.168V338.925Z" fill="#F4F4F4"/>
<path d="M175.168 239.101H177.869V241.824H175.168V239.101Z" fill="#F4F4F4"/>
<path d="M185.073 338.925H187.774V341.648H185.073V338.925Z" fill="#F4F4F4"/>
<path d="M185.073 239.101H187.774V241.824H185.073V239.101Z" fill="#F4F4F4"/>
<path d="M194.977 338.925H197.679V341.648H194.977V338.925Z" fill="#F4F4F4"/>
<path d="M194.977 239.101H197.679V241.824H194.977V239.101Z" fill="#F4F4F4"/>
<path d="M204.882 338.925H207.584V341.648H204.882V338.925Z" fill="#F4F4F4"/>
<path d="M204.882 239.101H207.584V241.824H204.882V239.101Z" fill="#F4F4F4"/>
<path d="M214.787 338.925H217.489V341.648H214.787V338.925Z" fill="#F4F4F4"/>
<path d="M214.787 239.101H217.489V241.824H214.787V239.101Z" fill="#F4F4F4"/>
<path d="M224.692 338.925H227.394V341.648H224.692V338.925Z" fill="#F4F4F4"/>
<path d="M224.692 239.101H227.394V241.824H224.692V239.101Z" fill="#F4F4F4"/>
<path d="M234.597 338.925H237.299V341.648H234.597V338.925Z" fill="#F4F4F4"/>
<path d="M234.597 239.101H237.299V241.824H234.597V239.101Z" fill="#F4F4F4"/>
<path d="M227.534 192.02H111.048V328.633H227.534V192.02Z" fill="#C9C9C9"/>
<path opacity="0.08" d="M220.429 210.433H129.746V319.804H220.429V210.433Z" fill="black"/>
<path d="M214.629 204.133H123.946V313.504H214.629V204.133Z" fill="white"/>
<path d="M147.291 178.46H139.635V210.434H147.291V178.46Z" fill="#F2F2F2"/>
<path d="M199.078 178.46H191.422V210.434H199.078V178.46Z" fill="#F2F2F2"/>
<path d="M203.848 220.847H184.513V240.227H203.848V220.847Z" fill="#6EC1B1"/>
<path d="M203.848 249.129H184.513V268.509H203.848V249.129Z" fill="#6EC1B1"/>
<path d="M203.848 277.418H184.513V296.798H203.848V277.418Z" fill="#6EC1B1"/>
<path d="M175.088 226.42H140.288V234.653H175.088V226.42Z" fill="#A5A5A5"/>
<path opacity="0.44" d="M175.088 254.702H140.288V262.935H175.088V254.702Z" fill="#A5A5A5"/>
<path opacity="0.13" d="M175.088 282.984H140.288V291.217H175.088V282.984Z" fill="#A5A5A5"/>
<path d="M188.862 230.533L192.727 235.503L199.252 226.42" stroke="white" stroke-width="3" stroke-miterlimit="10"/>
<path d="M188.862 258.394L192.727 263.364L199.252 254.281" stroke="white" stroke-width="3" stroke-miterlimit="10"/>
<path d="M188.862 286.254L192.727 291.224L199.252 282.141" stroke="white" stroke-width="3" stroke-miterlimit="10"/>
<g filter="url(#filter1_dd)">
<rect x="120" y="426" width="435" height="112" rx="5" fill="#FEBF39"/>
</g>
<rect x="111.5" y="434.5" width="434" height="111" rx="4.5" fill="white" stroke="#E49B00"/>
<path d="M138.267 463.324H141.095C142.365 463.324 143.391 463.427 144.175 463.632C144.959 463.837 145.65 464.22 146.247 464.78C147.237 465.713 147.731 466.945 147.731 468.476C147.731 469.353 147.545 470.091 147.171 470.688C146.835 471.267 146.369 471.696 145.771 471.976C146.742 472.219 147.545 472.667 148.179 473.32C149.001 474.179 149.411 475.345 149.411 476.82C149.411 478.183 149.001 479.303 148.179 480.18C147.022 481.393 145.277 482 142.943 482H138.267V463.324ZM141.123 466.012V471.36H141.991C143.037 471.36 143.811 471.117 144.315 470.632C144.801 470.165 145.043 469.456 145.043 468.504C145.043 467.739 144.819 467.141 144.371 466.712C143.886 466.245 143.13 466.012 142.103 466.012H141.123ZM141.123 473.712V479.312H142.859C144.147 479.312 145.09 479.069 145.687 478.584C146.303 478.099 146.611 477.408 146.611 476.512C146.611 475.709 146.359 475.056 145.855 474.552C145.277 473.992 144.297 473.712 142.915 473.712H141.123ZM161.63 470.744V473.824C160.64 472.853 159.53 472.368 158.298 472.368C157.252 472.368 156.384 472.713 155.694 473.404C155.022 474.076 154.686 474.981 154.686 476.12C154.686 477.296 155.04 478.239 155.75 478.948C156.422 479.583 157.252 479.9 158.242 479.9C159.604 479.9 160.734 479.396 161.63 478.388V481.44C160.64 482.056 159.446 482.364 158.046 482.364C156.16 482.364 154.667 481.785 153.566 480.628C152.446 479.471 151.886 477.996 151.886 476.204C151.886 474.356 152.483 472.835 153.678 471.64C154.835 470.483 156.412 469.904 158.41 469.904C159.548 469.904 160.622 470.184 161.63 470.744ZM172.519 478.024L174.815 479.312C174.293 480.245 173.63 480.964 172.827 481.468C171.913 482.065 170.755 482.364 169.355 482.364C167.713 482.364 166.387 481.86 165.379 480.852C164.222 479.695 163.643 478.192 163.643 476.344C163.643 474.403 164.269 472.788 165.519 471.5C166.583 470.436 167.899 469.904 169.467 469.904C170.998 469.904 172.258 470.417 173.247 471.444C174.349 472.583 174.899 474.244 174.899 476.428V476.764H166.443C166.518 477.753 166.854 478.547 167.451 479.144C167.955 479.648 168.655 479.9 169.551 479.9C170.279 479.9 170.905 479.704 171.427 479.312C171.857 478.976 172.221 478.547 172.519 478.024ZM166.639 474.524H172.099C171.987 473.871 171.707 473.339 171.259 472.928C170.774 472.48 170.158 472.256 169.411 472.256C168.627 472.256 167.983 472.508 167.479 473.012C167.069 473.385 166.789 473.889 166.639 474.524ZM184.302 470.212H194.55V482H191.806V472.732H187.046V482H184.302V470.212ZM200.773 480.628V488.412H198.029V470.212H200.773V471.5C201.669 470.436 202.836 469.904 204.273 469.904C205.878 469.904 207.232 470.473 208.333 471.612C209.453 472.732 210.013 474.207 210.013 476.036C210.013 477.921 209.434 479.452 208.277 480.628C207.12 481.785 205.794 482.364 204.301 482.364C202.901 482.364 201.725 481.785 200.773 480.628ZM203.937 472.368C203.004 472.368 202.21 472.704 201.557 473.376C200.922 474.029 200.605 474.963 200.605 476.176C200.605 477.352 200.922 478.267 201.557 478.92C202.21 479.573 203.004 479.9 203.937 479.9C204.908 479.9 205.692 479.536 206.289 478.808C206.905 478.08 207.213 477.193 207.213 476.148C207.213 475.084 206.905 474.188 206.289 473.46C205.692 472.732 204.908 472.368 203.937 472.368ZM214.053 471.668C215.266 470.492 216.769 469.904 218.561 469.904C220.353 469.904 221.846 470.492 223.041 471.668C224.254 472.825 224.861 474.309 224.861 476.12C224.861 477.912 224.254 479.405 223.041 480.6C221.846 481.776 220.353 482.364 218.561 482.364C216.769 482.364 215.266 481.776 214.053 480.6C212.858 479.405 212.261 477.912 212.261 476.12C212.261 474.309 212.858 472.825 214.053 471.668ZM216.013 478.892C216.647 479.564 217.497 479.9 218.561 479.9C219.625 479.9 220.474 479.564 221.109 478.892C221.743 478.201 222.061 477.287 222.061 476.148C222.061 474.897 221.715 473.955 221.025 473.32C220.353 472.685 219.531 472.368 218.561 472.368C217.59 472.368 216.759 472.685 216.069 473.32C215.397 473.955 215.061 474.897 215.061 476.148C215.061 477.287 215.378 478.201 216.013 478.892ZM236.852 470.744V473.824C235.863 472.853 234.752 472.368 233.52 472.368C232.475 472.368 231.607 472.713 230.916 473.404C230.244 474.076 229.908 474.981 229.908 476.12C229.908 477.296 230.263 478.239 230.972 478.948C231.644 479.583 232.475 479.9 233.464 479.9C234.827 479.9 235.956 479.396 236.852 478.388V481.44C235.863 482.056 234.668 482.364 233.268 482.364C231.383 482.364 229.89 481.785 228.788 480.628C227.668 479.471 227.108 477.996 227.108 476.204C227.108 474.356 227.706 472.835 228.9 471.64C230.058 470.483 231.635 469.904 233.632 469.904C234.771 469.904 235.844 470.184 236.852 470.744ZM247.876 472.732H244.432V482H241.688V472.732H238.244V470.212H247.876V472.732ZM250.721 471.668C251.934 470.492 253.437 469.904 255.229 469.904C257.021 469.904 258.514 470.492 259.709 471.668C260.922 472.825 261.529 474.309 261.529 476.12C261.529 477.912 260.922 479.405 259.709 480.6C258.514 481.776 257.021 482.364 255.229 482.364C253.437 482.364 251.934 481.776 250.721 480.6C249.526 479.405 248.929 477.912 248.929 476.12C248.929 474.309 249.526 472.825 250.721 471.668ZM252.681 478.892C253.315 479.564 254.165 479.9 255.229 479.9C256.293 479.9 257.142 479.564 257.777 478.892C258.411 478.201 258.729 477.287 258.729 476.148C258.729 474.897 258.383 473.955 257.693 473.32C257.021 472.685 256.199 472.368 255.229 472.368C254.258 472.368 253.427 472.685 252.737 473.32C252.065 473.955 251.729 474.897 251.729 476.148C251.729 477.287 252.046 478.201 252.681 478.892ZM264.98 472.788C264.663 472.452 264.504 472.051 264.504 471.584C264.504 471.117 264.663 470.725 264.98 470.408C265.316 470.072 265.718 469.904 266.184 469.904C266.651 469.904 267.043 470.072 267.36 470.408C267.696 470.725 267.864 471.117 267.864 471.584C267.864 472.051 267.696 472.452 267.36 472.788C267.043 473.105 266.651 473.264 266.184 473.264C265.718 473.264 265.316 473.105 264.98 472.788ZM264.98 481.888C264.663 481.552 264.504 481.151 264.504 480.684C264.504 480.217 264.663 479.825 264.98 479.508C265.316 479.172 265.718 479.004 266.184 479.004C266.651 479.004 267.043 479.172 267.36 479.508C267.696 479.825 267.864 480.217 267.864 480.684C267.864 481.151 267.696 481.552 267.36 481.888C267.043 482.205 266.651 482.364 266.184 482.364C265.718 482.364 265.316 482.205 264.98 481.888ZM278.486 463.324H281.314C282.583 463.324 283.61 463.427 284.394 463.632C285.178 463.837 285.869 464.22 286.466 464.78C287.455 465.713 287.95 466.945 287.95 468.476C287.95 469.353 287.763 470.091 287.39 470.688C287.054 471.267 286.587 471.696 285.99 471.976C286.961 472.219 287.763 472.667 288.398 473.32C289.219 474.179 289.63 475.345 289.63 476.82C289.63 478.183 289.219 479.303 288.398 480.18C287.241 481.393 285.495 482 283.162 482H278.486V463.324ZM281.342 466.012V471.36H282.21C283.255 471.36 284.03 471.117 284.534 470.632C285.019 470.165 285.262 469.456 285.262 468.504C285.262 467.739 285.038 467.141 284.59 466.712C284.105 466.245 283.349 466.012 282.322 466.012H281.342ZM281.342 473.712V479.312H283.078C284.366 479.312 285.309 479.069 285.906 478.584C286.522 478.099 286.83 477.408 286.83 476.512C286.83 475.709 286.578 475.056 286.074 474.552C285.495 473.992 284.515 473.712 283.134 473.712H281.342ZM292.72 482V470.212H295.464V474.384H297.032C297.536 474.384 297.947 474.403 298.264 474.44C298.582 474.459 298.964 474.561 299.412 474.748C299.86 474.935 300.252 475.215 300.588 475.588C301.204 476.279 301.512 477.137 301.512 478.164C301.512 479.34 301.158 480.283 300.448 480.992C300.131 481.309 299.748 481.552 299.3 481.72C298.871 481.869 298.507 481.953 298.208 481.972C297.928 481.991 297.527 482 297.004 482H292.72ZM295.464 479.648H296.724C297.396 479.648 297.872 479.564 298.152 479.396C298.563 479.097 298.768 478.696 298.768 478.192C298.768 477.669 298.572 477.277 298.18 477.016C297.882 476.829 297.406 476.736 296.752 476.736H295.464V479.648ZM302.744 482V470.212H305.488V482H302.744ZM316.506 470.212H325.354V479.48H327.146V485.36H324.626V482H316.394V485.36H313.874V479.48C314.826 479.424 315.544 478.911 316.03 477.94C316.347 477.249 316.506 476.213 316.506 474.832V470.212ZM322.61 479.48V472.732H319.138V475.868C319.138 477.567 318.68 478.771 317.766 479.48H322.61ZM337.375 478.024L339.671 479.312C339.148 480.245 338.486 480.964 337.683 481.468C336.768 482.065 335.611 482.364 334.211 482.364C332.568 482.364 331.243 481.86 330.235 480.852C329.078 479.695 328.499 478.192 328.499 476.344C328.499 474.403 329.124 472.788 330.375 471.5C331.439 470.436 332.755 469.904 334.323 469.904C335.854 469.904 337.114 470.417 338.103 471.444C339.204 472.583 339.755 474.244 339.755 476.428V476.764H331.299C331.374 477.753 331.71 478.547 332.307 479.144C332.811 479.648 333.511 479.9 334.407 479.9C335.135 479.9 335.76 479.704 336.283 479.312C336.712 478.976 337.076 478.547 337.375 478.024ZM331.495 474.524H336.955C336.843 473.871 336.563 473.339 336.115 472.928C335.63 472.48 335.014 472.256 334.267 472.256C333.483 472.256 332.839 472.508 332.335 473.012C331.924 473.385 331.644 473.889 331.495 474.524ZM352.311 470.212V482H349.567V472.732H346.095V477.408C346.095 478.864 345.721 479.993 344.975 480.796C344.023 481.86 342.735 482.261 341.111 482V479.48C341.913 479.667 342.557 479.489 343.043 478.948C343.323 478.612 343.463 478.099 343.463 477.408V470.212H352.311ZM364.399 471.584V470.212H367.143V482H364.399V480.768C363.484 481.832 362.308 482.364 360.871 482.364C359.135 482.364 357.744 481.748 356.699 480.516C355.672 479.284 355.159 477.809 355.159 476.092C355.159 474.225 355.71 472.732 356.811 471.612C357.931 470.473 359.294 469.904 360.899 469.904C362.374 469.904 363.54 470.464 364.399 471.584ZM361.235 472.368C360.264 472.368 359.471 472.732 358.855 473.46C358.258 474.188 357.959 475.084 357.959 476.148C357.959 477.193 358.258 478.08 358.855 478.808C359.471 479.536 360.264 479.9 361.235 479.9C362.168 479.9 362.952 479.573 363.587 478.92C364.24 478.267 364.567 477.352 364.567 476.176C364.567 474.963 364.24 474.029 363.587 473.376C362.952 472.704 362.168 472.368 361.235 472.368ZM378.883 478.024L381.179 479.312C380.656 480.245 379.993 480.964 379.191 481.468C378.276 482.065 377.119 482.364 375.719 482.364C374.076 482.364 372.751 481.86 371.743 480.852C370.585 479.695 370.007 478.192 370.007 476.344C370.007 474.403 370.632 472.788 371.883 471.5C372.947 470.436 374.263 469.904 375.831 469.904C377.361 469.904 378.621 470.417 379.611 471.444C380.712 472.583 381.263 474.244 381.263 476.428V476.764H372.807C372.881 477.753 373.217 478.547 373.815 479.144C374.319 479.648 375.019 479.9 375.915 479.9C376.643 479.9 377.268 479.704 377.791 479.312C378.22 478.976 378.584 478.547 378.883 478.024ZM373.003 474.524H378.463C378.351 473.871 378.071 473.339 377.623 472.928C377.137 472.48 376.521 472.256 375.775 472.256C374.991 472.256 374.347 472.508 373.843 473.012C373.432 473.385 373.152 473.889 373.003 474.524ZM392.251 472.732H388.807V482H386.063V472.732H382.619V470.212H392.251V472.732ZM402.18 478.024L404.476 479.312C403.953 480.245 403.29 480.964 402.488 481.468C401.573 482.065 400.416 482.364 399.016 482.364C397.373 482.364 396.048 481.86 395.04 480.852C393.882 479.695 393.304 478.192 393.304 476.344C393.304 474.403 393.929 472.788 395.18 471.5C396.244 470.436 397.56 469.904 399.128 469.904C400.658 469.904 401.918 470.417 402.908 471.444C404.009 472.583 404.56 474.244 404.56 476.428V476.764H396.104C396.178 477.753 396.514 478.547 397.112 479.144C397.616 479.648 398.316 479.9 399.212 479.9C399.94 479.9 400.565 479.704 401.088 479.312C401.517 478.976 401.881 478.547 402.18 478.024ZM396.3 474.524H401.76C401.648 473.871 401.368 473.339 400.92 472.928C400.434 472.48 399.818 472.256 399.072 472.256C398.288 472.256 397.644 472.508 397.14 473.012C396.729 473.385 396.449 473.889 396.3 474.524ZM423.091 470.744V473.824C422.101 472.853 420.991 472.368 419.759 472.368C418.713 472.368 417.845 472.713 417.155 473.404C416.483 474.076 416.147 474.981 416.147 476.12C416.147 477.296 416.501 478.239 417.211 478.948C417.883 479.583 418.713 479.9 419.703 479.9C421.065 479.9 422.195 479.396 423.091 478.388V481.44C422.101 482.056 420.907 482.364 419.507 482.364C417.621 482.364 416.128 481.785 415.027 480.628C413.907 479.471 413.347 477.996 413.347 476.204C413.347 474.356 413.944 472.835 415.139 471.64C416.296 470.483 417.873 469.904 419.871 469.904C421.009 469.904 422.083 470.184 423.091 470.744ZM425.72 470.212H428.464V474.412L432.384 470.212H436.024L430.872 475.364L436.304 482H432.832L428.912 477.156L428.464 477.604V482H425.72V470.212ZM438.107 470.212H440.851V476.904L448.915 469.148V482H446.171V475.14L438.107 482.896V470.212ZM453.389 470.212H462.237V479.48H464.029V485.36H461.509V482H453.277V485.36H450.757V479.48C451.709 479.424 452.427 478.911 452.913 477.94C453.23 477.249 453.389 476.213 453.389 474.832V470.212ZM459.493 479.48V472.732H456.021V475.868C456.021 477.567 455.563 478.771 454.649 479.48H459.493ZM465.998 470.212H468.742V474.412L472.662 470.212H476.302L471.15 475.364L476.582 482H473.11L469.19 477.156L468.742 477.604V482H465.998V470.212ZM478.384 470.212H481.128V476.904L489.192 469.148V482H486.448V475.14L478.384 482.896V470.212ZM499.417 477.296V474.776H519.017V477.296H499.417ZM170.599 517L173.455 504.148L178.327 513.136L183.199 504.148L186.055 517H183.255L182.079 511.092L178.327 517.896L174.575 511.092L173.399 517H170.599ZM188.185 517V505.212H190.929V509.384H192.497C193.001 509.384 193.412 509.403 193.729 509.44C194.047 509.459 194.429 509.561 194.877 509.748C195.325 509.935 195.717 510.215 196.053 510.588C196.669 511.279 196.977 512.137 196.977 513.164C196.977 514.34 196.623 515.283 195.913 515.992C195.596 516.309 195.213 516.552 194.765 516.72C194.336 516.869 193.972 516.953 193.673 516.972C193.393 516.991 192.992 517 192.469 517H188.185ZM190.929 514.648H192.189C192.861 514.648 193.337 514.564 193.617 514.396C194.028 514.097 194.233 513.696 194.233 513.192C194.233 512.669 194.037 512.277 193.645 512.016C193.347 511.829 192.871 511.736 192.217 511.736H190.929V514.648ZM198.209 517V505.212H200.953V517H198.209ZM210.963 505.212H221.211V517H218.467V507.732H213.707V517H210.963V505.212ZM227.433 515.628V523.412H224.689V505.212H227.433V506.5C228.329 505.436 229.496 504.904 230.933 504.904C232.538 504.904 233.892 505.473 234.993 506.612C236.113 507.732 236.673 509.207 236.673 511.036C236.673 512.921 236.094 514.452 234.937 515.628C233.78 516.785 232.454 517.364 230.961 517.364C229.561 517.364 228.385 516.785 227.433 515.628ZM230.597 507.368C229.664 507.368 228.87 507.704 228.217 508.376C227.582 509.029 227.265 509.963 227.265 511.176C227.265 512.352 227.582 513.267 228.217 513.92C228.87 514.573 229.664 514.9 230.597 514.9C231.568 514.9 232.352 514.536 232.949 513.808C233.565 513.08 233.873 512.193 233.873 511.148C233.873 510.084 233.565 509.188 232.949 508.46C232.352 507.732 231.568 507.368 230.597 507.368ZM239.537 505.212H242.281V511.904L250.345 504.148V517H247.601V510.14L239.537 517.896V505.212ZM253.81 505.212H258.43C259.606 505.212 260.502 505.445 261.118 505.912C261.846 506.491 262.21 507.247 262.21 508.18C262.21 509.244 261.744 510.009 260.81 510.476C261.408 510.588 261.94 510.849 262.406 511.26C263.022 511.82 263.33 512.576 263.33 513.528C263.33 514.667 262.901 515.563 262.042 516.216C261.333 516.739 260.428 517 259.326 517H253.81V505.212ZM256.554 509.804H257.954C258.44 509.804 258.804 509.72 259.046 509.552C259.401 509.328 259.578 509.011 259.578 508.6C259.578 508.208 259.42 507.9 259.102 507.676C258.878 507.527 258.477 507.452 257.898 507.452H256.554V509.804ZM256.554 514.76H258.598C259.214 514.76 259.69 514.648 260.026 514.424C260.4 514.181 260.586 513.836 260.586 513.388C260.586 512.903 260.409 512.557 260.054 512.352C259.737 512.147 259.28 512.044 258.682 512.044H256.554V514.76ZM267.373 506.668C268.586 505.492 270.089 504.904 271.881 504.904C273.673 504.904 275.166 505.492 276.361 506.668C277.574 507.825 278.181 509.309 278.181 511.12C278.181 512.912 277.574 514.405 276.361 515.6C275.166 516.776 273.673 517.364 271.881 517.364C270.089 517.364 268.586 516.776 267.373 515.6C266.178 514.405 265.581 512.912 265.581 511.12C265.581 509.309 266.178 507.825 267.373 506.668ZM269.333 513.892C269.968 514.564 270.817 514.9 271.881 514.9C272.945 514.9 273.794 514.564 274.429 513.892C275.064 513.201 275.381 512.287 275.381 511.148C275.381 509.897 275.036 508.955 274.345 508.32C273.673 507.685 272.852 507.368 271.881 507.368C270.91 507.368 270.08 507.685 269.389 508.32C268.717 508.955 268.381 509.897 268.381 511.148C268.381 512.287 268.698 513.201 269.333 513.892ZM282.053 505.212H290.901V514.48H292.693V520.36H290.173V517H281.941V520.36H279.421V514.48C280.373 514.424 281.091 513.911 281.577 512.94C281.894 512.249 282.053 511.213 282.053 509.832V505.212ZM288.157 514.48V507.732H284.685V510.868C284.685 512.567 284.227 513.771 283.313 514.48H288.157ZM294.662 505.212H297.406V511.904L305.47 504.148V517H302.726V510.14L294.662 517.896V505.212ZM307.591 517L310.447 504.148L315.319 513.136L320.191 504.148L323.047 517H320.247L319.071 511.092L315.319 517.896L311.567 511.092L310.391 517H307.591ZM332.217 498.324H335.045C336.314 498.324 337.341 498.427 338.125 498.632C338.909 498.837 339.599 499.22 340.197 499.78C341.186 500.713 341.681 501.945 341.681 503.476C341.681 504.353 341.494 505.091 341.121 505.688C340.785 506.267 340.318 506.696 339.721 506.976C340.691 507.219 341.494 507.667 342.129 508.32C342.95 509.179 343.361 510.345 343.361 511.82C343.361 513.183 342.95 514.303 342.129 515.18C340.971 516.393 339.226 517 336.893 517H332.217V498.324ZM335.073 501.012V506.36H335.941C336.986 506.36 337.761 506.117 338.265 505.632C338.75 505.165 338.993 504.456 338.993 503.504C338.993 502.739 338.769 502.141 338.321 501.712C337.835 501.245 337.079 501.012 336.053 501.012H335.073ZM335.073 508.712V514.312H336.809C338.097 514.312 339.039 514.069 339.637 513.584C340.253 513.099 340.561 512.408 340.561 511.512C340.561 510.709 340.309 510.056 339.805 509.552C339.226 508.992 338.246 508.712 336.865 508.712H335.073ZM355.075 506.584V505.212H357.819V517H355.075V515.768C354.16 516.832 352.984 517.364 351.547 517.364C349.811 517.364 348.42 516.748 347.375 515.516C346.348 514.284 345.835 512.809 345.835 511.092C345.835 509.225 346.386 507.732 347.487 506.612C348.607 505.473 349.97 504.904 351.575 504.904C353.05 504.904 354.216 505.464 355.075 506.584ZM351.911 507.368C350.94 507.368 350.147 507.732 349.531 508.46C348.934 509.188 348.635 510.084 348.635 511.148C348.635 512.193 348.934 513.08 349.531 513.808C350.147 514.536 350.94 514.9 351.911 514.9C352.844 514.9 353.628 514.573 354.263 513.92C354.916 513.267 355.243 512.352 355.243 511.176C355.243 509.963 354.916 509.029 354.263 508.376C353.628 507.704 352.844 507.368 351.911 507.368ZM359.955 517L362.811 504.148L367.683 513.136L372.555 504.148L375.411 517H372.611L371.435 511.092L367.683 517.896L363.931 511.092L362.755 517H359.955ZM384.076 505.212H386.82V509.412L390.74 505.212H394.38L389.228 510.364L394.66 517H391.188L387.268 512.156L386.82 512.604V517H384.076V505.212ZM406.424 505.212V517H403.68V507.732H400.208V512.408C400.208 513.864 399.835 514.993 399.088 515.796C398.136 516.86 396.848 517.261 395.224 517V514.48C396.027 514.667 396.671 514.489 397.156 513.948C397.436 513.612 397.576 513.099 397.576 512.408V505.212H406.424ZM409.888 505.212H412.632V511.904L420.696 504.148V517H417.952V510.14L409.888 517.896V505.212ZM432.422 513.024L434.718 514.312C434.195 515.245 433.532 515.964 432.73 516.468C431.815 517.065 430.658 517.364 429.258 517.364C427.615 517.364 426.29 516.86 425.282 515.852C424.124 514.695 423.546 513.192 423.546 511.344C423.546 509.403 424.171 507.788 425.422 506.5C426.486 505.436 427.802 504.904 429.37 504.904C430.9 504.904 432.16 505.417 433.15 506.444C434.251 507.583 434.802 509.244 434.802 511.428V511.764H426.346C426.42 512.753 426.756 513.547 427.354 514.144C427.858 514.648 428.558 514.9 429.454 514.9C430.182 514.9 430.807 514.704 431.33 514.312C431.759 513.976 432.123 513.547 432.422 513.024ZM426.542 509.524H432.002C431.89 508.871 431.61 508.339 431.162 507.928C430.676 507.48 430.06 507.256 429.314 507.256C428.53 507.256 427.886 507.508 427.382 508.012C426.971 508.385 426.691 508.889 426.542 509.524ZM437.67 517V505.212H440.414V509.58H445.286V505.212H448.03V517H445.286V512.1H440.414V517H437.67ZM459.626 507.732H456.182V517H453.438V507.732H449.994V505.212H459.626V507.732ZM462.471 506.668C463.684 505.492 465.187 504.904 466.979 504.904C468.771 504.904 470.264 505.492 471.459 506.668C472.672 507.825 473.279 509.309 473.279 511.12C473.279 512.912 472.672 514.405 471.459 515.6C470.264 516.776 468.771 517.364 466.979 517.364C465.187 517.364 463.684 516.776 462.471 515.6C461.276 514.405 460.679 512.912 460.679 511.12C460.679 509.309 461.276 507.825 462.471 506.668ZM464.431 513.892C465.065 514.564 465.915 514.9 466.979 514.9C468.043 514.9 468.892 514.564 469.527 513.892C470.161 513.201 470.479 512.287 470.479 511.148C470.479 509.897 470.133 508.955 469.443 508.32C468.771 507.685 467.949 507.368 466.979 507.368C466.008 507.368 465.177 507.685 464.487 508.32C463.815 508.955 463.479 509.897 463.479 511.148C463.479 512.287 463.796 513.201 464.431 513.892ZM476.142 505.212H480.762C481.938 505.212 482.834 505.445 483.45 505.912C484.178 506.491 484.542 507.247 484.542 508.18C484.542 509.244 484.076 510.009 483.142 510.476C483.74 510.588 484.272 510.849 484.738 511.26C485.354 511.82 485.662 512.576 485.662 513.528C485.662 514.667 485.233 515.563 484.374 516.216C483.665 516.739 482.76 517 481.658 517H476.142V505.212ZM478.886 509.804H480.286C480.772 509.804 481.136 509.72 481.378 509.552C481.733 509.328 481.91 509.011 481.91 508.6C481.91 508.208 481.752 507.9 481.434 507.676C481.21 507.527 480.809 507.452 480.23 507.452H478.886V509.804ZM478.886 514.76H480.93C481.546 514.76 482.022 514.648 482.358 514.424C482.732 514.181 482.918 513.836 482.918 513.388C482.918 512.903 482.741 512.557 482.386 512.352C482.069 512.147 481.612 512.044 481.014 512.044H478.886V514.76Z" fill="#475762"/>
<path d="M130 1H312V202" stroke="#475762" stroke-dasharray="2 3"/>
<defs>
<filter id="filter0_dd" x="25" y="167" width="437" height="351" filterUnits="userSpaceOnUse" color-interpolation-filters="sRGB">
<feFlood flood-opacity="0" result="BackgroundImageFix"/>
<feColorMatrix in="SourceAlpha" type="matrix" values="0 0 0 0 0 0 0 0 0 0 0 0 0 0 0 0 0 0 127 0"/>
<feMorphology radius="6" operator="dilate" in="SourceAlpha" result="effect1_dropShadow"/>
<feOffset dx="-1" dy="5"/>
<feGaussianBlur stdDeviation="17"/>
<feColorMatrix type="matrix" values="0 0 0 0 0 0 0 0 0 0 0 0 0 0 0 0 0 0 0.06 0"/>
<feBlend mode="normal" in2="BackgroundImageFix" result="effect1_dropShadow"/>
<feColorMatrix in="SourceAlpha" type="matrix" values="0 0 0 0 0 0 0 0 0 0 0 0 0 0 0 0 0 0 127 0"/>
<feOffset dy="4"/>
<feGaussianBlur stdDeviation="2"/>
<feColorMatrix type="matrix" values="0 0 0 0 0 0 0 0 0 0 0 0 0 0 0 0 0 0 0.04 0"/>
<feBlend mode="normal" in2="effect1_dropShadow" result="effect2_dropShadow"/>
<feBlend mode="normal" in="SourceGraphic" in2="effect2_dropShadow" result="shape"/>
</filter>
<filter id="filter1_dd" x="105" y="414" width="483" height="160" filterUnits="userSpaceOnUse" color-interpolation-filters="sRGB">
<feFlood flood-opacity="0" result="BackgroundImageFix"/>
<feColorMatrix in="SourceAlpha" type="matrix" values="0 0 0 0 0 0 0 0 0 0 0 0 0 0 0 0 0 0 127 0"/>
<feOffset dx="9" dy="12"/>
<feGaussianBlur stdDeviation="12"/>
<feColorMatrix type="matrix" values="0 0 0 0 0 0 0 0 0 0 0 0 0 0 0 0 0 0 0.07 0"/>
<feBlend mode="normal" in2="BackgroundImageFix" result="effect1_dropShadow"/>
<feColorMatrix in="SourceAlpha" type="matrix" values="0 0 0 0 0 0 0 0 0 0 0 0 0 0 0 0 0 0 127 0"/>
<feOffset dy="3"/>
<feGaussianBlur stdDeviation="1.5"/>
<feColorMatrix type="matrix" values="0 0 0 0 0 0 0 0 0 0 0 0 0 0 0 0 0 0 0.03 0"/>
<feBlend mode="normal" in2="effect1_dropShadow" result="effect2_dropShadow"/>
<feBlend mode="normal" in="SourceGraphic" in2="effect2_dropShadow" result="shape"/>
</filter>
</defs>
</svg>
