<svg width="660" height="561" viewBox="0 0 660 561" fill="none" xmlns="http://www.w3.org/2000/svg">
<g filter="url(#filter0_dd)">
<rect x="125" y="63" width="443" height="406" rx="10" fill="white"/>
<rect x="126" y="64" width="441" height="404" rx="9" stroke="#475762" stroke-width="2" stroke-dasharray="5 5"/>
</g>
<path opacity="0.86" d="M497.661 124.118H205.339V313.639H497.661V124.118Z" fill="#C9C9C9"/>
<path d="M329.412 291.994L318.311 362.371H392.362L375.331 291.994H329.412Z" fill="#C9C9C9"/>
<path opacity="0.45" d="M353.29 386.905C420.286 386.905 474.597 380.527 474.597 372.66C474.597 364.793 420.286 358.415 353.29 358.415C286.294 358.415 231.983 364.793 231.983 372.66C231.983 380.527 286.294 386.905 353.29 386.905Z" fill="#E6E6E6"/>
<path opacity="0.58" d="M432.642 358.16C432.642 358.16 422.122 355.295 419.855 345.528C419.855 345.528 436.13 342.245 436.618 359.03L432.642 358.16Z" fill="#FEBF39"/>
<path opacity="0.73" d="M433.933 357.104C433.933 357.104 426.586 345.504 433.049 334.67C433.049 334.67 445.43 342.523 439.931 357.128L433.933 357.104Z" fill="#FEBF39"/>
<path d="M435.816 357.104C435.816 357.104 439.699 344.866 451.44 342.546C451.44 342.546 453.637 350.492 443.837 357.139L435.816 357.104Z" fill="#FEBF39"/>
<path d="M428.19 356.838L430.329 371.384L443.756 371.442L445.732 356.907L428.19 356.838Z" fill="#475762"/>
<path d="M497.661 270.348H205.339V313.639H497.661V270.348Z" fill="#E6E6E6"/>
<path d="M353.127 301.123C359.612 301.123 364.869 295.877 364.869 289.407C364.869 282.936 359.612 277.691 353.127 277.691C346.643 277.691 341.386 282.936 341.386 289.407C341.386 295.877 346.643 301.123 353.127 301.123Z" fill="#A5A5A5"/>
<path d="M405.556 350.04H301.408V372.66H405.556V350.04Z" fill="#E6E6E6"/>
<path d="M526.201 243.169H448.894V293.502H526.201V243.169Z" fill="#FFC854"/>
<path d="M475.527 254.804V281.867L503.753 266.613L475.527 254.804Z" fill="white"/>
<path d="M246.247 193.382H170.104V244.364H246.247V193.382Z" fill="#E6E6E6"/>
<path d="M170.092 193.382L208.164 229.516L246.236 193.382H170.092Z" fill="#C9C9C9"/>
<path d="M406.948 140.859H294.969V166.347H406.948V140.859Z" fill="white"/>
<path d="M327.259 178.308H294.969V193.392H327.259V178.308Z" fill="white"/>
<path d="M366.845 178.308H334.554V193.392H366.845V178.308Z" fill="white"/>
<path d="M406.43 178.308H374.14V193.392H406.43V178.308Z" fill="white"/>
<path d="M354.531 233.514C354.531 232.994 354.531 231.954 354.531 231.434C356.093 230.393 357.656 229.353 359.218 228.313C358.697 226.232 358.177 224.152 357.135 221.551C355.051 221.551 353.489 221.551 351.406 221.551C350.885 220.511 349.843 218.951 348.802 217.91C349.323 216.35 350.364 214.269 350.885 212.709C349.323 211.148 347.239 210.108 345.156 208.548C343.594 209.588 342.031 211.148 340.469 212.189C338.906 211.669 337.865 211.149 336.302 210.628C335.781 209.068 335.261 206.987 334.74 204.907C332.656 204.907 330.052 204.907 327.968 204.907C327.447 206.988 326.927 208.548 326.406 210.628C324.843 211.149 323.802 211.149 322.239 212.189C320.677 211.149 319.114 209.588 317.552 208.548C315.468 209.588 313.906 211.148 311.823 212.709C312.344 214.269 313.385 216.35 313.906 217.91C312.865 218.95 312.344 219.991 311.302 221.551C309.219 221.551 307.656 221.551 305.573 221.551C304.532 223.632 304.011 225.712 303.49 228.313C305.052 229.353 306.615 230.393 308.177 231.434C308.177 231.954 308.177 232.994 308.177 233.514C308.177 234.034 308.177 235.075 308.177 235.595C306.615 236.635 305.052 237.676 303.49 238.716C304.011 240.796 304.531 242.876 305.573 245.477C307.657 245.477 309.219 245.477 311.302 245.477C311.823 246.517 312.865 248.078 313.906 249.118C313.385 250.679 312.344 252.759 311.823 254.32C313.385 255.88 315.469 256.92 317.552 258.481C319.114 257.441 320.677 255.88 322.239 254.84C323.802 255.36 324.843 255.88 326.406 256.4C326.927 257.96 327.447 260.041 327.968 262.121C330.052 262.121 332.656 262.121 334.74 262.121C335.261 260.04 335.781 258.48 336.302 256.4C337.865 255.88 338.906 255.88 340.469 254.84C342.031 255.88 343.594 257.44 345.156 258.481C347.24 257.441 348.802 255.88 350.885 254.32C350.364 252.759 349.323 250.679 348.802 249.118C349.843 248.078 350.364 247.038 351.406 245.477C353.489 245.477 355.052 245.477 357.135 245.477C358.176 243.397 358.697 241.317 359.218 238.716C357.656 237.676 356.093 236.635 354.531 235.595C354.531 235.075 354.531 234.554 354.531 233.514ZM340.468 242.356C337.864 244.957 334.739 245.997 331.614 245.997C328.489 245.997 325.364 244.957 322.76 242.356C318.072 237.675 318.072 229.873 322.76 224.672C327.447 219.991 335.26 219.991 340.469 224.672C345.677 229.873 345.677 237.675 340.468 242.356Z" fill="#6EC1B1"/>
<path d="M387.754 217.316C387.754 216.796 387.233 216.796 387.233 216.276C387.754 215.236 388.275 214.716 389.317 213.676C388.796 212.636 387.754 211.595 386.713 210.555C385.671 211.075 384.629 211.595 383.588 211.595C383.067 211.075 382.025 210.555 381.504 210.035C381.504 208.995 381.504 207.954 381.504 206.914C380.463 206.394 378.9 205.873 377.858 205.873C377.337 206.913 376.817 207.954 376.296 208.474C375.254 208.474 374.733 208.474 373.692 208.474C373.171 207.434 372.65 206.913 371.608 205.873C370.567 206.394 369.004 206.913 367.962 207.434C367.962 208.474 367.962 209.514 367.962 210.554C367.441 211.075 366.4 211.594 365.879 212.115C364.837 211.594 363.795 211.594 362.754 211.075C361.712 212.115 361.191 213.155 360.67 214.195C361.191 215.236 362.233 215.756 362.754 216.796C363.275 217.836 363.275 218.356 363.275 219.396C362.233 219.917 361.191 219.917 360.15 220.436C360.15 221.477 360.15 223.037 360.15 224.077C361.191 224.077 362.233 224.598 363.275 224.598C363.275 225.118 363.275 225.118 363.796 225.638C363.796 226.158 364.317 226.158 364.317 226.678C363.796 227.718 363.275 228.238 362.233 229.278C362.754 230.318 363.796 231.359 364.837 232.399C365.879 231.879 366.921 231.359 367.962 231.359C368.483 231.879 369.525 232.399 370.046 232.919C370.046 233.96 370.046 235 370.046 236.04C371.087 236.56 372.65 237.081 373.691 237.081C374.212 236.041 374.733 235 375.254 234.48C376.295 234.48 376.816 234.48 377.858 234.48C378.379 235.52 378.9 236.041 379.942 237.081C380.983 236.56 382.546 236.041 383.588 235.52C383.588 234.48 383.588 233.44 383.588 232.4C384.109 231.879 385.15 231.36 385.671 230.839C386.713 231.36 387.755 231.36 388.796 231.879C389.838 230.839 390.359 229.799 390.88 228.759C390.359 227.719 389.317 227.198 388.796 226.158C389.317 225.638 389.317 224.598 389.317 224.077C390.359 223.557 391.401 223.557 392.442 223.037C392.442 221.997 392.442 220.437 392.442 219.396C391.401 219.396 390.359 218.876 389.317 218.876C388.275 217.836 388.275 217.836 387.754 217.316ZM382.025 224.598C380.984 226.158 379.942 227.719 377.858 228.239C376.296 228.759 374.212 228.759 372.65 228.239C369.004 226.678 367.441 222.518 369.004 218.877C370.566 215.236 374.733 213.675 378.379 215.236C382.025 216.796 383.588 220.957 382.025 224.598Z" fill="#6EC1B1"/>
<g clip-path="url(#clip0)">
<path d="M232.21 160.671L221.936 157.566L218.568 167.721L211.767 154.616L209.992 151.188L213.904 154.512L217.091 147.319L224.709 149.299L224.618 146.026L226.173 149.027L232.21 160.671Z" fill="#FF7058"/>
<path d="M205.794 151.201L204.007 154.642L197.231 167.721L193.863 157.566L183.589 160.671L189.639 148.988L191.194 146L191.09 149.299L198.708 147.319L201.908 154.512L205.794 151.201Z" fill="#FF7058"/>
<path d="M201.908 154.512L205.794 151.201L204.007 154.642L201.364 156.893L197.879 149.053L189.575 151.213L189.639 148.988L191.194 146L191.09 149.299L198.708 147.319L201.908 154.512Z" fill="#F1543F"/>
<path d="M226.238 151.213L217.933 149.053L214.448 156.893L211.767 154.616L209.992 151.188L213.904 154.512L217.091 147.319L224.709 149.299L224.618 146.026L226.173 149.027L226.238 151.213Z" fill="#F1543F"/>
<path d="M228.57 132.972L234.866 128.25L228.57 123.541L232.197 116.567L224.476 115.067L224.722 107.201L217.104 109.193L213.904 102L207.906 107.097L201.908 102L198.708 109.193L191.09 107.201L191.336 115.067L183.615 116.567L187.243 123.541L180.946 128.25L187.243 132.972L183.615 139.945L191.336 141.446L191.09 149.312L198.708 147.319L201.908 154.512L207.906 149.415L213.904 154.512L217.104 147.319L224.722 149.312L224.476 141.446L232.197 139.945L228.57 132.972Z" fill="#FFD15C"/>
<path d="M209.992 151.188L207.906 149.402L205.794 151.2L207.893 147.138L209.992 151.188Z" fill="#FFD15C"/>
<path d="M197.399 123.282C197.399 121.6 197.775 120.345 198.514 119.543C199.252 118.728 200.263 118.327 201.519 118.327C202.828 118.327 203.851 118.728 204.59 119.543C205.328 120.345 205.704 121.6 205.704 123.295C205.704 124.977 205.328 126.232 204.59 127.047C203.851 127.862 202.841 128.263 201.584 128.263C200.276 128.263 199.252 127.862 198.514 127.047C197.775 126.219 197.399 124.977 197.399 123.282ZM200.211 123.256C200.211 124.485 200.353 125.3 200.638 125.714C200.858 126.025 201.144 126.18 201.519 126.18C201.908 126.18 202.206 126.025 202.413 125.714C202.685 125.3 202.828 124.472 202.828 123.256C202.828 122.04 202.685 121.212 202.413 120.811C202.193 120.5 201.895 120.332 201.519 120.332C201.144 120.332 200.846 120.487 200.638 120.798C200.353 121.212 200.211 122.027 200.211 123.256ZM204.266 138.16H201.597L211.624 118.314H214.215L204.266 138.16ZM210.108 133.218C210.108 131.536 210.484 130.281 211.223 129.479C211.961 128.664 212.972 128.263 214.254 128.263C215.55 128.263 216.56 128.664 217.299 129.479C218.037 130.294 218.413 131.536 218.413 133.218C218.413 134.912 218.037 136.167 217.299 136.97C216.56 137.785 215.55 138.186 214.293 138.186C212.984 138.186 211.961 137.785 211.223 136.97C210.471 136.167 210.108 134.912 210.108 133.218ZM212.92 133.205C212.92 134.434 213.062 135.249 213.347 135.65C213.567 135.96 213.852 136.129 214.228 136.129C214.617 136.129 214.915 135.973 215.109 135.663C215.394 135.249 215.537 134.421 215.537 133.205C215.537 131.989 215.394 131.161 215.122 130.747C214.902 130.436 214.604 130.281 214.228 130.281C213.84 130.281 213.542 130.436 213.347 130.747C213.062 131.161 212.92 131.989 212.92 133.205Z" fill="white"/>
</g>
<g filter="url(#filter1_dd)">
<rect x="478" y="12" width="149" height="136" rx="10" fill="#B8E7DE"/>
</g>
<g filter="url(#filter2_dd)">
<rect x="15" y="413" width="415" height="112" rx="5" fill="#6EC1B1"/>
</g>
<rect x="6.5" y="421.5" width="414" height="111" rx="4.5" fill="white" stroke="#5C998D"/>
<path d="M102.23 450.324H106.346C108.064 450.324 109.426 450.66 110.434 451.332C111.181 451.836 111.75 452.499 112.142 453.32C112.553 454.123 112.758 454.972 112.758 455.868C112.758 457.548 112.152 458.911 110.938 459.956C109.8 460.927 108.278 461.412 106.374 461.412H105.086V469H102.23V450.324ZM105.086 452.956V458.78H106.374C107.569 458.78 108.474 458.519 109.09 457.996C109.706 457.455 110.014 456.736 110.014 455.84C110.014 455.523 109.968 455.224 109.874 454.944C109.8 454.664 109.641 454.365 109.398 454.048C109.174 453.712 108.801 453.451 108.278 453.264C107.756 453.059 107.112 452.956 106.346 452.956H105.086ZM123.803 458.584V457.212H126.547V469H123.803V467.768C122.889 468.832 121.713 469.364 120.275 469.364C118.539 469.364 117.149 468.748 116.103 467.516C115.077 466.284 114.563 464.809 114.563 463.092C114.563 461.225 115.114 459.732 116.215 458.612C117.335 457.473 118.698 456.904 120.303 456.904C121.778 456.904 122.945 457.464 123.803 458.584ZM120.639 459.368C119.669 459.368 118.875 459.732 118.259 460.46C117.662 461.188 117.363 462.084 117.363 463.148C117.363 464.193 117.662 465.08 118.259 465.808C118.875 466.536 119.669 466.9 120.639 466.9C121.573 466.9 122.357 466.573 122.991 465.92C123.645 465.267 123.971 464.352 123.971 463.176C123.971 461.963 123.645 461.029 122.991 460.376C122.357 459.704 121.573 459.368 120.639 459.368ZM131.623 460.264L129.859 458.724C130.307 458.183 130.904 457.744 131.651 457.408C132.435 457.072 133.359 456.904 134.423 456.904C135.655 456.904 136.654 457.175 137.419 457.716C138.24 458.313 138.651 459.116 138.651 460.124C138.651 460.777 138.483 461.319 138.147 461.748C137.867 462.121 137.494 462.401 137.027 462.588C137.736 462.737 138.306 463.027 138.735 463.456C139.239 463.96 139.491 464.613 139.491 465.416C139.491 466.48 139.155 467.348 138.483 468.02C137.587 468.916 136.206 469.364 134.339 469.364C133.088 469.364 132.062 469.131 131.259 468.664C130.419 468.179 129.803 467.479 129.411 466.564L131.595 465.444C131.856 466.004 132.202 466.415 132.631 466.676C133.098 466.975 133.686 467.124 134.395 467.124C135.254 467.124 135.879 466.928 136.271 466.536C136.551 466.219 136.691 465.873 136.691 465.5C136.691 465.108 136.57 464.791 136.327 464.548C136.01 464.212 135.356 464.044 134.367 464.044H133.135V461.804H134.171C134.768 461.804 135.216 461.701 135.515 461.496C135.851 461.235 136.019 460.889 136.019 460.46C136.019 460.012 135.851 459.676 135.515 459.452C135.235 459.247 134.796 459.144 134.199 459.144C133.639 459.144 133.126 459.256 132.659 459.48C132.267 459.667 131.922 459.928 131.623 460.264ZM141.015 469L143.871 456.148L148.743 465.136L153.615 456.148L156.471 469H153.671L152.495 463.092L148.743 469.896L144.991 463.092L143.815 469H141.015ZM166.861 465.024L169.157 466.312C168.635 467.245 167.972 467.964 167.169 468.468C166.255 469.065 165.097 469.364 163.697 469.364C162.055 469.364 160.729 468.86 159.721 467.852C158.564 466.695 157.985 465.192 157.985 463.344C157.985 461.403 158.611 459.788 159.861 458.5C160.925 457.436 162.241 456.904 163.809 456.904C165.34 456.904 166.6 457.417 167.589 458.444C168.691 459.583 169.241 461.244 169.241 463.428V463.764H160.785C160.86 464.753 161.196 465.547 161.793 466.144C162.297 466.648 162.997 466.9 163.893 466.9C164.621 466.9 165.247 466.704 165.769 466.312C166.199 465.976 166.563 465.547 166.861 465.024ZM160.981 461.524H166.441C166.329 460.871 166.049 460.339 165.601 459.928C165.116 459.48 164.5 459.256 163.753 459.256C162.969 459.256 162.325 459.508 161.821 460.012C161.411 460.385 161.131 460.889 160.981 461.524ZM172.109 469V457.212H174.853V466.48H178.773V457.212H181.517V466.48H185.437V457.212H188.181V466.48H190.141V472.36H187.621V469H172.109ZM200.721 458.584V457.212H203.465V469H200.721V467.768C199.807 468.832 198.631 469.364 197.193 469.364C195.457 469.364 194.067 468.748 193.021 467.516C191.995 466.284 191.481 464.809 191.481 463.092C191.481 461.225 192.032 459.732 193.133 458.612C194.253 457.473 195.616 456.904 197.221 456.904C198.696 456.904 199.863 457.464 200.721 458.584ZM197.557 459.368C196.587 459.368 195.793 459.732 195.177 460.46C194.58 461.188 194.281 462.084 194.281 463.148C194.281 464.193 194.58 465.08 195.177 465.808C195.793 466.536 196.587 466.9 197.557 466.9C198.491 466.9 199.275 466.573 199.909 465.92C200.563 465.267 200.889 464.352 200.889 463.176C200.889 461.963 200.563 461.029 199.909 460.376C199.275 459.704 198.491 459.368 197.557 459.368ZM206.945 457.212H209.689V463.904L217.753 456.148V469H215.009V462.14L206.945 469.896V457.212ZM207.841 452.116L210.081 451.472C210.436 452.685 211.201 453.292 212.377 453.292C213.534 453.292 214.3 452.685 214.673 451.472L216.913 452.116C216.614 453.18 216.008 454.001 215.093 454.58C214.197 455.14 213.292 455.42 212.377 455.42C211.462 455.42 210.548 455.14 209.633 454.58C208.737 454.001 208.14 453.18 207.841 452.116ZM229.338 459.732H225.894V469H223.15V459.732H219.706V457.212H229.338V459.732ZM239.267 465.024L241.563 466.312C241.041 467.245 240.378 467.964 239.575 468.468C238.661 469.065 237.503 469.364 236.103 469.364C234.461 469.364 233.135 468.86 232.127 467.852C230.97 466.695 230.391 465.192 230.391 463.344C230.391 461.403 231.017 459.788 232.267 458.5C233.331 457.436 234.647 456.904 236.215 456.904C237.746 456.904 239.006 457.417 239.995 458.444C241.097 459.583 241.647 461.244 241.647 463.428V463.764H233.191C233.266 464.753 233.602 465.547 234.199 466.144C234.703 466.648 235.403 466.9 236.299 466.9C237.027 466.9 237.653 466.704 238.175 466.312C238.605 465.976 238.969 465.547 239.267 465.024ZM233.387 461.524H238.847C238.735 460.871 238.455 460.339 238.007 459.928C237.522 459.48 236.906 459.256 236.159 459.256C235.375 459.256 234.731 459.508 234.227 460.012C233.817 460.385 233.537 460.889 233.387 461.524ZM260.178 457.744V460.824C259.189 459.853 258.078 459.368 256.846 459.368C255.801 459.368 254.933 459.713 254.242 460.404C253.57 461.076 253.234 461.981 253.234 463.12C253.234 464.296 253.589 465.239 254.298 465.948C254.97 466.583 255.801 466.9 256.79 466.9C258.153 466.9 259.282 466.396 260.178 465.388V468.44C259.189 469.056 257.994 469.364 256.594 469.364C254.709 469.364 253.216 468.785 252.114 467.628C250.994 466.471 250.434 464.996 250.434 463.204C250.434 461.356 251.032 459.835 252.226 458.64C253.384 457.483 254.961 456.904 256.958 456.904C258.097 456.904 259.17 457.184 260.178 457.744ZM262.808 457.212H265.552V461.412L269.472 457.212H273.112L267.96 462.364L273.392 469H269.92L266 464.156L265.552 464.604V469H262.808V457.212ZM275.195 457.212H277.939V463.904L286.003 456.148V469H283.259V462.14L275.195 469.896V457.212ZM290.476 457.212H299.324V466.48H301.116V472.36H298.596V469H290.364V472.36H287.844V466.48C288.796 466.424 289.515 465.911 290 464.94C290.318 464.249 290.476 463.213 290.476 461.832V457.212ZM296.58 466.48V459.732H293.108V462.868C293.108 464.567 292.651 465.771 291.736 466.48H296.58ZM303.086 457.212H305.83V461.412L309.75 457.212H313.39L308.238 462.364L313.67 469H310.198L306.278 464.156L305.83 464.604V469H303.086V457.212ZM315.472 457.212H318.216V463.904L326.28 456.148V469H323.536V462.14L315.472 469.896V457.212ZM70.9919 492.212H73.7359V498.904L81.7999 491.148V504H79.0559V497.14L70.9919 504.896V492.212ZM90.9325 510.412L95.2725 502.152L90.2325 492.212H93.5365L96.8965 499.1L100.312 492.212H103.392L94.0125 510.412H90.9325ZM105.308 492.212H109.928C111.104 492.212 112 492.445 112.616 492.912C113.344 493.491 113.708 494.247 113.708 495.18C113.708 496.244 113.242 497.009 112.308 497.476C112.906 497.588 113.438 497.849 113.904 498.26C114.52 498.82 114.828 499.576 114.828 500.528C114.828 501.667 114.399 502.563 113.54 503.216C112.831 503.739 111.926 504 110.824 504H105.308V492.212ZM108.052 496.804H109.452C109.938 496.804 110.302 496.72 110.544 496.552C110.899 496.328 111.076 496.011 111.076 495.6C111.076 495.208 110.918 494.9 110.6 494.676C110.376 494.527 109.975 494.452 109.396 494.452H108.052V496.804ZM108.052 501.76H110.096C110.712 501.76 111.188 501.648 111.524 501.424C111.898 501.181 112.084 500.836 112.084 500.388C112.084 499.903 111.907 499.557 111.552 499.352C111.235 499.147 110.778 499.044 110.18 499.044H108.052V501.76ZM125.955 500.024L128.251 501.312C127.728 502.245 127.066 502.964 126.263 503.468C125.348 504.065 124.191 504.364 122.791 504.364C121.148 504.364 119.823 503.86 118.815 502.852C117.658 501.695 117.079 500.192 117.079 498.344C117.079 496.403 117.704 494.788 118.955 493.5C120.019 492.436 121.335 491.904 122.903 491.904C124.434 491.904 125.694 492.417 126.683 493.444C127.784 494.583 128.335 496.244 128.335 498.428V498.764H119.879C119.954 499.753 120.29 500.547 120.887 501.144C121.391 501.648 122.091 501.9 122.987 501.9C123.715 501.9 124.34 501.704 124.863 501.312C125.292 500.976 125.656 500.547 125.955 500.024ZM120.075 496.524H125.535C125.423 495.871 125.143 495.339 124.695 494.928C124.21 494.48 123.594 494.256 122.847 494.256C122.063 494.256 121.419 494.508 120.915 495.012C120.504 495.385 120.224 495.889 120.075 496.524ZM140.891 492.212V504H138.147V494.732H134.675V499.408C134.675 500.864 134.301 501.993 133.555 502.796C132.603 503.86 131.315 504.261 129.691 504V501.48C130.493 501.667 131.137 501.489 131.623 500.948C131.903 500.612 132.043 500.099 132.043 499.408V492.212H140.891ZM144.355 492.212H147.099V498.904L155.163 491.148V504H152.419V497.14L144.355 504.896V492.212ZM165.013 504V499.436C164.173 499.604 163.37 499.688 162.605 499.688C161.261 499.688 160.225 499.399 159.497 498.82C158.731 498.204 158.349 497.261 158.349 495.992V492.212H161.093V495.432C161.093 496.235 161.326 496.776 161.793 497.056C162.11 497.243 162.567 497.336 163.165 497.336C163.837 497.336 164.453 497.233 165.013 497.028V492.212H167.757V504H165.013ZM171.234 492.212H173.978V498.904L182.042 491.148V504H179.298V497.14L171.234 504.896V492.212ZM185.507 492.212H190.127C191.303 492.212 192.199 492.445 192.815 492.912C193.543 493.491 193.907 494.247 193.907 495.18C193.907 496.244 193.441 497.009 192.507 497.476C193.105 497.588 193.637 497.849 194.103 498.26C194.719 498.82 195.027 499.576 195.027 500.528C195.027 501.667 194.598 502.563 193.739 503.216C193.03 503.739 192.125 504 191.023 504H185.507V492.212ZM188.251 496.804H189.651C190.137 496.804 190.501 496.72 190.743 496.552C191.098 496.328 191.275 496.011 191.275 495.6C191.275 495.208 191.117 494.9 190.799 494.676C190.575 494.527 190.174 494.452 189.595 494.452H188.251V496.804ZM188.251 501.76H190.295C190.911 501.76 191.387 501.648 191.723 501.424C192.097 501.181 192.283 500.836 192.283 500.388C192.283 499.903 192.106 499.557 191.751 499.352C191.434 499.147 190.977 499.044 190.379 499.044H188.251V501.76ZM206.518 493.584V492.212H209.262V504H206.518V502.768C205.604 503.832 204.428 504.364 202.99 504.364C201.254 504.364 199.864 503.748 198.818 502.516C197.792 501.284 197.278 499.809 197.278 498.092C197.278 496.225 197.829 494.732 198.93 493.612C200.05 492.473 201.413 491.904 203.018 491.904C204.493 491.904 205.66 492.464 206.518 493.584ZM203.354 494.368C202.384 494.368 201.59 494.732 200.974 495.46C200.377 496.188 200.078 497.084 200.078 498.148C200.078 499.193 200.377 500.08 200.974 500.808C201.59 501.536 202.384 501.9 203.354 501.9C204.288 501.9 205.072 501.573 205.706 500.92C206.36 500.267 206.686 499.352 206.686 498.176C206.686 496.963 206.36 496.029 205.706 495.376C205.072 494.704 204.288 494.368 203.354 494.368ZM212.742 492.212H215.486V498.904L223.55 491.148V504H220.806V497.14L212.742 504.896V492.212ZM213.638 487.116L215.878 486.472C216.233 487.685 216.998 488.292 218.174 488.292C219.331 488.292 220.097 487.685 220.47 486.472L222.71 487.116C222.411 488.18 221.805 489.001 220.89 489.58C219.994 490.14 219.089 490.42 218.174 490.42C217.259 490.42 216.345 490.14 215.43 489.58C214.534 489.001 213.937 488.18 213.638 487.116ZM235.135 494.732H231.691V504H228.947V494.732H225.503V492.212H235.135V494.732ZM245.064 500.024L247.36 501.312C246.838 502.245 246.175 502.964 245.372 503.468C244.458 504.065 243.3 504.364 241.9 504.364C240.258 504.364 238.932 503.86 237.924 502.852C236.767 501.695 236.188 500.192 236.188 498.344C236.188 496.403 236.814 494.788 238.064 493.5C239.128 492.436 240.444 491.904 242.012 491.904C243.543 491.904 244.803 492.417 245.792 493.444C246.894 494.583 247.444 496.244 247.444 498.428V498.764H238.988C239.063 499.753 239.399 500.547 239.996 501.144C240.5 501.648 241.2 501.9 242.096 501.9C242.824 501.9 243.45 501.704 243.972 501.312C244.402 500.976 244.766 500.547 245.064 500.024ZM239.184 496.524H244.644C244.532 495.871 244.252 495.339 243.804 494.928C243.319 494.48 242.703 494.256 241.956 494.256C241.172 494.256 240.528 494.508 240.024 495.012C239.614 495.385 239.334 495.889 239.184 496.524ZM256.847 492.212H267.095V504H264.351V494.732H259.591V504H256.847V492.212ZM273.318 502.628V510.412H270.574V492.212H273.318V493.5C274.214 492.436 275.381 491.904 276.818 491.904C278.423 491.904 279.777 492.473 280.878 493.612C281.998 494.732 282.558 496.207 282.558 498.036C282.558 499.921 281.979 501.452 280.822 502.628C279.665 503.785 278.339 504.364 276.846 504.364C275.446 504.364 274.27 503.785 273.318 502.628ZM276.482 494.368C275.549 494.368 274.755 494.704 274.102 495.376C273.467 496.029 273.15 496.963 273.15 498.176C273.15 499.352 273.467 500.267 274.102 500.92C274.755 501.573 275.549 501.9 276.482 501.9C277.453 501.9 278.237 501.536 278.834 500.808C279.45 500.08 279.758 499.193 279.758 498.148C279.758 497.084 279.45 496.188 278.834 495.46C278.237 494.732 277.453 494.368 276.482 494.368ZM286.598 493.668C287.811 492.492 289.314 491.904 291.106 491.904C292.898 491.904 294.391 492.492 295.586 493.668C296.799 494.825 297.406 496.309 297.406 498.12C297.406 499.912 296.799 501.405 295.586 502.6C294.391 503.776 292.898 504.364 291.106 504.364C289.314 504.364 287.811 503.776 286.598 502.6C285.403 501.405 284.806 499.912 284.806 498.12C284.806 496.309 285.403 494.825 286.598 493.668ZM288.558 500.892C289.192 501.564 290.042 501.9 291.106 501.9C292.17 501.9 293.019 501.564 293.654 500.892C294.288 500.201 294.606 499.287 294.606 498.148C294.606 496.897 294.26 495.955 293.57 495.32C292.898 494.685 292.076 494.368 291.106 494.368C290.135 494.368 289.304 494.685 288.614 495.32C287.942 495.955 287.606 496.897 287.606 498.148C287.606 499.287 287.923 500.201 288.558 500.892ZM301.277 492.212H310.125V501.48H311.917V507.36H309.397V504H301.165V507.36H298.645V501.48C299.597 501.424 300.316 500.911 300.801 499.94C301.119 499.249 301.277 498.213 301.277 496.832V492.212ZM307.381 501.48V494.732H303.909V497.868C303.909 499.567 303.452 500.771 302.537 501.48H307.381ZM322.51 493.584V492.212H325.254V504H322.51V502.768C321.596 503.832 320.42 504.364 318.982 504.364C317.246 504.364 315.856 503.748 314.81 502.516C313.784 501.284 313.27 499.809 313.27 498.092C313.27 496.225 313.821 494.732 314.922 493.612C316.042 492.473 317.405 491.904 319.01 491.904C320.485 491.904 321.652 492.464 322.51 493.584ZM319.346 494.368C318.376 494.368 317.582 494.732 316.966 495.46C316.369 496.188 316.07 497.084 316.07 498.148C316.07 499.193 316.369 500.08 316.966 500.808C317.582 501.536 318.376 501.9 319.346 501.9C320.28 501.9 321.064 501.573 321.698 500.92C322.352 500.267 322.678 499.352 322.678 498.176C322.678 496.963 322.352 496.029 321.698 495.376C321.064 494.704 320.28 494.368 319.346 494.368ZM334.362 492.212H337.106V496.58L340.662 492.212H343.966L339.402 497.588L344.414 504H340.998L337.442 499.268L337.106 499.66V504H334.362V499.66L334.026 499.268L330.47 504H327.054L332.066 497.588L327.502 492.212H330.806L334.362 496.58V492.212ZM346.207 492.212H348.951V498.904L357.015 491.148V504H354.271V497.14L346.207 504.896V492.212Z" fill="#475762"/>
<g clip-path="url(#clip1)">
<path d="M553 124C577.301 124 597 104.301 597 80C597 55.6995 577.301 36 553 36C528.699 36 509 55.6995 509 80C509 104.301 528.699 124 553 124Z" fill="#AFAFAF"/>
<path d="M553 113C534.85 113 520 98.15 520 80C520 61.85 534.85 47 553 47C571.15 47 586 61.85 586 80C586 98.15 571.15 113 553 113Z" fill="#F2F2F2"/>
<path d="M553 102C540.9 102 531 92.1 531 80C531 67.9 540.9 58 553 58C565.1 58 575 67.9 575 80C575 92.1 565.1 102 553 102Z" fill="#AFAFAF"/>
<path d="M553 91C546.95 91 542 86.05 542 80C542 73.95 546.95 69 553 69C559.05 69 564 73.95 564 80C564 86.05 559.05 91 553 91Z" fill="#CDD6E0"/>
<path d="M553 91C546.95 91 542 86.05 542 80C542 73.95 546.95 69 553 69C559.05 69 564 73.95 564 80C564 86.05 559.05 91 553 91Z" fill="#FD6F55"/>
<path opacity="0.2" d="M596.633 85.5C595.9 91 594.25 96.1334 591.683 100.9L589.3 99.9833L586.183 93.3834L553.183 81.4667C551.716 80.9167 550.983 79.2667 551.533 77.8001C552.083 76.3335 553.733 75.6001 555.2 76.1501L588.2 88.0667L594.8 84.9501L596.633 85.5Z" fill="#334A5E"/>
<path d="M583.067 53.7834L556.117 80.7334C555.017 81.8334 553.183 81.8334 552.083 80.7334C550.983 79.6334 550.983 77.8 552.083 76.7L579.217 49.9334C580.317 48.8334 582.15 48.8334 583.25 49.9334C584.167 51.0334 584.167 52.6834 583.067 53.7834Z" fill="#475762"/>
<path d="M585.633 47.3666L577.017 55.9834V44.6166L585.633 36V47.3666Z" fill="#FF7058"/>
<path d="M588.383 55.9835L597 47.3667H585.633L577.017 55.9835H588.383Z" fill="#F1543F"/>
</g>
<g filter="url(#filter3_dd)">
<path d="M607 436C607 448.738 604.492 461.352 599.616 473.12C594.741 484.889 587.596 495.582 578.589 504.589C569.581 513.597 558.888 520.742 547.12 525.616C535.352 530.491 522.738 533 510 533V436H607Z" fill="#FD6F55"/>
</g>
<defs>
<filter id="filter0_dd" x="110" y="51" width="491" height="454" filterUnits="userSpaceOnUse" color-interpolation-filters="sRGB">
<feFlood flood-opacity="0" result="BackgroundImageFix"/>
<feColorMatrix in="SourceAlpha" type="matrix" values="0 0 0 0 0 0 0 0 0 0 0 0 0 0 0 0 0 0 127 0"/>
<feOffset dx="9" dy="12"/>
<feGaussianBlur stdDeviation="12"/>
<feColorMatrix type="matrix" values="0 0 0 0 0 0 0 0 0 0 0 0 0 0 0 0 0 0 0.07 0"/>
<feBlend mode="normal" in2="BackgroundImageFix" result="effect1_dropShadow"/>
<feColorMatrix in="SourceAlpha" type="matrix" values="0 0 0 0 0 0 0 0 0 0 0 0 0 0 0 0 0 0 127 0"/>
<feOffset dy="3"/>
<feGaussianBlur stdDeviation="1.5"/>
<feColorMatrix type="matrix" values="0 0 0 0 0 0 0 0 0 0 0 0 0 0 0 0 0 0 0.03 0"/>
<feBlend mode="normal" in2="effect1_dropShadow" result="effect2_dropShadow"/>
<feBlend mode="normal" in="SourceGraphic" in2="effect2_dropShadow" result="shape"/>
</filter>
<filter id="filter1_dd" x="463" y="0" width="197" height="184" filterUnits="userSpaceOnUse" color-interpolation-filters="sRGB">
<feFlood flood-opacity="0" result="BackgroundImageFix"/>
<feColorMatrix in="SourceAlpha" type="matrix" values="0 0 0 0 0 0 0 0 0 0 0 0 0 0 0 0 0 0 127 0"/>
<feOffset dx="9" dy="12"/>
<feGaussianBlur stdDeviation="12"/>
<feColorMatrix type="matrix" values="0 0 0 0 0 0 0 0 0 0 0 0 0 0 0 0 0 0 0.07 0"/>
<feBlend mode="normal" in2="BackgroundImageFix" result="effect1_dropShadow"/>
<feColorMatrix in="SourceAlpha" type="matrix" values="0 0 0 0 0 0 0 0 0 0 0 0 0 0 0 0 0 0 127 0"/>
<feOffset dy="3"/>
<feGaussianBlur stdDeviation="1.5"/>
<feColorMatrix type="matrix" values="0 0 0 0 0 0 0 0 0 0 0 0 0 0 0 0 0 0 0.03 0"/>
<feBlend mode="normal" in2="effect1_dropShadow" result="effect2_dropShadow"/>
<feBlend mode="normal" in="SourceGraphic" in2="effect2_dropShadow" result="shape"/>
</filter>
<filter id="filter2_dd" x="0" y="401" width="463" height="160" filterUnits="userSpaceOnUse" color-interpolation-filters="sRGB">
<feFlood flood-opacity="0" result="BackgroundImageFix"/>
<feColorMatrix in="SourceAlpha" type="matrix" values="0 0 0 0 0 0 0 0 0 0 0 0 0 0 0 0 0 0 127 0"/>
<feOffset dx="9" dy="12"/>
<feGaussianBlur stdDeviation="12"/>
<feColorMatrix type="matrix" values="0 0 0 0 0 0 0 0 0 0 0 0 0 0 0 0 0 0 0.07 0"/>
<feBlend mode="normal" in2="BackgroundImageFix" result="effect1_dropShadow"/>
<feColorMatrix in="SourceAlpha" type="matrix" values="0 0 0 0 0 0 0 0 0 0 0 0 0 0 0 0 0 0 127 0"/>
<feOffset dy="3"/>
<feGaussianBlur stdDeviation="1.5"/>
<feColorMatrix type="matrix" values="0 0 0 0 0 0 0 0 0 0 0 0 0 0 0 0 0 0 0.03 0"/>
<feBlend mode="normal" in2="effect1_dropShadow" result="effect2_dropShadow"/>
<feBlend mode="normal" in="SourceGraphic" in2="effect2_dropShadow" result="shape"/>
</filter>
<filter id="filter3_dd" x="496" y="420" width="139" height="139" filterUnits="userSpaceOnUse" color-interpolation-filters="sRGB">
<feFlood flood-opacity="0" result="BackgroundImageFix"/>
<feColorMatrix in="SourceAlpha" type="matrix" values="0 0 0 0 0 0 0 0 0 0 0 0 0 0 0 0 0 0 127 0"/>
<feOffset dx="7" dy="5"/>
<feGaussianBlur stdDeviation="10.5"/>
<feColorMatrix type="matrix" values="0 0 0 0 0 0 0 0 0 0 0 0 0 0 0 0 0 0 0.05 0"/>
<feBlend mode="normal" in2="BackgroundImageFix" result="effect1_dropShadow"/>
<feColorMatrix in="SourceAlpha" type="matrix" values="0 0 0 0 0 0 0 0 0 0 0 0 0 0 0 0 0 0 127 0"/>
<feOffset dx="3" dy="3"/>
<feGaussianBlur stdDeviation="1.5"/>
<feColorMatrix type="matrix" values="0 0 0 0 0 0 0 0 0 0 0 0 0 0 0 0 0 0 0.03 0"/>
<feBlend mode="normal" in2="effect1_dropShadow" result="effect2_dropShadow"/>
<feBlend mode="normal" in="SourceGraphic" in2="effect2_dropShadow" result="shape"/>
</filter>
<clipPath id="clip0">
<rect width="65.8121" height="65.7214" fill="white" transform="translate(175 102)"/>
</clipPath>
<clipPath id="clip1">
<rect width="88" height="88" fill="white" transform="translate(509 36)"/>
</clipPath>
</defs>
</svg>
