<svg width="660" height="561" viewBox="0 0 660 561" fill="none" xmlns="http://www.w3.org/2000/svg">
<g filter="url(#filter0_dd)">
<rect x="125" y="63" width="443" height="406" rx="10" fill="white"/>
<rect x="126" y="64" width="441" height="404" rx="9" stroke="#475762" stroke-width="2" stroke-dasharray="5 5"/>
</g>
<path opacity="0.86" d="M497.661 124.118H205.339V313.639H497.661V124.118Z" fill="#C9C9C9"/>
<path d="M329.412 291.994L318.311 362.371H392.362L375.331 291.994H329.412Z" fill="#C9C9C9"/>
<path opacity="0.45" d="M353.29 386.905C420.286 386.905 474.597 380.527 474.597 372.66C474.597 364.793 420.286 358.415 353.29 358.415C286.294 358.415 231.983 364.793 231.983 372.66C231.983 380.527 286.294 386.905 353.29 386.905Z" fill="#E6E6E6"/>
<path opacity="0.58" d="M432.642 358.16C432.642 358.16 422.122 355.295 419.855 345.528C419.855 345.528 436.13 342.245 436.618 359.03L432.642 358.16Z" fill="#FEBF39"/>
<path opacity="0.73" d="M433.933 357.104C433.933 357.104 426.586 345.504 433.049 334.67C433.049 334.67 445.43 342.523 439.931 357.128L433.933 357.104Z" fill="#FEBF39"/>
<path d="M435.816 357.104C435.816 357.104 439.699 344.866 451.44 342.546C451.44 342.546 453.637 350.492 443.837 357.139L435.816 357.104Z" fill="#FEBF39"/>
<path d="M428.19 356.838L430.329 371.384L443.756 371.442L445.732 356.907L428.19 356.838Z" fill="#475762"/>
<path d="M497.661 270.348H205.339V313.639H497.661V270.348Z" fill="#E6E6E6"/>
<path d="M353.127 301.123C359.612 301.123 364.869 295.877 364.869 289.407C364.869 282.936 359.612 277.691 353.127 277.691C346.643 277.691 341.386 282.936 341.386 289.407C341.386 295.877 346.643 301.123 353.127 301.123Z" fill="#A5A5A5"/>
<path d="M405.556 350.04H301.408V372.66H405.556V350.04Z" fill="#E6E6E6"/>
<path d="M526.201 243.169H448.894V293.502H526.201V243.169Z" fill="#FFC854"/>
<path d="M475.527 254.804V281.867L503.753 266.613L475.527 254.804Z" fill="white"/>
<path d="M246.247 193.382H170.104V244.364H246.247V193.382Z" fill="#E6E6E6"/>
<path d="M170.092 193.382L208.164 229.516L246.236 193.382H170.092Z" fill="#C9C9C9"/>
<path d="M406.948 140.859H294.969V166.347H406.948V140.859Z" fill="white"/>
<path d="M327.259 178.308H294.969V193.392H327.259V178.308Z" fill="white"/>
<path d="M366.845 178.308H334.554V193.392H366.845V178.308Z" fill="white"/>
<path d="M406.43 178.308H374.14V193.392H406.43V178.308Z" fill="white"/>
<path d="M354.531 233.514C354.531 232.994 354.531 231.954 354.531 231.433C356.093 230.393 357.656 229.353 359.218 228.313C358.697 226.232 358.177 224.152 357.135 221.551C355.051 221.551 353.489 221.551 351.406 221.551C350.885 220.511 349.843 218.95 348.802 217.91C349.323 216.35 350.364 214.269 350.885 212.708C349.323 211.148 347.239 210.108 345.156 208.548C343.594 209.588 342.031 211.148 340.469 212.189C338.906 211.668 337.865 211.149 336.302 210.628C335.781 209.068 335.261 206.987 334.74 204.907C332.656 204.907 330.052 204.907 327.968 204.907C327.447 206.988 326.927 208.548 326.406 210.628C324.843 211.149 323.802 211.149 322.239 212.189C320.677 211.149 319.114 209.588 317.552 208.548C315.468 209.588 313.906 211.148 311.823 212.708C312.344 214.269 313.385 216.35 313.906 217.91C312.865 218.95 312.344 219.991 311.302 221.551C309.219 221.551 307.656 221.551 305.573 221.551C304.532 223.632 304.011 225.712 303.49 228.313C305.052 229.353 306.615 230.393 308.177 231.433C308.177 231.954 308.177 232.994 308.177 233.514C308.177 234.034 308.177 235.074 308.177 235.595C306.615 236.635 305.052 237.675 303.49 238.715C304.011 240.796 304.531 242.876 305.573 245.477C307.657 245.477 309.219 245.477 311.302 245.477C311.823 246.517 312.865 248.078 313.906 249.118C313.385 250.679 312.344 252.759 311.823 254.32C313.385 255.88 315.469 256.92 317.552 258.481C319.114 257.44 320.677 255.88 322.239 254.839C323.802 255.36 324.843 255.88 326.406 256.4C326.927 257.96 327.447 260.041 327.968 262.121C330.052 262.121 332.656 262.121 334.74 262.121C335.261 260.04 335.781 258.48 336.302 256.4C337.865 255.88 338.906 255.88 340.469 254.839C342.031 255.88 343.594 257.44 345.156 258.481C347.24 257.44 348.802 255.88 350.885 254.32C350.364 252.759 349.323 250.679 348.802 249.118C349.843 248.078 350.364 247.038 351.406 245.477C353.489 245.477 355.052 245.477 357.135 245.477C358.176 243.397 358.697 241.316 359.218 238.715C357.656 237.675 356.093 236.635 354.531 235.595C354.531 235.074 354.531 234.554 354.531 233.514ZM340.468 242.356C337.864 244.957 334.739 245.997 331.614 245.997C328.489 245.997 325.364 244.957 322.76 242.356C318.072 237.675 318.072 229.873 322.76 224.672C327.447 219.991 335.26 219.991 340.469 224.672C345.677 229.873 345.677 237.675 340.468 242.356Z" fill="#6EC1B1"/>
<path d="M387.754 217.316C387.754 216.796 387.233 216.796 387.233 216.276C387.754 215.236 388.275 214.716 389.317 213.676C388.796 212.635 387.754 211.595 386.713 210.555C385.671 211.075 384.629 211.595 383.588 211.595C383.067 211.075 382.025 210.555 381.504 210.035C381.504 208.994 381.504 207.954 381.504 206.914C380.462 206.393 378.9 205.873 377.858 205.873C377.337 206.913 376.817 207.954 376.296 208.474C375.254 208.474 374.733 208.474 373.692 208.474C373.171 207.434 372.65 206.913 371.608 205.873C370.567 206.393 369.004 206.913 367.962 207.434C367.962 208.474 367.962 209.514 367.962 210.554C367.441 211.075 366.4 211.594 365.879 212.115C364.837 211.594 363.795 211.594 362.754 211.075C361.712 212.115 361.191 213.155 360.67 214.195C361.191 215.235 362.233 215.756 362.754 216.796C363.275 217.836 363.275 218.356 363.275 219.396C362.233 219.917 361.191 219.917 360.15 220.436C360.15 221.476 360.15 223.037 360.15 224.077C361.191 224.077 362.233 224.598 363.275 224.598C363.275 225.118 363.275 225.118 363.796 225.638C363.796 226.158 364.317 226.158 364.317 226.678C363.796 227.718 363.275 228.238 362.233 229.278C362.754 230.318 363.796 231.359 364.837 232.399C365.879 231.879 366.921 231.359 367.962 231.359C368.483 231.879 369.525 232.399 370.046 232.919C370.046 233.959 370.046 235 370.046 236.04C371.087 236.56 372.65 237.081 373.691 237.081C374.212 236.041 374.733 235 375.254 234.48C376.295 234.48 376.816 234.48 377.858 234.48C378.379 235.52 378.899 236.041 379.941 237.081C380.983 236.56 382.546 236.041 383.588 235.52C383.588 234.48 383.588 233.44 383.588 232.4C384.109 231.879 385.15 231.359 385.671 230.839C386.713 231.359 387.755 231.359 388.796 231.879C389.838 230.839 390.359 229.799 390.88 228.758C390.359 227.718 389.317 227.198 388.796 226.158C389.317 225.638 389.317 224.598 389.317 224.077C390.359 223.557 391.401 223.557 392.442 223.037C392.442 221.997 392.442 220.437 392.442 219.396C391.401 219.396 390.359 218.876 389.317 218.876C388.275 217.836 388.275 217.836 387.754 217.316ZM382.025 224.598C380.983 226.158 379.941 227.718 377.858 228.239C376.296 228.759 374.212 228.759 372.65 228.239C369.004 226.678 367.441 222.517 369.004 218.876C370.566 215.235 374.733 213.675 378.379 215.235C382.025 216.796 383.588 220.957 382.025 224.598Z" fill="#6EC1B1"/>
<g clip-path="url(#clip0)">
<path d="M232.21 160.671L221.937 157.566L218.568 167.721L211.767 154.616L209.992 151.188L213.904 154.512L217.091 147.319L224.709 149.299L224.618 146.026L226.173 149.027L232.21 160.671Z" fill="#FF7058"/>
<path d="M205.794 151.2L204.007 154.642L197.231 167.721L193.863 157.566L183.589 160.671L189.639 148.988L191.194 146L191.09 149.299L198.708 147.319L201.908 154.512L205.794 151.2Z" fill="#FF7058"/>
<path d="M201.908 154.512L205.794 151.2L204.006 154.642L201.364 156.893L197.879 149.053L189.574 151.213L189.639 148.988L191.194 146L191.09 149.299L198.708 147.319L201.908 154.512Z" fill="#F1543F"/>
<path d="M226.237 151.213L217.933 149.053L214.448 156.893L211.767 154.616L209.992 151.188L213.904 154.512L217.091 147.319L224.709 149.299L224.618 146.026L226.173 149.027L226.237 151.213Z" fill="#F1543F"/>
<path d="M228.57 132.972L234.866 128.25L228.57 123.541L232.197 116.567L224.476 115.067L224.722 107.201L217.104 109.193L213.904 102L207.906 107.097L201.908 102L198.708 109.193L191.09 107.201L191.337 115.067L183.615 116.567L187.243 123.541L180.947 128.25L187.243 132.972L183.615 139.945L191.337 141.446L191.09 149.312L198.708 147.319L201.908 154.512L207.906 149.415L213.904 154.512L217.104 147.319L224.722 149.312L224.476 141.446L232.197 139.945L228.57 132.972Z" fill="#FFD15C"/>
<path d="M209.992 151.188L207.906 149.402L205.794 151.2L207.893 147.138L209.992 151.188Z" fill="#FFD15C"/>
<path d="M197.399 123.282C197.399 121.6 197.775 120.345 198.514 119.543C199.252 118.728 200.262 118.327 201.519 118.327C202.828 118.327 203.851 118.728 204.59 119.543C205.328 120.345 205.704 121.6 205.704 123.295C205.704 124.977 205.328 126.232 204.59 127.047C203.851 127.862 202.841 128.263 201.584 128.263C200.275 128.263 199.252 127.862 198.514 127.047C197.775 126.219 197.399 124.977 197.399 123.282ZM200.211 123.256C200.211 124.485 200.353 125.3 200.638 125.714C200.858 126.025 201.143 126.18 201.519 126.18C201.908 126.18 202.206 126.025 202.413 125.714C202.685 125.3 202.828 124.472 202.828 123.256C202.828 122.04 202.685 121.212 202.413 120.811C202.193 120.5 201.895 120.332 201.519 120.332C201.143 120.332 200.845 120.487 200.638 120.798C200.353 121.212 200.211 122.027 200.211 123.256ZM204.266 138.16H201.597L211.624 118.314H214.215L204.266 138.16ZM210.108 133.218C210.108 131.536 210.484 130.281 211.223 129.479C211.961 128.664 212.971 128.263 214.254 128.263C215.55 128.263 216.56 128.664 217.298 129.479C218.037 130.294 218.413 131.536 218.413 133.218C218.413 134.912 218.037 136.167 217.298 136.969C216.56 137.785 215.55 138.186 214.293 138.186C212.984 138.186 211.961 137.785 211.223 136.969C210.471 136.167 210.108 134.912 210.108 133.218ZM212.92 133.205C212.92 134.434 213.062 135.249 213.347 135.65C213.567 135.96 213.852 136.129 214.228 136.129C214.617 136.129 214.915 135.973 215.109 135.663C215.394 135.249 215.537 134.421 215.537 133.205C215.537 131.989 215.394 131.161 215.122 130.747C214.902 130.436 214.604 130.281 214.228 130.281C213.839 130.281 213.542 130.436 213.347 130.747C213.062 131.161 212.92 131.989 212.92 133.205Z" fill="white"/>
</g>
<g filter="url(#filter1_dd)">
<rect x="478" y="12" width="149" height="136" rx="10" fill="#B8E7DE"/>
</g>
<g filter="url(#filter2_dd)">
<rect x="15" y="413" width="415" height="112" rx="5" fill="#6EC1B1"/>
</g>
<rect x="6.5" y="421.5" width="414" height="111" rx="4.5" fill="white" stroke="#5C998D"/>
<path d="M30.9588 450.324H35.0748C36.7921 450.324 38.1548 450.66 39.1628 451.332C39.9094 451.836 40.4788 452.499 40.8708 453.32C41.2814 454.123 41.4868 454.972 41.4868 455.868C41.4868 457.548 40.8801 458.911 39.6668 459.956C38.5281 460.927 37.0068 461.412 35.1028 461.412H33.8148V469H30.9588V450.324ZM33.8148 452.956V458.78H35.1028C36.2974 458.78 37.2028 458.519 37.8188 457.996C38.4348 457.455 38.7428 456.736 38.7428 455.84C38.7428 455.523 38.6961 455.224 38.6028 454.944C38.5281 454.664 38.3694 454.365 38.1268 454.048C37.9028 453.712 37.5294 453.451 37.0068 453.264C36.4841 453.059 35.8401 452.956 35.0748 452.956H33.8148ZM52.5319 458.584V457.212H55.2759V469H52.5319V467.768C51.6172 468.832 50.4412 469.364 49.0039 469.364C47.2679 469.364 45.8772 468.748 44.8319 467.516C43.8052 466.284 43.2919 464.809 43.2919 463.092C43.2919 461.225 43.8425 459.732 44.9439 458.612C46.0639 457.473 47.4265 456.904 49.0319 456.904C50.5065 456.904 51.6732 457.464 52.5319 458.584ZM49.3679 459.368C48.3972 459.368 47.6039 459.732 46.9879 460.46C46.3905 461.188 46.0919 462.084 46.0919 463.148C46.0919 464.193 46.3905 465.08 46.9879 465.808C47.6039 466.536 48.3972 466.9 49.3679 466.9C50.3012 466.9 51.0852 466.573 51.7199 465.92C52.3732 465.267 52.6999 464.352 52.6999 463.176C52.6999 461.963 52.3732 461.029 51.7199 460.376C51.0852 459.704 50.3012 459.368 49.3679 459.368ZM60.3515 460.264L58.5875 458.724C59.0355 458.183 59.6329 457.744 60.3795 457.408C61.1635 457.072 62.0875 456.904 63.1515 456.904C64.3835 456.904 65.3822 457.175 66.1475 457.716C66.9689 458.313 67.3795 459.116 67.3795 460.124C67.3795 460.777 67.2115 461.319 66.8755 461.748C66.5955 462.121 66.2222 462.401 65.7555 462.588C66.4649 462.737 67.0342 463.027 67.4635 463.456C67.9675 463.96 68.2195 464.613 68.2195 465.416C68.2195 466.48 67.8835 467.348 67.2115 468.02C66.3155 468.916 64.9342 469.364 63.0675 469.364C61.8169 469.364 60.7902 469.131 59.9875 468.664C59.1475 468.179 58.5315 467.479 58.1395 466.564L60.3235 465.444C60.5849 466.004 60.9302 466.415 61.3595 466.676C61.8262 466.975 62.4142 467.124 63.1235 467.124C63.9822 467.124 64.6075 466.928 64.9995 466.536C65.2795 466.219 65.4195 465.873 65.4195 465.5C65.4195 465.108 65.2982 464.791 65.0555 464.548C64.7382 464.212 64.0849 464.044 63.0955 464.044H61.8635V461.804H62.8995C63.4969 461.804 63.9449 461.701 64.2435 461.496C64.5795 461.235 64.7475 460.889 64.7475 460.46C64.7475 460.012 64.5795 459.676 64.2435 459.452C63.9635 459.247 63.5249 459.144 62.9275 459.144C62.3675 459.144 61.8542 459.256 61.3875 459.48C60.9955 459.667 60.6502 459.928 60.3515 460.264ZM69.7436 469L72.5996 456.148L77.4716 465.136L82.3436 456.148L85.1996 469H82.3996L81.2236 463.092L77.4716 469.896L73.7196 463.092L72.5436 469H69.7436ZM95.5898 465.024L97.8858 466.312C97.3631 467.245 96.7004 467.964 95.8978 468.468C94.9831 469.065 93.8258 469.364 92.4258 469.364C90.7831 469.364 89.4578 468.86 88.4498 467.852C87.2924 466.695 86.7138 465.192 86.7138 463.344C86.7138 461.403 87.3391 459.788 88.5898 458.5C89.6538 457.436 90.9698 456.904 92.5378 456.904C94.0684 456.904 95.3284 457.417 96.3178 458.444C97.4191 459.583 97.9698 461.244 97.9698 463.428V463.764H89.5138C89.5884 464.753 89.9244 465.547 90.5218 466.144C91.0258 466.648 91.7258 466.9 92.6218 466.9C93.3498 466.9 93.9751 466.704 94.4978 466.312C94.9271 465.976 95.2911 465.547 95.5898 465.024ZM89.7097 461.524H95.1698C95.0578 460.871 94.7778 460.339 94.3298 459.928C93.8444 459.48 93.2284 459.256 92.4818 459.256C91.6978 459.256 91.0538 459.508 90.5498 460.012C90.1391 460.385 89.8591 460.889 89.7097 461.524ZM100.838 469V457.212H103.582V466.48H107.502V457.212H110.246V466.48H114.166V457.212H116.91V466.48H118.87V472.36H116.35V469H100.838ZM129.45 458.584V457.212H132.194V469H129.45V467.768C128.535 468.832 127.359 469.364 125.922 469.364C124.186 469.364 122.795 468.748 121.75 467.516C120.723 466.284 120.21 464.809 120.21 463.092C120.21 461.225 120.761 459.732 121.862 458.612C122.982 457.473 124.345 456.904 125.95 456.904C127.425 456.904 128.591 457.464 129.45 458.584ZM126.286 459.368C125.315 459.368 124.522 459.732 123.906 460.46C123.309 461.188 123.01 462.084 123.01 463.148C123.01 464.193 123.309 465.08 123.906 465.808C124.522 466.536 125.315 466.9 126.286 466.9C127.219 466.9 128.003 466.573 128.638 465.92C129.291 465.267 129.618 464.352 129.618 463.176C129.618 461.963 129.291 461.029 128.638 460.376C128.003 459.704 127.219 459.368 126.286 459.368ZM135.674 457.212H138.418V463.904L146.482 456.148V469H143.738V462.14L135.674 469.896V457.212ZM136.57 452.116L138.81 451.472C139.164 452.685 139.93 453.292 141.106 453.292C142.263 453.292 143.028 452.685 143.402 451.472L145.642 452.116C145.343 453.18 144.736 454.001 143.822 454.58C142.926 455.14 142.02 455.42 141.106 455.42C140.191 455.42 139.276 455.14 138.362 454.58C137.466 454.001 136.868 453.18 136.57 452.116ZM158.067 459.732H154.623V469H151.879V459.732H148.435V457.212H158.067V459.732ZM167.996 465.024L170.292 466.312C169.769 467.245 169.107 467.964 168.304 468.468C167.389 469.065 166.232 469.364 164.832 469.364C163.189 469.364 161.864 468.86 160.856 467.852C159.699 466.695 159.12 465.192 159.12 463.344C159.12 461.403 159.745 459.788 160.996 458.5C162.06 457.436 163.376 456.904 164.944 456.904C166.475 456.904 167.735 457.417 168.724 458.444C169.825 459.583 170.376 461.244 170.376 463.428V463.764H161.92C161.995 464.753 162.331 465.547 162.928 466.144C163.432 466.648 164.132 466.9 165.028 466.9C165.756 466.9 166.381 466.704 166.904 466.312C167.333 465.976 167.697 465.547 167.996 465.024ZM162.116 461.524H167.576C167.464 460.871 167.184 460.339 166.736 459.928C166.251 459.48 165.635 459.256 164.888 459.256C164.104 459.256 163.46 459.508 162.956 460.012C162.545 460.385 162.265 460.889 162.116 461.524ZM188.907 457.744V460.824C187.918 459.853 186.807 459.368 185.575 459.368C184.53 459.368 183.662 459.713 182.971 460.404C182.299 461.076 181.963 461.981 181.963 463.12C181.963 464.296 182.318 465.239 183.027 465.948C183.699 466.583 184.53 466.9 185.519 466.9C186.882 466.9 188.011 466.396 188.907 465.388V468.44C187.918 469.056 186.723 469.364 185.323 469.364C183.438 469.364 181.944 468.785 180.843 467.628C179.723 466.471 179.163 464.996 179.163 463.204C179.163 461.356 179.76 459.835 180.955 458.64C182.112 457.483 183.69 456.904 185.687 456.904C186.826 456.904 187.899 457.184 188.907 457.744ZM191.537 457.212H194.281V461.412L198.201 457.212H201.841L196.689 462.364L202.121 469H198.649L194.729 464.156L194.281 464.604V469H191.537V457.212ZM203.924 457.212H206.668V463.904L214.732 456.148V469H211.988V462.14L203.924 469.896V457.212ZM219.205 457.212H228.053V466.48H229.845V472.36H227.325V469H219.093V472.36H216.573V466.48C217.525 466.424 218.244 465.911 218.729 464.94C219.046 464.249 219.205 463.213 219.205 461.832V457.212ZM225.309 466.48V459.732H221.837V462.868C221.837 464.567 221.38 465.771 220.465 466.48H225.309ZM231.814 457.212H234.558V461.412L238.478 457.212H242.118L236.966 462.364L242.398 469H238.926L235.006 464.156L234.558 464.604V469H231.814V457.212ZM244.201 457.212H246.945V463.904L255.009 456.148V469H252.265V462.14L244.201 469.896V457.212ZM273.913 449.12H276.713C276.508 450.091 276.079 450.931 275.425 451.64C274.772 452.349 273.969 452.835 273.017 453.096L271.169 453.6C270.684 453.731 270.311 453.843 270.049 453.936C269.788 454.029 269.461 454.207 269.069 454.468C268.696 454.711 268.379 455.009 268.117 455.364C267.501 456.185 267.175 457.249 267.137 458.556H267.165C267.987 457.455 269.321 456.904 271.169 456.904C272.831 456.904 274.203 457.464 275.285 458.584C276.424 459.76 276.993 461.253 276.993 463.064C276.993 464.893 276.387 466.405 275.173 467.6C273.979 468.776 272.485 469.364 270.693 469.364C268.901 469.364 267.464 468.841 266.381 467.796C265.784 467.236 265.327 466.545 265.009 465.724C264.692 464.903 264.505 464.231 264.449 463.708C264.412 463.167 264.393 462.513 264.393 461.748C264.393 458.089 264.991 455.392 266.185 453.656C267.081 452.331 268.257 451.491 269.713 451.136L271.673 450.66C272.961 450.343 273.708 449.829 273.913 449.12ZM268.145 465.892C268.78 466.564 269.629 466.9 270.693 466.9C271.757 466.9 272.607 466.564 273.241 465.892C273.876 465.201 274.193 464.287 274.193 463.148C274.193 461.897 273.848 460.955 273.157 460.32C272.485 459.685 271.664 459.368 270.693 459.368C269.723 459.368 268.892 459.685 268.201 460.32C267.529 460.955 267.193 461.897 267.193 463.148C267.193 464.287 267.511 465.201 268.145 465.892ZM288.117 465.024L290.413 466.312C289.89 467.245 289.228 467.964 288.425 468.468C287.51 469.065 286.353 469.364 284.953 469.364C283.31 469.364 281.985 468.86 280.977 467.852C279.82 466.695 279.241 465.192 279.241 463.344C279.241 461.403 279.866 459.788 281.117 458.5C282.181 457.436 283.497 456.904 285.065 456.904C286.596 456.904 287.856 457.417 288.845 458.444C289.946 459.583 290.497 461.244 290.497 463.428V463.764H282.041C282.116 464.753 282.452 465.547 283.049 466.144C283.553 466.648 284.253 466.9 285.149 466.9C285.877 466.9 286.502 466.704 287.025 466.312C287.454 465.976 287.818 465.547 288.117 465.024ZM282.237 461.524H287.697C287.585 460.871 287.305 460.339 286.857 459.928C286.372 459.48 285.756 459.256 285.009 459.256C284.225 459.256 283.581 459.508 283.077 460.012C282.666 460.385 282.386 460.889 282.237 461.524ZM302.493 457.744V460.824C301.504 459.853 300.393 459.368 299.161 459.368C298.116 459.368 297.248 459.713 296.557 460.404C295.885 461.076 295.549 461.981 295.549 463.12C295.549 464.296 295.904 465.239 296.613 465.948C297.285 466.583 298.116 466.9 299.105 466.9C300.468 466.9 301.597 466.396 302.493 465.388V468.44C301.504 469.056 300.309 469.364 298.909 469.364C297.024 469.364 295.53 468.785 294.429 467.628C293.309 466.471 292.749 464.996 292.749 463.204C292.749 461.356 293.346 459.835 294.541 458.64C295.698 457.483 297.276 456.904 299.273 456.904C300.412 456.904 301.485 457.184 302.493 457.744ZM305.123 457.212H315.371V469H312.627V459.732H307.867V469H305.123V457.212ZM328.537 457.212V469H325.793V459.732H322.321V464.408C322.321 465.864 321.948 466.993 321.201 467.796C320.249 468.86 318.961 469.261 317.337 469V466.48C318.14 466.667 318.784 466.489 319.269 465.948C319.549 465.612 319.689 465.099 319.689 464.408V457.212H328.537ZM340.626 458.584V457.212H343.37V469H340.626V467.768C339.711 468.832 338.535 469.364 337.098 469.364C335.362 469.364 333.971 468.748 332.926 467.516C331.899 466.284 331.386 464.809 331.386 463.092C331.386 461.225 331.936 459.732 333.038 458.612C334.158 457.473 335.52 456.904 337.126 456.904C338.6 456.904 339.767 457.464 340.626 458.584ZM337.462 459.368C336.491 459.368 335.698 459.732 335.082 460.46C334.484 461.188 334.186 462.084 334.186 463.148C334.186 464.193 334.484 465.08 335.082 465.808C335.698 466.536 336.491 466.9 337.462 466.9C338.395 466.9 339.179 466.573 339.814 465.92C340.467 465.267 340.794 464.352 340.794 463.176C340.794 461.963 340.467 461.029 339.814 460.376C339.179 459.704 338.395 459.368 337.462 459.368ZM354.969 459.732H351.525V469H348.781V459.732H345.337V457.212H354.969V459.732ZM356.939 469V457.212H359.683V461.58H364.555V457.212H367.299V469H364.555V464.1H359.683V469H356.939ZM371.951 458.668C373.164 457.492 374.667 456.904 376.459 456.904C378.251 456.904 379.744 457.492 380.939 458.668C382.152 459.825 382.759 461.309 382.759 463.12C382.759 464.912 382.152 466.405 380.939 467.6C379.744 468.776 378.251 469.364 376.459 469.364C374.667 469.364 373.164 468.776 371.951 467.6C370.756 466.405 370.159 464.912 370.159 463.12C370.159 461.309 370.756 459.825 371.951 458.668ZM373.911 465.892C374.546 466.564 375.395 466.9 376.459 466.9C377.523 466.9 378.372 466.564 379.007 465.892C379.642 465.201 379.959 464.287 379.959 463.148C379.959 461.897 379.614 460.955 378.923 460.32C378.251 459.685 377.43 459.368 376.459 459.368C375.488 459.368 374.658 459.685 373.967 460.32C373.295 460.955 372.959 461.897 372.959 463.148C372.959 464.287 373.276 465.201 373.911 465.892ZM387.695 450.66L390.691 451.92L390.495 448.588H392.679L392.455 451.892L395.479 450.66L396.179 452.676L392.987 453.46L395.059 455.98L393.379 457.296L391.587 454.58L389.795 457.296L388.115 455.98L390.187 453.516L386.995 452.732L387.695 450.66ZM93.5778 492.212H96.3218V498.904L104.386 491.148V504H101.642V497.14L93.5778 504.896V492.212ZM113.518 510.412L117.858 502.152L112.818 492.212H116.122L119.482 499.1L122.898 492.212H125.978L116.598 510.412H113.518ZM127.894 492.212H132.514C133.69 492.212 134.586 492.445 135.202 492.912C135.93 493.491 136.294 494.247 136.294 495.18C136.294 496.244 135.828 497.009 134.894 497.476C135.492 497.588 136.024 497.849 136.49 498.26C137.106 498.82 137.414 499.576 137.414 500.528C137.414 501.667 136.985 502.563 136.126 503.216C135.417 503.739 134.512 504 133.41 504H127.894V492.212ZM130.638 496.804H132.038C132.524 496.804 132.888 496.72 133.13 496.552C133.485 496.328 133.662 496.011 133.662 495.6C133.662 495.208 133.504 494.9 133.186 494.676C132.962 494.527 132.561 494.452 131.982 494.452H130.638V496.804ZM130.638 501.76H132.682C133.298 501.76 133.774 501.648 134.11 501.424C134.484 501.181 134.67 500.836 134.67 500.388C134.67 499.903 134.493 499.557 134.138 499.352C133.821 499.147 133.364 499.044 132.766 499.044H130.638V501.76ZM148.541 500.024L150.837 501.312C150.314 502.245 149.652 502.964 148.849 503.468C147.934 504.065 146.777 504.364 145.377 504.364C143.734 504.364 142.409 503.86 141.401 502.852C140.244 501.695 139.665 500.192 139.665 498.344C139.665 496.403 140.29 494.788 141.541 493.5C142.605 492.436 143.921 491.904 145.489 491.904C147.02 491.904 148.28 492.417 149.269 493.444C150.37 494.583 150.921 496.244 150.921 498.428V498.764H142.465C142.54 499.753 142.876 500.547 143.473 501.144C143.977 501.648 144.677 501.9 145.573 501.9C146.301 501.9 146.926 501.704 147.449 501.312C147.878 500.976 148.242 500.547 148.541 500.024ZM142.661 496.524H148.121C148.009 495.871 147.729 495.339 147.281 494.928C146.796 494.48 146.18 494.256 145.433 494.256C144.649 494.256 144.005 494.508 143.501 495.012C143.09 495.385 142.81 495.889 142.661 496.524ZM163.477 492.212V504H160.733V494.732H157.261V499.408C157.261 500.864 156.887 501.993 156.141 502.796C155.189 503.86 153.901 504.261 152.277 504V501.48C153.079 501.667 153.723 501.489 154.209 500.948C154.489 500.612 154.629 500.099 154.629 499.408V492.212H163.477ZM166.941 492.212H169.685V498.904L177.749 491.148V504H175.005V497.14L166.941 504.896V492.212ZM187.599 504V499.436C186.759 499.604 185.956 499.688 185.191 499.688C183.847 499.688 182.811 499.399 182.083 498.82C181.317 498.204 180.935 497.261 180.935 495.992V492.212H183.679V495.432C183.679 496.235 183.912 496.776 184.379 497.056C184.696 497.243 185.153 497.336 185.751 497.336C186.423 497.336 187.039 497.233 187.599 497.028V492.212H190.343V504H187.599ZM193.82 504V492.212H196.564V496.384H198.132C198.636 496.384 199.047 496.403 199.364 496.44C199.681 496.459 200.064 496.561 200.512 496.748C200.96 496.935 201.352 497.215 201.688 497.588C202.304 498.279 202.612 499.137 202.612 500.164C202.612 501.34 202.257 502.283 201.548 502.992C201.231 503.309 200.848 503.552 200.4 503.72C199.971 503.869 199.607 503.953 199.308 503.972C199.028 503.991 198.627 504 198.104 504H193.82ZM196.564 501.648H197.824C198.496 501.648 198.972 501.564 199.252 501.396C199.663 501.097 199.868 500.696 199.868 500.192C199.868 499.669 199.672 499.277 199.28 499.016C198.981 498.829 198.505 498.736 197.852 498.736H196.564V501.648ZM212.549 494.732H209.105V504H206.361V494.732H202.917V492.212H212.549V494.732ZM222.478 500.024L224.774 501.312C224.252 502.245 223.589 502.964 222.786 503.468C221.872 504.065 220.714 504.364 219.314 504.364C217.672 504.364 216.346 503.86 215.338 502.852C214.181 501.695 213.602 500.192 213.602 498.344C213.602 496.403 214.228 494.788 215.478 493.5C216.542 492.436 217.858 491.904 219.426 491.904C220.957 491.904 222.217 492.417 223.206 493.444C224.308 494.583 224.858 496.244 224.858 498.428V498.764H216.402C216.477 499.753 216.813 500.547 217.41 501.144C217.914 501.648 218.614 501.9 219.51 501.9C220.238 501.9 220.864 501.704 221.386 501.312C221.816 500.976 222.18 500.547 222.478 500.024ZM216.598 496.524H222.058C221.946 495.871 221.666 495.339 221.218 494.928C220.733 494.48 220.117 494.256 219.37 494.256C218.586 494.256 217.942 494.508 217.438 495.012C217.028 495.385 216.748 495.889 216.598 496.524ZM234.261 492.212H244.509V504H241.765V494.732H237.005V504H234.261V492.212ZM250.732 502.628V510.412H247.988V492.212H250.732V493.5C251.628 492.436 252.795 491.904 254.232 491.904C255.837 491.904 257.191 492.473 258.292 493.612C259.412 494.732 259.972 496.207 259.972 498.036C259.972 499.921 259.393 501.452 258.236 502.628C257.079 503.785 255.753 504.364 254.26 504.364C252.86 504.364 251.684 503.785 250.732 502.628ZM253.896 494.368C252.963 494.368 252.169 494.704 251.516 495.376C250.881 496.029 250.564 496.963 250.564 498.176C250.564 499.352 250.881 500.267 251.516 500.92C252.169 501.573 252.963 501.9 253.896 501.9C254.867 501.9 255.651 501.536 256.248 500.808C256.864 500.08 257.172 499.193 257.172 498.148C257.172 497.084 256.864 496.188 256.248 495.46C255.651 494.732 254.867 494.368 253.896 494.368ZM264.012 493.668C265.225 492.492 266.728 491.904 268.52 491.904C270.312 491.904 271.805 492.492 273 493.668C274.213 494.825 274.82 496.309 274.82 498.12C274.82 499.912 274.213 501.405 273 502.6C271.805 503.776 270.312 504.364 268.52 504.364C266.728 504.364 265.225 503.776 264.012 502.6C262.817 501.405 262.22 499.912 262.22 498.12C262.22 496.309 262.817 494.825 264.012 493.668ZM265.972 500.892C266.606 501.564 267.456 501.9 268.52 501.9C269.584 501.9 270.433 501.564 271.068 500.892C271.702 500.201 272.02 499.287 272.02 498.148C272.02 496.897 271.674 495.955 270.984 495.32C270.312 494.685 269.49 494.368 268.52 494.368C267.549 494.368 266.718 494.685 266.028 495.32C265.356 495.955 265.02 496.897 265.02 498.148C265.02 499.287 265.337 500.201 265.972 500.892ZM278.691 492.212H287.539V501.48H289.331V507.36H286.811V504H278.579V507.36H276.059V501.48C277.011 501.424 277.73 500.911 278.215 499.94C278.533 499.249 278.691 498.213 278.691 496.832V492.212ZM284.795 501.48V494.732H281.323V497.868C281.323 499.567 280.866 500.771 279.951 501.48H284.795ZM299.924 493.584V492.212H302.668V504H299.924V502.768C299.01 503.832 297.834 504.364 296.396 504.364C294.66 504.364 293.27 503.748 292.224 502.516C291.198 501.284 290.684 499.809 290.684 498.092C290.684 496.225 291.235 494.732 292.336 493.612C293.456 492.473 294.819 491.904 296.424 491.904C297.899 491.904 299.066 492.464 299.924 493.584ZM296.76 494.368C295.79 494.368 294.996 494.732 294.38 495.46C293.783 496.188 293.484 497.084 293.484 498.148C293.484 499.193 293.783 500.08 294.38 500.808C294.996 501.536 295.79 501.9 296.76 501.9C297.694 501.9 298.478 501.573 299.112 500.92C299.766 500.267 300.092 499.352 300.092 498.176C300.092 496.963 299.766 496.029 299.112 495.376C298.478 494.704 297.694 494.368 296.76 494.368ZM311.776 492.212H314.52V496.58L318.076 492.212H321.38L316.816 497.588L321.828 504H318.412L314.856 499.268L314.52 499.66V504H311.776V499.66L311.44 499.268L307.884 504H304.468L309.48 497.588L304.916 492.212H308.22L311.776 496.58V492.212ZM323.621 492.212H326.365V498.904L334.429 491.148V504H331.685V497.14L323.621 504.896V492.212Z" fill="#475762"/>
<g clip-path="url(#clip1)">
<path d="M553 124C577.301 124 597 104.301 597 80C597 55.6995 577.301 36 553 36C528.699 36 509 55.6995 509 80C509 104.301 528.699 124 553 124Z" fill="#AFAFAF"/>
<path d="M553 113C534.85 113 520 98.15 520 80C520 61.85 534.85 47 553 47C571.15 47 586 61.85 586 80C586 98.15 571.15 113 553 113Z" fill="#F2F2F2"/>
<path d="M553 102C540.9 102 531 92.1 531 80C531 67.9 540.9 58 553 58C565.1 58 575 67.9 575 80C575 92.1 565.1 102 553 102Z" fill="#AFAFAF"/>
<path d="M553 91C546.95 91 542 86.05 542 80C542 73.95 546.95 69 553 69C559.05 69 564 73.95 564 80C564 86.05 559.05 91 553 91Z" fill="#CDD6E0"/>
<path d="M553 91C546.95 91 542 86.05 542 80C542 73.95 546.95 69 553 69C559.05 69 564 73.95 564 80C564 86.05 559.05 91 553 91Z" fill="#FD6F55"/>
<path opacity="0.2" d="M596.633 85.5C595.9 91 594.25 96.1334 591.683 100.9L589.3 99.9834L586.183 93.3834L553.183 81.4668C551.716 80.9168 550.983 79.2668 551.533 77.8002C552.083 76.3336 553.733 75.6002 555.2 76.1502L588.2 88.0668L594.8 84.9502L596.633 85.5Z" fill="#334A5E"/>
<path d="M583.067 53.7834L556.117 80.7334C555.017 81.8334 553.183 81.8334 552.083 80.7334C550.983 79.6334 550.983 77.8 552.083 76.7L579.217 49.9334C580.317 48.8334 582.15 48.8334 583.25 49.9334C584.167 51.0334 584.167 52.6834 583.067 53.7834Z" fill="#475762"/>
<path d="M585.633 47.3666L577.017 55.9834V44.6166L585.633 36V47.3666Z" fill="#FF7058"/>
<path d="M588.383 55.9834L597 47.3666H585.633L577.017 55.9834H588.383Z" fill="#F1543F"/>
</g>
<g filter="url(#filter3_dd)">
<path d="M607 436C607 448.738 604.492 461.352 599.616 473.12C594.741 484.889 587.596 495.582 578.589 504.589C569.581 513.597 558.888 520.742 547.12 525.616C535.352 530.491 522.738 533 510 533V436H607Z" fill="#FD6F55"/>
</g>
<defs>
<filter id="filter0_dd" x="110" y="51" width="491" height="454" filterUnits="userSpaceOnUse" color-interpolation-filters="sRGB">
<feFlood flood-opacity="0" result="BackgroundImageFix"/>
<feColorMatrix in="SourceAlpha" type="matrix" values="0 0 0 0 0 0 0 0 0 0 0 0 0 0 0 0 0 0 127 0"/>
<feOffset dx="9" dy="12"/>
<feGaussianBlur stdDeviation="12"/>
<feColorMatrix type="matrix" values="0 0 0 0 0 0 0 0 0 0 0 0 0 0 0 0 0 0 0.07 0"/>
<feBlend mode="normal" in2="BackgroundImageFix" result="effect1_dropShadow"/>
<feColorMatrix in="SourceAlpha" type="matrix" values="0 0 0 0 0 0 0 0 0 0 0 0 0 0 0 0 0 0 127 0"/>
<feOffset dy="3"/>
<feGaussianBlur stdDeviation="1.5"/>
<feColorMatrix type="matrix" values="0 0 0 0 0 0 0 0 0 0 0 0 0 0 0 0 0 0 0.03 0"/>
<feBlend mode="normal" in2="effect1_dropShadow" result="effect2_dropShadow"/>
<feBlend mode="normal" in="SourceGraphic" in2="effect2_dropShadow" result="shape"/>
</filter>
<filter id="filter1_dd" x="463" y="0" width="197" height="184" filterUnits="userSpaceOnUse" color-interpolation-filters="sRGB">
<feFlood flood-opacity="0" result="BackgroundImageFix"/>
<feColorMatrix in="SourceAlpha" type="matrix" values="0 0 0 0 0 0 0 0 0 0 0 0 0 0 0 0 0 0 127 0"/>
<feOffset dx="9" dy="12"/>
<feGaussianBlur stdDeviation="12"/>
<feColorMatrix type="matrix" values="0 0 0 0 0 0 0 0 0 0 0 0 0 0 0 0 0 0 0.07 0"/>
<feBlend mode="normal" in2="BackgroundImageFix" result="effect1_dropShadow"/>
<feColorMatrix in="SourceAlpha" type="matrix" values="0 0 0 0 0 0 0 0 0 0 0 0 0 0 0 0 0 0 127 0"/>
<feOffset dy="3"/>
<feGaussianBlur stdDeviation="1.5"/>
<feColorMatrix type="matrix" values="0 0 0 0 0 0 0 0 0 0 0 0 0 0 0 0 0 0 0.03 0"/>
<feBlend mode="normal" in2="effect1_dropShadow" result="effect2_dropShadow"/>
<feBlend mode="normal" in="SourceGraphic" in2="effect2_dropShadow" result="shape"/>
</filter>
<filter id="filter2_dd" x="0" y="401" width="463" height="160" filterUnits="userSpaceOnUse" color-interpolation-filters="sRGB">
<feFlood flood-opacity="0" result="BackgroundImageFix"/>
<feColorMatrix in="SourceAlpha" type="matrix" values="0 0 0 0 0 0 0 0 0 0 0 0 0 0 0 0 0 0 127 0"/>
<feOffset dx="9" dy="12"/>
<feGaussianBlur stdDeviation="12"/>
<feColorMatrix type="matrix" values="0 0 0 0 0 0 0 0 0 0 0 0 0 0 0 0 0 0 0.07 0"/>
<feBlend mode="normal" in2="BackgroundImageFix" result="effect1_dropShadow"/>
<feColorMatrix in="SourceAlpha" type="matrix" values="0 0 0 0 0 0 0 0 0 0 0 0 0 0 0 0 0 0 127 0"/>
<feOffset dy="3"/>
<feGaussianBlur stdDeviation="1.5"/>
<feColorMatrix type="matrix" values="0 0 0 0 0 0 0 0 0 0 0 0 0 0 0 0 0 0 0.03 0"/>
<feBlend mode="normal" in2="effect1_dropShadow" result="effect2_dropShadow"/>
<feBlend mode="normal" in="SourceGraphic" in2="effect2_dropShadow" result="shape"/>
</filter>
<filter id="filter3_dd" x="496" y="420" width="139" height="139" filterUnits="userSpaceOnUse" color-interpolation-filters="sRGB">
<feFlood flood-opacity="0" result="BackgroundImageFix"/>
<feColorMatrix in="SourceAlpha" type="matrix" values="0 0 0 0 0 0 0 0 0 0 0 0 0 0 0 0 0 0 127 0"/>
<feOffset dx="7" dy="5"/>
<feGaussianBlur stdDeviation="10.5"/>
<feColorMatrix type="matrix" values="0 0 0 0 0 0 0 0 0 0 0 0 0 0 0 0 0 0 0.05 0"/>
<feBlend mode="normal" in2="BackgroundImageFix" result="effect1_dropShadow"/>
<feColorMatrix in="SourceAlpha" type="matrix" values="0 0 0 0 0 0 0 0 0 0 0 0 0 0 0 0 0 0 127 0"/>
<feOffset dx="3" dy="3"/>
<feGaussianBlur stdDeviation="1.5"/>
<feColorMatrix type="matrix" values="0 0 0 0 0 0 0 0 0 0 0 0 0 0 0 0 0 0 0.03 0"/>
<feBlend mode="normal" in2="effect1_dropShadow" result="effect2_dropShadow"/>
<feBlend mode="normal" in="SourceGraphic" in2="effect2_dropShadow" result="shape"/>
</filter>
<clipPath id="clip0">
<rect width="65.8121" height="65.7214" fill="white" transform="translate(175 102)"/>
</clipPath>
<clipPath id="clip1">
<rect width="88" height="88" fill="white" transform="translate(509 36)"/>
</clipPath>
</defs>
</svg>
