<svg width="720" height="439" viewBox="0 0 720 439" fill="none" xmlns="http://www.w3.org/2000/svg">
<g filter="url(#filter0_dd)">
<path d="M581.025 202.774C581.025 172.664 556.619 148.255 526.513 148.255H472V257.293H526.513C556.619 257.293 581.025 232.884 581.025 202.774Z" fill="#FFC854"/>
</g>
<g filter="url(#filter1_dd)">
<rect x="55" y="63" width="460" height="326" rx="10" fill="white"/>
<rect x="56" y="64" width="458" height="324" rx="9" stroke="#475762" stroke-width="2" stroke-dasharray="5 5"/>
</g>
<g clip-path="url(#clip0)">
<path d="M395.617 88L401.635 100.26L415.233 102.267L405.425 111.852L407.877 125.45L395.617 118.985L383.579 125.45L385.808 111.852L376 102.267L389.598 100.26L395.617 88Z" fill="#FFBBAF"/>
<path d="M463.383 88L469.402 100.26L483 102.267L473.192 111.852L475.421 125.45L463.383 118.985L451.123 125.45L453.575 111.852L443.767 102.267L457.364 100.26L463.383 88Z" fill="#FFBBAF"/>
<path d="M409.66 188.535L406.094 188.089H402.527V163.346H404.756L410.329 160.225C417.24 156.435 422.812 150.639 426.379 143.729C426.379 143.729 426.379 143.729 426.379 143.506C426.825 142.614 427.271 141.723 427.271 140.608L428.163 136.596C428.163 136.596 430.838 134.812 432.398 138.379C432.398 138.379 434.627 144.398 431.506 149.302C431.061 151.531 427.94 153.983 428.163 155.989C428.163 155.989 430.169 157.55 432.175 156.881C434.181 156.212 439.531 157.327 440.646 160.002C441.76 161.785 442.206 164.683 438.64 166.244C438.64 166.244 441.092 167.804 440.869 170.256C440.646 173.154 438.417 174.046 438.417 174.046C438.417 174.046 440.423 175.829 439.309 178.281C438.194 180.733 436.857 180.956 436.857 180.956C436.857 180.956 438.863 183.854 437.525 185.86C436.411 187.198 434.85 188.312 433.29 188.758C427.048 190.542 418.577 189.65 409.66 188.535Z" fill="#FFD15C"/>
<path d="M428.162 136.819L427.271 140.831C427.271 141.277 427.048 141.723 426.825 142.169C428.831 142.392 429.5 140.608 429.723 139.048C429.946 137.71 428.162 136.819 428.162 136.819Z" fill="#F3F3F3"/>
<path d="M405.202 162.231H396.062V190.542H405.202V162.231Z" fill="#E8EAE9"/>
<path d="M400.744 161.117H376V195H400.744V161.117Z" fill="#415A6B"/>
<path d="M393.165 191.211C395.011 191.211 396.508 189.713 396.508 187.867C396.508 186.02 395.011 184.523 393.165 184.523C391.318 184.523 389.821 186.02 389.821 187.867C389.821 189.713 391.318 191.211 393.165 191.211Z" fill="#344A5E"/>
<path d="M429.5 88L437.971 105.165L456.919 108.063L443.321 121.438L446.442 140.163L429.5 131.246L412.558 140.163L415.679 121.438L402.081 108.063L421.029 105.165L429.5 88Z" fill="#F3705A"/>
</g>
<path d="M290.59 133.58H150.38V298.14H290.59V133.58Z" fill="#E6E6E6"/>
<path d="M402.09 143.77H307.83V231.55H402.09V143.77Z" fill="#E6E6E6"/>
<path d="M418.86 246.27H351.67V280H418.86V246.27Z" fill="#E6E6E6"/>
<path d="M368.2 272.3C373.264 272.3 377.37 268.194 377.37 263.13C377.37 258.066 373.264 253.96 368.2 253.96C363.136 253.96 359.03 258.066 359.03 263.13C359.03 268.194 363.136 272.3 368.2 272.3Z" fill="#C9C9C9"/>
<path d="M205.763 153.21H203.728V153.71H201.694V153.21H199.659V153.71H197.625V153.21H195.59V153.71H193.556V153.21H191.521V153.71H189.487V153.21H187.452V153.71H185.418V153.21H183.383V153.71H181.349V153.21H179.314V153.71H177.28V153.21H175.245V153.71H173.211V153.21H171.176V153.71H169.142V153.21H167.107V153.71H166.59V154.206H166.09V156.198H166.59V158.19H166.09V160.183H166.59V162.175H166.09V164.167H166.59V166.159H166.09V168.151H166.59V170.143H166.09V172.135H166.59V174.128H166.09V176.12H166.59V178.112H166.09V180.104H166.59V182.096H166.09V184.088H166.59V186.08H166.09V188.073H166.59V190.065H166.09V192.057H166.59V194.049H166.09V196.041H166.59V198.033H166.09V200.025H166.59V202.018H166.09V204.01H166.59V206.002H166.09V207.994H166.59V208.49H167.107V208.99H169.142V208.49H171.176V208.99H173.211V208.49H175.245V208.99H177.28V208.49H179.314V208.99H181.349V208.49H183.383V208.99H185.418V208.49H187.452V208.99H189.487V208.49H191.521V208.99H193.556V208.49H195.59V208.99H197.625V208.49H199.659V208.99H201.694V208.49H203.728V208.99H205.763V208.49H206.28V207.994H206.78V206.002H206.28V204.01H206.78V202.018H206.28V200.025H206.78V198.033H206.28V196.041H206.78V194.049H206.28V192.057H206.78V190.065H206.28V188.073H206.78V186.08H206.28V184.088H206.78V182.096H206.28V180.104H206.78V178.112H206.28V176.12H206.78V174.128H206.28V172.135H206.78V170.143H206.28V168.151H206.78V166.159H206.28V164.167H206.78V162.175H206.28V160.183H206.78V158.19H206.28V156.198H206.78V154.206H206.28V153.71H205.763V153.21Z" fill="white" stroke="#FD6F55" stroke-dasharray="2 2"/>
<path d="M349.86 154.51H318.39V183.62H349.86V154.51Z" fill="#C9C9C9"/>
<path opacity="0.44" d="M349.86 191.75H318.39V220.86H349.86V191.75Z" fill="#C9C9C9"/>
<path opacity="0.44" d="M391.64 191.75H360.17V220.86H391.64V191.75Z" fill="#C9C9C9"/>
<path opacity="0.63" d="M320.74 178.14L326.89 168.64L334.13 177.11L341.04 164.95L347.51 178.32V181.68H320.74V178.14Z" fill="#1A78ED"/>
<path d="M333.88 166.94C335.614 166.94 337.02 165.534 337.02 163.8C337.02 162.066 335.614 160.66 333.88 160.66C332.146 160.66 330.74 162.066 330.74 163.8C330.74 165.534 332.146 166.94 333.88 166.94Z" fill="#FFC854"/>
<path d="M391.89 154.51H360.42V183.62H391.89V154.51Z" fill="#C9C9C9"/>
<path opacity="0.63" d="M362.77 178.14L368.92 168.64L376.15 177.11L383.07 164.95L389.54 178.32V181.68H362.77V178.14Z" fill="#1A78ED"/>
<path d="M375.9 166.94C377.634 166.94 379.04 165.534 379.04 163.8C379.04 162.066 377.634 160.66 375.9 160.66C374.166 160.66 372.76 162.066 372.76 163.8C372.76 165.534 374.166 166.94 375.9 166.94Z" fill="#FFC854"/>
<path opacity="0.46" d="M278.63 153.21H220.48V187.66H278.63V153.21Z" fill="#6EC1B1"/>
<path d="M278.63 197.5H220.48V208.99H278.63V197.5Z" fill="white"/>
<path d="M278.63 197.5H261.75V208.99H278.63V197.5Z" fill="#C9C9C9"/>
<path d="M406.83 257.3H384.33V261.38H406.83V257.3Z" fill="#C9C9C9"/>
<path opacity="0.45" d="M406.83 264.88H384.33V268.96H406.83V264.88Z" fill="#C9C9C9"/>
<path d="M179.469 180.284C177.826 180.284 176.529 179.789 175.577 178.8C174.793 177.96 174.401 176.952 174.401 175.776C174.401 174.488 174.783 173.433 175.549 172.612C176.426 171.623 177.733 171.128 179.469 171.128C181.167 171.128 182.493 171.623 183.445 172.612C184.229 173.433 184.621 174.46 184.621 175.692C184.621 176.924 184.219 177.96 183.417 178.8C182.465 179.789 181.149 180.284 179.469 180.284ZM179.385 190L190.193 171.324H192.629L181.793 190H179.385ZM179.525 173.592C178.89 173.592 178.377 173.807 177.985 174.236C177.611 174.647 177.425 175.132 177.425 175.692C177.425 176.327 177.667 176.859 178.153 177.288C178.526 177.624 178.983 177.792 179.525 177.792C180.085 177.792 180.579 177.596 181.009 177.204C181.419 176.793 181.625 176.289 181.625 175.692C181.625 175.076 181.401 174.553 180.953 174.124C180.579 173.769 180.103 173.592 179.525 173.592ZM192.517 183.532C191.882 183.532 191.369 183.747 190.977 184.176C190.603 184.587 190.417 185.072 190.417 185.632C190.417 186.267 190.659 186.799 191.145 187.228C191.518 187.564 191.975 187.732 192.517 187.732C193.077 187.732 193.571 187.536 194.001 187.144C194.411 186.733 194.617 186.229 194.617 185.632C194.617 184.997 194.393 184.475 193.945 184.064C193.571 183.709 193.095 183.532 192.517 183.532ZM192.461 190.224C190.818 190.224 189.521 189.729 188.569 188.74C187.785 187.9 187.393 186.892 187.393 185.716C187.393 184.428 187.775 183.373 188.541 182.552C189.418 181.563 190.725 181.068 192.461 181.068C194.159 181.068 195.485 181.563 196.437 182.552C197.221 183.373 197.613 184.4 197.613 185.632C197.613 186.864 197.211 187.9 196.409 188.74C195.457 189.729 194.141 190.224 192.461 190.224Z" fill="#FD6F55"/>
<path d="M214.88 232H173V272.06H214.88V232Z" fill="#F1F1F1"/>
<path d="M267.43 232H225.55V272.06H267.43V232Z" fill="#C9C9C9"/>
<g clip-path="url(#clip1)">
<path d="M104.114 262.378V301.931C104.114 302.698 104.237 303.435 104.467 304.126C104.498 304.218 104.544 304.311 104.575 304.418C105.573 307.028 108.091 308.871 111.054 308.871H140.504L154.277 319.481V308.871H158.745C160.541 308.871 162 307.412 162 305.616V262.378C162 260.581 160.541 259.123 158.745 259.123H107.369C105.573 259.123 104.114 260.581 104.114 262.378Z" fill="#ABB2B9"/>
<path d="M153.509 267.629H112.605V272.834H153.509V267.629Z" fill="#334A5E"/>
<path d="M153.509 280.435H112.605V285.64H153.509V280.435Z" fill="#334A5E"/>
<path d="M153.509 293.256H112.605V298.461H153.509V293.256Z" fill="#334A5E"/>
<path d="M138.631 276.535H87.2551C85.4587 276.535 84 277.993 84 279.79V323.012C84 324.809 85.4587 326.267 87.2551 326.267H91.7232V336.877L105.496 326.267H138.631C140.427 326.267 141.886 324.809 141.886 323.012V279.79C141.886 277.993 140.427 276.535 138.631 276.535Z" fill="#F2F2F2"/>
<path d="M96.4063 307.412C99.5778 307.412 102.149 304.841 102.149 301.67C102.149 298.498 99.5778 295.927 96.4063 295.927C93.2348 295.927 90.6638 298.498 90.6638 301.67C90.6638 304.841 93.2348 307.412 96.4063 307.412Z" fill="#F2705B"/>
<path d="M112.943 307.412C116.114 307.412 118.685 304.841 118.685 301.67C118.685 298.498 116.114 295.927 112.943 295.927C109.771 295.927 107.2 298.498 107.2 301.67C107.2 304.841 109.771 307.412 112.943 307.412Z" fill="#1A78ED"/>
<path d="M129.479 307.412C132.651 307.412 135.222 304.841 135.222 301.67C135.222 298.498 132.651 295.927 129.479 295.927C126.308 295.927 123.737 298.498 123.737 301.67C123.737 304.841 126.308 307.412 129.479 307.412Z" fill="#6EC1B1"/>
</g>
<g filter="url(#filter2_dd)">
<rect x="254" y="291" width="433" height="112" rx="5" fill="#6EC1B1"/>
</g>
<rect x="245.5" y="299.5" width="432" height="111" rx="4.5" fill="white" stroke="#5C998D"/>
<path d="M278.399 328.324H290.047V344.312H292.175V351.2H289.487V347H277.447V351.2H274.759V344.312C275.394 344.331 275.973 344.107 276.495 343.64C277.018 343.155 277.429 342.539 277.727 341.792C278.175 340.653 278.399 339.02 278.399 336.892V328.324ZM281.255 331.012V336.892C281.255 339.225 281.041 340.961 280.611 342.1C280.275 342.959 279.79 343.696 279.155 344.312H287.191V331.012H281.255ZM295.49 336.668C296.703 335.492 298.206 334.904 299.998 334.904C301.79 334.904 303.283 335.492 304.478 336.668C305.691 337.825 306.298 339.309 306.298 341.12C306.298 342.912 305.691 344.405 304.478 345.6C303.283 346.776 301.79 347.364 299.998 347.364C298.206 347.364 296.703 346.776 295.49 345.6C294.295 344.405 293.698 342.912 293.698 341.12C293.698 339.309 294.295 337.825 295.49 336.668ZM297.45 343.892C298.085 344.564 298.934 344.9 299.998 344.9C301.062 344.9 301.911 344.564 302.546 343.892C303.181 343.201 303.498 342.287 303.498 341.148C303.498 339.897 303.153 338.955 302.462 338.32C301.79 337.685 300.969 337.368 299.998 337.368C299.027 337.368 298.197 337.685 297.506 338.32C296.834 338.955 296.498 339.897 296.498 341.148C296.498 342.287 296.815 343.201 297.45 343.892ZM309.162 335.212H313.782C314.958 335.212 315.854 335.445 316.47 335.912C317.198 336.491 317.562 337.247 317.562 338.18C317.562 339.244 317.095 340.009 316.162 340.476C316.759 340.588 317.291 340.849 317.758 341.26C318.374 341.82 318.682 342.576 318.682 343.528C318.682 344.667 318.252 345.563 317.394 346.216C316.684 346.739 315.779 347 314.678 347H309.162V335.212ZM311.906 339.804H313.306C313.791 339.804 314.155 339.72 314.398 339.552C314.752 339.328 314.93 339.011 314.93 338.6C314.93 338.208 314.771 337.9 314.454 337.676C314.23 337.527 313.828 337.452 313.25 337.452H311.906V339.804ZM311.906 344.76H313.95C314.566 344.76 315.042 344.648 315.378 344.424C315.751 344.181 315.938 343.836 315.938 343.388C315.938 342.903 315.76 342.557 315.406 342.352C315.088 342.147 314.631 342.044 314.034 342.044H311.906V344.76ZM322.725 336.668C323.938 335.492 325.441 334.904 327.233 334.904C329.025 334.904 330.518 335.492 331.713 336.668C332.926 337.825 333.533 339.309 333.533 341.12C333.533 342.912 332.926 344.405 331.713 345.6C330.518 346.776 329.025 347.364 327.233 347.364C325.441 347.364 323.938 346.776 322.725 345.6C321.53 344.405 320.933 342.912 320.933 341.12C320.933 339.309 321.53 337.825 322.725 336.668ZM324.685 343.892C325.319 344.564 326.169 344.9 327.233 344.9C328.297 344.9 329.146 344.564 329.781 343.892C330.415 343.201 330.733 342.287 330.733 341.148C330.733 339.897 330.387 338.955 329.697 338.32C329.025 337.685 328.203 337.368 327.233 337.368C326.262 337.368 325.431 337.685 324.741 338.32C324.069 338.955 323.733 339.897 323.733 341.148C323.733 342.287 324.05 343.201 324.685 343.892ZM346.084 335.212V347H343.34V337.732H339.868V342.408C339.868 343.864 339.495 344.993 338.748 345.796C337.796 346.86 336.508 347.261 334.884 347V344.48C335.687 344.667 336.331 344.489 336.816 343.948C337.096 343.612 337.236 343.099 337.236 342.408V335.212H346.084ZM349.549 347V335.212H352.293V339.384H353.861C354.365 339.384 354.775 339.403 355.093 339.44C355.41 339.459 355.793 339.561 356.241 339.748C356.689 339.935 357.081 340.215 357.417 340.588C358.033 341.279 358.341 342.137 358.341 343.164C358.341 344.34 357.986 345.283 357.277 345.992C356.959 346.309 356.577 346.552 356.129 346.72C355.699 346.869 355.335 346.953 355.037 346.972C354.757 346.991 354.355 347 353.833 347H349.549ZM352.293 344.648H353.553C354.225 344.648 354.701 344.564 354.981 344.396C355.391 344.097 355.597 343.696 355.597 343.192C355.597 342.669 355.401 342.277 355.008 342.016C354.71 341.829 354.234 341.736 353.581 341.736H352.293V344.648ZM360.759 347V335.212H363.503V339.58H368.375V335.212H371.119V347H368.375V342.1H363.503V347H360.759ZM374.595 347V335.212H377.339V339.384H378.907C379.411 339.384 379.822 339.403 380.139 339.44C380.457 339.459 380.839 339.561 381.287 339.748C381.735 339.935 382.127 340.215 382.463 340.588C383.079 341.279 383.387 342.137 383.387 343.164C383.387 344.34 383.033 345.283 382.323 345.992C382.006 346.309 381.623 346.552 381.175 346.72C380.746 346.869 380.382 346.953 380.083 346.972C379.803 346.991 379.402 347 378.879 347H374.595ZM377.339 344.648H378.599C379.271 344.648 379.747 344.564 380.027 344.396C380.438 344.097 380.643 343.696 380.643 343.192C380.643 342.669 380.447 342.277 380.055 342.016C379.757 341.829 379.281 341.736 378.627 341.736H377.339V344.648ZM384.619 347V335.212H387.363V347H384.619ZM390.838 335.212H393.582V341.904L401.646 334.148V347H398.902V340.14L390.838 347.896V335.212ZM391.734 330.116L393.974 329.472C394.328 330.685 395.094 331.292 396.27 331.292C397.427 331.292 398.192 330.685 398.566 329.472L400.806 330.116C400.507 331.18 399.9 332.001 398.986 332.58C398.09 333.14 397.184 333.42 396.27 333.42C395.355 333.42 394.44 333.14 393.526 332.58C392.63 332.001 392.032 331.18 391.734 330.116ZM411.646 335.212H414.39V339.412L418.31 335.212H421.95L416.798 340.364L422.23 347H418.758L414.838 342.156L414.39 342.604V347H411.646V335.212ZM433.994 335.212V347H431.25V337.732H427.778V342.408C427.778 343.864 427.405 344.993 426.658 345.796C425.706 346.86 424.418 347.261 422.794 347V344.48C423.597 344.667 424.241 344.489 424.726 343.948C425.006 343.612 425.146 343.099 425.146 342.408V335.212H433.994ZM437.459 335.212H440.203V341.904L448.267 334.148V347H445.523V340.14L437.459 347.896V335.212ZM459.992 343.024L462.288 344.312C461.765 345.245 461.103 345.964 460.3 346.468C459.385 347.065 458.228 347.364 456.828 347.364C455.185 347.364 453.86 346.86 452.852 345.852C451.695 344.695 451.116 343.192 451.116 341.344C451.116 339.403 451.741 337.788 452.992 336.5C454.056 335.436 455.372 334.904 456.94 334.904C458.471 334.904 459.731 335.417 460.72 336.444C461.821 337.583 462.372 339.244 462.372 341.428V341.764H453.916C453.991 342.753 454.327 343.547 454.924 344.144C455.428 344.648 456.128 344.9 457.024 344.9C457.752 344.9 458.377 344.704 458.9 344.312C459.329 343.976 459.693 343.547 459.992 343.024ZM454.112 339.524H459.572C459.46 338.871 459.18 338.339 458.732 337.928C458.247 337.48 457.631 337.256 456.884 337.256C456.1 337.256 455.456 337.508 454.952 338.012C454.541 338.385 454.261 338.889 454.112 339.524ZM465.24 347V335.212H467.984V339.58H472.856V335.212H475.6V347H472.856V342.1H467.984V347H465.24ZM487.196 337.732H483.752V347H481.008V337.732H477.564V335.212H487.196V337.732ZM494.889 336.36V334.008H507.041V336.36H494.889ZM494.889 340.896V338.544H507.041V340.896H494.889ZM516.236 335.212H526.484V347H523.74V337.732H518.98V347H516.236V335.212ZM531.139 336.668C532.352 335.492 533.855 334.904 535.647 334.904C537.439 334.904 538.932 335.492 540.127 336.668C541.34 337.825 541.947 339.309 541.947 341.12C541.947 342.912 541.34 344.405 540.127 345.6C538.932 346.776 537.439 347.364 535.647 347.364C533.855 347.364 532.352 346.776 531.139 345.6C529.944 344.405 529.347 342.912 529.347 341.12C529.347 339.309 529.944 337.825 531.139 336.668ZM533.099 343.892C533.733 344.564 534.583 344.9 535.647 344.9C536.711 344.9 537.56 344.564 538.195 343.892C538.829 343.201 539.147 342.287 539.147 341.148C539.147 339.897 538.801 338.955 538.111 338.32C537.439 337.685 536.617 337.368 535.647 337.368C534.676 337.368 533.845 337.685 533.155 338.32C532.483 338.955 532.147 339.897 532.147 341.148C532.147 342.287 532.464 343.201 533.099 343.892ZM553.938 335.744V338.824C552.949 337.853 551.838 337.368 550.606 337.368C549.561 337.368 548.693 337.713 548.002 338.404C547.33 339.076 546.994 339.981 546.994 341.12C546.994 342.296 547.349 343.239 548.058 343.948C548.73 344.583 549.561 344.9 550.55 344.9C551.913 344.9 553.042 344.396 553.938 343.388V346.44C552.949 347.056 551.754 347.364 550.354 347.364C548.469 347.364 546.976 346.785 545.874 345.628C544.754 344.471 544.194 342.996 544.194 341.204C544.194 339.356 544.792 337.835 545.986 336.64C547.144 335.483 548.721 334.904 550.718 334.904C551.857 334.904 552.93 335.184 553.938 335.744ZM564.961 337.732H561.517V347H558.773V337.732H555.329V335.212H564.961V337.732ZM567.807 336.668C569.02 335.492 570.523 334.904 572.315 334.904C574.107 334.904 575.6 335.492 576.795 336.668C578.008 337.825 578.615 339.309 578.615 341.12C578.615 342.912 578.008 344.405 576.795 345.6C575.6 346.776 574.107 347.364 572.315 347.364C570.523 347.364 569.02 346.776 567.807 345.6C566.612 344.405 566.015 342.912 566.015 341.12C566.015 339.309 566.612 337.825 567.807 336.668ZM569.767 343.892C570.401 344.564 571.251 344.9 572.315 344.9C573.379 344.9 574.228 344.564 574.863 343.892C575.497 343.201 575.815 342.287 575.815 341.148C575.815 339.897 575.469 338.955 574.779 338.32C574.107 337.685 573.285 337.368 572.315 337.368C571.344 337.368 570.513 337.685 569.823 338.32C569.151 338.955 568.815 339.897 568.815 341.148C568.815 342.287 569.132 343.201 569.767 343.892ZM579.966 347L583.662 342.324C582.934 342.212 582.309 341.913 581.786 341.428C581.133 340.793 580.806 339.981 580.806 338.992C580.806 337.872 581.17 336.967 581.898 336.276C582.645 335.567 583.784 335.212 585.314 335.212H589.71V347H586.966V342.66H586.406L583.186 347H579.966ZM586.966 340.42V337.564H585.37C584.717 337.564 584.241 337.648 583.942 337.816C583.494 338.096 583.27 338.488 583.27 338.992C583.27 339.496 583.457 339.879 583.83 340.14C584.11 340.327 584.614 340.42 585.342 340.42H586.966ZM593.181 347V335.212H595.925V339.58H600.797V335.212H603.541V347H600.797V342.1H595.925V347H593.181ZM607.017 347V335.212H609.761V339.58H614.633V335.212H617.377V347H614.633V342.1H609.761V347H607.017ZM620.853 347V335.212H623.597V339.384H625.165C625.669 339.384 626.08 339.403 626.397 339.44C626.715 339.459 627.097 339.561 627.545 339.748C627.993 339.935 628.385 340.215 628.721 340.588C629.337 341.279 629.645 342.137 629.645 343.164C629.645 344.34 629.291 345.283 628.581 345.992C628.264 346.309 627.881 346.552 627.433 346.72C627.004 346.869 626.64 346.953 626.341 346.972C626.061 346.991 625.66 347 625.137 347H620.853ZM623.597 344.648H624.857C625.529 344.648 626.005 344.564 626.285 344.396C626.696 344.097 626.901 343.696 626.901 343.192C626.901 342.669 626.705 342.277 626.313 342.016C626.015 341.829 625.539 341.736 624.885 341.736H623.597V344.648ZM630.877 347V335.212H633.621V347H630.877ZM637.095 335.212H639.839V341.904L647.903 334.148V347H645.159V340.14L637.095 347.896V335.212ZM637.991 330.116L640.231 329.472C640.586 330.685 641.351 331.292 642.527 331.292C643.685 331.292 644.45 330.685 644.823 329.472L647.063 330.116C646.765 331.18 646.158 332.001 645.243 332.58C644.347 333.14 643.442 333.42 642.527 333.42C641.613 333.42 640.698 333.14 639.783 332.58C638.887 332.001 638.29 331.18 637.991 330.116ZM421.449 370.212H424.193V374.412L428.113 370.212H431.753L426.601 375.364L432.033 382H428.561L424.641 377.156L424.193 377.604V382H421.449V370.212ZM443.797 370.212V382H441.053V372.732H437.581V377.408C437.581 378.864 437.208 379.993 436.461 380.796C435.509 381.86 434.221 382.261 432.597 382V379.48C433.4 379.667 434.044 379.489 434.529 378.948C434.809 378.612 434.949 378.099 434.949 377.408V370.212H443.797ZM447.261 370.212H450.005V376.904L458.069 369.148V382H455.325V375.14L447.261 382.896V370.212ZM469.795 378.024L472.091 379.312C471.568 380.245 470.905 380.964 470.103 381.468C469.188 382.065 468.031 382.364 466.631 382.364C464.988 382.364 463.663 381.86 462.655 380.852C461.497 379.695 460.919 378.192 460.919 376.344C460.919 374.403 461.544 372.788 462.795 371.5C463.859 370.436 465.175 369.904 466.743 369.904C468.273 369.904 469.533 370.417 470.523 371.444C471.624 372.583 472.175 374.244 472.175 376.428V376.764H463.719C463.793 377.753 464.129 378.547 464.727 379.144C465.231 379.648 465.931 379.9 466.827 379.9C467.555 379.9 468.18 379.704 468.703 379.312C469.132 378.976 469.496 378.547 469.795 378.024ZM463.915 374.524H469.375C469.263 373.871 468.983 373.339 468.535 372.928C468.049 372.48 467.433 372.256 466.687 372.256C465.903 372.256 465.259 372.508 464.755 373.012C464.344 373.385 464.064 373.889 463.915 374.524ZM475.043 382V370.212H477.787V374.58H482.659V370.212H485.403V382H482.659V377.1H477.787V382H475.043ZM496.999 372.732H493.555V382H490.811V372.732H487.367V370.212H496.999V372.732ZM502.132 377.38H499.388V363.324H502.132V377.38ZM499.556 381.86C499.239 381.524 499.08 381.123 499.08 380.656C499.08 380.189 499.239 379.797 499.556 379.48C499.892 379.144 500.294 378.976 500.76 378.976C501.227 378.976 501.619 379.144 501.936 379.48C502.272 379.797 502.44 380.189 502.44 380.656C502.44 381.123 502.272 381.524 501.936 381.86C501.619 382.177 501.227 382.336 500.76 382.336C500.294 382.336 499.892 382.177 499.556 381.86Z" fill="#475762"/>
<g filter="url(#filter3_dd)">
<rect x="15" y="12" width="149" height="136" rx="10" fill="#FFBBAF"/>
</g>
<path d="M133.667 56H47V103.017H133.667V56Z" fill="white"/>
<path d="M61.95 74.4165C61.95 72.8998 63.0333 72.0332 64.7667 72.0332C66.2835 72.0332 67.8 72.6832 69.1 73.7665L70.6167 71.1665C69.1 69.6498 67.15 68.9998 64.7667 68.9998C60.8667 68.9998 58.4835 71.5998 58.4835 74.633C58.4835 81.3498 67.5835 80.0498 67.5835 84.1663C67.5835 85.683 66.5002 86.983 64.3335 86.983C62.3835 86.983 60.6502 86.1163 59.5667 84.8163L57.8333 87.4165C59.35 88.9332 61.5165 90.0165 64.3333 90.0165C68.6665 90.0165 70.8333 87.4165 70.8333 84.1665C71.05 77.2332 61.95 78.1 61.95 74.4165Z" fill="#FD6F55"/>
<path d="M80.7999 69.4332L74.7332 89.5832H78.4164L79.4997 85.6832H86.2164L87.2997 89.5832H90.9832L84.9164 69.4332H80.7999ZM80.1499 82.65L82.7499 72.9L85.3499 82.65H80.1499Z" fill="#FD6F55"/>
<path d="M99 69.4332H95.75V89.5832H106.15V86.55H99V69.4332Z" fill="#FD6F55"/>
<path d="M122.833 72.25V69.4332H111.783V89.5832H122.833V86.55H115.033V80.7H122.616V77.8832H115.033V72.25H122.833Z" fill="#FD6F55"/>
<defs>
<filter id="filter0_dd" x="458" y="132.255" width="151.025" height="151.037" filterUnits="userSpaceOnUse" color-interpolation-filters="sRGB">
<feFlood flood-opacity="0" result="BackgroundImageFix"/>
<feColorMatrix in="SourceAlpha" type="matrix" values="0 0 0 0 0 0 0 0 0 0 0 0 0 0 0 0 0 0 127 0"/>
<feOffset dx="7" dy="5"/>
<feGaussianBlur stdDeviation="10.5"/>
<feColorMatrix type="matrix" values="0 0 0 0 0 0 0 0 0 0 0 0 0 0 0 0 0 0 0.05 0"/>
<feBlend mode="normal" in2="BackgroundImageFix" result="effect1_dropShadow"/>
<feColorMatrix in="SourceAlpha" type="matrix" values="0 0 0 0 0 0 0 0 0 0 0 0 0 0 0 0 0 0 127 0"/>
<feOffset dx="3" dy="3"/>
<feGaussianBlur stdDeviation="1.5"/>
<feColorMatrix type="matrix" values="0 0 0 0 0 0 0 0 0 0 0 0 0 0 0 0 0 0 0.03 0"/>
<feBlend mode="normal" in2="effect1_dropShadow" result="effect2_dropShadow"/>
<feBlend mode="normal" in="SourceGraphic" in2="effect2_dropShadow" result="shape"/>
</filter>
<filter id="filter1_dd" x="40" y="51" width="508" height="374" filterUnits="userSpaceOnUse" color-interpolation-filters="sRGB">
<feFlood flood-opacity="0" result="BackgroundImageFix"/>
<feColorMatrix in="SourceAlpha" type="matrix" values="0 0 0 0 0 0 0 0 0 0 0 0 0 0 0 0 0 0 127 0"/>
<feOffset dx="9" dy="12"/>
<feGaussianBlur stdDeviation="12"/>
<feColorMatrix type="matrix" values="0 0 0 0 0 0 0 0 0 0 0 0 0 0 0 0 0 0 0.07 0"/>
<feBlend mode="normal" in2="BackgroundImageFix" result="effect1_dropShadow"/>
<feColorMatrix in="SourceAlpha" type="matrix" values="0 0 0 0 0 0 0 0 0 0 0 0 0 0 0 0 0 0 127 0"/>
<feOffset dy="3"/>
<feGaussianBlur stdDeviation="1.5"/>
<feColorMatrix type="matrix" values="0 0 0 0 0 0 0 0 0 0 0 0 0 0 0 0 0 0 0.03 0"/>
<feBlend mode="normal" in2="effect1_dropShadow" result="effect2_dropShadow"/>
<feBlend mode="normal" in="SourceGraphic" in2="effect2_dropShadow" result="shape"/>
</filter>
<filter id="filter2_dd" x="239" y="279" width="481" height="160" filterUnits="userSpaceOnUse" color-interpolation-filters="sRGB">
<feFlood flood-opacity="0" result="BackgroundImageFix"/>
<feColorMatrix in="SourceAlpha" type="matrix" values="0 0 0 0 0 0 0 0 0 0 0 0 0 0 0 0 0 0 127 0"/>
<feOffset dx="9" dy="12"/>
<feGaussianBlur stdDeviation="12"/>
<feColorMatrix type="matrix" values="0 0 0 0 0 0 0 0 0 0 0 0 0 0 0 0 0 0 0.07 0"/>
<feBlend mode="normal" in2="BackgroundImageFix" result="effect1_dropShadow"/>
<feColorMatrix in="SourceAlpha" type="matrix" values="0 0 0 0 0 0 0 0 0 0 0 0 0 0 0 0 0 0 127 0"/>
<feOffset dy="3"/>
<feGaussianBlur stdDeviation="1.5"/>
<feColorMatrix type="matrix" values="0 0 0 0 0 0 0 0 0 0 0 0 0 0 0 0 0 0 0.03 0"/>
<feBlend mode="normal" in2="effect1_dropShadow" result="effect2_dropShadow"/>
<feBlend mode="normal" in="SourceGraphic" in2="effect2_dropShadow" result="shape"/>
</filter>
<filter id="filter3_dd" x="0" y="0" width="197" height="184" filterUnits="userSpaceOnUse" color-interpolation-filters="sRGB">
<feFlood flood-opacity="0" result="BackgroundImageFix"/>
<feColorMatrix in="SourceAlpha" type="matrix" values="0 0 0 0 0 0 0 0 0 0 0 0 0 0 0 0 0 0 127 0"/>
<feOffset dx="9" dy="12"/>
<feGaussianBlur stdDeviation="12"/>
<feColorMatrix type="matrix" values="0 0 0 0 0 0 0 0 0 0 0 0 0 0 0 0 0 0 0.07 0"/>
<feBlend mode="normal" in2="BackgroundImageFix" result="effect1_dropShadow"/>
<feColorMatrix in="SourceAlpha" type="matrix" values="0 0 0 0 0 0 0 0 0 0 0 0 0 0 0 0 0 0 127 0"/>
<feOffset dy="3"/>
<feGaussianBlur stdDeviation="1.5"/>
<feColorMatrix type="matrix" values="0 0 0 0 0 0 0 0 0 0 0 0 0 0 0 0 0 0 0.03 0"/>
<feBlend mode="normal" in2="effect1_dropShadow" result="effect2_dropShadow"/>
<feBlend mode="normal" in="SourceGraphic" in2="effect2_dropShadow" result="shape"/>
</filter>
<clipPath id="clip0">
<rect width="107" height="107" fill="white" transform="translate(376 88)"/>
</clipPath>
<clipPath id="clip1">
<rect width="78" height="78" fill="white" transform="translate(84 259)"/>
</clipPath>
</defs>
</svg>
