<svg width="1909" height="300" viewBox="0 0 1909 300" fill="none" xmlns="http://www.w3.org/2000/svg">
<path d="M76 149H79V152H76V149Z" fill="#FFDE99"/>
<path d="M76 39H79V42H76V39Z" fill="#FFDE99"/>
<path d="M87 149H90V152H87V149Z" fill="#FFDE99"/>
<path d="M87 39H90V42H87V39Z" fill="#FFDE99"/>
<path d="M98 149H101V152H98V149Z" fill="#FFDE99"/>
<path d="M98 39H101V42H98V39Z" fill="#FFDE99"/>
<path d="M109 149H112V152H109V149Z" fill="#FFDE99"/>
<path d="M109 39H112V42H109V39Z" fill="#FFDE99"/>
<path d="M120 149H123V152H120V149Z" fill="#FFDE99"/>
<path d="M120 39H123V42H120V39Z" fill="#FFDE99"/>
<path d="M131 149H134V152H131V149Z" fill="#FFDE99"/>
<path d="M131 39H134V42H131V39Z" fill="#FFDE99"/>
<path d="M142 149H145V152H142V149Z" fill="#FFDE99"/>
<path d="M142 39H145V42H142V39Z" fill="#FFDE99"/>
<path d="M153 149H156V152H153V149Z" fill="#FFDE99"/>
<path d="M153 39H156V42H153V39Z" fill="#FFDE99"/>
<path d="M164 149H167V152H164V149Z" fill="#FFDE99"/>
<path d="M164 39H167V42H164V39Z" fill="#FFDE99"/>
<path d="M175 149H178V152H175V149Z" fill="#FFDE99"/>
<path d="M175 39H178V42H175V39Z" fill="#FFDE99"/>
<path d="M186 149H189V152H186V149Z" fill="#FFDE99"/>
<path d="M186 39H189V42H186V39Z" fill="#FFDE99"/>
<path d="M197 149H200V152H197V149Z" fill="#FFDE99"/>
<path d="M197 39H200V42H197V39Z" fill="#FFDE99"/>
<path d="M208 149H211V152H208V149Z" fill="#FFDE99"/>
<path d="M208 39H211V42H208V39Z" fill="#FFDE99"/>
<path d="M219 149H222V152H219V149Z" fill="#FFDE99"/>
<path d="M219 39H222V42H219V39Z" fill="#FFDE99"/>
<path d="M230 149H233V152H230V149Z" fill="#FFDE99"/>
<path d="M230 39H233V42H230V39Z" fill="#FFDE99"/>
<path d="M241 149H244V152H241V149Z" fill="#FFDE99"/>
<path d="M241 39H244V42H241V39Z" fill="#FFDE99"/>
<path d="M252 149H255V152H252V149Z" fill="#FFDE99"/>
<path d="M252 39H255V42H252V39Z" fill="#FFDE99"/>
<path d="M263 149H266V152H263V149Z" fill="#FFDE99"/>
<path d="M263 39H266V42H263V39Z" fill="#FFDE99"/>
<path d="M274 149H277V152H274V149Z" fill="#FFDE99"/>
<path d="M274 39H277V42H274V39Z" fill="#FFDE99"/>
<path d="M285 149H288V152H285V149Z" fill="#FFDE99"/>
<path d="M285 39H288V42H285V39Z" fill="#FFDE99"/>
<path d="M76 159H79V162H76V159Z" fill="#FFDE99"/>
<path d="M76 49H79V52H76V49Z" fill="#FFDE99"/>
<path d="M87 159H90V162H87V159Z" fill="#FFDE99"/>
<path d="M87 49H90V52H87V49Z" fill="#FFDE99"/>
<path d="M98 159H101V162H98V159Z" fill="#FFDE99"/>
<path d="M98 49H101V52H98V49Z" fill="#FFDE99"/>
<path d="M109 159H112V162H109V159Z" fill="#FFDE99"/>
<path d="M109 49H112V52H109V49Z" fill="#FFDE99"/>
<path d="M120 159H123V162H120V159Z" fill="#FFDE99"/>
<path d="M120 49H123V52H120V49Z" fill="#FFDE99"/>
<path d="M131 159H134V162H131V159Z" fill="#FFDE99"/>
<path d="M131 49H134V52H131V49Z" fill="#FFDE99"/>
<path d="M142 159H145V162H142V159Z" fill="#FFDE99"/>
<path d="M142 49H145V52H142V49Z" fill="#FFDE99"/>
<path d="M153 159H156V162H153V159Z" fill="#FFDE99"/>
<path d="M153 49H156V52H153V49Z" fill="#FFDE99"/>
<path d="M164 159H167V162H164V159Z" fill="#FFDE99"/>
<path d="M164 49H167V52H164V49Z" fill="#FFDE99"/>
<path d="M175 159H178V162H175V159Z" fill="#FFDE99"/>
<path d="M175 49H178V52H175V49Z" fill="#FFDE99"/>
<path d="M186 159H189V162H186V159Z" fill="#FFDE99"/>
<path d="M186 49H189V52H186V49Z" fill="#FFDE99"/>
<path d="M197 159H200V162H197V159Z" fill="#FFDE99"/>
<path d="M197 49H200V52H197V49Z" fill="#FFDE99"/>
<path d="M208 159H211V162H208V159Z" fill="#FFDE99"/>
<path d="M208 49H211V52H208V49Z" fill="#FFDE99"/>
<path d="M219 159H222V162H219V159Z" fill="#FFDE99"/>
<path d="M219 49H222V52H219V49Z" fill="#FFDE99"/>
<path d="M230 159H233V162H230V159Z" fill="#FFDE99"/>
<path d="M230 49H233V52H230V49Z" fill="#FFDE99"/>
<path d="M241 159H244V162H241V159Z" fill="#FFDE99"/>
<path d="M241 49H244V52H241V49Z" fill="#FFDE99"/>
<path d="M252 159H255V162H252V159Z" fill="#FFDE99"/>
<path d="M252 49H255V52H252V49Z" fill="#FFDE99"/>
<path d="M263 159H266V162H263V159Z" fill="#FFDE99"/>
<path d="M263 49H266V52H263V49Z" fill="#FFDE99"/>
<path d="M274 159H277V162H274V159Z" fill="#FFDE99"/>
<path d="M274 49H277V52H274V49Z" fill="#FFDE99"/>
<path d="M285 159H288V162H285V159Z" fill="#FFDE99"/>
<path d="M285 49H288V52H285V49Z" fill="#FFDE99"/>
<path d="M76 169H79V172H76V169Z" fill="#FFDE99"/>
<path d="M76 59H79V62H76V59Z" fill="#FFDE99"/>
<path d="M87 169H90V172H87V169Z" fill="#FFDE99"/>
<path d="M87 59H90V62H87V59Z" fill="#FFDE99"/>
<path d="M98 169H101V172H98V169Z" fill="#FFDE99"/>
<path d="M98 59H101V62H98V59Z" fill="#FFDE99"/>
<path d="M109 169H112V172H109V169Z" fill="#FFDE99"/>
<path d="M109 59H112V62H109V59Z" fill="#FFDE99"/>
<path d="M120 169H123V172H120V169Z" fill="#FFDE99"/>
<path d="M120 59H123V62H120V59Z" fill="#FFDE99"/>
<path d="M131 169H134V172H131V169Z" fill="#FFDE99"/>
<path d="M131 59H134V62H131V59Z" fill="#FFDE99"/>
<path d="M142 169H145V172H142V169Z" fill="#FFDE99"/>
<path d="M142 59H145V62H142V59Z" fill="#FFDE99"/>
<path d="M153 169H156V172H153V169Z" fill="#FFDE99"/>
<path d="M153 59H156V62H153V59Z" fill="#FFDE99"/>
<path d="M164 169H167V172H164V169Z" fill="#FFDE99"/>
<path d="M164 59H167V62H164V59Z" fill="#FFDE99"/>
<path d="M175 169H178V172H175V169Z" fill="#FFDE99"/>
<path d="M175 59H178V62H175V59Z" fill="#FFDE99"/>
<path d="M186 169H189V172H186V169Z" fill="#FFDE99"/>
<path d="M186 59H189V62H186V59Z" fill="#FFDE99"/>
<path d="M197 169H200V172H197V169Z" fill="#FFDE99"/>
<path d="M197 59H200V62H197V59Z" fill="#FFDE99"/>
<path d="M208 169H211V172H208V169Z" fill="#FFDE99"/>
<path d="M208 59H211V62H208V59Z" fill="#FFDE99"/>
<path d="M219 169H222V172H219V169Z" fill="#FFDE99"/>
<path d="M219 59H222V62H219V59Z" fill="#FFDE99"/>
<path d="M230 169H233V172H230V169Z" fill="#FFDE99"/>
<path d="M230 59H233V62H230V59Z" fill="#FFDE99"/>
<path d="M241 169H244V172H241V169Z" fill="#FFDE99"/>
<path d="M241 59H244V62H241V59Z" fill="#FFDE99"/>
<path d="M252 169H255V172H252V169Z" fill="#FFDE99"/>
<path d="M252 59H255V62H252V59Z" fill="#FFDE99"/>
<path d="M263 169H266V172H263V169Z" fill="#FFDE99"/>
<path d="M263 59H266V62H263V59Z" fill="#FFDE99"/>
<path d="M274 169H277V172H274V169Z" fill="#FFDE99"/>
<path d="M274 59H277V62H274V59Z" fill="#FFDE99"/>
<path d="M285 169H288V172H285V169Z" fill="#FFDE99"/>
<path d="M285 59H288V62H285V59Z" fill="#FFDE99"/>
<path d="M76 179H79V182H76V179Z" fill="#FFDE99"/>
<path d="M76 69H79V72H76V69Z" fill="#FFDE99"/>
<path d="M87 179H90V182H87V179Z" fill="#FFDE99"/>
<path d="M87 69H90V72H87V69Z" fill="#FFDE99"/>
<path d="M98 179H101V182H98V179Z" fill="#FFDE99"/>
<path d="M98 69H101V72H98V69Z" fill="#FFDE99"/>
<path d="M109 179H112V182H109V179Z" fill="#FFDE99"/>
<path d="M109 69H112V72H109V69Z" fill="#FFDE99"/>
<path d="M120 179H123V182H120V179Z" fill="#FFDE99"/>
<path d="M120 69H123V72H120V69Z" fill="#FFDE99"/>
<path d="M131 179H134V182H131V179Z" fill="#FFDE99"/>
<path d="M131 69H134V72H131V69Z" fill="#FFDE99"/>
<path d="M142 179H145V182H142V179Z" fill="#FFDE99"/>
<path d="M142 69H145V72H142V69Z" fill="#FFDE99"/>
<path d="M153 179H156V182H153V179Z" fill="#FFDE99"/>
<path d="M153 69H156V72H153V69Z" fill="#FFDE99"/>
<path d="M164 179H167V182H164V179Z" fill="#FFDE99"/>
<path d="M164 69H167V72H164V69Z" fill="#FFDE99"/>
<path d="M175 179H178V182H175V179Z" fill="#FFDE99"/>
<path d="M175 69H178V72H175V69Z" fill="#FFDE99"/>
<path d="M186 179H189V182H186V179Z" fill="#FFDE99"/>
<path d="M186 69H189V72H186V69Z" fill="#FFDE99"/>
<path d="M197 179H200V182H197V179Z" fill="#FFDE99"/>
<path d="M197 69H200V72H197V69Z" fill="#FFDE99"/>
<path d="M208 179H211V182H208V179Z" fill="#FFDE99"/>
<path d="M208 69H211V72H208V69Z" fill="#FFDE99"/>
<path d="M219 179H222V182H219V179Z" fill="#FFDE99"/>
<path d="M219 69H222V72H219V69Z" fill="#FFDE99"/>
<path d="M230 179H233V182H230V179Z" fill="#FFDE99"/>
<path d="M230 69H233V72H230V69Z" fill="#FFDE99"/>
<path d="M241 179H244V182H241V179Z" fill="#FFDE99"/>
<path d="M241 69H244V72H241V69Z" fill="#FFDE99"/>
<path d="M252 179H255V182H252V179Z" fill="#FFDE99"/>
<path d="M252 69H255V72H252V69Z" fill="#FFDE99"/>
<path d="M263 179H266V182H263V179Z" fill="#FFDE99"/>
<path d="M263 69H266V72H263V69Z" fill="#FFDE99"/>
<path d="M274 179H277V182H274V179Z" fill="#FFDE99"/>
<path d="M274 69H277V72H274V69Z" fill="#FFDE99"/>
<path d="M285 179H288V182H285V179Z" fill="#FFDE99"/>
<path d="M285 69H288V72H285V69Z" fill="#FFDE99"/>
<path d="M76 189H79V192H76V189Z" fill="#FFDE99"/>
<path d="M76 79H79V82H76V79Z" fill="#FFDE99"/>
<path d="M87 189H90V192H87V189Z" fill="#FFDE99"/>
<path d="M87 79H90V82H87V79Z" fill="#FFDE99"/>
<path d="M98 189H101V192H98V189Z" fill="#FFDE99"/>
<path d="M98 79H101V82H98V79Z" fill="#FFDE99"/>
<path d="M109 189H112V192H109V189Z" fill="#FFDE99"/>
<path d="M109 79H112V82H109V79Z" fill="#FFDE99"/>
<path d="M120 189H123V192H120V189Z" fill="#FFDE99"/>
<path d="M120 79H123V82H120V79Z" fill="#FFDE99"/>
<path d="M131 189H134V192H131V189Z" fill="#FFDE99"/>
<path d="M131 79H134V82H131V79Z" fill="#FFDE99"/>
<path d="M142 189H145V192H142V189Z" fill="#FFDE99"/>
<path d="M142 79H145V82H142V79Z" fill="#FFDE99"/>
<path d="M153 189H156V192H153V189Z" fill="#FFDE99"/>
<path d="M153 79H156V82H153V79Z" fill="#FFDE99"/>
<path d="M164 189H167V192H164V189Z" fill="#FFDE99"/>
<path d="M164 79H167V82H164V79Z" fill="#FFDE99"/>
<path d="M175 189H178V192H175V189Z" fill="#FFDE99"/>
<path d="M175 79H178V82H175V79Z" fill="#FFDE99"/>
<path d="M186 189H189V192H186V189Z" fill="#FFDE99"/>
<path d="M186 79H189V82H186V79Z" fill="#FFDE99"/>
<path d="M197 189H200V192H197V189Z" fill="#FFDE99"/>
<path d="M197 79H200V82H197V79Z" fill="#FFDE99"/>
<path d="M208 189H211V192H208V189Z" fill="#FFDE99"/>
<path d="M208 79H211V82H208V79Z" fill="#FFDE99"/>
<path d="M219 189H222V192H219V189Z" fill="#FFDE99"/>
<path d="M219 79H222V82H219V79Z" fill="#FFDE99"/>
<path d="M230 189H233V192H230V189Z" fill="#FFDE99"/>
<path d="M230 79H233V82H230V79Z" fill="#FFDE99"/>
<path d="M241 189H244V192H241V189Z" fill="#FFDE99"/>
<path d="M241 79H244V82H241V79Z" fill="#FFDE99"/>
<path d="M252 189H255V192H252V189Z" fill="#FFDE99"/>
<path d="M252 79H255V82H252V79Z" fill="#FFDE99"/>
<path d="M263 189H266V192H263V189Z" fill="#FFDE99"/>
<path d="M263 79H266V82H263V79Z" fill="#FFDE99"/>
<path d="M274 189H277V192H274V189Z" fill="#FFDE99"/>
<path d="M274 79H277V82H274V79Z" fill="#FFDE99"/>
<path d="M285 189H288V192H285V189Z" fill="#FFDE99"/>
<path d="M285 79H288V82H285V79Z" fill="#FFDE99"/>
<path d="M76 199H79V202H76V199Z" fill="#FFDE99"/>
<path d="M76 89H79V92H76V89Z" fill="#FFDE99"/>
<path d="M87 199H90V202H87V199Z" fill="#FFDE99"/>
<path d="M87 89H90V92H87V89Z" fill="#FFDE99"/>
<path d="M98 199H101V202H98V199Z" fill="#FFDE99"/>
<path d="M98 89H101V92H98V89Z" fill="#FFDE99"/>
<path d="M109 199H112V202H109V199Z" fill="#FFDE99"/>
<path d="M109 89H112V92H109V89Z" fill="#FFDE99"/>
<path d="M120 199H123V202H120V199Z" fill="#FFDE99"/>
<path d="M120 89H123V92H120V89Z" fill="#FFDE99"/>
<path d="M131 199H134V202H131V199Z" fill="#FFDE99"/>
<path d="M131 89H134V92H131V89Z" fill="#FFDE99"/>
<path d="M142 199H145V202H142V199Z" fill="#FFDE99"/>
<path d="M142 89H145V92H142V89Z" fill="#FFDE99"/>
<path d="M153 199H156V202H153V199Z" fill="#FFDE99"/>
<path d="M153 89H156V92H153V89Z" fill="#FFDE99"/>
<path d="M164 199H167V202H164V199Z" fill="#FFDE99"/>
<path d="M164 89H167V92H164V89Z" fill="#FFDE99"/>
<path d="M175 199H178V202H175V199Z" fill="#FFDE99"/>
<path d="M175 89H178V92H175V89Z" fill="#FFDE99"/>
<path d="M186 199H189V202H186V199Z" fill="#FFDE99"/>
<path d="M186 89H189V92H186V89Z" fill="#FFDE99"/>
<path d="M197 199H200V202H197V199Z" fill="#FFDE99"/>
<path d="M197 89H200V92H197V89Z" fill="#FFDE99"/>
<path d="M208 199H211V202H208V199Z" fill="#FFDE99"/>
<path d="M208 89H211V92H208V89Z" fill="#FFDE99"/>
<path d="M219 199H222V202H219V199Z" fill="#FFDE99"/>
<path d="M219 89H222V92H219V89Z" fill="#FFDE99"/>
<path d="M230 199H233V202H230V199Z" fill="#FFDE99"/>
<path d="M230 89H233V92H230V89Z" fill="#FFDE99"/>
<path d="M241 199H244V202H241V199Z" fill="#FFDE99"/>
<path d="M241 89H244V92H241V89Z" fill="#FFDE99"/>
<path d="M252 199H255V202H252V199Z" fill="#FFDE99"/>
<path d="M252 89H255V92H252V89Z" fill="#FFDE99"/>
<path d="M263 199H266V202H263V199Z" fill="#FFDE99"/>
<path d="M263 89H266V92H263V89Z" fill="#FFDE99"/>
<path d="M274 199H277V202H274V199Z" fill="#FFDE99"/>
<path d="M274 89H277V92H274V89Z" fill="#FFDE99"/>
<path d="M285 199H288V202H285V199Z" fill="#FFDE99"/>
<path d="M285 89H288V92H285V89Z" fill="#FFDE99"/>
<path d="M76 209H79V212H76V209Z" fill="#FFDE99"/>
<path d="M76 99H79V102H76V99Z" fill="#FFDE99"/>
<path d="M87 209H90V212H87V209Z" fill="#FFDE99"/>
<path d="M87 99H90V102H87V99Z" fill="#FFDE99"/>
<path d="M98 209H101V212H98V209Z" fill="#FFDE99"/>
<path d="M98 99H101V102H98V99Z" fill="#FFDE99"/>
<path d="M109 209H112V212H109V209Z" fill="#FFDE99"/>
<path d="M109 99H112V102H109V99Z" fill="#FFDE99"/>
<path d="M120 209H123V212H120V209Z" fill="#FFDE99"/>
<path d="M120 99H123V102H120V99Z" fill="#FFDE99"/>
<path d="M131 209H134V212H131V209Z" fill="#FFDE99"/>
<path d="M131 99H134V102H131V99Z" fill="#FFDE99"/>
<path d="M142 209H145V212H142V209Z" fill="#FFDE99"/>
<path d="M142 99H145V102H142V99Z" fill="#FFDE99"/>
<path d="M153 209H156V212H153V209Z" fill="#FFDE99"/>
<path d="M153 99H156V102H153V99Z" fill="#FFDE99"/>
<path d="M164 209H167V212H164V209Z" fill="#FFDE99"/>
<path d="M164 99H167V102H164V99Z" fill="#FFDE99"/>
<path d="M175 209H178V212H175V209Z" fill="#FFDE99"/>
<path d="M175 99H178V102H175V99Z" fill="#FFDE99"/>
<path d="M186 209H189V212H186V209Z" fill="#FFDE99"/>
<path d="M186 99H189V102H186V99Z" fill="#FFDE99"/>
<path d="M197 209H200V212H197V209Z" fill="#FFDE99"/>
<path d="M197 99H200V102H197V99Z" fill="#FFDE99"/>
<path d="M208 209H211V212H208V209Z" fill="#FFDE99"/>
<path d="M208 99H211V102H208V99Z" fill="#FFDE99"/>
<path d="M219 209H222V212H219V209Z" fill="#FFDE99"/>
<path d="M219 99H222V102H219V99Z" fill="#FFDE99"/>
<path d="M230 209H233V212H230V209Z" fill="#FFDE99"/>
<path d="M230 99H233V102H230V99Z" fill="#FFDE99"/>
<path d="M241 209H244V212H241V209Z" fill="#FFDE99"/>
<path d="M241 99H244V102H241V99Z" fill="#FFDE99"/>
<path d="M252 209H255V212H252V209Z" fill="#FFDE99"/>
<path d="M252 99H255V102H252V99Z" fill="#FFDE99"/>
<path d="M263 209H266V212H263V209Z" fill="#FFDE99"/>
<path d="M263 99H266V102H263V99Z" fill="#FFDE99"/>
<path d="M274 209H277V212H274V209Z" fill="#FFDE99"/>
<path d="M274 99H277V102H274V99Z" fill="#FFDE99"/>
<path d="M285 209H288V212H285V209Z" fill="#FFDE99"/>
<path d="M285 99H288V102H285V99Z" fill="#FFDE99"/>
<path d="M76 219H79V222H76V219Z" fill="#FFDE99"/>
<path d="M76 109H79V112H76V109Z" fill="#FFDE99"/>
<path d="M87 219H90V222H87V219Z" fill="#FFDE99"/>
<path d="M87 109H90V112H87V109Z" fill="#FFDE99"/>
<path d="M98 219H101V222H98V219Z" fill="#FFDE99"/>
<path d="M98 109H101V112H98V109Z" fill="#FFDE99"/>
<path d="M109 219H112V222H109V219Z" fill="#FFDE99"/>
<path d="M109 109H112V112H109V109Z" fill="#FFDE99"/>
<path d="M120 219H123V222H120V219Z" fill="#FFDE99"/>
<path d="M120 109H123V112H120V109Z" fill="#FFDE99"/>
<path d="M131 219H134V222H131V219Z" fill="#FFDE99"/>
<path d="M131 109H134V112H131V109Z" fill="#FFDE99"/>
<path d="M142 219H145V222H142V219Z" fill="#FFDE99"/>
<path d="M142 109H145V112H142V109Z" fill="#FFDE99"/>
<path d="M153 219H156V222H153V219Z" fill="#FFDE99"/>
<path d="M153 109H156V112H153V109Z" fill="#FFDE99"/>
<path d="M164 219H167V222H164V219Z" fill="#FFDE99"/>
<path d="M164 109H167V112H164V109Z" fill="#FFDE99"/>
<path d="M175 219H178V222H175V219Z" fill="#FFDE99"/>
<path d="M175 109H178V112H175V109Z" fill="#FFDE99"/>
<path d="M186 219H189V222H186V219Z" fill="#FFDE99"/>
<path d="M186 109H189V112H186V109Z" fill="#FFDE99"/>
<path d="M197 219H200V222H197V219Z" fill="#FFDE99"/>
<path d="M197 109H200V112H197V109Z" fill="#FFDE99"/>
<path d="M208 219H211V222H208V219Z" fill="#FFDE99"/>
<path d="M208 109H211V112H208V109Z" fill="#FFDE99"/>
<path d="M219 219H222V222H219V219Z" fill="#FFDE99"/>
<path d="M219 109H222V112H219V109Z" fill="#FFDE99"/>
<path d="M230 219H233V222H230V219Z" fill="#FFDE99"/>
<path d="M230 109H233V112H230V109Z" fill="#FFDE99"/>
<path d="M241 219H244V222H241V219Z" fill="#FFDE99"/>
<path d="M241 109H244V112H241V109Z" fill="#FFDE99"/>
<path d="M252 219H255V222H252V219Z" fill="#FFDE99"/>
<path d="M252 109H255V112H252V109Z" fill="#FFDE99"/>
<path d="M263 219H266V222H263V219Z" fill="#FFDE99"/>
<path d="M263 109H266V112H263V109Z" fill="#FFDE99"/>
<path d="M274 219H277V222H274V219Z" fill="#FFDE99"/>
<path d="M274 109H277V112H274V109Z" fill="#FFDE99"/>
<path d="M285 219H288V222H285V219Z" fill="#FFDE99"/>
<path d="M285 109H288V112H285V109Z" fill="#FFDE99"/>
<path d="M76 229H79V232H76V229Z" fill="#FFDE99"/>
<path d="M76 119H79V122H76V119Z" fill="#FFDE99"/>
<path d="M87 229H90V232H87V229Z" fill="#FFDE99"/>
<path d="M87 119H90V122H87V119Z" fill="#FFDE99"/>
<path d="M98 229H101V232H98V229Z" fill="#FFDE99"/>
<path d="M98 119H101V122H98V119Z" fill="#FFDE99"/>
<path d="M109 229H112V232H109V229Z" fill="#FFDE99"/>
<path d="M109 119H112V122H109V119Z" fill="#FFDE99"/>
<path d="M120 229H123V232H120V229Z" fill="#FFDE99"/>
<path d="M120 119H123V122H120V119Z" fill="#FFDE99"/>
<path d="M131 229H134V232H131V229Z" fill="#FFDE99"/>
<path d="M131 119H134V122H131V119Z" fill="#FFDE99"/>
<path d="M142 229H145V232H142V229Z" fill="#FFDE99"/>
<path d="M142 119H145V122H142V119Z" fill="#FFDE99"/>
<path d="M153 229H156V232H153V229Z" fill="#FFDE99"/>
<path d="M153 119H156V122H153V119Z" fill="#FFDE99"/>
<path d="M164 229H167V232H164V229Z" fill="#FFDE99"/>
<path d="M164 119H167V122H164V119Z" fill="#FFDE99"/>
<path d="M175 229H178V232H175V229Z" fill="#FFDE99"/>
<path d="M175 119H178V122H175V119Z" fill="#FFDE99"/>
<path d="M186 229H189V232H186V229Z" fill="#FFDE99"/>
<path d="M186 119H189V122H186V119Z" fill="#FFDE99"/>
<path d="M197 229H200V232H197V229Z" fill="#FFDE99"/>
<path d="M197 119H200V122H197V119Z" fill="#FFDE99"/>
<path d="M208 229H211V232H208V229Z" fill="#FFDE99"/>
<path d="M208 119H211V122H208V119Z" fill="#FFDE99"/>
<path d="M219 229H222V232H219V229Z" fill="#FFDE99"/>
<path d="M219 119H222V122H219V119Z" fill="#FFDE99"/>
<path d="M230 229H233V232H230V229Z" fill="#FFDE99"/>
<path d="M230 119H233V122H230V119Z" fill="#FFDE99"/>
<path d="M241 229H244V232H241V229Z" fill="#FFDE99"/>
<path d="M241 119H244V122H241V119Z" fill="#FFDE99"/>
<path d="M252 229H255V232H252V229Z" fill="#FFDE99"/>
<path d="M252 119H255V122H252V119Z" fill="#FFDE99"/>
<path d="M263 229H266V232H263V229Z" fill="#FFDE99"/>
<path d="M263 119H266V122H263V119Z" fill="#FFDE99"/>
<path d="M274 229H277V232H274V229Z" fill="#FFDE99"/>
<path d="M274 119H277V122H274V119Z" fill="#FFDE99"/>
<path d="M285 229H288V232H285V229Z" fill="#FFDE99"/>
<path d="M285 119H288V122H285V119Z" fill="#FFDE99"/>
<path d="M76 239H79V242H76V239Z" fill="#FFDE99"/>
<path d="M76 129H79V132H76V129Z" fill="#FFDE99"/>
<path d="M87 239H90V242H87V239Z" fill="#FFDE99"/>
<path d="M87 129H90V132H87V129Z" fill="#FFDE99"/>
<path d="M98 239H101V242H98V239Z" fill="#FFDE99"/>
<path d="M98 129H101V132H98V129Z" fill="#FFDE99"/>
<path d="M109 239H112V242H109V239Z" fill="#FFDE99"/>
<path d="M109 129H112V132H109V129Z" fill="#FFDE99"/>
<path d="M120 239H123V242H120V239Z" fill="#FFDE99"/>
<path d="M120 129H123V132H120V129Z" fill="#FFDE99"/>
<path d="M131 239H134V242H131V239Z" fill="#FFDE99"/>
<path d="M131 129H134V132H131V129Z" fill="#FFDE99"/>
<path d="M142 239H145V242H142V239Z" fill="#FFDE99"/>
<path d="M142 129H145V132H142V129Z" fill="#FFDE99"/>
<path d="M153 239H156V242H153V239Z" fill="#FFDE99"/>
<path d="M153 129H156V132H153V129Z" fill="#FFDE99"/>
<path d="M164 239H167V242H164V239Z" fill="#FFDE99"/>
<path d="M164 129H167V132H164V129Z" fill="#FFDE99"/>
<path d="M175 239H178V242H175V239Z" fill="#FFDE99"/>
<path d="M175 129H178V132H175V129Z" fill="#FFDE99"/>
<path d="M186 239H189V242H186V239Z" fill="#FFDE99"/>
<path d="M186 129H189V132H186V129Z" fill="#FFDE99"/>
<path d="M197 239H200V242H197V239Z" fill="#FFDE99"/>
<path d="M197 129H200V132H197V129Z" fill="#FFDE99"/>
<path d="M208 239H211V242H208V239Z" fill="#FFDE99"/>
<path d="M208 129H211V132H208V129Z" fill="#FFDE99"/>
<path d="M219 239H222V242H219V239Z" fill="#FFDE99"/>
<path d="M219 129H222V132H219V129Z" fill="#FFDE99"/>
<path d="M230 239H233V242H230V239Z" fill="#FFDE99"/>
<path d="M230 129H233V132H230V129Z" fill="#FFDE99"/>
<path d="M241 239H244V242H241V239Z" fill="#FFDE99"/>
<path d="M241 129H244V132H241V129Z" fill="#FFDE99"/>
<path d="M252 239H255V242H252V239Z" fill="#FFDE99"/>
<path d="M252 129H255V132H252V129Z" fill="#FFDE99"/>
<path d="M263 239H266V242H263V239Z" fill="#FFDE99"/>
<path d="M263 129H266V132H263V129Z" fill="#FFDE99"/>
<path d="M274 239H277V242H274V239Z" fill="#FFDE99"/>
<path d="M274 129H277V132H274V129Z" fill="#FFDE99"/>
<path d="M285 239H288V242H285V239Z" fill="#FFDE99"/>
<path d="M285 129H288V132H285V129Z" fill="#FFDE99"/>
<path d="M76 249H79V252H76V249Z" fill="#FFDE99"/>
<path d="M76 139H79V142H76V139Z" fill="#FFDE99"/>
<path d="M87 249H90V252H87V249Z" fill="#FFDE99"/>
<path d="M87 139H90V142H87V139Z" fill="#FFDE99"/>
<path d="M98 249H101V252H98V249Z" fill="#FFDE99"/>
<path d="M98 139H101V142H98V139Z" fill="#FFDE99"/>
<path d="M109 249H112V252H109V249Z" fill="#FFDE99"/>
<path d="M109 139H112V142H109V139Z" fill="#FFDE99"/>
<path d="M120 249H123V252H120V249Z" fill="#FFDE99"/>
<path d="M120 139H123V142H120V139Z" fill="#FFDE99"/>
<path d="M131 249H134V252H131V249Z" fill="#FFDE99"/>
<path d="M131 139H134V142H131V139Z" fill="#FFDE99"/>
<path d="M142 249H145V252H142V249Z" fill="#FFDE99"/>
<path d="M142 139H145V142H142V139Z" fill="#FFDE99"/>
<path d="M153 249H156V252H153V249Z" fill="#FFDE99"/>
<path d="M153 139H156V142H153V139Z" fill="#FFDE99"/>
<path d="M164 249H167V252H164V249Z" fill="#FFDE99"/>
<path d="M164 139H167V142H164V139Z" fill="#FFDE99"/>
<path d="M175 249H178V252H175V249Z" fill="#FFDE99"/>
<path d="M175 139H178V142H175V139Z" fill="#FFDE99"/>
<path d="M186 249H189V252H186V249Z" fill="#FFDE99"/>
<path d="M186 139H189V142H186V139Z" fill="#FFDE99"/>
<path d="M197 249H200V252H197V249Z" fill="#FFDE99"/>
<path d="M197 139H200V142H197V139Z" fill="#FFDE99"/>
<path d="M208 249H211V252H208V249Z" fill="#FFDE99"/>
<path d="M208 139H211V142H208V139Z" fill="#FFDE99"/>
<path d="M219 249H222V252H219V249Z" fill="#FFDE99"/>
<path d="M219 139H222V142H219V139Z" fill="#FFDE99"/>
<path d="M230 249H233V252H230V249Z" fill="#FFDE99"/>
<path d="M230 139H233V142H230V139Z" fill="#FFDE99"/>
<path d="M241 249H244V252H241V249Z" fill="#FFDE99"/>
<path d="M241 139H244V142H241V139Z" fill="#FFDE99"/>
<path d="M252 249H255V252H252V249Z" fill="#FFDE99"/>
<path d="M252 139H255V142H252V139Z" fill="#FFDE99"/>
<path d="M263 249H266V252H263V249Z" fill="#FFDE99"/>
<path d="M263 139H266V142H263V139Z" fill="#FFDE99"/>
<path d="M274 249H277V252H274V249Z" fill="#FFDE99"/>
<path d="M274 139H277V142H274V139Z" fill="#FFDE99"/>
<path d="M285 249H288V252H285V249Z" fill="#FFDE99"/>
<path d="M285 139H288V142H285V139Z" fill="#FFDE99"/>
<path d="M0 176H109.025V285.037C94.708 285.037 80.5304 282.217 67.3034 276.737C54.0765 271.258 42.0576 263.226 31.9335 253.101C21.8094 242.976 13.7786 230.956 8.299 217.727C2.81939 204.498 0 190.319 0 176Z" fill="#FFD170"/>
<path d="M1628.86 184.251H1630.78V186.18H1628.86V184.251Z" fill="#FFDE99"/>
<path d="M1628.86 113.502H1630.78V115.431H1628.86V113.502Z" fill="#FFDE99"/>
<path d="M1635.92 184.251H1637.85V186.18H1635.92V184.251Z" fill="#FFDE99"/>
<path d="M1635.92 113.502H1637.85V115.431H1635.92V113.502Z" fill="#FFDE99"/>
<path d="M1642.99 184.251H1644.92V186.18H1642.99V184.251Z" fill="#FFDE99"/>
<path d="M1642.99 113.502H1644.92V115.431H1642.99V113.502Z" fill="#FFDE99"/>
<path d="M1650.06 184.251H1651.99V186.18H1650.06V184.251Z" fill="#FFDE99"/>
<path d="M1650.06 113.502H1651.99V115.431H1650.06V113.502Z" fill="#FFDE99"/>
<path d="M1657.13 184.251H1659.05V186.18H1657.13V184.251Z" fill="#FFDE99"/>
<path d="M1657.13 113.502H1659.05V115.431H1657.13V113.502Z" fill="#FFDE99"/>
<path d="M1664.19 184.251H1666.12V186.18H1664.19V184.251Z" fill="#FFDE99"/>
<path d="M1664.19 113.502H1666.12V115.431H1664.19V113.502Z" fill="#FFDE99"/>
<path d="M1671.26 184.251H1673.19V186.18H1671.26V184.251Z" fill="#FFDE99"/>
<path d="M1671.26 113.502H1673.19V115.431H1671.26V113.502Z" fill="#FFDE99"/>
<path d="M1678.33 184.251H1680.26V186.18H1678.33V184.251Z" fill="#FFDE99"/>
<path d="M1678.33 113.502H1680.26V115.431H1678.33V113.502Z" fill="#FFDE99"/>
<path d="M1685.4 184.251H1687.33V186.18H1685.4V184.251Z" fill="#FFDE99"/>
<path d="M1685.4 113.502H1687.33V115.431H1685.4V113.502Z" fill="#FFDE99"/>
<path d="M1692.47 184.251H1694.39V186.18H1692.47V184.251Z" fill="#FFDE99"/>
<path d="M1692.47 113.502H1694.39V115.431H1692.47V113.502Z" fill="#FFDE99"/>
<path d="M1699.53 184.251H1701.46V186.18H1699.53V184.251Z" fill="#FFDE99"/>
<path d="M1699.53 113.502H1701.46V115.431H1699.53V113.502Z" fill="#FFDE99"/>
<path d="M1706.6 184.251H1708.53V186.18H1706.6V184.251Z" fill="#FFDE99"/>
<path d="M1706.6 113.502H1708.53V115.431H1706.6V113.502Z" fill="#FFDE99"/>
<path d="M1713.67 184.251H1715.6V186.18H1713.67V184.251Z" fill="#FFDE99"/>
<path d="M1713.67 113.502H1715.6V115.431H1713.67V113.502Z" fill="#FFDE99"/>
<path d="M1720.74 184.251H1722.67V186.18H1720.74V184.251Z" fill="#FFDE99"/>
<path d="M1720.74 113.502H1722.67V115.431H1720.74V113.502Z" fill="#FFDE99"/>
<path d="M1727.81 184.251H1729.73V186.18H1727.81V184.251Z" fill="#FFDE99"/>
<path d="M1727.81 113.502H1729.73V115.431H1727.81V113.502Z" fill="#FFDE99"/>
<path d="M1734.87 184.251H1736.8V186.18H1734.87V184.251Z" fill="#FFDE99"/>
<path d="M1734.87 113.502H1736.8V115.431H1734.87V113.502Z" fill="#FFDE99"/>
<path d="M1741.94 184.251H1743.87V186.18H1741.94V184.251Z" fill="#FFDE99"/>
<path d="M1741.94 113.502H1743.87V115.431H1741.94V113.502Z" fill="#FFDE99"/>
<path d="M1749.01 184.251H1750.94V186.18H1749.01V184.251Z" fill="#FFDE99"/>
<path d="M1749.01 113.502H1750.94V115.431H1749.01V113.502Z" fill="#FFDE99"/>
<path d="M1756.08 184.251H1758V186.18H1756.08V184.251Z" fill="#FFDE99"/>
<path d="M1756.08 113.502H1758V115.431H1756.08V113.502Z" fill="#FFDE99"/>
<path d="M1763.14 184.251H1765.07V186.18H1763.14V184.251Z" fill="#FFDE99"/>
<path d="M1763.14 113.502H1765.07V115.431H1763.14V113.502Z" fill="#FFDE99"/>
<path d="M1628.86 190.683H1630.78V192.612H1628.86V190.683Z" fill="#FFDE99"/>
<path d="M1628.86 119.934H1630.78V121.863H1628.86V119.934Z" fill="#FFDE99"/>
<path d="M1635.92 190.683H1637.85V192.612H1635.92V190.683Z" fill="#FFDE99"/>
<path d="M1635.92 119.934H1637.85V121.863H1635.92V119.934Z" fill="#FFDE99"/>
<path d="M1642.99 190.683H1644.92V192.612H1642.99V190.683Z" fill="#FFDE99"/>
<path d="M1642.99 119.934H1644.92V121.863H1642.99V119.934Z" fill="#FFDE99"/>
<path d="M1650.06 190.683H1651.99V192.612H1650.06V190.683Z" fill="#FFDE99"/>
<path d="M1650.06 119.934H1651.99V121.863H1650.06V119.934Z" fill="#FFDE99"/>
<path d="M1657.13 190.683H1659.05V192.612H1657.13V190.683Z" fill="#FFDE99"/>
<path d="M1657.13 119.934H1659.05V121.863H1657.13V119.934Z" fill="#FFDE99"/>
<path d="M1664.19 190.683H1666.12V192.612H1664.19V190.683Z" fill="#FFDE99"/>
<path d="M1664.19 119.934H1666.12V121.863H1664.19V119.934Z" fill="#FFDE99"/>
<path d="M1671.26 190.683H1673.19V192.612H1671.26V190.683Z" fill="#FFDE99"/>
<path d="M1671.26 119.934H1673.19V121.863H1671.26V119.934Z" fill="#FFDE99"/>
<path d="M1678.33 190.683H1680.26V192.612H1678.33V190.683Z" fill="#FFDE99"/>
<path d="M1678.33 119.934H1680.26V121.863H1678.33V119.934Z" fill="#FFDE99"/>
<path d="M1685.4 190.683H1687.33V192.612H1685.4V190.683Z" fill="#FFDE99"/>
<path d="M1685.4 119.934H1687.33V121.863H1685.4V119.934Z" fill="#FFDE99"/>
<path d="M1692.47 190.683H1694.39V192.612H1692.47V190.683Z" fill="#FFDE99"/>
<path d="M1692.47 119.934H1694.39V121.863H1692.47V119.934Z" fill="#FFDE99"/>
<path d="M1699.53 190.683H1701.46V192.612H1699.53V190.683Z" fill="#FFDE99"/>
<path d="M1699.53 119.934H1701.46V121.863H1699.53V119.934Z" fill="#FFDE99"/>
<path d="M1706.6 190.683H1708.53V192.612H1706.6V190.683Z" fill="#FFDE99"/>
<path d="M1706.6 119.934H1708.53V121.863H1706.6V119.934Z" fill="#FFDE99"/>
<path d="M1713.67 190.683H1715.6V192.612H1713.67V190.683Z" fill="#FFDE99"/>
<path d="M1713.67 119.934H1715.6V121.863H1713.67V119.934Z" fill="#FFDE99"/>
<path d="M1720.74 190.683H1722.67V192.612H1720.74V190.683Z" fill="#FFDE99"/>
<path d="M1720.74 119.934H1722.67V121.863H1720.74V119.934Z" fill="#FFDE99"/>
<path d="M1727.81 190.683H1729.73V192.612H1727.81V190.683Z" fill="#FFDE99"/>
<path d="M1727.81 119.934H1729.73V121.863H1727.81V119.934Z" fill="#FFDE99"/>
<path d="M1734.87 190.683H1736.8V192.612H1734.87V190.683Z" fill="#FFDE99"/>
<path d="M1734.87 119.934H1736.8V121.863H1734.87V119.934Z" fill="#FFDE99"/>
<path d="M1741.94 190.683H1743.87V192.612H1741.94V190.683Z" fill="#FFDE99"/>
<path d="M1741.94 119.934H1743.87V121.863H1741.94V119.934Z" fill="#FFDE99"/>
<path d="M1749.01 190.683H1750.94V192.612H1749.01V190.683Z" fill="#FFDE99"/>
<path d="M1749.01 119.934H1750.94V121.863H1749.01V119.934Z" fill="#FFDE99"/>
<path d="M1756.08 190.683H1758V192.612H1756.08V190.683Z" fill="#FFDE99"/>
<path d="M1756.08 119.934H1758V121.863H1756.08V119.934Z" fill="#FFDE99"/>
<path d="M1763.14 190.683H1765.07V192.612H1763.14V190.683Z" fill="#FFDE99"/>
<path d="M1763.14 119.934H1765.07V121.863H1763.14V119.934Z" fill="#FFDE99"/>
<path d="M1628.86 197.114H1630.78V199.044H1628.86V197.114Z" fill="#FFDE99"/>
<path d="M1628.86 126.365H1630.78V128.295H1628.86V126.365Z" fill="#FFDE99"/>
<path d="M1635.92 197.114H1637.85V199.044H1635.92V197.114Z" fill="#FFDE99"/>
<path d="M1635.92 126.365H1637.85V128.295H1635.92V126.365Z" fill="#FFDE99"/>
<path d="M1642.99 197.114H1644.92V199.044H1642.99V197.114Z" fill="#FFDE99"/>
<path d="M1642.99 126.365H1644.92V128.295H1642.99V126.365Z" fill="#FFDE99"/>
<path d="M1650.06 197.114H1651.99V199.044H1650.06V197.114Z" fill="#FFDE99"/>
<path d="M1650.06 126.365H1651.99V128.295H1650.06V126.365Z" fill="#FFDE99"/>
<path d="M1657.13 197.114H1659.05V199.044H1657.13V197.114Z" fill="#FFDE99"/>
<path d="M1657.13 126.365H1659.05V128.295H1657.13V126.365Z" fill="#FFDE99"/>
<path d="M1664.19 197.114H1666.12V199.044H1664.19V197.114Z" fill="#FFDE99"/>
<path d="M1664.19 126.365H1666.12V128.295H1664.19V126.365Z" fill="#FFDE99"/>
<path d="M1671.26 197.114H1673.19V199.044H1671.26V197.114Z" fill="#FFDE99"/>
<path d="M1671.26 126.365H1673.19V128.295H1671.26V126.365Z" fill="#FFDE99"/>
<path d="M1678.33 197.114H1680.26V199.044H1678.33V197.114Z" fill="#FFDE99"/>
<path d="M1678.33 126.365H1680.26V128.295H1678.33V126.365Z" fill="#FFDE99"/>
<path d="M1685.4 197.114H1687.33V199.044H1685.4V197.114Z" fill="#FFDE99"/>
<path d="M1685.4 126.365H1687.33V128.295H1685.4V126.365Z" fill="#FFDE99"/>
<path d="M1692.47 197.114H1694.39V199.044H1692.47V197.114Z" fill="#FFDE99"/>
<path d="M1692.47 126.365H1694.39V128.295H1692.47V126.365Z" fill="#FFDE99"/>
<path d="M1699.53 197.114H1701.46V199.044H1699.53V197.114Z" fill="#FFDE99"/>
<path d="M1699.53 126.365H1701.46V128.295H1699.53V126.365Z" fill="#FFDE99"/>
<path d="M1706.6 197.114H1708.53V199.044H1706.6V197.114Z" fill="#FFDE99"/>
<path d="M1706.6 126.365H1708.53V128.295H1706.6V126.365Z" fill="#FFDE99"/>
<path d="M1713.67 197.114H1715.6V199.044H1713.67V197.114Z" fill="#FFDE99"/>
<path d="M1713.67 126.365H1715.6V128.295H1713.67V126.365Z" fill="#FFDE99"/>
<path d="M1720.74 197.114H1722.67V199.044H1720.74V197.114Z" fill="#FFDE99"/>
<path d="M1720.74 126.365H1722.67V128.295H1720.74V126.365Z" fill="#FFDE99"/>
<path d="M1727.81 197.114H1729.73V199.044H1727.81V197.114Z" fill="#FFDE99"/>
<path d="M1727.81 126.365H1729.73V128.295H1727.81V126.365Z" fill="#FFDE99"/>
<path d="M1734.87 197.114H1736.8V199.044H1734.87V197.114Z" fill="#FFDE99"/>
<path d="M1734.87 126.365H1736.8V128.295H1734.87V126.365Z" fill="#FFDE99"/>
<path d="M1741.94 197.114H1743.87V199.044H1741.94V197.114Z" fill="#FFDE99"/>
<path d="M1741.94 126.365H1743.87V128.295H1741.94V126.365Z" fill="#FFDE99"/>
<path d="M1749.01 197.114H1750.94V199.044H1749.01V197.114Z" fill="#FFDE99"/>
<path d="M1749.01 126.365H1750.94V128.295H1749.01V126.365Z" fill="#FFDE99"/>
<path d="M1756.08 197.114H1758V199.044H1756.08V197.114Z" fill="#FFDE99"/>
<path d="M1756.08 126.365H1758V128.295H1756.08V126.365Z" fill="#FFDE99"/>
<path d="M1763.14 197.114H1765.07V199.044H1763.14V197.114Z" fill="#FFDE99"/>
<path d="M1763.14 126.365H1765.07V128.295H1763.14V126.365Z" fill="#FFDE99"/>
<path d="M1628.86 203.546H1630.78V205.476H1628.86V203.546Z" fill="#FFDE99"/>
<path d="M1628.86 132.797H1630.78V134.727H1628.86V132.797Z" fill="#FFDE99"/>
<path d="M1635.92 203.546H1637.85V205.476H1635.92V203.546Z" fill="#FFDE99"/>
<path d="M1635.92 132.797H1637.85V134.727H1635.92V132.797Z" fill="#FFDE99"/>
<path d="M1642.99 203.546H1644.92V205.476H1642.99V203.546Z" fill="#FFDE99"/>
<path d="M1642.99 132.797H1644.92V134.727H1642.99V132.797Z" fill="#FFDE99"/>
<path d="M1650.06 203.546H1651.99V205.476H1650.06V203.546Z" fill="#FFDE99"/>
<path d="M1650.06 132.797H1651.99V134.727H1650.06V132.797Z" fill="#FFDE99"/>
<path d="M1657.13 203.546H1659.05V205.476H1657.13V203.546Z" fill="#FFDE99"/>
<path d="M1657.13 132.797H1659.05V134.727H1657.13V132.797Z" fill="#FFDE99"/>
<path d="M1664.19 203.546H1666.12V205.476H1664.19V203.546Z" fill="#FFDE99"/>
<path d="M1664.19 132.797H1666.12V134.727H1664.19V132.797Z" fill="#FFDE99"/>
<path d="M1671.26 203.546H1673.19V205.476H1671.26V203.546Z" fill="#FFDE99"/>
<path d="M1671.26 132.797H1673.19V134.727H1671.26V132.797Z" fill="#FFDE99"/>
<path d="M1678.33 203.546H1680.26V205.476H1678.33V203.546Z" fill="#FFDE99"/>
<path d="M1678.33 132.797H1680.26V134.727H1678.33V132.797Z" fill="#FFDE99"/>
<path d="M1685.4 203.546H1687.33V205.476H1685.4V203.546Z" fill="#FFDE99"/>
<path d="M1685.4 132.797H1687.33V134.727H1685.4V132.797Z" fill="#FFDE99"/>
<path d="M1692.47 203.546H1694.39V205.476H1692.47V203.546Z" fill="#FFDE99"/>
<path d="M1692.47 132.797H1694.39V134.727H1692.47V132.797Z" fill="#FFDE99"/>
<path d="M1699.53 203.546H1701.46V205.476H1699.53V203.546Z" fill="#FFDE99"/>
<path d="M1699.53 132.797H1701.46V134.727H1699.53V132.797Z" fill="#FFDE99"/>
<path d="M1706.6 203.546H1708.53V205.476H1706.6V203.546Z" fill="#FFDE99"/>
<path d="M1706.6 132.797H1708.53V134.727H1706.6V132.797Z" fill="#FFDE99"/>
<path d="M1713.67 203.546H1715.6V205.476H1713.67V203.546Z" fill="#FFDE99"/>
<path d="M1713.67 132.797H1715.6V134.727H1713.67V132.797Z" fill="#FFDE99"/>
<path d="M1720.74 203.546H1722.67V205.476H1720.74V203.546Z" fill="#FFDE99"/>
<path d="M1720.74 132.797H1722.67V134.727H1720.74V132.797Z" fill="#FFDE99"/>
<path d="M1727.81 203.546H1729.73V205.476H1727.81V203.546Z" fill="#FFDE99"/>
<path d="M1727.81 132.797H1729.73V134.727H1727.81V132.797Z" fill="#FFDE99"/>
<path d="M1734.87 203.546H1736.8V205.476H1734.87V203.546Z" fill="#FFDE99"/>
<path d="M1734.87 132.797H1736.8V134.727H1734.87V132.797Z" fill="#FFDE99"/>
<path d="M1741.94 203.546H1743.87V205.476H1741.94V203.546Z" fill="#FFDE99"/>
<path d="M1741.94 132.797H1743.87V134.727H1741.94V132.797Z" fill="#FFDE99"/>
<path d="M1749.01 203.546H1750.94V205.476H1749.01V203.546Z" fill="#FFDE99"/>
<path d="M1749.01 132.797H1750.94V134.727H1749.01V132.797Z" fill="#FFDE99"/>
<path d="M1756.08 203.546H1758V205.476H1756.08V203.546Z" fill="#FFDE99"/>
<path d="M1756.08 132.797H1758V134.727H1756.08V132.797Z" fill="#FFDE99"/>
<path d="M1763.14 203.546H1765.07V205.476H1763.14V203.546Z" fill="#FFDE99"/>
<path d="M1763.14 132.797H1765.07V134.727H1763.14V132.797Z" fill="#FFDE99"/>
<path d="M1628.86 209.978H1630.78V211.907H1628.86V209.978Z" fill="#FFDE99"/>
<path d="M1628.86 139.229H1630.78V141.158H1628.86V139.229Z" fill="#FFDE99"/>
<path d="M1635.92 209.978H1637.85V211.907H1635.92V209.978Z" fill="#FFDE99"/>
<path d="M1635.92 139.229H1637.85V141.158H1635.92V139.229Z" fill="#FFDE99"/>
<path d="M1642.99 209.978H1644.92V211.907H1642.99V209.978Z" fill="#FFDE99"/>
<path d="M1642.99 139.229H1644.92V141.158H1642.99V139.229Z" fill="#FFDE99"/>
<path d="M1650.06 209.978H1651.99V211.907H1650.06V209.978Z" fill="#FFDE99"/>
<path d="M1650.06 139.229H1651.99V141.158H1650.06V139.229Z" fill="#FFDE99"/>
<path d="M1657.13 209.978H1659.05V211.907H1657.13V209.978Z" fill="#FFDE99"/>
<path d="M1657.13 139.229H1659.05V141.158H1657.13V139.229Z" fill="#FFDE99"/>
<path d="M1664.19 209.978H1666.12V211.907H1664.19V209.978Z" fill="#FFDE99"/>
<path d="M1664.19 139.229H1666.12V141.158H1664.19V139.229Z" fill="#FFDE99"/>
<path d="M1671.26 209.978H1673.19V211.907H1671.26V209.978Z" fill="#FFDE99"/>
<path d="M1671.26 139.229H1673.19V141.158H1671.26V139.229Z" fill="#FFDE99"/>
<path d="M1678.33 209.978H1680.26V211.907H1678.33V209.978Z" fill="#FFDE99"/>
<path d="M1678.33 139.229H1680.26V141.158H1678.33V139.229Z" fill="#FFDE99"/>
<path d="M1685.4 209.978H1687.33V211.907H1685.4V209.978Z" fill="#FFDE99"/>
<path d="M1685.4 139.229H1687.33V141.158H1685.4V139.229Z" fill="#FFDE99"/>
<path d="M1692.47 209.978H1694.39V211.907H1692.47V209.978Z" fill="#FFDE99"/>
<path d="M1692.47 139.229H1694.39V141.158H1692.47V139.229Z" fill="#FFDE99"/>
<path d="M1699.53 209.978H1701.46V211.907H1699.53V209.978Z" fill="#FFDE99"/>
<path d="M1699.53 139.229H1701.46V141.158H1699.53V139.229Z" fill="#FFDE99"/>
<path d="M1706.6 209.978H1708.53V211.907H1706.6V209.978Z" fill="#FFDE99"/>
<path d="M1706.6 139.229H1708.53V141.158H1706.6V139.229Z" fill="#FFDE99"/>
<path d="M1713.67 209.978H1715.6V211.907H1713.67V209.978Z" fill="#FFDE99"/>
<path d="M1713.67 139.229H1715.6V141.158H1713.67V139.229Z" fill="#FFDE99"/>
<path d="M1720.74 209.978H1722.67V211.907H1720.74V209.978Z" fill="#FFDE99"/>
<path d="M1720.74 139.229H1722.67V141.158H1720.74V139.229Z" fill="#FFDE99"/>
<path d="M1727.81 209.978H1729.73V211.907H1727.81V209.978Z" fill="#FFDE99"/>
<path d="M1727.81 139.229H1729.73V141.158H1727.81V139.229Z" fill="#FFDE99"/>
<path d="M1734.87 209.978H1736.8V211.907H1734.87V209.978Z" fill="#FFDE99"/>
<path d="M1734.87 139.229H1736.8V141.158H1734.87V139.229Z" fill="#FFDE99"/>
<path d="M1741.94 209.978H1743.87V211.907H1741.94V209.978Z" fill="#FFDE99"/>
<path d="M1741.94 139.229H1743.87V141.158H1741.94V139.229Z" fill="#FFDE99"/>
<path d="M1749.01 209.978H1750.94V211.907H1749.01V209.978Z" fill="#FFDE99"/>
<path d="M1749.01 139.229H1750.94V141.158H1749.01V139.229Z" fill="#FFDE99"/>
<path d="M1756.08 209.978H1758V211.907H1756.08V209.978Z" fill="#FFDE99"/>
<path d="M1756.08 139.229H1758V141.158H1756.08V139.229Z" fill="#FFDE99"/>
<path d="M1763.14 209.978H1765.07V211.907H1763.14V209.978Z" fill="#FFDE99"/>
<path d="M1763.14 139.229H1765.07V141.158H1763.14V139.229Z" fill="#FFDE99"/>
<path d="M1628.86 216.409H1630.78V218.339H1628.86V216.409Z" fill="#FFDE99"/>
<path d="M1628.86 145.661H1630.78V147.59H1628.86V145.661Z" fill="#FFDE99"/>
<path d="M1635.92 216.409H1637.85V218.339H1635.92V216.409Z" fill="#FFDE99"/>
<path d="M1635.92 145.661H1637.85V147.59H1635.92V145.661Z" fill="#FFDE99"/>
<path d="M1642.99 216.409H1644.92V218.339H1642.99V216.409Z" fill="#FFDE99"/>
<path d="M1642.99 145.661H1644.92V147.59H1642.99V145.661Z" fill="#FFDE99"/>
<path d="M1650.06 216.409H1651.99V218.339H1650.06V216.409Z" fill="#FFDE99"/>
<path d="M1650.06 145.661H1651.99V147.59H1650.06V145.661Z" fill="#FFDE99"/>
<path d="M1657.13 216.409H1659.05V218.339H1657.13V216.409Z" fill="#FFDE99"/>
<path d="M1657.13 145.661H1659.05V147.59H1657.13V145.661Z" fill="#FFDE99"/>
<path d="M1664.19 216.409H1666.12V218.339H1664.19V216.409Z" fill="#FFDE99"/>
<path d="M1664.19 145.661H1666.12V147.59H1664.19V145.661Z" fill="#FFDE99"/>
<path d="M1671.26 216.409H1673.19V218.339H1671.26V216.409Z" fill="#FFDE99"/>
<path d="M1671.26 145.661H1673.19V147.59H1671.26V145.661Z" fill="#FFDE99"/>
<path d="M1678.33 216.409H1680.26V218.339H1678.33V216.409Z" fill="#FFDE99"/>
<path d="M1678.33 145.661H1680.26V147.59H1678.33V145.661Z" fill="#FFDE99"/>
<path d="M1685.4 216.409H1687.33V218.339H1685.4V216.409Z" fill="#FFDE99"/>
<path d="M1685.4 145.661H1687.33V147.59H1685.4V145.661Z" fill="#FFDE99"/>
<path d="M1692.47 216.409H1694.39V218.339H1692.47V216.409Z" fill="#FFDE99"/>
<path d="M1692.47 145.661H1694.39V147.59H1692.47V145.661Z" fill="#FFDE99"/>
<path d="M1699.53 216.409H1701.46V218.339H1699.53V216.409Z" fill="#FFDE99"/>
<path d="M1699.53 145.661H1701.46V147.59H1699.53V145.661Z" fill="#FFDE99"/>
<path d="M1706.6 216.409H1708.53V218.339H1706.6V216.409Z" fill="#FFDE99"/>
<path d="M1706.6 145.661H1708.53V147.59H1706.6V145.661Z" fill="#FFDE99"/>
<path d="M1713.67 216.409H1715.6V218.339H1713.67V216.409Z" fill="#FFDE99"/>
<path d="M1713.67 145.661H1715.6V147.59H1713.67V145.661Z" fill="#FFDE99"/>
<path d="M1720.74 216.409H1722.67V218.339H1720.74V216.409Z" fill="#FFDE99"/>
<path d="M1720.74 145.661H1722.67V147.59H1720.74V145.661Z" fill="#FFDE99"/>
<path d="M1727.81 216.409H1729.73V218.339H1727.81V216.409Z" fill="#FFDE99"/>
<path d="M1727.81 145.661H1729.73V147.59H1727.81V145.661Z" fill="#FFDE99"/>
<path d="M1734.87 216.409H1736.8V218.339H1734.87V216.409Z" fill="#FFDE99"/>
<path d="M1734.87 145.661H1736.8V147.59H1734.87V145.661Z" fill="#FFDE99"/>
<path d="M1741.94 216.409H1743.87V218.339H1741.94V216.409Z" fill="#FFDE99"/>
<path d="M1741.94 145.661H1743.87V147.59H1741.94V145.661Z" fill="#FFDE99"/>
<path d="M1749.01 216.409H1750.94V218.339H1749.01V216.409Z" fill="#FFDE99"/>
<path d="M1749.01 145.661H1750.94V147.59H1749.01V145.661Z" fill="#FFDE99"/>
<path d="M1756.08 216.409H1758V218.339H1756.08V216.409Z" fill="#FFDE99"/>
<path d="M1756.08 145.661H1758V147.59H1756.08V145.661Z" fill="#FFDE99"/>
<path d="M1763.14 216.409H1765.07V218.339H1763.14V216.409Z" fill="#FFDE99"/>
<path d="M1763.14 145.661H1765.07V147.59H1763.14V145.661Z" fill="#FFDE99"/>
<path d="M1628.86 222.841H1630.78V224.771H1628.86V222.841Z" fill="#FFDE99"/>
<path d="M1628.86 152.092H1630.78V154.022H1628.86V152.092Z" fill="#FFDE99"/>
<path d="M1635.92 222.841H1637.85V224.771H1635.92V222.841Z" fill="#FFDE99"/>
<path d="M1635.92 152.092H1637.85V154.022H1635.92V152.092Z" fill="#FFDE99"/>
<path d="M1642.99 222.841H1644.92V224.771H1642.99V222.841Z" fill="#FFDE99"/>
<path d="M1642.99 152.092H1644.92V154.022H1642.99V152.092Z" fill="#FFDE99"/>
<path d="M1650.06 222.841H1651.99V224.771H1650.06V222.841Z" fill="#FFDE99"/>
<path d="M1650.06 152.092H1651.99V154.022H1650.06V152.092Z" fill="#FFDE99"/>
<path d="M1657.13 222.841H1659.05V224.771H1657.13V222.841Z" fill="#FFDE99"/>
<path d="M1657.13 152.092H1659.05V154.022H1657.13V152.092Z" fill="#FFDE99"/>
<path d="M1664.19 222.841H1666.12V224.771H1664.19V222.841Z" fill="#FFDE99"/>
<path d="M1664.19 152.092H1666.12V154.022H1664.19V152.092Z" fill="#FFDE99"/>
<path d="M1671.26 222.841H1673.19V224.771H1671.26V222.841Z" fill="#FFDE99"/>
<path d="M1671.26 152.092H1673.19V154.022H1671.26V152.092Z" fill="#FFDE99"/>
<path d="M1678.33 222.841H1680.26V224.771H1678.33V222.841Z" fill="#FFDE99"/>
<path d="M1678.33 152.092H1680.26V154.022H1678.33V152.092Z" fill="#FFDE99"/>
<path d="M1685.4 222.841H1687.33V224.771H1685.4V222.841Z" fill="#FFDE99"/>
<path d="M1685.4 152.092H1687.33V154.022H1685.4V152.092Z" fill="#FFDE99"/>
<path d="M1692.47 222.841H1694.39V224.771H1692.47V222.841Z" fill="#FFDE99"/>
<path d="M1692.47 152.092H1694.39V154.022H1692.47V152.092Z" fill="#FFDE99"/>
<path d="M1699.53 222.841H1701.46V224.771H1699.53V222.841Z" fill="#FFDE99"/>
<path d="M1699.53 152.092H1701.46V154.022H1699.53V152.092Z" fill="#FFDE99"/>
<path d="M1706.6 222.841H1708.53V224.771H1706.6V222.841Z" fill="#FFDE99"/>
<path d="M1706.6 152.092H1708.53V154.022H1706.6V152.092Z" fill="#FFDE99"/>
<path d="M1713.67 222.841H1715.6V224.771H1713.67V222.841Z" fill="#FFDE99"/>
<path d="M1713.67 152.092H1715.6V154.022H1713.67V152.092Z" fill="#FFDE99"/>
<path d="M1720.74 222.841H1722.67V224.771H1720.74V222.841Z" fill="#FFDE99"/>
<path d="M1720.74 152.092H1722.67V154.022H1720.74V152.092Z" fill="#FFDE99"/>
<path d="M1727.81 222.841H1729.73V224.771H1727.81V222.841Z" fill="#FFDE99"/>
<path d="M1727.81 152.092H1729.73V154.022H1727.81V152.092Z" fill="#FFDE99"/>
<path d="M1734.87 222.841H1736.8V224.771H1734.87V222.841Z" fill="#FFDE99"/>
<path d="M1734.87 152.092H1736.8V154.022H1734.87V152.092Z" fill="#FFDE99"/>
<path d="M1741.94 222.841H1743.87V224.771H1741.94V222.841Z" fill="#FFDE99"/>
<path d="M1741.94 152.092H1743.87V154.022H1741.94V152.092Z" fill="#FFDE99"/>
<path d="M1749.01 222.841H1750.94V224.771H1749.01V222.841Z" fill="#FFDE99"/>
<path d="M1749.01 152.092H1750.94V154.022H1749.01V152.092Z" fill="#FFDE99"/>
<path d="M1756.08 222.841H1758V224.771H1756.08V222.841Z" fill="#FFDE99"/>
<path d="M1756.08 152.092H1758V154.022H1756.08V152.092Z" fill="#FFDE99"/>
<path d="M1763.14 222.841H1765.07V224.771H1763.14V222.841Z" fill="#FFDE99"/>
<path d="M1763.14 152.092H1765.07V154.022H1763.14V152.092Z" fill="#FFDE99"/>
<path d="M1628.86 229.273H1630.78V231.202H1628.86V229.273Z" fill="#FFDE99"/>
<path d="M1628.86 158.524H1630.78V160.453H1628.86V158.524Z" fill="#FFDE99"/>
<path d="M1635.92 229.273H1637.85V231.202H1635.92V229.273Z" fill="#FFDE99"/>
<path d="M1635.92 158.524H1637.85V160.453H1635.92V158.524Z" fill="#FFDE99"/>
<path d="M1642.99 229.273H1644.92V231.202H1642.99V229.273Z" fill="#FFDE99"/>
<path d="M1642.99 158.524H1644.92V160.453H1642.99V158.524Z" fill="#FFDE99"/>
<path d="M1650.06 229.273H1651.99V231.202H1650.06V229.273Z" fill="#FFDE99"/>
<path d="M1650.06 158.524H1651.99V160.453H1650.06V158.524Z" fill="#FFDE99"/>
<path d="M1657.13 229.273H1659.05V231.202H1657.13V229.273Z" fill="#FFDE99"/>
<path d="M1657.13 158.524H1659.05V160.453H1657.13V158.524Z" fill="#FFDE99"/>
<path d="M1664.19 229.273H1666.12V231.202H1664.19V229.273Z" fill="#FFDE99"/>
<path d="M1664.19 158.524H1666.12V160.453H1664.19V158.524Z" fill="#FFDE99"/>
<path d="M1671.26 229.273H1673.19V231.202H1671.26V229.273Z" fill="#FFDE99"/>
<path d="M1671.26 158.524H1673.19V160.453H1671.26V158.524Z" fill="#FFDE99"/>
<path d="M1678.33 229.273H1680.26V231.202H1678.33V229.273Z" fill="#FFDE99"/>
<path d="M1678.33 158.524H1680.26V160.453H1678.33V158.524Z" fill="#FFDE99"/>
<path d="M1685.4 229.273H1687.33V231.202H1685.4V229.273Z" fill="#FFDE99"/>
<path d="M1685.4 158.524H1687.33V160.453H1685.4V158.524Z" fill="#FFDE99"/>
<path d="M1692.47 229.273H1694.39V231.202H1692.47V229.273Z" fill="#FFDE99"/>
<path d="M1692.47 158.524H1694.39V160.453H1692.47V158.524Z" fill="#FFDE99"/>
<path d="M1699.53 229.273H1701.46V231.202H1699.53V229.273Z" fill="#FFDE99"/>
<path d="M1699.53 158.524H1701.46V160.453H1699.53V158.524Z" fill="#FFDE99"/>
<path d="M1706.6 229.273H1708.53V231.202H1706.6V229.273Z" fill="#FFDE99"/>
<path d="M1706.6 158.524H1708.53V160.453H1706.6V158.524Z" fill="#FFDE99"/>
<path d="M1713.67 229.273H1715.6V231.202H1713.67V229.273Z" fill="#FFDE99"/>
<path d="M1713.67 158.524H1715.6V160.453H1713.67V158.524Z" fill="#FFDE99"/>
<path d="M1720.74 229.273H1722.67V231.202H1720.74V229.273Z" fill="#FFDE99"/>
<path d="M1720.74 158.524H1722.67V160.453H1720.74V158.524Z" fill="#FFDE99"/>
<path d="M1727.81 229.273H1729.73V231.202H1727.81V229.273Z" fill="#FFDE99"/>
<path d="M1727.81 158.524H1729.73V160.453H1727.81V158.524Z" fill="#FFDE99"/>
<path d="M1734.87 229.273H1736.8V231.202H1734.87V229.273Z" fill="#FFDE99"/>
<path d="M1734.87 158.524H1736.8V160.453H1734.87V158.524Z" fill="#FFDE99"/>
<path d="M1741.94 229.273H1743.87V231.202H1741.94V229.273Z" fill="#FFDE99"/>
<path d="M1741.94 158.524H1743.87V160.453H1741.94V158.524Z" fill="#FFDE99"/>
<path d="M1749.01 229.273H1750.94V231.202H1749.01V229.273Z" fill="#FFDE99"/>
<path d="M1749.01 158.524H1750.94V160.453H1749.01V158.524Z" fill="#FFDE99"/>
<path d="M1756.08 229.273H1758V231.202H1756.08V229.273Z" fill="#FFDE99"/>
<path d="M1756.08 158.524H1758V160.453H1756.08V158.524Z" fill="#FFDE99"/>
<path d="M1763.14 229.273H1765.07V231.202H1763.14V229.273Z" fill="#FFDE99"/>
<path d="M1763.14 158.524H1765.07V160.453H1763.14V158.524Z" fill="#FFDE99"/>
<path d="M1628.86 235.705H1630.78V237.634H1628.86V235.705Z" fill="#FFDE99"/>
<path d="M1628.86 164.956H1630.78V166.885H1628.86V164.956Z" fill="#FFDE99"/>
<path d="M1635.92 235.705H1637.85V237.634H1635.92V235.705Z" fill="#FFDE99"/>
<path d="M1635.92 164.956H1637.85V166.885H1635.92V164.956Z" fill="#FFDE99"/>
<path d="M1642.99 235.705H1644.92V237.634H1642.99V235.705Z" fill="#FFDE99"/>
<path d="M1642.99 164.956H1644.92V166.885H1642.99V164.956Z" fill="#FFDE99"/>
<path d="M1650.06 235.705H1651.99V237.634H1650.06V235.705Z" fill="#FFDE99"/>
<path d="M1650.06 164.956H1651.99V166.885H1650.06V164.956Z" fill="#FFDE99"/>
<path d="M1657.13 235.705H1659.05V237.634H1657.13V235.705Z" fill="#FFDE99"/>
<path d="M1657.13 164.956H1659.05V166.885H1657.13V164.956Z" fill="#FFDE99"/>
<path d="M1664.19 235.705H1666.12V237.634H1664.19V235.705Z" fill="#FFDE99"/>
<path d="M1664.19 164.956H1666.12V166.885H1664.19V164.956Z" fill="#FFDE99"/>
<path d="M1671.26 235.705H1673.19V237.634H1671.26V235.705Z" fill="#FFDE99"/>
<path d="M1671.26 164.956H1673.19V166.885H1671.26V164.956Z" fill="#FFDE99"/>
<path d="M1678.33 235.705H1680.26V237.634H1678.33V235.705Z" fill="#FFDE99"/>
<path d="M1678.33 164.956H1680.26V166.885H1678.33V164.956Z" fill="#FFDE99"/>
<path d="M1685.4 235.705H1687.33V237.634H1685.4V235.705Z" fill="#FFDE99"/>
<path d="M1685.4 164.956H1687.33V166.885H1685.4V164.956Z" fill="#FFDE99"/>
<path d="M1692.47 235.705H1694.39V237.634H1692.47V235.705Z" fill="#FFDE99"/>
<path d="M1692.47 164.956H1694.39V166.885H1692.47V164.956Z" fill="#FFDE99"/>
<path d="M1699.53 235.705H1701.46V237.634H1699.53V235.705Z" fill="#FFDE99"/>
<path d="M1699.53 164.956H1701.46V166.885H1699.53V164.956Z" fill="#FFDE99"/>
<path d="M1706.6 235.705H1708.53V237.634H1706.6V235.705Z" fill="#FFDE99"/>
<path d="M1706.6 164.956H1708.53V166.885H1706.6V164.956Z" fill="#FFDE99"/>
<path d="M1713.67 235.705H1715.6V237.634H1713.67V235.705Z" fill="#FFDE99"/>
<path d="M1713.67 164.956H1715.6V166.885H1713.67V164.956Z" fill="#FFDE99"/>
<path d="M1720.74 235.705H1722.67V237.634H1720.74V235.705Z" fill="#FFDE99"/>
<path d="M1720.74 164.956H1722.67V166.885H1720.74V164.956Z" fill="#FFDE99"/>
<path d="M1727.81 235.705H1729.73V237.634H1727.81V235.705Z" fill="#FFDE99"/>
<path d="M1727.81 164.956H1729.73V166.885H1727.81V164.956Z" fill="#FFDE99"/>
<path d="M1734.87 235.705H1736.8V237.634H1734.87V235.705Z" fill="#FFDE99"/>
<path d="M1734.87 164.956H1736.8V166.885H1734.87V164.956Z" fill="#FFDE99"/>
<path d="M1741.94 235.705H1743.87V237.634H1741.94V235.705Z" fill="#FFDE99"/>
<path d="M1741.94 164.956H1743.87V166.885H1741.94V164.956Z" fill="#FFDE99"/>
<path d="M1749.01 235.705H1750.94V237.634H1749.01V235.705Z" fill="#FFDE99"/>
<path d="M1749.01 164.956H1750.94V166.885H1749.01V164.956Z" fill="#FFDE99"/>
<path d="M1756.08 235.705H1758V237.634H1756.08V235.705Z" fill="#FFDE99"/>
<path d="M1756.08 164.956H1758V166.885H1756.08V164.956Z" fill="#FFDE99"/>
<path d="M1763.14 235.705H1765.07V237.634H1763.14V235.705Z" fill="#FFDE99"/>
<path d="M1763.14 164.956H1765.07V166.885H1763.14V164.956Z" fill="#FFDE99"/>
<path d="M1628.86 242.136H1630.78V244.066H1628.86V242.136Z" fill="#FFDE99"/>
<path d="M1628.86 171.387H1630.78V173.317H1628.86V171.387Z" fill="#FFDE99"/>
<path d="M1635.92 242.136H1637.85V244.066H1635.92V242.136Z" fill="#FFDE99"/>
<path d="M1635.92 171.387H1637.85V173.317H1635.92V171.387Z" fill="#FFDE99"/>
<path d="M1642.99 242.136H1644.92V244.066H1642.99V242.136Z" fill="#FFDE99"/>
<path d="M1642.99 171.387H1644.92V173.317H1642.99V171.387Z" fill="#FFDE99"/>
<path d="M1650.06 242.136H1651.99V244.066H1650.06V242.136Z" fill="#FFDE99"/>
<path d="M1650.06 171.387H1651.99V173.317H1650.06V171.387Z" fill="#FFDE99"/>
<path d="M1657.13 242.136H1659.05V244.066H1657.13V242.136Z" fill="#FFDE99"/>
<path d="M1657.13 171.387H1659.05V173.317H1657.13V171.387Z" fill="#FFDE99"/>
<path d="M1664.19 242.136H1666.12V244.066H1664.19V242.136Z" fill="#FFDE99"/>
<path d="M1664.19 171.387H1666.12V173.317H1664.19V171.387Z" fill="#FFDE99"/>
<path d="M1671.26 242.136H1673.19V244.066H1671.26V242.136Z" fill="#FFDE99"/>
<path d="M1671.26 171.387H1673.19V173.317H1671.26V171.387Z" fill="#FFDE99"/>
<path d="M1678.33 242.136H1680.26V244.066H1678.33V242.136Z" fill="#FFDE99"/>
<path d="M1678.33 171.387H1680.26V173.317H1678.33V171.387Z" fill="#FFDE99"/>
<path d="M1685.4 242.136H1687.33V244.066H1685.4V242.136Z" fill="#FFDE99"/>
<path d="M1685.4 171.387H1687.33V173.317H1685.4V171.387Z" fill="#FFDE99"/>
<path d="M1692.47 242.136H1694.39V244.066H1692.47V242.136Z" fill="#FFDE99"/>
<path d="M1692.47 171.387H1694.39V173.317H1692.47V171.387Z" fill="#FFDE99"/>
<path d="M1699.53 242.136H1701.46V244.066H1699.53V242.136Z" fill="#FFDE99"/>
<path d="M1699.53 171.387H1701.46V173.317H1699.53V171.387Z" fill="#FFDE99"/>
<path d="M1706.6 242.136H1708.53V244.066H1706.6V242.136Z" fill="#FFDE99"/>
<path d="M1706.6 171.387H1708.53V173.317H1706.6V171.387Z" fill="#FFDE99"/>
<path d="M1713.67 242.136H1715.6V244.066H1713.67V242.136Z" fill="#FFDE99"/>
<path d="M1713.67 171.387H1715.6V173.317H1713.67V171.387Z" fill="#FFDE99"/>
<path d="M1720.74 242.136H1722.67V244.066H1720.74V242.136Z" fill="#FFDE99"/>
<path d="M1720.74 171.387H1722.67V173.317H1720.74V171.387Z" fill="#FFDE99"/>
<path d="M1727.81 242.136H1729.73V244.066H1727.81V242.136Z" fill="#FFDE99"/>
<path d="M1727.81 171.387H1729.73V173.317H1727.81V171.387Z" fill="#FFDE99"/>
<path d="M1734.87 242.136H1736.8V244.066H1734.87V242.136Z" fill="#FFDE99"/>
<path d="M1734.87 171.387H1736.8V173.317H1734.87V171.387Z" fill="#FFDE99"/>
<path d="M1741.94 242.136H1743.87V244.066H1741.94V242.136Z" fill="#FFDE99"/>
<path d="M1741.94 171.387H1743.87V173.317H1741.94V171.387Z" fill="#FFDE99"/>
<path d="M1749.01 242.136H1750.94V244.066H1749.01V242.136Z" fill="#FFDE99"/>
<path d="M1749.01 171.387H1750.94V173.317H1749.01V171.387Z" fill="#FFDE99"/>
<path d="M1756.08 242.136H1758V244.066H1756.08V242.136Z" fill="#FFDE99"/>
<path d="M1756.08 171.387H1758V173.317H1756.08V171.387Z" fill="#FFDE99"/>
<path d="M1763.14 242.136H1765.07V244.066H1763.14V242.136Z" fill="#FFDE99"/>
<path d="M1763.14 171.387H1765.07V173.317H1763.14V171.387Z" fill="#FFDE99"/>
<path d="M1628.86 248.568H1630.78V250.498H1628.86V248.568Z" fill="#FFDE99"/>
<path d="M1628.86 177.819H1630.78V179.749H1628.86V177.819Z" fill="#FFDE99"/>
<path d="M1635.92 248.568H1637.85V250.498H1635.92V248.568Z" fill="#FFDE99"/>
<path d="M1635.92 177.819H1637.85V179.749H1635.92V177.819Z" fill="#FFDE99"/>
<path d="M1642.99 248.568H1644.92V250.498H1642.99V248.568Z" fill="#FFDE99"/>
<path d="M1642.99 177.819H1644.92V179.749H1642.99V177.819Z" fill="#FFDE99"/>
<path d="M1650.06 248.568H1651.99V250.498H1650.06V248.568Z" fill="#FFDE99"/>
<path d="M1650.06 177.819H1651.99V179.749H1650.06V177.819Z" fill="#FFDE99"/>
<path d="M1657.13 248.568H1659.05V250.498H1657.13V248.568Z" fill="#FFDE99"/>
<path d="M1657.13 177.819H1659.05V179.749H1657.13V177.819Z" fill="#FFDE99"/>
<path d="M1664.19 248.568H1666.12V250.498H1664.19V248.568Z" fill="#FFDE99"/>
<path d="M1664.19 177.819H1666.12V179.749H1664.19V177.819Z" fill="#FFDE99"/>
<path d="M1671.26 248.568H1673.19V250.498H1671.26V248.568Z" fill="#FFDE99"/>
<path d="M1671.26 177.819H1673.19V179.749H1671.26V177.819Z" fill="#FFDE99"/>
<path d="M1678.33 248.568H1680.26V250.498H1678.33V248.568Z" fill="#FFDE99"/>
<path d="M1678.33 177.819H1680.26V179.749H1678.33V177.819Z" fill="#FFDE99"/>
<path d="M1685.4 248.568H1687.33V250.498H1685.4V248.568Z" fill="#FFDE99"/>
<path d="M1685.4 177.819H1687.33V179.749H1685.4V177.819Z" fill="#FFDE99"/>
<path d="M1692.47 248.568H1694.39V250.498H1692.47V248.568Z" fill="#FFDE99"/>
<path d="M1692.47 177.819H1694.39V179.749H1692.47V177.819Z" fill="#FFDE99"/>
<path d="M1699.53 248.568H1701.46V250.498H1699.53V248.568Z" fill="#FFDE99"/>
<path d="M1699.53 177.819H1701.46V179.749H1699.53V177.819Z" fill="#FFDE99"/>
<path d="M1706.6 248.568H1708.53V250.498H1706.6V248.568Z" fill="#FFDE99"/>
<path d="M1706.6 177.819H1708.53V179.749H1706.6V177.819Z" fill="#FFDE99"/>
<path d="M1713.67 248.568H1715.6V250.498H1713.67V248.568Z" fill="#FFDE99"/>
<path d="M1713.67 177.819H1715.6V179.749H1713.67V177.819Z" fill="#FFDE99"/>
<path d="M1720.74 248.568H1722.67V250.498H1720.74V248.568Z" fill="#FFDE99"/>
<path d="M1720.74 177.819H1722.67V179.749H1720.74V177.819Z" fill="#FFDE99"/>
<path d="M1727.81 248.568H1729.73V250.498H1727.81V248.568Z" fill="#FFDE99"/>
<path d="M1727.81 177.819H1729.73V179.749H1727.81V177.819Z" fill="#FFDE99"/>
<path d="M1734.87 248.568H1736.8V250.498H1734.87V248.568Z" fill="#FFDE99"/>
<path d="M1734.87 177.819H1736.8V179.749H1734.87V177.819Z" fill="#FFDE99"/>
<path d="M1741.94 248.568H1743.87V250.498H1741.94V248.568Z" fill="#FFDE99"/>
<path d="M1741.94 177.819H1743.87V179.749H1741.94V177.819Z" fill="#FFDE99"/>
<path d="M1749.01 248.568H1750.94V250.498H1749.01V248.568Z" fill="#FFDE99"/>
<path d="M1749.01 177.819H1750.94V179.749H1749.01V177.819Z" fill="#FFDE99"/>
<path d="M1756.08 248.568H1758V250.498H1756.08V248.568Z" fill="#FFDE99"/>
<path d="M1756.08 177.819H1758V179.749H1756.08V177.819Z" fill="#FFDE99"/>
<path d="M1763.14 248.568H1765.07V250.498H1763.14V248.568Z" fill="#FFDE99"/>
<path d="M1763.14 177.819H1765.07V179.749H1763.14V177.819Z" fill="#FFDE99"/>
<path d="M508.252 132.464C509.063 132.773 509.965 133.01 510.928 133.167C527.26 134.315 543.512 135.733 559.963 136.474C580.93 137.421 602.037 137.881 623.111 138.408C628.449 138.554 633.881 138.267 639.248 138.288C642.65 138.301 645.987 138.623 649.388 138.617C658.225 138.589 667.081 138.483 675.948 138.35C677.492 138.324 679.057 137.85 680.622 137.777C681.576 137.721 682.53 138.254 683.486 138.217C691.789 137.865 700.095 137.558 708.387 137.019C719.662 136.292 730.98 135.691 742.167 134.471C759.222 132.648 776.109 130.194 790.373 123.879C799.711 119.728 807.822 115.093 808.964 108.223C809.868 103.23 807.222 98.9683 802.128 95.2389C798.369 92.414 793.743 89.9117 789.68 87.2146C788.547 86.4729 788.019 85.4497 786.943 84.6658C785.425 83.3881 783.628 82.2202 781.589 81.1846C769.532 75.93 756.425 71.3983 742.469 67.6595C732.206 64.8352 721.782 62.1045 711.115 59.7372C676.944 52.1616 641.574 46.4089 604.308 43.6582C579.397 41.824 554.245 40.7801 528.798 41.4541C513.431 41.8592 498.02 43.1269 482.637 44.0696C470.177 44.8018 457.726 45.6951 445.269 46.4982C422.421 47.9831 399.941 50.6298 378.228 55.5335C367.365 57.9825 357.265 61.1757 349.345 66.213C340.236 72.0121 337.787 81.5067 344.247 87.6908C349.426 92.6688 356.966 96.7482 366.154 99.5436C371.033 101.048 376.073 102.433 380.631 104.177C384.515 105.669 387.572 107.752 391.398 109.28C397.395 111.669 403.816 113.724 409.872 116.103C411.809 116.856 413.009 118.124 414.752 119.05C419.497 121.539 423.866 124.334 429.288 126.318C437.587 129.367 446.564 131.918 455.413 134.534C460.142 135.931 465.212 137.023 470.123 138.255C471.798 138.155 473.462 138.272 474.976 138.597C476.491 138.922 477.813 139.445 478.832 140.122C484.534 141.165 490.226 142.221 495.939 143.25C497.15 143.469 498.463 143.606 499.706 143.772L513.473 145.899C514.904 146.436 516.448 146.885 518.079 147.238C551.483 152.109 585.608 155.759 620.235 158.165C642.074 159.675 663.854 161.422 685.833 162.471C705.11 163.395 724.64 163.528 744.067 163.945C747.172 164.008 750.352 163.705 753.486 163.637C755.193 163.619 756.902 163.403 758.498 163.004C760.094 162.605 761.54 162.031 762.74 161.321C763.048 161.151 763.394 161.002 763.768 160.879C764.742 160.55 765.742 160.233 766.728 159.903L763.932 158.988C764.132 158.862 764.354 158.747 764.595 158.645C765.546 158.324 766.51 158.022 767.462 157.713C766.343 157.417 765.231 156.836 764.071 156.865C725.268 157.71 687.672 154.429 649.981 151.561C605.901 148.201 562.343 143.738 519.798 137.366C509.987 135.899 500.285 134.258 490.673 132.514C483.632 131.216 476.801 129.649 470.229 127.824C473.668 128.269 477.096 128.714 480.555 129.08C487.788 129.89 495.162 130.64 502.444 131.466C503.413 131.656 504.323 131.916 505.149 132.239L508.252 132.464ZM716.022 74.3416C719.859 75.0344 723.82 75.5906 727.512 76.4536C744.354 80.3412 759.946 85.5182 773.843 91.8377C778.668 94.0438 782.418 96.921 786.737 99.4867C791.917 102.453 795.048 106.329 795.661 110.531C795.855 111.781 795.412 113.423 794.032 114.39C790.88 116.606 786.451 118.069 781.204 119.063C784.576 115.302 785.907 111.673 781.946 108.466C779.176 106.204 775.835 104.176 772.011 102.434C760.422 97.2241 746.657 93.8943 732.68 90.8356C710.745 86.0395 687.817 82.7049 664.407 80.1359C634.163 76.7393 603.137 75.0206 571.789 75.0053C560.902 74.9983 549.99 75.1806 539.082 75.4335C516.946 75.9416 494.793 77.755 473.013 80.8419C461.135 82.5164 449.48 84.5334 438.272 87.6235C426.876 90.7699 416.581 94.3237 411.31 101.035C410.663 101.849 409.891 102.16 408.29 101.814C404.492 100.977 400.559 100.283 396.783 99.4058C393.723 98.6932 390.204 98.124 387.976 96.9034C382.914 94.2376 379.781 90.6554 379.079 86.7304C378.546 83.5736 379.314 80.334 382.58 77.6265C386.486 74.39 390.57 70.936 396.969 68.9563C400.063 67.992 401.168 65.612 405.371 65.5914C405.705 65.5718 406.101 64.9729 406.514 64.6577C407.786 63.684 410.634 63.8466 411.468 62.556C411.656 62.6042 411.855 62.6402 412.062 62.6634C412.921 62.7731 413.829 62.7772 414.721 62.6752C423.728 60.4388 432.631 58.0725 442.083 56.476C450.663 54.9438 459.493 54.0206 468.342 53.7302C473.927 53.596 479.644 54.2689 485.295 52.818C486.381 52.5408 488.141 53.3427 489.626 53.3524C499.451 53.4218 509.292 53.5613 519.141 53.4223C528.714 53.2866 538.056 54.71 547.89 53.5113C550.15 53.2362 553.169 53.0523 555.414 54.3625C556.418 54.9501 559.102 53.9388 561.406 54.4306C563.711 54.9225 567.113 54.5222 570.01 54.5136C570.106 54.508 570.194 54.5739 570.302 54.5805C576.699 55.0193 582.908 55.9219 589.195 56.5096C612.968 58.7533 636.653 61.1122 659.825 64.5165C665.044 65.2833 670.166 66.2433 675.53 66.827C682.64 67.5667 689.966 67.9186 696.241 69.9426C698.609 70.7023 701.73 70.8229 704.454 71.3095C705.49 71.5433 706.48 71.827 707.414 72.1574L716.022 74.3416ZM573.279 82.0181L571.309 80.8923C571.977 80.7481 572.676 80.6633 573.378 80.6414C574.583 80.7582 575.794 80.9844 577.002 81.1656L573.121 81.9693C573.952 82.2503 574.748 82.7596 575.623 82.7664C577.288 82.772 579.068 82.2922 580.691 82.3844C583.009 82.5068 585.189 83.1224 587.51 83.2771C605.447 84.2341 623.457 84.993 641.343 86.0953C648.387 86.5286 655.263 87.5731 662.087 88.5431C673.681 90.1898 685.895 90.7654 697.087 93.1082C698.021 93.3055 699.235 93.1695 700.203 93.3454C703.835 94.005 707.468 94.6774 711.105 95.4337C714.392 96.1329 717.523 97.0419 720.819 97.6889C724.115 98.3359 727.463 98.65 730.73 99.2146C739.513 100.723 746.706 103.688 754.203 106.332C758.257 107.9 762.016 109.672 765.437 111.628C767.252 112.668 768.856 113.813 770.225 115.046C771.797 116.331 770.563 117.134 767.97 117.442C760.478 118.347 752.992 119.563 745.461 120.006C710.132 122.082 675.075 121.452 640.105 120.674C620.534 120.24 601.037 119.439 581.55 118.612C549.324 117.24 517.314 115.273 485.705 112.164C463.432 110.078 441.474 107.334 419.925 103.944C417.192 103.496 417.47 102.93 418.966 101.892C424.091 98.4155 430.909 96.0166 437.918 94.2273C446.91 91.94 456.602 90.5751 465.969 88.7637C466.632 88.6342 467.041 88.054 467.66 87.7719C468.278 87.4898 469.237 87.1036 469.997 86.7809L471.001 87.3685L468.403 87.7865L469.05 88.1882C470.723 87.9282 472.442 87.4327 474.049 87.4612C479.12 87.5447 483.903 86.3907 488.903 86.0904C497.401 85.591 505.887 84.672 514.371 83.9471C516.6 83.7515 518.809 83.4341 521.04 83.2965C523.046 83.1787 525.048 83.2163 527.022 83.1843C528.506 83.1682 530.002 83.1451 531.487 83.1419C532.972 83.1387 534.68 83.4715 535.593 83.1074C538.285 82.0375 540.824 82.4573 543.375 82.6501C545.59 82.8433 547.649 83.2397 548.882 81.5959C549.082 81.3255 550.056 81.1971 550.742 81.0469C550.826 81.042 551.312 81.3626 551.245 81.4441C549.978 82.9153 552.22 82.1435 553.002 82.2139C554.076 82.2881 555.162 82.3258 556.255 82.3267C558.114 82.3726 559.972 82.4056 561.842 82.4316C564.107 82.4537 566.688 82.1469 568.545 82.568C570.702 83.0038 571.824 82.5239 573.279 82.0052L573.279 82.0181ZM388.869 59.7129C389.398 59.9534 390.003 60.4547 390.454 60.3958C394.805 59.8362 399.113 59.1756 403.449 58.5716C404.282 58.4903 405.119 58.4411 405.956 58.4243C405.496 58.8146 404.954 59.1766 404.342 59.5021C400.568 61.0948 396.628 62.542 392.955 64.2323C380.565 69.8297 373.157 76.8545 371.438 85.3169C370.975 87.6139 371.614 89.9304 371.776 92.695C362.357 89.5495 354.625 86.1627 350.009 81.183C347.757 78.7287 347.196 75.9099 350.49 73.2655C357.146 67.9144 367.533 65.5257 377.557 62.8673C381.4 61.8202 386.184 61.9076 388.868 59.7L388.869 59.7129ZM507.358 44.072C552.238 41.0855 623.664 42.4627 706.644 60.0841C727.768 64.4989 747.777 70.1762 766.325 77.0181C687.389 51.9876 600.937 40.4937 507.357 44.0591L507.358 44.072ZM762.31 100.812L761.939 101.215C757.518 99.9685 753.153 98.6536 748.664 97.4688C732.842 93.2498 716.235 89.8514 699.046 87.3154C683.876 85.1416 668.654 82.9063 653.109 81.4982C633.58 79.7358 613.73 78.6388 593.929 77.5584C585.614 77.1029 577.076 77.333 568.629 77.2732C563.693 77.2399 558.747 77.259 553.814 77.2709C548.88 77.2827 543.851 77.3066 538.87 77.3277C542.629 76.8022 546.454 76.5101 550.269 76.4574C561.706 76.5182 573.129 76.6705 584.537 76.914C614.383 77.5206 643.905 79.1485 672.547 82.9168C689.518 85.1529 706.24 87.8433 722.86 90.6432C736.961 92.975 750.239 96.3934 762.309 100.799L762.31 100.812ZM462.989 129.349L463.533 128.832C467.503 129.737 471.383 130.744 475.441 131.527C484.829 133.336 494.206 135.152 503.749 136.751C515.072 138.672 526.537 140.359 538.014 142.038C539.79 142.302 541.87 143.26 543.996 141.939C544.403 142.042 544.791 142.165 545.156 142.304C546.438 142.72 547.612 143.349 548.999 143.507C570.512 145.869 592.051 148.196 613.616 150.49C616.762 150.829 619.928 151.109 623.096 151.414C621.37 151.625 619.609 151.632 617.935 151.433C595.017 149.067 572.121 146.684 549.248 144.281C546.983 144.046 545.985 144.189 546.392 145.613C546.339 146.141 546.101 146.666 545.692 147.161C545.177 146.739 544.578 146.341 544.144 145.888C543.186 144.864 543.539 143.53 540.473 143.116C528.85 141.535 517.3 139.826 505.822 137.987C498.241 136.77 490.847 135.258 483.399 133.86C478.554 132.941 473.71 132.03 468.86 131.028C466.835 130.529 464.874 129.965 462.988 129.336L462.989 129.349ZM600.053 121.657L599.877 122.12C590.068 121.72 580.239 121.373 570.45 120.894C544.602 119.632 518.791 118.187 493.411 115.721C483.136 114.714 472.921 113.523 462.744 112.35C457.571 111.748 452.485 111.012 447.353 110.299C445.386 110.033 443.407 109.78 441.427 109.522L441.753 108.946C493.415 115.792 546.393 119.54 600.052 121.644L600.053 121.657ZM586.674 130.203C543.885 129.031 501.715 126.381 461.15 119.873C502.24 124.978 544.192 128.42 586.672 130.171L586.674 130.203ZM419.49 50.8908L419.465 50.4654L449.137 47.9135C449.147 48.0875 449.157 48.2616 449.167 48.4291L419.49 50.8908ZM633.047 152.2L632.816 152.75L627.262 152.184L627.43 151.786L633.047 152.2Z" fill="#FFD170"/>
<path d="M1779.51 190C1809.62 190 1834.03 214.409 1834.03 244.519V299.037H1725V244.519C1725 214.409 1749.41 190 1779.51 190Z" fill="#FFD170"/>
<path d="M1584 39C1598.91 39 1611 51.0883 1611 66C1611 80.9117 1598.91 93 1584 93C1569.09 93 1557 80.9117 1557 66C1557 51.0883 1569.09 39 1584 39Z" fill="#FFD170"/>
<path d="M1800 1.30026e-06L1909.04 0L1909.04 109.025C1894.72 109.025 1880.54 106.206 1867.31 100.726C1854.08 95.2466 1842.06 87.2158 1831.94 77.0917C1821.81 66.9676 1813.78 54.9487 1808.3 41.7218C1802.82 28.4948 1800 14.3172 1800 1.30026e-06Z" fill="#FFD170"/>
<path d="M1332.04 207.18C1331.94 205.95 1332.96 204.924 1334.19 205.025L1344.21 205.851C1345.91 205.991 1346.66 208.055 1345.46 209.259L1336.25 218.45C1335.05 219.654 1332.98 218.894 1332.85 217.196L1332.04 207.18Z" fill="#FFD170"/>
<path d="M1388.2 216.694C1381.3 216.694 1375.7 222.291 1375.7 229.194C1375.7 236.098 1381.3 241.694 1388.2 241.694C1395.11 241.694 1400.7 236.098 1400.7 229.194C1400.7 222.291 1395.11 216.694 1388.2 216.694Z" stroke="#FFD170" stroke-width="3"/>
<path d="M896.5 28C903.404 28 909 33.5964 909 40.5C909 47.4036 903.404 53 896.5 53C889.596 53 884 47.4036 884 40.5C884 33.5964 889.596 28 896.5 28Z" stroke="#FFD170" stroke-width="3"/>
<circle r="6.5" transform="matrix(-1 0 0 1 1355.2 260.194)" fill="#FFD170"/>
<circle cx="938.5" cy="59.5" r="6.5" fill="#FFD170"/>
<path d="M480.042 220.547L480.044 220.549L462.192 209.675L473.023 191.819C473.914 190.349 473.472 188.397 472.005 187.504L469.721 186.113C468.255 185.22 466.317 185.722 465.426 187.192L454.595 205.048L436.744 194.174C435.278 193.282 433.364 193.743 432.472 195.213L431.076 197.515C430.185 198.984 430.66 200.894 432.126 201.787L449.979 212.661L439.109 230.582C438.218 232.05 438.704 233.941 440.17 234.834L442.455 236.226C443.921 237.119 445.815 236.677 446.706 235.209L457.575 217.288L475.424 228.16C476.891 229.053 478.804 228.598 479.695 227.129L481.091 224.827C481.983 223.357 481.508 221.441 480.042 220.547Z" fill="#FFD170"/>
<path d="M590.922 250.212L590.924 250.213L573.072 239.339L583.903 221.483C584.794 220.013 584.352 218.061 582.885 217.168L580.601 215.777C579.135 214.884 577.197 215.386 576.306 216.856L565.475 234.712L547.624 223.838C546.158 222.946 544.244 223.407 543.352 224.877L541.956 227.179C541.065 228.648 541.54 230.558 543.006 231.451L560.859 242.325L549.989 260.246C549.098 261.715 549.584 263.605 551.05 264.498L553.335 265.89C554.801 266.783 556.695 266.341 557.586 264.873L568.455 246.952L586.304 257.824C587.771 258.717 589.684 258.262 590.575 256.793L591.971 254.491C592.863 253.021 592.388 251.105 590.922 250.212Z" fill="#FFD170"/>
</svg>
