<svg width="1920" height="300" viewBox="0 0 1920 300" fill="none" xmlns="http://www.w3.org/2000/svg">
<path d="M87 149H90V152H87V149Z" fill="#FFDE99"/>
<path d="M87 39H90V42H87V39Z" fill="#FFDE99"/>
<path d="M98 149H101V152H98V149Z" fill="#FFDE99"/>
<path d="M98 39H101V42H98V39Z" fill="#FFDE99"/>
<path d="M109 149H112V152H109V149Z" fill="#FFDE99"/>
<path d="M109 39H112V42H109V39Z" fill="#FFDE99"/>
<path d="M120 149H123V152H120V149Z" fill="#FFDE99"/>
<path d="M120 39H123V42H120V39Z" fill="#FFDE99"/>
<path d="M131 149H134V152H131V149Z" fill="#FFDE99"/>
<path d="M131 39H134V42H131V39Z" fill="#FFDE99"/>
<path d="M142 149H145V152H142V149Z" fill="#FFDE99"/>
<path d="M142 39H145V42H142V39Z" fill="#FFDE99"/>
<path d="M153 149H156V152H153V149Z" fill="#FFDE99"/>
<path d="M153 39H156V42H153V39Z" fill="#FFDE99"/>
<path d="M164 149H167V152H164V149Z" fill="#FFDE99"/>
<path d="M164 39H167V42H164V39Z" fill="#FFDE99"/>
<path d="M175 149H178V152H175V149Z" fill="#FFDE99"/>
<path d="M175 39H178V42H175V39Z" fill="#FFDE99"/>
<path d="M186 149H189V152H186V149Z" fill="#FFDE99"/>
<path d="M186 39H189V42H186V39Z" fill="#FFDE99"/>
<path d="M197 149H200V152H197V149Z" fill="#FFDE99"/>
<path d="M197 39H200V42H197V39Z" fill="#FFDE99"/>
<path d="M208 149H211V152H208V149Z" fill="#FFDE99"/>
<path d="M208 39H211V42H208V39Z" fill="#FFDE99"/>
<path d="M219 149H222V152H219V149Z" fill="#FFDE99"/>
<path d="M219 39H222V42H219V39Z" fill="#FFDE99"/>
<path d="M230 149H233V152H230V149Z" fill="#FFDE99"/>
<path d="M230 39H233V42H230V39Z" fill="#FFDE99"/>
<path d="M241 149H244V152H241V149Z" fill="#FFDE99"/>
<path d="M241 39H244V42H241V39Z" fill="#FFDE99"/>
<path d="M252 149H255V152H252V149Z" fill="#FFDE99"/>
<path d="M252 39H255V42H252V39Z" fill="#FFDE99"/>
<path d="M263 149H266V152H263V149Z" fill="#FFDE99"/>
<path d="M263 39H266V42H263V39Z" fill="#FFDE99"/>
<path d="M274 149H277V152H274V149Z" fill="#FFDE99"/>
<path d="M274 39H277V42H274V39Z" fill="#FFDE99"/>
<path d="M285 149H288V152H285V149Z" fill="#FFDE99"/>
<path d="M285 39H288V42H285V39Z" fill="#FFDE99"/>
<path d="M296 149H299V152H296V149Z" fill="#FFDE99"/>
<path d="M296 39H299V42H296V39Z" fill="#FFDE99"/>
<path d="M87 159H90V162H87V159Z" fill="#FFDE99"/>
<path d="M87 49H90V52H87V49Z" fill="#FFDE99"/>
<path d="M98 159H101V162H98V159Z" fill="#FFDE99"/>
<path d="M98 49H101V52H98V49Z" fill="#FFDE99"/>
<path d="M109 159H112V162H109V159Z" fill="#FFDE99"/>
<path d="M109 49H112V52H109V49Z" fill="#FFDE99"/>
<path d="M120 159H123V162H120V159Z" fill="#FFDE99"/>
<path d="M120 49H123V52H120V49Z" fill="#FFDE99"/>
<path d="M131 159H134V162H131V159Z" fill="#FFDE99"/>
<path d="M131 49H134V52H131V49Z" fill="#FFDE99"/>
<path d="M142 159H145V162H142V159Z" fill="#FFDE99"/>
<path d="M142 49H145V52H142V49Z" fill="#FFDE99"/>
<path d="M153 159H156V162H153V159Z" fill="#FFDE99"/>
<path d="M153 49H156V52H153V49Z" fill="#FFDE99"/>
<path d="M164 159H167V162H164V159Z" fill="#FFDE99"/>
<path d="M164 49H167V52H164V49Z" fill="#FFDE99"/>
<path d="M175 159H178V162H175V159Z" fill="#FFDE99"/>
<path d="M175 49H178V52H175V49Z" fill="#FFDE99"/>
<path d="M186 159H189V162H186V159Z" fill="#FFDE99"/>
<path d="M186 49H189V52H186V49Z" fill="#FFDE99"/>
<path d="M197 159H200V162H197V159Z" fill="#FFDE99"/>
<path d="M197 49H200V52H197V49Z" fill="#FFDE99"/>
<path d="M208 159H211V162H208V159Z" fill="#FFDE99"/>
<path d="M208 49H211V52H208V49Z" fill="#FFDE99"/>
<path d="M219 159H222V162H219V159Z" fill="#FFDE99"/>
<path d="M219 49H222V52H219V49Z" fill="#FFDE99"/>
<path d="M230 159H233V162H230V159Z" fill="#FFDE99"/>
<path d="M230 49H233V52H230V49Z" fill="#FFDE99"/>
<path d="M241 159H244V162H241V159Z" fill="#FFDE99"/>
<path d="M241 49H244V52H241V49Z" fill="#FFDE99"/>
<path d="M252 159H255V162H252V159Z" fill="#FFDE99"/>
<path d="M252 49H255V52H252V49Z" fill="#FFDE99"/>
<path d="M263 159H266V162H263V159Z" fill="#FFDE99"/>
<path d="M263 49H266V52H263V49Z" fill="#FFDE99"/>
<path d="M274 159H277V162H274V159Z" fill="#FFDE99"/>
<path d="M274 49H277V52H274V49Z" fill="#FFDE99"/>
<path d="M285 159H288V162H285V159Z" fill="#FFDE99"/>
<path d="M285 49H288V52H285V49Z" fill="#FFDE99"/>
<path d="M296 159H299V162H296V159Z" fill="#FFDE99"/>
<path d="M296 49H299V52H296V49Z" fill="#FFDE99"/>
<path d="M87 169H90V172H87V169Z" fill="#FFDE99"/>
<path d="M87 59H90V62H87V59Z" fill="#FFDE99"/>
<path d="M98 169H101V172H98V169Z" fill="#FFDE99"/>
<path d="M98 59H101V62H98V59Z" fill="#FFDE99"/>
<path d="M109 169H112V172H109V169Z" fill="#FFDE99"/>
<path d="M109 59H112V62H109V59Z" fill="#FFDE99"/>
<path d="M120 169H123V172H120V169Z" fill="#FFDE99"/>
<path d="M120 59H123V62H120V59Z" fill="#FFDE99"/>
<path d="M131 169H134V172H131V169Z" fill="#FFDE99"/>
<path d="M131 59H134V62H131V59Z" fill="#FFDE99"/>
<path d="M142 169H145V172H142V169Z" fill="#FFDE99"/>
<path d="M142 59H145V62H142V59Z" fill="#FFDE99"/>
<path d="M153 169H156V172H153V169Z" fill="#FFDE99"/>
<path d="M153 59H156V62H153V59Z" fill="#FFDE99"/>
<path d="M164 169H167V172H164V169Z" fill="#FFDE99"/>
<path d="M164 59H167V62H164V59Z" fill="#FFDE99"/>
<path d="M175 169H178V172H175V169Z" fill="#FFDE99"/>
<path d="M175 59H178V62H175V59Z" fill="#FFDE99"/>
<path d="M186 169H189V172H186V169Z" fill="#FFDE99"/>
<path d="M186 59H189V62H186V59Z" fill="#FFDE99"/>
<path d="M197 169H200V172H197V169Z" fill="#FFDE99"/>
<path d="M197 59H200V62H197V59Z" fill="#FFDE99"/>
<path d="M208 169H211V172H208V169Z" fill="#FFDE99"/>
<path d="M208 59H211V62H208V59Z" fill="#FFDE99"/>
<path d="M219 169H222V172H219V169Z" fill="#FFDE99"/>
<path d="M219 59H222V62H219V59Z" fill="#FFDE99"/>
<path d="M230 169H233V172H230V169Z" fill="#FFDE99"/>
<path d="M230 59H233V62H230V59Z" fill="#FFDE99"/>
<path d="M241 169H244V172H241V169Z" fill="#FFDE99"/>
<path d="M241 59H244V62H241V59Z" fill="#FFDE99"/>
<path d="M252 169H255V172H252V169Z" fill="#FFDE99"/>
<path d="M252 59H255V62H252V59Z" fill="#FFDE99"/>
<path d="M263 169H266V172H263V169Z" fill="#FFDE99"/>
<path d="M263 59H266V62H263V59Z" fill="#FFDE99"/>
<path d="M274 169H277V172H274V169Z" fill="#FFDE99"/>
<path d="M274 59H277V62H274V59Z" fill="#FFDE99"/>
<path d="M285 169H288V172H285V169Z" fill="#FFDE99"/>
<path d="M285 59H288V62H285V59Z" fill="#FFDE99"/>
<path d="M296 169H299V172H296V169Z" fill="#FFDE99"/>
<path d="M296 59H299V62H296V59Z" fill="#FFDE99"/>
<path d="M87 179H90V182H87V179Z" fill="#FFDE99"/>
<path d="M87 69H90V72H87V69Z" fill="#FFDE99"/>
<path d="M98 179H101V182H98V179Z" fill="#FFDE99"/>
<path d="M98 69H101V72H98V69Z" fill="#FFDE99"/>
<path d="M109 179H112V182H109V179Z" fill="#FFDE99"/>
<path d="M109 69H112V72H109V69Z" fill="#FFDE99"/>
<path d="M120 179H123V182H120V179Z" fill="#FFDE99"/>
<path d="M120 69H123V72H120V69Z" fill="#FFDE99"/>
<path d="M131 179H134V182H131V179Z" fill="#FFDE99"/>
<path d="M131 69H134V72H131V69Z" fill="#FFDE99"/>
<path d="M142 179H145V182H142V179Z" fill="#FFDE99"/>
<path d="M142 69H145V72H142V69Z" fill="#FFDE99"/>
<path d="M153 179H156V182H153V179Z" fill="#FFDE99"/>
<path d="M153 69H156V72H153V69Z" fill="#FFDE99"/>
<path d="M164 179H167V182H164V179Z" fill="#FFDE99"/>
<path d="M164 69H167V72H164V69Z" fill="#FFDE99"/>
<path d="M175 179H178V182H175V179Z" fill="#FFDE99"/>
<path d="M175 69H178V72H175V69Z" fill="#FFDE99"/>
<path d="M186 179H189V182H186V179Z" fill="#FFDE99"/>
<path d="M186 69H189V72H186V69Z" fill="#FFDE99"/>
<path d="M197 179H200V182H197V179Z" fill="#FFDE99"/>
<path d="M197 69H200V72H197V69Z" fill="#FFDE99"/>
<path d="M208 179H211V182H208V179Z" fill="#FFDE99"/>
<path d="M208 69H211V72H208V69Z" fill="#FFDE99"/>
<path d="M219 179H222V182H219V179Z" fill="#FFDE99"/>
<path d="M219 69H222V72H219V69Z" fill="#FFDE99"/>
<path d="M230 179H233V182H230V179Z" fill="#FFDE99"/>
<path d="M230 69H233V72H230V69Z" fill="#FFDE99"/>
<path d="M241 179H244V182H241V179Z" fill="#FFDE99"/>
<path d="M241 69H244V72H241V69Z" fill="#FFDE99"/>
<path d="M252 179H255V182H252V179Z" fill="#FFDE99"/>
<path d="M252 69H255V72H252V69Z" fill="#FFDE99"/>
<path d="M263 179H266V182H263V179Z" fill="#FFDE99"/>
<path d="M263 69H266V72H263V69Z" fill="#FFDE99"/>
<path d="M274 179H277V182H274V179Z" fill="#FFDE99"/>
<path d="M274 69H277V72H274V69Z" fill="#FFDE99"/>
<path d="M285 179H288V182H285V179Z" fill="#FFDE99"/>
<path d="M285 69H288V72H285V69Z" fill="#FFDE99"/>
<path d="M296 179H299V182H296V179Z" fill="#FFDE99"/>
<path d="M296 69H299V72H296V69Z" fill="#FFDE99"/>
<path d="M87 189H90V192H87V189Z" fill="#FFDE99"/>
<path d="M87 79H90V82H87V79Z" fill="#FFDE99"/>
<path d="M98 189H101V192H98V189Z" fill="#FFDE99"/>
<path d="M98 79H101V82H98V79Z" fill="#FFDE99"/>
<path d="M109 189H112V192H109V189Z" fill="#FFDE99"/>
<path d="M109 79H112V82H109V79Z" fill="#FFDE99"/>
<path d="M120 189H123V192H120V189Z" fill="#FFDE99"/>
<path d="M120 79H123V82H120V79Z" fill="#FFDE99"/>
<path d="M131 189H134V192H131V189Z" fill="#FFDE99"/>
<path d="M131 79H134V82H131V79Z" fill="#FFDE99"/>
<path d="M142 189H145V192H142V189Z" fill="#FFDE99"/>
<path d="M142 79H145V82H142V79Z" fill="#FFDE99"/>
<path d="M153 189H156V192H153V189Z" fill="#FFDE99"/>
<path d="M153 79H156V82H153V79Z" fill="#FFDE99"/>
<path d="M164 189H167V192H164V189Z" fill="#FFDE99"/>
<path d="M164 79H167V82H164V79Z" fill="#FFDE99"/>
<path d="M175 189H178V192H175V189Z" fill="#FFDE99"/>
<path d="M175 79H178V82H175V79Z" fill="#FFDE99"/>
<path d="M186 189H189V192H186V189Z" fill="#FFDE99"/>
<path d="M186 79H189V82H186V79Z" fill="#FFDE99"/>
<path d="M197 189H200V192H197V189Z" fill="#FFDE99"/>
<path d="M197 79H200V82H197V79Z" fill="#FFDE99"/>
<path d="M208 189H211V192H208V189Z" fill="#FFDE99"/>
<path d="M208 79H211V82H208V79Z" fill="#FFDE99"/>
<path d="M219 189H222V192H219V189Z" fill="#FFDE99"/>
<path d="M219 79H222V82H219V79Z" fill="#FFDE99"/>
<path d="M230 189H233V192H230V189Z" fill="#FFDE99"/>
<path d="M230 79H233V82H230V79Z" fill="#FFDE99"/>
<path d="M241 189H244V192H241V189Z" fill="#FFDE99"/>
<path d="M241 79H244V82H241V79Z" fill="#FFDE99"/>
<path d="M252 189H255V192H252V189Z" fill="#FFDE99"/>
<path d="M252 79H255V82H252V79Z" fill="#FFDE99"/>
<path d="M263 189H266V192H263V189Z" fill="#FFDE99"/>
<path d="M263 79H266V82H263V79Z" fill="#FFDE99"/>
<path d="M274 189H277V192H274V189Z" fill="#FFDE99"/>
<path d="M274 79H277V82H274V79Z" fill="#FFDE99"/>
<path d="M285 189H288V192H285V189Z" fill="#FFDE99"/>
<path d="M285 79H288V82H285V79Z" fill="#FFDE99"/>
<path d="M296 189H299V192H296V189Z" fill="#FFDE99"/>
<path d="M296 79H299V82H296V79Z" fill="#FFDE99"/>
<path d="M87 199H90V202H87V199Z" fill="#FFDE99"/>
<path d="M87 89H90V92H87V89Z" fill="#FFDE99"/>
<path d="M98 199H101V202H98V199Z" fill="#FFDE99"/>
<path d="M98 89H101V92H98V89Z" fill="#FFDE99"/>
<path d="M109 199H112V202H109V199Z" fill="#FFDE99"/>
<path d="M109 89H112V92H109V89Z" fill="#FFDE99"/>
<path d="M120 199H123V202H120V199Z" fill="#FFDE99"/>
<path d="M120 89H123V92H120V89Z" fill="#FFDE99"/>
<path d="M131 199H134V202H131V199Z" fill="#FFDE99"/>
<path d="M131 89H134V92H131V89Z" fill="#FFDE99"/>
<path d="M142 199H145V202H142V199Z" fill="#FFDE99"/>
<path d="M142 89H145V92H142V89Z" fill="#FFDE99"/>
<path d="M153 199H156V202H153V199Z" fill="#FFDE99"/>
<path d="M153 89H156V92H153V89Z" fill="#FFDE99"/>
<path d="M164 199H167V202H164V199Z" fill="#FFDE99"/>
<path d="M164 89H167V92H164V89Z" fill="#FFDE99"/>
<path d="M175 199H178V202H175V199Z" fill="#FFDE99"/>
<path d="M175 89H178V92H175V89Z" fill="#FFDE99"/>
<path d="M186 199H189V202H186V199Z" fill="#FFDE99"/>
<path d="M186 89H189V92H186V89Z" fill="#FFDE99"/>
<path d="M197 199H200V202H197V199Z" fill="#FFDE99"/>
<path d="M197 89H200V92H197V89Z" fill="#FFDE99"/>
<path d="M208 199H211V202H208V199Z" fill="#FFDE99"/>
<path d="M208 89H211V92H208V89Z" fill="#FFDE99"/>
<path d="M219 199H222V202H219V199Z" fill="#FFDE99"/>
<path d="M219 89H222V92H219V89Z" fill="#FFDE99"/>
<path d="M230 199H233V202H230V199Z" fill="#FFDE99"/>
<path d="M230 89H233V92H230V89Z" fill="#FFDE99"/>
<path d="M241 199H244V202H241V199Z" fill="#FFDE99"/>
<path d="M241 89H244V92H241V89Z" fill="#FFDE99"/>
<path d="M252 199H255V202H252V199Z" fill="#FFDE99"/>
<path d="M252 89H255V92H252V89Z" fill="#FFDE99"/>
<path d="M263 199H266V202H263V199Z" fill="#FFDE99"/>
<path d="M263 89H266V92H263V89Z" fill="#FFDE99"/>
<path d="M274 199H277V202H274V199Z" fill="#FFDE99"/>
<path d="M274 89H277V92H274V89Z" fill="#FFDE99"/>
<path d="M285 199H288V202H285V199Z" fill="#FFDE99"/>
<path d="M285 89H288V92H285V89Z" fill="#FFDE99"/>
<path d="M296 199H299V202H296V199Z" fill="#FFDE99"/>
<path d="M296 89H299V92H296V89Z" fill="#FFDE99"/>
<path d="M87 209H90V212H87V209Z" fill="#FFDE99"/>
<path d="M87 99H90V102H87V99Z" fill="#FFDE99"/>
<path d="M98 209H101V212H98V209Z" fill="#FFDE99"/>
<path d="M98 99H101V102H98V99Z" fill="#FFDE99"/>
<path d="M109 209H112V212H109V209Z" fill="#FFDE99"/>
<path d="M109 99H112V102H109V99Z" fill="#FFDE99"/>
<path d="M120 209H123V212H120V209Z" fill="#FFDE99"/>
<path d="M120 99H123V102H120V99Z" fill="#FFDE99"/>
<path d="M131 209H134V212H131V209Z" fill="#FFDE99"/>
<path d="M131 99H134V102H131V99Z" fill="#FFDE99"/>
<path d="M142 209H145V212H142V209Z" fill="#FFDE99"/>
<path d="M142 99H145V102H142V99Z" fill="#FFDE99"/>
<path d="M153 209H156V212H153V209Z" fill="#FFDE99"/>
<path d="M153 99H156V102H153V99Z" fill="#FFDE99"/>
<path d="M164 209H167V212H164V209Z" fill="#FFDE99"/>
<path d="M164 99H167V102H164V99Z" fill="#FFDE99"/>
<path d="M175 209H178V212H175V209Z" fill="#FFDE99"/>
<path d="M175 99H178V102H175V99Z" fill="#FFDE99"/>
<path d="M186 209H189V212H186V209Z" fill="#FFDE99"/>
<path d="M186 99H189V102H186V99Z" fill="#FFDE99"/>
<path d="M197 209H200V212H197V209Z" fill="#FFDE99"/>
<path d="M197 99H200V102H197V99Z" fill="#FFDE99"/>
<path d="M208 209H211V212H208V209Z" fill="#FFDE99"/>
<path d="M208 99H211V102H208V99Z" fill="#FFDE99"/>
<path d="M219 209H222V212H219V209Z" fill="#FFDE99"/>
<path d="M219 99H222V102H219V99Z" fill="#FFDE99"/>
<path d="M230 209H233V212H230V209Z" fill="#FFDE99"/>
<path d="M230 99H233V102H230V99Z" fill="#FFDE99"/>
<path d="M241 209H244V212H241V209Z" fill="#FFDE99"/>
<path d="M241 99H244V102H241V99Z" fill="#FFDE99"/>
<path d="M252 209H255V212H252V209Z" fill="#FFDE99"/>
<path d="M252 99H255V102H252V99Z" fill="#FFDE99"/>
<path d="M263 209H266V212H263V209Z" fill="#FFDE99"/>
<path d="M263 99H266V102H263V99Z" fill="#FFDE99"/>
<path d="M274 209H277V212H274V209Z" fill="#FFDE99"/>
<path d="M274 99H277V102H274V99Z" fill="#FFDE99"/>
<path d="M285 209H288V212H285V209Z" fill="#FFDE99"/>
<path d="M285 99H288V102H285V99Z" fill="#FFDE99"/>
<path d="M296 209H299V212H296V209Z" fill="#FFDE99"/>
<path d="M296 99H299V102H296V99Z" fill="#FFDE99"/>
<path d="M87 219H90V222H87V219Z" fill="#FFDE99"/>
<path d="M87 109H90V112H87V109Z" fill="#FFDE99"/>
<path d="M98 219H101V222H98V219Z" fill="#FFDE99"/>
<path d="M98 109H101V112H98V109Z" fill="#FFDE99"/>
<path d="M109 219H112V222H109V219Z" fill="#FFDE99"/>
<path d="M109 109H112V112H109V109Z" fill="#FFDE99"/>
<path d="M120 219H123V222H120V219Z" fill="#FFDE99"/>
<path d="M120 109H123V112H120V109Z" fill="#FFDE99"/>
<path d="M131 219H134V222H131V219Z" fill="#FFDE99"/>
<path d="M131 109H134V112H131V109Z" fill="#FFDE99"/>
<path d="M142 219H145V222H142V219Z" fill="#FFDE99"/>
<path d="M142 109H145V112H142V109Z" fill="#FFDE99"/>
<path d="M153 219H156V222H153V219Z" fill="#FFDE99"/>
<path d="M153 109H156V112H153V109Z" fill="#FFDE99"/>
<path d="M164 219H167V222H164V219Z" fill="#FFDE99"/>
<path d="M164 109H167V112H164V109Z" fill="#FFDE99"/>
<path d="M175 219H178V222H175V219Z" fill="#FFDE99"/>
<path d="M175 109H178V112H175V109Z" fill="#FFDE99"/>
<path d="M186 219H189V222H186V219Z" fill="#FFDE99"/>
<path d="M186 109H189V112H186V109Z" fill="#FFDE99"/>
<path d="M197 219H200V222H197V219Z" fill="#FFDE99"/>
<path d="M197 109H200V112H197V109Z" fill="#FFDE99"/>
<path d="M208 219H211V222H208V219Z" fill="#FFDE99"/>
<path d="M208 109H211V112H208V109Z" fill="#FFDE99"/>
<path d="M219 219H222V222H219V219Z" fill="#FFDE99"/>
<path d="M219 109H222V112H219V109Z" fill="#FFDE99"/>
<path d="M230 219H233V222H230V219Z" fill="#FFDE99"/>
<path d="M230 109H233V112H230V109Z" fill="#FFDE99"/>
<path d="M241 219H244V222H241V219Z" fill="#FFDE99"/>
<path d="M241 109H244V112H241V109Z" fill="#FFDE99"/>
<path d="M252 219H255V222H252V219Z" fill="#FFDE99"/>
<path d="M252 109H255V112H252V109Z" fill="#FFDE99"/>
<path d="M263 219H266V222H263V219Z" fill="#FFDE99"/>
<path d="M263 109H266V112H263V109Z" fill="#FFDE99"/>
<path d="M274 219H277V222H274V219Z" fill="#FFDE99"/>
<path d="M274 109H277V112H274V109Z" fill="#FFDE99"/>
<path d="M285 219H288V222H285V219Z" fill="#FFDE99"/>
<path d="M285 109H288V112H285V109Z" fill="#FFDE99"/>
<path d="M296 219H299V222H296V219Z" fill="#FFDE99"/>
<path d="M296 109H299V112H296V109Z" fill="#FFDE99"/>
<path d="M87 229H90V232H87V229Z" fill="#FFDE99"/>
<path d="M87 119H90V122H87V119Z" fill="#FFDE99"/>
<path d="M98 229H101V232H98V229Z" fill="#FFDE99"/>
<path d="M98 119H101V122H98V119Z" fill="#FFDE99"/>
<path d="M109 229H112V232H109V229Z" fill="#FFDE99"/>
<path d="M109 119H112V122H109V119Z" fill="#FFDE99"/>
<path d="M120 229H123V232H120V229Z" fill="#FFDE99"/>
<path d="M120 119H123V122H120V119Z" fill="#FFDE99"/>
<path d="M131 229H134V232H131V229Z" fill="#FFDE99"/>
<path d="M131 119H134V122H131V119Z" fill="#FFDE99"/>
<path d="M142 229H145V232H142V229Z" fill="#FFDE99"/>
<path d="M142 119H145V122H142V119Z" fill="#FFDE99"/>
<path d="M153 229H156V232H153V229Z" fill="#FFDE99"/>
<path d="M153 119H156V122H153V119Z" fill="#FFDE99"/>
<path d="M164 229H167V232H164V229Z" fill="#FFDE99"/>
<path d="M164 119H167V122H164V119Z" fill="#FFDE99"/>
<path d="M175 229H178V232H175V229Z" fill="#FFDE99"/>
<path d="M175 119H178V122H175V119Z" fill="#FFDE99"/>
<path d="M186 229H189V232H186V229Z" fill="#FFDE99"/>
<path d="M186 119H189V122H186V119Z" fill="#FFDE99"/>
<path d="M197 229H200V232H197V229Z" fill="#FFDE99"/>
<path d="M197 119H200V122H197V119Z" fill="#FFDE99"/>
<path d="M208 229H211V232H208V229Z" fill="#FFDE99"/>
<path d="M208 119H211V122H208V119Z" fill="#FFDE99"/>
<path d="M219 229H222V232H219V229Z" fill="#FFDE99"/>
<path d="M219 119H222V122H219V119Z" fill="#FFDE99"/>
<path d="M230 229H233V232H230V229Z" fill="#FFDE99"/>
<path d="M230 119H233V122H230V119Z" fill="#FFDE99"/>
<path d="M241 229H244V232H241V229Z" fill="#FFDE99"/>
<path d="M241 119H244V122H241V119Z" fill="#FFDE99"/>
<path d="M252 229H255V232H252V229Z" fill="#FFDE99"/>
<path d="M252 119H255V122H252V119Z" fill="#FFDE99"/>
<path d="M263 229H266V232H263V229Z" fill="#FFDE99"/>
<path d="M263 119H266V122H263V119Z" fill="#FFDE99"/>
<path d="M274 229H277V232H274V229Z" fill="#FFDE99"/>
<path d="M274 119H277V122H274V119Z" fill="#FFDE99"/>
<path d="M285 229H288V232H285V229Z" fill="#FFDE99"/>
<path d="M285 119H288V122H285V119Z" fill="#FFDE99"/>
<path d="M296 229H299V232H296V229Z" fill="#FFDE99"/>
<path d="M296 119H299V122H296V119Z" fill="#FFDE99"/>
<path d="M87 239H90V242H87V239Z" fill="#FFDE99"/>
<path d="M87 129H90V132H87V129Z" fill="#FFDE99"/>
<path d="M98 239H101V242H98V239Z" fill="#FFDE99"/>
<path d="M98 129H101V132H98V129Z" fill="#FFDE99"/>
<path d="M109 239H112V242H109V239Z" fill="#FFDE99"/>
<path d="M109 129H112V132H109V129Z" fill="#FFDE99"/>
<path d="M120 239H123V242H120V239Z" fill="#FFDE99"/>
<path d="M120 129H123V132H120V129Z" fill="#FFDE99"/>
<path d="M131 239H134V242H131V239Z" fill="#FFDE99"/>
<path d="M131 129H134V132H131V129Z" fill="#FFDE99"/>
<path d="M142 239H145V242H142V239Z" fill="#FFDE99"/>
<path d="M142 129H145V132H142V129Z" fill="#FFDE99"/>
<path d="M153 239H156V242H153V239Z" fill="#FFDE99"/>
<path d="M153 129H156V132H153V129Z" fill="#FFDE99"/>
<path d="M164 239H167V242H164V239Z" fill="#FFDE99"/>
<path d="M164 129H167V132H164V129Z" fill="#FFDE99"/>
<path d="M175 239H178V242H175V239Z" fill="#FFDE99"/>
<path d="M175 129H178V132H175V129Z" fill="#FFDE99"/>
<path d="M186 239H189V242H186V239Z" fill="#FFDE99"/>
<path d="M186 129H189V132H186V129Z" fill="#FFDE99"/>
<path d="M197 239H200V242H197V239Z" fill="#FFDE99"/>
<path d="M197 129H200V132H197V129Z" fill="#FFDE99"/>
<path d="M208 239H211V242H208V239Z" fill="#FFDE99"/>
<path d="M208 129H211V132H208V129Z" fill="#FFDE99"/>
<path d="M219 239H222V242H219V239Z" fill="#FFDE99"/>
<path d="M219 129H222V132H219V129Z" fill="#FFDE99"/>
<path d="M230 239H233V242H230V239Z" fill="#FFDE99"/>
<path d="M230 129H233V132H230V129Z" fill="#FFDE99"/>
<path d="M241 239H244V242H241V239Z" fill="#FFDE99"/>
<path d="M241 129H244V132H241V129Z" fill="#FFDE99"/>
<path d="M252 239H255V242H252V239Z" fill="#FFDE99"/>
<path d="M252 129H255V132H252V129Z" fill="#FFDE99"/>
<path d="M263 239H266V242H263V239Z" fill="#FFDE99"/>
<path d="M263 129H266V132H263V129Z" fill="#FFDE99"/>
<path d="M274 239H277V242H274V239Z" fill="#FFDE99"/>
<path d="M274 129H277V132H274V129Z" fill="#FFDE99"/>
<path d="M285 239H288V242H285V239Z" fill="#FFDE99"/>
<path d="M285 129H288V132H285V129Z" fill="#FFDE99"/>
<path d="M296 239H299V242H296V239Z" fill="#FFDE99"/>
<path d="M296 129H299V132H296V129Z" fill="#FFDE99"/>
<path d="M87 249H90V252H87V249Z" fill="#FFDE99"/>
<path d="M87 139H90V142H87V139Z" fill="#FFDE99"/>
<path d="M98 249H101V252H98V249Z" fill="#FFDE99"/>
<path d="M98 139H101V142H98V139Z" fill="#FFDE99"/>
<path d="M109 249H112V252H109V249Z" fill="#FFDE99"/>
<path d="M109 139H112V142H109V139Z" fill="#FFDE99"/>
<path d="M120 249H123V252H120V249Z" fill="#FFDE99"/>
<path d="M120 139H123V142H120V139Z" fill="#FFDE99"/>
<path d="M131 249H134V252H131V249Z" fill="#FFDE99"/>
<path d="M131 139H134V142H131V139Z" fill="#FFDE99"/>
<path d="M142 249H145V252H142V249Z" fill="#FFDE99"/>
<path d="M142 139H145V142H142V139Z" fill="#FFDE99"/>
<path d="M153 249H156V252H153V249Z" fill="#FFDE99"/>
<path d="M153 139H156V142H153V139Z" fill="#FFDE99"/>
<path d="M164 249H167V252H164V249Z" fill="#FFDE99"/>
<path d="M164 139H167V142H164V139Z" fill="#FFDE99"/>
<path d="M175 249H178V252H175V249Z" fill="#FFDE99"/>
<path d="M175 139H178V142H175V139Z" fill="#FFDE99"/>
<path d="M186 249H189V252H186V249Z" fill="#FFDE99"/>
<path d="M186 139H189V142H186V139Z" fill="#FFDE99"/>
<path d="M197 249H200V252H197V249Z" fill="#FFDE99"/>
<path d="M197 139H200V142H197V139Z" fill="#FFDE99"/>
<path d="M208 249H211V252H208V249Z" fill="#FFDE99"/>
<path d="M208 139H211V142H208V139Z" fill="#FFDE99"/>
<path d="M219 249H222V252H219V249Z" fill="#FFDE99"/>
<path d="M219 139H222V142H219V139Z" fill="#FFDE99"/>
<path d="M230 249H233V252H230V249Z" fill="#FFDE99"/>
<path d="M230 139H233V142H230V139Z" fill="#FFDE99"/>
<path d="M241 249H244V252H241V249Z" fill="#FFDE99"/>
<path d="M241 139H244V142H241V139Z" fill="#FFDE99"/>
<path d="M252 249H255V252H252V249Z" fill="#FFDE99"/>
<path d="M252 139H255V142H252V139Z" fill="#FFDE99"/>
<path d="M263 249H266V252H263V249Z" fill="#FFDE99"/>
<path d="M263 139H266V142H263V139Z" fill="#FFDE99"/>
<path d="M274 249H277V252H274V249Z" fill="#FFDE99"/>
<path d="M274 139H277V142H274V139Z" fill="#FFDE99"/>
<path d="M285 249H288V252H285V249Z" fill="#FFDE99"/>
<path d="M285 139H288V142H285V139Z" fill="#FFDE99"/>
<path d="M296 249H299V252H296V249Z" fill="#FFDE99"/>
<path d="M296 139H299V142H296V139Z" fill="#FFDE99"/>
<path d="M11 176H120.025V285.037C105.708 285.037 91.5304 282.217 78.3034 276.737C65.0765 271.258 53.0576 263.226 42.9335 253.101C32.8094 242.976 24.7786 230.956 19.299 217.727C13.8194 204.498 11 190.319 11 176Z" fill="#FFD170"/>
<path d="M1639.86 184.251H1641.78V186.18H1639.86V184.251Z" fill="#FFDE99"/>
<path d="M1639.86 113.502H1641.78V115.431H1639.86V113.502Z" fill="#FFDE99"/>
<path d="M1646.92 184.251H1648.85V186.18H1646.92V184.251Z" fill="#FFDE99"/>
<path d="M1646.92 113.502H1648.85V115.431H1646.92V113.502Z" fill="#FFDE99"/>
<path d="M1653.99 184.251H1655.92V186.18H1653.99V184.251Z" fill="#FFDE99"/>
<path d="M1653.99 113.502H1655.92V115.431H1653.99V113.502Z" fill="#FFDE99"/>
<path d="M1661.06 184.251H1662.99V186.18H1661.06V184.251Z" fill="#FFDE99"/>
<path d="M1661.06 113.502H1662.99V115.431H1661.06V113.502Z" fill="#FFDE99"/>
<path d="M1668.13 184.251H1670.05V186.18H1668.13V184.251Z" fill="#FFDE99"/>
<path d="M1668.13 113.502H1670.05V115.431H1668.13V113.502Z" fill="#FFDE99"/>
<path d="M1675.19 184.251H1677.12V186.18H1675.19V184.251Z" fill="#FFDE99"/>
<path d="M1675.19 113.502H1677.12V115.431H1675.19V113.502Z" fill="#FFDE99"/>
<path d="M1682.26 184.251H1684.19V186.18H1682.26V184.251Z" fill="#FFDE99"/>
<path d="M1682.26 113.502H1684.19V115.431H1682.26V113.502Z" fill="#FFDE99"/>
<path d="M1689.33 184.251H1691.26V186.18H1689.33V184.251Z" fill="#FFDE99"/>
<path d="M1689.33 113.502H1691.26V115.431H1689.33V113.502Z" fill="#FFDE99"/>
<path d="M1696.4 184.251H1698.33V186.18H1696.4V184.251Z" fill="#FFDE99"/>
<path d="M1696.4 113.502H1698.33V115.431H1696.4V113.502Z" fill="#FFDE99"/>
<path d="M1703.47 184.251H1705.39V186.18H1703.47V184.251Z" fill="#FFDE99"/>
<path d="M1703.47 113.502H1705.39V115.431H1703.47V113.502Z" fill="#FFDE99"/>
<path d="M1710.53 184.251H1712.46V186.18H1710.53V184.251Z" fill="#FFDE99"/>
<path d="M1710.53 113.502H1712.46V115.431H1710.53V113.502Z" fill="#FFDE99"/>
<path d="M1717.6 184.251H1719.53V186.18H1717.6V184.251Z" fill="#FFDE99"/>
<path d="M1717.6 113.502H1719.53V115.431H1717.6V113.502Z" fill="#FFDE99"/>
<path d="M1724.67 184.251H1726.6V186.18H1724.67V184.251Z" fill="#FFDE99"/>
<path d="M1724.67 113.502H1726.6V115.431H1724.67V113.502Z" fill="#FFDE99"/>
<path d="M1731.74 184.251H1733.67V186.18H1731.74V184.251Z" fill="#FFDE99"/>
<path d="M1731.74 113.502H1733.67V115.431H1731.74V113.502Z" fill="#FFDE99"/>
<path d="M1738.81 184.251H1740.73V186.18H1738.81V184.251Z" fill="#FFDE99"/>
<path d="M1738.81 113.502H1740.73V115.431H1738.81V113.502Z" fill="#FFDE99"/>
<path d="M1745.87 184.251H1747.8V186.18H1745.87V184.251Z" fill="#FFDE99"/>
<path d="M1745.87 113.502H1747.8V115.431H1745.87V113.502Z" fill="#FFDE99"/>
<path d="M1752.94 184.251H1754.87V186.18H1752.94V184.251Z" fill="#FFDE99"/>
<path d="M1752.94 113.502H1754.87V115.431H1752.94V113.502Z" fill="#FFDE99"/>
<path d="M1760.01 184.251H1761.94V186.18H1760.01V184.251Z" fill="#FFDE99"/>
<path d="M1760.01 113.502H1761.94V115.431H1760.01V113.502Z" fill="#FFDE99"/>
<path d="M1767.08 184.251H1769V186.18H1767.08V184.251Z" fill="#FFDE99"/>
<path d="M1767.08 113.502H1769V115.431H1767.08V113.502Z" fill="#FFDE99"/>
<path d="M1774.14 184.251H1776.07V186.18H1774.14V184.251Z" fill="#FFDE99"/>
<path d="M1774.14 113.502H1776.07V115.431H1774.14V113.502Z" fill="#FFDE99"/>
<path d="M1639.86 190.683H1641.78V192.612H1639.86V190.683Z" fill="#FFDE99"/>
<path d="M1639.86 119.934H1641.78V121.863H1639.86V119.934Z" fill="#FFDE99"/>
<path d="M1646.92 190.683H1648.85V192.612H1646.92V190.683Z" fill="#FFDE99"/>
<path d="M1646.92 119.934H1648.85V121.863H1646.92V119.934Z" fill="#FFDE99"/>
<path d="M1653.99 190.683H1655.92V192.612H1653.99V190.683Z" fill="#FFDE99"/>
<path d="M1653.99 119.934H1655.92V121.863H1653.99V119.934Z" fill="#FFDE99"/>
<path d="M1661.06 190.683H1662.99V192.612H1661.06V190.683Z" fill="#FFDE99"/>
<path d="M1661.06 119.934H1662.99V121.863H1661.06V119.934Z" fill="#FFDE99"/>
<path d="M1668.13 190.683H1670.05V192.612H1668.13V190.683Z" fill="#FFDE99"/>
<path d="M1668.13 119.934H1670.05V121.863H1668.13V119.934Z" fill="#FFDE99"/>
<path d="M1675.19 190.683H1677.12V192.612H1675.19V190.683Z" fill="#FFDE99"/>
<path d="M1675.19 119.934H1677.12V121.863H1675.19V119.934Z" fill="#FFDE99"/>
<path d="M1682.26 190.683H1684.19V192.612H1682.26V190.683Z" fill="#FFDE99"/>
<path d="M1682.26 119.934H1684.19V121.863H1682.26V119.934Z" fill="#FFDE99"/>
<path d="M1689.33 190.683H1691.26V192.612H1689.33V190.683Z" fill="#FFDE99"/>
<path d="M1689.33 119.934H1691.26V121.863H1689.33V119.934Z" fill="#FFDE99"/>
<path d="M1696.4 190.683H1698.33V192.612H1696.4V190.683Z" fill="#FFDE99"/>
<path d="M1696.4 119.934H1698.33V121.863H1696.4V119.934Z" fill="#FFDE99"/>
<path d="M1703.47 190.683H1705.39V192.612H1703.47V190.683Z" fill="#FFDE99"/>
<path d="M1703.47 119.934H1705.39V121.863H1703.47V119.934Z" fill="#FFDE99"/>
<path d="M1710.53 190.683H1712.46V192.612H1710.53V190.683Z" fill="#FFDE99"/>
<path d="M1710.53 119.934H1712.46V121.863H1710.53V119.934Z" fill="#FFDE99"/>
<path d="M1717.6 190.683H1719.53V192.612H1717.6V190.683Z" fill="#FFDE99"/>
<path d="M1717.6 119.934H1719.53V121.863H1717.6V119.934Z" fill="#FFDE99"/>
<path d="M1724.67 190.683H1726.6V192.612H1724.67V190.683Z" fill="#FFDE99"/>
<path d="M1724.67 119.934H1726.6V121.863H1724.67V119.934Z" fill="#FFDE99"/>
<path d="M1731.74 190.683H1733.67V192.612H1731.74V190.683Z" fill="#FFDE99"/>
<path d="M1731.74 119.934H1733.67V121.863H1731.74V119.934Z" fill="#FFDE99"/>
<path d="M1738.81 190.683H1740.73V192.612H1738.81V190.683Z" fill="#FFDE99"/>
<path d="M1738.81 119.934H1740.73V121.863H1738.81V119.934Z" fill="#FFDE99"/>
<path d="M1745.87 190.683H1747.8V192.612H1745.87V190.683Z" fill="#FFDE99"/>
<path d="M1745.87 119.934H1747.8V121.863H1745.87V119.934Z" fill="#FFDE99"/>
<path d="M1752.94 190.683H1754.87V192.612H1752.94V190.683Z" fill="#FFDE99"/>
<path d="M1752.94 119.934H1754.87V121.863H1752.94V119.934Z" fill="#FFDE99"/>
<path d="M1760.01 190.683H1761.94V192.612H1760.01V190.683Z" fill="#FFDE99"/>
<path d="M1760.01 119.934H1761.94V121.863H1760.01V119.934Z" fill="#FFDE99"/>
<path d="M1767.08 190.683H1769V192.612H1767.08V190.683Z" fill="#FFDE99"/>
<path d="M1767.08 119.934H1769V121.863H1767.08V119.934Z" fill="#FFDE99"/>
<path d="M1774.14 190.683H1776.07V192.612H1774.14V190.683Z" fill="#FFDE99"/>
<path d="M1774.14 119.934H1776.07V121.863H1774.14V119.934Z" fill="#FFDE99"/>
<path d="M1639.86 197.114H1641.78V199.044H1639.86V197.114Z" fill="#FFDE99"/>
<path d="M1639.86 126.365H1641.78V128.295H1639.86V126.365Z" fill="#FFDE99"/>
<path d="M1646.92 197.114H1648.85V199.044H1646.92V197.114Z" fill="#FFDE99"/>
<path d="M1646.92 126.365H1648.85V128.295H1646.92V126.365Z" fill="#FFDE99"/>
<path d="M1653.99 197.114H1655.92V199.044H1653.99V197.114Z" fill="#FFDE99"/>
<path d="M1653.99 126.365H1655.92V128.295H1653.99V126.365Z" fill="#FFDE99"/>
<path d="M1661.06 197.114H1662.99V199.044H1661.06V197.114Z" fill="#FFDE99"/>
<path d="M1661.06 126.365H1662.99V128.295H1661.06V126.365Z" fill="#FFDE99"/>
<path d="M1668.13 197.114H1670.05V199.044H1668.13V197.114Z" fill="#FFDE99"/>
<path d="M1668.13 126.365H1670.05V128.295H1668.13V126.365Z" fill="#FFDE99"/>
<path d="M1675.19 197.114H1677.12V199.044H1675.19V197.114Z" fill="#FFDE99"/>
<path d="M1675.19 126.365H1677.12V128.295H1675.19V126.365Z" fill="#FFDE99"/>
<path d="M1682.26 197.114H1684.19V199.044H1682.26V197.114Z" fill="#FFDE99"/>
<path d="M1682.26 126.365H1684.19V128.295H1682.26V126.365Z" fill="#FFDE99"/>
<path d="M1689.33 197.114H1691.26V199.044H1689.33V197.114Z" fill="#FFDE99"/>
<path d="M1689.33 126.365H1691.26V128.295H1689.33V126.365Z" fill="#FFDE99"/>
<path d="M1696.4 197.114H1698.33V199.044H1696.4V197.114Z" fill="#FFDE99"/>
<path d="M1696.4 126.365H1698.33V128.295H1696.4V126.365Z" fill="#FFDE99"/>
<path d="M1703.47 197.114H1705.39V199.044H1703.47V197.114Z" fill="#FFDE99"/>
<path d="M1703.47 126.365H1705.39V128.295H1703.47V126.365Z" fill="#FFDE99"/>
<path d="M1710.53 197.114H1712.46V199.044H1710.53V197.114Z" fill="#FFDE99"/>
<path d="M1710.53 126.365H1712.46V128.295H1710.53V126.365Z" fill="#FFDE99"/>
<path d="M1717.6 197.114H1719.53V199.044H1717.6V197.114Z" fill="#FFDE99"/>
<path d="M1717.6 126.365H1719.53V128.295H1717.6V126.365Z" fill="#FFDE99"/>
<path d="M1724.67 197.114H1726.6V199.044H1724.67V197.114Z" fill="#FFDE99"/>
<path d="M1724.67 126.365H1726.6V128.295H1724.67V126.365Z" fill="#FFDE99"/>
<path d="M1731.74 197.114H1733.67V199.044H1731.74V197.114Z" fill="#FFDE99"/>
<path d="M1731.74 126.365H1733.67V128.295H1731.74V126.365Z" fill="#FFDE99"/>
<path d="M1738.81 197.114H1740.73V199.044H1738.81V197.114Z" fill="#FFDE99"/>
<path d="M1738.81 126.365H1740.73V128.295H1738.81V126.365Z" fill="#FFDE99"/>
<path d="M1745.87 197.114H1747.8V199.044H1745.87V197.114Z" fill="#FFDE99"/>
<path d="M1745.87 126.365H1747.8V128.295H1745.87V126.365Z" fill="#FFDE99"/>
<path d="M1752.94 197.114H1754.87V199.044H1752.94V197.114Z" fill="#FFDE99"/>
<path d="M1752.94 126.365H1754.87V128.295H1752.94V126.365Z" fill="#FFDE99"/>
<path d="M1760.01 197.114H1761.94V199.044H1760.01V197.114Z" fill="#FFDE99"/>
<path d="M1760.01 126.365H1761.94V128.295H1760.01V126.365Z" fill="#FFDE99"/>
<path d="M1767.08 197.114H1769V199.044H1767.08V197.114Z" fill="#FFDE99"/>
<path d="M1767.08 126.365H1769V128.295H1767.08V126.365Z" fill="#FFDE99"/>
<path d="M1774.14 197.114H1776.07V199.044H1774.14V197.114Z" fill="#FFDE99"/>
<path d="M1774.14 126.365H1776.07V128.295H1774.14V126.365Z" fill="#FFDE99"/>
<path d="M1639.86 203.546H1641.78V205.476H1639.86V203.546Z" fill="#FFDE99"/>
<path d="M1639.86 132.797H1641.78V134.727H1639.86V132.797Z" fill="#FFDE99"/>
<path d="M1646.92 203.546H1648.85V205.476H1646.92V203.546Z" fill="#FFDE99"/>
<path d="M1646.92 132.797H1648.85V134.727H1646.92V132.797Z" fill="#FFDE99"/>
<path d="M1653.99 203.546H1655.92V205.476H1653.99V203.546Z" fill="#FFDE99"/>
<path d="M1653.99 132.797H1655.92V134.727H1653.99V132.797Z" fill="#FFDE99"/>
<path d="M1661.06 203.546H1662.99V205.476H1661.06V203.546Z" fill="#FFDE99"/>
<path d="M1661.06 132.797H1662.99V134.727H1661.06V132.797Z" fill="#FFDE99"/>
<path d="M1668.13 203.546H1670.05V205.476H1668.13V203.546Z" fill="#FFDE99"/>
<path d="M1668.13 132.797H1670.05V134.727H1668.13V132.797Z" fill="#FFDE99"/>
<path d="M1675.19 203.546H1677.12V205.476H1675.19V203.546Z" fill="#FFDE99"/>
<path d="M1675.19 132.797H1677.12V134.727H1675.19V132.797Z" fill="#FFDE99"/>
<path d="M1682.26 203.546H1684.19V205.476H1682.26V203.546Z" fill="#FFDE99"/>
<path d="M1682.26 132.797H1684.19V134.727H1682.26V132.797Z" fill="#FFDE99"/>
<path d="M1689.33 203.546H1691.26V205.476H1689.33V203.546Z" fill="#FFDE99"/>
<path d="M1689.33 132.797H1691.26V134.727H1689.33V132.797Z" fill="#FFDE99"/>
<path d="M1696.4 203.546H1698.33V205.476H1696.4V203.546Z" fill="#FFDE99"/>
<path d="M1696.4 132.797H1698.33V134.727H1696.4V132.797Z" fill="#FFDE99"/>
<path d="M1703.47 203.546H1705.39V205.476H1703.47V203.546Z" fill="#FFDE99"/>
<path d="M1703.47 132.797H1705.39V134.727H1703.47V132.797Z" fill="#FFDE99"/>
<path d="M1710.53 203.546H1712.46V205.476H1710.53V203.546Z" fill="#FFDE99"/>
<path d="M1710.53 132.797H1712.46V134.727H1710.53V132.797Z" fill="#FFDE99"/>
<path d="M1717.6 203.546H1719.53V205.476H1717.6V203.546Z" fill="#FFDE99"/>
<path d="M1717.6 132.797H1719.53V134.727H1717.6V132.797Z" fill="#FFDE99"/>
<path d="M1724.67 203.546H1726.6V205.476H1724.67V203.546Z" fill="#FFDE99"/>
<path d="M1724.67 132.797H1726.6V134.727H1724.67V132.797Z" fill="#FFDE99"/>
<path d="M1731.74 203.546H1733.67V205.476H1731.74V203.546Z" fill="#FFDE99"/>
<path d="M1731.74 132.797H1733.67V134.727H1731.74V132.797Z" fill="#FFDE99"/>
<path d="M1738.81 203.546H1740.73V205.476H1738.81V203.546Z" fill="#FFDE99"/>
<path d="M1738.81 132.797H1740.73V134.727H1738.81V132.797Z" fill="#FFDE99"/>
<path d="M1745.87 203.546H1747.8V205.476H1745.87V203.546Z" fill="#FFDE99"/>
<path d="M1745.87 132.797H1747.8V134.727H1745.87V132.797Z" fill="#FFDE99"/>
<path d="M1752.94 203.546H1754.87V205.476H1752.94V203.546Z" fill="#FFDE99"/>
<path d="M1752.94 132.797H1754.87V134.727H1752.94V132.797Z" fill="#FFDE99"/>
<path d="M1760.01 203.546H1761.94V205.476H1760.01V203.546Z" fill="#FFDE99"/>
<path d="M1760.01 132.797H1761.94V134.727H1760.01V132.797Z" fill="#FFDE99"/>
<path d="M1767.08 203.546H1769V205.476H1767.08V203.546Z" fill="#FFDE99"/>
<path d="M1767.08 132.797H1769V134.727H1767.08V132.797Z" fill="#FFDE99"/>
<path d="M1774.14 203.546H1776.07V205.476H1774.14V203.546Z" fill="#FFDE99"/>
<path d="M1774.14 132.797H1776.07V134.727H1774.14V132.797Z" fill="#FFDE99"/>
<path d="M1639.86 209.978H1641.78V211.907H1639.86V209.978Z" fill="#FFDE99"/>
<path d="M1639.86 139.229H1641.78V141.158H1639.86V139.229Z" fill="#FFDE99"/>
<path d="M1646.92 209.978H1648.85V211.907H1646.92V209.978Z" fill="#FFDE99"/>
<path d="M1646.92 139.229H1648.85V141.158H1646.92V139.229Z" fill="#FFDE99"/>
<path d="M1653.99 209.978H1655.92V211.907H1653.99V209.978Z" fill="#FFDE99"/>
<path d="M1653.99 139.229H1655.92V141.158H1653.99V139.229Z" fill="#FFDE99"/>
<path d="M1661.06 209.978H1662.99V211.907H1661.06V209.978Z" fill="#FFDE99"/>
<path d="M1661.06 139.229H1662.99V141.158H1661.06V139.229Z" fill="#FFDE99"/>
<path d="M1668.13 209.978H1670.05V211.907H1668.13V209.978Z" fill="#FFDE99"/>
<path d="M1668.13 139.229H1670.05V141.158H1668.13V139.229Z" fill="#FFDE99"/>
<path d="M1675.19 209.978H1677.12V211.907H1675.19V209.978Z" fill="#FFDE99"/>
<path d="M1675.19 139.229H1677.12V141.158H1675.19V139.229Z" fill="#FFDE99"/>
<path d="M1682.26 209.978H1684.19V211.907H1682.26V209.978Z" fill="#FFDE99"/>
<path d="M1682.26 139.229H1684.19V141.158H1682.26V139.229Z" fill="#FFDE99"/>
<path d="M1689.33 209.978H1691.26V211.907H1689.33V209.978Z" fill="#FFDE99"/>
<path d="M1689.33 139.229H1691.26V141.158H1689.33V139.229Z" fill="#FFDE99"/>
<path d="M1696.4 209.978H1698.33V211.907H1696.4V209.978Z" fill="#FFDE99"/>
<path d="M1696.4 139.229H1698.33V141.158H1696.4V139.229Z" fill="#FFDE99"/>
<path d="M1703.47 209.978H1705.39V211.907H1703.47V209.978Z" fill="#FFDE99"/>
<path d="M1703.47 139.229H1705.39V141.158H1703.47V139.229Z" fill="#FFDE99"/>
<path d="M1710.53 209.978H1712.46V211.907H1710.53V209.978Z" fill="#FFDE99"/>
<path d="M1710.53 139.229H1712.46V141.158H1710.53V139.229Z" fill="#FFDE99"/>
<path d="M1717.6 209.978H1719.53V211.907H1717.6V209.978Z" fill="#FFDE99"/>
<path d="M1717.6 139.229H1719.53V141.158H1717.6V139.229Z" fill="#FFDE99"/>
<path d="M1724.67 209.978H1726.6V211.907H1724.67V209.978Z" fill="#FFDE99"/>
<path d="M1724.67 139.229H1726.6V141.158H1724.67V139.229Z" fill="#FFDE99"/>
<path d="M1731.74 209.978H1733.67V211.907H1731.74V209.978Z" fill="#FFDE99"/>
<path d="M1731.74 139.229H1733.67V141.158H1731.74V139.229Z" fill="#FFDE99"/>
<path d="M1738.81 209.978H1740.73V211.907H1738.81V209.978Z" fill="#FFDE99"/>
<path d="M1738.81 139.229H1740.73V141.158H1738.81V139.229Z" fill="#FFDE99"/>
<path d="M1745.87 209.978H1747.8V211.907H1745.87V209.978Z" fill="#FFDE99"/>
<path d="M1745.87 139.229H1747.8V141.158H1745.87V139.229Z" fill="#FFDE99"/>
<path d="M1752.94 209.978H1754.87V211.907H1752.94V209.978Z" fill="#FFDE99"/>
<path d="M1752.94 139.229H1754.87V141.158H1752.94V139.229Z" fill="#FFDE99"/>
<path d="M1760.01 209.978H1761.94V211.907H1760.01V209.978Z" fill="#FFDE99"/>
<path d="M1760.01 139.229H1761.94V141.158H1760.01V139.229Z" fill="#FFDE99"/>
<path d="M1767.08 209.978H1769V211.907H1767.08V209.978Z" fill="#FFDE99"/>
<path d="M1767.08 139.229H1769V141.158H1767.08V139.229Z" fill="#FFDE99"/>
<path d="M1774.14 209.978H1776.07V211.907H1774.14V209.978Z" fill="#FFDE99"/>
<path d="M1774.14 139.229H1776.07V141.158H1774.14V139.229Z" fill="#FFDE99"/>
<path d="M1639.86 216.409H1641.78V218.339H1639.86V216.409Z" fill="#FFDE99"/>
<path d="M1639.86 145.661H1641.78V147.59H1639.86V145.661Z" fill="#FFDE99"/>
<path d="M1646.92 216.409H1648.85V218.339H1646.92V216.409Z" fill="#FFDE99"/>
<path d="M1646.92 145.661H1648.85V147.59H1646.92V145.661Z" fill="#FFDE99"/>
<path d="M1653.99 216.409H1655.92V218.339H1653.99V216.409Z" fill="#FFDE99"/>
<path d="M1653.99 145.661H1655.92V147.59H1653.99V145.661Z" fill="#FFDE99"/>
<path d="M1661.06 216.409H1662.99V218.339H1661.06V216.409Z" fill="#FFDE99"/>
<path d="M1661.06 145.661H1662.99V147.59H1661.06V145.661Z" fill="#FFDE99"/>
<path d="M1668.13 216.409H1670.05V218.339H1668.13V216.409Z" fill="#FFDE99"/>
<path d="M1668.13 145.661H1670.05V147.59H1668.13V145.661Z" fill="#FFDE99"/>
<path d="M1675.19 216.409H1677.12V218.339H1675.19V216.409Z" fill="#FFDE99"/>
<path d="M1675.19 145.661H1677.12V147.59H1675.19V145.661Z" fill="#FFDE99"/>
<path d="M1682.26 216.409H1684.19V218.339H1682.26V216.409Z" fill="#FFDE99"/>
<path d="M1682.26 145.661H1684.19V147.59H1682.26V145.661Z" fill="#FFDE99"/>
<path d="M1689.33 216.409H1691.26V218.339H1689.33V216.409Z" fill="#FFDE99"/>
<path d="M1689.33 145.661H1691.26V147.59H1689.33V145.661Z" fill="#FFDE99"/>
<path d="M1696.4 216.409H1698.33V218.339H1696.4V216.409Z" fill="#FFDE99"/>
<path d="M1696.4 145.661H1698.33V147.59H1696.4V145.661Z" fill="#FFDE99"/>
<path d="M1703.47 216.409H1705.39V218.339H1703.47V216.409Z" fill="#FFDE99"/>
<path d="M1703.47 145.661H1705.39V147.59H1703.47V145.661Z" fill="#FFDE99"/>
<path d="M1710.53 216.409H1712.46V218.339H1710.53V216.409Z" fill="#FFDE99"/>
<path d="M1710.53 145.661H1712.46V147.59H1710.53V145.661Z" fill="#FFDE99"/>
<path d="M1717.6 216.409H1719.53V218.339H1717.6V216.409Z" fill="#FFDE99"/>
<path d="M1717.6 145.661H1719.53V147.59H1717.6V145.661Z" fill="#FFDE99"/>
<path d="M1724.67 216.409H1726.6V218.339H1724.67V216.409Z" fill="#FFDE99"/>
<path d="M1724.67 145.661H1726.6V147.59H1724.67V145.661Z" fill="#FFDE99"/>
<path d="M1731.74 216.409H1733.67V218.339H1731.74V216.409Z" fill="#FFDE99"/>
<path d="M1731.74 145.661H1733.67V147.59H1731.74V145.661Z" fill="#FFDE99"/>
<path d="M1738.81 216.409H1740.73V218.339H1738.81V216.409Z" fill="#FFDE99"/>
<path d="M1738.81 145.661H1740.73V147.59H1738.81V145.661Z" fill="#FFDE99"/>
<path d="M1745.87 216.409H1747.8V218.339H1745.87V216.409Z" fill="#FFDE99"/>
<path d="M1745.87 145.661H1747.8V147.59H1745.87V145.661Z" fill="#FFDE99"/>
<path d="M1752.94 216.409H1754.87V218.339H1752.94V216.409Z" fill="#FFDE99"/>
<path d="M1752.94 145.661H1754.87V147.59H1752.94V145.661Z" fill="#FFDE99"/>
<path d="M1760.01 216.409H1761.94V218.339H1760.01V216.409Z" fill="#FFDE99"/>
<path d="M1760.01 145.661H1761.94V147.59H1760.01V145.661Z" fill="#FFDE99"/>
<path d="M1767.08 216.409H1769V218.339H1767.08V216.409Z" fill="#FFDE99"/>
<path d="M1767.08 145.661H1769V147.59H1767.08V145.661Z" fill="#FFDE99"/>
<path d="M1774.14 216.409H1776.07V218.339H1774.14V216.409Z" fill="#FFDE99"/>
<path d="M1774.14 145.661H1776.07V147.59H1774.14V145.661Z" fill="#FFDE99"/>
<path d="M1639.86 222.841H1641.78V224.771H1639.86V222.841Z" fill="#FFDE99"/>
<path d="M1639.86 152.092H1641.78V154.022H1639.86V152.092Z" fill="#FFDE99"/>
<path d="M1646.92 222.841H1648.85V224.771H1646.92V222.841Z" fill="#FFDE99"/>
<path d="M1646.92 152.092H1648.85V154.022H1646.92V152.092Z" fill="#FFDE99"/>
<path d="M1653.99 222.841H1655.92V224.771H1653.99V222.841Z" fill="#FFDE99"/>
<path d="M1653.99 152.092H1655.92V154.022H1653.99V152.092Z" fill="#FFDE99"/>
<path d="M1661.06 222.841H1662.99V224.771H1661.06V222.841Z" fill="#FFDE99"/>
<path d="M1661.06 152.092H1662.99V154.022H1661.06V152.092Z" fill="#FFDE99"/>
<path d="M1668.13 222.841H1670.05V224.771H1668.13V222.841Z" fill="#FFDE99"/>
<path d="M1668.13 152.092H1670.05V154.022H1668.13V152.092Z" fill="#FFDE99"/>
<path d="M1675.19 222.841H1677.12V224.771H1675.19V222.841Z" fill="#FFDE99"/>
<path d="M1675.19 152.092H1677.12V154.022H1675.19V152.092Z" fill="#FFDE99"/>
<path d="M1682.26 222.841H1684.19V224.771H1682.26V222.841Z" fill="#FFDE99"/>
<path d="M1682.26 152.092H1684.19V154.022H1682.26V152.092Z" fill="#FFDE99"/>
<path d="M1689.33 222.841H1691.26V224.771H1689.33V222.841Z" fill="#FFDE99"/>
<path d="M1689.33 152.092H1691.26V154.022H1689.33V152.092Z" fill="#FFDE99"/>
<path d="M1696.4 222.841H1698.33V224.771H1696.4V222.841Z" fill="#FFDE99"/>
<path d="M1696.4 152.092H1698.33V154.022H1696.4V152.092Z" fill="#FFDE99"/>
<path d="M1703.47 222.841H1705.39V224.771H1703.47V222.841Z" fill="#FFDE99"/>
<path d="M1703.47 152.092H1705.39V154.022H1703.47V152.092Z" fill="#FFDE99"/>
<path d="M1710.53 222.841H1712.46V224.771H1710.53V222.841Z" fill="#FFDE99"/>
<path d="M1710.53 152.092H1712.46V154.022H1710.53V152.092Z" fill="#FFDE99"/>
<path d="M1717.6 222.841H1719.53V224.771H1717.6V222.841Z" fill="#FFDE99"/>
<path d="M1717.6 152.092H1719.53V154.022H1717.6V152.092Z" fill="#FFDE99"/>
<path d="M1724.67 222.841H1726.6V224.771H1724.67V222.841Z" fill="#FFDE99"/>
<path d="M1724.67 152.092H1726.6V154.022H1724.67V152.092Z" fill="#FFDE99"/>
<path d="M1731.74 222.841H1733.67V224.771H1731.74V222.841Z" fill="#FFDE99"/>
<path d="M1731.74 152.092H1733.67V154.022H1731.74V152.092Z" fill="#FFDE99"/>
<path d="M1738.81 222.841H1740.73V224.771H1738.81V222.841Z" fill="#FFDE99"/>
<path d="M1738.81 152.092H1740.73V154.022H1738.81V152.092Z" fill="#FFDE99"/>
<path d="M1745.87 222.841H1747.8V224.771H1745.87V222.841Z" fill="#FFDE99"/>
<path d="M1745.87 152.092H1747.8V154.022H1745.87V152.092Z" fill="#FFDE99"/>
<path d="M1752.94 222.841H1754.87V224.771H1752.94V222.841Z" fill="#FFDE99"/>
<path d="M1752.94 152.092H1754.87V154.022H1752.94V152.092Z" fill="#FFDE99"/>
<path d="M1760.01 222.841H1761.94V224.771H1760.01V222.841Z" fill="#FFDE99"/>
<path d="M1760.01 152.092H1761.94V154.022H1760.01V152.092Z" fill="#FFDE99"/>
<path d="M1767.08 222.841H1769V224.771H1767.08V222.841Z" fill="#FFDE99"/>
<path d="M1767.08 152.092H1769V154.022H1767.08V152.092Z" fill="#FFDE99"/>
<path d="M1774.14 222.841H1776.07V224.771H1774.14V222.841Z" fill="#FFDE99"/>
<path d="M1774.14 152.092H1776.07V154.022H1774.14V152.092Z" fill="#FFDE99"/>
<path d="M1639.86 229.273H1641.78V231.202H1639.86V229.273Z" fill="#FFDE99"/>
<path d="M1639.86 158.524H1641.78V160.453H1639.86V158.524Z" fill="#FFDE99"/>
<path d="M1646.92 229.273H1648.85V231.202H1646.92V229.273Z" fill="#FFDE99"/>
<path d="M1646.92 158.524H1648.85V160.453H1646.92V158.524Z" fill="#FFDE99"/>
<path d="M1653.99 229.273H1655.92V231.202H1653.99V229.273Z" fill="#FFDE99"/>
<path d="M1653.99 158.524H1655.92V160.453H1653.99V158.524Z" fill="#FFDE99"/>
<path d="M1661.06 229.273H1662.99V231.202H1661.06V229.273Z" fill="#FFDE99"/>
<path d="M1661.06 158.524H1662.99V160.453H1661.06V158.524Z" fill="#FFDE99"/>
<path d="M1668.13 229.273H1670.05V231.202H1668.13V229.273Z" fill="#FFDE99"/>
<path d="M1668.13 158.524H1670.05V160.453H1668.13V158.524Z" fill="#FFDE99"/>
<path d="M1675.19 229.273H1677.12V231.202H1675.19V229.273Z" fill="#FFDE99"/>
<path d="M1675.19 158.524H1677.12V160.453H1675.19V158.524Z" fill="#FFDE99"/>
<path d="M1682.26 229.273H1684.19V231.202H1682.26V229.273Z" fill="#FFDE99"/>
<path d="M1682.26 158.524H1684.19V160.453H1682.26V158.524Z" fill="#FFDE99"/>
<path d="M1689.33 229.273H1691.26V231.202H1689.33V229.273Z" fill="#FFDE99"/>
<path d="M1689.33 158.524H1691.26V160.453H1689.33V158.524Z" fill="#FFDE99"/>
<path d="M1696.4 229.273H1698.33V231.202H1696.4V229.273Z" fill="#FFDE99"/>
<path d="M1696.4 158.524H1698.33V160.453H1696.4V158.524Z" fill="#FFDE99"/>
<path d="M1703.47 229.273H1705.39V231.202H1703.47V229.273Z" fill="#FFDE99"/>
<path d="M1703.47 158.524H1705.39V160.453H1703.47V158.524Z" fill="#FFDE99"/>
<path d="M1710.53 229.273H1712.46V231.202H1710.53V229.273Z" fill="#FFDE99"/>
<path d="M1710.53 158.524H1712.46V160.453H1710.53V158.524Z" fill="#FFDE99"/>
<path d="M1717.6 229.273H1719.53V231.202H1717.6V229.273Z" fill="#FFDE99"/>
<path d="M1717.6 158.524H1719.53V160.453H1717.6V158.524Z" fill="#FFDE99"/>
<path d="M1724.67 229.273H1726.6V231.202H1724.67V229.273Z" fill="#FFDE99"/>
<path d="M1724.67 158.524H1726.6V160.453H1724.67V158.524Z" fill="#FFDE99"/>
<path d="M1731.74 229.273H1733.67V231.202H1731.74V229.273Z" fill="#FFDE99"/>
<path d="M1731.74 158.524H1733.67V160.453H1731.74V158.524Z" fill="#FFDE99"/>
<path d="M1738.81 229.273H1740.73V231.202H1738.81V229.273Z" fill="#FFDE99"/>
<path d="M1738.81 158.524H1740.73V160.453H1738.81V158.524Z" fill="#FFDE99"/>
<path d="M1745.87 229.273H1747.8V231.202H1745.87V229.273Z" fill="#FFDE99"/>
<path d="M1745.87 158.524H1747.8V160.453H1745.87V158.524Z" fill="#FFDE99"/>
<path d="M1752.94 229.273H1754.87V231.202H1752.94V229.273Z" fill="#FFDE99"/>
<path d="M1752.94 158.524H1754.87V160.453H1752.94V158.524Z" fill="#FFDE99"/>
<path d="M1760.01 229.273H1761.94V231.202H1760.01V229.273Z" fill="#FFDE99"/>
<path d="M1760.01 158.524H1761.94V160.453H1760.01V158.524Z" fill="#FFDE99"/>
<path d="M1767.08 229.273H1769V231.202H1767.08V229.273Z" fill="#FFDE99"/>
<path d="M1767.08 158.524H1769V160.453H1767.08V158.524Z" fill="#FFDE99"/>
<path d="M1774.14 229.273H1776.07V231.202H1774.14V229.273Z" fill="#FFDE99"/>
<path d="M1774.14 158.524H1776.07V160.453H1774.14V158.524Z" fill="#FFDE99"/>
<path d="M1639.86 235.705H1641.78V237.634H1639.86V235.705Z" fill="#FFDE99"/>
<path d="M1639.86 164.956H1641.78V166.885H1639.86V164.956Z" fill="#FFDE99"/>
<path d="M1646.92 235.705H1648.85V237.634H1646.92V235.705Z" fill="#FFDE99"/>
<path d="M1646.92 164.956H1648.85V166.885H1646.92V164.956Z" fill="#FFDE99"/>
<path d="M1653.99 235.705H1655.92V237.634H1653.99V235.705Z" fill="#FFDE99"/>
<path d="M1653.99 164.956H1655.92V166.885H1653.99V164.956Z" fill="#FFDE99"/>
<path d="M1661.06 235.705H1662.99V237.634H1661.06V235.705Z" fill="#FFDE99"/>
<path d="M1661.06 164.956H1662.99V166.885H1661.06V164.956Z" fill="#FFDE99"/>
<path d="M1668.13 235.705H1670.05V237.634H1668.13V235.705Z" fill="#FFDE99"/>
<path d="M1668.13 164.956H1670.05V166.885H1668.13V164.956Z" fill="#FFDE99"/>
<path d="M1675.19 235.705H1677.12V237.634H1675.19V235.705Z" fill="#FFDE99"/>
<path d="M1675.19 164.956H1677.12V166.885H1675.19V164.956Z" fill="#FFDE99"/>
<path d="M1682.26 235.705H1684.19V237.634H1682.26V235.705Z" fill="#FFDE99"/>
<path d="M1682.26 164.956H1684.19V166.885H1682.26V164.956Z" fill="#FFDE99"/>
<path d="M1689.33 235.705H1691.26V237.634H1689.33V235.705Z" fill="#FFDE99"/>
<path d="M1689.33 164.956H1691.26V166.885H1689.33V164.956Z" fill="#FFDE99"/>
<path d="M1696.4 235.705H1698.33V237.634H1696.4V235.705Z" fill="#FFDE99"/>
<path d="M1696.4 164.956H1698.33V166.885H1696.4V164.956Z" fill="#FFDE99"/>
<path d="M1703.47 235.705H1705.39V237.634H1703.47V235.705Z" fill="#FFDE99"/>
<path d="M1703.47 164.956H1705.39V166.885H1703.47V164.956Z" fill="#FFDE99"/>
<path d="M1710.53 235.705H1712.46V237.634H1710.53V235.705Z" fill="#FFDE99"/>
<path d="M1710.53 164.956H1712.46V166.885H1710.53V164.956Z" fill="#FFDE99"/>
<path d="M1717.6 235.705H1719.53V237.634H1717.6V235.705Z" fill="#FFDE99"/>
<path d="M1717.6 164.956H1719.53V166.885H1717.6V164.956Z" fill="#FFDE99"/>
<path d="M1724.67 235.705H1726.6V237.634H1724.67V235.705Z" fill="#FFDE99"/>
<path d="M1724.67 164.956H1726.6V166.885H1724.67V164.956Z" fill="#FFDE99"/>
<path d="M1731.74 235.705H1733.67V237.634H1731.74V235.705Z" fill="#FFDE99"/>
<path d="M1731.74 164.956H1733.67V166.885H1731.74V164.956Z" fill="#FFDE99"/>
<path d="M1738.81 235.705H1740.73V237.634H1738.81V235.705Z" fill="#FFDE99"/>
<path d="M1738.81 164.956H1740.73V166.885H1738.81V164.956Z" fill="#FFDE99"/>
<path d="M1745.87 235.705H1747.8V237.634H1745.87V235.705Z" fill="#FFDE99"/>
<path d="M1745.87 164.956H1747.8V166.885H1745.87V164.956Z" fill="#FFDE99"/>
<path d="M1752.94 235.705H1754.87V237.634H1752.94V235.705Z" fill="#FFDE99"/>
<path d="M1752.94 164.956H1754.87V166.885H1752.94V164.956Z" fill="#FFDE99"/>
<path d="M1760.01 235.705H1761.94V237.634H1760.01V235.705Z" fill="#FFDE99"/>
<path d="M1760.01 164.956H1761.94V166.885H1760.01V164.956Z" fill="#FFDE99"/>
<path d="M1767.08 235.705H1769V237.634H1767.08V235.705Z" fill="#FFDE99"/>
<path d="M1767.08 164.956H1769V166.885H1767.08V164.956Z" fill="#FFDE99"/>
<path d="M1774.14 235.705H1776.07V237.634H1774.14V235.705Z" fill="#FFDE99"/>
<path d="M1774.14 164.956H1776.07V166.885H1774.14V164.956Z" fill="#FFDE99"/>
<path d="M1639.86 242.136H1641.78V244.066H1639.86V242.136Z" fill="#FFDE99"/>
<path d="M1639.86 171.387H1641.78V173.317H1639.86V171.387Z" fill="#FFDE99"/>
<path d="M1646.92 242.136H1648.85V244.066H1646.92V242.136Z" fill="#FFDE99"/>
<path d="M1646.92 171.387H1648.85V173.317H1646.92V171.387Z" fill="#FFDE99"/>
<path d="M1653.99 242.136H1655.92V244.066H1653.99V242.136Z" fill="#FFDE99"/>
<path d="M1653.99 171.387H1655.92V173.317H1653.99V171.387Z" fill="#FFDE99"/>
<path d="M1661.06 242.136H1662.99V244.066H1661.06V242.136Z" fill="#FFDE99"/>
<path d="M1661.06 171.387H1662.99V173.317H1661.06V171.387Z" fill="#FFDE99"/>
<path d="M1668.13 242.136H1670.05V244.066H1668.13V242.136Z" fill="#FFDE99"/>
<path d="M1668.13 171.387H1670.05V173.317H1668.13V171.387Z" fill="#FFDE99"/>
<path d="M1675.19 242.136H1677.12V244.066H1675.19V242.136Z" fill="#FFDE99"/>
<path d="M1675.19 171.387H1677.12V173.317H1675.19V171.387Z" fill="#FFDE99"/>
<path d="M1682.26 242.136H1684.19V244.066H1682.26V242.136Z" fill="#FFDE99"/>
<path d="M1682.26 171.387H1684.19V173.317H1682.26V171.387Z" fill="#FFDE99"/>
<path d="M1689.33 242.136H1691.26V244.066H1689.33V242.136Z" fill="#FFDE99"/>
<path d="M1689.33 171.387H1691.26V173.317H1689.33V171.387Z" fill="#FFDE99"/>
<path d="M1696.4 242.136H1698.33V244.066H1696.4V242.136Z" fill="#FFDE99"/>
<path d="M1696.4 171.387H1698.33V173.317H1696.4V171.387Z" fill="#FFDE99"/>
<path d="M1703.47 242.136H1705.39V244.066H1703.47V242.136Z" fill="#FFDE99"/>
<path d="M1703.47 171.387H1705.39V173.317H1703.47V171.387Z" fill="#FFDE99"/>
<path d="M1710.53 242.136H1712.46V244.066H1710.53V242.136Z" fill="#FFDE99"/>
<path d="M1710.53 171.387H1712.46V173.317H1710.53V171.387Z" fill="#FFDE99"/>
<path d="M1717.6 242.136H1719.53V244.066H1717.6V242.136Z" fill="#FFDE99"/>
<path d="M1717.6 171.387H1719.53V173.317H1717.6V171.387Z" fill="#FFDE99"/>
<path d="M1724.67 242.136H1726.6V244.066H1724.67V242.136Z" fill="#FFDE99"/>
<path d="M1724.67 171.387H1726.6V173.317H1724.67V171.387Z" fill="#FFDE99"/>
<path d="M1731.74 242.136H1733.67V244.066H1731.74V242.136Z" fill="#FFDE99"/>
<path d="M1731.74 171.387H1733.67V173.317H1731.74V171.387Z" fill="#FFDE99"/>
<path d="M1738.81 242.136H1740.73V244.066H1738.81V242.136Z" fill="#FFDE99"/>
<path d="M1738.81 171.387H1740.73V173.317H1738.81V171.387Z" fill="#FFDE99"/>
<path d="M1745.87 242.136H1747.8V244.066H1745.87V242.136Z" fill="#FFDE99"/>
<path d="M1745.87 171.387H1747.8V173.317H1745.87V171.387Z" fill="#FFDE99"/>
<path d="M1752.94 242.136H1754.87V244.066H1752.94V242.136Z" fill="#FFDE99"/>
<path d="M1752.94 171.387H1754.87V173.317H1752.94V171.387Z" fill="#FFDE99"/>
<path d="M1760.01 242.136H1761.94V244.066H1760.01V242.136Z" fill="#FFDE99"/>
<path d="M1760.01 171.387H1761.94V173.317H1760.01V171.387Z" fill="#FFDE99"/>
<path d="M1767.08 242.136H1769V244.066H1767.08V242.136Z" fill="#FFDE99"/>
<path d="M1767.08 171.387H1769V173.317H1767.08V171.387Z" fill="#FFDE99"/>
<path d="M1774.14 242.136H1776.07V244.066H1774.14V242.136Z" fill="#FFDE99"/>
<path d="M1774.14 171.387H1776.07V173.317H1774.14V171.387Z" fill="#FFDE99"/>
<path d="M1639.86 248.568H1641.78V250.498H1639.86V248.568Z" fill="#FFDE99"/>
<path d="M1639.86 177.819H1641.78V179.749H1639.86V177.819Z" fill="#FFDE99"/>
<path d="M1646.92 248.568H1648.85V250.498H1646.92V248.568Z" fill="#FFDE99"/>
<path d="M1646.92 177.819H1648.85V179.749H1646.92V177.819Z" fill="#FFDE99"/>
<path d="M1653.99 248.568H1655.92V250.498H1653.99V248.568Z" fill="#FFDE99"/>
<path d="M1653.99 177.819H1655.92V179.749H1653.99V177.819Z" fill="#FFDE99"/>
<path d="M1661.06 248.568H1662.99V250.498H1661.06V248.568Z" fill="#FFDE99"/>
<path d="M1661.06 177.819H1662.99V179.749H1661.06V177.819Z" fill="#FFDE99"/>
<path d="M1668.13 248.568H1670.05V250.498H1668.13V248.568Z" fill="#FFDE99"/>
<path d="M1668.13 177.819H1670.05V179.749H1668.13V177.819Z" fill="#FFDE99"/>
<path d="M1675.19 248.568H1677.12V250.498H1675.19V248.568Z" fill="#FFDE99"/>
<path d="M1675.19 177.819H1677.12V179.749H1675.19V177.819Z" fill="#FFDE99"/>
<path d="M1682.26 248.568H1684.19V250.498H1682.26V248.568Z" fill="#FFDE99"/>
<path d="M1682.26 177.819H1684.19V179.749H1682.26V177.819Z" fill="#FFDE99"/>
<path d="M1689.33 248.568H1691.26V250.498H1689.33V248.568Z" fill="#FFDE99"/>
<path d="M1689.33 177.819H1691.26V179.749H1689.33V177.819Z" fill="#FFDE99"/>
<path d="M1696.4 248.568H1698.33V250.498H1696.4V248.568Z" fill="#FFDE99"/>
<path d="M1696.4 177.819H1698.33V179.749H1696.4V177.819Z" fill="#FFDE99"/>
<path d="M1703.47 248.568H1705.39V250.498H1703.47V248.568Z" fill="#FFDE99"/>
<path d="M1703.47 177.819H1705.39V179.749H1703.47V177.819Z" fill="#FFDE99"/>
<path d="M1710.53 248.568H1712.46V250.498H1710.53V248.568Z" fill="#FFDE99"/>
<path d="M1710.53 177.819H1712.46V179.749H1710.53V177.819Z" fill="#FFDE99"/>
<path d="M1717.6 248.568H1719.53V250.498H1717.6V248.568Z" fill="#FFDE99"/>
<path d="M1717.6 177.819H1719.53V179.749H1717.6V177.819Z" fill="#FFDE99"/>
<path d="M1724.67 248.568H1726.6V250.498H1724.67V248.568Z" fill="#FFDE99"/>
<path d="M1724.67 177.819H1726.6V179.749H1724.67V177.819Z" fill="#FFDE99"/>
<path d="M1731.74 248.568H1733.67V250.498H1731.74V248.568Z" fill="#FFDE99"/>
<path d="M1731.74 177.819H1733.67V179.749H1731.74V177.819Z" fill="#FFDE99"/>
<path d="M1738.81 248.568H1740.73V250.498H1738.81V248.568Z" fill="#FFDE99"/>
<path d="M1738.81 177.819H1740.73V179.749H1738.81V177.819Z" fill="#FFDE99"/>
<path d="M1745.87 248.568H1747.8V250.498H1745.87V248.568Z" fill="#FFDE99"/>
<path d="M1745.87 177.819H1747.8V179.749H1745.87V177.819Z" fill="#FFDE99"/>
<path d="M1752.94 248.568H1754.87V250.498H1752.94V248.568Z" fill="#FFDE99"/>
<path d="M1752.94 177.819H1754.87V179.749H1752.94V177.819Z" fill="#FFDE99"/>
<path d="M1760.01 248.568H1761.94V250.498H1760.01V248.568Z" fill="#FFDE99"/>
<path d="M1760.01 177.819H1761.94V179.749H1760.01V177.819Z" fill="#FFDE99"/>
<path d="M1767.08 248.568H1769V250.498H1767.08V248.568Z" fill="#FFDE99"/>
<path d="M1767.08 177.819H1769V179.749H1767.08V177.819Z" fill="#FFDE99"/>
<path d="M1774.14 248.568H1776.07V250.498H1774.14V248.568Z" fill="#FFDE99"/>
<path d="M1774.14 177.819H1776.07V179.749H1774.14V177.819Z" fill="#FFDE99"/>
<path d="M519.252 132.464C520.063 132.773 520.965 133.01 521.928 133.167C538.26 134.315 554.512 135.733 570.963 136.474C591.93 137.421 613.037 137.881 634.111 138.408C639.449 138.554 644.881 138.267 650.248 138.288C653.65 138.301 656.987 138.623 660.388 138.617C669.225 138.589 678.081 138.483 686.948 138.35C688.492 138.324 690.057 137.85 691.622 137.777C692.576 137.721 693.53 138.254 694.486 138.217C702.789 137.865 711.095 137.558 719.387 137.019C730.662 136.292 741.98 135.691 753.167 134.471C770.222 132.648 787.109 130.194 801.373 123.879C810.711 119.728 818.822 115.093 819.964 108.223C820.868 103.23 818.222 98.9683 813.128 95.2389C809.369 92.414 804.743 89.9117 800.68 87.2146C799.547 86.4729 799.019 85.4497 797.943 84.6658C796.425 83.3881 794.628 82.2202 792.589 81.1846C780.532 75.93 767.425 71.3983 753.469 67.6595C743.206 64.8352 732.782 62.1045 722.115 59.7372C687.944 52.1616 652.574 46.4089 615.308 43.6582C590.397 41.824 565.245 40.7801 539.798 41.4541C524.431 41.8592 509.02 43.1269 493.637 44.0696C481.177 44.8018 468.726 45.6951 456.269 46.4982C433.421 47.9831 410.941 50.6298 389.228 55.5335C378.365 57.9825 368.265 61.1757 360.345 66.213C351.236 72.0121 348.787 81.5067 355.247 87.6908C360.426 92.6688 367.966 96.7482 377.154 99.5436C382.033 101.048 387.073 102.433 391.631 104.177C395.515 105.669 398.572 107.752 402.398 109.28C408.395 111.669 414.816 113.724 420.872 116.103C422.809 116.856 424.009 118.124 425.752 119.05C430.497 121.539 434.866 124.334 440.288 126.318C448.587 129.367 457.564 131.918 466.413 134.534C471.142 135.931 476.212 137.023 481.123 138.255C482.798 138.155 484.462 138.272 485.976 138.597C487.491 138.922 488.813 139.445 489.832 140.122C495.534 141.165 501.226 142.221 506.939 143.25C508.15 143.469 509.463 143.606 510.706 143.772L524.473 145.899C525.904 146.436 527.448 146.885 529.079 147.238C562.483 152.109 596.608 155.759 631.235 158.165C653.074 159.675 674.854 161.422 696.833 162.471C716.11 163.395 735.64 163.528 755.067 163.945C758.172 164.008 761.352 163.705 764.486 163.637C766.193 163.619 767.902 163.403 769.498 163.004C771.094 162.605 772.54 162.031 773.74 161.321C774.048 161.151 774.394 161.002 774.768 160.879C775.742 160.55 776.742 160.233 777.728 159.903L774.932 158.988C775.132 158.862 775.354 158.747 775.595 158.645C776.546 158.324 777.51 158.022 778.462 157.713C777.343 157.417 776.231 156.836 775.071 156.865C736.268 157.71 698.672 154.429 660.981 151.561C616.901 148.201 573.343 143.738 530.798 137.366C520.987 135.899 511.285 134.258 501.673 132.514C494.632 131.216 487.801 129.649 481.229 127.824C484.668 128.269 488.096 128.714 491.555 129.08C498.788 129.89 506.162 130.64 513.444 131.466C514.413 131.656 515.323 131.916 516.149 132.239L519.252 132.464ZM727.022 74.3416C730.859 75.0344 734.82 75.5906 738.512 76.4536C755.354 80.3412 770.946 85.5182 784.843 91.8377C789.668 94.0438 793.418 96.921 797.737 99.4867C802.917 102.453 806.048 106.329 806.661 110.531C806.855 111.781 806.412 113.423 805.032 114.39C801.88 116.606 797.451 118.069 792.204 119.063C795.576 115.302 796.907 111.673 792.946 108.466C790.176 106.204 786.835 104.176 783.011 102.434C771.422 97.2241 757.657 93.8943 743.68 90.8356C721.745 86.0395 698.817 82.7049 675.407 80.1359C645.163 76.7393 614.137 75.0206 582.789 75.0053C571.902 74.9983 560.99 75.1806 550.082 75.4335C527.946 75.9416 505.793 77.755 484.013 80.8419C472.135 82.5164 460.48 84.5334 449.272 87.6235C437.876 90.7699 427.581 94.3237 422.31 101.035C421.663 101.849 420.891 102.16 419.29 101.814C415.492 100.977 411.559 100.283 407.783 99.4058C404.723 98.6932 401.204 98.124 398.976 96.9034C393.914 94.2376 390.781 90.6554 390.079 86.7304C389.546 83.5736 390.314 80.334 393.58 77.6265C397.486 74.39 401.57 70.936 407.969 68.9563C411.063 67.992 412.168 65.612 416.371 65.5914C416.705 65.5718 417.101 64.9729 417.514 64.6577C418.786 63.684 421.634 63.8466 422.468 62.556C422.656 62.6042 422.855 62.6402 423.062 62.6634C423.921 62.7731 424.829 62.7772 425.721 62.6752C434.728 60.4388 443.631 58.0725 453.083 56.476C461.663 54.9438 470.493 54.0206 479.342 53.7302C484.927 53.596 490.644 54.2689 496.295 52.818C497.381 52.5408 499.141 53.3427 500.626 53.3524C510.451 53.4218 520.292 53.5613 530.141 53.4223C539.714 53.2866 549.056 54.71 558.89 53.5113C561.15 53.2362 564.169 53.0523 566.414 54.3625C567.418 54.9501 570.102 53.9388 572.406 54.4306C574.711 54.9225 578.113 54.5222 581.01 54.5136C581.106 54.508 581.194 54.5739 581.302 54.5805C587.699 55.0193 593.908 55.9219 600.195 56.5096C623.968 58.7533 647.653 61.1122 670.825 64.5165C676.044 65.2833 681.166 66.2433 686.53 66.827C693.64 67.5667 700.966 67.9186 707.241 69.9426C709.609 70.7023 712.73 70.8229 715.454 71.3095C716.49 71.5433 717.48 71.827 718.414 72.1574L727.022 74.3416ZM584.279 82.0181L582.309 80.8923C582.977 80.7481 583.676 80.6633 584.378 80.6414C585.583 80.7582 586.794 80.9844 588.002 81.1656L584.121 81.9693C584.952 82.2503 585.748 82.7596 586.623 82.7664C588.288 82.772 590.068 82.2922 591.691 82.3844C594.009 82.5068 596.189 83.1224 598.51 83.2771C616.447 84.2341 634.457 84.993 652.343 86.0953C659.387 86.5286 666.263 87.5731 673.087 88.5431C684.681 90.1898 696.895 90.7654 708.087 93.1082C709.021 93.3055 710.235 93.1695 711.203 93.3454C714.835 94.005 718.468 94.6774 722.105 95.4337C725.392 96.1329 728.523 97.0419 731.819 97.6889C735.115 98.3359 738.463 98.65 741.73 99.2146C750.513 100.723 757.706 103.688 765.203 106.332C769.257 107.9 773.016 109.672 776.437 111.628C778.252 112.668 779.856 113.813 781.225 115.046C782.797 116.331 781.563 117.134 778.97 117.442C771.478 118.347 763.992 119.563 756.461 120.006C721.132 122.082 686.075 121.452 651.105 120.674C631.534 120.24 612.037 119.439 592.55 118.612C560.324 117.24 528.314 115.273 496.705 112.164C474.432 110.078 452.474 107.334 430.925 103.944C428.192 103.496 428.47 102.93 429.966 101.892C435.091 98.4155 441.909 96.0166 448.918 94.2273C457.91 91.94 467.602 90.5751 476.969 88.7637C477.632 88.6342 478.041 88.054 478.66 87.7719C479.278 87.4898 480.237 87.1036 480.997 86.7809L482.001 87.3685L479.403 87.7865L480.05 88.1882C481.723 87.9282 483.442 87.4327 485.049 87.4612C490.12 87.5447 494.903 86.3907 499.903 86.0904C508.401 85.591 516.887 84.672 525.371 83.9471C527.6 83.7515 529.809 83.4341 532.04 83.2965C534.046 83.1787 536.048 83.2163 538.022 83.1843C539.506 83.1682 541.002 83.1451 542.487 83.1419C543.972 83.1387 545.68 83.4715 546.593 83.1074C549.285 82.0375 551.824 82.4573 554.375 82.6501C556.59 82.8433 558.649 83.2397 559.882 81.5959C560.082 81.3255 561.056 81.1971 561.742 81.0469C561.826 81.042 562.312 81.3626 562.245 81.4441C560.978 82.9153 563.22 82.1435 564.002 82.2139C565.076 82.2881 566.162 82.3258 567.255 82.3267C569.114 82.3726 570.972 82.4056 572.842 82.4316C575.107 82.4537 577.688 82.1469 579.545 82.568C581.702 83.0038 582.824 82.5239 584.279 82.0052L584.279 82.0181ZM399.869 59.7129C400.398 59.9534 401.003 60.4547 401.454 60.3958C405.805 59.8362 410.113 59.1756 414.449 58.5716C415.282 58.4903 416.119 58.4411 416.956 58.4243C416.496 58.8146 415.954 59.1766 415.342 59.5021C411.568 61.0948 407.628 62.542 403.955 64.2323C391.565 69.8297 384.157 76.8545 382.438 85.3169C381.975 87.6139 382.614 89.9304 382.776 92.695C373.357 89.5495 365.625 86.1627 361.009 81.183C358.757 78.7287 358.196 75.9099 361.49 73.2655C368.146 67.9144 378.533 65.5257 388.557 62.8673C392.4 61.8202 397.184 61.9076 399.868 59.7L399.869 59.7129ZM518.358 44.072C563.238 41.0855 634.664 42.4627 717.644 60.0841C738.768 64.4989 758.777 70.1762 777.325 77.0181C698.389 51.9876 611.937 40.4937 518.357 44.0591L518.358 44.072ZM773.31 100.812L772.939 101.215C768.518 99.9685 764.153 98.6536 759.664 97.4688C743.842 93.2498 727.235 89.8514 710.046 87.3154C694.876 85.1416 679.654 82.9063 664.109 81.4982C644.58 79.7358 624.73 78.6388 604.929 77.5584C596.614 77.1029 588.076 77.333 579.629 77.2732C574.693 77.2399 569.747 77.259 564.814 77.2709C559.88 77.2827 554.851 77.3066 549.87 77.3277C553.629 76.8022 557.454 76.5101 561.269 76.4574C572.706 76.5182 584.129 76.6705 595.537 76.914C625.383 77.5206 654.905 79.1485 683.547 82.9168C700.518 85.1529 717.24 87.8433 733.86 90.6432C747.961 92.975 761.239 96.3934 773.309 100.799L773.31 100.812ZM473.989 129.349L474.533 128.832C478.503 129.737 482.383 130.744 486.441 131.527C495.829 133.336 505.206 135.152 514.749 136.751C526.072 138.672 537.537 140.359 549.014 142.038C550.79 142.302 552.87 143.26 554.996 141.939C555.403 142.042 555.791 142.165 556.156 142.304C557.438 142.72 558.612 143.349 559.999 143.507C581.512 145.869 603.051 148.196 624.616 150.49C627.762 150.829 630.928 151.109 634.096 151.414C632.37 151.625 630.609 151.632 628.935 151.433C606.017 149.067 583.121 146.684 560.248 144.281C557.983 144.046 556.985 144.189 557.392 145.613C557.339 146.141 557.101 146.666 556.692 147.161C556.177 146.739 555.578 146.341 555.144 145.888C554.186 144.864 554.539 143.53 551.473 143.116C539.85 141.535 528.3 139.826 516.822 137.987C509.241 136.77 501.847 135.258 494.399 133.86C489.554 132.941 484.71 132.03 479.86 131.028C477.835 130.529 475.874 129.965 473.988 129.336L473.989 129.349ZM611.053 121.657L610.877 122.12C601.068 121.72 591.239 121.373 581.45 120.894C555.602 119.632 529.791 118.187 504.411 115.721C494.136 114.714 483.921 113.523 473.744 112.35C468.571 111.748 463.485 111.012 458.353 110.299C456.386 110.033 454.407 109.78 452.427 109.522L452.753 108.946C504.415 115.792 557.393 119.54 611.052 121.644L611.053 121.657ZM597.674 130.203C554.885 129.031 512.715 126.381 472.15 119.873C513.24 124.978 555.192 128.42 597.672 130.171L597.674 130.203ZM430.49 50.8908L430.465 50.4654L460.137 47.9135C460.147 48.0875 460.157 48.2616 460.167 48.4291L430.49 50.8908ZM644.047 152.2L643.816 152.75L638.262 152.184L638.43 151.786L644.047 152.2Z" fill="#FFD170"/>
<path d="M1790.51 190C1820.62 190 1845.03 214.409 1845.03 244.519V299.037H1736V244.519C1736 214.409 1760.41 190 1790.51 190Z" fill="#FFD170"/>
<path d="M1595 39C1609.91 39 1622 51.0883 1622 66C1622 80.9117 1609.91 93 1595 93C1580.09 93 1568 80.9117 1568 66C1568 51.0883 1580.09 39 1595 39Z" fill="#FFD170"/>
<path d="M1811 1.30026e-06L1920.04 0L1920.04 109.025C1905.72 109.025 1891.54 106.206 1878.31 100.726C1865.08 95.2466 1853.06 87.2158 1842.94 77.0917C1832.81 66.9676 1824.78 54.9487 1819.3 41.7218C1813.82 28.4948 1811 14.3172 1811 1.30026e-06Z" fill="#FFD170"/>
<path d="M1343.04 207.18C1342.94 205.95 1343.96 204.924 1345.19 205.025L1355.21 205.851C1356.91 205.991 1357.66 208.055 1356.46 209.259L1347.25 218.45C1346.05 219.654 1343.98 218.894 1343.85 217.196L1343.04 207.18Z" fill="#FFD170"/>
<path d="M1399.2 216.694C1392.3 216.694 1386.7 222.291 1386.7 229.194C1386.7 236.098 1392.3 241.694 1399.2 241.694C1406.11 241.694 1411.7 236.098 1411.7 229.194C1411.7 222.291 1406.11 216.694 1399.2 216.694Z" stroke="#FFD170" stroke-width="3"/>
<path d="M907.5 28C914.404 28 920 33.5964 920 40.5C920 47.4036 914.404 53 907.5 53C900.596 53 895 47.4036 895 40.5C895 33.5964 900.596 28 907.5 28Z" stroke="#FFD170" stroke-width="3"/>
<circle r="6.5" transform="matrix(-1 0 0 1 1366.2 260.194)" fill="#FFD170"/>
<circle cx="949.5" cy="59.5" r="6.5" fill="#FFD170"/>
<path d="M491.042 220.547L491.044 220.549L473.192 209.675L484.023 191.819C484.914 190.349 484.472 188.397 483.005 187.504L480.721 186.113C479.255 185.22 477.317 185.722 476.426 187.192L465.595 205.048L447.744 194.174C446.278 193.282 444.364 193.743 443.472 195.213L442.076 197.515C441.185 198.984 441.66 200.894 443.126 201.787L460.979 212.661L450.109 230.582C449.218 232.05 449.704 233.941 451.17 234.834L453.455 236.226C454.921 237.119 456.815 236.677 457.706 235.209L468.575 217.288L486.424 228.16C487.891 229.053 489.804 228.598 490.695 227.129L492.091 224.827C492.983 223.357 492.508 221.441 491.042 220.547Z" fill="#FFD170"/>
<path d="M601.922 250.212L601.924 250.213L584.072 239.339L594.903 221.483C595.794 220.013 595.352 218.061 593.885 217.168L591.601 215.777C590.135 214.884 588.197 215.386 587.306 216.856L576.475 234.712L558.624 223.838C557.158 222.946 555.244 223.407 554.352 224.877L552.956 227.179C552.065 228.648 552.54 230.558 554.006 231.451L571.859 242.325L560.989 260.246C560.098 261.715 560.584 263.605 562.05 264.498L564.335 265.89C565.801 266.783 567.695 266.341 568.586 264.873L579.455 246.952L597.304 257.824C598.771 258.717 600.684 258.262 601.575 256.793L602.971 254.491C603.863 253.021 603.388 251.105 601.922 250.212Z" fill="#FFD170"/>
<path d="M610.673 131.393C615.057 140.866 642.245 164.353 694.469 171.76M694.469 171.76C735.613 171.147 730.375 149.141 723 146C715.625 142.859 697 143 694.469 171.76ZM694.469 171.76C692.215 184.056 709.595 196.021 748.776 192.856C787.956 189.691 806.715 174.751 811.197 167.676M811.197 167.676L777.877 169.418M811.197 167.676L804.677 192.934" stroke="black" stroke-width="1.5" stroke-dasharray="5 5"/>
</svg>
